<?xml version="1.0" encoding="utf-8" standalone="no"?>
<!DOCTYPE svg PUBLIC "-//W3C//DTD SVG 1.1//EN"
  "http://www.w3.org/Graphics/SVG/1.1/DTD/svg11.dtd">
<svg xmlns:xlink="http://www.w3.org/1999/xlink" width="256.014606pt" height="198.121745pt" viewBox="0 0 256.014606 198.121745" xmlns="http://www.w3.org/2000/svg" version="1.1">
 <metadata>
  <rdf:RDF xmlns:dc="http://purl.org/dc/elements/1.1/" xmlns:cc="http://creativecommons.org/ns#" xmlns:rdf="http://www.w3.org/1999/02/22-rdf-syntax-ns#">
   <cc:Work>
    <dc:type rdf:resource="http://purl.org/dc/dcmitype/StillImage"/>
    <dc:date>2026-03-30T02:09:39.352411</dc:date>
    <dc:format>image/svg+xml</dc:format>
    <dc:creator>
     <cc:Agent>
      <dc:title>Matplotlib v3.10.8, https://matplotlib.org/</dc:title>
     </cc:Agent>
    </dc:creator>
   </cc:Work>
  </rdf:RDF>
 </metadata>
 <defs>
  <style type="text/css">*{stroke-linejoin: round; stroke-linecap: butt}</style>
 </defs>
 <g id="figure_1">
  <g id="patch_1">
   <path d="M 0 198.121745 
L 256.014606 198.121745 
L 256.014606 0 
L 0 0 
z
" style="fill: #ffffff"/>
  </g>
  <g id="axes_1">
   <g id="patch_2">
    <path d="M 39.855118 165.543307 
L 243.949606 165.543307 
L 243.949606 14.740157 
L 39.855118 14.740157 
z
" style="fill: #ffffff"/>
   </g>
   <g id="line2d_1">
    <path d="M 97.001575 128.758964 
L 113.329134 102.836085 
L 129.656693 83.923547 
L 145.984252 71.042178 
L 162.311811 54.102243 
L 178.63937 47.670649 
L 194.966929 51.363282 
L 211.294488 45.179251 
L 227.622047 39.312439 
L 243.949606 24.093349 
" clip-path="url(#p481237cc47)" style="fill: none; stroke: #c0392b; stroke-opacity: 0.25; stroke-width: 0.5; stroke-linecap: square"/>
   </g>
   <g id="line2d_2">
    <path d="M 97.001575 136.046486 
L 113.329134 126.799831 
L 129.656693 86.609905 
L 145.984252 63.795403 
L 162.311811 44.442948 
L 178.63937 43.49016 
L 194.966929 38.77894 
L 211.294488 35.557912 
L 227.622047 35.196532 
L 243.949606 46.406205 
" clip-path="url(#p481237cc47)" style="fill: none; stroke: #c0392b; stroke-opacity: 0.25; stroke-width: 0.5; stroke-linecap: square"/>
   </g>
   <g id="line2d_3">
    <path d="M 113.329134 121.317652 
L 129.656693 98.315618 
L 145.984252 85.994562 
L 162.311811 61.927263 
L 178.63937 56.336543 
L 194.966929 45.510626 
L 211.294488 30.914975 
L 227.622047 39.350726 
L 243.949606 32.759216 
" clip-path="url(#p481237cc47)" style="fill: none; stroke: #c0392b; stroke-opacity: 0.25; stroke-width: 0.5; stroke-linecap: square"/>
   </g>
   <g id="line2d_4">
    <path d="M 113.329134 128.870762 
L 129.656693 100.112472 
L 145.984252 70.111532 
L 162.311811 54.02529 
L 178.63937 54.007697 
L 194.966929 48.321845 
L 211.294488 37.166147 
L 227.622047 36.381558 
L 243.949606 34.168178 
" clip-path="url(#p481237cc47)" style="fill: none; stroke: #c0392b; stroke-opacity: 0.25; stroke-width: 0.5; stroke-linecap: square"/>
   </g>
   <g id="line2d_5">
    <path d="M 113.329134 135.233626 
L 129.656693 111.080167 
L 145.984252 87.28439 
L 162.311811 57.095931 
L 178.63937 53.397246 
L 194.966929 38.77986 
L 211.294488 45.063388 
L 227.622047 37.018915 
L 243.949606 35.817394 
" clip-path="url(#p481237cc47)" style="fill: none; stroke: #c0392b; stroke-opacity: 0.25; stroke-width: 0.5; stroke-linecap: square"/>
   </g>
   <g id="line2d_6">
    <path d="M 80.674016 130.506758 
L 97.001575 102.404916 
L 113.329134 80.243099 
L 129.656693 63.206118 
L 145.984252 63.9254 
L 162.311811 60.861216 
L 178.63937 41.673316 
L 194.966929 38.192414 
L 211.294488 43.571909 
L 227.622047 50.940666 
L 243.949606 37.738015 
" clip-path="url(#p481237cc47)" style="fill: none; stroke: #5b8fc9; stroke-opacity: 0.25; stroke-width: 0.5; stroke-linecap: square"/>
   </g>
   <g id="line2d_7">
    <path d="M 64.346457 122.757776 
L 80.674016 96.765036 
L 97.001575 82.058942 
L 113.329134 65.410805 
L 129.656693 56.711015 
L 145.984252 48.539557 
L 162.311811 48.517075 
L 178.63937 56.034021 
L 194.966929 41.514649 
L 211.294488 31.398677 
L 227.622047 37.246536 
L 243.949606 30.803039 
" clip-path="url(#p481237cc47)" style="fill: none; stroke: #5b8fc9; stroke-opacity: 0.25; stroke-width: 0.5; stroke-linecap: square"/>
   </g>
   <g id="line2d_8">
    <path d="M 64.346457 129.43948 
L 80.674016 114.692135 
L 97.001575 90.653277 
L 113.329134 79.321183 
L 129.656693 67.935077 
L 145.984252 67.090836 
L 162.311811 69.532667 
L 178.63937 49.68108 
L 194.966929 38.280233 
L 211.294488 41.990727 
L 227.622047 40.2078 
L 243.949606 30.670637 
" clip-path="url(#p481237cc47)" style="fill: none; stroke: #5b8fc9; stroke-opacity: 0.25; stroke-width: 0.5; stroke-linecap: square"/>
   </g>
   <g id="line2d_9">
    <path d="M 64.346457 106.125041 
L 80.674016 91.082051 
L 97.001575 64.212137 
L 113.329134 57.27093 
L 129.656693 66.040228 
L 145.984252 65.96451 
L 162.311811 64.202276 
L 178.63937 53.884736 
L 194.966929 52.452212 
L 211.294488 38.731895 
L 227.622047 39.38386 
L 243.949606 31.485234 
" clip-path="url(#p481237cc47)" style="fill: none; stroke: #5b8fc9; stroke-opacity: 0.25; stroke-width: 0.5; stroke-linecap: square"/>
   </g>
   <g id="line2d_10">
    <path d="M 80.674016 135.708025 
L 97.001575 102.722424 
L 113.329134 83.142015 
L 129.656693 72.36727 
L 145.984252 61.393285 
L 162.311811 49.43582 
L 178.63937 52.205583 
L 194.966929 43.554203 
L 211.294488 36.548094 
L 227.622047 47.871418 
L 243.949606 37.696996 
" clip-path="url(#p481237cc47)" style="fill: none; stroke: #5b8fc9; stroke-opacity: 0.25; stroke-width: 0.5; stroke-linecap: square"/>
   </g>
   <g id="line2d_11">
    <path d="M 64.346457 116.252123 
L 80.674016 78.539161 
L 97.001575 70.257183 
L 113.329134 50.424137 
L 129.656693 60.05345 
L 145.984252 33.65251 
L 162.311811 37.558113 
L 178.63937 44.694891 
L 194.966929 28.129769 
L 211.294488 32.549911 
L 227.622047 23.573902 
L 243.949606 34.838267 
" clip-path="url(#p481237cc47)" style="fill: none; stroke: #e67e22; stroke-opacity: 0.25; stroke-width: 0.5; stroke-linecap: square"/>
   </g>
   <g id="line2d_12">
    <path d="M 48.018898 152.263848 
L 64.346457 129.911066 
L 80.674016 109.477987 
L 97.001575 93.088295 
L 113.329134 76.055304 
L 129.656693 60.138617 
L 145.984252 65.932399 
L 162.311811 56.376501 
L 178.63937 54.089077 
L 194.966929 43.962892 
L 211.294488 35.366251 
L 227.622047 47.43397 
L 243.949606 23.992668 
" clip-path="url(#p481237cc47)" style="fill: none; stroke: #e67e22; stroke-opacity: 0.25; stroke-width: 0.5; stroke-linecap: square"/>
   </g>
   <g id="line2d_13">
    <path d="M 48.018898 140.612646 
L 64.346457 117.239127 
L 80.674016 85.241031 
L 97.001575 58.16612 
L 113.329134 55.554501 
L 129.656693 34.392198 
L 145.984252 43.637762 
L 162.311811 46.028795 
L 178.63937 36.099155 
L 194.966929 28.071707 
L 211.294488 29.31061 
L 227.622047 26.959043 
L 243.949606 30.890943 
" clip-path="url(#p481237cc47)" style="fill: none; stroke: #e67e22; stroke-opacity: 0.25; stroke-width: 0.5; stroke-linecap: square"/>
   </g>
   <g id="line2d_14">
    <path d="M 48.018898 158.688618 
L 64.346457 125.639059 
L 80.674016 100.748786 
L 97.001575 73.138193 
L 113.329134 67.545657 
L 129.656693 60.19944 
L 145.984252 52.650253 
L 162.311811 55.19798 
L 178.63937 48.268467 
L 194.966929 48.911876 
L 211.294488 37.075958 
L 227.622047 38.379553 
L 243.949606 40.218895 
" clip-path="url(#p481237cc47)" style="fill: none; stroke: #e67e22; stroke-opacity: 0.25; stroke-width: 0.5; stroke-linecap: square"/>
   </g>
   <g id="line2d_15">
    <path d="M 48.018898 110.019559 
L 64.346457 85.112379 
L 80.674016 70.565209 
L 97.001575 69.471974 
L 113.329134 59.392767 
L 129.656693 57.908964 
L 145.984252 55.649946 
L 162.311811 52.187899 
L 178.63937 47.119012 
L 194.966929 43.926839 
L 211.294488 38.74303 
L 227.622047 34.885058 
L 243.949606 40.882037 
" clip-path="url(#p481237cc47)" style="fill: none; stroke: #9e9e9e; stroke-opacity: 0.25; stroke-width: 0.5; stroke-linecap: square"/>
   </g>
   <g id="line2d_16">
    <path d="M 48.018898 104.785179 
L 64.346457 82.147747 
L 80.674016 69.932115 
L 97.001575 68.694507 
L 113.329134 66.634765 
L 129.656693 60.420051 
L 145.984252 61.210969 
L 162.311811 49.884556 
L 178.63937 38.519284 
L 194.966929 47.052369 
L 211.294488 47.088427 
L 227.622047 27.038598 
L 243.949606 32.473535 
" clip-path="url(#p481237cc47)" style="fill: none; stroke: #9e9e9e; stroke-opacity: 0.25; stroke-width: 0.5; stroke-linecap: square"/>
   </g>
   <g id="line2d_17">
    <path d="M 48.018898 55.604013 
L 64.346457 66.541529 
L 80.674016 65.708353 
L 97.001575 66.346303 
L 113.329134 65.415801 
L 129.656693 62.528663 
L 145.984252 54.330531 
L 162.311811 52.160575 
L 178.63937 60.393469 
L 194.966929 39.966985 
L 211.294488 41.187794 
L 227.622047 39.919997 
L 243.949606 41.405465 
" clip-path="url(#p481237cc47)" style="fill: none; stroke: #9e9e9e; stroke-opacity: 0.25; stroke-width: 0.5; stroke-linecap: square"/>
   </g>
   <g id="line2d_18">
    <path d="M 48.018898 71.362563 
L 64.346457 64.624284 
L 80.674016 70.351917 
L 97.001575 67.194209 
L 113.329134 59.71829 
L 129.656693 60.856176 
L 145.984252 55.890766 
L 162.311811 51.154148 
L 178.63937 52.276319 
L 194.966929 48.914637 
L 211.294488 44.783804 
L 227.622047 38.749515 
L 243.949606 34.088037 
" clip-path="url(#p481237cc47)" style="fill: none; stroke: #9e9e9e; stroke-opacity: 0.25; stroke-width: 0.5; stroke-linecap: square"/>
   </g>
   <g id="line2d_19">
    <path d="M 48.018898 87.170802 
L 64.346457 83.101046 
L 80.674016 75.163252 
L 97.001575 67.476178 
L 113.329134 60.276789 
L 129.656693 58.972507 
L 145.984252 61.322494 
L 162.311811 60.121994 
L 178.63937 42.920815 
L 194.966929 44.847447 
L 211.294488 29.864986 
L 227.622047 32.667085 
L 243.949606 23.252014 
" clip-path="url(#p481237cc47)" style="fill: none; stroke: #9e9e9e; stroke-opacity: 0.25; stroke-width: 0.5; stroke-linecap: square"/>
   </g>
   <g id="line2d_20">
    <path d="M 48.018898 133.902803 
L 64.346457 112.383977 
L 80.674016 73.688626 
L 97.001575 59.532347 
L 113.329134 32.486574 
L 129.656693 33.050389 
L 145.984252 53.701508 
L 162.311811 41.873725 
L 178.63937 39.966267 
L 194.966929 27.044563 
L 211.294488 35.765115 
L 227.622047 41.715577 
L 243.949606 40.479139 
" clip-path="url(#p481237cc47)" style="fill: none; stroke: #4caf50; stroke-opacity: 0.25; stroke-width: 0.5; stroke-linecap: square"/>
   </g>
   <g id="line2d_21">
    <path d="M 64.346457 107.213586 
L 80.674016 79.699255 
L 97.001575 46.967793 
L 113.329134 43.150632 
L 129.656693 39.88894 
L 145.984252 33.929374 
L 162.311811 32.342797 
L 178.63937 44.070151 
L 194.966929 32.895179 
L 211.294488 30.589111 
L 227.622047 35.490622 
L 243.949606 45.070233 
" clip-path="url(#p481237cc47)" style="fill: none; stroke: #4caf50; stroke-opacity: 0.25; stroke-width: 0.5; stroke-linecap: square"/>
   </g>
   <g id="line2d_22">
    <path d="M 64.346457 116.647006 
L 80.674016 64.956153 
L 97.001575 47.808501 
L 113.329134 40.140509 
L 129.656693 46.738013 
L 145.984252 44.0055 
L 162.311811 38.061524 
L 178.63937 40.129234 
L 194.966929 47.354163 
L 211.294488 35.365939 
L 227.622047 40.446686 
L 243.949606 37.802713 
" clip-path="url(#p481237cc47)" style="fill: none; stroke: #4caf50; stroke-opacity: 0.25; stroke-width: 0.5; stroke-linecap: square"/>
   </g>
   <g id="line2d_23">
    <path d="M 48.018898 114.953746 
L 64.346457 66.75693 
L 80.674016 48.336477 
L 97.001575 39.873162 
L 113.329134 30.703447 
L 129.656693 35.779768 
L 145.984252 21.594846 
L 162.311811 37.116701 
L 178.63937 26.000064 
L 194.966929 31.215107 
L 211.294488 33.831031 
L 227.622047 32.171602 
L 243.949606 48.469576 
" clip-path="url(#p481237cc47)" style="fill: none; stroke: #4caf50; stroke-opacity: 0.25; stroke-width: 0.5; stroke-linecap: square"/>
   </g>
   <g id="line2d_24">
    <path d="M 64.346457 129.25037 
L 80.674016 90.049317 
L 97.001575 65.794042 
L 113.329134 55.588969 
L 129.656693 56.322596 
L 145.984252 54.406695 
L 162.311811 36.542907 
L 178.63937 44.641028 
L 194.966929 41.674624 
L 211.294488 40.455974 
L 227.622047 32.195524 
L 243.949606 46.216621 
" clip-path="url(#p481237cc47)" style="fill: none; stroke: #4caf50; stroke-opacity: 0.25; stroke-width: 0.5; stroke-linecap: square"/>
   </g>
   <g id="line2d_25">
    <path d="M 48.018898 114.568819 
L 64.346457 107.406873 
L 80.674016 83.281536 
L 97.001575 59.862268 
L 113.329134 53.810619 
L 129.656693 51.503011 
L 145.984252 50.943623 
L 162.311811 41.961591 
L 178.63937 44.125758 
L 194.966929 36.598381 
L 211.294488 42.424932 
L 227.622047 37.173458 
L 243.949606 35.86853 
" clip-path="url(#p481237cc47)" style="fill: none; stroke: #757575; stroke-opacity: 0.25; stroke-width: 0.5; stroke-linecap: square"/>
   </g>
   <g id="line2d_26">
    <path d="M 48.018898 129.626777 
L 64.346457 111.775565 
L 80.674016 91.016658 
L 97.001575 74.441402 
L 113.329134 65.83463 
L 129.656693 50.925111 
L 145.984252 53.985469 
L 162.311811 49.991355 
L 178.63937 51.851533 
L 194.966929 38.03292 
L 211.294488 33.540139 
L 227.622047 22.821214 
L 243.949606 48.594712 
" clip-path="url(#p481237cc47)" style="fill: none; stroke: #757575; stroke-opacity: 0.25; stroke-width: 0.5; stroke-linecap: square"/>
   </g>
   <g id="line2d_27">
    <path d="M 64.346457 111.542856 
L 80.674016 82.3397 
L 97.001575 56.765744 
L 113.329134 52.266361 
L 129.656693 45.334662 
L 145.984252 33.259328 
L 162.311811 25.675016 
L 178.63937 35.256465 
L 194.966929 44.66158 
L 211.294488 28.117627 
L 227.622047 32.601929 
L 243.949606 44.493843 
" clip-path="url(#p481237cc47)" style="fill: none; stroke: #757575; stroke-opacity: 0.25; stroke-width: 0.5; stroke-linecap: square"/>
   </g>
   <g id="line2d_28">
    <path d="M 48.018898 119.357387 
L 64.346457 93.135512 
L 80.674016 78.318894 
L 97.001575 69.266149 
L 113.329134 57.904355 
L 129.656693 56.41768 
L 145.984252 59.010584 
L 162.311811 58.655032 
L 178.63937 49.596907 
L 194.966929 41.065609 
L 211.294488 39.366927 
L 227.622047 37.701452 
L 243.949606 36.251804 
" clip-path="url(#p481237cc47)" style="fill: none; stroke: #757575; stroke-opacity: 0.25; stroke-width: 0.5; stroke-linecap: square"/>
   </g>
   <g id="line2d_29">
    <path d="M 48.018898 114.905716 
L 64.346457 86.381469 
L 80.674016 70.284643 
L 97.001575 60.384954 
L 113.329134 50.719068 
L 129.656693 58.149425 
L 145.984252 51.786764 
L 162.311811 50.790556 
L 178.63937 42.825152 
L 194.966929 36.134527 
L 211.294488 41.674716 
L 227.622047 45.466392 
L 243.949606 33.389612 
" clip-path="url(#p481237cc47)" style="fill: none; stroke: #757575; stroke-opacity: 0.25; stroke-width: 0.5; stroke-linecap: square"/>
   </g>
   <g id="line2d_30">
    <path d="M 48.018898 104.687904 
L 64.346457 81.438305 
L 80.674016 57.506019 
L 97.001575 53.783095 
L 113.329134 46.912138 
L 129.656693 60.197827 
L 145.984252 47.378156 
L 162.311811 46.498053 
L 178.63937 37.378717 
L 194.966929 50.512826 
L 211.294488 41.000826 
L 227.622047 41.553769 
L 243.949606 43.763161 
" clip-path="url(#p481237cc47)" style="fill: none; stroke: #212121; stroke-opacity: 0.25; stroke-width: 0.5; stroke-linecap: square"/>
   </g>
   <g id="line2d_31">
    <path d="M 48.018898 115.272913 
L 64.346457 85.892532 
L 80.674016 57.816908 
L 97.001575 52.220029 
L 113.329134 45.570582 
L 129.656693 53.566419 
L 145.984252 45.530715 
L 162.311811 39.055606 
L 178.63937 35.489798 
L 194.966929 40.437281 
L 211.294488 41.683248 
L 227.622047 41.015013 
L 243.949606 32.44577 
" clip-path="url(#p481237cc47)" style="fill: none; stroke: #212121; stroke-opacity: 0.25; stroke-width: 0.5; stroke-linecap: square"/>
   </g>
   <g id="line2d_32">
    <path d="M 48.018898 107.793989 
L 64.346457 70.460183 
L 80.674016 50.361715 
L 97.001575 28.495728 
L 113.329134 25.688254 
L 129.656693 49.78393 
L 145.984252 44.573444 
L 162.311811 46.276398 
L 178.63937 55.296052 
L 194.966929 41.083146 
L 211.294488 46.362032 
L 227.622047 33.524702 
L 243.949606 42.542265 
" clip-path="url(#p481237cc47)" style="fill: none; stroke: #212121; stroke-opacity: 0.25; stroke-width: 0.5; stroke-linecap: square"/>
   </g>
   <g id="line2d_33">
    <path d="M 48.018898 138.264961 
L 64.346457 95.213644 
L 80.674016 60.182827 
L 97.001575 46.855101 
L 113.329134 39.375372 
L 129.656693 41.254163 
L 145.984252 45.840486 
L 162.311811 51.597954 
L 178.63937 54.7878 
L 194.966929 43.964199 
L 211.294488 42.764156 
L 227.622047 28.216253 
L 243.949606 27.534054 
" clip-path="url(#p481237cc47)" style="fill: none; stroke: #212121; stroke-opacity: 0.25; stroke-width: 0.5; stroke-linecap: square"/>
   </g>
   <g id="line2d_34">
    <path d="M 48.018898 116.7813 
L 64.346457 74.964618 
L 80.674016 53.389901 
L 97.001575 50.526799 
L 113.329134 49.430985 
L 129.656693 43.665865 
L 145.984252 46.767239 
L 162.311811 39.189472 
L 178.63937 37.071272 
L 194.966929 46.578544 
L 211.294488 33.69597 
L 227.622047 38.749396 
L 243.949606 36.758412 
" clip-path="url(#p481237cc47)" style="fill: none; stroke: #212121; stroke-opacity: 0.25; stroke-width: 0.5; stroke-linecap: square"/>
   </g>
   <g id="matplotlib.axis_1">
    <g id="xtick_1">
     <g id="line2d_35">
      <defs>
       <path id="mb48b814db2" d="M 0 0 
L 0 3.5 
" style="stroke: #000000; stroke-width: 0.6"/>
      </defs>
      <g>
       <use xlink:href="#mb48b814db2" x="39.855118" y="165.543307" style="stroke: #000000; stroke-width: 0.6"/>
      </g>
     </g>
     <g id="text_1">
      <text style="font-size: 7px; font-family: 'Arial', 'Helvetica', 'DejaVu Sans', sans-serif; text-anchor: middle" x="39.855118" y="177.553776" transform="rotate(-0 39.855118 177.553776)">0.0</text>
     </g>
    </g>
    <g id="xtick_2">
     <g id="line2d_36">
      <g>
       <use xlink:href="#mb48b814db2" x="80.674016" y="165.543307" style="stroke: #000000; stroke-width: 0.6"/>
      </g>
     </g>
     <g id="text_2">
      <text style="font-size: 7px; font-family: 'Arial', 'Helvetica', 'DejaVu Sans', sans-serif; text-anchor: middle" x="80.674016" y="177.553776" transform="rotate(-0 80.674016 177.553776)">0.5</text>
     </g>
    </g>
    <g id="xtick_3">
     <g id="line2d_37">
      <g>
       <use xlink:href="#mb48b814db2" x="121.492913" y="165.543307" style="stroke: #000000; stroke-width: 0.6"/>
      </g>
     </g>
     <g id="text_3">
      <text style="font-size: 7px; font-family: 'Arial', 'Helvetica', 'DejaVu Sans', sans-serif; text-anchor: middle" x="121.492913" y="177.553776" transform="rotate(-0 121.492913 177.553776)">1.0</text>
     </g>
    </g>
    <g id="xtick_4">
     <g id="line2d_38">
      <g>
       <use xlink:href="#mb48b814db2" x="162.311811" y="165.543307" style="stroke: #000000; stroke-width: 0.6"/>
      </g>
     </g>
     <g id="text_4">
      <text style="font-size: 7px; font-family: 'Arial', 'Helvetica', 'DejaVu Sans', sans-serif; text-anchor: middle" x="162.311811" y="177.553776" transform="rotate(-0 162.311811 177.553776)">1.5</text>
     </g>
    </g>
    <g id="xtick_5">
     <g id="line2d_39">
      <g>
       <use xlink:href="#mb48b814db2" x="203.130709" y="165.543307" style="stroke: #000000; stroke-width: 0.6"/>
      </g>
     </g>
     <g id="text_5">
      <text style="font-size: 7px; font-family: 'Arial', 'Helvetica', 'DejaVu Sans', sans-serif; text-anchor: middle" x="203.130709" y="177.553776" transform="rotate(-0 203.130709 177.553776)">2.0</text>
     </g>
    </g>
    <g id="xtick_6">
     <g id="line2d_40">
      <g>
       <use xlink:href="#mb48b814db2" x="243.949606" y="165.543307" style="stroke: #000000; stroke-width: 0.6"/>
      </g>
     </g>
     <g id="text_6">
      <text style="font-size: 7px; font-family: 'Arial', 'Helvetica', 'DejaVu Sans', sans-serif; text-anchor: middle" x="243.949606" y="177.553776" transform="rotate(-0 243.949606 177.553776)">2.5</text>
     </g>
    </g>
    <g id="text_7">
     <text style="font-size: 8.5px; font-family: 'Arial', 'Helvetica', 'DejaVu Sans', sans-serif; text-anchor: middle" x="141.902362" y="189.13276" transform="rotate(-0 141.902362 189.13276)">Distance from source (mm)</text>
    </g>
   </g>
   <g id="matplotlib.axis_2">
    <g id="ytick_1">
     <g id="line2d_41">
      <defs>
       <path id="m680f33b7d2" d="M 0 0 
L -3.5 0 
" style="stroke: #000000; stroke-width: 0.6"/>
      </defs>
      <g>
       <use xlink:href="#m680f33b7d2" x="39.855118" y="161.213713" style="stroke: #000000; stroke-width: 0.6"/>
      </g>
     </g>
     <g id="text_8">
      <text style="font-size: 7px; font-family: 'Arial', 'Helvetica', 'DejaVu Sans', sans-serif; text-anchor: end" x="32.855118" y="163.718947" transform="rotate(-0 32.855118 163.718947)">0.3</text>
     </g>
    </g>
    <g id="ytick_2">
     <g id="line2d_42">
      <g>
       <use xlink:href="#m680f33b7d2" x="39.855118" y="143.749059" style="stroke: #000000; stroke-width: 0.6"/>
      </g>
     </g>
     <g id="text_9">
      <text style="font-size: 7px; font-family: 'Arial', 'Helvetica', 'DejaVu Sans', sans-serif; text-anchor: end" x="32.855118" y="146.254293" transform="rotate(-0 32.855118 146.254293)">0.4</text>
     </g>
    </g>
    <g id="ytick_3">
     <g id="line2d_43">
      <g>
       <use xlink:href="#m680f33b7d2" x="39.855118" y="126.284405" style="stroke: #000000; stroke-width: 0.6"/>
      </g>
     </g>
     <g id="text_10">
      <text style="font-size: 7px; font-family: 'Arial', 'Helvetica', 'DejaVu Sans', sans-serif; text-anchor: end" x="32.855118" y="128.789639" transform="rotate(-0 32.855118 128.789639)">0.5</text>
     </g>
    </g>
    <g id="ytick_4">
     <g id="line2d_44">
      <g>
       <use xlink:href="#m680f33b7d2" x="39.855118" y="108.819751" style="stroke: #000000; stroke-width: 0.6"/>
      </g>
     </g>
     <g id="text_11">
      <text style="font-size: 7px; font-family: 'Arial', 'Helvetica', 'DejaVu Sans', sans-serif; text-anchor: end" x="32.855118" y="111.324985" transform="rotate(-0 32.855118 111.324985)">0.6</text>
     </g>
    </g>
    <g id="ytick_5">
     <g id="line2d_45">
      <g>
       <use xlink:href="#m680f33b7d2" x="39.855118" y="91.355097" style="stroke: #000000; stroke-width: 0.6"/>
      </g>
     </g>
     <g id="text_12">
      <text style="font-size: 7px; font-family: 'Arial', 'Helvetica', 'DejaVu Sans', sans-serif; text-anchor: end" x="32.855118" y="93.860331" transform="rotate(-0 32.855118 93.860331)">0.7</text>
     </g>
    </g>
    <g id="ytick_6">
     <g id="line2d_46">
      <g>
       <use xlink:href="#m680f33b7d2" x="39.855118" y="73.890443" style="stroke: #000000; stroke-width: 0.6"/>
      </g>
     </g>
     <g id="text_13">
      <text style="font-size: 7px; font-family: 'Arial', 'Helvetica', 'DejaVu Sans', sans-serif; text-anchor: end" x="32.855118" y="76.395677" transform="rotate(-0 32.855118 76.395677)">0.8</text>
     </g>
    </g>
    <g id="ytick_7">
     <g id="line2d_47">
      <g>
       <use xlink:href="#m680f33b7d2" x="39.855118" y="56.425789" style="stroke: #000000; stroke-width: 0.6"/>
      </g>
     </g>
     <g id="text_14">
      <text style="font-size: 7px; font-family: 'Arial', 'Helvetica', 'DejaVu Sans', sans-serif; text-anchor: end" x="32.855118" y="58.931023" transform="rotate(-0 32.855118 58.931023)">0.9</text>
     </g>
    </g>
    <g id="ytick_8">
     <g id="line2d_48">
      <g>
       <use xlink:href="#m680f33b7d2" x="39.855118" y="38.961135" style="stroke: #000000; stroke-width: 0.6"/>
      </g>
     </g>
     <g id="text_15">
      <text style="font-size: 7px; font-family: 'Arial', 'Helvetica', 'DejaVu Sans', sans-serif; text-anchor: end" x="32.855118" y="41.46637" transform="rotate(-0 32.855118 41.46637)">1.0</text>
     </g>
    </g>
    <g id="ytick_9">
     <g id="line2d_49">
      <g>
       <use xlink:href="#m680f33b7d2" x="39.855118" y="21.496481" style="stroke: #000000; stroke-width: 0.6"/>
      </g>
     </g>
     <g id="text_16">
      <text style="font-size: 7px; font-family: 'Arial', 'Helvetica', 'DejaVu Sans', sans-serif; text-anchor: end" x="32.855118" y="24.001716" transform="rotate(-0 32.855118 24.001716)">1.1</text>
     </g>
    </g>
    <g id="text_17">
     <!-- $R^* = R\,/\,R_{\mathrm{far}}$ -->
     <g transform="translate(17.435743 114.324232) rotate(-90)">
      <text>
       <tspan x="0" y="-0.873438" style="font-style: oblique; font-size: 8.5px; font-family: 'DejaVu Sans'">R</tspan>
       <tspan x="22.51123" y="-0.873438" style="font-style: oblique; font-size: 8.5px; font-family: 'DejaVu Sans'">R</tspan>
       <tspan x="34.041071" y="-0.873438" style="font-style: oblique; font-size: 8.5px; font-family: 'DejaVu Sans'">R</tspan>
       <tspan x="7.696851" y="-4.31875" style="font-size: 5.95px; font-family: 'DejaVu Sans'">*</tspan>
       <tspan x="39.947077" y="0.603125" style="font-size: 5.95px; font-family: 'DejaVu Sans'">f</tspan>
       <tspan x="42.041779" y="0.603125" style="font-size: 5.95px; font-family: 'DejaVu Sans'">a</tspan>
       <tspan x="45.687897" y="0.603125" style="font-size: 5.95px; font-family: 'DejaVu Sans'">r</tspan>
       <tspan x="13.733154" y="-0.873438" style="font-size: 8.5px; font-family: 'DejaVu Sans'">=</tspan>
       <tspan x="29.797269" y="-0.873438" style="font-size: 8.5px; font-family: 'DejaVu Sans'">/</tspan>
      </text>
     </g>
    </g>
   </g>
   <g id="FillBetweenPolyCollection_1">
    <defs>
     <path id="m9fa4ee1f9f" d="M 97.001575 -69.362781 
L 97.001575 -62.075258 
L 113.329134 -69.596628 
L 129.656693 -97.195577 
L 145.984252 -117.813477 
L 162.311811 -140.945855 
L 178.63937 -144.788074 
L 194.966929 -151.039332 
L 211.294488 -156.559048 
L 227.622047 -159.848524 
L 243.949606 -159.903414 
L 243.949606 -167.042339 
L 243.949606 -167.042339 
L 227.622047 -161.490897 
L 211.294488 -162.131772 
L 194.966929 -156.102336 
L 178.63937 -149.494497 
L 162.311811 -146.660165 
L 145.984252 -127.138787 
L 129.656693 -107.031228 
L 113.329134 -80.623679 
L 97.001575 -69.362781 
z
" style="stroke: #c0392b; stroke-opacity: 0.15"/>
    </defs>
    <g clip-path="url(#p481237cc47)">
     <use xlink:href="#m9fa4ee1f9f" x="0" y="198.121745" style="fill: #c0392b; fill-opacity: 0.15; stroke: #c0392b; stroke-opacity: 0.15"/>
    </g>
   </g>
   <g id="FillBetweenPolyCollection_2">
    <defs>
     <path id="m47e2da6867" d="M 64.346457 -85.612614 
L 64.346457 -71.749344 
L 80.674016 -75.521773 
L 97.001575 -102.529456 
L 113.329134 -120.04289 
L 129.656693 -130.266139 
L 145.984252 -133.385018 
L 162.311811 -135.478965 
L 178.63937 -144.942248 
L 194.966929 -152.705329 
L 211.294488 -157.526527 
L 227.622047 -152.339562 
L 243.949606 -162.788362 
L 243.949606 -166.097559 
L 243.949606 -166.097559 
L 227.622047 -157.643815 
L 211.294488 -161.820442 
L 194.966929 -157.940676 
L 178.63937 -149.909747 
L 162.311811 -143.744903 
L 145.984252 -140.093036 
L 129.656693 -135.473467 
L 113.329134 -130.045387 
L 97.001575 -116.893355 
L 80.674016 -93.220114 
L 64.346457 -85.612614 
z
" style="stroke: #5b8fc9; stroke-opacity: 0.15"/>
    </defs>
    <g clip-path="url(#p481237cc47)">
     <use xlink:href="#m47e2da6867" x="0" y="198.121745" style="fill: #5b8fc9; fill-opacity: 0.15; stroke: #5b8fc9; stroke-opacity: 0.15"/>
    </g>
   </g>
   <g id="FillBetweenPolyCollection_3">
    <defs>
     <path id="m2383d1d848" d="M 48.018898 -52.89033 
L 48.018898 -42.309751 
L 64.346457 -72.554078 
L 80.674016 -97.549653 
L 97.001575 -117.21723 
L 113.329134 -129.930099 
L 129.656693 -137.991173 
L 145.984252 -142.295881 
L 162.311811 -144.93067 
L 178.63937 -148.568554 
L 194.966929 -155.463802 
L 211.294488 -162.845545 
L 227.622047 -158.573896 
L 243.949606 -162.220758 
L 243.949606 -169.052344 
L 243.949606 -169.052344 
L 227.622047 -169.496359 
L 211.294488 -166.24658 
L 194.966929 -166.241565 
L 178.63937 -156.099141 
L 162.311811 -153.732124 
L 145.984252 -156.011146 
L 129.656693 -150.860464 
L 113.329134 -141.523591 
L 97.001575 -131.701364 
L 80.674016 -111.690353 
L 64.346457 -79.168723 
L 48.018898 -52.89033 
z
" style="stroke: #e67e22; stroke-opacity: 0.15"/>
    </defs>
    <g clip-path="url(#p481237cc47)">
     <use xlink:href="#m2383d1d848" x="0" y="198.121745" style="fill: #e67e22; fill-opacity: 0.15; stroke: #e67e22; stroke-opacity: 0.15"/>
    </g>
   </g>
   <g id="FillBetweenPolyCollection_4">
    <defs>
     <path id="mccb930b684" d="M 48.018898 -122.504702 
L 48.018898 -102.161941 
L 64.346457 -117.402402 
L 80.674016 -126.278691 
L 97.001575 -129.729502 
L 113.329134 -134.289584 
L 129.656693 -137.189565 
L 145.984252 -138.952903 
L 162.311811 -143.21508 
L 178.63937 -146.08096 
L 194.966929 -151.663089 
L 211.294488 -154.802475 
L 227.622047 -161.162103 
L 243.949606 -160.391108 
L 243.949606 -167.011946 
L 243.949606 -167.011946 
L 227.622047 -165.777285 
L 211.294488 -160.773798 
L 194.966929 -154.697089 
L 178.63937 -153.670969 
L 162.311811 -146.824741 
L 145.984252 -141.928703 
L 129.656693 -138.77938 
L 113.329134 -137.37854 
L 97.001575 -130.840719 
L 80.674016 -129.276459 
L 64.346457 -126.230293 
L 48.018898 -122.504702 
z
" style="stroke: #9e9e9e; stroke-opacity: 0.15"/>
    </defs>
    <g clip-path="url(#p481237cc47)">
     <use xlink:href="#mccb930b684" x="0" y="198.121745" style="fill: #9e9e9e; fill-opacity: 0.15; stroke: #9e9e9e; stroke-opacity: 0.15"/>
    </g>
   </g>
   <g id="FillBetweenPolyCollection_5">
    <defs>
     <path id="m694f6b3554" d="M 48.018898 -83.167998 
L 48.018898 -64.218941 
L 64.346457 -81.09978 
L 80.674016 -119.721181 
L 97.001575 -141.452371 
L 113.329134 -153.263719 
L 129.656693 -151.581336 
L 145.984252 -150.368155 
L 162.311811 -159.407513 
L 178.63937 -155.778626 
L 194.966929 -158.384702 
L 211.294488 -161.321772 
L 227.622047 -159.705097 
L 243.949606 -152.563844 
L 243.949606 -156.464333 
L 243.949606 -156.464333 
L 227.622047 -163.730389 
L 211.294488 -164.518849 
L 194.966929 -165.785332 
L 178.63937 -162.542166 
L 162.311811 -162.460914 
L 145.984252 -162.820165 
L 129.656693 -159.950271 
L 113.329134 -162.151717 
L 97.001575 -150.80078 
L 80.674016 -133.830377 
L 64.346457 -102.242962 
L 48.018898 -83.167998 
z
" style="stroke: #4caf50; stroke-opacity: 0.15"/>
    </defs>
    <g clip-path="url(#p481237cc47)">
     <use xlink:href="#m694f6b3554" x="0" y="198.121745" style="fill: #4caf50; fill-opacity: 0.15; stroke: #4caf50; stroke-opacity: 0.15"/>
    </g>
   </g>
   <g id="FillBetweenPolyCollection_6">
    <defs>
     <path id="mb44fad6cfe" d="M 48.018898 -82.018282 
L 48.018898 -74.995857 
L 64.346457 -90.884995 
L 80.674016 -113.687242 
L 97.001575 -130.667239 
L 113.329134 -139.304471 
L 129.656693 -143.396621 
L 145.984252 -143.958804 
L 162.311811 -147.109129 
L 178.63937 -150.491061 
L 194.966929 -157.229586 
L 211.294488 -158.378887 
L 227.622047 -159.257227 
L 243.949606 -155.499579 
L 243.949606 -161.30451 
L 243.949606 -161.30451 
L 227.622047 -166.680485 
L 211.294488 -163.814865 
L 194.966929 -160.416696 
L 178.63937 -156.290102 
L 162.311811 -158.304941 
L 145.984252 -152.690378 
L 129.656693 -147.914912 
L 113.329134 -144.725005 
L 97.001575 -137.288043 
L 80.674016 -120.459674 
L 64.346457 -101.261584 
L 48.018898 -82.018282 
z
" style="stroke: #757575; stroke-opacity: 0.15"/>
    </defs>
    <g clip-path="url(#p481237cc47)">
     <use xlink:href="#mb44fad6cfe" x="0" y="198.121745" style="fill: #757575; fill-opacity: 0.15; stroke: #757575; stroke-opacity: 0.15"/>
    </g>
   </g>
   <g id="FillBetweenPolyCollection_7">
    <defs>
     <path id="mbb479a675a" d="M 48.018898 -87.437757 
L 48.018898 -75.685306 
L 64.346457 -112.215656 
L 80.674016 -140.515878 
L 97.001575 -147.129424 
L 113.329134 -152.464635 
L 129.656693 -145.015602 
L 145.984252 -151.615521 
L 162.311811 -151.196487 
L 178.63937 -149.599 
L 194.966929 -151.749923 
L 211.294488 -154.951343 
L 227.622047 -158.976185 
L 243.949606 -158.462643 
L 243.949606 -164.563382 
L 243.949606 -164.563382 
L 227.622047 -164.043651 
L 211.294488 -159.089653 
L 194.966929 -155.463168 
L 178.63937 -158.635033 
L 162.311811 -156.000009 
L 145.984252 -152.591952 
L 129.656693 -151.840605 
L 113.329134 -160.987922 
L 97.001575 -156.361764 
L 80.674016 -144.024663 
L 64.346457 -120.84012 
L 48.018898 -87.437757 
z
" style="stroke: #212121; stroke-opacity: 0.15"/>
    </defs>
    <g clip-path="url(#p481237cc47)">
     <use xlink:href="#mbb479a675a" x="0" y="198.121745" style="fill: #212121; fill-opacity: 0.15; stroke: #212121; stroke-opacity: 0.15"/>
    </g>
   </g>
   <g id="line2d_50">
    <path d="M 39.855118 38.961135 
L 243.949606 38.961135 
" clip-path="url(#p481237cc47)" style="fill: none; stroke-dasharray: 0.8,1.32; stroke-dashoffset: 0; stroke: #808080; stroke-opacity: 0.5; stroke-width: 0.8"/>
   </g>
   <g id="patch_3">
    <path d="M 39.855118 165.543307 
L 39.855118 14.740157 
" style="fill: none; stroke: #000000; stroke-width: 0.6; stroke-linejoin: miter; stroke-linecap: square"/>
   </g>
   <g id="patch_4">
    <path d="M 39.855118 165.543307 
L 243.949606 165.543307 
" style="fill: none; stroke: #000000; stroke-width: 0.6; stroke-linejoin: miter; stroke-linecap: square"/>
   </g>
   <g id="line2d_51">
    <path d="M 97.001575 132.402725 
L 113.329134 123.011591 
L 129.656693 96.008342 
L 145.984252 75.645613 
L 162.311811 54.318735 
L 178.63937 50.980459 
L 194.966929 44.55091 
L 211.294488 38.776335 
L 227.622047 37.452034 
L 243.949606 34.648868 
" clip-path="url(#p481237cc47)" style="fill: none; stroke: #c0392b; stroke-width: 1.8; stroke-linecap: square"/>
   </g>
   <g id="line2d_52">
    <path d="M 64.346457 119.440765 
L 80.674016 113.750801 
L 97.001575 88.410339 
L 113.329134 73.077606 
L 129.656693 65.251941 
L 145.984252 61.382718 
L 162.311811 58.509811 
L 178.63937 50.695747 
L 194.966929 42.798742 
L 211.294488 38.44826 
L 227.622047 43.130056 
L 243.949606 33.678784 
" clip-path="url(#p481237cc47)" style="fill: none; stroke: #5b8fc9; stroke-width: 1.8; stroke-linecap: square"/>
   </g>
   <g id="line2d_53">
    <path d="M 48.018898 150.521704 
L 64.346457 122.260344 
L 80.674016 93.501741 
L 97.001575 73.662448 
L 113.329134 62.3949 
L 129.656693 53.695926 
L 145.984252 48.968231 
L 162.311811 48.790348 
L 178.63937 45.787897 
L 194.966929 37.269061 
L 211.294488 33.575682 
L 227.622047 34.086617 
L 243.949606 32.485194 
" clip-path="url(#p481237cc47)" style="fill: none; stroke: #e67e22; stroke-width: 1.8; stroke-linecap: square"/>
   </g>
   <g id="line2d_54">
    <path d="M 48.018898 85.788423 
L 64.346457 76.305397 
L 80.674016 70.344169 
L 97.001575 67.836634 
L 113.329134 62.287682 
L 129.656693 60.137272 
L 145.984252 57.680942 
L 162.311811 53.101834 
L 178.63937 48.24578 
L 194.966929 44.941656 
L 211.294488 40.333608 
L 227.622047 34.65205 
L 243.949606 34.420217 
" clip-path="url(#p481237cc47)" style="fill: none; stroke: #9e9e9e; stroke-width: 1.8; stroke-linecap: square"/>
   </g>
   <g id="line2d_55">
    <path d="M 48.018898 124.428275 
L 64.346457 106.450374 
L 80.674016 71.345966 
L 97.001575 51.995169 
L 113.329134 40.414026 
L 129.656693 42.355941 
L 145.984252 41.527585 
L 162.311811 37.187531 
L 178.63937 38.961349 
L 194.966929 36.036727 
L 211.294488 35.201434 
L 227.622047 36.404002 
L 243.949606 43.607656 
" clip-path="url(#p481237cc47)" style="fill: none; stroke: #4caf50; stroke-width: 1.8; stroke-linecap: square"/>
   </g>
   <g id="line2d_56">
    <path d="M 48.018898 119.614675 
L 64.346457 102.048455 
L 80.674016 81.048286 
L 97.001575 64.144103 
L 113.329134 56.107007 
L 129.656693 52.465978 
L 145.984252 49.797154 
L 162.311811 45.41471 
L 178.63937 44.731163 
L 194.966929 39.298604 
L 211.294488 37.024868 
L 227.622047 35.152889 
L 243.949606 39.7197 
" clip-path="url(#p481237cc47)" style="fill: none; stroke: #757575; stroke-width: 1.8; stroke-linecap: square"/>
   </g>
   <g id="line2d_57">
    <path d="M 48.018898 116.560213 
L 64.346457 81.593857 
L 80.674016 55.851474 
L 97.001575 46.37615 
L 113.329134 41.395466 
L 129.656693 49.693641 
L 145.984252 46.018008 
L 162.311811 44.523497 
L 178.63937 44.004728 
L 194.966929 44.515199 
L 211.294488 41.101246 
L 227.622047 36.611827 
L 243.949606 36.608732 
" clip-path="url(#p481237cc47)" style="fill: none; stroke: #212121; stroke-width: 1.8; stroke-linecap: square"/>
   </g>
   <g id="text_18">
    <text style="font-weight: 700; font-size: 12px; font-family: 'Arial', 'Helvetica', 'DejaVu Sans', sans-serif; text-anchor: start" x="7.2" y="15.789375" transform="rotate(-0 7.2 15.789375)">B</text>
   </g>
   <g id="legend_1">
    <g id="patch_5">
     <path d="M 191.209606 162.543307 
L 239.749606 162.543307 
Q 240.949606 162.543307 240.949606 161.343307 
L 240.949606 110.197057 
Q 240.949606 108.997057 239.749606 108.997057 
L 191.209606 108.997057 
Q 190.009606 108.997057 190.009606 110.197057 
L 190.009606 161.343307 
Q 190.009606 162.543307 191.209606 162.543307 
z
" style="fill: #ffffff; opacity: 0.9; stroke: #cccccc; stroke-linejoin: miter"/>
    </g>
    <g id="line2d_58">
     <path d="M 191.809606 112.991745 
L 197.809606 112.991745 
L 203.809606 112.991745 
" style="fill: none; stroke: #c0392b; stroke-width: 1.8; stroke-linecap: square"/>
    </g>
    <g id="text_19">
     <text style="font-size: 6px; font-family: 'Arial', 'Helvetica', 'DejaVu Sans', sans-serif; text-anchor: start" x="206.209606" y="115.091745" transform="rotate(-0 206.209606 115.091745)">2:1 NaCl</text>
    </g>
    <g id="line2d_59">
     <path d="M 191.809606 120.278932 
L 197.809606 120.278932 
L 203.809606 120.278932 
" style="fill: none; stroke: #5b8fc9; stroke-width: 1.8; stroke-linecap: square"/>
    </g>
    <g id="text_20">
     <text style="font-size: 6px; font-family: 'Arial', 'Helvetica', 'DejaVu Sans', sans-serif; text-anchor: start" x="206.209606" y="122.378932" transform="rotate(-0 206.209606 122.378932)">1:1 NaCl</text>
    </g>
    <g id="line2d_60">
     <path d="M 191.809606 127.56612 
L 197.809606 127.56612 
L 203.809606 127.56612 
" style="fill: none; stroke: #e67e22; stroke-width: 1.8; stroke-linecap: square"/>
    </g>
    <g id="text_21">
     <text style="font-size: 6px; font-family: 'Arial', 'Helvetica', 'DejaVu Sans', sans-serif; text-anchor: start" x="206.209606" y="129.66612" transform="rotate(-0 206.209606 129.66612)">0.5:1 NaCl</text>
    </g>
    <g id="line2d_61">
     <path d="M 191.809606 134.853307 
L 197.809606 134.853307 
L 203.809606 134.853307 
" style="fill: none; stroke: #9e9e9e; stroke-width: 1.8; stroke-linecap: square"/>
    </g>
    <g id="text_22">
     <text style="font-size: 6px; font-family: 'Arial', 'Helvetica', 'DejaVu Sans', sans-serif; text-anchor: start" x="206.209606" y="136.953307" transform="rotate(-0 206.209606 136.953307)">Agar</text>
    </g>
    <g id="line2d_62">
     <path d="M 191.809606 142.47612 
L 197.809606 142.47612 
L 203.809606 142.47612 
" style="fill: none; stroke: #4caf50; stroke-width: 1.8; stroke-linecap: square"/>
    </g>
    <g id="text_23">
     <!-- $\it{Aspergillus}$ -->
     <g transform="translate(206.209606 144.57612)">
      <text>
       <tspan x="0" y="-0.4375" style="font-style: oblique; font-size: 6px; font-family: 'DejaVu Sans'">A</tspan>
       <tspan x="4.104492" y="-0.4375" style="font-style: oblique; font-size: 6px; font-family: 'DejaVu Sans'">s</tspan>
       <tspan x="7.230469" y="-0.4375" style="font-style: oblique; font-size: 6px; font-family: 'DejaVu Sans'">p</tspan>
       <tspan x="11.039062" y="-0.4375" style="font-style: oblique; font-size: 6px; font-family: 'DejaVu Sans'">e</tspan>
       <tspan x="14.730469" y="-0.4375" style="font-style: oblique; font-size: 6px; font-family: 'DejaVu Sans'">r</tspan>
       <tspan x="17.197266" y="-0.4375" style="font-style: oblique; font-size: 6px; font-family: 'DejaVu Sans'">g</tspan>
       <tspan x="21.005859" y="-0.4375" style="font-style: oblique; font-size: 6px; font-family: 'DejaVu Sans'">i</tspan>
       <tspan x="22.672852" y="-0.4375" style="font-style: oblique; font-size: 6px; font-family: 'DejaVu Sans'">l</tspan>
       <tspan x="24.339844" y="-0.4375" style="font-style: oblique; font-size: 6px; font-family: 'DejaVu Sans'">l</tspan>
       <tspan x="26.006836" y="-0.4375" style="font-style: oblique; font-size: 6px; font-family: 'DejaVu Sans'">u</tspan>
       <tspan x="29.80957" y="-0.4375" style="font-style: oblique; font-size: 6px; font-family: 'DejaVu Sans'">s</tspan>
      </text>
     </g>
    </g>
    <g id="line2d_63">
     <path d="M 191.809606 149.830807 
L 197.809606 149.830807 
L 203.809606 149.830807 
" style="fill: none; stroke: #757575; stroke-width: 1.8; stroke-linecap: square"/>
    </g>
    <g id="text_24">
     <!-- $\it{Mucor}$ -->
     <g transform="translate(206.209606 151.930807)">
      <text>
       <tspan x="0" y="-0.625" style="font-style: oblique; font-size: 6px; font-family: 'DejaVu Sans'">M</tspan>
       <tspan x="5.176758" y="-0.625" style="font-style: oblique; font-size: 6px; font-family: 'DejaVu Sans'">u</tspan>
       <tspan x="8.979492" y="-0.625" style="font-style: oblique; font-size: 6px; font-family: 'DejaVu Sans'">c</tspan>
       <tspan x="12.27832" y="-0.625" style="font-style: oblique; font-size: 6px; font-family: 'DejaVu Sans'">o</tspan>
       <tspan x="15.949219" y="-0.625" style="font-style: oblique; font-size: 6px; font-family: 'DejaVu Sans'">r</tspan>
      </text>
     </g>
    </g>
    <g id="line2d_64">
     <path d="M 191.809606 157.383307 
L 197.809606 157.383307 
L 203.809606 157.383307 
" style="fill: none; stroke: #212121; stroke-width: 1.8; stroke-linecap: square"/>
    </g>
    <g id="text_25">
     <!-- $\it{Rhizopus}$ -->
     <g transform="translate(206.209606 159.483307)">
      <text>
       <tspan x="0" y="-0.4375" style="font-style: oblique; font-size: 6px; font-family: 'DejaVu Sans'">R</tspan>
       <tspan x="4.168945" y="-0.4375" style="font-style: oblique; font-size: 6px; font-family: 'DejaVu Sans'">h</tspan>
       <tspan x="7.97168" y="-0.4375" style="font-style: oblique; font-size: 6px; font-family: 'DejaVu Sans'">i</tspan>
       <tspan x="9.638672" y="-0.4375" style="font-style: oblique; font-size: 6px; font-family: 'DejaVu Sans'">z</tspan>
       <tspan x="12.788086" y="-0.4375" style="font-style: oblique; font-size: 6px; font-family: 'DejaVu Sans'">o</tspan>
       <tspan x="16.458984" y="-0.4375" style="font-style: oblique; font-size: 6px; font-family: 'DejaVu Sans'">p</tspan>
       <tspan x="20.267578" y="-0.4375" style="font-style: oblique; font-size: 6px; font-family: 'DejaVu Sans'">u</tspan>
       <tspan x="24.070312" y="-0.4375" style="font-style: oblique; font-size: 6px; font-family: 'DejaVu Sans'">s</tspan>
      </text>
     </g>
    </g>
   </g>
  </g>
 </g>
 <defs>
  <clipPath id="p481237cc47">
   <rect x="39.855118" y="14.740157" width="204.094488" height="150.80315"/>
  </clipPath>
 </defs>
</svg>
