<?xml version="1.0" encoding="utf-8" standalone="no"?>
<!DOCTYPE svg PUBLIC "-//W3C//DTD SVG 1.1//EN"
  "http://www.w3.org/Graphics/SVG/1.1/DTD/svg11.dtd">
<svg xmlns:xlink="http://www.w3.org/1999/xlink" width="239.538898pt" height="209.310539pt" viewBox="0 0 239.538898 209.310539" xmlns="http://www.w3.org/2000/svg" version="1.1">
 <metadata>
  <rdf:RDF xmlns:dc="http://purl.org/dc/elements/1.1/" xmlns:cc="http://creativecommons.org/ns#" xmlns:rdf="http://www.w3.org/1999/02/22-rdf-syntax-ns#">
   <cc:Work>
    <dc:type rdf:resource="http://purl.org/dc/dcmitype/StillImage"/>
    <dc:date>2026-04-02T18:00:03.022493</dc:date>
    <dc:format>image/svg+xml</dc:format>
    <dc:creator>
     <cc:Agent>
      <dc:title>Matplotlib v3.10.8, https://matplotlib.org/</dc:title>
     </cc:Agent>
    </dc:creator>
   </cc:Work>
  </rdf:RDF>
 </metadata>
 <defs>
  <style type="text/css">*{stroke-linejoin: round; stroke-linecap: butt}</style>
 </defs>
 <g id="figure_1">
  <g id="patch_1">
   <path d="M 0 209.310539 
L 239.538898 209.310539 
L 239.538898 0 
L 0 0 
z
" style="fill: #ffffff"/>
  </g>
  <g id="axes_1">
   <g id="patch_2">
    <path d="M 56.449134 173.877165 
L 232.338898 173.877165 
L 232.338898 15.137008 
L 56.449134 15.137008 
z
" style="fill: #ffffff"/>
   </g>
   <g id="matplotlib.axis_1">
    <g id="xtick_1">
     <g id="line2d_1">
      <defs>
       <path id="m48b80ed85e" d="M 0 0 
L 0 3.5 
" style="stroke: #000000; stroke-width: 0.6"/>
      </defs>
      <g>
       <use xlink:href="#m48b80ed85e" x="76.744107" y="173.877165" style="stroke: #000000; stroke-width: 0.6"/>
      </g>
     </g>
     <g id="text_1">
      <text style="font-size: 7px; font-family: 'Arial', 'Helvetica', 'DejaVu Sans', sans-serif" transform="translate(63.20301 191.109015) rotate(-30)">Agar</text>
     </g>
    </g>
    <g id="xtick_2">
     <g id="line2d_2">
      <g>
       <use xlink:href="#m48b80ed85e" x="110.569061" y="173.877165" style="stroke: #000000; stroke-width: 0.6"/>
      </g>
     </g>
     <g id="text_2">
      <text style="font-size: 7px; font-family: 'Arial', 'Helvetica', 'DejaVu Sans', sans-serif" transform="translate(80.182688 200.83464) rotate(-30)">Aspergillus</text>
     </g>
    </g>
    <g id="xtick_3">
     <g id="line2d_3">
      <g>
       <use xlink:href="#m48b80ed85e" x="144.394016" y="173.877165" style="stroke: #000000; stroke-width: 0.6"/>
      </g>
     </g>
     <g id="text_3">
      <text style="font-size: 7px; font-family: 'Arial', 'Helvetica', 'DejaVu Sans', sans-serif" transform="translate(126.856903 193.439796) rotate(-30)">Mucor</text>
     </g>
    </g>
    <g id="xtick_4">
     <g id="line2d_4">
      <g>
       <use xlink:href="#m48b80ed85e" x="178.21897" y="173.877165" style="stroke: #000000; stroke-width: 0.6"/>
      </g>
     </g>
     <g id="text_4">
      <text style="font-size: 7px; font-family: 'Arial', 'Helvetica', 'DejaVu Sans', sans-serif" transform="translate(152.251642 198.306984) rotate(-30)">Rhizopus</text>
     </g>
    </g>
    <g id="xtick_5">
     <g id="line2d_5">
      <g>
       <use xlink:href="#m48b80ed85e" x="212.043925" y="173.877165" style="stroke: #000000; stroke-width: 0.6"/>
      </g>
     </g>
     <g id="text_5">
      <text style="font-size: 7px; font-family: 'Arial', 'Helvetica', 'DejaVu Sans', sans-serif" transform="translate(182.708299 200.251671) rotate(-30)">0.5:1 NaCl</text>
     </g>
    </g>
   </g>
   <g id="matplotlib.axis_2">
    <g id="ytick_1">
     <g id="line2d_6">
      <defs>
       <path id="m432264a24a" d="M 0 0 
L -3.5 0 
" style="stroke: #000000; stroke-width: 0.6"/>
      </defs>
      <g>
       <use xlink:href="#m432264a24a" x="56.449134" y="173.877165" style="stroke: #000000; stroke-width: 0.6"/>
      </g>
     </g>
     <g id="text_6">
      <text style="font-size: 7px; font-family: 'Arial', 'Helvetica', 'DejaVu Sans', sans-serif; text-anchor: end" x="50.949134" y="176.3824" transform="rotate(-0 50.949134 176.3824)">0</text>
     </g>
    </g>
    <g id="ytick_2">
     <g id="line2d_7">
      <g>
       <use xlink:href="#m432264a24a" x="56.449134" y="151.22957" style="stroke: #000000; stroke-width: 0.6"/>
      </g>
     </g>
     <g id="text_7">
      <text style="font-size: 7px; font-family: 'Arial', 'Helvetica', 'DejaVu Sans', sans-serif; text-anchor: end" x="50.949134" y="153.734804" transform="rotate(-0 50.949134 153.734804)">50</text>
     </g>
    </g>
    <g id="ytick_3">
     <g id="line2d_8">
      <g>
       <use xlink:href="#m432264a24a" x="56.449134" y="128.581974" style="stroke: #000000; stroke-width: 0.6"/>
      </g>
     </g>
     <g id="text_8">
      <text style="font-size: 7px; font-family: 'Arial', 'Helvetica', 'DejaVu Sans', sans-serif; text-anchor: end" x="50.949134" y="131.087209" transform="rotate(-0 50.949134 131.087209)">100</text>
     </g>
    </g>
    <g id="ytick_4">
     <g id="line2d_9">
      <g>
       <use xlink:href="#m432264a24a" x="56.449134" y="105.934379" style="stroke: #000000; stroke-width: 0.6"/>
      </g>
     </g>
     <g id="text_9">
      <text style="font-size: 7px; font-family: 'Arial', 'Helvetica', 'DejaVu Sans', sans-serif; text-anchor: end" x="50.949134" y="108.439613" transform="rotate(-0 50.949134 108.439613)">150</text>
     </g>
    </g>
    <g id="ytick_5">
     <g id="line2d_10">
      <g>
       <use xlink:href="#m432264a24a" x="56.449134" y="83.286783" style="stroke: #000000; stroke-width: 0.6"/>
      </g>
     </g>
     <g id="text_10">
      <text style="font-size: 7px; font-family: 'Arial', 'Helvetica', 'DejaVu Sans', sans-serif; text-anchor: end" x="50.949134" y="85.792018" transform="rotate(-0 50.949134 85.792018)">200</text>
     </g>
    </g>
    <g id="ytick_6">
     <g id="line2d_11">
      <g>
       <use xlink:href="#m432264a24a" x="56.449134" y="60.639188" style="stroke: #000000; stroke-width: 0.6"/>
      </g>
     </g>
     <g id="text_11">
      <text style="font-size: 7px; font-family: 'Arial', 'Helvetica', 'DejaVu Sans', sans-serif; text-anchor: end" x="50.949134" y="63.144422" transform="rotate(-0 50.949134 63.144422)">250</text>
     </g>
    </g>
    <g id="ytick_7">
     <g id="line2d_12">
      <g>
       <use xlink:href="#m432264a24a" x="56.449134" y="37.991592" style="stroke: #000000; stroke-width: 0.6"/>
      </g>
     </g>
     <g id="text_12">
      <text style="font-size: 7px; font-family: 'Arial', 'Helvetica', 'DejaVu Sans', sans-serif; text-anchor: end" x="50.949134" y="40.496827" transform="rotate(-0 50.949134 40.496827)">300</text>
     </g>
    </g>
    <g id="ytick_8">
     <g id="line2d_13">
      <g>
       <use xlink:href="#m432264a24a" x="56.449134" y="15.343997" style="stroke: #000000; stroke-width: 0.6"/>
      </g>
     </g>
     <g id="text_13">
      <text style="font-size: 7px; font-family: 'Arial', 'Helvetica', 'DejaVu Sans', sans-serif; text-anchor: end" x="50.949134" y="17.849231" transform="rotate(-0 50.949134 17.849231)">350</text>
     </g>
    </g>
    <g id="text_14">
     <!-- $\delta$ (µm) -->
     <g transform="translate(34.401165 107.129587) rotate(-90)">
      <text>
       <tspan x="0" y="-0.3125" style="font-style: oblique; font-size: 8.5px; font-family: 'DejaVu Sans'">δ</tspan>
       <tspan x="5.200439" y="-0.3125" style="font-size: 8.5px; font-family: 'Arial'"> </tspan>
       <tspan x="7.562012" y="-0.3125" style="font-size: 8.5px; font-family: 'Arial'">(</tspan>
       <tspan x="10.392578" y="-0.3125" style="font-size: 8.5px; font-family: 'Arial'">µ</tspan>
       <tspan x="15.290039" y="-0.3125" style="font-size: 8.5px; font-family: 'Arial'">m</tspan>
       <tspan x="22.370605" y="-0.3125" style="font-size: 8.5px; font-family: 'Arial'">)</tspan>
      </text>
     </g>
    </g>
   </g>
   <g id="patch_3">
    <path d="M 56.449134 173.877165 
L 56.449134 15.137008 
" style="fill: none; stroke: #000000; stroke-width: 0.6; stroke-linejoin: miter; stroke-linecap: square"/>
   </g>
   <g id="patch_4">
    <path d="M 56.449134 173.877165 
L 232.338898 173.877165 
" style="fill: none; stroke: #000000; stroke-width: 0.6; stroke-linejoin: miter; stroke-linecap: square"/>
   </g>
   <g id="PathCollection_1">
    <defs>
     <path id="mf0416a7917" d="M 0 2.12132 
C 0.562581 2.12132 1.102195 1.897805 1.5 1.5 
C 1.897805 1.102195 2.12132 0.562581 2.12132 0 
C 2.12132 -0.562581 1.897805 -1.102195 1.5 -1.5 
C 1.102195 -1.897805 0.562581 -2.12132 0 -2.12132 
C -0.562581 -2.12132 -1.102195 -1.897805 -1.5 -1.5 
C -1.897805 -1.102195 -2.12132 -0.562581 -2.12132 0 
C -2.12132 0.562581 -1.897805 1.102195 -1.5 1.5 
C -1.102195 1.897805 -0.562581 2.12132 0 2.12132 
z
" style="stroke: #ffffff; stroke-opacity: 0.7; stroke-width: 0.3"/>
    </defs>
    <g clip-path="url(#p711aee09e4)">
     <use xlink:href="#mf0416a7917" x="78.968079" y="138.637507" style="fill: #3a9e6f; fill-opacity: 0.7; stroke: #ffffff; stroke-opacity: 0.7; stroke-width: 0.3"/>
     <use xlink:href="#mf0416a7917" x="76.247922" y="132.024409" style="fill: #3a9e6f; fill-opacity: 0.7; stroke: #ffffff; stroke-opacity: 0.7; stroke-width: 0.3"/>
     <use xlink:href="#mf0416a7917" x="79.655201" y="99.819528" style="fill: #3a9e6f; fill-opacity: 0.7; stroke: #ffffff; stroke-opacity: 0.7; stroke-width: 0.3"/>
     <use xlink:href="#mf0416a7917" x="78.346338" y="128.536679" style="fill: #3a9e6f; fill-opacity: 0.7; stroke: #ffffff; stroke-opacity: 0.7; stroke-width: 0.3"/>
     <use xlink:href="#mf0416a7917" x="73.449643" y="127.857251" style="fill: #3a9e6f; fill-opacity: 0.7; stroke: #ffffff; stroke-opacity: 0.7; stroke-width: 0.3"/>
    </g>
   </g>
   <g id="PathCollection_2">
    <defs>
     <path id="m6b75b11dd4" d="M 0 2.12132 
C 0.562581 2.12132 1.102195 1.897805 1.5 1.5 
C 1.897805 1.102195 2.12132 0.562581 2.12132 0 
C 2.12132 -0.562581 1.897805 -1.102195 1.5 -1.5 
C 1.102195 -1.897805 0.562581 -2.12132 0 -2.12132 
C -0.562581 -2.12132 -1.102195 -1.897805 -1.5 -1.5 
C -1.897805 -1.102195 -2.12132 -0.562581 -2.12132 0 
C -2.12132 0.562581 -1.897805 1.102195 -1.5 1.5 
C -1.102195 1.897805 -0.562581 2.12132 0 2.12132 
z
" style="stroke: #ffffff; stroke-opacity: 0.7; stroke-width: 0.3"/>
    </defs>
    <g clip-path="url(#p711aee09e4)">
     <use xlink:href="#m6b75b11dd4" x="114.430158" y="47.277106" style="fill: #4caf50; fill-opacity: 0.7; stroke: #ffffff; stroke-opacity: 0.7; stroke-width: 0.3"/>
     <use xlink:href="#m6b75b11dd4" x="112.68899" y="30.744362" style="fill: #4caf50; fill-opacity: 0.7; stroke: #ffffff; stroke-opacity: 0.7; stroke-width: 0.3"/>
     <use xlink:href="#m6b75b11dd4" x="112.891328" y="38.988086" style="fill: #4caf50; fill-opacity: 0.7; stroke: #ffffff; stroke-opacity: 0.7; stroke-width: 0.3"/>
     <use xlink:href="#m6b75b11dd4" x="107.550092" y="44.5141" style="fill: #4caf50; fill-opacity: 0.7; stroke: #ffffff; stroke-opacity: 0.7; stroke-width: 0.3"/>
     <use xlink:href="#m6b75b11dd4" x="110.166295" y="32.692055" style="fill: #4caf50; fill-opacity: 0.7; stroke: #ffffff; stroke-opacity: 0.7; stroke-width: 0.3"/>
    </g>
   </g>
   <g id="PathCollection_3">
    <defs>
     <path id="m9636092043" d="M 0 2.12132 
C 0.562581 2.12132 1.102195 1.897805 1.5 1.5 
C 1.897805 1.102195 2.12132 0.562581 2.12132 0 
C 2.12132 -0.562581 1.897805 -1.102195 1.5 -1.5 
C 1.102195 -1.897805 0.562581 -2.12132 0 -2.12132 
C -0.562581 -2.12132 -1.102195 -1.897805 -1.5 -1.5 
C -1.897805 -1.102195 -2.12132 -0.562581 -2.12132 0 
C -2.12132 0.562581 -1.897805 1.102195 -1.5 1.5 
C -1.102195 1.897805 -0.562581 2.12132 0 2.12132 
z
" style="stroke: #ffffff; stroke-opacity: 0.7; stroke-width: 0.3"/>
    </defs>
    <g clip-path="url(#p711aee09e4)">
     <use xlink:href="#m9636092043" x="143.345156" y="83.966211" style="fill: #9e9e9e; fill-opacity: 0.7; stroke: #ffffff; stroke-opacity: 0.7; stroke-width: 0.3"/>
     <use xlink:href="#m9636092043" x="147.858489" y="116.714634" style="fill: #9e9e9e; fill-opacity: 0.7; stroke: #ffffff; stroke-opacity: 0.7; stroke-width: 0.3"/>
     <use xlink:href="#m9636092043" x="145.561911" y="119.522936" style="fill: #9e9e9e; fill-opacity: 0.7; stroke: #ffffff; stroke-opacity: 0.7; stroke-width: 0.3"/>
     <use xlink:href="#m9636092043" x="147.014191" y="114.268694" style="fill: #9e9e9e; fill-opacity: 0.7; stroke: #ffffff; stroke-opacity: 0.7; stroke-width: 0.3"/>
     <use xlink:href="#m9636092043" x="143.934653" y="118.16408" style="fill: #9e9e9e; fill-opacity: 0.7; stroke: #ffffff; stroke-opacity: 0.7; stroke-width: 0.3"/>
    </g>
   </g>
   <g id="PathCollection_4">
    <defs>
     <path id="m2d83a9a37b" d="M 0 2.12132 
C 0.562581 2.12132 1.102195 1.897805 1.5 1.5 
C 1.897805 1.102195 2.12132 0.562581 2.12132 0 
C 2.12132 -0.562581 1.897805 -1.102195 1.5 -1.5 
C 1.102195 -1.897805 0.562581 -2.12132 0 -2.12132 
C -0.562581 -2.12132 -1.102195 -1.897805 -1.5 -1.5 
C -1.897805 -1.102195 -2.12132 -0.562581 -2.12132 0 
C -2.12132 0.562581 -1.897805 1.102195 -1.5 1.5 
C -1.102195 1.897805 -0.562581 2.12132 0 2.12132 
z
" style="stroke: #ffffff; stroke-opacity: 0.7; stroke-width: 0.3"/>
    </defs>
    <g clip-path="url(#p711aee09e4)">
     <use xlink:href="#m2d83a9a37b" x="176.004697" y="117.076996" style="fill: #212121; fill-opacity: 0.7; stroke: #ffffff; stroke-opacity: 0.7; stroke-width: 0.3"/>
     <use xlink:href="#m2d83a9a37b" x="178.662089" y="129.487878" style="fill: #212121; fill-opacity: 0.7; stroke: #ffffff; stroke-opacity: 0.7; stroke-width: 0.3"/>
     <use xlink:href="#m2d83a9a37b" x="174.678044" y="123.282437" style="fill: #212121; fill-opacity: 0.7; stroke: #ffffff; stroke-opacity: 0.7; stroke-width: 0.3"/>
     <use xlink:href="#m2d83a9a37b" x="180.878677" y="112.411591" style="fill: #212121; fill-opacity: 0.7; stroke: #ffffff; stroke-opacity: 0.7; stroke-width: 0.3"/>
     <use xlink:href="#m2d83a9a37b" x="179.28782" y="138.411031" style="fill: #212121; fill-opacity: 0.7; stroke: #ffffff; stroke-opacity: 0.7; stroke-width: 0.3"/>
    </g>
   </g>
   <g id="PathCollection_5">
    <defs>
     <path id="m281eda1a67" d="M 0 2.12132 
C 0.562581 2.12132 1.102195 1.897805 1.5 1.5 
C 1.897805 1.102195 2.12132 0.562581 2.12132 0 
C 2.12132 -0.562581 1.897805 -1.102195 1.5 -1.5 
C 1.102195 -1.897805 0.562581 -2.12132 0 -2.12132 
C -0.562581 -2.12132 -1.102195 -1.897805 -1.5 -1.5 
C -1.897805 -1.102195 -2.12132 -0.562581 -2.12132 0 
C -2.12132 0.562581 -1.897805 1.102195 -1.5 1.5 
C -1.102195 1.897805 -0.562581 2.12132 0 2.12132 
z
" style="stroke: #ffffff; stroke-opacity: 0.7; stroke-width: 0.3"/>
    </defs>
    <g clip-path="url(#p711aee09e4)">
     <use xlink:href="#m281eda1a67" x="214.139078" y="21.096486" style="fill: #e67e22; fill-opacity: 0.7; stroke: #ffffff; stroke-opacity: 0.7; stroke-width: 0.3"/>
     <use xlink:href="#m281eda1a67" x="210.862968" y="68.656437" style="fill: #e67e22; fill-opacity: 0.7; stroke: #ffffff; stroke-opacity: 0.7; stroke-width: 0.3"/>
     <use xlink:href="#m281eda1a67" x="215.865046" y="66.572858" style="fill: #e67e22; fill-opacity: 0.7; stroke: #ffffff; stroke-opacity: 0.7; stroke-width: 0.3"/>
     <use xlink:href="#m281eda1a67" x="215.235278" y="61.862158" style="fill: #e67e22; fill-opacity: 0.7; stroke: #ffffff; stroke-opacity: 0.7; stroke-width: 0.3"/>
     <use xlink:href="#m281eda1a67" x="214.303839" y="29.883753" style="fill: #e67e22; fill-opacity: 0.7; stroke: #ffffff; stroke-opacity: 0.7; stroke-width: 0.3"/>
    </g>
   </g>
   <g id="text_15">
    <text style="font-weight: 700; font-size: 12px; font-family: 'Arial', 'Helvetica', 'DejaVu Sans', sans-serif; text-anchor: start" x="7.2" y="15.789375" transform="rotate(-0 7.2 15.789375)">F</text>
   </g>
   <g id="line2d_14">
    <path d="M 69.302617 125.375075 
L 84.185597 125.375075 
" clip-path="url(#p711aee09e4)" style="fill: none; stroke: #3a9e6f; stroke-width: 2; stroke-linecap: round"/>
   </g>
   <g id="line2d_15">
    <path d="M 76.744107 140.286049 
L 76.744107 110.4641 
" clip-path="url(#p711aee09e4)" style="fill: none; stroke: #3a9e6f; stroke-width: 2; stroke-linecap: round"/>
   </g>
   <g id="line2d_16">
    <path d="M 103.127571 38.843142 
L 118.010551 38.843142 
" clip-path="url(#p711aee09e4)" style="fill: none; stroke: #4caf50; stroke-width: 2; stroke-linecap: round"/>
   </g>
   <g id="line2d_17">
    <path d="M 110.569061 46.032346 
L 110.569061 31.653937 
" clip-path="url(#p711aee09e4)" style="fill: none; stroke: #4caf50; stroke-width: 2; stroke-linecap: round"/>
   </g>
   <g id="line2d_18">
    <path d="M 136.952526 110.527311 
L 151.835506 110.527311 
" clip-path="url(#p711aee09e4)" style="fill: none; stroke: #9e9e9e; stroke-width: 2; stroke-linecap: round"/>
   </g>
   <g id="line2d_19">
    <path d="M 144.394016 125.502411 
L 144.394016 95.552211 
" clip-path="url(#p711aee09e4)" style="fill: none; stroke: #9e9e9e; stroke-width: 2; stroke-linecap: round"/>
   </g>
   <g id="line2d_20">
    <path d="M 170.77748 124.133987 
L 185.66046 124.133987 
" clip-path="url(#p711aee09e4)" style="fill: none; stroke: #212121; stroke-width: 2; stroke-linecap: round"/>
   </g>
   <g id="line2d_21">
    <path d="M 178.21897 134.386291 
L 178.21897 113.881682 
" clip-path="url(#p711aee09e4)" style="fill: none; stroke: #212121; stroke-width: 2; stroke-linecap: round"/>
   </g>
   <g id="line2d_22">
    <path d="M 204.602435 49.614338 
L 219.485415 49.614338 
" clip-path="url(#p711aee09e4)" style="fill: none; stroke: #e67e22; stroke-width: 2; stroke-linecap: round"/>
   </g>
   <g id="line2d_23">
    <path d="M 212.043925 71.990474 
L 212.043925 27.238202 
" clip-path="url(#p711aee09e4)" style="fill: none; stroke: #e67e22; stroke-width: 2; stroke-linecap: round"/>
   </g>
  </g>
 </g>
 <defs>
  <clipPath id="p711aee09e4">
   <rect x="56.449134" y="15.137008" width="175.889764" height="158.740157"/>
  </clipPath>
 </defs>
</svg>
