<?xml version="1.0" encoding="utf-8" standalone="no"?>
<!DOCTYPE svg PUBLIC "-//W3C//DTD SVG 1.1//EN"
  "http://www.w3.org/Graphics/SVG/1.1/DTD/svg11.dtd">
<svg xmlns:xlink="http://www.w3.org/1999/xlink" width="212.22874pt" height="183.887002pt" viewBox="0 0 212.22874 183.887002" xmlns="http://www.w3.org/2000/svg" version="1.1">
 <metadata>
  <rdf:RDF xmlns:dc="http://purl.org/dc/elements/1.1/" xmlns:cc="http://creativecommons.org/ns#" xmlns:rdf="http://www.w3.org/1999/02/22-rdf-syntax-ns#">
   <cc:Work>
    <dc:type rdf:resource="http://purl.org/dc/dcmitype/StillImage"/>
    <dc:date>2026-03-23T03:05:17.475610</dc:date>
    <dc:format>image/svg+xml</dc:format>
    <dc:creator>
     <cc:Agent>
      <dc:title>Matplotlib v3.10.8, https://matplotlib.org/</dc:title>
     </cc:Agent>
    </dc:creator>
   </cc:Work>
  </rdf:RDF>
 </metadata>
 <defs>
  <style type="text/css">*{stroke-linejoin: round; stroke-linecap: butt}</style>
 </defs>
 <g id="figure_1">
  <g id="patch_1">
   <path d="M 0 183.887002 
L 212.22874 183.887002 
L 212.22874 0 
L 0 0 
z
" style="fill: #ffffff"/>
  </g>
  <g id="axes_1">
   <g id="patch_2">
    <path d="M 34.95 153.540283 
L 205.02874 153.540283 
L 205.02874 12.828472 
L 34.95 12.828472 
z
" style="fill: #ffffff"/>
   </g>
   <g id="line2d_1">
    <path d="M 34.95 139.784515 
L 205.02874 139.784515 
" clip-path="url(#p761079d510)" style="fill: none; stroke-dasharray: 0.4,0.66; stroke-dashoffset: 0; stroke: #aaaaaa; stroke-width: 0.4"/>
   </g>
   <g id="matplotlib.axis_1">
    <g id="xtick_1">
     <g id="line2d_2">
      <defs>
       <path id="m05fb0125c0" d="M 0 0 
L 0 3.5 
" style="stroke: #000000; stroke-width: 0.6"/>
      </defs>
      <g>
       <use xlink:href="#m05fb0125c0" x="34.95" y="153.540283" style="stroke: #000000; stroke-width: 0.6"/>
      </g>
     </g>
     <g id="text_1">
      <text style="font-size: 7px; font-family: 'Arial', 'Helvetica', 'DejaVu Sans', sans-serif; text-anchor: middle" x="34.95" y="164.050752" transform="rotate(-0 34.95 164.050752)">0</text>
     </g>
    </g>
    <g id="xtick_2">
     <g id="line2d_3">
      <g>
       <use xlink:href="#m05fb0125c0" x="65.873407" y="153.540283" style="stroke: #000000; stroke-width: 0.6"/>
      </g>
     </g>
     <g id="text_2">
      <text style="font-size: 7px; font-family: 'Arial', 'Helvetica', 'DejaVu Sans', sans-serif; text-anchor: middle" x="65.873407" y="164.050752" transform="rotate(-0 65.873407 164.050752)">200</text>
     </g>
    </g>
    <g id="xtick_3">
     <g id="line2d_4">
      <g>
       <use xlink:href="#m05fb0125c0" x="96.796815" y="153.540283" style="stroke: #000000; stroke-width: 0.6"/>
      </g>
     </g>
     <g id="text_3">
      <text style="font-size: 7px; font-family: 'Arial', 'Helvetica', 'DejaVu Sans', sans-serif; text-anchor: middle" x="96.796815" y="164.050752" transform="rotate(-0 96.796815 164.050752)">400</text>
     </g>
    </g>
    <g id="xtick_4">
     <g id="line2d_5">
      <g>
       <use xlink:href="#m05fb0125c0" x="127.720222" y="153.540283" style="stroke: #000000; stroke-width: 0.6"/>
      </g>
     </g>
     <g id="text_4">
      <text style="font-size: 7px; font-family: 'Arial', 'Helvetica', 'DejaVu Sans', sans-serif; text-anchor: middle" x="127.720222" y="164.050752" transform="rotate(-0 127.720222 164.050752)">600</text>
     </g>
    </g>
    <g id="xtick_5">
     <g id="line2d_6">
      <g>
       <use xlink:href="#m05fb0125c0" x="158.643629" y="153.540283" style="stroke: #000000; stroke-width: 0.6"/>
      </g>
     </g>
     <g id="text_5">
      <text style="font-size: 7px; font-family: 'Arial', 'Helvetica', 'DejaVu Sans', sans-serif; text-anchor: middle" x="158.643629" y="164.050752" transform="rotate(-0 158.643629 164.050752)">800</text>
     </g>
    </g>
    <g id="xtick_6">
     <g id="line2d_7">
      <g>
       <use xlink:href="#m05fb0125c0" x="189.567037" y="153.540283" style="stroke: #000000; stroke-width: 0.6"/>
      </g>
     </g>
     <g id="text_6">
      <text style="font-size: 7px; font-family: 'Arial', 'Helvetica', 'DejaVu Sans', sans-serif; text-anchor: middle" x="189.567037" y="164.050752" transform="rotate(-0 189.567037 164.050752)">1000</text>
     </g>
    </g>
    <g id="text_7">
     <!-- $\delta$ ($\mu$m) -->
     <g transform="translate(107.11187 174.817002)">
      <text>
       <tspan x="0" y="-0.3125" style="font-style: oblique; font-size: 8.5px; font-family: 'DejaVu Sans'">δ</tspan>
       <tspan x="10.392578" y="-0.3125" style="font-style: oblique; font-size: 8.5px; font-family: 'DejaVu Sans'">μ</tspan>
       <tspan x="5.200439" y="-0.3125" style="font-size: 8.5px; font-family: 'Arial'"> </tspan>
       <tspan x="7.562012" y="-0.3125" style="font-size: 8.5px; font-family: 'Arial'">(</tspan>
       <tspan x="15.800537" y="-0.3125" style="font-size: 8.5px; font-family: 'Arial'">m</tspan>
       <tspan x="22.881104" y="-0.3125" style="font-size: 8.5px; font-family: 'Arial'">)</tspan>
      </text>
     </g>
    </g>
   </g>
   <g id="matplotlib.axis_2">
    <g id="ytick_1">
     <g id="line2d_8">
      <defs>
       <path id="m228bf1c1c7" d="M 0 0 
L -3.5 0 
" style="stroke: #000000; stroke-width: 0.6"/>
      </defs>
      <g>
       <use xlink:href="#m228bf1c1c7" x="34.95" y="139.784515" style="stroke: #000000; stroke-width: 0.6"/>
      </g>
     </g>
     <g id="text_8">
      <text style="font-size: 7px; font-family: 'Arial', 'Helvetica', 'DejaVu Sans', sans-serif; text-anchor: end" x="29.45" y="142.289749" transform="rotate(-0 29.45 142.289749)">0.0</text>
     </g>
    </g>
    <g id="ytick_2">
     <g id="line2d_9">
      <g>
       <use xlink:href="#m228bf1c1c7" x="34.95" y="111.779224" style="stroke: #000000; stroke-width: 0.6"/>
      </g>
     </g>
     <g id="text_9">
      <text style="font-size: 7px; font-family: 'Arial', 'Helvetica', 'DejaVu Sans', sans-serif; text-anchor: end" x="29.45" y="114.284458" transform="rotate(-0 29.45 114.284458)">0.2</text>
     </g>
    </g>
    <g id="ytick_3">
     <g id="line2d_10">
      <g>
       <use xlink:href="#m228bf1c1c7" x="34.95" y="83.773933" style="stroke: #000000; stroke-width: 0.6"/>
      </g>
     </g>
     <g id="text_10">
      <text style="font-size: 7px; font-family: 'Arial', 'Helvetica', 'DejaVu Sans', sans-serif; text-anchor: end" x="29.45" y="86.279167" transform="rotate(-0 29.45 86.279167)">0.4</text>
     </g>
    </g>
    <g id="ytick_4">
     <g id="line2d_11">
      <g>
       <use xlink:href="#m228bf1c1c7" x="34.95" y="55.768642" style="stroke: #000000; stroke-width: 0.6"/>
      </g>
     </g>
     <g id="text_11">
      <text style="font-size: 7px; font-family: 'Arial', 'Helvetica', 'DejaVu Sans', sans-serif; text-anchor: end" x="29.45" y="58.273877" transform="rotate(-0 29.45 58.273877)">0.6</text>
     </g>
    </g>
    <g id="ytick_5">
     <g id="line2d_12">
      <g>
       <use xlink:href="#m228bf1c1c7" x="34.95" y="27.763351" style="stroke: #000000; stroke-width: 0.6"/>
      </g>
     </g>
     <g id="text_12">
      <text style="font-size: 7px; font-family: 'Arial', 'Helvetica', 'DejaVu Sans', sans-serif; text-anchor: end" x="29.45" y="30.268586" transform="rotate(-0 29.45 30.268586)">0.8</text>
     </g>
    </g>
    <g id="text_13">
     <!-- Weibull AFT $\beta_d$ (log-min mm$^{-1}$) -->
     <g transform="translate(14.85 142.981878) rotate(-90)">
      <text>
       <tspan x="0" y="-0.960938" style="font-size: 8.5px; font-family: 'Arial'">W</tspan>
       <tspan x="8.022705" y="-0.960938" style="font-size: 8.5px; font-family: 'Arial'">e</tspan>
       <tspan x="12.75" y="-0.960938" style="font-size: 8.5px; font-family: 'Arial'">i</tspan>
       <tspan x="14.638428" y="-0.960938" style="font-size: 8.5px; font-family: 'Arial'">b</tspan>
       <tspan x="19.365723" y="-0.960938" style="font-size: 8.5px; font-family: 'Arial'">u</tspan>
       <tspan x="24.093018" y="-0.960938" style="font-size: 8.5px; font-family: 'Arial'">l</tspan>
       <tspan x="25.981445" y="-0.960938" style="font-size: 8.5px; font-family: 'Arial'">l</tspan>
       <tspan x="27.869873" y="-0.960938" style="font-size: 8.5px; font-family: 'Arial'"> </tspan>
       <tspan x="30.231445" y="-0.960938" style="font-size: 8.5px; font-family: 'Arial'">A</tspan>
       <tspan x="35.900879" y="-0.960938" style="font-size: 8.5px; font-family: 'Arial'">F</tspan>
       <tspan x="41.093018" y="-0.960938" style="font-size: 8.5px; font-family: 'Arial'">T</tspan>
       <tspan x="46.285156" y="-0.960938" style="font-size: 8.5px; font-family: 'Arial'"> </tspan>
       <tspan x="58.094238" y="-0.960938" style="font-size: 8.5px; font-family: 'Arial'"> </tspan>
       <tspan x="60.455811" y="-0.960938" style="font-size: 8.5px; font-family: 'Arial'">(</tspan>
       <tspan x="63.286377" y="-0.960938" style="font-size: 8.5px; font-family: 'Arial'">l</tspan>
       <tspan x="65.174805" y="-0.960938" style="font-size: 8.5px; font-family: 'Arial'">o</tspan>
       <tspan x="69.9021" y="-0.960938" style="font-size: 8.5px; font-family: 'Arial'">g</tspan>
       <tspan x="74.629395" y="-0.960938" style="font-size: 8.5px; font-family: 'Arial'">-</tspan>
       <tspan x="77.459961" y="-0.960938" style="font-size: 8.5px; font-family: 'Arial'">m</tspan>
       <tspan x="84.540527" y="-0.960938" style="font-size: 8.5px; font-family: 'Arial'">i</tspan>
       <tspan x="86.428955" y="-0.960938" style="font-size: 8.5px; font-family: 'Arial'">n</tspan>
       <tspan x="91.15625" y="-0.960938" style="font-size: 8.5px; font-family: 'Arial'"> </tspan>
       <tspan x="93.517822" y="-0.960938" style="font-size: 8.5px; font-family: 'Arial'">m</tspan>
       <tspan x="100.598389" y="-0.960938" style="font-size: 8.5px; font-family: 'Arial'">m</tspan>
       <tspan x="116.782202" y="-0.960938" style="font-size: 8.5px; font-family: 'Arial'">)</tspan>
       <tspan x="48.646729" y="-0.960938" style="font-style: oblique; font-size: 8.5px; font-family: 'DejaVu Sans'">β</tspan>
       <tspan x="54.071289" y="0.515625" style="font-style: oblique; font-size: 5.95px; font-family: 'DejaVu Sans'">d</tspan>
       <tspan x="107.765088" y="-4.40625" style="font-size: 5.95px; font-family: 'DejaVu Sans'">−</tspan>
       <tspan x="112.750537" y="-4.40625" style="font-size: 5.95px; font-family: 'DejaVu Sans'">1</tspan>
      </text>
     </g>
    </g>
   </g>
   <g id="line2d_13">
    <path d="M 34.95 145.038175 
L 205.02874 25.032397 
L 205.02874 25.032397 
" clip-path="url(#p761079d510)" style="fill: none; stroke: #333333; stroke-opacity: 0.7; stroke-width: 0.8; stroke-linecap: square"/>
   </g>
   <g id="line2d_14">
    <path d="M 34.95 147.144292 
L 205.02874 53.698309 
L 205.02874 53.698309 
" clip-path="url(#p761079d510)" style="fill: none; stroke-dasharray: 2.96,1.28; stroke-dashoffset: 0; stroke: #c0392b; stroke-opacity: 0.7; stroke-width: 0.8"/>
   </g>
   <g id="patch_3">
    <path d="M 34.95 153.540283 
L 34.95 12.828472 
" style="fill: none; stroke: #000000; stroke-width: 0.6; stroke-linejoin: miter; stroke-linecap: square"/>
   </g>
   <g id="patch_4">
    <path d="M 34.95 153.540283 
L 205.02874 153.540283 
" style="fill: none; stroke: #000000; stroke-width: 0.6; stroke-linejoin: miter; stroke-linecap: square"/>
   </g>
   <g id="PathCollection_1">
    <defs>
     <path id="C0_0_d2c8123517" d="M 0 2.12132 
C 0.562581 2.12132 1.102195 1.897805 1.5 1.5 
C 1.897805 1.102195 2.12132 0.562581 2.12132 -0 
C 2.12132 -0.562581 1.897805 -1.102195 1.5 -1.5 
C 1.102195 -1.897805 0.562581 -2.12132 0 -2.12132 
C -0.562581 -2.12132 -1.102195 -1.897805 -1.5 -1.5 
C -1.897805 -1.102195 -2.12132 -0.562581 -2.12132 0 
C -2.12132 0.562581 -1.897805 1.102195 -1.5 1.5 
C -1.102195 1.897805 -0.562581 2.12132 0 2.12132 
z
"/>
    </defs>
    <g clip-path="url(#p761079d510)">
     <use xlink:href="#C0_0_d2c8123517" x="46.979205" y="138.14533" style="fill: #3a9e6f; fill-opacity: 0.25"/>
    </g>
    <g clip-path="url(#p761079d510)">
     <use xlink:href="#C0_0_d2c8123517" x="49.236614" y="140.299421" style="fill: #3a9e6f; fill-opacity: 0.25"/>
    </g>
    <g clip-path="url(#p761079d510)">
     <use xlink:href="#C0_0_d2c8123517" x="60.229885" y="142.798217" style="fill: #3a9e6f; fill-opacity: 0.25"/>
    </g>
    <g clip-path="url(#p761079d510)">
     <use xlink:href="#C0_0_d2c8123517" x="50.427165" y="139.024616" style="fill: #3a9e6f; fill-opacity: 0.25"/>
    </g>
    <g clip-path="url(#p761079d510)">
     <use xlink:href="#C0_0_d2c8123517" x="50.659091" y="143.109656" style="fill: #3a9e6f; fill-opacity: 0.25"/>
    </g>
   </g>
   <g id="PathCollection_2">
    <defs>
     <path id="C1_0_ab283d1672" d="M 0 2.12132 
C 0.562581 2.12132 1.102195 1.897805 1.5 1.5 
C 1.897805 1.102195 2.12132 0.562581 2.12132 -0 
C 2.12132 -0.562581 1.897805 -1.102195 1.5 -1.5 
C 1.102195 -1.897805 0.562581 -2.12132 0 -2.12132 
C -0.562581 -2.12132 -1.102195 -1.897805 -1.5 -1.5 
C -1.897805 -1.102195 -2.12132 -0.562581 -2.12132 0 
C -2.12132 0.562581 -1.897805 1.102195 -1.5 1.5 
C -1.102195 1.897805 -0.562581 2.12132 0 2.12132 
z
"/>
    </defs>
    <g clip-path="url(#p761079d510)">
     <use xlink:href="#C1_0_ab283d1672" x="87.102326" y="125.555709" style="fill: #e67e22; fill-opacity: 0.25"/>
    </g>
    <g clip-path="url(#p761079d510)">
     <use xlink:href="#C1_0_ab283d1672" x="70.867538" y="108.079602" style="fill: #e67e22; fill-opacity: 0.25"/>
    </g>
    <g clip-path="url(#p761079d510)">
     <use xlink:href="#C1_0_ab283d1672" x="71.578776" y="118.714069" style="fill: #e67e22; fill-opacity: 0.25"/>
    </g>
    <g clip-path="url(#p761079d510)">
     <use xlink:href="#C1_0_ab283d1672" x="73.186793" y="113.635128" style="fill: #e67e22; fill-opacity: 0.25"/>
    </g>
   </g>
   <g id="PathCollection_3">
    <defs>
     <path id="C2_0_c76f9b8b54" d="M 0 2.12132 
C 0.562581 2.12132 1.102195 1.897805 1.5 1.5 
C 1.897805 1.102195 2.12132 0.562581 2.12132 -0 
C 2.12132 -0.562581 1.897805 -1.102195 1.5 -1.5 
C 1.102195 -1.897805 0.562581 -2.12132 0 -2.12132 
C -0.562581 -2.12132 -1.102195 -1.897805 -1.5 -1.5 
C -1.897805 -1.102195 -2.12132 -0.562581 -2.12132 0 
C -2.12132 0.562581 -1.897805 1.102195 -1.5 1.5 
C -1.102195 1.897805 -0.562581 2.12132 0 2.12132 
z
"/>
    </defs>
    <g clip-path="url(#p761079d510)">
     <use xlink:href="#C2_0_c76f9b8b54" x="99.966464" y="68.77135" style="fill: #3a6fbf; fill-opacity: 0.25"/>
    </g>
    <g clip-path="url(#p761079d510)">
     <use xlink:href="#C2_0_c76f9b8b54" x="79.263243" y="94.981522" style="fill: #3a6fbf; fill-opacity: 0.25"/>
    </g>
    <g clip-path="url(#p761079d510)">
     <use xlink:href="#C2_0_c76f9b8b54" x="99.904617" y="90.012105" style="fill: #3a6fbf; fill-opacity: 0.25"/>
    </g>
    <g clip-path="url(#p761079d510)">
     <use xlink:href="#C2_0_c76f9b8b54" x="91.184216" y="105.571112" style="fill: #3a6fbf; fill-opacity: 0.25"/>
    </g>
    <g clip-path="url(#p761079d510)">
     <use xlink:href="#C2_0_c76f9b8b54" x="106.491303" y="89.53378" style="fill: #3a6fbf; fill-opacity: 0.25"/>
    </g>
   </g>
   <g id="PathCollection_4">
    <defs>
     <path id="C3_0_3591cee509" d="M 0 2.12132 
C 0.562581 2.12132 1.102195 1.897805 1.5 1.5 
C 1.897805 1.102195 2.12132 0.562581 2.12132 -0 
C 2.12132 -0.562581 1.897805 -1.102195 1.5 -1.5 
C 1.102195 -1.897805 0.562581 -2.12132 0 -2.12132 
C -0.562581 -2.12132 -1.102195 -1.897805 -1.5 -1.5 
C -1.897805 -1.102195 -2.12132 -0.562581 -2.12132 0 
C -2.12132 0.562581 -1.897805 1.102195 -1.5 1.5 
C -1.102195 1.897805 -0.562581 2.12132 0 2.12132 
z
"/>
    </defs>
    <g clip-path="url(#p761079d510)">
     <use xlink:href="#C3_0_3591cee509" x="140.259664" y="54.909137" style="fill: #c0392b; fill-opacity: 0.25"/>
    </g>
    <g clip-path="url(#p761079d510)">
     <use xlink:href="#C3_0_3591cee509" x="159.138404" y="72.070322" style="fill: #c0392b; fill-opacity: 0.25"/>
    </g>
    <g clip-path="url(#p761079d510)">
     <use xlink:href="#C3_0_3591cee509" x="179.269542" y="66.210611" style="fill: #c0392b; fill-opacity: 0.25"/>
    </g>
    <g clip-path="url(#p761079d510)">
     <use xlink:href="#C3_0_3591cee509" x="169.915211" y="19.224464" style="fill: #c0392b; fill-opacity: 0.25"/>
    </g>
    <g clip-path="url(#p761079d510)">
     <use xlink:href="#C3_0_3591cee509" x="190.401969" y="41.603878" style="fill: #c0392b; fill-opacity: 0.25"/>
    </g>
   </g>
   <g id="PathCollection_5">
    <path d="M 78.165462 128.93358 
L 81.165462 125.93358 
L 78.165462 122.93358 
L 75.165462 125.93358 
z
" clip-path="url(#p761079d510)" style="fill: #4caf50; fill-opacity: 0.25"/>
    <path d="M 83.808984 125.325994 
L 86.808984 122.325994 
L 83.808984 119.325994 
L 80.808984 122.325994 
z
" clip-path="url(#p761079d510)" style="fill: #4caf50; fill-opacity: 0.25"/>
    <path d="M 80.994953 132.417842 
L 83.994953 129.417842 
L 80.994953 126.417842 
L 77.994953 129.417842 
z
" clip-path="url(#p761079d510)" style="fill: #4caf50; fill-opacity: 0.25"/>
    <path d="M 79.108626 136.851719 
L 82.108626 133.851719 
L 79.108626 130.851719 
L 76.108626 133.851719 
z
" clip-path="url(#p761079d510)" style="fill: #4caf50; fill-opacity: 0.25"/>
    <path d="M 83.14413 123.984632 
L 86.14413 120.984632 
L 83.14413 117.984632 
L 80.14413 120.984632 
z
" clip-path="url(#p761079d510)" style="fill: #4caf50; fill-opacity: 0.25"/>
   </g>
   <g id="PathCollection_6">
    <path d="M 65.641482 126.791 
L 68.641482 123.791 
L 65.641482 120.791 
L 62.641482 123.791 
z
" clip-path="url(#p761079d510)" style="fill: #9e9e9e; fill-opacity: 0.25"/>
    <path d="M 54.46267 127.555815 
L 57.46267 124.555815 
L 54.46267 121.555815 
L 51.46267 124.555815 
z
" clip-path="url(#p761079d510)" style="fill: #9e9e9e; fill-opacity: 0.25"/>
    <path d="M 53.504044 126.757939 
L 56.504044 123.757939 
L 53.504044 120.757939 
L 50.504044 123.757939 
z
" clip-path="url(#p761079d510)" style="fill: #9e9e9e; fill-opacity: 0.25"/>
    <path d="M 55.297602 110.480037 
L 58.297602 107.480037 
L 55.297602 104.480037 
L 52.297602 107.480037 
z
" clip-path="url(#p761079d510)" style="fill: #9e9e9e; fill-opacity: 0.25"/>
    <path d="M 53.967895 137.672396 
L 56.967895 134.672396 
L 53.967895 131.672396 
L 50.967895 134.672396 
z
" clip-path="url(#p761079d510)" style="fill: #9e9e9e; fill-opacity: 0.25"/>
   </g>
   <g id="PathCollection_7">
    <path d="M 54.338976 142.136299 
L 57.338976 139.136299 
L 54.338976 136.136299 
L 51.338976 139.136299 
z
" clip-path="url(#p761079d510)" style="fill: #212121; fill-opacity: 0.25"/>
    <path d="M 50.10247 137.968346 
L 53.10247 134.968346 
L 50.10247 131.968346 
L 47.10247 134.968346 
z
" clip-path="url(#p761079d510)" style="fill: #212121; fill-opacity: 0.25"/>
    <path d="M 52.220723 121.170335 
L 55.220723 118.170335 
L 52.220723 115.170335 
L 49.220723 118.170335 
z
" clip-path="url(#p761079d510)" style="fill: #212121; fill-opacity: 0.25"/>
    <path d="M 55.931532 134.195124 
L 58.931532 131.195124 
L 55.931532 128.195124 
L 52.931532 131.195124 
z
" clip-path="url(#p761079d510)" style="fill: #212121; fill-opacity: 0.25"/>
    <path d="M 47.056514 137.809485 
L 50.056514 134.809485 
L 47.056514 131.809485 
L 44.056514 134.809485 
z
" clip-path="url(#p761079d510)" style="fill: #212121; fill-opacity: 0.25"/>
   </g>
   <g id="text_14">
    <!-- Total $R^2$ = 0.81 -->
    <g style="fill: #333333" transform="translate(152.129803 126.920282)">
     <text>
      <tspan x="0" y="-0.678125" style="font-size: 6.5px; font-family: 'Arial'; fill: #333333">T</tspan>
      <tspan x="3.970459" y="-0.678125" style="font-size: 6.5px; font-family: 'Arial'; fill: #333333">o</tspan>
      <tspan x="7.585449" y="-0.678125" style="font-size: 6.5px; font-family: 'Arial'; fill: #333333">t</tspan>
      <tspan x="9.391357" y="-0.678125" style="font-size: 6.5px; font-family: 'Arial'; fill: #333333">a</tspan>
      <tspan x="13.006348" y="-0.678125" style="font-size: 6.5px; font-family: 'Arial'; fill: #333333">l</tspan>
      <tspan x="14.450439" y="-0.678125" style="font-size: 6.5px; font-family: 'Arial'; fill: #333333"> </tspan>
      <tspan x="24.350965" y="-0.678125" style="font-size: 6.5px; font-family: 'Arial'; fill: #333333"> </tspan>
      <tspan x="26.156873" y="-0.678125" style="font-size: 6.5px; font-family: 'Arial'; fill: #333333">=</tspan>
      <tspan x="29.952772" y="-0.678125" style="font-size: 6.5px; font-family: 'Arial'; fill: #333333"> </tspan>
      <tspan x="31.75868" y="-0.678125" style="font-size: 6.5px; font-family: 'Arial'; fill: #333333">0</tspan>
      <tspan x="35.37367" y="-0.678125" style="font-size: 6.5px; font-family: 'Arial'; fill: #333333">.</tspan>
      <tspan x="37.179578" y="-0.678125" style="font-size: 6.5px; font-family: 'Arial'; fill: #333333">8</tspan>
      <tspan x="40.794569" y="-0.678125" style="font-size: 6.5px; font-family: 'Arial'; fill: #333333">1</tspan>
      <tspan x="16.256348" y="-0.678125" style="font-style: oblique; font-size: 6.5px; font-family: 'DejaVu Sans'; fill: #333333">R</tspan>
      <tspan x="21.26471" y="-3.357812" style="font-size: 4.55px; font-family: 'DejaVu Sans'; fill: #333333">2</tspan>
     </text>
    </g>
   </g>
   <g id="text_15">
    <!-- Size-corrected $R^2$ = 0.89 -->
    <g style="fill: #c0392b" transform="translate(124.699803 140.991464)">
     <text>
      <tspan x="0" y="-0.678125" style="font-size: 6.5px; font-family: 'Arial'; fill: #c0392b">S</tspan>
      <tspan x="4.335449" y="-0.678125" style="font-size: 6.5px; font-family: 'Arial'; fill: #c0392b">i</tspan>
      <tspan x="5.779541" y="-0.678125" style="font-size: 6.5px; font-family: 'Arial'; fill: #c0392b">z</tspan>
      <tspan x="9.029541" y="-0.678125" style="font-size: 6.5px; font-family: 'Arial'; fill: #c0392b">e</tspan>
      <tspan x="12.644531" y="-0.678125" style="font-size: 6.5px; font-family: 'Arial'; fill: #c0392b">-</tspan>
      <tspan x="14.809082" y="-0.678125" style="font-size: 6.5px; font-family: 'Arial'; fill: #c0392b">c</tspan>
      <tspan x="18.059082" y="-0.678125" style="font-size: 6.5px; font-family: 'Arial'; fill: #c0392b">o</tspan>
      <tspan x="21.674072" y="-0.678125" style="font-size: 6.5px; font-family: 'Arial'; fill: #c0392b">r</tspan>
      <tspan x="23.838623" y="-0.678125" style="font-size: 6.5px; font-family: 'Arial'; fill: #c0392b">r</tspan>
      <tspan x="26.003174" y="-0.678125" style="font-size: 6.5px; font-family: 'Arial'; fill: #c0392b">e</tspan>
      <tspan x="29.618164" y="-0.678125" style="font-size: 6.5px; font-family: 'Arial'; fill: #c0392b">c</tspan>
      <tspan x="32.868164" y="-0.678125" style="font-size: 6.5px; font-family: 'Arial'; fill: #c0392b">t</tspan>
      <tspan x="34.674072" y="-0.678125" style="font-size: 6.5px; font-family: 'Arial'; fill: #c0392b">e</tspan>
      <tspan x="38.289062" y="-0.678125" style="font-size: 6.5px; font-family: 'Arial'; fill: #c0392b">d</tspan>
      <tspan x="41.904053" y="-0.678125" style="font-size: 6.5px; font-family: 'Arial'; fill: #c0392b"> </tspan>
      <tspan x="51.804578" y="-0.678125" style="font-size: 6.5px; font-family: 'Arial'; fill: #c0392b"> </tspan>
      <tspan x="53.610487" y="-0.678125" style="font-size: 6.5px; font-family: 'Arial'; fill: #c0392b">=</tspan>
      <tspan x="57.406385" y="-0.678125" style="font-size: 6.5px; font-family: 'Arial'; fill: #c0392b"> </tspan>
      <tspan x="59.212293" y="-0.678125" style="font-size: 6.5px; font-family: 'Arial'; fill: #c0392b">0</tspan>
      <tspan x="62.827284" y="-0.678125" style="font-size: 6.5px; font-family: 'Arial'; fill: #c0392b">.</tspan>
      <tspan x="64.633192" y="-0.678125" style="font-size: 6.5px; font-family: 'Arial'; fill: #c0392b">8</tspan>
      <tspan x="68.248182" y="-0.678125" style="font-size: 6.5px; font-family: 'Arial'; fill: #c0392b">9</tspan>
      <tspan x="43.709961" y="-0.678125" style="font-style: oblique; font-size: 6.5px; font-family: 'DejaVu Sans'; fill: #c0392b">R</tspan>
      <tspan x="48.718324" y="-3.357812" style="font-size: 4.55px; font-family: 'DejaVu Sans'; fill: #c0392b">2</tspan>
     </text>
    </g>
   </g>
   <g id="text_16">
    <text style="font-weight: 700; font-size: 12px; font-family: 'Arial', 'Helvetica', 'DejaVu Sans', sans-serif; text-anchor: start" x="11.138976" y="15.789375" transform="rotate(-0 11.138976 15.789375)">D</text>
   </g>
   <g id="LineCollection_1">
    <path d="M 49.230109 140.675448 
L 53.782675 140.675448 
" clip-path="url(#p761079d510)" style="fill: none; stroke: #2e7d32; stroke-width: 0.6"/>
   </g>
   <g id="LineCollection_2">
    <path d="M 51.506392 141.667911 
L 51.506392 139.682985 
" clip-path="url(#p761079d510)" style="fill: none; stroke: #2e7d32; stroke-width: 0.6"/>
   </g>
   <g id="line2d_15">
    <defs>
     <path id="mf0b58048ab" d="M 0 2.5 
L 0 -2.5 
" style="stroke: #2e7d32; stroke-width: 0.4"/>
    </defs>
    <g clip-path="url(#p761079d510)">
     <use xlink:href="#mf0b58048ab" x="49.230109" y="140.675448" style="fill: #3a9e6f; stroke: #2e7d32; stroke-width: 0.4"/>
    </g>
   </g>
   <g id="line2d_16">
    <g clip-path="url(#p761079d510)">
     <use xlink:href="#mf0b58048ab" x="53.782675" y="140.675448" style="fill: #3a9e6f; stroke: #2e7d32; stroke-width: 0.4"/>
    </g>
   </g>
   <g id="line2d_17">
    <defs>
     <path id="m79bd4866b7" d="M 2.5 0 
L -2.5 -0 
" style="stroke: #2e7d32; stroke-width: 0.4"/>
    </defs>
    <g clip-path="url(#p761079d510)">
     <use xlink:href="#m79bd4866b7" x="51.506392" y="141.667911" style="fill: #3a9e6f; stroke: #2e7d32; stroke-width: 0.4"/>
    </g>
   </g>
   <g id="line2d_18">
    <g clip-path="url(#p761079d510)">
     <use xlink:href="#m79bd4866b7" x="51.506392" y="139.682985" style="fill: #3a9e6f; stroke: #2e7d32; stroke-width: 0.4"/>
    </g>
   </g>
   <g id="LineCollection_3">
    <path d="M 71.846917 116.496127 
L 79.520799 116.496127 
" clip-path="url(#p761079d510)" style="fill: none; stroke: #b7600a; stroke-width: 0.6"/>
   </g>
   <g id="LineCollection_4">
    <path d="M 75.683858 120.215653 
L 75.683858 112.776601 
" clip-path="url(#p761079d510)" style="fill: none; stroke: #b7600a; stroke-width: 0.6"/>
   </g>
   <g id="line2d_19">
    <defs>
     <path id="mfc060bf523" d="M 0 2.5 
L 0 -2.5 
" style="stroke: #b7600a; stroke-width: 0.4"/>
    </defs>
    <g clip-path="url(#p761079d510)">
     <use xlink:href="#mfc060bf523" x="71.846917" y="116.496127" style="fill: #e67e22; stroke: #b7600a; stroke-width: 0.4"/>
    </g>
   </g>
   <g id="line2d_20">
    <g clip-path="url(#p761079d510)">
     <use xlink:href="#mfc060bf523" x="79.520799" y="116.496127" style="fill: #e67e22; stroke: #b7600a; stroke-width: 0.4"/>
    </g>
   </g>
   <g id="line2d_21">
    <defs>
     <path id="m385d6acfab" d="M 2.5 0 
L -2.5 -0 
" style="stroke: #b7600a; stroke-width: 0.4"/>
    </defs>
    <g clip-path="url(#p761079d510)">
     <use xlink:href="#m385d6acfab" x="75.683858" y="120.215653" style="fill: #e67e22; stroke: #b7600a; stroke-width: 0.4"/>
    </g>
   </g>
   <g id="line2d_22">
    <g clip-path="url(#p761079d510)">
     <use xlink:href="#m385d6acfab" x="75.683858" y="112.776601" style="fill: #e67e22; stroke: #b7600a; stroke-width: 0.4"/>
    </g>
   </g>
   <g id="LineCollection_5">
    <path d="M 90.659194 89.773974 
L 100.064743 89.773974 
" clip-path="url(#p761079d510)" style="fill: none; stroke: #2c5f9f; stroke-width: 0.6"/>
   </g>
   <g id="LineCollection_6">
    <path d="M 95.361969 95.765187 
L 95.361969 83.78276 
" clip-path="url(#p761079d510)" style="fill: none; stroke: #2c5f9f; stroke-width: 0.6"/>
   </g>
   <g id="line2d_23">
    <defs>
     <path id="med32e0ccdd" d="M 0 2.5 
L 0 -2.5 
" style="stroke: #2c5f9f; stroke-width: 0.4"/>
    </defs>
    <g clip-path="url(#p761079d510)">
     <use xlink:href="#med32e0ccdd" x="90.659194" y="89.773974" style="fill: #3a6fbf; stroke: #2c5f9f; stroke-width: 0.4"/>
    </g>
   </g>
   <g id="line2d_24">
    <g clip-path="url(#p761079d510)">
     <use xlink:href="#med32e0ccdd" x="100.064743" y="89.773974" style="fill: #3a6fbf; stroke: #2c5f9f; stroke-width: 0.4"/>
    </g>
   </g>
   <g id="line2d_25">
    <defs>
     <path id="m26a71a56bc" d="M 2.5 0 
L -2.5 -0 
" style="stroke: #2c5f9f; stroke-width: 0.4"/>
    </defs>
    <g clip-path="url(#p761079d510)">
     <use xlink:href="#m26a71a56bc" x="95.361969" y="95.765187" style="fill: #3a6fbf; stroke: #2c5f9f; stroke-width: 0.4"/>
    </g>
   </g>
   <g id="line2d_26">
    <g clip-path="url(#p761079d510)">
     <use xlink:href="#m26a71a56bc" x="95.361969" y="83.78276" style="fill: #3a6fbf; stroke: #2c5f9f; stroke-width: 0.4"/>
    </g>
   </g>
   <g id="LineCollection_7">
    <path d="M 159.193567 50.803682 
L 176.400349 50.803682 
" clip-path="url(#p761079d510)" style="fill: none; stroke: #922b21; stroke-width: 0.6"/>
   </g>
   <g id="LineCollection_8">
    <path d="M 167.796958 60.259849 
L 167.796958 41.347516 
" clip-path="url(#p761079d510)" style="fill: none; stroke: #922b21; stroke-width: 0.6"/>
   </g>
   <g id="line2d_27">
    <defs>
     <path id="mbbab047329" d="M 0 2.5 
L 0 -2.5 
" style="stroke: #922b21; stroke-width: 0.4"/>
    </defs>
    <g clip-path="url(#p761079d510)">
     <use xlink:href="#mbbab047329" x="159.193567" y="50.803682" style="fill: #c0392b; stroke: #922b21; stroke-width: 0.4"/>
    </g>
   </g>
   <g id="line2d_28">
    <g clip-path="url(#p761079d510)">
     <use xlink:href="#mbbab047329" x="176.400349" y="50.803682" style="fill: #c0392b; stroke: #922b21; stroke-width: 0.4"/>
    </g>
   </g>
   <g id="line2d_29">
    <defs>
     <path id="m9d485bf97d" d="M 2.5 0 
L -2.5 -0 
" style="stroke: #922b21; stroke-width: 0.4"/>
    </defs>
    <g clip-path="url(#p761079d510)">
     <use xlink:href="#m9d485bf97d" x="167.796958" y="60.259849" style="fill: #c0392b; stroke: #922b21; stroke-width: 0.4"/>
    </g>
   </g>
   <g id="line2d_30">
    <g clip-path="url(#p761079d510)">
     <use xlink:href="#m9d485bf97d" x="167.796958" y="41.347516" style="fill: #c0392b; stroke: #922b21; stroke-width: 0.4"/>
    </g>
   </g>
   <g id="LineCollection_9">
    <path d="M 79.94694 126.502753 
L 82.141922 126.502753 
" clip-path="url(#p761079d510)" style="fill: none; stroke: #2e7d32; stroke-width: 0.6"/>
   </g>
   <g id="LineCollection_10">
    <path d="M 81.044431 128.855666 
L 81.044431 124.14984 
" clip-path="url(#p761079d510)" style="fill: none; stroke: #2e7d32; stroke-width: 0.6"/>
   </g>
   <g id="line2d_31">
    <defs>
     <path id="m493e1380c9" d="M 0 2.5 
L 0 -2.5 
" style="stroke: #2e7d32; stroke-width: 0.5"/>
    </defs>
    <g clip-path="url(#p761079d510)">
     <use xlink:href="#m493e1380c9" x="79.94694" y="126.502753" style="fill: #4caf50; stroke: #2e7d32; stroke-width: 0.5"/>
    </g>
   </g>
   <g id="line2d_32">
    <g clip-path="url(#p761079d510)">
     <use xlink:href="#m493e1380c9" x="82.141922" y="126.502753" style="fill: #4caf50; stroke: #2e7d32; stroke-width: 0.5"/>
    </g>
   </g>
   <g id="line2d_33">
    <defs>
     <path id="m271e510817" d="M 2.5 0 
L -2.5 -0 
" style="stroke: #2e7d32; stroke-width: 0.5"/>
    </defs>
    <g clip-path="url(#p761079d510)">
     <use xlink:href="#m271e510817" x="81.044431" y="128.855666" style="fill: #4caf50; stroke: #2e7d32; stroke-width: 0.5"/>
    </g>
   </g>
   <g id="line2d_34">
    <g clip-path="url(#p761079d510)">
     <use xlink:href="#m271e510817" x="81.044431" y="124.14984" style="fill: #4caf50; stroke: #2e7d32; stroke-width: 0.5"/>
    </g>
   </g>
   <g id="LineCollection_11">
    <path d="M 54.288666 122.851437 
L 58.860811 122.851437 
" clip-path="url(#p761079d510)" style="fill: none; stroke: #616161; stroke-width: 0.6"/>
   </g>
   <g id="LineCollection_12">
    <path d="M 56.574739 127.213916 
L 56.574739 118.488959 
" clip-path="url(#p761079d510)" style="fill: none; stroke: #616161; stroke-width: 0.6"/>
   </g>
   <g id="line2d_35">
    <defs>
     <path id="mfd8798b392" d="M 0 2.5 
L 0 -2.5 
" style="stroke: #616161; stroke-width: 0.5"/>
    </defs>
    <g clip-path="url(#p761079d510)">
     <use xlink:href="#mfd8798b392" x="54.288666" y="122.851437" style="fill: #9e9e9e; stroke: #616161; stroke-width: 0.5"/>
    </g>
   </g>
   <g id="line2d_36">
    <g clip-path="url(#p761079d510)">
     <use xlink:href="#mfd8798b392" x="58.860811" y="122.851437" style="fill: #9e9e9e; stroke: #616161; stroke-width: 0.5"/>
    </g>
   </g>
   <g id="line2d_37">
    <defs>
     <path id="mf8945e1339" d="M 2.5 0 
L -2.5 -0 
" style="stroke: #616161; stroke-width: 0.5"/>
    </defs>
    <g clip-path="url(#p761079d510)">
     <use xlink:href="#mf8945e1339" x="56.574739" y="127.213916" style="fill: #9e9e9e; stroke: #616161; stroke-width: 0.5"/>
    </g>
   </g>
   <g id="line2d_38">
    <g clip-path="url(#p761079d510)">
     <use xlink:href="#mf8945e1339" x="56.574739" y="118.488959" style="fill: #9e9e9e; stroke: #616161; stroke-width: 0.5"/>
    </g>
   </g>
   <g id="LineCollection_13">
    <path d="M 50.364944 131.655918 
L 53.495142 131.655918 
" clip-path="url(#p761079d510)" style="fill: none; stroke: #000000; stroke-width: 0.6"/>
   </g>
   <g id="LineCollection_14">
    <path d="M 51.930043 135.254157 
L 51.930043 128.057678 
" clip-path="url(#p761079d510)" style="fill: none; stroke: #000000; stroke-width: 0.6"/>
   </g>
   <g id="line2d_39">
    <defs>
     <path id="ma059aeadd3" d="M 0 2.5 
L 0 -2.5 
" style="stroke: #000000; stroke-width: 0.5"/>
    </defs>
    <g clip-path="url(#p761079d510)">
     <use xlink:href="#ma059aeadd3" x="50.364944" y="131.655918" style="fill: #212121; stroke: #000000; stroke-width: 0.5"/>
    </g>
   </g>
   <g id="line2d_40">
    <g clip-path="url(#p761079d510)">
     <use xlink:href="#ma059aeadd3" x="53.495142" y="131.655918" style="fill: #212121; stroke: #000000; stroke-width: 0.5"/>
    </g>
   </g>
   <g id="line2d_41">
    <defs>
     <path id="m1dfb84d31a" d="M 2.5 0 
L -2.5 -0 
" style="stroke: #000000; stroke-width: 0.5"/>
    </defs>
    <g clip-path="url(#p761079d510)">
     <use xlink:href="#m1dfb84d31a" x="51.930043" y="135.254157" style="fill: #212121; stroke: #000000; stroke-width: 0.5"/>
    </g>
   </g>
   <g id="line2d_42">
    <g clip-path="url(#p761079d510)">
     <use xlink:href="#m1dfb84d31a" x="51.930043" y="128.057678" style="fill: #212121; stroke: #000000; stroke-width: 0.5"/>
    </g>
   </g>
   <g id="legend_1">
    <g id="LineCollection_15">
     <path d="M 41.45 21.056051 
L 47.95 21.056051 
" style="fill: none; stroke: #2e7d32; stroke-width: 0.6"/>
    </g>
    <g id="LineCollection_16">
     <path d="M 44.7 24.306051 
L 44.7 17.806051 
" style="fill: none; stroke: #2e7d32; stroke-width: 0.6"/>
    </g>
    <g id="line2d_43">
     <g>
      <use xlink:href="#mf0b58048ab" x="41.45" y="21.056051" style="fill: #3a9e6f; stroke: #2e7d32; stroke-width: 0.4"/>
     </g>
    </g>
    <g id="line2d_44">
     <g>
      <use xlink:href="#mf0b58048ab" x="47.95" y="21.056051" style="fill: #3a9e6f; stroke: #2e7d32; stroke-width: 0.4"/>
     </g>
    </g>
    <g id="line2d_45">
     <g>
      <use xlink:href="#m79bd4866b7" x="44.7" y="24.306051" style="fill: #3a9e6f; stroke: #2e7d32; stroke-width: 0.4"/>
     </g>
    </g>
    <g id="line2d_46">
     <g>
      <use xlink:href="#m79bd4866b7" x="44.7" y="17.806051" style="fill: #3a9e6f; stroke: #2e7d32; stroke-width: 0.4"/>
     </g>
    </g>
    <g id="line2d_47"/>
    <g id="line2d_48">
     <defs>
      <path id="ma5e0a219a7" d="M 0 3 
C 0.795609 3 1.55874 2.683901 2.12132 2.12132 
C 2.683901 1.55874 3 0.795609 3 0 
C 3 -0.795609 2.683901 -1.55874 2.12132 -2.12132 
C 1.55874 -2.683901 0.795609 -3 0 -3 
C -0.795609 -3 -1.55874 -2.683901 -2.12132 -2.12132 
C -2.683901 -1.55874 -3 -0.795609 -3 0 
C -3 0.795609 -2.683901 1.55874 -2.12132 2.12132 
C -1.55874 2.683901 -0.795609 3 0 3 
z
" style="stroke: #ffffff; stroke-width: 0.4"/>
     </defs>
     <g>
      <use xlink:href="#ma5e0a219a7" x="44.7" y="21.056051" style="fill: #3a9e6f; stroke: #ffffff; stroke-width: 0.4"/>
     </g>
    </g>
    <g id="text_17">
     <text style="font-size: 6.5px; font-family: 'Arial', 'Helvetica', 'DejaVu Sans', sans-serif; text-anchor: start" x="51.2" y="23.331051" transform="rotate(-0 51.2 23.331051)">Agar</text>
    </g>
    <g id="LineCollection_17">
     <path d="M 41.45 29.026676 
L 47.95 29.026676 
" style="fill: none; stroke: #b7600a; stroke-width: 0.6"/>
    </g>
    <g id="LineCollection_18">
     <path d="M 44.7 32.276676 
L 44.7 25.776676 
" style="fill: none; stroke: #b7600a; stroke-width: 0.6"/>
    </g>
    <g id="line2d_49">
     <g>
      <use xlink:href="#mfc060bf523" x="41.45" y="29.026676" style="fill: #e67e22; stroke: #b7600a; stroke-width: 0.4"/>
     </g>
    </g>
    <g id="line2d_50">
     <g>
      <use xlink:href="#mfc060bf523" x="47.95" y="29.026676" style="fill: #e67e22; stroke: #b7600a; stroke-width: 0.4"/>
     </g>
    </g>
    <g id="line2d_51">
     <g>
      <use xlink:href="#m385d6acfab" x="44.7" y="32.276676" style="fill: #e67e22; stroke: #b7600a; stroke-width: 0.4"/>
     </g>
    </g>
    <g id="line2d_52">
     <g>
      <use xlink:href="#m385d6acfab" x="44.7" y="25.776676" style="fill: #e67e22; stroke: #b7600a; stroke-width: 0.4"/>
     </g>
    </g>
    <g id="line2d_53"/>
    <g id="line2d_54">
     <defs>
      <path id="mac4fcc7685" d="M 0 3 
C 0.795609 3 1.55874 2.683901 2.12132 2.12132 
C 2.683901 1.55874 3 0.795609 3 0 
C 3 -0.795609 2.683901 -1.55874 2.12132 -2.12132 
C 1.55874 -2.683901 0.795609 -3 0 -3 
C -0.795609 -3 -1.55874 -2.683901 -2.12132 -2.12132 
C -2.683901 -1.55874 -3 -0.795609 -3 0 
C -3 0.795609 -2.683901 1.55874 -2.12132 2.12132 
C -1.55874 2.683901 -0.795609 3 0 3 
z
" style="stroke: #ffffff; stroke-width: 0.4"/>
     </defs>
     <g>
      <use xlink:href="#mac4fcc7685" x="44.7" y="29.026676" style="fill: #e67e22; stroke: #ffffff; stroke-width: 0.4"/>
     </g>
    </g>
    <g id="text_18">
     <text style="font-size: 6.5px; font-family: 'Arial', 'Helvetica', 'DejaVu Sans', sans-serif; text-anchor: start" x="51.2" y="31.301676" transform="rotate(-0 51.2 31.301676)">0.5:1</text>
    </g>
    <g id="LineCollection_19">
     <path d="M 41.45 36.921129 
L 47.95 36.921129 
" style="fill: none; stroke: #2c5f9f; stroke-width: 0.6"/>
    </g>
    <g id="LineCollection_20">
     <path d="M 44.7 40.171129 
L 44.7 33.671129 
" style="fill: none; stroke: #2c5f9f; stroke-width: 0.6"/>
    </g>
    <g id="line2d_55">
     <g>
      <use xlink:href="#med32e0ccdd" x="41.45" y="36.921129" style="fill: #3a6fbf; stroke: #2c5f9f; stroke-width: 0.4"/>
     </g>
    </g>
    <g id="line2d_56">
     <g>
      <use xlink:href="#med32e0ccdd" x="47.95" y="36.921129" style="fill: #3a6fbf; stroke: #2c5f9f; stroke-width: 0.4"/>
     </g>
    </g>
    <g id="line2d_57">
     <g>
      <use xlink:href="#m26a71a56bc" x="44.7" y="40.171129" style="fill: #3a6fbf; stroke: #2c5f9f; stroke-width: 0.4"/>
     </g>
    </g>
    <g id="line2d_58">
     <g>
      <use xlink:href="#m26a71a56bc" x="44.7" y="33.671129" style="fill: #3a6fbf; stroke: #2c5f9f; stroke-width: 0.4"/>
     </g>
    </g>
    <g id="line2d_59"/>
    <g id="line2d_60">
     <defs>
      <path id="m7faa85d044" d="M 0 3 
C 0.795609 3 1.55874 2.683901 2.12132 2.12132 
C 2.683901 1.55874 3 0.795609 3 0 
C 3 -0.795609 2.683901 -1.55874 2.12132 -2.12132 
C 1.55874 -2.683901 0.795609 -3 0 -3 
C -0.795609 -3 -1.55874 -2.683901 -2.12132 -2.12132 
C -2.683901 -1.55874 -3 -0.795609 -3 0 
C -3 0.795609 -2.683901 1.55874 -2.12132 2.12132 
C -1.55874 2.683901 -0.795609 3 0 3 
z
" style="stroke: #ffffff; stroke-width: 0.4"/>
     </defs>
     <g>
      <use xlink:href="#m7faa85d044" x="44.7" y="36.921129" style="fill: #3a6fbf; stroke: #ffffff; stroke-width: 0.4"/>
     </g>
    </g>
    <g id="text_19">
     <text style="font-size: 6.5px; font-family: 'Arial', 'Helvetica', 'DejaVu Sans', sans-serif; text-anchor: start" x="51.2" y="39.196129" transform="rotate(-0 51.2 39.196129)">1:1</text>
    </g>
    <g id="LineCollection_21">
     <path d="M 41.45 44.815582 
L 47.95 44.815582 
" style="fill: none; stroke: #922b21; stroke-width: 0.6"/>
    </g>
    <g id="LineCollection_22">
     <path d="M 44.7 48.065582 
L 44.7 41.565582 
" style="fill: none; stroke: #922b21; stroke-width: 0.6"/>
    </g>
    <g id="line2d_61">
     <g>
      <use xlink:href="#mbbab047329" x="41.45" y="44.815582" style="fill: #c0392b; stroke: #922b21; stroke-width: 0.4"/>
     </g>
    </g>
    <g id="line2d_62">
     <g>
      <use xlink:href="#mbbab047329" x="47.95" y="44.815582" style="fill: #c0392b; stroke: #922b21; stroke-width: 0.4"/>
     </g>
    </g>
    <g id="line2d_63">
     <g>
      <use xlink:href="#m9d485bf97d" x="44.7" y="48.065582" style="fill: #c0392b; stroke: #922b21; stroke-width: 0.4"/>
     </g>
    </g>
    <g id="line2d_64">
     <g>
      <use xlink:href="#m9d485bf97d" x="44.7" y="41.565582" style="fill: #c0392b; stroke: #922b21; stroke-width: 0.4"/>
     </g>
    </g>
    <g id="line2d_65"/>
    <g id="line2d_66">
     <defs>
      <path id="m471467613d" d="M 0 3 
C 0.795609 3 1.55874 2.683901 2.12132 2.12132 
C 2.683901 1.55874 3 0.795609 3 0 
C 3 -0.795609 2.683901 -1.55874 2.12132 -2.12132 
C 1.55874 -2.683901 0.795609 -3 0 -3 
C -0.795609 -3 -1.55874 -2.683901 -2.12132 -2.12132 
C -2.683901 -1.55874 -3 -0.795609 -3 0 
C -3 0.795609 -2.683901 1.55874 -2.12132 2.12132 
C -1.55874 2.683901 -0.795609 3 0 3 
z
" style="stroke: #ffffff; stroke-width: 0.4"/>
     </defs>
     <g>
      <use xlink:href="#m471467613d" x="44.7" y="44.815582" style="fill: #c0392b; stroke: #ffffff; stroke-width: 0.4"/>
     </g>
    </g>
    <g id="text_20">
     <text style="font-size: 6.5px; font-family: 'Arial', 'Helvetica', 'DejaVu Sans', sans-serif; text-anchor: start" x="51.2" y="47.090582" transform="rotate(-0 51.2 47.090582)">2:1</text>
    </g>
    <g id="LineCollection_23">
     <path d="M 71.505391 21.056051 
L 78.005391 21.056051 
" style="fill: none; stroke: #2e7d32; stroke-width: 0.6"/>
    </g>
    <g id="LineCollection_24">
     <path d="M 74.755391 24.306051 
L 74.755391 17.806051 
" style="fill: none; stroke: #2e7d32; stroke-width: 0.6"/>
    </g>
    <g id="line2d_67">
     <g>
      <use xlink:href="#m493e1380c9" x="71.505391" y="21.056051" style="fill: #4caf50; stroke: #2e7d32; stroke-width: 0.5"/>
     </g>
    </g>
    <g id="line2d_68">
     <g>
      <use xlink:href="#m493e1380c9" x="78.005391" y="21.056051" style="fill: #4caf50; stroke: #2e7d32; stroke-width: 0.5"/>
     </g>
    </g>
    <g id="line2d_69">
     <g>
      <use xlink:href="#m271e510817" x="74.755391" y="24.306051" style="fill: #4caf50; stroke: #2e7d32; stroke-width: 0.5"/>
     </g>
    </g>
    <g id="line2d_70">
     <g>
      <use xlink:href="#m271e510817" x="74.755391" y="17.806051" style="fill: #4caf50; stroke: #2e7d32; stroke-width: 0.5"/>
     </g>
    </g>
    <g id="line2d_71"/>
    <g id="line2d_72">
     <defs>
      <path id="mef85d902b9" d="M -0 3.535534 
L 3.535534 0 
L 0 -3.535534 
L -3.535534 -0 
z
" style="stroke: #2e7d32; stroke-width: 0.5; stroke-linejoin: miter"/>
     </defs>
     <g>
      <use xlink:href="#mef85d902b9" x="74.755391" y="21.056051" style="fill: #4caf50; stroke: #2e7d32; stroke-width: 0.5; stroke-linejoin: miter"/>
     </g>
    </g>
    <g id="text_21">
     <text style="font-size: 6.5px; font-family: 'Arial', 'Helvetica', 'DejaVu Sans', sans-serif; text-anchor: start" x="81.255391" y="23.331051" transform="rotate(-0 81.255391 23.331051)">Green</text>
    </g>
    <g id="LineCollection_25">
     <path d="M 71.505391 28.950504 
L 78.005391 28.950504 
" style="fill: none; stroke: #616161; stroke-width: 0.6"/>
    </g>
    <g id="LineCollection_26">
     <path d="M 74.755391 32.200504 
L 74.755391 25.700504 
" style="fill: none; stroke: #616161; stroke-width: 0.6"/>
    </g>
    <g id="line2d_73">
     <g>
      <use xlink:href="#mfd8798b392" x="71.505391" y="28.950504" style="fill: #9e9e9e; stroke: #616161; stroke-width: 0.5"/>
     </g>
    </g>
    <g id="line2d_74">
     <g>
      <use xlink:href="#mfd8798b392" x="78.005391" y="28.950504" style="fill: #9e9e9e; stroke: #616161; stroke-width: 0.5"/>
     </g>
    </g>
    <g id="line2d_75">
     <g>
      <use xlink:href="#mf8945e1339" x="74.755391" y="32.200504" style="fill: #9e9e9e; stroke: #616161; stroke-width: 0.5"/>
     </g>
    </g>
    <g id="line2d_76">
     <g>
      <use xlink:href="#mf8945e1339" x="74.755391" y="25.700504" style="fill: #9e9e9e; stroke: #616161; stroke-width: 0.5"/>
     </g>
    </g>
    <g id="line2d_77"/>
    <g id="line2d_78">
     <defs>
      <path id="m0d420a95a9" d="M -0 3.535534 
L 3.535534 0 
L 0 -3.535534 
L -3.535534 -0 
z
" style="stroke: #616161; stroke-width: 0.5; stroke-linejoin: miter"/>
     </defs>
     <g>
      <use xlink:href="#m0d420a95a9" x="74.755391" y="28.950504" style="fill: #9e9e9e; stroke: #616161; stroke-width: 0.5; stroke-linejoin: miter"/>
     </g>
    </g>
    <g id="text_22">
     <text style="font-size: 6.5px; font-family: 'Arial', 'Helvetica', 'DejaVu Sans', sans-serif; text-anchor: start" x="81.255391" y="31.225504" transform="rotate(-0 81.255391 31.225504)">White</text>
    </g>
    <g id="LineCollection_27">
     <path d="M 71.505391 36.844957 
L 78.005391 36.844957 
" style="fill: none; stroke: #000000; stroke-width: 0.6"/>
    </g>
    <g id="LineCollection_28">
     <path d="M 74.755391 40.094957 
L 74.755391 33.594957 
" style="fill: none; stroke: #000000; stroke-width: 0.6"/>
    </g>
    <g id="line2d_79">
     <g>
      <use xlink:href="#ma059aeadd3" x="71.505391" y="36.844957" style="fill: #212121; stroke: #000000; stroke-width: 0.5"/>
     </g>
    </g>
    <g id="line2d_80">
     <g>
      <use xlink:href="#ma059aeadd3" x="78.005391" y="36.844957" style="fill: #212121; stroke: #000000; stroke-width: 0.5"/>
     </g>
    </g>
    <g id="line2d_81">
     <g>
      <use xlink:href="#m1dfb84d31a" x="74.755391" y="40.094957" style="fill: #212121; stroke: #000000; stroke-width: 0.5"/>
     </g>
    </g>
    <g id="line2d_82">
     <g>
      <use xlink:href="#m1dfb84d31a" x="74.755391" y="33.594957" style="fill: #212121; stroke: #000000; stroke-width: 0.5"/>
     </g>
    </g>
    <g id="line2d_83"/>
    <g id="line2d_84">
     <defs>
      <path id="m730280afcc" d="M -0 3.535534 
L 3.535534 0 
L 0 -3.535534 
L -3.535534 -0 
z
" style="stroke: #000000; stroke-width: 0.5; stroke-linejoin: miter"/>
     </defs>
     <g>
      <use xlink:href="#m730280afcc" x="74.755391" y="36.844957" style="fill: #212121; stroke: #000000; stroke-width: 0.5; stroke-linejoin: miter"/>
     </g>
    </g>
    <g id="text_23">
     <text style="font-size: 6.5px; font-family: 'Arial', 'Helvetica', 'DejaVu Sans', sans-serif; text-anchor: start" x="81.255391" y="39.119957" transform="rotate(-0 81.255391 39.119957)">Black</text>
    </g>
   </g>
   <g id="line2d_85">
    <g clip-path="url(#p761079d510)">
     <use xlink:href="#ma5e0a219a7" x="51.506392" y="140.675448" style="fill: #3a9e6f; stroke: #ffffff; stroke-width: 0.4"/>
    </g>
   </g>
   <g id="line2d_86">
    <g clip-path="url(#p761079d510)">
     <use xlink:href="#mac4fcc7685" x="75.683858" y="116.496127" style="fill: #e67e22; stroke: #ffffff; stroke-width: 0.4"/>
    </g>
   </g>
   <g id="line2d_87">
    <g clip-path="url(#p761079d510)">
     <use xlink:href="#m7faa85d044" x="95.361969" y="89.773974" style="fill: #3a6fbf; stroke: #ffffff; stroke-width: 0.4"/>
    </g>
   </g>
   <g id="line2d_88">
    <g clip-path="url(#p761079d510)">
     <use xlink:href="#m471467613d" x="167.796958" y="50.803682" style="fill: #c0392b; stroke: #ffffff; stroke-width: 0.4"/>
    </g>
   </g>
   <g id="line2d_89">
    <g clip-path="url(#p761079d510)">
     <use xlink:href="#mef85d902b9" x="81.044431" y="126.502753" style="fill: #4caf50; stroke: #2e7d32; stroke-width: 0.5; stroke-linejoin: miter"/>
    </g>
   </g>
   <g id="line2d_90">
    <g clip-path="url(#p761079d510)">
     <use xlink:href="#m0d420a95a9" x="56.574739" y="122.851437" style="fill: #9e9e9e; stroke: #616161; stroke-width: 0.5; stroke-linejoin: miter"/>
    </g>
   </g>
   <g id="line2d_91">
    <g clip-path="url(#p761079d510)">
     <use xlink:href="#m730280afcc" x="51.930043" y="131.655918" style="fill: #212121; stroke: #000000; stroke-width: 0.5; stroke-linejoin: miter"/>
    </g>
   </g>
  </g>
 </g>
 <defs>
  <clipPath id="p761079d510">
   <rect x="34.95" y="12.828472" width="170.07874" height="140.711811"/>
  </clipPath>
 </defs>
</svg>
