<?xml version="1.0" encoding="utf-8" standalone="no"?>
<!DOCTYPE svg PUBLIC "-//W3C//DTD SVG 1.1//EN"
  "http://www.w3.org/Graphics/SVG/1.1/DTD/svg11.dtd">
<svg xmlns:xlink="http://www.w3.org/1999/xlink" width="252pt" height="172.8pt" viewBox="0 0 252 172.8" xmlns="http://www.w3.org/2000/svg" version="1.1">
 <metadata>
  <rdf:RDF xmlns:dc="http://purl.org/dc/elements/1.1/" xmlns:cc="http://creativecommons.org/ns#" xmlns:rdf="http://www.w3.org/1999/02/22-rdf-syntax-ns#">
   <cc:Work>
    <dc:type rdf:resource="http://purl.org/dc/dcmitype/StillImage"/>
    <dc:date>2026-03-10T04:25:10.306506</dc:date>
    <dc:format>image/svg+xml</dc:format>
    <dc:creator>
     <cc:Agent>
      <dc:title>Matplotlib v3.10.8, https://matplotlib.org/</dc:title>
     </cc:Agent>
    </dc:creator>
   </cc:Work>
  </rdf:RDF>
 </metadata>
 <defs>
  <style type="text/css">*{stroke-linejoin: round; stroke-linecap: butt}</style>
 </defs>
 <g id="figure_1">
  <g id="patch_1">
   <path d="M 0 172.8 
L 252 172.8 
L 252 0 
L 0 0 
z
" style="fill: #ffffff"/>
  </g>
  <g id="axes_1">
   <g id="patch_2">
    <path d="M 30.8175 136.812 
L 237.81 136.812 
L 237.81 8.64 
L 30.8175 8.64 
z
" style="fill: #ffffff"/>
   </g>
   <g id="patch_3">
    <path d="M 30.8175 136.812 
L 37.955172 136.812 
L 37.955172 127.357205 
L 30.8175 127.357205 
z
" clip-path="url(#p2e5c8a607a)" style="fill: #d62728; opacity: 0.5; stroke: #ffffff; stroke-width: 0.3; stroke-linejoin: miter"/>
   </g>
   <g id="patch_4">
    <path d="M 37.955172 136.812 
L 45.092845 136.812 
L 45.092845 132.084602 
L 37.955172 132.084602 
z
" clip-path="url(#p2e5c8a607a)" style="fill: #d62728; opacity: 0.5; stroke: #ffffff; stroke-width: 0.3; stroke-linejoin: miter"/>
   </g>
   <g id="patch_5">
    <path d="M 45.092845 136.812 
L 52.230517 136.812 
L 52.230517 132.084602 
L 45.092845 132.084602 
z
" clip-path="url(#p2e5c8a607a)" style="fill: #d62728; opacity: 0.5; stroke: #ffffff; stroke-width: 0.3; stroke-linejoin: miter"/>
   </g>
   <g id="patch_6">
    <path d="M 52.230517 136.812 
L 59.36819 136.812 
L 59.36819 132.084602 
L 52.230517 132.084602 
z
" clip-path="url(#p2e5c8a607a)" style="fill: #d62728; opacity: 0.5; stroke: #ffffff; stroke-width: 0.3; stroke-linejoin: miter"/>
   </g>
   <g id="patch_7">
    <path d="M 59.36819 136.812 
L 66.505862 136.812 
L 66.505862 132.084602 
L 59.36819 132.084602 
z
" clip-path="url(#p2e5c8a607a)" style="fill: #d62728; opacity: 0.5; stroke: #ffffff; stroke-width: 0.3; stroke-linejoin: miter"/>
   </g>
   <g id="patch_8">
    <path d="M 66.505862 136.812 
L 73.643534 136.812 
L 73.643534 129.720904 
L 66.505862 129.720904 
z
" clip-path="url(#p2e5c8a607a)" style="fill: #d62728; opacity: 0.5; stroke: #ffffff; stroke-width: 0.3; stroke-linejoin: miter"/>
   </g>
   <g id="patch_9">
    <path d="M 73.643534 136.812 
L 80.781207 136.812 
L 80.781207 129.720904 
L 73.643534 129.720904 
z
" clip-path="url(#p2e5c8a607a)" style="fill: #d62728; opacity: 0.5; stroke: #ffffff; stroke-width: 0.3; stroke-linejoin: miter"/>
   </g>
   <g id="patch_10">
    <path d="M 80.781207 136.812 
L 87.918879 136.812 
L 87.918879 127.357205 
L 80.781207 127.357205 
z
" clip-path="url(#p2e5c8a607a)" style="fill: #d62728; opacity: 0.5; stroke: #ffffff; stroke-width: 0.3; stroke-linejoin: miter"/>
   </g>
   <g id="patch_11">
    <path d="M 87.918879 136.812 
L 95.056552 136.812 
L 95.056552 132.084602 
L 87.918879 132.084602 
z
" clip-path="url(#p2e5c8a607a)" style="fill: #d62728; opacity: 0.5; stroke: #ffffff; stroke-width: 0.3; stroke-linejoin: miter"/>
   </g>
   <g id="patch_12">
    <path d="M 95.056552 136.812 
L 102.194224 136.812 
L 102.194224 124.993506 
L 95.056552 124.993506 
z
" clip-path="url(#p2e5c8a607a)" style="fill: #d62728; opacity: 0.5; stroke: #ffffff; stroke-width: 0.3; stroke-linejoin: miter"/>
   </g>
   <g id="patch_13">
    <path d="M 102.194224 136.812 
L 109.331897 136.812 
L 109.331897 132.084602 
L 102.194224 132.084602 
z
" clip-path="url(#p2e5c8a607a)" style="fill: #d62728; opacity: 0.5; stroke: #ffffff; stroke-width: 0.3; stroke-linejoin: miter"/>
   </g>
   <g id="patch_14">
    <path d="M 109.331897 136.812 
L 116.469569 136.812 
L 116.469569 127.357205 
L 109.331897 127.357205 
z
" clip-path="url(#p2e5c8a607a)" style="fill: #d62728; opacity: 0.5; stroke: #ffffff; stroke-width: 0.3; stroke-linejoin: miter"/>
   </g>
   <g id="patch_15">
    <path d="M 116.469569 136.812 
L 123.607241 136.812 
L 123.607241 113.175012 
L 116.469569 113.175012 
z
" clip-path="url(#p2e5c8a607a)" style="fill: #d62728; opacity: 0.5; stroke: #ffffff; stroke-width: 0.3; stroke-linejoin: miter"/>
   </g>
   <g id="patch_16">
    <path d="M 123.607241 136.812 
L 130.744914 136.812 
L 130.744914 110.811313 
L 123.607241 110.811313 
z
" clip-path="url(#p2e5c8a607a)" style="fill: #d62728; opacity: 0.5; stroke: #ffffff; stroke-width: 0.3; stroke-linejoin: miter"/>
   </g>
   <g id="patch_17">
    <path d="M 130.744914 136.812 
L 137.882586 136.812 
L 137.882586 113.175012 
L 130.744914 113.175012 
z
" clip-path="url(#p2e5c8a607a)" style="fill: #d62728; opacity: 0.5; stroke: #ffffff; stroke-width: 0.3; stroke-linejoin: miter"/>
   </g>
   <g id="patch_18">
    <path d="M 137.882586 136.812 
L 145.020259 136.812 
L 145.020259 101.356518 
L 137.882586 101.356518 
z
" clip-path="url(#p2e5c8a607a)" style="fill: #d62728; opacity: 0.5; stroke: #ffffff; stroke-width: 0.3; stroke-linejoin: miter"/>
   </g>
   <g id="patch_19">
    <path d="M 145.020259 136.812 
L 152.157931 136.812 
L 152.157931 108.447615 
L 145.020259 108.447615 
z
" clip-path="url(#p2e5c8a607a)" style="fill: #d62728; opacity: 0.5; stroke: #ffffff; stroke-width: 0.3; stroke-linejoin: miter"/>
   </g>
   <g id="patch_20">
    <path d="M 152.157931 136.812 
L 159.295603 136.812 
L 159.295603 80.083229 
L 152.157931 80.083229 
z
" clip-path="url(#p2e5c8a607a)" style="fill: #d62728; opacity: 0.5; stroke: #ffffff; stroke-width: 0.3; stroke-linejoin: miter"/>
   </g>
   <g id="patch_21">
    <path d="M 159.295603 136.812 
L 166.433276 136.812 
L 166.433276 61.173639 
L 159.295603 61.173639 
z
" clip-path="url(#p2e5c8a607a)" style="fill: #d62728; opacity: 0.5; stroke: #ffffff; stroke-width: 0.3; stroke-linejoin: miter"/>
   </g>
   <g id="patch_22">
    <path d="M 166.433276 136.812 
L 173.570948 136.812 
L 173.570948 80.083229 
L 166.433276 80.083229 
z
" clip-path="url(#p2e5c8a607a)" style="fill: #d62728; opacity: 0.5; stroke: #ffffff; stroke-width: 0.3; stroke-linejoin: miter"/>
   </g>
   <g id="patch_23">
    <path d="M 173.570948 136.812 
L 180.708621 136.812 
L 180.708621 68.264735 
L 173.570948 68.264735 
z
" clip-path="url(#p2e5c8a607a)" style="fill: #d62728; opacity: 0.5; stroke: #ffffff; stroke-width: 0.3; stroke-linejoin: miter"/>
   </g>
   <g id="patch_24">
    <path d="M 180.708621 136.812 
L 187.846293 136.812 
L 187.846293 72.992133 
L 180.708621 72.992133 
z
" clip-path="url(#p2e5c8a607a)" style="fill: #d62728; opacity: 0.5; stroke: #ffffff; stroke-width: 0.3; stroke-linejoin: miter"/>
   </g>
   <g id="patch_25">
    <path d="M 187.846293 136.812 
L 194.983966 136.812 
L 194.983966 75.355832 
L 187.846293 75.355832 
z
" clip-path="url(#p2e5c8a607a)" style="fill: #d62728; opacity: 0.5; stroke: #ffffff; stroke-width: 0.3; stroke-linejoin: miter"/>
   </g>
   <g id="patch_26">
    <path d="M 194.983966 136.812 
L 202.121638 136.812 
L 202.121638 77.71953 
L 194.983966 77.71953 
z
" clip-path="url(#p2e5c8a607a)" style="fill: #d62728; opacity: 0.5; stroke: #ffffff; stroke-width: 0.3; stroke-linejoin: miter"/>
   </g>
   <g id="patch_27">
    <path d="M 202.121638 136.812 
L 209.25931 136.812 
L 209.25931 82.446928 
L 202.121638 82.446928 
z
" clip-path="url(#p2e5c8a607a)" style="fill: #d62728; opacity: 0.5; stroke: #ffffff; stroke-width: 0.3; stroke-linejoin: miter"/>
   </g>
   <g id="patch_28">
    <path d="M 209.25931 136.812 
L 216.396983 136.812 
L 216.396983 75.355832 
L 209.25931 75.355832 
z
" clip-path="url(#p2e5c8a607a)" style="fill: #d62728; opacity: 0.5; stroke: #ffffff; stroke-width: 0.3; stroke-linejoin: miter"/>
   </g>
   <g id="patch_29">
    <path d="M 216.396983 136.812 
L 223.534655 136.812 
L 223.534655 96.629121 
L 216.396983 96.629121 
z
" clip-path="url(#p2e5c8a607a)" style="fill: #d62728; opacity: 0.5; stroke: #ffffff; stroke-width: 0.3; stroke-linejoin: miter"/>
   </g>
   <g id="patch_30">
    <path d="M 223.534655 136.812 
L 230.672328 136.812 
L 230.672328 113.175012 
L 223.534655 113.175012 
z
" clip-path="url(#p2e5c8a607a)" style="fill: #d62728; opacity: 0.5; stroke: #ffffff; stroke-width: 0.3; stroke-linejoin: miter"/>
   </g>
   <g id="patch_31">
    <path d="M 230.672328 136.812 
L 237.81 136.812 
L 237.81 132.084602 
L 230.672328 132.084602 
z
" clip-path="url(#p2e5c8a607a)" style="fill: #d62728; opacity: 0.5; stroke: #ffffff; stroke-width: 0.3; stroke-linejoin: miter"/>
   </g>
   <g id="patch_32">
    <path d="M 30.8175 136.812 
L 37.955172 136.812 
L 37.955172 134.743041 
L 30.8175 134.743041 
z
" clip-path="url(#p2e5c8a607a)" style="fill: #1f77b4; opacity: 0.5; stroke: #ffffff; stroke-width: 0.3; stroke-linejoin: miter"/>
   </g>
   <g id="patch_33">
    <path d="M 37.955172 136.812 
L 45.092845 136.812 
L 45.092845 136.812 
L 37.955172 136.812 
z
" clip-path="url(#p2e5c8a607a)" style="fill: #1f77b4; opacity: 0.5; stroke: #ffffff; stroke-width: 0.3; stroke-linejoin: miter"/>
   </g>
   <g id="patch_34">
    <path d="M 45.092845 136.812 
L 52.230517 136.812 
L 52.230517 136.812 
L 45.092845 136.812 
z
" clip-path="url(#p2e5c8a607a)" style="fill: #1f77b4; opacity: 0.5; stroke: #ffffff; stroke-width: 0.3; stroke-linejoin: miter"/>
   </g>
   <g id="patch_35">
    <path d="M 52.230517 136.812 
L 59.36819 136.812 
L 59.36819 136.812 
L 52.230517 136.812 
z
" clip-path="url(#p2e5c8a607a)" style="fill: #1f77b4; opacity: 0.5; stroke: #ffffff; stroke-width: 0.3; stroke-linejoin: miter"/>
   </g>
   <g id="patch_36">
    <path d="M 59.36819 136.812 
L 66.505862 136.812 
L 66.505862 134.743041 
L 59.36819 134.743041 
z
" clip-path="url(#p2e5c8a607a)" style="fill: #1f77b4; opacity: 0.5; stroke: #ffffff; stroke-width: 0.3; stroke-linejoin: miter"/>
   </g>
   <g id="patch_37">
    <path d="M 66.505862 136.812 
L 73.643534 136.812 
L 73.643534 130.605123 
L 66.505862 130.605123 
z
" clip-path="url(#p2e5c8a607a)" style="fill: #1f77b4; opacity: 0.5; stroke: #ffffff; stroke-width: 0.3; stroke-linejoin: miter"/>
   </g>
   <g id="patch_38">
    <path d="M 73.643534 136.812 
L 80.781207 136.812 
L 80.781207 136.812 
L 73.643534 136.812 
z
" clip-path="url(#p2e5c8a607a)" style="fill: #1f77b4; opacity: 0.5; stroke: #ffffff; stroke-width: 0.3; stroke-linejoin: miter"/>
   </g>
   <g id="patch_39">
    <path d="M 80.781207 136.812 
L 87.918879 136.812 
L 87.918879 136.812 
L 80.781207 136.812 
z
" clip-path="url(#p2e5c8a607a)" style="fill: #1f77b4; opacity: 0.5; stroke: #ffffff; stroke-width: 0.3; stroke-linejoin: miter"/>
   </g>
   <g id="patch_40">
    <path d="M 87.918879 136.812 
L 95.056552 136.812 
L 95.056552 136.812 
L 87.918879 136.812 
z
" clip-path="url(#p2e5c8a607a)" style="fill: #1f77b4; opacity: 0.5; stroke: #ffffff; stroke-width: 0.3; stroke-linejoin: miter"/>
   </g>
   <g id="patch_41">
    <path d="M 95.056552 136.812 
L 102.194224 136.812 
L 102.194224 134.743041 
L 95.056552 134.743041 
z
" clip-path="url(#p2e5c8a607a)" style="fill: #1f77b4; opacity: 0.5; stroke: #ffffff; stroke-width: 0.3; stroke-linejoin: miter"/>
   </g>
   <g id="patch_42">
    <path d="M 102.194224 136.812 
L 109.331897 136.812 
L 109.331897 134.743041 
L 102.194224 134.743041 
z
" clip-path="url(#p2e5c8a607a)" style="fill: #1f77b4; opacity: 0.5; stroke: #ffffff; stroke-width: 0.3; stroke-linejoin: miter"/>
   </g>
   <g id="patch_43">
    <path d="M 109.331897 136.812 
L 116.469569 136.812 
L 116.469569 134.743041 
L 109.331897 134.743041 
z
" clip-path="url(#p2e5c8a607a)" style="fill: #1f77b4; opacity: 0.5; stroke: #ffffff; stroke-width: 0.3; stroke-linejoin: miter"/>
   </g>
   <g id="patch_44">
    <path d="M 116.469569 136.812 
L 123.607241 136.812 
L 123.607241 136.812 
L 116.469569 136.812 
z
" clip-path="url(#p2e5c8a607a)" style="fill: #1f77b4; opacity: 0.5; stroke: #ffffff; stroke-width: 0.3; stroke-linejoin: miter"/>
   </g>
   <g id="patch_45">
    <path d="M 123.607241 136.812 
L 130.744914 136.812 
L 130.744914 124.398247 
L 123.607241 124.398247 
z
" clip-path="url(#p2e5c8a607a)" style="fill: #1f77b4; opacity: 0.5; stroke: #ffffff; stroke-width: 0.3; stroke-linejoin: miter"/>
   </g>
   <g id="patch_46">
    <path d="M 130.744914 136.812 
L 137.882586 136.812 
L 137.882586 126.467206 
L 130.744914 126.467206 
z
" clip-path="url(#p2e5c8a607a)" style="fill: #1f77b4; opacity: 0.5; stroke: #ffffff; stroke-width: 0.3; stroke-linejoin: miter"/>
   </g>
   <g id="patch_47">
    <path d="M 137.882586 136.812 
L 145.020259 136.812 
L 145.020259 114.053453 
L 137.882586 114.053453 
z
" clip-path="url(#p2e5c8a607a)" style="fill: #1f77b4; opacity: 0.5; stroke: #ffffff; stroke-width: 0.3; stroke-linejoin: miter"/>
   </g>
   <g id="patch_48">
    <path d="M 145.020259 136.812 
L 152.157931 136.812 
L 152.157931 118.19137 
L 145.020259 118.19137 
z
" clip-path="url(#p2e5c8a607a)" style="fill: #1f77b4; opacity: 0.5; stroke: #ffffff; stroke-width: 0.3; stroke-linejoin: miter"/>
   </g>
   <g id="patch_49">
    <path d="M 152.157931 136.812 
L 159.295603 136.812 
L 159.295603 120.260329 
L 152.157931 120.260329 
z
" clip-path="url(#p2e5c8a607a)" style="fill: #1f77b4; opacity: 0.5; stroke: #ffffff; stroke-width: 0.3; stroke-linejoin: miter"/>
   </g>
   <g id="patch_50">
    <path d="M 159.295603 136.812 
L 166.433276 136.812 
L 166.433276 103.708659 
L 159.295603 103.708659 
z
" clip-path="url(#p2e5c8a607a)" style="fill: #1f77b4; opacity: 0.5; stroke: #ffffff; stroke-width: 0.3; stroke-linejoin: miter"/>
   </g>
   <g id="patch_51">
    <path d="M 166.433276 136.812 
L 173.570948 136.812 
L 173.570948 87.156988 
L 166.433276 87.156988 
z
" clip-path="url(#p2e5c8a607a)" style="fill: #1f77b4; opacity: 0.5; stroke: #ffffff; stroke-width: 0.3; stroke-linejoin: miter"/>
   </g>
   <g id="patch_52">
    <path d="M 173.570948 136.812 
L 180.708621 136.812 
L 180.708621 80.950111 
L 173.570948 80.950111 
z
" clip-path="url(#p2e5c8a607a)" style="fill: #1f77b4; opacity: 0.5; stroke: #ffffff; stroke-width: 0.3; stroke-linejoin: miter"/>
   </g>
   <g id="patch_53">
    <path d="M 180.708621 136.812 
L 187.846293 136.812 
L 187.846293 76.812194 
L 180.708621 76.812194 
z
" clip-path="url(#p2e5c8a607a)" style="fill: #1f77b4; opacity: 0.5; stroke: #ffffff; stroke-width: 0.3; stroke-linejoin: miter"/>
   </g>
   <g id="patch_54">
    <path d="M 187.846293 136.812 
L 194.983966 136.812 
L 194.983966 49.915729 
L 187.846293 49.915729 
z
" clip-path="url(#p2e5c8a607a)" style="fill: #1f77b4; opacity: 0.5; stroke: #ffffff; stroke-width: 0.3; stroke-linejoin: miter"/>
   </g>
   <g id="patch_55">
    <path d="M 194.983966 136.812 
L 202.121638 136.812 
L 202.121638 39.570935 
L 194.983966 39.570935 
z
" clip-path="url(#p2e5c8a607a)" style="fill: #1f77b4; opacity: 0.5; stroke: #ffffff; stroke-width: 0.3; stroke-linejoin: miter"/>
   </g>
   <g id="patch_56">
    <path d="M 202.121638 136.812 
L 209.25931 136.812 
L 209.25931 76.812194 
L 202.121638 76.812194 
z
" clip-path="url(#p2e5c8a607a)" style="fill: #1f77b4; opacity: 0.5; stroke: #ffffff; stroke-width: 0.3; stroke-linejoin: miter"/>
   </g>
   <g id="patch_57">
    <path d="M 209.25931 136.812 
L 216.396983 136.812 
L 216.396983 14.743429 
L 209.25931 14.743429 
z
" clip-path="url(#p2e5c8a607a)" style="fill: #1f77b4; opacity: 0.5; stroke: #ffffff; stroke-width: 0.3; stroke-linejoin: miter"/>
   </g>
   <g id="patch_58">
    <path d="M 216.396983 136.812 
L 223.534655 136.812 
L 223.534655 39.570935 
L 216.396983 39.570935 
z
" clip-path="url(#p2e5c8a607a)" style="fill: #1f77b4; opacity: 0.5; stroke: #ffffff; stroke-width: 0.3; stroke-linejoin: miter"/>
   </g>
   <g id="patch_59">
    <path d="M 223.534655 136.812 
L 230.672328 136.812 
L 230.672328 62.329482 
L 223.534655 62.329482 
z
" clip-path="url(#p2e5c8a607a)" style="fill: #1f77b4; opacity: 0.5; stroke: #ffffff; stroke-width: 0.3; stroke-linejoin: miter"/>
   </g>
   <g id="patch_60">
    <path d="M 230.672328 136.812 
L 237.81 136.812 
L 237.81 124.398247 
L 230.672328 124.398247 
z
" clip-path="url(#p2e5c8a607a)" style="fill: #1f77b4; opacity: 0.5; stroke: #ffffff; stroke-width: 0.3; stroke-linejoin: miter"/>
   </g>
   <g id="patch_61">
    <path d="M 30.8175 136.812 
L 37.955172 136.812 
L 37.955172 128.088246 
L 30.8175 128.088246 
z
" clip-path="url(#p2e5c8a607a)" style="fill: #2ca02c; opacity: 0.5; stroke: #ffffff; stroke-width: 0.3; stroke-linejoin: miter"/>
   </g>
   <g id="patch_62">
    <path d="M 37.955172 136.812 
L 45.092845 136.812 
L 45.092845 130.580747 
L 37.955172 130.580747 
z
" clip-path="url(#p2e5c8a607a)" style="fill: #2ca02c; opacity: 0.5; stroke: #ffffff; stroke-width: 0.3; stroke-linejoin: miter"/>
   </g>
   <g id="patch_63">
    <path d="M 45.092845 136.812 
L 52.230517 136.812 
L 52.230517 126.841995 
L 45.092845 126.841995 
z
" clip-path="url(#p2e5c8a607a)" style="fill: #2ca02c; opacity: 0.5; stroke: #ffffff; stroke-width: 0.3; stroke-linejoin: miter"/>
   </g>
   <g id="patch_64">
    <path d="M 52.230517 136.812 
L 59.36819 136.812 
L 59.36819 126.841995 
L 52.230517 126.841995 
z
" clip-path="url(#p2e5c8a607a)" style="fill: #2ca02c; opacity: 0.5; stroke: #ffffff; stroke-width: 0.3; stroke-linejoin: miter"/>
   </g>
   <g id="patch_65">
    <path d="M 59.36819 136.812 
L 66.505862 136.812 
L 66.505862 126.841995 
L 59.36819 126.841995 
z
" clip-path="url(#p2e5c8a607a)" style="fill: #2ca02c; opacity: 0.5; stroke: #ffffff; stroke-width: 0.3; stroke-linejoin: miter"/>
   </g>
   <g id="patch_66">
    <path d="M 66.505862 136.812 
L 73.643534 136.812 
L 73.643534 128.088246 
L 66.505862 128.088246 
z
" clip-path="url(#p2e5c8a607a)" style="fill: #2ca02c; opacity: 0.5; stroke: #ffffff; stroke-width: 0.3; stroke-linejoin: miter"/>
   </g>
   <g id="patch_67">
    <path d="M 73.643534 136.812 
L 80.781207 136.812 
L 80.781207 129.334496 
L 73.643534 129.334496 
z
" clip-path="url(#p2e5c8a607a)" style="fill: #2ca02c; opacity: 0.5; stroke: #ffffff; stroke-width: 0.3; stroke-linejoin: miter"/>
   </g>
   <g id="patch_68">
    <path d="M 80.781207 136.812 
L 87.918879 136.812 
L 87.918879 129.334496 
L 80.781207 129.334496 
z
" clip-path="url(#p2e5c8a607a)" style="fill: #2ca02c; opacity: 0.5; stroke: #ffffff; stroke-width: 0.3; stroke-linejoin: miter"/>
   </g>
   <g id="patch_69">
    <path d="M 87.918879 136.812 
L 95.056552 136.812 
L 95.056552 128.088246 
L 87.918879 128.088246 
z
" clip-path="url(#p2e5c8a607a)" style="fill: #2ca02c; opacity: 0.5; stroke: #ffffff; stroke-width: 0.3; stroke-linejoin: miter"/>
   </g>
   <g id="patch_70">
    <path d="M 95.056552 136.812 
L 102.194224 136.812 
L 102.194224 131.826998 
L 95.056552 131.826998 
z
" clip-path="url(#p2e5c8a607a)" style="fill: #2ca02c; opacity: 0.5; stroke: #ffffff; stroke-width: 0.3; stroke-linejoin: miter"/>
   </g>
   <g id="patch_71">
    <path d="M 102.194224 136.812 
L 109.331897 136.812 
L 109.331897 134.319499 
L 102.194224 134.319499 
z
" clip-path="url(#p2e5c8a607a)" style="fill: #2ca02c; opacity: 0.5; stroke: #ffffff; stroke-width: 0.3; stroke-linejoin: miter"/>
   </g>
   <g id="patch_72">
    <path d="M 109.331897 136.812 
L 116.469569 136.812 
L 116.469569 128.088246 
L 109.331897 128.088246 
z
" clip-path="url(#p2e5c8a607a)" style="fill: #2ca02c; opacity: 0.5; stroke: #ffffff; stroke-width: 0.3; stroke-linejoin: miter"/>
   </g>
   <g id="patch_73">
    <path d="M 116.469569 136.812 
L 123.607241 136.812 
L 123.607241 126.841995 
L 116.469569 126.841995 
z
" clip-path="url(#p2e5c8a607a)" style="fill: #2ca02c; opacity: 0.5; stroke: #ffffff; stroke-width: 0.3; stroke-linejoin: miter"/>
   </g>
   <g id="patch_74">
    <path d="M 123.607241 136.812 
L 130.744914 136.812 
L 130.744914 130.580747 
L 123.607241 130.580747 
z
" clip-path="url(#p2e5c8a607a)" style="fill: #2ca02c; opacity: 0.5; stroke: #ffffff; stroke-width: 0.3; stroke-linejoin: miter"/>
   </g>
   <g id="patch_75">
    <path d="M 130.744914 136.812 
L 137.882586 136.812 
L 137.882586 128.088246 
L 130.744914 128.088246 
z
" clip-path="url(#p2e5c8a607a)" style="fill: #2ca02c; opacity: 0.5; stroke: #ffffff; stroke-width: 0.3; stroke-linejoin: miter"/>
   </g>
   <g id="patch_76">
    <path d="M 137.882586 136.812 
L 145.020259 136.812 
L 145.020259 133.073248 
L 137.882586 133.073248 
z
" clip-path="url(#p2e5c8a607a)" style="fill: #2ca02c; opacity: 0.5; stroke: #ffffff; stroke-width: 0.3; stroke-linejoin: miter"/>
   </g>
   <g id="patch_77">
    <path d="M 145.020259 136.812 
L 152.157931 136.812 
L 152.157931 119.364491 
L 145.020259 119.364491 
z
" clip-path="url(#p2e5c8a607a)" style="fill: #2ca02c; opacity: 0.5; stroke: #ffffff; stroke-width: 0.3; stroke-linejoin: miter"/>
   </g>
   <g id="patch_78">
    <path d="M 152.157931 136.812 
L 159.295603 136.812 
L 159.295603 114.379489 
L 152.157931 114.379489 
z
" clip-path="url(#p2e5c8a607a)" style="fill: #2ca02c; opacity: 0.5; stroke: #ffffff; stroke-width: 0.3; stroke-linejoin: miter"/>
   </g>
   <g id="patch_79">
    <path d="M 159.295603 136.812 
L 166.433276 136.812 
L 166.433276 103.163234 
L 159.295603 103.163234 
z
" clip-path="url(#p2e5c8a607a)" style="fill: #2ca02c; opacity: 0.5; stroke: #ffffff; stroke-width: 0.3; stroke-linejoin: miter"/>
   </g>
   <g id="patch_80">
    <path d="M 166.433276 136.812 
L 173.570948 136.812 
L 173.570948 81.976973 
L 166.433276 81.976973 
z
" clip-path="url(#p2e5c8a607a)" style="fill: #2ca02c; opacity: 0.5; stroke: #ffffff; stroke-width: 0.3; stroke-linejoin: miter"/>
   </g>
   <g id="patch_81">
    <path d="M 173.570948 136.812 
L 180.708621 136.812 
L 180.708621 67.021966 
L 173.570948 67.021966 
z
" clip-path="url(#p2e5c8a607a)" style="fill: #2ca02c; opacity: 0.5; stroke: #ffffff; stroke-width: 0.3; stroke-linejoin: miter"/>
   </g>
   <g id="patch_82">
    <path d="M 180.708621 136.812 
L 187.846293 136.812 
L 187.846293 75.74572 
L 180.708621 75.74572 
z
" clip-path="url(#p2e5c8a607a)" style="fill: #2ca02c; opacity: 0.5; stroke: #ffffff; stroke-width: 0.3; stroke-linejoin: miter"/>
   </g>
   <g id="patch_83">
    <path d="M 187.846293 136.812 
L 194.983966 136.812 
L 194.983966 50.820708 
L 187.846293 50.820708 
z
" clip-path="url(#p2e5c8a607a)" style="fill: #2ca02c; opacity: 0.5; stroke: #ffffff; stroke-width: 0.3; stroke-linejoin: miter"/>
   </g>
   <g id="patch_84">
    <path d="M 194.983966 136.812 
L 202.121638 136.812 
L 202.121638 53.313209 
L 194.983966 53.313209 
z
" clip-path="url(#p2e5c8a607a)" style="fill: #2ca02c; opacity: 0.5; stroke: #ffffff; stroke-width: 0.3; stroke-linejoin: miter"/>
   </g>
   <g id="patch_85">
    <path d="M 202.121638 136.812 
L 209.25931 136.812 
L 209.25931 67.021966 
L 202.121638 67.021966 
z
" clip-path="url(#p2e5c8a607a)" style="fill: #2ca02c; opacity: 0.5; stroke: #ffffff; stroke-width: 0.3; stroke-linejoin: miter"/>
   </g>
   <g id="patch_86">
    <path d="M 209.25931 136.812 
L 216.396983 136.812 
L 216.396983 69.514467 
L 209.25931 69.514467 
z
" clip-path="url(#p2e5c8a607a)" style="fill: #2ca02c; opacity: 0.5; stroke: #ffffff; stroke-width: 0.3; stroke-linejoin: miter"/>
   </g>
   <g id="patch_87">
    <path d="M 216.396983 136.812 
L 223.534655 136.812 
L 223.534655 48.328207 
L 216.396983 48.328207 
z
" clip-path="url(#p2e5c8a607a)" style="fill: #2ca02c; opacity: 0.5; stroke: #ffffff; stroke-width: 0.3; stroke-linejoin: miter"/>
   </g>
   <g id="patch_88">
    <path d="M 223.534655 136.812 
L 230.672328 136.812 
L 230.672328 84.469474 
L 223.534655 84.469474 
z
" clip-path="url(#p2e5c8a607a)" style="fill: #2ca02c; opacity: 0.5; stroke: #ffffff; stroke-width: 0.3; stroke-linejoin: miter"/>
   </g>
   <g id="patch_89">
    <path d="M 230.672328 136.812 
L 237.81 136.812 
L 237.81 119.364491 
L 230.672328 119.364491 
z
" clip-path="url(#p2e5c8a607a)" style="fill: #2ca02c; opacity: 0.5; stroke: #ffffff; stroke-width: 0.3; stroke-linejoin: miter"/>
   </g>
   <g id="matplotlib.axis_1">
    <g id="xtick_1">
     <g id="line2d_1">
      <defs>
       <path id="mdf81410a31" d="M 0 0 
L 0 3 
" style="stroke: #000000; stroke-width: 0.6"/>
      </defs>
      <g>
       <use xlink:href="#mdf81410a31" x="30.8175" y="136.812" style="stroke: #000000; stroke-width: 0.6"/>
      </g>
     </g>
     <g id="text_1">
      <!-- 0.0 -->
      <g transform="translate(25.2575 149.03825) scale(0.08 -0.08)">
       <defs>
        <path id="ArialMT-30" d="M 266 2259 
Q 266 3072 433 3567 
Q 600 4063 929 4331 
Q 1259 4600 1759 4600 
Q 2128 4600 2406 4451 
Q 2684 4303 2865 4023 
Q 3047 3744 3150 3342 
Q 3253 2941 3253 2259 
Q 3253 1453 3087 958 
Q 2922 463 2592 192 
Q 2263 -78 1759 -78 
Q 1097 -78 719 397 
Q 266 969 266 2259 
z
M 844 2259 
Q 844 1131 1108 757 
Q 1372 384 1759 384 
Q 2147 384 2411 759 
Q 2675 1134 2675 2259 
Q 2675 3391 2411 3762 
Q 2147 4134 1753 4134 
Q 1366 4134 1134 3806 
Q 844 3388 844 2259 
z
" transform="scale(0.015625)"/>
        <path id="ArialMT-2e" d="M 581 0 
L 581 641 
L 1222 641 
L 1222 0 
L 581 0 
z
" transform="scale(0.015625)"/>
       </defs>
       <use xlink:href="#ArialMT-30"/>
       <use xlink:href="#ArialMT-2e" transform="translate(55.615234 0)"/>
       <use xlink:href="#ArialMT-30" transform="translate(83.398438 0)"/>
      </g>
     </g>
    </g>
    <g id="xtick_2">
     <g id="line2d_2">
      <g>
       <use xlink:href="#mdf81410a31" x="72.216" y="136.812" style="stroke: #000000; stroke-width: 0.6"/>
      </g>
     </g>
     <g id="text_2">
      <!-- 0.2 -->
      <g transform="translate(66.656 149.03825) scale(0.08 -0.08)">
       <defs>
        <path id="ArialMT-32" d="M 3222 541 
L 3222 0 
L 194 0 
Q 188 203 259 391 
Q 375 700 629 1000 
Q 884 1300 1366 1694 
Q 2113 2306 2375 2664 
Q 2638 3022 2638 3341 
Q 2638 3675 2398 3904 
Q 2159 4134 1775 4134 
Q 1369 4134 1125 3890 
Q 881 3647 878 3216 
L 300 3275 
Q 359 3922 746 4261 
Q 1134 4600 1788 4600 
Q 2447 4600 2831 4234 
Q 3216 3869 3216 3328 
Q 3216 3053 3103 2787 
Q 2991 2522 2730 2228 
Q 2469 1934 1863 1422 
Q 1356 997 1212 845 
Q 1069 694 975 541 
L 3222 541 
z
" transform="scale(0.015625)"/>
       </defs>
       <use xlink:href="#ArialMT-30"/>
       <use xlink:href="#ArialMT-2e" transform="translate(55.615234 0)"/>
       <use xlink:href="#ArialMT-32" transform="translate(83.398438 0)"/>
      </g>
     </g>
    </g>
    <g id="xtick_3">
     <g id="line2d_3">
      <g>
       <use xlink:href="#mdf81410a31" x="113.6145" y="136.812" style="stroke: #000000; stroke-width: 0.6"/>
      </g>
     </g>
     <g id="text_3">
      <!-- 0.4 -->
      <g transform="translate(108.0545 149.03825) scale(0.08 -0.08)">
       <defs>
        <path id="ArialMT-34" d="M 2069 0 
L 2069 1097 
L 81 1097 
L 81 1613 
L 2172 4581 
L 2631 4581 
L 2631 1613 
L 3250 1613 
L 3250 1097 
L 2631 1097 
L 2631 0 
L 2069 0 
z
M 2069 1613 
L 2069 3678 
L 634 1613 
L 2069 1613 
z
" transform="scale(0.015625)"/>
       </defs>
       <use xlink:href="#ArialMT-30"/>
       <use xlink:href="#ArialMT-2e" transform="translate(55.615234 0)"/>
       <use xlink:href="#ArialMT-34" transform="translate(83.398438 0)"/>
      </g>
     </g>
    </g>
    <g id="xtick_4">
     <g id="line2d_4">
      <g>
       <use xlink:href="#mdf81410a31" x="155.013" y="136.812" style="stroke: #000000; stroke-width: 0.6"/>
      </g>
     </g>
     <g id="text_4">
      <!-- 0.6 -->
      <g transform="translate(149.453 149.03825) scale(0.08 -0.08)">
       <defs>
        <path id="ArialMT-36" d="M 3184 3459 
L 2625 3416 
Q 2550 3747 2413 3897 
Q 2184 4138 1850 4138 
Q 1581 4138 1378 3988 
Q 1113 3794 959 3422 
Q 806 3050 800 2363 
Q 1003 2672 1297 2822 
Q 1591 2972 1913 2972 
Q 2475 2972 2870 2558 
Q 3266 2144 3266 1488 
Q 3266 1056 3080 686 
Q 2894 316 2569 119 
Q 2244 -78 1831 -78 
Q 1128 -78 684 439 
Q 241 956 241 2144 
Q 241 3472 731 4075 
Q 1159 4600 1884 4600 
Q 2425 4600 2770 4297 
Q 3116 3994 3184 3459 
z
M 888 1484 
Q 888 1194 1011 928 
Q 1134 663 1356 523 
Q 1578 384 1822 384 
Q 2178 384 2434 671 
Q 2691 959 2691 1453 
Q 2691 1928 2437 2201 
Q 2184 2475 1800 2475 
Q 1419 2475 1153 2201 
Q 888 1928 888 1484 
z
" transform="scale(0.015625)"/>
       </defs>
       <use xlink:href="#ArialMT-30"/>
       <use xlink:href="#ArialMT-2e" transform="translate(55.615234 0)"/>
       <use xlink:href="#ArialMT-36" transform="translate(83.398438 0)"/>
      </g>
     </g>
    </g>
    <g id="xtick_5">
     <g id="line2d_5">
      <g>
       <use xlink:href="#mdf81410a31" x="196.4115" y="136.812" style="stroke: #000000; stroke-width: 0.6"/>
      </g>
     </g>
     <g id="text_5">
      <!-- 0.8 -->
      <g transform="translate(190.8515 149.03825) scale(0.08 -0.08)">
       <defs>
        <path id="ArialMT-38" d="M 1131 2484 
Q 781 2613 612 2850 
Q 444 3088 444 3419 
Q 444 3919 803 4259 
Q 1163 4600 1759 4600 
Q 2359 4600 2725 4251 
Q 3091 3903 3091 3403 
Q 3091 3084 2923 2848 
Q 2756 2613 2416 2484 
Q 2838 2347 3058 2040 
Q 3278 1734 3278 1309 
Q 3278 722 2862 322 
Q 2447 -78 1769 -78 
Q 1091 -78 675 323 
Q 259 725 259 1325 
Q 259 1772 486 2073 
Q 713 2375 1131 2484 
z
M 1019 3438 
Q 1019 3113 1228 2906 
Q 1438 2700 1772 2700 
Q 2097 2700 2305 2904 
Q 2513 3109 2513 3406 
Q 2513 3716 2298 3927 
Q 2084 4138 1766 4138 
Q 1444 4138 1231 3931 
Q 1019 3725 1019 3438 
z
M 838 1322 
Q 838 1081 952 856 
Q 1066 631 1291 507 
Q 1516 384 1775 384 
Q 2178 384 2440 643 
Q 2703 903 2703 1303 
Q 2703 1709 2433 1975 
Q 2163 2241 1756 2241 
Q 1359 2241 1098 1978 
Q 838 1716 838 1322 
z
" transform="scale(0.015625)"/>
       </defs>
       <use xlink:href="#ArialMT-30"/>
       <use xlink:href="#ArialMT-2e" transform="translate(55.615234 0)"/>
       <use xlink:href="#ArialMT-38" transform="translate(83.398438 0)"/>
      </g>
     </g>
    </g>
    <g id="xtick_6">
     <g id="line2d_6">
      <g>
       <use xlink:href="#mdf81410a31" x="237.81" y="136.812" style="stroke: #000000; stroke-width: 0.6"/>
      </g>
     </g>
     <g id="text_6">
      <!-- 1.0 -->
      <g transform="translate(232.25 149.03825) scale(0.08 -0.08)">
       <defs>
        <path id="ArialMT-31" d="M 2384 0 
L 1822 0 
L 1822 3584 
Q 1619 3391 1289 3197 
Q 959 3003 697 2906 
L 697 3450 
Q 1169 3672 1522 3987 
Q 1875 4303 2022 4600 
L 2384 4600 
L 2384 0 
z
" transform="scale(0.015625)"/>
       </defs>
       <use xlink:href="#ArialMT-31"/>
       <use xlink:href="#ArialMT-2e" transform="translate(55.615234 0)"/>
       <use xlink:href="#ArialMT-30" transform="translate(83.398438 0)"/>
      </g>
     </g>
    </g>
    <g id="text_7">
     <!-- $R^{2}$ of d$^{2}$-law fit -->
     <g transform="translate(108.07375 160.47825) scale(0.08 -0.08)">
      <defs>
       <path id="DejaVuSans-Oblique-52" d="M 1613 4147 
L 1294 2491 
L 2106 2491 
Q 2584 2491 2879 2755 
Q 3175 3019 3175 3444 
Q 3175 3784 2976 3965 
Q 2778 4147 2406 4147 
L 1613 4147 
z
M 2772 2241 
Q 2972 2194 3105 2009 
Q 3238 1825 3413 1275 
L 3809 0 
L 3144 0 
L 2778 1197 
Q 2638 1659 2453 1815 
Q 2269 1972 1888 1972 
L 1191 1972 
L 806 0 
L 172 0 
L 1081 4666 
L 2503 4666 
Q 3150 4666 3495 4373 
Q 3841 4081 3841 3531 
Q 3841 3044 3547 2687 
Q 3253 2331 2772 2241 
z
" transform="scale(0.015625)"/>
       <path id="DejaVuSans-32" d="M 1228 531 
L 3431 531 
L 3431 0 
L 469 0 
L 469 531 
Q 828 903 1448 1529 
Q 2069 2156 2228 2338 
Q 2531 2678 2651 2914 
Q 2772 3150 2772 3378 
Q 2772 3750 2511 3984 
Q 2250 4219 1831 4219 
Q 1534 4219 1204 4116 
Q 875 4013 500 3803 
L 500 4441 
Q 881 4594 1212 4672 
Q 1544 4750 1819 4750 
Q 2544 4750 2975 4387 
Q 3406 4025 3406 3419 
Q 3406 3131 3298 2873 
Q 3191 2616 2906 2266 
Q 2828 2175 2409 1742 
Q 1991 1309 1228 531 
z
" transform="scale(0.015625)"/>
       <path id="ArialMT-20" transform="scale(0.015625)"/>
       <path id="ArialMT-6f" d="M 213 1659 
Q 213 2581 725 3025 
Q 1153 3394 1769 3394 
Q 2453 3394 2887 2945 
Q 3322 2497 3322 1706 
Q 3322 1066 3130 698 
Q 2938 331 2570 128 
Q 2203 -75 1769 -75 
Q 1072 -75 642 372 
Q 213 819 213 1659 
z
M 791 1659 
Q 791 1022 1069 705 
Q 1347 388 1769 388 
Q 2188 388 2466 706 
Q 2744 1025 2744 1678 
Q 2744 2294 2464 2611 
Q 2184 2928 1769 2928 
Q 1347 2928 1069 2612 
Q 791 2297 791 1659 
z
" transform="scale(0.015625)"/>
       <path id="ArialMT-66" d="M 556 0 
L 556 2881 
L 59 2881 
L 59 3319 
L 556 3319 
L 556 3672 
Q 556 4006 616 4169 
Q 697 4388 901 4523 
Q 1106 4659 1475 4659 
Q 1713 4659 2000 4603 
L 1916 4113 
Q 1741 4144 1584 4144 
Q 1328 4144 1222 4034 
Q 1116 3925 1116 3625 
L 1116 3319 
L 1763 3319 
L 1763 2881 
L 1116 2881 
L 1116 0 
L 556 0 
z
" transform="scale(0.015625)"/>
       <path id="ArialMT-64" d="M 2575 0 
L 2575 419 
Q 2259 -75 1647 -75 
Q 1250 -75 917 144 
Q 584 363 401 755 
Q 219 1147 219 1656 
Q 219 2153 384 2558 
Q 550 2963 881 3178 
Q 1213 3394 1622 3394 
Q 1922 3394 2156 3267 
Q 2391 3141 2538 2938 
L 2538 4581 
L 3097 4581 
L 3097 0 
L 2575 0 
z
M 797 1656 
Q 797 1019 1065 703 
Q 1334 388 1700 388 
Q 2069 388 2326 689 
Q 2584 991 2584 1609 
Q 2584 2291 2321 2609 
Q 2059 2928 1675 2928 
Q 1300 2928 1048 2622 
Q 797 2316 797 1656 
z
" transform="scale(0.015625)"/>
       <path id="ArialMT-2d" d="M 203 1375 
L 203 1941 
L 1931 1941 
L 1931 1375 
L 203 1375 
z
" transform="scale(0.015625)"/>
       <path id="ArialMT-6c" d="M 409 0 
L 409 4581 
L 972 4581 
L 972 0 
L 409 0 
z
" transform="scale(0.015625)"/>
       <path id="ArialMT-61" d="M 2588 409 
Q 2275 144 1986 34 
Q 1697 -75 1366 -75 
Q 819 -75 525 192 
Q 231 459 231 875 
Q 231 1119 342 1320 
Q 453 1522 633 1644 
Q 813 1766 1038 1828 
Q 1203 1872 1538 1913 
Q 2219 1994 2541 2106 
Q 2544 2222 2544 2253 
Q 2544 2597 2384 2738 
Q 2169 2928 1744 2928 
Q 1347 2928 1158 2789 
Q 969 2650 878 2297 
L 328 2372 
Q 403 2725 575 2942 
Q 747 3159 1072 3276 
Q 1397 3394 1825 3394 
Q 2250 3394 2515 3294 
Q 2781 3194 2906 3042 
Q 3031 2891 3081 2659 
Q 3109 2516 3109 2141 
L 3109 1391 
Q 3109 606 3145 398 
Q 3181 191 3288 0 
L 2700 0 
Q 2613 175 2588 409 
z
M 2541 1666 
Q 2234 1541 1622 1453 
Q 1275 1403 1131 1340 
Q 988 1278 909 1158 
Q 831 1038 831 891 
Q 831 666 1001 516 
Q 1172 366 1500 366 
Q 1825 366 2078 508 
Q 2331 650 2450 897 
Q 2541 1088 2541 1459 
L 2541 1666 
z
" transform="scale(0.015625)"/>
       <path id="ArialMT-77" d="M 1034 0 
L 19 3319 
L 600 3319 
L 1128 1403 
L 1325 691 
Q 1338 744 1497 1375 
L 2025 3319 
L 2603 3319 
L 3100 1394 
L 3266 759 
L 3456 1400 
L 4025 3319 
L 4572 3319 
L 3534 0 
L 2950 0 
L 2422 1988 
L 2294 2553 
L 1622 0 
L 1034 0 
z
" transform="scale(0.015625)"/>
       <path id="ArialMT-69" d="M 425 3934 
L 425 4581 
L 988 4581 
L 988 3934 
L 425 3934 
z
M 425 0 
L 425 3319 
L 988 3319 
L 988 0 
L 425 0 
z
" transform="scale(0.015625)"/>
       <path id="ArialMT-74" d="M 1650 503 
L 1731 6 
Q 1494 -44 1306 -44 
Q 1000 -44 831 53 
Q 663 150 594 308 
Q 525 466 525 972 
L 525 2881 
L 113 2881 
L 113 3319 
L 525 3319 
L 525 4141 
L 1084 4478 
L 1084 3319 
L 1650 3319 
L 1650 2881 
L 1084 2881 
L 1084 941 
Q 1084 700 1114 631 
Q 1144 563 1211 522 
Q 1278 481 1403 481 
Q 1497 481 1650 503 
z
" transform="scale(0.015625)"/>
      </defs>
      <use xlink:href="#DejaVuSans-Oblique-52" transform="translate(0 0.765625)"/>
      <use xlink:href="#DejaVuSans-32" transform="translate(76.499193 39.046875) scale(0.7)"/>
      <use xlink:href="#ArialMT-20" transform="translate(123.769701 0.765625)"/>
      <use xlink:href="#ArialMT-6f" transform="translate(151.552904 0.765625)"/>
      <use xlink:href="#ArialMT-66" transform="translate(207.168138 0.765625)"/>
      <use xlink:href="#ArialMT-20" transform="translate(234.951341 0.765625)"/>
      <use xlink:href="#ArialMT-64" transform="translate(262.734544 0.765625)"/>
      <use xlink:href="#DejaVuSans-32" transform="translate(319.30681 39.046875) scale(0.7)"/>
      <use xlink:href="#ArialMT-2d" transform="translate(366.577318 0.765625)"/>
      <use xlink:href="#ArialMT-6c" transform="translate(399.878099 0.765625)"/>
      <use xlink:href="#ArialMT-61" transform="translate(422.094896 0.765625)"/>
      <use xlink:href="#ArialMT-77" transform="translate(477.71013 0.765625)"/>
      <use xlink:href="#ArialMT-20" transform="translate(549.926927 0.765625)"/>
      <use xlink:href="#ArialMT-66" transform="translate(577.71013 0.765625)"/>
      <use xlink:href="#ArialMT-69" transform="translate(605.493333 0.765625)"/>
      <use xlink:href="#ArialMT-74" transform="translate(627.71013 0.765625)"/>
     </g>
    </g>
   </g>
   <g id="matplotlib.axis_2">
    <g id="ytick_1">
     <g id="line2d_7">
      <defs>
       <path id="m1580ebb866" d="M 0 0 
L -3 0 
" style="stroke: #000000; stroke-width: 0.6"/>
      </defs>
      <g>
       <use xlink:href="#m1580ebb866" x="30.8175" y="136.812" style="stroke: #000000; stroke-width: 0.6"/>
      </g>
     </g>
     <g id="text_8">
      <!-- 0 -->
      <g transform="translate(19.86875 139.675125) scale(0.08 -0.08)">
       <use xlink:href="#ArialMT-30"/>
      </g>
     </g>
    </g>
    <g id="ytick_2">
     <g id="line2d_8">
      <g>
       <use xlink:href="#m1580ebb866" x="30.8175" y="107.632546" style="stroke: #000000; stroke-width: 0.6"/>
      </g>
     </g>
     <g id="text_9">
      <!-- 1 -->
      <g transform="translate(19.86875 110.495671) scale(0.08 -0.08)">
       <use xlink:href="#ArialMT-31"/>
      </g>
     </g>
    </g>
    <g id="ytick_3">
     <g id="line2d_9">
      <g>
       <use xlink:href="#m1580ebb866" x="30.8175" y="78.453092" style="stroke: #000000; stroke-width: 0.6"/>
      </g>
     </g>
     <g id="text_10">
      <!-- 2 -->
      <g transform="translate(19.86875 81.316217) scale(0.08 -0.08)">
       <use xlink:href="#ArialMT-32"/>
      </g>
     </g>
    </g>
    <g id="ytick_4">
     <g id="line2d_10">
      <g>
       <use xlink:href="#m1580ebb866" x="30.8175" y="49.273638" style="stroke: #000000; stroke-width: 0.6"/>
      </g>
     </g>
     <g id="text_11">
      <!-- 3 -->
      <g transform="translate(19.86875 52.136763) scale(0.08 -0.08)">
       <defs>
        <path id="ArialMT-33" d="M 269 1209 
L 831 1284 
Q 928 806 1161 595 
Q 1394 384 1728 384 
Q 2125 384 2398 659 
Q 2672 934 2672 1341 
Q 2672 1728 2419 1979 
Q 2166 2231 1775 2231 
Q 1616 2231 1378 2169 
L 1441 2663 
Q 1497 2656 1531 2656 
Q 1891 2656 2178 2843 
Q 2466 3031 2466 3422 
Q 2466 3731 2256 3934 
Q 2047 4138 1716 4138 
Q 1388 4138 1169 3931 
Q 950 3725 888 3313 
L 325 3413 
Q 428 3978 793 4289 
Q 1159 4600 1703 4600 
Q 2078 4600 2393 4439 
Q 2709 4278 2876 4000 
Q 3044 3722 3044 3409 
Q 3044 3113 2884 2869 
Q 2725 2625 2413 2481 
Q 2819 2388 3044 2092 
Q 3269 1797 3269 1353 
Q 3269 753 2831 336 
Q 2394 -81 1725 -81 
Q 1122 -81 723 278 
Q 325 638 269 1209 
z
" transform="scale(0.015625)"/>
       </defs>
       <use xlink:href="#ArialMT-33"/>
      </g>
     </g>
    </g>
    <g id="ytick_5">
     <g id="line2d_11">
      <g>
       <use xlink:href="#m1580ebb866" x="30.8175" y="20.094184" style="stroke: #000000; stroke-width: 0.6"/>
      </g>
     </g>
     <g id="text_12">
      <!-- 4 -->
      <g transform="translate(19.86875 22.957309) scale(0.08 -0.08)">
       <use xlink:href="#ArialMT-34"/>
      </g>
     </g>
    </g>
    <g id="text_13">
     <!-- Density -->
     <g transform="translate(14.185 86.0635) rotate(-90) scale(0.08 -0.08)">
      <defs>
       <path id="ArialMT-44" d="M 494 0 
L 494 4581 
L 2072 4581 
Q 2606 4581 2888 4516 
Q 3281 4425 3559 4188 
Q 3922 3881 4101 3404 
Q 4281 2928 4281 2316 
Q 4281 1794 4159 1391 
Q 4038 988 3847 723 
Q 3656 459 3429 307 
Q 3203 156 2883 78 
Q 2563 0 2147 0 
L 494 0 
z
M 1100 541 
L 2078 541 
Q 2531 541 2789 625 
Q 3047 709 3200 863 
Q 3416 1078 3536 1442 
Q 3656 1806 3656 2325 
Q 3656 3044 3420 3430 
Q 3184 3816 2847 3947 
Q 2603 4041 2063 4041 
L 1100 4041 
L 1100 541 
z
" transform="scale(0.015625)"/>
       <path id="ArialMT-65" d="M 2694 1069 
L 3275 997 
Q 3138 488 2766 206 
Q 2394 -75 1816 -75 
Q 1088 -75 661 373 
Q 234 822 234 1631 
Q 234 2469 665 2931 
Q 1097 3394 1784 3394 
Q 2450 3394 2872 2941 
Q 3294 2488 3294 1666 
Q 3294 1616 3291 1516 
L 816 1516 
Q 847 969 1125 678 
Q 1403 388 1819 388 
Q 2128 388 2347 550 
Q 2566 713 2694 1069 
z
M 847 1978 
L 2700 1978 
Q 2663 2397 2488 2606 
Q 2219 2931 1791 2931 
Q 1403 2931 1139 2672 
Q 875 2413 847 1978 
z
" transform="scale(0.015625)"/>
       <path id="ArialMT-6e" d="M 422 0 
L 422 3319 
L 928 3319 
L 928 2847 
Q 1294 3394 1984 3394 
Q 2284 3394 2536 3286 
Q 2788 3178 2913 3003 
Q 3038 2828 3088 2588 
Q 3119 2431 3119 2041 
L 3119 0 
L 2556 0 
L 2556 2019 
Q 2556 2363 2490 2533 
Q 2425 2703 2258 2804 
Q 2091 2906 1866 2906 
Q 1506 2906 1245 2678 
Q 984 2450 984 1813 
L 984 0 
L 422 0 
z
" transform="scale(0.015625)"/>
       <path id="ArialMT-73" d="M 197 991 
L 753 1078 
Q 800 744 1014 566 
Q 1228 388 1613 388 
Q 2000 388 2187 545 
Q 2375 703 2375 916 
Q 2375 1106 2209 1216 
Q 2094 1291 1634 1406 
Q 1016 1563 777 1677 
Q 538 1791 414 1992 
Q 291 2194 291 2438 
Q 291 2659 392 2848 
Q 494 3038 669 3163 
Q 800 3259 1026 3326 
Q 1253 3394 1513 3394 
Q 1903 3394 2198 3281 
Q 2494 3169 2634 2976 
Q 2775 2784 2828 2463 
L 2278 2388 
Q 2241 2644 2061 2787 
Q 1881 2931 1553 2931 
Q 1166 2931 1000 2803 
Q 834 2675 834 2503 
Q 834 2394 903 2306 
Q 972 2216 1119 2156 
Q 1203 2125 1616 2013 
Q 2213 1853 2448 1751 
Q 2684 1650 2818 1456 
Q 2953 1263 2953 975 
Q 2953 694 2789 445 
Q 2625 197 2315 61 
Q 2006 -75 1616 -75 
Q 969 -75 630 194 
Q 291 463 197 991 
z
" transform="scale(0.015625)"/>
       <path id="ArialMT-79" d="M 397 -1278 
L 334 -750 
Q 519 -800 656 -800 
Q 844 -800 956 -737 
Q 1069 -675 1141 -563 
Q 1194 -478 1313 -144 
Q 1328 -97 1363 -6 
L 103 3319 
L 709 3319 
L 1400 1397 
Q 1534 1031 1641 628 
Q 1738 1016 1872 1384 
L 2581 3319 
L 3144 3319 
L 1881 -56 
Q 1678 -603 1566 -809 
Q 1416 -1088 1222 -1217 
Q 1028 -1347 759 -1347 
Q 597 -1347 397 -1278 
z
" transform="scale(0.015625)"/>
      </defs>
      <use xlink:href="#ArialMT-44"/>
      <use xlink:href="#ArialMT-65" transform="translate(72.216797 0)"/>
      <use xlink:href="#ArialMT-6e" transform="translate(127.832031 0)"/>
      <use xlink:href="#ArialMT-73" transform="translate(183.447266 0)"/>
      <use xlink:href="#ArialMT-69" transform="translate(233.447266 0)"/>
      <use xlink:href="#ArialMT-74" transform="translate(255.664062 0)"/>
      <use xlink:href="#ArialMT-79" transform="translate(283.447266 0)"/>
     </g>
    </g>
   </g>
   <g id="patch_90">
    <path d="M 30.8175 136.812 
L 30.8175 8.64 
" style="fill: none; stroke: #000000; stroke-width: 0.6; stroke-linejoin: miter; stroke-linecap: square"/>
   </g>
   <g id="patch_91">
    <path d="M 30.8175 136.812 
L 237.81 136.812 
" style="fill: none; stroke: #000000; stroke-width: 0.6; stroke-linejoin: miter; stroke-linecap: square"/>
   </g>
   <g id="legend_1">
    <g id="patch_92">
     <path d="M 36.6675 19.161875 
L 49.6675 19.161875 
L 49.6675 14.611875 
L 36.6675 14.611875 
z
" style="fill: #d62728; opacity: 0.5; stroke: #ffffff; stroke-width: 0.3; stroke-linejoin: miter"/>
    </g>
    <g id="text_14">
     <!-- 2:1 hydrogel -->
     <g transform="translate(54.8675 19.161875) scale(0.065 -0.065)">
      <defs>
       <path id="ArialMT-3a" d="M 578 2678 
L 578 3319 
L 1219 3319 
L 1219 2678 
L 578 2678 
z
M 578 0 
L 578 641 
L 1219 641 
L 1219 0 
L 578 0 
z
" transform="scale(0.015625)"/>
       <path id="ArialMT-68" d="M 422 0 
L 422 4581 
L 984 4581 
L 984 2938 
Q 1378 3394 1978 3394 
Q 2347 3394 2619 3248 
Q 2891 3103 3008 2847 
Q 3125 2591 3125 2103 
L 3125 0 
L 2563 0 
L 2563 2103 
Q 2563 2525 2380 2717 
Q 2197 2909 1863 2909 
Q 1613 2909 1392 2779 
Q 1172 2650 1078 2428 
Q 984 2206 984 1816 
L 984 0 
L 422 0 
z
" transform="scale(0.015625)"/>
       <path id="ArialMT-72" d="M 416 0 
L 416 3319 
L 922 3319 
L 922 2816 
Q 1116 3169 1280 3281 
Q 1444 3394 1641 3394 
Q 1925 3394 2219 3213 
L 2025 2691 
Q 1819 2813 1613 2813 
Q 1428 2813 1281 2702 
Q 1134 2591 1072 2394 
Q 978 2094 978 1738 
L 978 0 
L 416 0 
z
" transform="scale(0.015625)"/>
       <path id="ArialMT-67" d="M 319 -275 
L 866 -356 
Q 900 -609 1056 -725 
Q 1266 -881 1628 -881 
Q 2019 -881 2231 -725 
Q 2444 -569 2519 -288 
Q 2563 -116 2559 434 
Q 2191 0 1641 0 
Q 956 0 581 494 
Q 206 988 206 1678 
Q 206 2153 378 2554 
Q 550 2956 876 3175 
Q 1203 3394 1644 3394 
Q 2231 3394 2613 2919 
L 2613 3319 
L 3131 3319 
L 3131 450 
Q 3131 -325 2973 -648 
Q 2816 -972 2473 -1159 
Q 2131 -1347 1631 -1347 
Q 1038 -1347 672 -1080 
Q 306 -813 319 -275 
z
M 784 1719 
Q 784 1066 1043 766 
Q 1303 466 1694 466 
Q 2081 466 2343 764 
Q 2606 1063 2606 1700 
Q 2606 2309 2336 2618 
Q 2066 2928 1684 2928 
Q 1309 2928 1046 2623 
Q 784 2319 784 1719 
z
" transform="scale(0.015625)"/>
      </defs>
      <use xlink:href="#ArialMT-32"/>
      <use xlink:href="#ArialMT-3a" transform="translate(55.615234 0)"/>
      <use xlink:href="#ArialMT-31" transform="translate(83.398438 0)"/>
      <use xlink:href="#ArialMT-20" transform="translate(139.013672 0)"/>
      <use xlink:href="#ArialMT-68" transform="translate(166.796875 0)"/>
      <use xlink:href="#ArialMT-79" transform="translate(222.412109 0)"/>
      <use xlink:href="#ArialMT-64" transform="translate(272.412109 0)"/>
      <use xlink:href="#ArialMT-72" transform="translate(328.027344 0)"/>
      <use xlink:href="#ArialMT-6f" transform="translate(361.328125 0)"/>
      <use xlink:href="#ArialMT-67" transform="translate(416.943359 0)"/>
      <use xlink:href="#ArialMT-65" transform="translate(472.558594 0)"/>
      <use xlink:href="#ArialMT-6c" transform="translate(528.173828 0)"/>
     </g>
    </g>
    <g id="patch_93">
     <path d="M 36.6675 28.4325 
L 49.6675 28.4325 
L 49.6675 23.8825 
L 36.6675 23.8825 
z
" style="fill: #1f77b4; opacity: 0.5; stroke: #ffffff; stroke-width: 0.3; stroke-linejoin: miter"/>
    </g>
    <g id="text_15">
     <!-- Agar control -->
     <g transform="translate(54.8675 28.4325) scale(0.065 -0.065)">
      <defs>
       <path id="ArialMT-41" d="M -9 0 
L 1750 4581 
L 2403 4581 
L 4278 0 
L 3588 0 
L 3053 1388 
L 1138 1388 
L 634 0 
L -9 0 
z
M 1313 1881 
L 2866 1881 
L 2388 3150 
Q 2169 3728 2063 4100 
Q 1975 3659 1816 3225 
L 1313 1881 
z
" transform="scale(0.015625)"/>
       <path id="ArialMT-63" d="M 2588 1216 
L 3141 1144 
Q 3050 572 2676 248 
Q 2303 -75 1759 -75 
Q 1078 -75 664 370 
Q 250 816 250 1647 
Q 250 2184 428 2587 
Q 606 2991 970 3192 
Q 1334 3394 1763 3394 
Q 2303 3394 2647 3120 
Q 2991 2847 3088 2344 
L 2541 2259 
Q 2463 2594 2264 2762 
Q 2066 2931 1784 2931 
Q 1359 2931 1093 2626 
Q 828 2322 828 1663 
Q 828 994 1084 691 
Q 1341 388 1753 388 
Q 2084 388 2306 591 
Q 2528 794 2588 1216 
z
" transform="scale(0.015625)"/>
      </defs>
      <use xlink:href="#ArialMT-41"/>
      <use xlink:href="#ArialMT-67" transform="translate(66.699219 0)"/>
      <use xlink:href="#ArialMT-61" transform="translate(122.314453 0)"/>
      <use xlink:href="#ArialMT-72" transform="translate(177.929688 0)"/>
      <use xlink:href="#ArialMT-20" transform="translate(211.230469 0)"/>
      <use xlink:href="#ArialMT-63" transform="translate(239.013672 0)"/>
      <use xlink:href="#ArialMT-6f" transform="translate(289.013672 0)"/>
      <use xlink:href="#ArialMT-6e" transform="translate(344.628906 0)"/>
      <use xlink:href="#ArialMT-74" transform="translate(400.244141 0)"/>
      <use xlink:href="#ArialMT-72" transform="translate(428.027344 0)"/>
      <use xlink:href="#ArialMT-6f" transform="translate(461.328125 0)"/>
      <use xlink:href="#ArialMT-6c" transform="translate(516.943359 0)"/>
     </g>
    </g>
    <g id="patch_94">
     <path d="M 36.6675 37.782344 
L 49.6675 37.782344 
L 49.6675 33.232344 
L 36.6675 33.232344 
z
" style="fill: #2ca02c; opacity: 0.5; stroke: #ffffff; stroke-width: 0.3; stroke-linejoin: miter"/>
    </g>
    <g id="text_16">
     <!-- Fungus – Green -->
     <g transform="translate(54.8675 37.782344) scale(0.065 -0.065)">
      <defs>
       <path id="ArialMT-46" d="M 525 0 
L 525 4581 
L 3616 4581 
L 3616 4041 
L 1131 4041 
L 1131 2622 
L 3281 2622 
L 3281 2081 
L 1131 2081 
L 1131 0 
L 525 0 
z
" transform="scale(0.015625)"/>
       <path id="ArialMT-75" d="M 2597 0 
L 2597 488 
Q 2209 -75 1544 -75 
Q 1250 -75 995 37 
Q 741 150 617 320 
Q 494 491 444 738 
Q 409 903 409 1263 
L 409 3319 
L 972 3319 
L 972 1478 
Q 972 1038 1006 884 
Q 1059 663 1231 536 
Q 1403 409 1656 409 
Q 1909 409 2131 539 
Q 2353 669 2445 892 
Q 2538 1116 2538 1541 
L 2538 3319 
L 3100 3319 
L 3100 0 
L 2597 0 
z
" transform="scale(0.015625)"/>
       <path id="ArialMT-2013" d="M -13 1431 
L -13 1884 
L 3547 1884 
L 3547 1431 
L -13 1431 
z
" transform="scale(0.015625)"/>
       <path id="ArialMT-47" d="M 2638 1797 
L 2638 2334 
L 4578 2338 
L 4578 638 
Q 4131 281 3656 101 
Q 3181 -78 2681 -78 
Q 2006 -78 1454 211 
Q 903 500 622 1047 
Q 341 1594 341 2269 
Q 341 2938 620 3517 
Q 900 4097 1425 4378 
Q 1950 4659 2634 4659 
Q 3131 4659 3532 4498 
Q 3934 4338 4162 4050 
Q 4391 3763 4509 3300 
L 3963 3150 
Q 3859 3500 3706 3700 
Q 3553 3900 3268 4020 
Q 2984 4141 2638 4141 
Q 2222 4141 1919 4014 
Q 1616 3888 1430 3681 
Q 1244 3475 1141 3228 
Q 966 2803 966 2306 
Q 966 1694 1177 1281 
Q 1388 869 1791 669 
Q 2194 469 2647 469 
Q 3041 469 3416 620 
Q 3791 772 3984 944 
L 3984 1797 
L 2638 1797 
z
" transform="scale(0.015625)"/>
      </defs>
      <use xlink:href="#ArialMT-46"/>
      <use xlink:href="#ArialMT-75" transform="translate(61.083984 0)"/>
      <use xlink:href="#ArialMT-6e" transform="translate(116.699219 0)"/>
      <use xlink:href="#ArialMT-67" transform="translate(172.314453 0)"/>
      <use xlink:href="#ArialMT-75" transform="translate(227.929688 0)"/>
      <use xlink:href="#ArialMT-73" transform="translate(283.544922 0)"/>
      <use xlink:href="#ArialMT-20" transform="translate(333.544922 0)"/>
      <use xlink:href="#ArialMT-2013" transform="translate(361.328125 0)"/>
      <use xlink:href="#ArialMT-20" transform="translate(416.943359 0)"/>
      <use xlink:href="#ArialMT-47" transform="translate(444.726562 0)"/>
      <use xlink:href="#ArialMT-72" transform="translate(522.509766 0)"/>
      <use xlink:href="#ArialMT-65" transform="translate(555.810547 0)"/>
      <use xlink:href="#ArialMT-65" transform="translate(611.425781 0)"/>
      <use xlink:href="#ArialMT-6e" transform="translate(667.041016 0)"/>
     </g>
    </g>
   </g>
  </g>
 </g>
 <defs>
  <clipPath id="p2e5c8a607a">
   <rect x="30.8175" y="8.64" width="206.9925" height="128.172"/>
  </clipPath>
 </defs>
</svg>
