<?xml version="1.0" encoding="utf-8" standalone="no"?>
<!DOCTYPE svg PUBLIC "-//W3C//DTD SVG 1.1//EN"
  "http://www.w3.org/Graphics/SVG/1.1/DTD/svg11.dtd">
<svg xmlns:xlink="http://www.w3.org/1999/xlink" width="457.083pt" height="204.973789pt" viewBox="0 0 457.083 204.973789" xmlns="http://www.w3.org/2000/svg" version="1.1">
 <metadata>
  <rdf:RDF xmlns:dc="http://purl.org/dc/elements/1.1/" xmlns:cc="http://creativecommons.org/ns#" xmlns:rdf="http://www.w3.org/1999/02/22-rdf-syntax-ns#">
   <cc:Work>
    <dc:type rdf:resource="http://purl.org/dc/dcmitype/StillImage"/>
    <dc:date>2026-03-29T23:03:47.246801</dc:date>
    <dc:format>image/svg+xml</dc:format>
    <dc:creator>
     <cc:Agent>
      <dc:title>Matplotlib v3.10.8, https://matplotlib.org/</dc:title>
     </cc:Agent>
    </dc:creator>
   </cc:Work>
  </rdf:RDF>
 </metadata>
 <defs>
  <style type="text/css">*{stroke-linejoin: round; stroke-linecap: butt}</style>
 </defs>
 <g id="figure_1">
  <g id="patch_1">
   <path d="M 0 204.973789 
L 457.083 204.973789 
L 457.083 0 
L 0 0 
z
" style="fill: #ffffff"/>
  </g>
  <g id="axes_1">
   <g id="patch_2">
    <path d="M 37.38 175.237539 
L 220.123 175.237539 
L 220.123 5.632606 
L 37.38 5.632606 
z
" style="fill: #ffffff"/>
   </g>
   <g id="matplotlib.axis_1">
    <g id="xtick_1">
     <g id="line2d_1">
      <defs>
       <path id="mc60042a4b6" d="M 0 0 
L 0 3 
" style="stroke: #000000; stroke-width: 0.6"/>
      </defs>
      <g>
       <use xlink:href="#mc60042a4b6" x="47.235252" y="175.237539" style="stroke: #000000; stroke-width: 0.6"/>
      </g>
     </g>
     <g id="text_1">
      <!-- 0.3 -->
      <g transform="translate(41.675252 187.463789) scale(0.08 -0.08)">
       <defs>
        <path id="ArialMT-30" d="M 266 2259 
Q 266 3072 433 3567 
Q 600 4063 929 4331 
Q 1259 4600 1759 4600 
Q 2128 4600 2406 4451 
Q 2684 4303 2865 4023 
Q 3047 3744 3150 3342 
Q 3253 2941 3253 2259 
Q 3253 1453 3087 958 
Q 2922 463 2592 192 
Q 2263 -78 1759 -78 
Q 1097 -78 719 397 
Q 266 969 266 2259 
z
M 844 2259 
Q 844 1131 1108 757 
Q 1372 384 1759 384 
Q 2147 384 2411 759 
Q 2675 1134 2675 2259 
Q 2675 3391 2411 3762 
Q 2147 4134 1753 4134 
Q 1366 4134 1134 3806 
Q 844 3388 844 2259 
z
" transform="scale(0.015625)"/>
        <path id="ArialMT-2e" d="M 581 0 
L 581 641 
L 1222 641 
L 1222 0 
L 581 0 
z
" transform="scale(0.015625)"/>
        <path id="ArialMT-33" d="M 269 1209 
L 831 1284 
Q 928 806 1161 595 
Q 1394 384 1728 384 
Q 2125 384 2398 659 
Q 2672 934 2672 1341 
Q 2672 1728 2419 1979 
Q 2166 2231 1775 2231 
Q 1616 2231 1378 2169 
L 1441 2663 
Q 1497 2656 1531 2656 
Q 1891 2656 2178 2843 
Q 2466 3031 2466 3422 
Q 2466 3731 2256 3934 
Q 2047 4138 1716 4138 
Q 1388 4138 1169 3931 
Q 950 3725 888 3313 
L 325 3413 
Q 428 3978 793 4289 
Q 1159 4600 1703 4600 
Q 2078 4600 2393 4439 
Q 2709 4278 2876 4000 
Q 3044 3722 3044 3409 
Q 3044 3113 2884 2869 
Q 2725 2625 2413 2481 
Q 2819 2388 3044 2092 
Q 3269 1797 3269 1353 
Q 3269 753 2831 336 
Q 2394 -81 1725 -81 
Q 1122 -81 723 278 
Q 325 638 269 1209 
z
" transform="scale(0.015625)"/>
       </defs>
       <use xlink:href="#ArialMT-30"/>
       <use xlink:href="#ArialMT-2e" transform="translate(55.615234 0)"/>
       <use xlink:href="#ArialMT-33" transform="translate(83.398438 0)"/>
      </g>
     </g>
    </g>
    <g id="xtick_2">
     <g id="line2d_2">
      <g>
       <use xlink:href="#mc60042a4b6" x="73.498683" y="175.237539" style="stroke: #000000; stroke-width: 0.6"/>
      </g>
     </g>
     <g id="text_2">
      <!-- 0.4 -->
      <g transform="translate(67.938683 187.463789) scale(0.08 -0.08)">
       <defs>
        <path id="ArialMT-34" d="M 2069 0 
L 2069 1097 
L 81 1097 
L 81 1613 
L 2172 4581 
L 2631 4581 
L 2631 1613 
L 3250 1613 
L 3250 1097 
L 2631 1097 
L 2631 0 
L 2069 0 
z
M 2069 1613 
L 2069 3678 
L 634 1613 
L 2069 1613 
z
" transform="scale(0.015625)"/>
       </defs>
       <use xlink:href="#ArialMT-30"/>
       <use xlink:href="#ArialMT-2e" transform="translate(55.615234 0)"/>
       <use xlink:href="#ArialMT-34" transform="translate(83.398438 0)"/>
      </g>
     </g>
    </g>
    <g id="xtick_3">
     <g id="line2d_3">
      <g>
       <use xlink:href="#mc60042a4b6" x="99.762114" y="175.237539" style="stroke: #000000; stroke-width: 0.6"/>
      </g>
     </g>
     <g id="text_3">
      <!-- 0.5 -->
      <g transform="translate(94.202114 187.463789) scale(0.08 -0.08)">
       <defs>
        <path id="ArialMT-35" d="M 266 1200 
L 856 1250 
Q 922 819 1161 601 
Q 1400 384 1738 384 
Q 2144 384 2425 690 
Q 2706 997 2706 1503 
Q 2706 1984 2436 2262 
Q 2166 2541 1728 2541 
Q 1456 2541 1237 2417 
Q 1019 2294 894 2097 
L 366 2166 
L 809 4519 
L 3088 4519 
L 3088 3981 
L 1259 3981 
L 1013 2750 
Q 1425 3038 1878 3038 
Q 2478 3038 2890 2622 
Q 3303 2206 3303 1553 
Q 3303 931 2941 478 
Q 2500 -78 1738 -78 
Q 1113 -78 717 272 
Q 322 622 266 1200 
z
" transform="scale(0.015625)"/>
       </defs>
       <use xlink:href="#ArialMT-30"/>
       <use xlink:href="#ArialMT-2e" transform="translate(55.615234 0)"/>
       <use xlink:href="#ArialMT-35" transform="translate(83.398438 0)"/>
      </g>
     </g>
    </g>
    <g id="xtick_4">
     <g id="line2d_4">
      <g>
       <use xlink:href="#mc60042a4b6" x="126.025545" y="175.237539" style="stroke: #000000; stroke-width: 0.6"/>
      </g>
     </g>
     <g id="text_4">
      <!-- 0.6 -->
      <g transform="translate(120.465545 187.463789) scale(0.08 -0.08)">
       <defs>
        <path id="ArialMT-36" d="M 3184 3459 
L 2625 3416 
Q 2550 3747 2413 3897 
Q 2184 4138 1850 4138 
Q 1581 4138 1378 3988 
Q 1113 3794 959 3422 
Q 806 3050 800 2363 
Q 1003 2672 1297 2822 
Q 1591 2972 1913 2972 
Q 2475 2972 2870 2558 
Q 3266 2144 3266 1488 
Q 3266 1056 3080 686 
Q 2894 316 2569 119 
Q 2244 -78 1831 -78 
Q 1128 -78 684 439 
Q 241 956 241 2144 
Q 241 3472 731 4075 
Q 1159 4600 1884 4600 
Q 2425 4600 2770 4297 
Q 3116 3994 3184 3459 
z
M 888 1484 
Q 888 1194 1011 928 
Q 1134 663 1356 523 
Q 1578 384 1822 384 
Q 2178 384 2434 671 
Q 2691 959 2691 1453 
Q 2691 1928 2437 2201 
Q 2184 2475 1800 2475 
Q 1419 2475 1153 2201 
Q 888 1928 888 1484 
z
" transform="scale(0.015625)"/>
       </defs>
       <use xlink:href="#ArialMT-30"/>
       <use xlink:href="#ArialMT-2e" transform="translate(55.615234 0)"/>
       <use xlink:href="#ArialMT-36" transform="translate(83.398438 0)"/>
      </g>
     </g>
    </g>
    <g id="xtick_5">
     <g id="line2d_5">
      <g>
       <use xlink:href="#mc60042a4b6" x="152.288976" y="175.237539" style="stroke: #000000; stroke-width: 0.6"/>
      </g>
     </g>
     <g id="text_5">
      <!-- 0.7 -->
      <g transform="translate(146.728976 187.463789) scale(0.08 -0.08)">
       <defs>
        <path id="ArialMT-37" d="M 303 3981 
L 303 4522 
L 3269 4522 
L 3269 4084 
Q 2831 3619 2401 2847 
Q 1972 2075 1738 1259 
Q 1569 684 1522 0 
L 944 0 
Q 953 541 1156 1306 
Q 1359 2072 1739 2783 
Q 2119 3494 2547 3981 
L 303 3981 
z
" transform="scale(0.015625)"/>
       </defs>
       <use xlink:href="#ArialMT-30"/>
       <use xlink:href="#ArialMT-2e" transform="translate(55.615234 0)"/>
       <use xlink:href="#ArialMT-37" transform="translate(83.398438 0)"/>
      </g>
     </g>
    </g>
    <g id="xtick_6">
     <g id="line2d_6">
      <g>
       <use xlink:href="#mc60042a4b6" x="178.552407" y="175.237539" style="stroke: #000000; stroke-width: 0.6"/>
      </g>
     </g>
     <g id="text_6">
      <!-- 0.8 -->
      <g transform="translate(172.992407 187.463789) scale(0.08 -0.08)">
       <defs>
        <path id="ArialMT-38" d="M 1131 2484 
Q 781 2613 612 2850 
Q 444 3088 444 3419 
Q 444 3919 803 4259 
Q 1163 4600 1759 4600 
Q 2359 4600 2725 4251 
Q 3091 3903 3091 3403 
Q 3091 3084 2923 2848 
Q 2756 2613 2416 2484 
Q 2838 2347 3058 2040 
Q 3278 1734 3278 1309 
Q 3278 722 2862 322 
Q 2447 -78 1769 -78 
Q 1091 -78 675 323 
Q 259 725 259 1325 
Q 259 1772 486 2073 
Q 713 2375 1131 2484 
z
M 1019 3438 
Q 1019 3113 1228 2906 
Q 1438 2700 1772 2700 
Q 2097 2700 2305 2904 
Q 2513 3109 2513 3406 
Q 2513 3716 2298 3927 
Q 2084 4138 1766 4138 
Q 1444 4138 1231 3931 
Q 1019 3725 1019 3438 
z
M 838 1322 
Q 838 1081 952 856 
Q 1066 631 1291 507 
Q 1516 384 1775 384 
Q 2178 384 2440 643 
Q 2703 903 2703 1303 
Q 2703 1709 2433 1975 
Q 2163 2241 1756 2241 
Q 1359 2241 1098 1978 
Q 838 1716 838 1322 
z
" transform="scale(0.015625)"/>
       </defs>
       <use xlink:href="#ArialMT-30"/>
       <use xlink:href="#ArialMT-2e" transform="translate(55.615234 0)"/>
       <use xlink:href="#ArialMT-38" transform="translate(83.398438 0)"/>
      </g>
     </g>
    </g>
    <g id="xtick_7">
     <g id="line2d_7">
      <g>
       <use xlink:href="#mc60042a4b6" x="204.815838" y="175.237539" style="stroke: #000000; stroke-width: 0.6"/>
      </g>
     </g>
     <g id="text_7">
      <!-- 0.9 -->
      <g transform="translate(199.255838 187.463789) scale(0.08 -0.08)">
       <defs>
        <path id="ArialMT-39" d="M 350 1059 
L 891 1109 
Q 959 728 1153 556 
Q 1347 384 1650 384 
Q 1909 384 2104 503 
Q 2300 622 2425 820 
Q 2550 1019 2634 1356 
Q 2719 1694 2719 2044 
Q 2719 2081 2716 2156 
Q 2547 1888 2255 1720 
Q 1963 1553 1622 1553 
Q 1053 1553 659 1965 
Q 266 2378 266 3053 
Q 266 3750 677 4175 
Q 1088 4600 1706 4600 
Q 2153 4600 2523 4359 
Q 2894 4119 3086 3673 
Q 3278 3228 3278 2384 
Q 3278 1506 3087 986 
Q 2897 466 2520 194 
Q 2144 -78 1638 -78 
Q 1100 -78 759 220 
Q 419 519 350 1059 
z
M 2653 3081 
Q 2653 3566 2395 3850 
Q 2138 4134 1775 4134 
Q 1400 4134 1122 3828 
Q 844 3522 844 3034 
Q 844 2597 1108 2323 
Q 1372 2050 1759 2050 
Q 2150 2050 2401 2323 
Q 2653 2597 2653 3081 
z
" transform="scale(0.015625)"/>
       </defs>
       <use xlink:href="#ArialMT-30"/>
       <use xlink:href="#ArialMT-2e" transform="translate(55.615234 0)"/>
       <use xlink:href="#ArialMT-39" transform="translate(83.398438 0)"/>
      </g>
     </g>
    </g>
    <g id="text_8">
     <!-- $K_{\mathrm{near}}$ / $K_{\mathrm{far}}$ -->
     <g transform="translate(109.3115 198.893789) scale(0.08 -0.08)">
      <defs>
       <path id="ArialMT-4b" d="M 469 0 
L 469 4581 
L 1075 4581 
L 1075 2309 
L 3350 4581 
L 4172 4581 
L 2250 2725 
L 4256 0 
L 3456 0 
L 1825 2319 
L 1075 1588 
L 1075 0 
L 469 0 
z
" transform="scale(0.015625)"/>
       <path id="DejaVuSans-6e" d="M 3513 2113 
L 3513 0 
L 2938 0 
L 2938 2094 
Q 2938 2591 2744 2837 
Q 2550 3084 2163 3084 
Q 1697 3084 1428 2787 
Q 1159 2491 1159 1978 
L 1159 0 
L 581 0 
L 581 3500 
L 1159 3500 
L 1159 2956 
Q 1366 3272 1645 3428 
Q 1925 3584 2291 3584 
Q 2894 3584 3203 3211 
Q 3513 2838 3513 2113 
z
" transform="scale(0.015625)"/>
       <path id="DejaVuSans-65" d="M 3597 1894 
L 3597 1613 
L 953 1613 
Q 991 1019 1311 708 
Q 1631 397 2203 397 
Q 2534 397 2845 478 
Q 3156 559 3463 722 
L 3463 178 
Q 3153 47 2828 -22 
Q 2503 -91 2169 -91 
Q 1331 -91 842 396 
Q 353 884 353 1716 
Q 353 2575 817 3079 
Q 1281 3584 2069 3584 
Q 2775 3584 3186 3129 
Q 3597 2675 3597 1894 
z
M 3022 2063 
Q 3016 2534 2758 2815 
Q 2500 3097 2075 3097 
Q 1594 3097 1305 2825 
Q 1016 2553 972 2059 
L 3022 2063 
z
" transform="scale(0.015625)"/>
       <path id="DejaVuSans-61" d="M 2194 1759 
Q 1497 1759 1228 1600 
Q 959 1441 959 1056 
Q 959 750 1161 570 
Q 1363 391 1709 391 
Q 2188 391 2477 730 
Q 2766 1069 2766 1631 
L 2766 1759 
L 2194 1759 
z
M 3341 1997 
L 3341 0 
L 2766 0 
L 2766 531 
Q 2569 213 2275 61 
Q 1981 -91 1556 -91 
Q 1019 -91 701 211 
Q 384 513 384 1019 
Q 384 1609 779 1909 
Q 1175 2209 1959 2209 
L 2766 2209 
L 2766 2266 
Q 2766 2663 2505 2880 
Q 2244 3097 1772 3097 
Q 1472 3097 1187 3025 
Q 903 2953 641 2809 
L 641 3341 
Q 956 3463 1253 3523 
Q 1550 3584 1831 3584 
Q 2591 3584 2966 3190 
Q 3341 2797 3341 1997 
z
" transform="scale(0.015625)"/>
       <path id="DejaVuSans-72" d="M 2631 2963 
Q 2534 3019 2420 3045 
Q 2306 3072 2169 3072 
Q 1681 3072 1420 2755 
Q 1159 2438 1159 1844 
L 1159 0 
L 581 0 
L 581 3500 
L 1159 3500 
L 1159 2956 
Q 1341 3275 1631 3429 
Q 1922 3584 2338 3584 
Q 2397 3584 2469 3576 
Q 2541 3569 2628 3553 
L 2631 2963 
z
" transform="scale(0.015625)"/>
       <path id="ArialMT-20" transform="scale(0.015625)"/>
       <path id="ArialMT-2f" d="M 0 -78 
L 1328 4659 
L 1778 4659 
L 453 -78 
L 0 -78 
z
" transform="scale(0.015625)"/>
       <path id="DejaVuSans-66" d="M 2375 4863 
L 2375 4384 
L 1825 4384 
Q 1516 4384 1395 4259 
Q 1275 4134 1275 3809 
L 1275 3500 
L 2222 3500 
L 2222 3053 
L 1275 3053 
L 1275 0 
L 697 0 
L 697 3053 
L 147 3053 
L 147 3500 
L 697 3500 
L 697 3744 
Q 697 4328 969 4595 
Q 1241 4863 1831 4863 
L 2375 4863 
z
" transform="scale(0.015625)"/>
      </defs>
      <use xlink:href="#ArialMT-4b" transform="translate(0 0.203125)"/>
      <use xlink:href="#DejaVuSans-6e" transform="translate(68.441563 -29.665625) scale(0.7)"/>
      <use xlink:href="#DejaVuSans-65" transform="translate(112.806797 -29.665625) scale(0.7)"/>
      <use xlink:href="#DejaVuSans-61" transform="translate(155.873203 -29.665625) scale(0.7)"/>
      <use xlink:href="#DejaVuSans-72" transform="translate(198.768711 -29.665625) scale(0.7)"/>
      <use xlink:href="#ArialMT-20" transform="translate(232.526133 0.203125)"/>
      <use xlink:href="#ArialMT-2f" transform="translate(260.309336 0.203125)"/>
      <use xlink:href="#ArialMT-20" transform="translate(288.092539 0.203125)"/>
      <use xlink:href="#ArialMT-4b" transform="translate(315.875742 0.203125)"/>
      <use xlink:href="#DejaVuSans-66" transform="translate(384.317305 -29.665625) scale(0.7)"/>
      <use xlink:href="#DejaVuSans-61" transform="translate(408.960859 -29.665625) scale(0.7)"/>
      <use xlink:href="#DejaVuSans-72" transform="translate(451.856367 -29.665625) scale(0.7)"/>
     </g>
    </g>
   </g>
   <g id="matplotlib.axis_2">
    <g id="ytick_1">
     <g id="line2d_8">
      <defs>
       <path id="ma359a8b60f" d="M 0 0 
L -3 0 
" style="stroke: #000000; stroke-width: 0.6"/>
      </defs>
      <g>
       <use xlink:href="#ma359a8b60f" x="37.38" y="161.636891" style="stroke: #000000; stroke-width: 0.6"/>
      </g>
     </g>
     <g id="text_9">
      <!-- 0.0 -->
      <g transform="translate(19.76 164.500016) scale(0.08 -0.08)">
       <use xlink:href="#ArialMT-30"/>
       <use xlink:href="#ArialMT-2e" transform="translate(55.615234 0)"/>
       <use xlink:href="#ArialMT-30" transform="translate(83.398438 0)"/>
      </g>
     </g>
    </g>
    <g id="ytick_2">
     <g id="line2d_9">
      <g>
       <use xlink:href="#ma359a8b60f" x="37.38" y="128.645426" style="stroke: #000000; stroke-width: 0.6"/>
      </g>
     </g>
     <g id="text_10">
      <!-- 0.5 -->
      <g transform="translate(19.76 131.508551) scale(0.08 -0.08)">
       <use xlink:href="#ArialMT-30"/>
       <use xlink:href="#ArialMT-2e" transform="translate(55.615234 0)"/>
       <use xlink:href="#ArialMT-35" transform="translate(83.398438 0)"/>
      </g>
     </g>
    </g>
    <g id="ytick_3">
     <g id="line2d_10">
      <g>
       <use xlink:href="#ma359a8b60f" x="37.38" y="95.653961" style="stroke: #000000; stroke-width: 0.6"/>
      </g>
     </g>
     <g id="text_11">
      <!-- 1.0 -->
      <g transform="translate(19.76 98.517086) scale(0.08 -0.08)">
       <defs>
        <path id="ArialMT-31" d="M 2384 0 
L 1822 0 
L 1822 3584 
Q 1619 3391 1289 3197 
Q 959 3003 697 2906 
L 697 3450 
Q 1169 3672 1522 3987 
Q 1875 4303 2022 4600 
L 2384 4600 
L 2384 0 
z
" transform="scale(0.015625)"/>
       </defs>
       <use xlink:href="#ArialMT-31"/>
       <use xlink:href="#ArialMT-2e" transform="translate(55.615234 0)"/>
       <use xlink:href="#ArialMT-30" transform="translate(83.398438 0)"/>
      </g>
     </g>
    </g>
    <g id="ytick_4">
     <g id="line2d_11">
      <g>
       <use xlink:href="#ma359a8b60f" x="37.38" y="62.662496" style="stroke: #000000; stroke-width: 0.6"/>
      </g>
     </g>
     <g id="text_12">
      <!-- 1.5 -->
      <g transform="translate(19.76 65.525621) scale(0.08 -0.08)">
       <use xlink:href="#ArialMT-31"/>
       <use xlink:href="#ArialMT-2e" transform="translate(55.615234 0)"/>
       <use xlink:href="#ArialMT-35" transform="translate(83.398438 0)"/>
      </g>
     </g>
    </g>
    <g id="ytick_5">
     <g id="line2d_12">
      <g>
       <use xlink:href="#ma359a8b60f" x="37.38" y="29.67103" style="stroke: #000000; stroke-width: 0.6"/>
      </g>
     </g>
     <g id="text_13">
      <!-- 2.0 -->
      <g transform="translate(19.76 32.534155) scale(0.08 -0.08)">
       <defs>
        <path id="ArialMT-32" d="M 3222 541 
L 3222 0 
L 194 0 
Q 188 203 259 391 
Q 375 700 629 1000 
Q 884 1300 1366 1694 
Q 2113 2306 2375 2664 
Q 2638 3022 2638 3341 
Q 2638 3675 2398 3904 
Q 2159 4134 1775 4134 
Q 1369 4134 1125 3890 
Q 881 3647 878 3216 
L 300 3275 
Q 359 3922 746 4261 
Q 1134 4600 1788 4600 
Q 2447 4600 2831 4234 
Q 3216 3869 3216 3328 
Q 3216 3053 3103 2787 
Q 2991 2522 2730 2228 
Q 2469 1934 1863 1422 
Q 1356 997 1212 845 
Q 1069 694 975 541 
L 3222 541 
z
" transform="scale(0.015625)"/>
       </defs>
       <use xlink:href="#ArialMT-32"/>
       <use xlink:href="#ArialMT-2e" transform="translate(55.615234 0)"/>
       <use xlink:href="#ArialMT-30" transform="translate(83.398438 0)"/>
      </g>
     </g>
    </g>
    <g id="text_14">
     <!-- d$\tau_{50}$/d$r$ (s mm$^{-1}$) -->
     <g transform="translate(13.28 119.315073) rotate(-90) scale(0.08 -0.08)">
      <defs>
       <path id="ArialMT-64" d="M 2575 0 
L 2575 419 
Q 2259 -75 1647 -75 
Q 1250 -75 917 144 
Q 584 363 401 755 
Q 219 1147 219 1656 
Q 219 2153 384 2558 
Q 550 2963 881 3178 
Q 1213 3394 1622 3394 
Q 1922 3394 2156 3267 
Q 2391 3141 2538 2938 
L 2538 4581 
L 3097 4581 
L 3097 0 
L 2575 0 
z
M 797 1656 
Q 797 1019 1065 703 
Q 1334 388 1700 388 
Q 2069 388 2326 689 
Q 2584 991 2584 1609 
Q 2584 2291 2321 2609 
Q 2059 2928 1675 2928 
Q 1300 2928 1048 2622 
Q 797 2316 797 1656 
z
" transform="scale(0.015625)"/>
       <path id="ArialMT-3c4" d="M 1581 2863 
L 1581 0 
L 1019 0 
L 1019 2863 
L 144 2863 
L 144 3319 
L 2381 3319 
L 2381 2863 
L 1581 2863 
z
" transform="scale(0.015625)"/>
       <path id="ArialMT-72" d="M 416 0 
L 416 3319 
L 922 3319 
L 922 2816 
Q 1116 3169 1280 3281 
Q 1444 3394 1641 3394 
Q 1925 3394 2219 3213 
L 2025 2691 
Q 1819 2813 1613 2813 
Q 1428 2813 1281 2702 
Q 1134 2591 1072 2394 
Q 978 2094 978 1738 
L 978 0 
L 416 0 
z
" transform="scale(0.015625)"/>
       <path id="ArialMT-28" d="M 1497 -1347 
Q 1031 -759 709 28 
Q 388 816 388 1659 
Q 388 2403 628 3084 
Q 909 3875 1497 4659 
L 1900 4659 
Q 1522 4009 1400 3731 
Q 1209 3300 1100 2831 
Q 966 2247 966 1656 
Q 966 153 1900 -1347 
L 1497 -1347 
z
" transform="scale(0.015625)"/>
       <path id="ArialMT-73" d="M 197 991 
L 753 1078 
Q 800 744 1014 566 
Q 1228 388 1613 388 
Q 2000 388 2187 545 
Q 2375 703 2375 916 
Q 2375 1106 2209 1216 
Q 2094 1291 1634 1406 
Q 1016 1563 777 1677 
Q 538 1791 414 1992 
Q 291 2194 291 2438 
Q 291 2659 392 2848 
Q 494 3038 669 3163 
Q 800 3259 1026 3326 
Q 1253 3394 1513 3394 
Q 1903 3394 2198 3281 
Q 2494 3169 2634 2976 
Q 2775 2784 2828 2463 
L 2278 2388 
Q 2241 2644 2061 2787 
Q 1881 2931 1553 2931 
Q 1166 2931 1000 2803 
Q 834 2675 834 2503 
Q 834 2394 903 2306 
Q 972 2216 1119 2156 
Q 1203 2125 1616 2013 
Q 2213 1853 2448 1751 
Q 2684 1650 2818 1456 
Q 2953 1263 2953 975 
Q 2953 694 2789 445 
Q 2625 197 2315 61 
Q 2006 -75 1616 -75 
Q 969 -75 630 194 
Q 291 463 197 991 
z
" transform="scale(0.015625)"/>
       <path id="ArialMT-6d" d="M 422 0 
L 422 3319 
L 925 3319 
L 925 2853 
Q 1081 3097 1340 3245 
Q 1600 3394 1931 3394 
Q 2300 3394 2536 3241 
Q 2772 3088 2869 2813 
Q 3263 3394 3894 3394 
Q 4388 3394 4653 3120 
Q 4919 2847 4919 2278 
L 4919 0 
L 4359 0 
L 4359 2091 
Q 4359 2428 4304 2576 
Q 4250 2725 4106 2815 
Q 3963 2906 3769 2906 
Q 3419 2906 3187 2673 
Q 2956 2441 2956 1928 
L 2956 0 
L 2394 0 
L 2394 2156 
Q 2394 2531 2256 2718 
Q 2119 2906 1806 2906 
Q 1569 2906 1367 2781 
Q 1166 2656 1075 2415 
Q 984 2175 984 1722 
L 984 0 
L 422 0 
z
" transform="scale(0.015625)"/>
       <path id="ArialMT-2212" d="M 3381 1997 
L 356 1997 
L 356 2522 
L 3381 2522 
L 3381 1997 
z
" transform="scale(0.015625)"/>
       <path id="ArialMT-29" d="M 791 -1347 
L 388 -1347 
Q 1322 153 1322 1656 
Q 1322 2244 1188 2822 
Q 1081 3291 891 3722 
Q 769 4003 388 4659 
L 791 4659 
Q 1378 3875 1659 3084 
Q 1900 2403 1900 1659 
Q 1900 816 1576 28 
Q 1253 -759 791 -1347 
z
" transform="scale(0.015625)"/>
      </defs>
      <use xlink:href="#ArialMT-64" transform="translate(0 0.99375)"/>
      <use xlink:href="#ArialMT-3c4" transform="translate(55.615234 0.99375)"/>
      <use xlink:href="#ArialMT-35" transform="translate(96.859531 -28.875) scale(0.7)"/>
      <use xlink:href="#ArialMT-30" transform="translate(135.790195 -28.875) scale(0.7)"/>
      <use xlink:href="#ArialMT-2f" transform="translate(179.698984 0.99375)"/>
      <use xlink:href="#ArialMT-64" transform="translate(207.482188 0.99375)"/>
      <use xlink:href="#ArialMT-72" transform="translate(263.097422 0.99375)"/>
      <use xlink:href="#ArialMT-20" transform="translate(296.398203 0.99375)"/>
      <use xlink:href="#ArialMT-28" transform="translate(324.181406 0.99375)"/>
      <use xlink:href="#ArialMT-73" transform="translate(357.482188 0.99375)"/>
      <use xlink:href="#ArialMT-20" transform="translate(407.482188 0.99375)"/>
      <use xlink:href="#ArialMT-6d" transform="translate(435.265391 0.99375)"/>
      <use xlink:href="#ArialMT-6d" transform="translate(518.566172 0.99375)"/>
      <use xlink:href="#ArialMT-2212" transform="translate(603.609297 70.6875) scale(0.7)"/>
      <use xlink:href="#ArialMT-31" transform="translate(644.488203 70.6875) scale(0.7)"/>
      <use xlink:href="#ArialMT-29" transform="translate(688.396992 0.99375)"/>
     </g>
    </g>
   </g>
   <g id="line2d_13">
    <path d="M 45.6865 102.440756 
L 47.364581 102.708235 
L 49.042662 102.975714 
L 50.720742 103.243193 
L 52.398823 103.510672 
L 54.076904 103.778151 
L 55.754985 104.045631 
L 57.433066 104.31311 
L 59.111146 104.580589 
L 60.789227 104.848068 
L 62.467308 105.115547 
L 64.145389 105.383026 
L 65.82347 105.650506 
L 67.501551 105.917985 
L 69.179631 106.185464 
L 70.857712 106.452943 
L 72.535793 106.720422 
L 74.213874 106.987901 
L 75.891955 107.255381 
L 77.570035 107.52286 
L 79.248116 107.790339 
L 80.926197 108.057818 
L 82.604278 108.325297 
L 84.282359 108.592776 
L 85.960439 108.860255 
L 87.63852 109.127735 
L 89.316601 109.395214 
L 90.994682 109.662693 
L 92.672763 109.930172 
L 94.350843 110.197651 
L 96.028924 110.46513 
L 97.707005 110.73261 
L 99.385086 111.000089 
L 101.063167 111.267568 
L 102.741247 111.535047 
L 104.419328 111.802526 
L 106.097409 112.070005 
L 107.77549 112.337485 
L 109.453571 112.604964 
L 111.131652 112.872443 
L 112.809732 113.139922 
L 114.487813 113.407401 
L 116.165894 113.67488 
L 117.843975 113.94236 
L 119.522056 114.209839 
L 121.200136 114.477318 
L 122.878217 114.744797 
L 124.556298 115.012276 
L 126.234379 115.279755 
L 127.91246 115.547235 
L 129.59054 115.814714 
L 131.268621 116.082193 
L 132.946702 116.349672 
L 134.624783 116.617151 
L 136.302864 116.88463 
L 137.980944 117.152109 
L 139.659025 117.419589 
L 141.337106 117.687068 
L 143.015187 117.954547 
L 144.693268 118.222026 
L 146.371348 118.489505 
L 148.049429 118.756984 
L 149.72751 119.024464 
L 151.405591 119.291943 
L 153.083672 119.559422 
L 154.761753 119.826901 
L 156.439833 120.09438 
L 158.117914 120.361859 
L 159.795995 120.629339 
L 161.474076 120.896818 
L 163.152157 121.164297 
L 164.830237 121.431776 
L 166.508318 121.699255 
L 168.186399 121.966734 
L 169.86448 122.234214 
L 171.542561 122.501693 
L 173.220641 122.769172 
L 174.898722 123.036651 
L 176.576803 123.30413 
L 178.254884 123.571609 
L 179.932965 123.839089 
L 181.611045 124.106568 
L 183.289126 124.374047 
L 184.967207 124.641526 
L 186.645288 124.909005 
L 188.323369 125.176484 
L 190.001449 125.443963 
L 191.67953 125.711443 
L 193.357611 125.978922 
L 195.035692 126.246401 
L 196.713773 126.51388 
L 198.391854 126.781359 
L 200.069934 127.048838 
L 201.748015 127.316318 
L 203.426096 127.583797 
L 205.104177 127.851276 
L 206.782258 128.118755 
L 208.460338 128.386234 
L 210.138419 128.653713 
L 211.8165 128.921193 
" clip-path="url(#p75ca7d9fc6)" style="fill: none; stroke-dasharray: 2.96,1.28; stroke-dashoffset: 0; stroke: #000000; stroke-width: 0.8"/>
   </g>
   <g id="patch_3">
    <path d="M 37.38 175.237539 
L 37.38 5.632606 
" style="fill: none; stroke: #000000; stroke-width: 0.8; stroke-linejoin: miter; stroke-linecap: square"/>
   </g>
   <g id="patch_4">
    <path d="M 220.123 175.237539 
L 220.123 5.632606 
" style="fill: none; stroke: #000000; stroke-width: 0.8; stroke-linejoin: miter; stroke-linecap: square"/>
   </g>
   <g id="patch_5">
    <path d="M 37.38 175.237539 
L 220.123 175.237539 
" style="fill: none; stroke: #000000; stroke-width: 0.8; stroke-linejoin: miter; stroke-linecap: square"/>
   </g>
   <g id="patch_6">
    <path d="M 37.38 5.632606 
L 220.123 5.632606 
" style="fill: none; stroke: #000000; stroke-width: 0.8; stroke-linejoin: miter; stroke-linecap: square"/>
   </g>
   <g id="text_15">
    <!-- $R^2 = 0.03$ -->
    <g transform="translate(185.94071 157.96223) scale(0.07 -0.07)">
     <defs>
      <path id="ArialMT-52" d="M 503 0 
L 503 4581 
L 2534 4581 
Q 3147 4581 3465 4457 
Q 3784 4334 3975 4021 
Q 4166 3709 4166 3331 
Q 4166 2844 3850 2509 
Q 3534 2175 2875 2084 
Q 3116 1969 3241 1856 
Q 3506 1613 3744 1247 
L 4541 0 
L 3778 0 
L 3172 953 
Q 2906 1366 2734 1584 
Q 2563 1803 2427 1890 
Q 2291 1978 2150 2013 
Q 2047 2034 1813 2034 
L 1109 2034 
L 1109 0 
L 503 0 
z
M 1109 2559 
L 2413 2559 
Q 2828 2559 3062 2645 
Q 3297 2731 3419 2920 
Q 3541 3109 3541 3331 
Q 3541 3656 3305 3865 
Q 3069 4075 2559 4075 
L 1109 4075 
L 1109 2559 
z
" transform="scale(0.015625)"/>
      <path id="ArialMT-3d" d="M 3381 2694 
L 356 2694 
L 356 3219 
L 3381 3219 
L 3381 2694 
z
M 3381 1303 
L 356 1303 
L 356 1828 
L 3381 1828 
L 3381 1303 
z
" transform="scale(0.015625)"/>
     </defs>
     <use xlink:href="#ArialMT-52" transform="translate(0 0.99375)"/>
     <use xlink:href="#ArialMT-32" transform="translate(73.959141 70.6875) scale(0.7)"/>
     <use xlink:href="#ArialMT-3d" transform="translate(137.350352 0.99375)"/>
     <use xlink:href="#ArialMT-30" transform="translate(215.231211 0.99375)"/>
     <use xlink:href="#ArialMT-2e" transform="translate(270.846445 0.99375)"/>
     <use xlink:href="#ArialMT-30" transform="translate(298.629648 0.99375)"/>
     <use xlink:href="#ArialMT-33" transform="translate(354.244883 0.99375)"/>
    </g>
    <!-- $P = 3.1e-01$ -->
    <g transform="translate(174.88071 165.366043) scale(0.07 -0.07)">
     <defs>
      <path id="ArialMT-50" d="M 494 0 
L 494 4581 
L 2222 4581 
Q 2678 4581 2919 4538 
Q 3256 4481 3484 4323 
Q 3713 4166 3852 3881 
Q 3991 3597 3991 3256 
Q 3991 2672 3619 2267 
Q 3247 1863 2275 1863 
L 1100 1863 
L 1100 0 
L 494 0 
z
M 1100 2403 
L 2284 2403 
Q 2872 2403 3119 2622 
Q 3366 2841 3366 3238 
Q 3366 3525 3220 3729 
Q 3075 3934 2838 4000 
Q 2684 4041 2272 4041 
L 1100 4041 
L 1100 2403 
z
" transform="scale(0.015625)"/>
      <path id="ArialMT-65" d="M 2694 1069 
L 3275 997 
Q 3138 488 2766 206 
Q 2394 -75 1816 -75 
Q 1088 -75 661 373 
Q 234 822 234 1631 
Q 234 2469 665 2931 
Q 1097 3394 1784 3394 
Q 2450 3394 2872 2941 
Q 3294 2488 3294 1666 
Q 3294 1616 3291 1516 
L 816 1516 
Q 847 969 1125 678 
Q 1403 388 1819 388 
Q 2128 388 2347 550 
Q 2566 713 2694 1069 
z
M 847 1978 
L 2700 1978 
Q 2663 2397 2488 2606 
Q 2219 2931 1791 2931 
Q 1403 2931 1139 2672 
Q 875 2413 847 1978 
z
" transform="scale(0.015625)"/>
     </defs>
     <use xlink:href="#ArialMT-50" transform="translate(0 0.125)"/>
     <use xlink:href="#ArialMT-3d" transform="translate(86.181641 0.125)"/>
     <use xlink:href="#ArialMT-33" transform="translate(164.0625 0.125)"/>
     <use xlink:href="#ArialMT-2e" transform="translate(219.677734 0.125)"/>
     <use xlink:href="#ArialMT-31" transform="translate(247.460938 0.125)"/>
     <use xlink:href="#ArialMT-65" transform="translate(303.076172 0.125)"/>
     <use xlink:href="#ArialMT-2212" transform="translate(378.173828 0.125)"/>
     <use xlink:href="#ArialMT-30" transform="translate(456.054688 0.125)"/>
     <use xlink:href="#ArialMT-31" transform="translate(511.669922 0.125)"/>
    </g>
   </g>
   <g id="PathCollection_1">
    <defs>
     <path id="m05f236559f" d="M 0 3 
C 0.795609 3 1.55874 2.683901 2.12132 2.12132 
C 2.683901 1.55874 3 0.795609 3 0 
C 3 -0.795609 2.683901 -1.55874 2.12132 -2.12132 
C 1.55874 -2.683901 0.795609 -3 0 -3 
C -0.795609 -3 -1.55874 -2.683901 -2.12132 -2.12132 
C -2.683901 -1.55874 -3 -0.795609 -3 0 
C -3 0.795609 -2.683901 1.55874 -2.12132 2.12132 
C -1.55874 2.683901 -0.795609 3 0 3 
z
" style="stroke: #000000; stroke-width: 0.4"/>
    </defs>
    <g clip-path="url(#p75ca7d9fc6)">
     <use xlink:href="#m05f236559f" x="138.884478" y="128.88801" style="fill: #e67e22; stroke: #000000; stroke-width: 0.4"/>
     <use xlink:href="#m05f236559f" x="86.682639" y="93.543052" style="fill: #e67e22; stroke: #000000; stroke-width: 0.4"/>
     <use xlink:href="#m05f236559f" x="110.24755" y="107.702315" style="fill: #e67e22; stroke: #000000; stroke-width: 0.4"/>
     <use xlink:href="#m05f236559f" x="135.464157" y="106.920654" style="fill: #e67e22; stroke: #000000; stroke-width: 0.4"/>
     <use xlink:href="#m05f236559f" x="51.708488" y="106.085086" style="fill: #e67e22; stroke: #000000; stroke-width: 0.4"/>
    </g>
   </g>
   <g id="PathCollection_2">
    <defs>
     <path id="m613f9c9723" d="M -3 3 
L 3 3 
L 3 -3 
L -3 -3 
z
" style="stroke: #000000; stroke-width: 0.4"/>
    </defs>
    <g clip-path="url(#p75ca7d9fc6)">
     <use xlink:href="#m613f9c9723" x="56.836767" y="90.074522" style="fill: #1f77b4; stroke: #000000; stroke-width: 0.4"/>
     <use xlink:href="#m613f9c9723" x="115.993808" y="103.509072" style="fill: #1f77b4; stroke: #000000; stroke-width: 0.4"/>
     <use xlink:href="#m613f9c9723" x="88.175232" y="76.408939" style="fill: #1f77b4; stroke: #000000; stroke-width: 0.4"/>
     <use xlink:href="#m613f9c9723" x="205.861458" y="101.938049" style="fill: #1f77b4; stroke: #000000; stroke-width: 0.4"/>
     <use xlink:href="#m613f9c9723" x="54.949883" y="104.883716" style="fill: #1f77b4; stroke: #000000; stroke-width: 0.4"/>
    </g>
   </g>
   <g id="PathCollection_3">
    <defs>
     <path id="md254fe6d23" d="M -0 4.242641 
L 4.242641 0 
L 0 -4.242641 
L -4.242641 -0 
z
" style="stroke: #000000; stroke-width: 0.4"/>
    </defs>
    <g clip-path="url(#p75ca7d9fc6)">
     <use xlink:href="#md254fe6d23" x="123.501107" y="45.320828" style="fill: #d62728; stroke: #000000; stroke-width: 0.4"/>
     <use xlink:href="#md254fe6d23" x="113.334691" y="46.529307" style="fill: #d62728; stroke: #000000; stroke-width: 0.4"/>
     <use xlink:href="#md254fe6d23" x="187.915226" y="73.582748" style="fill: #d62728; stroke: #000000; stroke-width: 0.4"/>
     <use xlink:href="#md254fe6d23" x="82.010011" y="13.341921" style="fill: #d62728; stroke: #000000; stroke-width: 0.4"/>
     <use xlink:href="#md254fe6d23" x="104.951943" y="20.547017" style="fill: #d62728; stroke: #000000; stroke-width: 0.4"/>
    </g>
   </g>
   <g id="PathCollection_4">
    <defs>
     <path id="ma416db1846" d="M 0 3 
C 0.795609 3 1.55874 2.683901 2.12132 2.12132 
C 2.683901 1.55874 3 0.795609 3 0 
C 3 -0.795609 2.683901 -1.55874 2.12132 -2.12132 
C 1.55874 -2.683901 0.795609 -3 0 -3 
C -0.795609 -3 -1.55874 -2.683901 -2.12132 -2.12132 
C -2.683901 -1.55874 -3 -0.795609 -3 0 
C -3 0.795609 -2.683901 1.55874 -2.12132 2.12132 
C -1.55874 2.683901 -0.795609 3 0 3 
z
" style="stroke: #000000; stroke-width: 0.4"/>
    </defs>
    <g clip-path="url(#p75ca7d9fc6)">
     <use xlink:href="#ma416db1846" x="71.313736" y="154.960047" style="fill: #2ca02c; stroke: #000000; stroke-width: 0.4"/>
     <use xlink:href="#ma416db1846" x="101.302632" y="161.879475" style="fill: #2ca02c; stroke: #000000; stroke-width: 0.4"/>
     <use xlink:href="#ma416db1846" x="143.153262" y="167.528224" style="fill: #2ca02c; stroke: #000000; stroke-width: 0.4"/>
     <use xlink:href="#ma416db1846" x="156.760794" y="160.963046" style="fill: #2ca02c; stroke: #000000; stroke-width: 0.4"/>
     <use xlink:href="#ma416db1846" x="107.511372" y="166.349958" style="fill: #2ca02c; stroke: #000000; stroke-width: 0.4"/>
    </g>
   </g>
   <g id="PathCollection_5">
    <defs>
     <path id="m9242df154e" d="M -1.5 3 
L 0 1.5 
L 1.5 3 
L 3 1.5 
L 1.5 0 
L 3 -1.5 
L 1.5 -3 
L 0 -1.5 
L -1.5 -3 
L -3 -1.5 
L -1.5 0 
L -3 1.5 
z
" style="stroke: #000000; stroke-width: 0.4"/>
    </defs>
    <g clip-path="url(#p75ca7d9fc6)">
     <use xlink:href="#m9242df154e" x="154.209948" y="161.636891" style="fill: #1a1a1a; stroke: #000000; stroke-width: 0.4"/>
     <use xlink:href="#m9242df154e" x="114.161077" y="156.923825" style="fill: #1a1a1a; stroke: #000000; stroke-width: 0.4"/>
     <use xlink:href="#m9242df154e" x="185.278734" y="79.158228" style="fill: #1a1a1a; stroke: #000000; stroke-width: 0.4"/>
     <use xlink:href="#m9242df154e" x="211.8165" y="142.54293" style="fill: #1a1a1a; stroke: #000000; stroke-width: 0.4"/>
     <use xlink:href="#m9242df154e" x="90.865134" y="149.323255" style="fill: #1a1a1a; stroke: #000000; stroke-width: 0.4"/>
    </g>
   </g>
   <g id="PathCollection_6">
    <defs>
     <path id="m61fef5b951" d="M 0 -3 
L -3 3 
L 3 3 
z
" style="stroke: #000000; stroke-width: 0.4"/>
    </defs>
    <g clip-path="url(#p75ca7d9fc6)">
     <use xlink:href="#m61fef5b951" x="122.707494" y="133.491438" style="fill: #2ca02c; stroke: #000000; stroke-width: 0.4"/>
     <use xlink:href="#m61fef5b951" x="192.783235" y="140.130587" style="fill: #2ca02c; stroke: #000000; stroke-width: 0.4"/>
     <use xlink:href="#m61fef5b951" x="142.812532" y="143.119623" style="fill: #2ca02c; stroke: #000000; stroke-width: 0.4"/>
     <use xlink:href="#m61fef5b951" x="198.73359" y="135.599509" style="fill: #2ca02c; stroke: #000000; stroke-width: 0.4"/>
     <use xlink:href="#m61fef5b951" x="165.605753" y="136.165539" style="fill: #2ca02c; stroke: #000000; stroke-width: 0.4"/>
    </g>
   </g>
   <g id="PathCollection_7">
    <defs>
     <path id="m1231283eca" d="M -0 3 
L 3 -3 
L -3 -3 
z
" style="stroke: #000000; stroke-width: 0.4"/>
    </defs>
    <g clip-path="url(#p75ca7d9fc6)">
     <use xlink:href="#m1231283eca" x="131.642732" y="117.358872" style="fill: #7f7f7f; stroke: #000000; stroke-width: 0.4"/>
     <use xlink:href="#m1231283eca" x="45.6865" y="130.37047" style="fill: #7f7f7f; stroke: #000000; stroke-width: 0.4"/>
     <use xlink:href="#m1231283eca" x="151.168044" y="103.416659" style="fill: #7f7f7f; stroke: #000000; stroke-width: 0.4"/>
     <use xlink:href="#m1231283eca" x="115.504176" y="118.648012" style="fill: #7f7f7f; stroke: #000000; stroke-width: 0.4"/>
     <use xlink:href="#m1231283eca" x="142.016836" y="153.295396" style="fill: #7f7f7f; stroke: #000000; stroke-width: 0.4"/>
    </g>
   </g>
   <g id="legend_1">
    <g id="PathCollection_8">
     <g>
      <use xlink:href="#m05f236559f" x="47.83" y="13.075653" style="fill: #e67e22; stroke: #000000; stroke-width: 0.4"/>
     </g>
    </g>
    <g id="text_16">
     <!-- 0.5:1 -->
     <g transform="translate(57.73 14.519403) scale(0.055 -0.055)">
      <defs>
       <path id="ArialMT-3a" d="M 578 2678 
L 578 3319 
L 1219 3319 
L 1219 2678 
L 578 2678 
z
M 578 0 
L 578 641 
L 1219 641 
L 1219 0 
L 578 0 
z
" transform="scale(0.015625)"/>
      </defs>
      <use xlink:href="#ArialMT-30"/>
      <use xlink:href="#ArialMT-2e" transform="translate(55.615234 0)"/>
      <use xlink:href="#ArialMT-35" transform="translate(83.398438 0)"/>
      <use xlink:href="#ArialMT-3a" transform="translate(139.013672 0)"/>
      <use xlink:href="#ArialMT-31" transform="translate(166.796875 0)"/>
     </g>
    </g>
    <g id="PathCollection_9">
     <g>
      <use xlink:href="#m613f9c9723" x="47.83" y="20.855575" style="fill: #1f77b4; stroke: #000000; stroke-width: 0.4"/>
     </g>
    </g>
    <g id="text_17">
     <!-- 1:1 -->
     <g transform="translate(57.73 22.299325) scale(0.055 -0.055)">
      <use xlink:href="#ArialMT-31"/>
      <use xlink:href="#ArialMT-3a" transform="translate(55.615234 0)"/>
      <use xlink:href="#ArialMT-31" transform="translate(83.398438 0)"/>
     </g>
    </g>
    <g id="PathCollection_10">
     <g>
      <use xlink:href="#md254fe6d23" x="47.83" y="28.635497" style="fill: #d62728; stroke: #000000; stroke-width: 0.4"/>
     </g>
    </g>
    <g id="text_18">
     <!-- 2:1 -->
     <g transform="translate(57.73 30.079247) scale(0.055 -0.055)">
      <use xlink:href="#ArialMT-32"/>
      <use xlink:href="#ArialMT-3a" transform="translate(55.615234 0)"/>
      <use xlink:href="#ArialMT-31" transform="translate(83.398438 0)"/>
     </g>
    </g>
    <g id="PathCollection_11">
     <g>
      <use xlink:href="#ma416db1846" x="47.83" y="36.415419" style="fill: #2ca02c; stroke: #000000; stroke-width: 0.4"/>
     </g>
    </g>
    <g id="text_19">
     <!-- Agar -->
     <g transform="translate(57.73 37.859169) scale(0.055 -0.055)">
      <defs>
       <path id="ArialMT-41" d="M -9 0 
L 1750 4581 
L 2403 4581 
L 4278 0 
L 3588 0 
L 3053 1388 
L 1138 1388 
L 634 0 
L -9 0 
z
M 1313 1881 
L 2866 1881 
L 2388 3150 
Q 2169 3728 2063 4100 
Q 1975 3659 1816 3225 
L 1313 1881 
z
" transform="scale(0.015625)"/>
       <path id="ArialMT-67" d="M 319 -275 
L 866 -356 
Q 900 -609 1056 -725 
Q 1266 -881 1628 -881 
Q 2019 -881 2231 -725 
Q 2444 -569 2519 -288 
Q 2563 -116 2559 434 
Q 2191 0 1641 0 
Q 956 0 581 494 
Q 206 988 206 1678 
Q 206 2153 378 2554 
Q 550 2956 876 3175 
Q 1203 3394 1644 3394 
Q 2231 3394 2613 2919 
L 2613 3319 
L 3131 3319 
L 3131 450 
Q 3131 -325 2973 -648 
Q 2816 -972 2473 -1159 
Q 2131 -1347 1631 -1347 
Q 1038 -1347 672 -1080 
Q 306 -813 319 -275 
z
M 784 1719 
Q 784 1066 1043 766 
Q 1303 466 1694 466 
Q 2081 466 2343 764 
Q 2606 1063 2606 1700 
Q 2606 2309 2336 2618 
Q 2066 2928 1684 2928 
Q 1309 2928 1046 2623 
Q 784 2319 784 1719 
z
" transform="scale(0.015625)"/>
       <path id="ArialMT-61" d="M 2588 409 
Q 2275 144 1986 34 
Q 1697 -75 1366 -75 
Q 819 -75 525 192 
Q 231 459 231 875 
Q 231 1119 342 1320 
Q 453 1522 633 1644 
Q 813 1766 1038 1828 
Q 1203 1872 1538 1913 
Q 2219 1994 2541 2106 
Q 2544 2222 2544 2253 
Q 2544 2597 2384 2738 
Q 2169 2928 1744 2928 
Q 1347 2928 1158 2789 
Q 969 2650 878 2297 
L 328 2372 
Q 403 2725 575 2942 
Q 747 3159 1072 3276 
Q 1397 3394 1825 3394 
Q 2250 3394 2515 3294 
Q 2781 3194 2906 3042 
Q 3031 2891 3081 2659 
Q 3109 2516 3109 2141 
L 3109 1391 
Q 3109 606 3145 398 
Q 3181 191 3288 0 
L 2700 0 
Q 2613 175 2588 409 
z
M 2541 1666 
Q 2234 1541 1622 1453 
Q 1275 1403 1131 1340 
Q 988 1278 909 1158 
Q 831 1038 831 891 
Q 831 666 1001 516 
Q 1172 366 1500 366 
Q 1825 366 2078 508 
Q 2331 650 2450 897 
Q 2541 1088 2541 1459 
L 2541 1666 
z
" transform="scale(0.015625)"/>
      </defs>
      <use xlink:href="#ArialMT-41"/>
      <use xlink:href="#ArialMT-67" transform="translate(66.699219 0)"/>
      <use xlink:href="#ArialMT-61" transform="translate(122.314453 0)"/>
      <use xlink:href="#ArialMT-72" transform="translate(177.929688 0)"/>
     </g>
    </g>
    <g id="PathCollection_12">
     <g>
      <use xlink:href="#m9242df154e" x="47.83" y="44.259794" style="fill: #1a1a1a; stroke: #000000; stroke-width: 0.4"/>
     </g>
    </g>
    <g id="text_20">
     <!-- Black -->
     <g transform="translate(57.73 45.703544) scale(0.055 -0.055)">
      <defs>
       <path id="ArialMT-42" d="M 469 0 
L 469 4581 
L 2188 4581 
Q 2713 4581 3030 4442 
Q 3347 4303 3526 4014 
Q 3706 3725 3706 3409 
Q 3706 3116 3547 2856 
Q 3388 2597 3066 2438 
Q 3481 2316 3704 2022 
Q 3928 1728 3928 1328 
Q 3928 1006 3792 729 
Q 3656 453 3456 303 
Q 3256 153 2954 76 
Q 2653 0 2216 0 
L 469 0 
z
M 1075 2656 
L 2066 2656 
Q 2469 2656 2644 2709 
Q 2875 2778 2992 2937 
Q 3109 3097 3109 3338 
Q 3109 3566 3000 3739 
Q 2891 3913 2687 3977 
Q 2484 4041 1991 4041 
L 1075 4041 
L 1075 2656 
z
M 1075 541 
L 2216 541 
Q 2509 541 2628 563 
Q 2838 600 2978 687 
Q 3119 775 3209 942 
Q 3300 1109 3300 1328 
Q 3300 1584 3169 1773 
Q 3038 1963 2805 2039 
Q 2572 2116 2134 2116 
L 1075 2116 
L 1075 541 
z
" transform="scale(0.015625)"/>
       <path id="ArialMT-6c" d="M 409 0 
L 409 4581 
L 972 4581 
L 972 0 
L 409 0 
z
" transform="scale(0.015625)"/>
       <path id="ArialMT-63" d="M 2588 1216 
L 3141 1144 
Q 3050 572 2676 248 
Q 2303 -75 1759 -75 
Q 1078 -75 664 370 
Q 250 816 250 1647 
Q 250 2184 428 2587 
Q 606 2991 970 3192 
Q 1334 3394 1763 3394 
Q 2303 3394 2647 3120 
Q 2991 2847 3088 2344 
L 2541 2259 
Q 2463 2594 2264 2762 
Q 2066 2931 1784 2931 
Q 1359 2931 1093 2626 
Q 828 2322 828 1663 
Q 828 994 1084 691 
Q 1341 388 1753 388 
Q 2084 388 2306 591 
Q 2528 794 2588 1216 
z
" transform="scale(0.015625)"/>
       <path id="ArialMT-6b" d="M 425 0 
L 425 4581 
L 988 4581 
L 988 1969 
L 2319 3319 
L 3047 3319 
L 1778 2088 
L 3175 0 
L 2481 0 
L 1384 1697 
L 988 1316 
L 988 0 
L 425 0 
z
" transform="scale(0.015625)"/>
      </defs>
      <use xlink:href="#ArialMT-42"/>
      <use xlink:href="#ArialMT-6c" transform="translate(66.699219 0)"/>
      <use xlink:href="#ArialMT-61" transform="translate(88.916016 0)"/>
      <use xlink:href="#ArialMT-63" transform="translate(144.53125 0)"/>
      <use xlink:href="#ArialMT-6b" transform="translate(194.53125 0)"/>
     </g>
    </g>
    <g id="PathCollection_13">
     <g>
      <use xlink:href="#m61fef5b951" x="47.83" y="52.039716" style="fill: #2ca02c; stroke: #000000; stroke-width: 0.4"/>
     </g>
    </g>
    <g id="text_21">
     <!-- Green -->
     <g transform="translate(57.73 53.483466) scale(0.055 -0.055)">
      <defs>
       <path id="ArialMT-47" d="M 2638 1797 
L 2638 2334 
L 4578 2338 
L 4578 638 
Q 4131 281 3656 101 
Q 3181 -78 2681 -78 
Q 2006 -78 1454 211 
Q 903 500 622 1047 
Q 341 1594 341 2269 
Q 341 2938 620 3517 
Q 900 4097 1425 4378 
Q 1950 4659 2634 4659 
Q 3131 4659 3532 4498 
Q 3934 4338 4162 4050 
Q 4391 3763 4509 3300 
L 3963 3150 
Q 3859 3500 3706 3700 
Q 3553 3900 3268 4020 
Q 2984 4141 2638 4141 
Q 2222 4141 1919 4014 
Q 1616 3888 1430 3681 
Q 1244 3475 1141 3228 
Q 966 2803 966 2306 
Q 966 1694 1177 1281 
Q 1388 869 1791 669 
Q 2194 469 2647 469 
Q 3041 469 3416 620 
Q 3791 772 3984 944 
L 3984 1797 
L 2638 1797 
z
" transform="scale(0.015625)"/>
       <path id="ArialMT-6e" d="M 422 0 
L 422 3319 
L 928 3319 
L 928 2847 
Q 1294 3394 1984 3394 
Q 2284 3394 2536 3286 
Q 2788 3178 2913 3003 
Q 3038 2828 3088 2588 
Q 3119 2431 3119 2041 
L 3119 0 
L 2556 0 
L 2556 2019 
Q 2556 2363 2490 2533 
Q 2425 2703 2258 2804 
Q 2091 2906 1866 2906 
Q 1506 2906 1245 2678 
Q 984 2450 984 1813 
L 984 0 
L 422 0 
z
" transform="scale(0.015625)"/>
      </defs>
      <use xlink:href="#ArialMT-47"/>
      <use xlink:href="#ArialMT-72" transform="translate(77.783203 0)"/>
      <use xlink:href="#ArialMT-65" transform="translate(111.083984 0)"/>
      <use xlink:href="#ArialMT-65" transform="translate(166.699219 0)"/>
      <use xlink:href="#ArialMT-6e" transform="translate(222.314453 0)"/>
     </g>
    </g>
    <g id="PathCollection_14">
     <g>
      <use xlink:href="#m1231283eca" x="47.83" y="59.819638" style="fill: #7f7f7f; stroke: #000000; stroke-width: 0.4"/>
     </g>
    </g>
    <g id="text_22">
     <!-- White -->
     <g transform="translate(57.73 61.263388) scale(0.055 -0.055)">
      <defs>
       <path id="ArialMT-57" d="M 1294 0 
L 78 4581 
L 700 4581 
L 1397 1578 
Q 1509 1106 1591 641 
Q 1766 1375 1797 1488 
L 2669 4581 
L 3400 4581 
L 4056 2263 
Q 4303 1400 4413 641 
Q 4500 1075 4641 1638 
L 5359 4581 
L 5969 4581 
L 4713 0 
L 4128 0 
L 3163 3491 
Q 3041 3928 3019 4028 
Q 2947 3713 2884 3491 
L 1913 0 
L 1294 0 
z
" transform="scale(0.015625)"/>
       <path id="ArialMT-68" d="M 422 0 
L 422 4581 
L 984 4581 
L 984 2938 
Q 1378 3394 1978 3394 
Q 2347 3394 2619 3248 
Q 2891 3103 3008 2847 
Q 3125 2591 3125 2103 
L 3125 0 
L 2563 0 
L 2563 2103 
Q 2563 2525 2380 2717 
Q 2197 2909 1863 2909 
Q 1613 2909 1392 2779 
Q 1172 2650 1078 2428 
Q 984 2206 984 1816 
L 984 0 
L 422 0 
z
" transform="scale(0.015625)"/>
       <path id="ArialMT-69" d="M 425 3934 
L 425 4581 
L 988 4581 
L 988 3934 
L 425 3934 
z
M 425 0 
L 425 3319 
L 988 3319 
L 988 0 
L 425 0 
z
" transform="scale(0.015625)"/>
       <path id="ArialMT-74" d="M 1650 503 
L 1731 6 
Q 1494 -44 1306 -44 
Q 1000 -44 831 53 
Q 663 150 594 308 
Q 525 466 525 972 
L 525 2881 
L 113 2881 
L 113 3319 
L 525 3319 
L 525 4141 
L 1084 4478 
L 1084 3319 
L 1650 3319 
L 1650 2881 
L 1084 2881 
L 1084 941 
Q 1084 700 1114 631 
Q 1144 563 1211 522 
Q 1278 481 1403 481 
Q 1497 481 1650 503 
z
" transform="scale(0.015625)"/>
      </defs>
      <use xlink:href="#ArialMT-57"/>
      <use xlink:href="#ArialMT-68" transform="translate(94.384766 0)"/>
      <use xlink:href="#ArialMT-69" transform="translate(150 0)"/>
      <use xlink:href="#ArialMT-74" transform="translate(172.216797 0)"/>
      <use xlink:href="#ArialMT-65" transform="translate(200 0)"/>
     </g>
    </g>
   </g>
  </g>
  <g id="axes_2">
   <g id="patch_7">
    <path d="M 270.74 175.237539 
L 453.483 175.237539 
L 453.483 5.632606 
L 270.74 5.632606 
z
" style="fill: #ffffff"/>
   </g>
   <g id="matplotlib.axis_3">
    <g id="xtick_8">
     <g id="line2d_14">
      <g>
       <use xlink:href="#mc60042a4b6" x="280.595252" y="175.237539" style="stroke: #000000; stroke-width: 0.6"/>
      </g>
     </g>
     <g id="text_23">
      <!-- 0.3 -->
      <g transform="translate(275.035252 187.463789) scale(0.08 -0.08)">
       <use xlink:href="#ArialMT-30"/>
       <use xlink:href="#ArialMT-2e" transform="translate(55.615234 0)"/>
       <use xlink:href="#ArialMT-33" transform="translate(83.398438 0)"/>
      </g>
     </g>
    </g>
    <g id="xtick_9">
     <g id="line2d_15">
      <g>
       <use xlink:href="#mc60042a4b6" x="306.858683" y="175.237539" style="stroke: #000000; stroke-width: 0.6"/>
      </g>
     </g>
     <g id="text_24">
      <!-- 0.4 -->
      <g transform="translate(301.298683 187.463789) scale(0.08 -0.08)">
       <use xlink:href="#ArialMT-30"/>
       <use xlink:href="#ArialMT-2e" transform="translate(55.615234 0)"/>
       <use xlink:href="#ArialMT-34" transform="translate(83.398438 0)"/>
      </g>
     </g>
    </g>
    <g id="xtick_10">
     <g id="line2d_16">
      <g>
       <use xlink:href="#mc60042a4b6" x="333.122114" y="175.237539" style="stroke: #000000; stroke-width: 0.6"/>
      </g>
     </g>
     <g id="text_25">
      <!-- 0.5 -->
      <g transform="translate(327.562114 187.463789) scale(0.08 -0.08)">
       <use xlink:href="#ArialMT-30"/>
       <use xlink:href="#ArialMT-2e" transform="translate(55.615234 0)"/>
       <use xlink:href="#ArialMT-35" transform="translate(83.398438 0)"/>
      </g>
     </g>
    </g>
    <g id="xtick_11">
     <g id="line2d_17">
      <g>
       <use xlink:href="#mc60042a4b6" x="359.385545" y="175.237539" style="stroke: #000000; stroke-width: 0.6"/>
      </g>
     </g>
     <g id="text_26">
      <!-- 0.6 -->
      <g transform="translate(353.825545 187.463789) scale(0.08 -0.08)">
       <use xlink:href="#ArialMT-30"/>
       <use xlink:href="#ArialMT-2e" transform="translate(55.615234 0)"/>
       <use xlink:href="#ArialMT-36" transform="translate(83.398438 0)"/>
      </g>
     </g>
    </g>
    <g id="xtick_12">
     <g id="line2d_18">
      <g>
       <use xlink:href="#mc60042a4b6" x="385.648976" y="175.237539" style="stroke: #000000; stroke-width: 0.6"/>
      </g>
     </g>
     <g id="text_27">
      <!-- 0.7 -->
      <g transform="translate(380.088976 187.463789) scale(0.08 -0.08)">
       <use xlink:href="#ArialMT-30"/>
       <use xlink:href="#ArialMT-2e" transform="translate(55.615234 0)"/>
       <use xlink:href="#ArialMT-37" transform="translate(83.398438 0)"/>
      </g>
     </g>
    </g>
    <g id="xtick_13">
     <g id="line2d_19">
      <g>
       <use xlink:href="#mc60042a4b6" x="411.912407" y="175.237539" style="stroke: #000000; stroke-width: 0.6"/>
      </g>
     </g>
     <g id="text_28">
      <!-- 0.8 -->
      <g transform="translate(406.352407 187.463789) scale(0.08 -0.08)">
       <use xlink:href="#ArialMT-30"/>
       <use xlink:href="#ArialMT-2e" transform="translate(55.615234 0)"/>
       <use xlink:href="#ArialMT-38" transform="translate(83.398438 0)"/>
      </g>
     </g>
    </g>
    <g id="xtick_14">
     <g id="line2d_20">
      <g>
       <use xlink:href="#mc60042a4b6" x="438.175838" y="175.237539" style="stroke: #000000; stroke-width: 0.6"/>
      </g>
     </g>
     <g id="text_29">
      <!-- 0.9 -->
      <g transform="translate(432.615838 187.463789) scale(0.08 -0.08)">
       <use xlink:href="#ArialMT-30"/>
       <use xlink:href="#ArialMT-2e" transform="translate(55.615234 0)"/>
       <use xlink:href="#ArialMT-39" transform="translate(83.398438 0)"/>
      </g>
     </g>
    </g>
    <g id="text_30">
     <!-- $K_{\mathrm{near}}$ / $K_{\mathrm{far}}$ -->
     <g transform="translate(342.6715 198.893789) scale(0.08 -0.08)">
      <use xlink:href="#ArialMT-4b" transform="translate(0 0.203125)"/>
      <use xlink:href="#DejaVuSans-6e" transform="translate(68.441563 -29.665625) scale(0.7)"/>
      <use xlink:href="#DejaVuSans-65" transform="translate(112.806797 -29.665625) scale(0.7)"/>
      <use xlink:href="#DejaVuSans-61" transform="translate(155.873203 -29.665625) scale(0.7)"/>
      <use xlink:href="#DejaVuSans-72" transform="translate(198.768711 -29.665625) scale(0.7)"/>
      <use xlink:href="#ArialMT-20" transform="translate(232.526133 0.203125)"/>
      <use xlink:href="#ArialMT-2f" transform="translate(260.309336 0.203125)"/>
      <use xlink:href="#ArialMT-20" transform="translate(288.092539 0.203125)"/>
      <use xlink:href="#ArialMT-4b" transform="translate(315.875742 0.203125)"/>
      <use xlink:href="#DejaVuSans-66" transform="translate(384.317305 -29.665625) scale(0.7)"/>
      <use xlink:href="#DejaVuSans-61" transform="translate(408.960859 -29.665625) scale(0.7)"/>
      <use xlink:href="#DejaVuSans-72" transform="translate(451.856367 -29.665625) scale(0.7)"/>
     </g>
    </g>
   </g>
   <g id="matplotlib.axis_4">
    <g id="ytick_6">
     <g id="line2d_21">
      <g>
       <use xlink:href="#ma359a8b60f" x="270.74" y="149.831724" style="stroke: #000000; stroke-width: 0.6"/>
      </g>
     </g>
     <g id="text_31">
      <!-- 0.0 -->
      <g transform="translate(253.12 152.694849) scale(0.08 -0.08)">
       <use xlink:href="#ArialMT-30"/>
       <use xlink:href="#ArialMT-2e" transform="translate(55.615234 0)"/>
       <use xlink:href="#ArialMT-30" transform="translate(83.398438 0)"/>
      </g>
     </g>
    </g>
    <g id="ytick_7">
     <g id="line2d_22">
      <g>
       <use xlink:href="#ma359a8b60f" x="270.74" y="113.989574" style="stroke: #000000; stroke-width: 0.6"/>
      </g>
     </g>
     <g id="text_32">
      <!-- 0.5 -->
      <g transform="translate(253.12 116.852699) scale(0.08 -0.08)">
       <use xlink:href="#ArialMT-30"/>
       <use xlink:href="#ArialMT-2e" transform="translate(55.615234 0)"/>
       <use xlink:href="#ArialMT-35" transform="translate(83.398438 0)"/>
      </g>
     </g>
    </g>
    <g id="ytick_8">
     <g id="line2d_23">
      <g>
       <use xlink:href="#ma359a8b60f" x="270.74" y="78.147425" style="stroke: #000000; stroke-width: 0.6"/>
      </g>
     </g>
     <g id="text_33">
      <!-- 1.0 -->
      <g transform="translate(253.12 81.01055) scale(0.08 -0.08)">
       <use xlink:href="#ArialMT-31"/>
       <use xlink:href="#ArialMT-2e" transform="translate(55.615234 0)"/>
       <use xlink:href="#ArialMT-30" transform="translate(83.398438 0)"/>
      </g>
     </g>
    </g>
    <g id="ytick_9">
     <g id="line2d_24">
      <g>
       <use xlink:href="#ma359a8b60f" x="270.74" y="42.305275" style="stroke: #000000; stroke-width: 0.6"/>
      </g>
     </g>
     <g id="text_34">
      <!-- 1.5 -->
      <g transform="translate(253.12 45.1684) scale(0.08 -0.08)">
       <use xlink:href="#ArialMT-31"/>
       <use xlink:href="#ArialMT-2e" transform="translate(55.615234 0)"/>
       <use xlink:href="#ArialMT-35" transform="translate(83.398438 0)"/>
      </g>
     </g>
    </g>
    <g id="ytick_10">
     <g id="line2d_25">
      <g>
       <use xlink:href="#ma359a8b60f" x="270.74" y="6.463125" style="stroke: #000000; stroke-width: 0.6"/>
      </g>
     </g>
     <g id="text_35">
      <!-- 2.0 -->
      <g transform="translate(253.12 9.32625) scale(0.08 -0.08)">
       <use xlink:href="#ArialMT-32"/>
       <use xlink:href="#ArialMT-2e" transform="translate(55.615234 0)"/>
       <use xlink:href="#ArialMT-30" transform="translate(83.398438 0)"/>
      </g>
     </g>
    </g>
    <g id="text_36">
     <!-- d$\tau_{50}$/d$r$ size-matched (s mm$^{-1}$) -->
     <g transform="translate(246.64 144.235073) rotate(-90) scale(0.08 -0.08)">
      <defs>
       <path id="ArialMT-7a" d="M 125 0 
L 125 456 
L 2238 2881 
Q 1878 2863 1603 2863 
L 250 2863 
L 250 3319 
L 2963 3319 
L 2963 2947 
L 1166 841 
L 819 456 
Q 1197 484 1528 484 
L 3063 484 
L 3063 0 
L 125 0 
z
" transform="scale(0.015625)"/>
       <path id="ArialMT-2d" d="M 203 1375 
L 203 1941 
L 1931 1941 
L 1931 1375 
L 203 1375 
z
" transform="scale(0.015625)"/>
      </defs>
      <use xlink:href="#ArialMT-64" transform="translate(0 0.99375)"/>
      <use xlink:href="#ArialMT-3c4" transform="translate(55.615234 0.99375)"/>
      <use xlink:href="#ArialMT-35" transform="translate(96.859531 -28.875) scale(0.7)"/>
      <use xlink:href="#ArialMT-30" transform="translate(135.790195 -28.875) scale(0.7)"/>
      <use xlink:href="#ArialMT-2f" transform="translate(179.698984 0.99375)"/>
      <use xlink:href="#ArialMT-64" transform="translate(207.482188 0.99375)"/>
      <use xlink:href="#ArialMT-72" transform="translate(263.097422 0.99375)"/>
      <use xlink:href="#ArialMT-20" transform="translate(296.398203 0.99375)"/>
      <use xlink:href="#ArialMT-73" transform="translate(324.181406 0.99375)"/>
      <use xlink:href="#ArialMT-69" transform="translate(374.181406 0.99375)"/>
      <use xlink:href="#ArialMT-7a" transform="translate(396.398203 0.99375)"/>
      <use xlink:href="#ArialMT-65" transform="translate(446.398203 0.99375)"/>
      <use xlink:href="#ArialMT-2d" transform="translate(502.013438 0.99375)"/>
      <use xlink:href="#ArialMT-6d" transform="translate(535.314219 0.99375)"/>
      <use xlink:href="#ArialMT-61" transform="translate(618.615 0.99375)"/>
      <use xlink:href="#ArialMT-74" transform="translate(674.230234 0.99375)"/>
      <use xlink:href="#ArialMT-63" transform="translate(702.013438 0.99375)"/>
      <use xlink:href="#ArialMT-68" transform="translate(752.013438 0.99375)"/>
      <use xlink:href="#ArialMT-65" transform="translate(807.628672 0.99375)"/>
      <use xlink:href="#ArialMT-64" transform="translate(863.243906 0.99375)"/>
      <use xlink:href="#ArialMT-20" transform="translate(918.859141 0.99375)"/>
      <use xlink:href="#ArialMT-28" transform="translate(946.642344 0.99375)"/>
      <use xlink:href="#ArialMT-73" transform="translate(979.943125 0.99375)"/>
      <use xlink:href="#ArialMT-20" transform="translate(1029.943125 0.99375)"/>
      <use xlink:href="#ArialMT-6d" transform="translate(1057.726328 0.99375)"/>
      <use xlink:href="#ArialMT-6d" transform="translate(1141.027109 0.99375)"/>
      <use xlink:href="#ArialMT-2212" transform="translate(1226.070234 70.6875) scale(0.7)"/>
      <use xlink:href="#ArialMT-31" transform="translate(1266.949141 70.6875) scale(0.7)"/>
      <use xlink:href="#ArialMT-29" transform="translate(1310.85793 0.99375)"/>
     </g>
    </g>
   </g>
   <g id="line2d_26">
    <path d="M 279.0465 100.633048 
L 280.724581 101.008933 
L 282.402662 101.384819 
L 284.080742 101.760704 
L 285.758823 102.136589 
L 287.436904 102.512475 
L 289.114985 102.88836 
L 290.793066 103.264245 
L 292.471146 103.640131 
L 294.149227 104.016016 
L 295.827308 104.391902 
L 297.505389 104.767787 
L 299.18347 105.143672 
L 300.861551 105.519558 
L 302.539631 105.895443 
L 304.217712 106.271328 
L 305.895793 106.647214 
L 307.573874 107.023099 
L 309.251955 107.398985 
L 310.930035 107.77487 
L 312.608116 108.150755 
L 314.286197 108.526641 
L 315.964278 108.902526 
L 317.642359 109.278411 
L 319.320439 109.654297 
L 320.99852 110.030182 
L 322.676601 110.406068 
L 324.354682 110.781953 
L 326.032763 111.157838 
L 327.710843 111.533724 
L 329.388924 111.909609 
L 331.067005 112.285494 
L 332.745086 112.66138 
L 334.423167 113.037265 
L 336.101247 113.413151 
L 337.779328 113.789036 
L 339.457409 114.164921 
L 341.13549 114.540807 
L 342.813571 114.916692 
L 344.491652 115.292577 
L 346.169732 115.668463 
L 347.847813 116.044348 
L 349.525894 116.420233 
L 351.203975 116.796119 
L 352.882056 117.172004 
L 354.560136 117.54789 
L 356.238217 117.923775 
L 357.916298 118.29966 
L 359.594379 118.675546 
L 361.27246 119.051431 
L 362.95054 119.427316 
L 364.628621 119.803202 
L 366.306702 120.179087 
L 367.984783 120.554973 
L 369.662864 120.930858 
L 371.340944 121.306743 
L 373.019025 121.682629 
L 374.697106 122.058514 
L 376.375187 122.434399 
L 378.053268 122.810285 
L 379.731348 123.18617 
L 381.409429 123.562056 
L 383.08751 123.937941 
L 384.765591 124.313826 
L 386.443672 124.689712 
L 388.121753 125.065597 
L 389.799833 125.441482 
L 391.477914 125.817368 
L 393.155995 126.193253 
L 394.834076 126.569138 
L 396.512157 126.945024 
L 398.190237 127.320909 
L 399.868318 127.696795 
L 401.546399 128.07268 
L 403.22448 128.448565 
L 404.902561 128.824451 
L 406.580641 129.200336 
L 408.258722 129.576221 
L 409.936803 129.952107 
L 411.614884 130.327992 
L 413.292965 130.703878 
L 414.971045 131.079763 
L 416.649126 131.455648 
L 418.327207 131.831534 
L 420.005288 132.207419 
L 421.683369 132.583304 
L 423.361449 132.95919 
L 425.03953 133.335075 
L 426.717611 133.710961 
L 428.395692 134.086846 
L 430.073773 134.462731 
L 431.751854 134.838617 
L 433.429934 135.214502 
L 435.108015 135.590387 
L 436.786096 135.966273 
L 438.464177 136.342158 
L 440.142258 136.718044 
L 441.820338 137.093929 
L 443.498419 137.469814 
L 445.1765 137.8457 
" clip-path="url(#p706f5da40f)" style="fill: none; stroke-dasharray: 2.96,1.28; stroke-dashoffset: 0; stroke: #000000; stroke-width: 0.8"/>
   </g>
   <g id="patch_8">
    <path d="M 270.74 175.237539 
L 270.74 5.632606 
" style="fill: none; stroke: #000000; stroke-width: 0.8; stroke-linejoin: miter; stroke-linecap: square"/>
   </g>
   <g id="patch_9">
    <path d="M 453.483 175.237539 
L 453.483 5.632606 
" style="fill: none; stroke: #000000; stroke-width: 0.8; stroke-linejoin: miter; stroke-linecap: square"/>
   </g>
   <g id="patch_10">
    <path d="M 270.74 175.237539 
L 453.483 175.237539 
" style="fill: none; stroke: #000000; stroke-width: 0.8; stroke-linejoin: miter; stroke-linecap: square"/>
   </g>
   <g id="patch_11">
    <path d="M 270.74 5.632606 
L 453.483 5.632606 
" style="fill: none; stroke: #000000; stroke-width: 0.8; stroke-linejoin: miter; stroke-linecap: square"/>
   </g>
   <g id="text_37">
    <!-- $R^2 = 0.06$ -->
    <g transform="translate(419.30071 157.96223) scale(0.07 -0.07)">
     <use xlink:href="#ArialMT-52" transform="translate(0 0.99375)"/>
     <use xlink:href="#ArialMT-32" transform="translate(73.959141 70.6875) scale(0.7)"/>
     <use xlink:href="#ArialMT-3d" transform="translate(137.350352 0.99375)"/>
     <use xlink:href="#ArialMT-30" transform="translate(215.231211 0.99375)"/>
     <use xlink:href="#ArialMT-2e" transform="translate(270.846445 0.99375)"/>
     <use xlink:href="#ArialMT-30" transform="translate(298.629648 0.99375)"/>
     <use xlink:href="#ArialMT-36" transform="translate(354.244883 0.99375)"/>
    </g>
    <!-- $P = 1.6e-01$ -->
    <g transform="translate(408.24071 165.366043) scale(0.07 -0.07)">
     <use xlink:href="#ArialMT-50" transform="translate(0 0.125)"/>
     <use xlink:href="#ArialMT-3d" transform="translate(86.181641 0.125)"/>
     <use xlink:href="#ArialMT-31" transform="translate(164.0625 0.125)"/>
     <use xlink:href="#ArialMT-2e" transform="translate(219.677734 0.125)"/>
     <use xlink:href="#ArialMT-36" transform="translate(247.460938 0.125)"/>
     <use xlink:href="#ArialMT-65" transform="translate(303.076172 0.125)"/>
     <use xlink:href="#ArialMT-2212" transform="translate(378.173828 0.125)"/>
     <use xlink:href="#ArialMT-30" transform="translate(456.054688 0.125)"/>
     <use xlink:href="#ArialMT-31" transform="translate(511.669922 0.125)"/>
    </g>
   </g>
   <g id="PathCollection_15">
    <g clip-path="url(#p706f5da40f)">
     <use xlink:href="#m05f236559f" x="372.244478" y="141.93933" style="fill: #e67e22; stroke: #000000; stroke-width: 0.4"/>
     <use xlink:href="#m05f236559f" x="320.042639" y="101.515101" style="fill: #e67e22; stroke: #000000; stroke-width: 0.4"/>
     <use xlink:href="#m05f236559f" x="343.60755" y="130.417226" style="fill: #e67e22; stroke: #000000; stroke-width: 0.4"/>
     <use xlink:href="#m05f236559f" x="368.824157" y="133.533935" style="fill: #e67e22; stroke: #000000; stroke-width: 0.4"/>
     <use xlink:href="#m05f236559f" x="285.068488" y="101.974308" style="fill: #e67e22; stroke: #000000; stroke-width: 0.4"/>
    </g>
   </g>
   <g id="PathCollection_16">
    <g clip-path="url(#p706f5da40f)">
     <use xlink:href="#m613f9c9723" x="290.196767" y="55.32593" style="fill: #1f77b4; stroke: #000000; stroke-width: 0.4"/>
     <use xlink:href="#m613f9c9723" x="349.353808" y="104.14283" style="fill: #1f77b4; stroke: #000000; stroke-width: 0.4"/>
     <use xlink:href="#m613f9c9723" x="321.535232" y="86.81256" style="fill: #1f77b4; stroke: #000000; stroke-width: 0.4"/>
     <use xlink:href="#m613f9c9723" x="439.221458" y="109.000557" style="fill: #1f77b4; stroke: #000000; stroke-width: 0.4"/>
     <use xlink:href="#m613f9c9723" x="288.309883" y="91.670287" style="fill: #1f77b4; stroke: #000000; stroke-width: 0.4"/>
    </g>
   </g>
   <g id="PathCollection_17">
    <g clip-path="url(#p706f5da40f)">
     <use xlink:href="#md254fe6d23" x="356.861107" y="55.338784" style="fill: #d62728; stroke: #000000; stroke-width: 0.4"/>
     <use xlink:href="#md254fe6d23" x="346.694691" y="42.681241" style="fill: #d62728; stroke: #000000; stroke-width: 0.4"/>
     <use xlink:href="#md254fe6d23" x="421.275226" y="72.173733" style="fill: #d62728; stroke: #000000; stroke-width: 0.4"/>
     <use xlink:href="#md254fe6d23" x="315.370011" y="34.744169" style="fill: #d62728; stroke: #000000; stroke-width: 0.4"/>
     <use xlink:href="#md254fe6d23" x="338.311943" y="13.341921" style="fill: #d62728; stroke: #000000; stroke-width: 0.4"/>
    </g>
   </g>
   <g id="PathCollection_18">
    <g clip-path="url(#p706f5da40f)">
     <use xlink:href="#ma416db1846" x="304.673736" y="152.830728" style="fill: #2ca02c; stroke: #000000; stroke-width: 0.4"/>
     <use xlink:href="#ma416db1846" x="334.662632" y="156.508203" style="fill: #2ca02c; stroke: #000000; stroke-width: 0.4"/>
     <use xlink:href="#ma416db1846" x="376.513262" y="166.750222" style="fill: #2ca02c; stroke: #000000; stroke-width: 0.4"/>
     <use xlink:href="#ma416db1846" x="390.120794" y="165.644437" style="fill: #2ca02c; stroke: #000000; stroke-width: 0.4"/>
     <use xlink:href="#ma416db1846" x="340.871372" y="167.528224" style="fill: #2ca02c; stroke: #000000; stroke-width: 0.4"/>
    </g>
   </g>
   <g id="PathCollection_19">
    <g clip-path="url(#p706f5da40f)">
     <use xlink:href="#m9242df154e" x="387.569948" y="149.831724" style="fill: #1a1a1a; stroke: #000000; stroke-width: 0.4"/>
     <use xlink:href="#m9242df154e" x="347.521077" y="149.831724" style="fill: #1a1a1a; stroke: #000000; stroke-width: 0.4"/>
     <use xlink:href="#m9242df154e" x="445.1765" y="148.84705" style="fill: #1a1a1a; stroke: #000000; stroke-width: 0.4"/>
     <use xlink:href="#m9242df154e" x="324.225134" y="144.121578" style="fill: #1a1a1a; stroke: #000000; stroke-width: 0.4"/>
    </g>
   </g>
   <g id="PathCollection_20">
    <g clip-path="url(#p706f5da40f)">
     <use xlink:href="#m61fef5b951" x="356.067494" y="124.432746" style="fill: #2ca02c; stroke: #000000; stroke-width: 0.4"/>
     <use xlink:href="#m61fef5b951" x="426.143235" y="128.439867" style="fill: #2ca02c; stroke: #000000; stroke-width: 0.4"/>
     <use xlink:href="#m61fef5b951" x="376.172532" y="136.654463" style="fill: #2ca02c; stroke: #000000; stroke-width: 0.4"/>
     <use xlink:href="#m61fef5b951" x="432.09359" y="139.85369" style="fill: #2ca02c; stroke: #000000; stroke-width: 0.4"/>
     <use xlink:href="#m61fef5b951" x="398.965753" y="126.844725" style="fill: #2ca02c; stroke: #000000; stroke-width: 0.4"/>
    </g>
   </g>
   <g id="PathCollection_21">
    <g clip-path="url(#p706f5da40f)">
     <use xlink:href="#m1231283eca" x="365.002732" y="126.343835" style="fill: #7f7f7f; stroke: #000000; stroke-width: 0.4"/>
     <use xlink:href="#m1231283eca" x="279.0465" y="145.790698" style="fill: #7f7f7f; stroke: #000000; stroke-width: 0.4"/>
     <use xlink:href="#m1231283eca" x="384.528044" y="113.483568" style="fill: #7f7f7f; stroke: #000000; stroke-width: 0.4"/>
     <use xlink:href="#m1231283eca" x="348.864176" y="149.831724" style="fill: #7f7f7f; stroke: #000000; stroke-width: 0.4"/>
     <use xlink:href="#m1231283eca" x="375.376836" y="149.831724" style="fill: #7f7f7f; stroke: #000000; stroke-width: 0.4"/>
    </g>
   </g>
  </g>
 </g>
 <defs>
  <clipPath id="p75ca7d9fc6">
   <rect x="37.38" y="5.632606" width="182.743" height="169.604933"/>
  </clipPath>
  <clipPath id="p706f5da40f">
   <rect x="270.74" y="5.632606" width="182.743" height="169.604933"/>
  </clipPath>
 </defs>
</svg>
