<?xml version="1.0" encoding="utf-8" standalone="no"?>
<!DOCTYPE svg PUBLIC "-//W3C//DTD SVG 1.1//EN"
  "http://www.w3.org/Graphics/SVG/1.1/DTD/svg11.dtd">
<svg xmlns:xlink="http://www.w3.org/1999/xlink" width="252pt" height="187.2pt" viewBox="0 0 252 187.2" xmlns="http://www.w3.org/2000/svg" version="1.1">
 <metadata>
  <rdf:RDF xmlns:dc="http://purl.org/dc/elements/1.1/" xmlns:cc="http://creativecommons.org/ns#" xmlns:rdf="http://www.w3.org/1999/02/22-rdf-syntax-ns#">
   <cc:Work>
    <dc:type rdf:resource="http://purl.org/dc/dcmitype/StillImage"/>
    <dc:date>2026-03-10T04:25:10.844188</dc:date>
    <dc:format>image/svg+xml</dc:format>
    <dc:creator>
     <cc:Agent>
      <dc:title>Matplotlib v3.10.8, https://matplotlib.org/</dc:title>
     </cc:Agent>
    </dc:creator>
   </cc:Work>
  </rdf:RDF>
 </metadata>
 <defs>
  <style type="text/css">*{stroke-linejoin: round; stroke-linecap: butt}</style>
 </defs>
 <g id="figure_1">
  <g id="patch_1">
   <path d="M 0 187.2 
L 252 187.2 
L 252 0 
L 0 0 
z
" style="fill: #ffffff"/>
  </g>
  <g id="axes_1">
   <g id="patch_2">
    <path d="M 46.248 153.6225 
L 243.36 153.6225 
L 243.36 8.64 
L 46.248 8.64 
z
" style="fill: #ffffff"/>
   </g>
   <g id="FillBetweenPolyCollection_1">
    <defs>
     <path id="m07a339c396" d="M 79.98355 -98.703407 
L 79.98355 -60.923556 
L 89.622279 -49.908215 
L 99.261007 -55.225767 
L 108.899736 -66.123429 
L 118.538465 -60.608542 
L 128.177193 -65.311193 
L 137.815922 -54.320963 
L 147.45465 -65.410653 
L 157.093379 -71.145325 
L 166.732108 -58.988242 
L 176.370836 -65.818809 
L 186.009565 -65.100137 
L 195.648293 -69.393618 
L 205.287022 -56.042849 
L 205.287022 -150.353586 
L 205.287022 -150.353586 
L 195.648293 -93.486869 
L 186.009565 -99.177043 
L 176.370836 -88.691407 
L 166.732108 -95.676049 
L 157.093379 -97.762013 
L 147.45465 -153.560015 
L 137.815922 -108.746236 
L 128.177193 -130.864027 
L 118.538465 -171.864964 
L 108.899736 -117.053992 
L 99.261007 -89.02547 
L 89.622279 -76.77516 
L 79.98355 -98.703407 
z
"/>
    </defs>
    <g clip-path="url(#p061d561ebf)">
     <use xlink:href="#m07a339c396" x="0" y="187.2" style="fill: #d62728; fill-opacity: 0.15"/>
    </g>
   </g>
   <g id="FillBetweenPolyCollection_2">
    <defs>
     <path id="m71f721e917" d="M 51.067364 -62.163972 
L 51.067364 -48.671162 
L 60.706093 -47.809827 
L 70.344822 -48.572498 
L 79.98355 -49.716731 
L 89.622279 -50.52706 
L 99.261007 -50.580857 
L 108.899736 -58.854414 
L 118.538465 -54.377642 
L 128.177193 -52.817845 
L 137.815922 -56.722715 
L 147.45465 -60.18746 
L 157.093379 -62.180157 
L 166.732108 -62.580744 
L 176.370836 -70.468481 
L 186.009565 -62.422758 
L 195.648293 -51.301699 
L 195.648293 -65.887908 
L 195.648293 -65.887908 
L 186.009565 -87.253688 
L 176.370836 -81.306424 
L 166.732108 -78.9282 
L 157.093379 -73.037301 
L 147.45465 -69.810367 
L 137.815922 -74.029261 
L 128.177193 -65.670177 
L 118.538465 -64.255932 
L 108.899736 -67.299677 
L 99.261007 -62.759632 
L 89.622279 -66.122339 
L 79.98355 -60.089974 
L 70.344822 -62.236283 
L 60.706093 -65.489874 
L 51.067364 -62.163972 
z
"/>
    </defs>
    <g clip-path="url(#p061d561ebf)">
     <use xlink:href="#m71f721e917" x="0" y="187.2" style="fill: #1f77b4; fill-opacity: 0.15"/>
    </g>
   </g>
   <g id="FillBetweenPolyCollection_3">
    <defs>
     <path id="mf1251f39b3" d="M 51.067364 -60.488475 
L 51.067364 -37.964237 
L 60.706093 -47.1152 
L 70.344822 -68.173835 
L 79.98355 -81.959504 
L 89.622279 -114.753375 
L 99.261007 -90.687994 
L 108.899736 -66.247851 
L 118.538465 -84.923808 
L 128.177193 -55.612771 
L 137.815922 -72.65317 
L 147.45465 -64.705438 
L 157.093379 -65.049956 
L 166.732108 -56.134025 
L 176.370836 -57.501909 
L 186.009565 -53.497589 
L 195.648293 -55.367497 
L 205.287022 -56.268262 
L 214.925751 -50.071634 
L 224.564479 -51.65241 
L 234.203208 -54.617906 
L 234.203208 -97.890625 
L 234.203208 -97.890625 
L 224.564479 -68.869203 
L 214.925751 -63.77115 
L 205.287022 -69.740931 
L 195.648293 -69.485585 
L 186.009565 -71.521271 
L 176.370836 -81.919009 
L 166.732108 -86.762178 
L 157.093379 -87.700662 
L 147.45465 -90.721989 
L 137.815922 -121.938654 
L 128.177193 -124.265185 
L 118.538465 -135.971704 
L 108.899736 -127.015729 
L 99.261007 -142.070264 
L 89.622279 -149.472327 
L 79.98355 -134.715568 
L 70.344822 -130.048681 
L 60.706093 -100.709057 
L 51.067364 -60.488475 
z
"/>
    </defs>
    <g clip-path="url(#p061d561ebf)">
     <use xlink:href="#mf1251f39b3" x="0" y="187.2" style="fill: #2ca02c; fill-opacity: 0.15"/>
    </g>
   </g>
   <g id="matplotlib.axis_1">
    <g id="xtick_1">
     <g id="line2d_1">
      <defs>
       <path id="mcb6e20381e" d="M 0 0 
L 0 3 
" style="stroke: #000000; stroke-width: 0.6"/>
      </defs>
      <g>
       <use xlink:href="#mcb6e20381e" x="46.248" y="153.6225" style="stroke: #000000; stroke-width: 0.6"/>
      </g>
     </g>
     <g id="text_1">
      <!-- 0 -->
      <g transform="translate(44.023625 165.84875) scale(0.08 -0.08)">
       <defs>
        <path id="ArialMT-30" d="M 266 2259 
Q 266 3072 433 3567 
Q 600 4063 929 4331 
Q 1259 4600 1759 4600 
Q 2128 4600 2406 4451 
Q 2684 4303 2865 4023 
Q 3047 3744 3150 3342 
Q 3253 2941 3253 2259 
Q 3253 1453 3087 958 
Q 2922 463 2592 192 
Q 2263 -78 1759 -78 
Q 1097 -78 719 397 
Q 266 969 266 2259 
z
M 844 2259 
Q 844 1131 1108 757 
Q 1372 384 1759 384 
Q 2147 384 2411 759 
Q 2675 1134 2675 2259 
Q 2675 3391 2411 3762 
Q 2147 4134 1753 4134 
Q 1366 4134 1134 3806 
Q 844 3388 844 2259 
z
" transform="scale(0.015625)"/>
       </defs>
       <use xlink:href="#ArialMT-30"/>
      </g>
     </g>
    </g>
    <g id="xtick_2">
     <g id="line2d_2">
      <g>
       <use xlink:href="#mcb6e20381e" x="94.441643" y="153.6225" style="stroke: #000000; stroke-width: 0.6"/>
      </g>
     </g>
     <g id="text_2">
      <!-- 1 -->
      <g transform="translate(92.217268 165.84875) scale(0.08 -0.08)">
       <defs>
        <path id="ArialMT-31" d="M 2384 0 
L 1822 0 
L 1822 3584 
Q 1619 3391 1289 3197 
Q 959 3003 697 2906 
L 697 3450 
Q 1169 3672 1522 3987 
Q 1875 4303 2022 4600 
L 2384 4600 
L 2384 0 
z
" transform="scale(0.015625)"/>
       </defs>
       <use xlink:href="#ArialMT-31"/>
      </g>
     </g>
    </g>
    <g id="xtick_3">
     <g id="line2d_3">
      <g>
       <use xlink:href="#mcb6e20381e" x="142.635286" y="153.6225" style="stroke: #000000; stroke-width: 0.6"/>
      </g>
     </g>
     <g id="text_3">
      <!-- 2 -->
      <g transform="translate(140.410911 165.84875) scale(0.08 -0.08)">
       <defs>
        <path id="ArialMT-32" d="M 3222 541 
L 3222 0 
L 194 0 
Q 188 203 259 391 
Q 375 700 629 1000 
Q 884 1300 1366 1694 
Q 2113 2306 2375 2664 
Q 2638 3022 2638 3341 
Q 2638 3675 2398 3904 
Q 2159 4134 1775 4134 
Q 1369 4134 1125 3890 
Q 881 3647 878 3216 
L 300 3275 
Q 359 3922 746 4261 
Q 1134 4600 1788 4600 
Q 2447 4600 2831 4234 
Q 3216 3869 3216 3328 
Q 3216 3053 3103 2787 
Q 2991 2522 2730 2228 
Q 2469 1934 1863 1422 
Q 1356 997 1212 845 
Q 1069 694 975 541 
L 3222 541 
z
" transform="scale(0.015625)"/>
       </defs>
       <use xlink:href="#ArialMT-32"/>
      </g>
     </g>
    </g>
    <g id="xtick_4">
     <g id="line2d_4">
      <g>
       <use xlink:href="#mcb6e20381e" x="190.828929" y="153.6225" style="stroke: #000000; stroke-width: 0.6"/>
      </g>
     </g>
     <g id="text_4">
      <!-- 3 -->
      <g transform="translate(188.604554 165.84875) scale(0.08 -0.08)">
       <defs>
        <path id="ArialMT-33" d="M 269 1209 
L 831 1284 
Q 928 806 1161 595 
Q 1394 384 1728 384 
Q 2125 384 2398 659 
Q 2672 934 2672 1341 
Q 2672 1728 2419 1979 
Q 2166 2231 1775 2231 
Q 1616 2231 1378 2169 
L 1441 2663 
Q 1497 2656 1531 2656 
Q 1891 2656 2178 2843 
Q 2466 3031 2466 3422 
Q 2466 3731 2256 3934 
Q 2047 4138 1716 4138 
Q 1388 4138 1169 3931 
Q 950 3725 888 3313 
L 325 3413 
Q 428 3978 793 4289 
Q 1159 4600 1703 4600 
Q 2078 4600 2393 4439 
Q 2709 4278 2876 4000 
Q 3044 3722 3044 3409 
Q 3044 3113 2884 2869 
Q 2725 2625 2413 2481 
Q 2819 2388 3044 2092 
Q 3269 1797 3269 1353 
Q 3269 753 2831 336 
Q 2394 -81 1725 -81 
Q 1122 -81 723 278 
Q 325 638 269 1209 
z
" transform="scale(0.015625)"/>
       </defs>
       <use xlink:href="#ArialMT-33"/>
      </g>
     </g>
    </g>
    <g id="xtick_5">
     <g id="line2d_5">
      <g>
       <use xlink:href="#mcb6e20381e" x="239.022572" y="153.6225" style="stroke: #000000; stroke-width: 0.6"/>
      </g>
     </g>
     <g id="text_5">
      <!-- 4 -->
      <g transform="translate(236.798197 165.84875) scale(0.08 -0.08)">
       <defs>
        <path id="ArialMT-34" d="M 2069 0 
L 2069 1097 
L 81 1097 
L 81 1613 
L 2172 4581 
L 2631 4581 
L 2631 1613 
L 3250 1613 
L 3250 1097 
L 2631 1097 
L 2631 0 
L 2069 0 
z
M 2069 1613 
L 2069 3678 
L 634 1613 
L 2069 1613 
z
" transform="scale(0.015625)"/>
       </defs>
       <use xlink:href="#ArialMT-34"/>
      </g>
     </g>
    </g>
    <g id="text_6">
     <!-- Distance from source (mm) -->
     <g transform="translate(96.5765 177.2625) scale(0.08 -0.08)">
      <defs>
       <path id="ArialMT-44" d="M 494 0 
L 494 4581 
L 2072 4581 
Q 2606 4581 2888 4516 
Q 3281 4425 3559 4188 
Q 3922 3881 4101 3404 
Q 4281 2928 4281 2316 
Q 4281 1794 4159 1391 
Q 4038 988 3847 723 
Q 3656 459 3429 307 
Q 3203 156 2883 78 
Q 2563 0 2147 0 
L 494 0 
z
M 1100 541 
L 2078 541 
Q 2531 541 2789 625 
Q 3047 709 3200 863 
Q 3416 1078 3536 1442 
Q 3656 1806 3656 2325 
Q 3656 3044 3420 3430 
Q 3184 3816 2847 3947 
Q 2603 4041 2063 4041 
L 1100 4041 
L 1100 541 
z
" transform="scale(0.015625)"/>
       <path id="ArialMT-69" d="M 425 3934 
L 425 4581 
L 988 4581 
L 988 3934 
L 425 3934 
z
M 425 0 
L 425 3319 
L 988 3319 
L 988 0 
L 425 0 
z
" transform="scale(0.015625)"/>
       <path id="ArialMT-73" d="M 197 991 
L 753 1078 
Q 800 744 1014 566 
Q 1228 388 1613 388 
Q 2000 388 2187 545 
Q 2375 703 2375 916 
Q 2375 1106 2209 1216 
Q 2094 1291 1634 1406 
Q 1016 1563 777 1677 
Q 538 1791 414 1992 
Q 291 2194 291 2438 
Q 291 2659 392 2848 
Q 494 3038 669 3163 
Q 800 3259 1026 3326 
Q 1253 3394 1513 3394 
Q 1903 3394 2198 3281 
Q 2494 3169 2634 2976 
Q 2775 2784 2828 2463 
L 2278 2388 
Q 2241 2644 2061 2787 
Q 1881 2931 1553 2931 
Q 1166 2931 1000 2803 
Q 834 2675 834 2503 
Q 834 2394 903 2306 
Q 972 2216 1119 2156 
Q 1203 2125 1616 2013 
Q 2213 1853 2448 1751 
Q 2684 1650 2818 1456 
Q 2953 1263 2953 975 
Q 2953 694 2789 445 
Q 2625 197 2315 61 
Q 2006 -75 1616 -75 
Q 969 -75 630 194 
Q 291 463 197 991 
z
" transform="scale(0.015625)"/>
       <path id="ArialMT-74" d="M 1650 503 
L 1731 6 
Q 1494 -44 1306 -44 
Q 1000 -44 831 53 
Q 663 150 594 308 
Q 525 466 525 972 
L 525 2881 
L 113 2881 
L 113 3319 
L 525 3319 
L 525 4141 
L 1084 4478 
L 1084 3319 
L 1650 3319 
L 1650 2881 
L 1084 2881 
L 1084 941 
Q 1084 700 1114 631 
Q 1144 563 1211 522 
Q 1278 481 1403 481 
Q 1497 481 1650 503 
z
" transform="scale(0.015625)"/>
       <path id="ArialMT-61" d="M 2588 409 
Q 2275 144 1986 34 
Q 1697 -75 1366 -75 
Q 819 -75 525 192 
Q 231 459 231 875 
Q 231 1119 342 1320 
Q 453 1522 633 1644 
Q 813 1766 1038 1828 
Q 1203 1872 1538 1913 
Q 2219 1994 2541 2106 
Q 2544 2222 2544 2253 
Q 2544 2597 2384 2738 
Q 2169 2928 1744 2928 
Q 1347 2928 1158 2789 
Q 969 2650 878 2297 
L 328 2372 
Q 403 2725 575 2942 
Q 747 3159 1072 3276 
Q 1397 3394 1825 3394 
Q 2250 3394 2515 3294 
Q 2781 3194 2906 3042 
Q 3031 2891 3081 2659 
Q 3109 2516 3109 2141 
L 3109 1391 
Q 3109 606 3145 398 
Q 3181 191 3288 0 
L 2700 0 
Q 2613 175 2588 409 
z
M 2541 1666 
Q 2234 1541 1622 1453 
Q 1275 1403 1131 1340 
Q 988 1278 909 1158 
Q 831 1038 831 891 
Q 831 666 1001 516 
Q 1172 366 1500 366 
Q 1825 366 2078 508 
Q 2331 650 2450 897 
Q 2541 1088 2541 1459 
L 2541 1666 
z
" transform="scale(0.015625)"/>
       <path id="ArialMT-6e" d="M 422 0 
L 422 3319 
L 928 3319 
L 928 2847 
Q 1294 3394 1984 3394 
Q 2284 3394 2536 3286 
Q 2788 3178 2913 3003 
Q 3038 2828 3088 2588 
Q 3119 2431 3119 2041 
L 3119 0 
L 2556 0 
L 2556 2019 
Q 2556 2363 2490 2533 
Q 2425 2703 2258 2804 
Q 2091 2906 1866 2906 
Q 1506 2906 1245 2678 
Q 984 2450 984 1813 
L 984 0 
L 422 0 
z
" transform="scale(0.015625)"/>
       <path id="ArialMT-63" d="M 2588 1216 
L 3141 1144 
Q 3050 572 2676 248 
Q 2303 -75 1759 -75 
Q 1078 -75 664 370 
Q 250 816 250 1647 
Q 250 2184 428 2587 
Q 606 2991 970 3192 
Q 1334 3394 1763 3394 
Q 2303 3394 2647 3120 
Q 2991 2847 3088 2344 
L 2541 2259 
Q 2463 2594 2264 2762 
Q 2066 2931 1784 2931 
Q 1359 2931 1093 2626 
Q 828 2322 828 1663 
Q 828 994 1084 691 
Q 1341 388 1753 388 
Q 2084 388 2306 591 
Q 2528 794 2588 1216 
z
" transform="scale(0.015625)"/>
       <path id="ArialMT-65" d="M 2694 1069 
L 3275 997 
Q 3138 488 2766 206 
Q 2394 -75 1816 -75 
Q 1088 -75 661 373 
Q 234 822 234 1631 
Q 234 2469 665 2931 
Q 1097 3394 1784 3394 
Q 2450 3394 2872 2941 
Q 3294 2488 3294 1666 
Q 3294 1616 3291 1516 
L 816 1516 
Q 847 969 1125 678 
Q 1403 388 1819 388 
Q 2128 388 2347 550 
Q 2566 713 2694 1069 
z
M 847 1978 
L 2700 1978 
Q 2663 2397 2488 2606 
Q 2219 2931 1791 2931 
Q 1403 2931 1139 2672 
Q 875 2413 847 1978 
z
" transform="scale(0.015625)"/>
       <path id="ArialMT-20" transform="scale(0.015625)"/>
       <path id="ArialMT-66" d="M 556 0 
L 556 2881 
L 59 2881 
L 59 3319 
L 556 3319 
L 556 3672 
Q 556 4006 616 4169 
Q 697 4388 901 4523 
Q 1106 4659 1475 4659 
Q 1713 4659 2000 4603 
L 1916 4113 
Q 1741 4144 1584 4144 
Q 1328 4144 1222 4034 
Q 1116 3925 1116 3625 
L 1116 3319 
L 1763 3319 
L 1763 2881 
L 1116 2881 
L 1116 0 
L 556 0 
z
" transform="scale(0.015625)"/>
       <path id="ArialMT-72" d="M 416 0 
L 416 3319 
L 922 3319 
L 922 2816 
Q 1116 3169 1280 3281 
Q 1444 3394 1641 3394 
Q 1925 3394 2219 3213 
L 2025 2691 
Q 1819 2813 1613 2813 
Q 1428 2813 1281 2702 
Q 1134 2591 1072 2394 
Q 978 2094 978 1738 
L 978 0 
L 416 0 
z
" transform="scale(0.015625)"/>
       <path id="ArialMT-6f" d="M 213 1659 
Q 213 2581 725 3025 
Q 1153 3394 1769 3394 
Q 2453 3394 2887 2945 
Q 3322 2497 3322 1706 
Q 3322 1066 3130 698 
Q 2938 331 2570 128 
Q 2203 -75 1769 -75 
Q 1072 -75 642 372 
Q 213 819 213 1659 
z
M 791 1659 
Q 791 1022 1069 705 
Q 1347 388 1769 388 
Q 2188 388 2466 706 
Q 2744 1025 2744 1678 
Q 2744 2294 2464 2611 
Q 2184 2928 1769 2928 
Q 1347 2928 1069 2612 
Q 791 2297 791 1659 
z
" transform="scale(0.015625)"/>
       <path id="ArialMT-6d" d="M 422 0 
L 422 3319 
L 925 3319 
L 925 2853 
Q 1081 3097 1340 3245 
Q 1600 3394 1931 3394 
Q 2300 3394 2536 3241 
Q 2772 3088 2869 2813 
Q 3263 3394 3894 3394 
Q 4388 3394 4653 3120 
Q 4919 2847 4919 2278 
L 4919 0 
L 4359 0 
L 4359 2091 
Q 4359 2428 4304 2576 
Q 4250 2725 4106 2815 
Q 3963 2906 3769 2906 
Q 3419 2906 3187 2673 
Q 2956 2441 2956 1928 
L 2956 0 
L 2394 0 
L 2394 2156 
Q 2394 2531 2256 2718 
Q 2119 2906 1806 2906 
Q 1569 2906 1367 2781 
Q 1166 2656 1075 2415 
Q 984 2175 984 1722 
L 984 0 
L 422 0 
z
" transform="scale(0.015625)"/>
       <path id="ArialMT-75" d="M 2597 0 
L 2597 488 
Q 2209 -75 1544 -75 
Q 1250 -75 995 37 
Q 741 150 617 320 
Q 494 491 444 738 
Q 409 903 409 1263 
L 409 3319 
L 972 3319 
L 972 1478 
Q 972 1038 1006 884 
Q 1059 663 1231 536 
Q 1403 409 1656 409 
Q 1909 409 2131 539 
Q 2353 669 2445 892 
Q 2538 1116 2538 1541 
L 2538 3319 
L 3100 3319 
L 3100 0 
L 2597 0 
z
" transform="scale(0.015625)"/>
       <path id="ArialMT-28" d="M 1497 -1347 
Q 1031 -759 709 28 
Q 388 816 388 1659 
Q 388 2403 628 3084 
Q 909 3875 1497 4659 
L 1900 4659 
Q 1522 4009 1400 3731 
Q 1209 3300 1100 2831 
Q 966 2247 966 1656 
Q 966 153 1900 -1347 
L 1497 -1347 
z
" transform="scale(0.015625)"/>
       <path id="ArialMT-29" d="M 791 -1347 
L 388 -1347 
Q 1322 153 1322 1656 
Q 1322 2244 1188 2822 
Q 1081 3291 891 3722 
Q 769 4003 388 4659 
L 791 4659 
Q 1378 3875 1659 3084 
Q 1900 2403 1900 1659 
Q 1900 816 1576 28 
Q 1253 -759 791 -1347 
z
" transform="scale(0.015625)"/>
      </defs>
      <use xlink:href="#ArialMT-44"/>
      <use xlink:href="#ArialMT-69" transform="translate(72.216797 0)"/>
      <use xlink:href="#ArialMT-73" transform="translate(94.433594 0)"/>
      <use xlink:href="#ArialMT-74" transform="translate(144.433594 0)"/>
      <use xlink:href="#ArialMT-61" transform="translate(172.216797 0)"/>
      <use xlink:href="#ArialMT-6e" transform="translate(227.832031 0)"/>
      <use xlink:href="#ArialMT-63" transform="translate(283.447266 0)"/>
      <use xlink:href="#ArialMT-65" transform="translate(333.447266 0)"/>
      <use xlink:href="#ArialMT-20" transform="translate(389.0625 0)"/>
      <use xlink:href="#ArialMT-66" transform="translate(416.845703 0)"/>
      <use xlink:href="#ArialMT-72" transform="translate(444.628906 0)"/>
      <use xlink:href="#ArialMT-6f" transform="translate(477.929688 0)"/>
      <use xlink:href="#ArialMT-6d" transform="translate(533.544922 0)"/>
      <use xlink:href="#ArialMT-20" transform="translate(616.845703 0)"/>
      <use xlink:href="#ArialMT-73" transform="translate(644.628906 0)"/>
      <use xlink:href="#ArialMT-6f" transform="translate(694.628906 0)"/>
      <use xlink:href="#ArialMT-75" transform="translate(750.244141 0)"/>
      <use xlink:href="#ArialMT-72" transform="translate(805.859375 0)"/>
      <use xlink:href="#ArialMT-63" transform="translate(839.160156 0)"/>
      <use xlink:href="#ArialMT-65" transform="translate(889.160156 0)"/>
      <use xlink:href="#ArialMT-20" transform="translate(944.775391 0)"/>
      <use xlink:href="#ArialMT-28" transform="translate(972.558594 0)"/>
      <use xlink:href="#ArialMT-6d" transform="translate(1005.859375 0)"/>
      <use xlink:href="#ArialMT-6d" transform="translate(1089.160156 0)"/>
      <use xlink:href="#ArialMT-29" transform="translate(1172.460938 0)"/>
     </g>
    </g>
   </g>
   <g id="matplotlib.axis_2">
    <g id="ytick_1">
     <g id="line2d_6">
      <defs>
       <path id="m96188e6046" d="M 0 0 
L -3 0 
" style="stroke: #000000; stroke-width: 0.6"/>
      </defs>
      <g>
       <use xlink:href="#m96188e6046" x="46.248" y="153.6225" style="stroke: #000000; stroke-width: 0.6"/>
      </g>
     </g>
     <g id="text_7">
      <!-- 0.0 -->
      <g transform="translate(28.628 156.485625) scale(0.08 -0.08)">
       <defs>
        <path id="ArialMT-2e" d="M 581 0 
L 581 641 
L 1222 641 
L 1222 0 
L 581 0 
z
" transform="scale(0.015625)"/>
       </defs>
       <use xlink:href="#ArialMT-30"/>
       <use xlink:href="#ArialMT-2e" transform="translate(55.615234 0)"/>
       <use xlink:href="#ArialMT-30" transform="translate(83.398438 0)"/>
      </g>
     </g>
    </g>
    <g id="ytick_2">
     <g id="line2d_7">
      <g>
       <use xlink:href="#m96188e6046" x="46.248" y="136.357202" style="stroke: #000000; stroke-width: 0.6"/>
      </g>
     </g>
     <g id="text_8">
      <!-- 2.5 -->
      <g transform="translate(28.628 139.220327) scale(0.08 -0.08)">
       <defs>
        <path id="ArialMT-35" d="M 266 1200 
L 856 1250 
Q 922 819 1161 601 
Q 1400 384 1738 384 
Q 2144 384 2425 690 
Q 2706 997 2706 1503 
Q 2706 1984 2436 2262 
Q 2166 2541 1728 2541 
Q 1456 2541 1237 2417 
Q 1019 2294 894 2097 
L 366 2166 
L 809 4519 
L 3088 4519 
L 3088 3981 
L 1259 3981 
L 1013 2750 
Q 1425 3038 1878 3038 
Q 2478 3038 2890 2622 
Q 3303 2206 3303 1553 
Q 3303 931 2941 478 
Q 2500 -78 1738 -78 
Q 1113 -78 717 272 
Q 322 622 266 1200 
z
" transform="scale(0.015625)"/>
       </defs>
       <use xlink:href="#ArialMT-32"/>
       <use xlink:href="#ArialMT-2e" transform="translate(55.615234 0)"/>
       <use xlink:href="#ArialMT-35" transform="translate(83.398438 0)"/>
      </g>
     </g>
    </g>
    <g id="ytick_3">
     <g id="line2d_8">
      <g>
       <use xlink:href="#m96188e6046" x="46.248" y="119.091903" style="stroke: #000000; stroke-width: 0.6"/>
      </g>
     </g>
     <g id="text_9">
      <!-- 5.0 -->
      <g transform="translate(28.628 121.955028) scale(0.08 -0.08)">
       <use xlink:href="#ArialMT-35"/>
       <use xlink:href="#ArialMT-2e" transform="translate(55.615234 0)"/>
       <use xlink:href="#ArialMT-30" transform="translate(83.398438 0)"/>
      </g>
     </g>
    </g>
    <g id="ytick_4">
     <g id="line2d_9">
      <g>
       <use xlink:href="#m96188e6046" x="46.248" y="101.826605" style="stroke: #000000; stroke-width: 0.6"/>
      </g>
     </g>
     <g id="text_10">
      <!-- 7.5 -->
      <g transform="translate(28.628 104.68973) scale(0.08 -0.08)">
       <defs>
        <path id="ArialMT-37" d="M 303 3981 
L 303 4522 
L 3269 4522 
L 3269 4084 
Q 2831 3619 2401 2847 
Q 1972 2075 1738 1259 
Q 1569 684 1522 0 
L 944 0 
Q 953 541 1156 1306 
Q 1359 2072 1739 2783 
Q 2119 3494 2547 3981 
L 303 3981 
z
" transform="scale(0.015625)"/>
       </defs>
       <use xlink:href="#ArialMT-37"/>
       <use xlink:href="#ArialMT-2e" transform="translate(55.615234 0)"/>
       <use xlink:href="#ArialMT-35" transform="translate(83.398438 0)"/>
      </g>
     </g>
    </g>
    <g id="ytick_5">
     <g id="line2d_10">
      <g>
       <use xlink:href="#m96188e6046" x="46.248" y="84.561307" style="stroke: #000000; stroke-width: 0.6"/>
      </g>
     </g>
     <g id="text_11">
      <!-- 10.0 -->
      <g transform="translate(24.17925 87.424432) scale(0.08 -0.08)">
       <use xlink:href="#ArialMT-31"/>
       <use xlink:href="#ArialMT-30" transform="translate(55.615234 0)"/>
       <use xlink:href="#ArialMT-2e" transform="translate(111.230469 0)"/>
       <use xlink:href="#ArialMT-30" transform="translate(139.013672 0)"/>
      </g>
     </g>
    </g>
    <g id="ytick_6">
     <g id="line2d_11">
      <g>
       <use xlink:href="#m96188e6046" x="46.248" y="67.296009" style="stroke: #000000; stroke-width: 0.6"/>
      </g>
     </g>
     <g id="text_12">
      <!-- 12.5 -->
      <g transform="translate(24.17925 70.159134) scale(0.08 -0.08)">
       <use xlink:href="#ArialMT-31"/>
       <use xlink:href="#ArialMT-32" transform="translate(55.615234 0)"/>
       <use xlink:href="#ArialMT-2e" transform="translate(111.230469 0)"/>
       <use xlink:href="#ArialMT-35" transform="translate(139.013672 0)"/>
      </g>
     </g>
    </g>
    <g id="ytick_7">
     <g id="line2d_12">
      <g>
       <use xlink:href="#m96188e6046" x="46.248" y="50.03071" style="stroke: #000000; stroke-width: 0.6"/>
      </g>
     </g>
     <g id="text_13">
      <!-- 15.0 -->
      <g transform="translate(24.17925 52.893835) scale(0.08 -0.08)">
       <use xlink:href="#ArialMT-31"/>
       <use xlink:href="#ArialMT-35" transform="translate(55.615234 0)"/>
       <use xlink:href="#ArialMT-2e" transform="translate(111.230469 0)"/>
       <use xlink:href="#ArialMT-30" transform="translate(139.013672 0)"/>
      </g>
     </g>
    </g>
    <g id="ytick_8">
     <g id="line2d_13">
      <g>
       <use xlink:href="#m96188e6046" x="46.248" y="32.765412" style="stroke: #000000; stroke-width: 0.6"/>
      </g>
     </g>
     <g id="text_14">
      <!-- 17.5 -->
      <g transform="translate(24.17925 35.628537) scale(0.08 -0.08)">
       <use xlink:href="#ArialMT-31"/>
       <use xlink:href="#ArialMT-37" transform="translate(55.615234 0)"/>
       <use xlink:href="#ArialMT-2e" transform="translate(111.230469 0)"/>
       <use xlink:href="#ArialMT-35" transform="translate(139.013672 0)"/>
      </g>
     </g>
    </g>
    <g id="ytick_9">
     <g id="line2d_14">
      <g>
       <use xlink:href="#m96188e6046" x="46.248" y="15.500114" style="stroke: #000000; stroke-width: 0.6"/>
      </g>
     </g>
     <g id="text_15">
      <!-- 20.0 -->
      <g transform="translate(24.17925 18.363239) scale(0.08 -0.08)">
       <use xlink:href="#ArialMT-32"/>
       <use xlink:href="#ArialMT-30" transform="translate(55.615234 0)"/>
       <use xlink:href="#ArialMT-2e" transform="translate(111.230469 0)"/>
       <use xlink:href="#ArialMT-30" transform="translate(139.013672 0)"/>
      </g>
     </g>
    </g>
    <g id="text_16">
     <!-- Evaporation rate $K$ ($\mu$m$^2$ s$^{-1}$) -->
     <g transform="translate(18.41925 133.21125) rotate(-90) scale(0.08 -0.08)">
      <defs>
       <path id="ArialMT-45" d="M 506 0 
L 506 4581 
L 3819 4581 
L 3819 4041 
L 1113 4041 
L 1113 2638 
L 3647 2638 
L 3647 2100 
L 1113 2100 
L 1113 541 
L 3925 541 
L 3925 0 
L 506 0 
z
" transform="scale(0.015625)"/>
       <path id="ArialMT-76" d="M 1344 0 
L 81 3319 
L 675 3319 
L 1388 1331 
Q 1503 1009 1600 663 
Q 1675 925 1809 1294 
L 2547 3319 
L 3125 3319 
L 1869 0 
L 1344 0 
z
" transform="scale(0.015625)"/>
       <path id="ArialMT-70" d="M 422 -1272 
L 422 3319 
L 934 3319 
L 934 2888 
Q 1116 3141 1344 3267 
Q 1572 3394 1897 3394 
Q 2322 3394 2647 3175 
Q 2972 2956 3137 2557 
Q 3303 2159 3303 1684 
Q 3303 1175 3120 767 
Q 2938 359 2589 142 
Q 2241 -75 1856 -75 
Q 1575 -75 1351 44 
Q 1128 163 984 344 
L 984 -1272 
L 422 -1272 
z
M 931 1641 
Q 931 1000 1190 694 
Q 1450 388 1819 388 
Q 2194 388 2461 705 
Q 2728 1022 2728 1688 
Q 2728 2322 2467 2637 
Q 2206 2953 1844 2953 
Q 1484 2953 1207 2617 
Q 931 2281 931 1641 
z
" transform="scale(0.015625)"/>
       <path id="DejaVuSans-Oblique-4b" d="M 1081 4666 
L 1716 4666 
L 1331 2700 
L 3781 4666 
L 4622 4666 
L 1850 2438 
L 3878 0 
L 3109 0 
L 1247 2272 
L 806 0 
L 172 0 
L 1081 4666 
z
" transform="scale(0.015625)"/>
       <path id="DejaVuSans-Oblique-3bc" d="M -84 -1331 
L 856 3500 
L 1434 3500 
L 1009 1322 
Q 997 1256 987 1175 
Q 978 1094 978 1013 
Q 978 722 1161 565 
Q 1344 409 1684 409 
Q 2147 409 2431 671 
Q 2716 934 2816 1459 
L 3213 3500 
L 3788 3500 
L 3266 809 
Q 3253 750 3248 706 
Q 3244 663 3244 628 
Q 3244 531 3283 486 
Q 3322 441 3406 441 
Q 3438 441 3492 456 
Q 3547 472 3647 513 
L 3559 50 
Q 3422 -19 3297 -55 
Q 3172 -91 3053 -91 
Q 2847 -91 2730 40 
Q 2613 172 2613 403 
Q 2438 153 2195 31 
Q 1953 -91 1625 -91 
Q 1334 -91 1117 43 
Q 900 178 831 397 
L 494 -1331 
L -84 -1331 
z
" transform="scale(0.015625)"/>
       <path id="DejaVuSans-32" d="M 1228 531 
L 3431 531 
L 3431 0 
L 469 0 
L 469 531 
Q 828 903 1448 1529 
Q 2069 2156 2228 2338 
Q 2531 2678 2651 2914 
Q 2772 3150 2772 3378 
Q 2772 3750 2511 3984 
Q 2250 4219 1831 4219 
Q 1534 4219 1204 4116 
Q 875 4013 500 3803 
L 500 4441 
Q 881 4594 1212 4672 
Q 1544 4750 1819 4750 
Q 2544 4750 2975 4387 
Q 3406 4025 3406 3419 
Q 3406 3131 3298 2873 
Q 3191 2616 2906 2266 
Q 2828 2175 2409 1742 
Q 1991 1309 1228 531 
z
" transform="scale(0.015625)"/>
       <path id="DejaVuSans-2212" d="M 678 2272 
L 4684 2272 
L 4684 1741 
L 678 1741 
L 678 2272 
z
" transform="scale(0.015625)"/>
       <path id="DejaVuSans-31" d="M 794 531 
L 1825 531 
L 1825 4091 
L 703 3866 
L 703 4441 
L 1819 4666 
L 2450 4666 
L 2450 531 
L 3481 531 
L 3481 0 
L 794 0 
L 794 531 
z
" transform="scale(0.015625)"/>
      </defs>
      <use xlink:href="#ArialMT-45" transform="translate(0 0.765625)"/>
      <use xlink:href="#ArialMT-76" transform="translate(66.699219 0.765625)"/>
      <use xlink:href="#ArialMT-61" transform="translate(116.699219 0.765625)"/>
      <use xlink:href="#ArialMT-70" transform="translate(172.314453 0.765625)"/>
      <use xlink:href="#ArialMT-6f" transform="translate(227.929688 0.765625)"/>
      <use xlink:href="#ArialMT-72" transform="translate(283.544922 0.765625)"/>
      <use xlink:href="#ArialMT-61" transform="translate(316.845703 0.765625)"/>
      <use xlink:href="#ArialMT-74" transform="translate(372.460938 0.765625)"/>
      <use xlink:href="#ArialMT-69" transform="translate(400.244141 0.765625)"/>
      <use xlink:href="#ArialMT-6f" transform="translate(422.460938 0.765625)"/>
      <use xlink:href="#ArialMT-6e" transform="translate(478.076172 0.765625)"/>
      <use xlink:href="#ArialMT-20" transform="translate(533.691406 0.765625)"/>
      <use xlink:href="#ArialMT-72" transform="translate(561.474609 0.765625)"/>
      <use xlink:href="#ArialMT-61" transform="translate(594.775391 0.765625)"/>
      <use xlink:href="#ArialMT-74" transform="translate(650.390625 0.765625)"/>
      <use xlink:href="#ArialMT-65" transform="translate(678.173828 0.765625)"/>
      <use xlink:href="#ArialMT-20" transform="translate(733.789062 0.765625)"/>
      <use xlink:href="#DejaVuSans-Oblique-4b" transform="translate(761.572266 0.765625)"/>
      <use xlink:href="#ArialMT-20" transform="translate(827.148438 0.765625)"/>
      <use xlink:href="#ArialMT-28" transform="translate(854.931641 0.765625)"/>
      <use xlink:href="#DejaVuSans-Oblique-3bc" transform="translate(888.232422 0.765625)"/>
      <use xlink:href="#ArialMT-6d" transform="translate(951.855469 0.765625)"/>
      <use xlink:href="#DejaVuSans-32" transform="translate(1036.113281 39.046875) scale(0.7)"/>
      <use xlink:href="#ArialMT-20" transform="translate(1083.383789 0.765625)"/>
      <use xlink:href="#ArialMT-73" transform="translate(1111.166992 0.765625)"/>
      <use xlink:href="#DejaVuSans-2212" transform="translate(1162.124023 39.046875) scale(0.7)"/>
      <use xlink:href="#DejaVuSans-31" transform="translate(1220.776367 39.046875) scale(0.7)"/>
      <use xlink:href="#ArialMT-29" transform="translate(1268.046875 0.765625)"/>
     </g>
    </g>
   </g>
   <g id="patch_3">
    <path d="M 46.248 153.6225 
L 46.248 8.64 
" style="fill: none; stroke: #000000; stroke-width: 0.6; stroke-linejoin: miter; stroke-linecap: square"/>
   </g>
   <g id="patch_4">
    <path d="M 46.248 153.6225 
L 243.36 153.6225 
" style="fill: none; stroke: #000000; stroke-width: 0.6; stroke-linejoin: miter; stroke-linecap: square"/>
   </g>
   <g id="line2d_15">
    <path d="M 79.98355 89.676689 
L 89.622279 127.5733 
L 99.261007 117.741815 
L 108.899736 95.544921 
L 118.538465 97.459122 
L 128.177193 98.381579 
L 137.815922 112.310552 
L 147.45465 98.718046 
L 157.093379 109.504779 
L 166.732108 115.260605 
L 176.370836 113.74486 
L 186.009565 101.457963 
L 195.648293 108.445814 
L 205.287022 77.509835 
" clip-path="url(#p061d561ebf)" style="fill: none; stroke: #d62728; stroke-width: 0.8; stroke-linecap: square"/>
    <defs>
     <path id="m1f3b361af4" d="M 0 1.75 
C 0.464105 1.75 0.909265 1.565609 1.237437 1.237437 
C 1.565609 0.909265 1.75 0.464105 1.75 0 
C 1.75 -0.464105 1.565609 -0.909265 1.237437 -1.237437 
C 0.909265 -1.565609 0.464105 -1.75 0 -1.75 
C -0.464105 -1.75 -0.909265 -1.565609 -1.237437 -1.237437 
C -1.565609 -0.909265 -1.75 -0.464105 -1.75 0 
C -1.75 0.464105 -1.565609 0.909265 -1.237437 1.237437 
C -0.909265 1.565609 -0.464105 1.75 0 1.75 
z
" style="stroke: #d62728"/>
    </defs>
    <g clip-path="url(#p061d561ebf)">
     <use xlink:href="#m1f3b361af4" x="79.98355" y="89.676689" style="fill: #d62728; stroke: #d62728"/>
     <use xlink:href="#m1f3b361af4" x="89.622279" y="127.5733" style="fill: #d62728; stroke: #d62728"/>
     <use xlink:href="#m1f3b361af4" x="99.261007" y="117.741815" style="fill: #d62728; stroke: #d62728"/>
     <use xlink:href="#m1f3b361af4" x="108.899736" y="95.544921" style="fill: #d62728; stroke: #d62728"/>
     <use xlink:href="#m1f3b361af4" x="118.538465" y="97.459122" style="fill: #d62728; stroke: #d62728"/>
     <use xlink:href="#m1f3b361af4" x="128.177193" y="98.381579" style="fill: #d62728; stroke: #d62728"/>
     <use xlink:href="#m1f3b361af4" x="137.815922" y="112.310552" style="fill: #d62728; stroke: #d62728"/>
     <use xlink:href="#m1f3b361af4" x="147.45465" y="98.718046" style="fill: #d62728; stroke: #d62728"/>
     <use xlink:href="#m1f3b361af4" x="157.093379" y="109.504779" style="fill: #d62728; stroke: #d62728"/>
     <use xlink:href="#m1f3b361af4" x="166.732108" y="115.260605" style="fill: #d62728; stroke: #d62728"/>
     <use xlink:href="#m1f3b361af4" x="176.370836" y="113.74486" style="fill: #d62728; stroke: #d62728"/>
     <use xlink:href="#m1f3b361af4" x="186.009565" y="101.457963" style="fill: #d62728; stroke: #d62728"/>
     <use xlink:href="#m1f3b361af4" x="195.648293" y="108.445814" style="fill: #d62728; stroke: #d62728"/>
     <use xlink:href="#m1f3b361af4" x="205.287022" y="77.509835" style="fill: #d62728; stroke: #d62728"/>
    </g>
   </g>
   <g id="line2d_16">
    <path d="M 51.067364 133.624225 
L 60.706093 130.841089 
L 70.344822 131.800525 
L 79.98355 132.470031 
L 89.622279 131.941318 
L 99.261007 132.794291 
L 108.899736 122.695873 
L 118.538465 125.78789 
L 128.177193 129.254882 
L 137.815922 124.125693 
L 147.45465 122.373571 
L 157.093379 120.683731 
L 166.732108 114.927569 
L 176.370836 112.832239 
L 186.009565 117.459589 
L 195.648293 128.739117 
" clip-path="url(#p061d561ebf)" style="fill: none; stroke: #1f77b4; stroke-width: 0.8; stroke-linecap: square"/>
    <defs>
     <path id="m83bc28a0c7" d="M 0 1.75 
C 0.464105 1.75 0.909265 1.565609 1.237437 1.237437 
C 1.565609 0.909265 1.75 0.464105 1.75 0 
C 1.75 -0.464105 1.565609 -0.909265 1.237437 -1.237437 
C 0.909265 -1.565609 0.464105 -1.75 0 -1.75 
C -0.464105 -1.75 -0.909265 -1.565609 -1.237437 -1.237437 
C -1.565609 -0.909265 -1.75 -0.464105 -1.75 0 
C -1.75 0.464105 -1.565609 0.909265 -1.237437 1.237437 
C -0.909265 1.565609 -0.464105 1.75 0 1.75 
z
" style="stroke: #1f77b4"/>
    </defs>
    <g clip-path="url(#p061d561ebf)">
     <use xlink:href="#m83bc28a0c7" x="51.067364" y="133.624225" style="fill: #1f77b4; stroke: #1f77b4"/>
     <use xlink:href="#m83bc28a0c7" x="60.706093" y="130.841089" style="fill: #1f77b4; stroke: #1f77b4"/>
     <use xlink:href="#m83bc28a0c7" x="70.344822" y="131.800525" style="fill: #1f77b4; stroke: #1f77b4"/>
     <use xlink:href="#m83bc28a0c7" x="79.98355" y="132.470031" style="fill: #1f77b4; stroke: #1f77b4"/>
     <use xlink:href="#m83bc28a0c7" x="89.622279" y="131.941318" style="fill: #1f77b4; stroke: #1f77b4"/>
     <use xlink:href="#m83bc28a0c7" x="99.261007" y="132.794291" style="fill: #1f77b4; stroke: #1f77b4"/>
     <use xlink:href="#m83bc28a0c7" x="108.899736" y="122.695873" style="fill: #1f77b4; stroke: #1f77b4"/>
     <use xlink:href="#m83bc28a0c7" x="118.538465" y="125.78789" style="fill: #1f77b4; stroke: #1f77b4"/>
     <use xlink:href="#m83bc28a0c7" x="128.177193" y="129.254882" style="fill: #1f77b4; stroke: #1f77b4"/>
     <use xlink:href="#m83bc28a0c7" x="137.815922" y="124.125693" style="fill: #1f77b4; stroke: #1f77b4"/>
     <use xlink:href="#m83bc28a0c7" x="147.45465" y="122.373571" style="fill: #1f77b4; stroke: #1f77b4"/>
     <use xlink:href="#m83bc28a0c7" x="157.093379" y="120.683731" style="fill: #1f77b4; stroke: #1f77b4"/>
     <use xlink:href="#m83bc28a0c7" x="166.732108" y="114.927569" style="fill: #1f77b4; stroke: #1f77b4"/>
     <use xlink:href="#m83bc28a0c7" x="176.370836" y="112.832239" style="fill: #1f77b4; stroke: #1f77b4"/>
     <use xlink:href="#m83bc28a0c7" x="186.009565" y="117.459589" style="fill: #1f77b4; stroke: #1f77b4"/>
     <use xlink:href="#m83bc28a0c7" x="195.648293" y="128.739117" style="fill: #1f77b4; stroke: #1f77b4"/>
    </g>
   </g>
   <g id="line2d_17">
    <path d="M 51.067364 148.988101 
L 60.706093 119.640339 
L 70.344822 86.34652 
L 79.98355 74.40974 
L 89.622279 59.764677 
L 99.261007 63.757329 
L 108.899736 101.048121 
L 118.538465 67.509809 
L 128.177193 98.966183 
L 137.815922 87.998891 
L 147.45465 105.908299 
L 157.093379 112.201528 
L 166.732108 117.872791 
L 176.370836 116.653647 
L 186.009565 124.181658 
L 195.648293 125.923358 
L 205.287022 127.999333 
L 214.925751 127.424974 
L 224.564479 126.243446 
L 234.203208 105.748673 
" clip-path="url(#p061d561ebf)" style="fill: none; stroke: #2ca02c; stroke-width: 0.8; stroke-linecap: square"/>
    <defs>
     <path id="m9bad1cf818" d="M 0 1.75 
C 0.464105 1.75 0.909265 1.565609 1.237437 1.237437 
C 1.565609 0.909265 1.75 0.464105 1.75 0 
C 1.75 -0.464105 1.565609 -0.909265 1.237437 -1.237437 
C 0.909265 -1.565609 0.464105 -1.75 0 -1.75 
C -0.464105 -1.75 -0.909265 -1.565609 -1.237437 -1.237437 
C -1.565609 -0.909265 -1.75 -0.464105 -1.75 0 
C -1.75 0.464105 -1.565609 0.909265 -1.237437 1.237437 
C -0.909265 1.565609 -0.464105 1.75 0 1.75 
z
" style="stroke: #2ca02c"/>
    </defs>
    <g clip-path="url(#p061d561ebf)">
     <use xlink:href="#m9bad1cf818" x="51.067364" y="148.988101" style="fill: #2ca02c; stroke: #2ca02c"/>
     <use xlink:href="#m9bad1cf818" x="60.706093" y="119.640339" style="fill: #2ca02c; stroke: #2ca02c"/>
     <use xlink:href="#m9bad1cf818" x="70.344822" y="86.34652" style="fill: #2ca02c; stroke: #2ca02c"/>
     <use xlink:href="#m9bad1cf818" x="79.98355" y="74.40974" style="fill: #2ca02c; stroke: #2ca02c"/>
     <use xlink:href="#m9bad1cf818" x="89.622279" y="59.764677" style="fill: #2ca02c; stroke: #2ca02c"/>
     <use xlink:href="#m9bad1cf818" x="99.261007" y="63.757329" style="fill: #2ca02c; stroke: #2ca02c"/>
     <use xlink:href="#m9bad1cf818" x="108.899736" y="101.048121" style="fill: #2ca02c; stroke: #2ca02c"/>
     <use xlink:href="#m9bad1cf818" x="118.538465" y="67.509809" style="fill: #2ca02c; stroke: #2ca02c"/>
     <use xlink:href="#m9bad1cf818" x="128.177193" y="98.966183" style="fill: #2ca02c; stroke: #2ca02c"/>
     <use xlink:href="#m9bad1cf818" x="137.815922" y="87.998891" style="fill: #2ca02c; stroke: #2ca02c"/>
     <use xlink:href="#m9bad1cf818" x="147.45465" y="105.908299" style="fill: #2ca02c; stroke: #2ca02c"/>
     <use xlink:href="#m9bad1cf818" x="157.093379" y="112.201528" style="fill: #2ca02c; stroke: #2ca02c"/>
     <use xlink:href="#m9bad1cf818" x="166.732108" y="117.872791" style="fill: #2ca02c; stroke: #2ca02c"/>
     <use xlink:href="#m9bad1cf818" x="176.370836" y="116.653647" style="fill: #2ca02c; stroke: #2ca02c"/>
     <use xlink:href="#m9bad1cf818" x="186.009565" y="124.181658" style="fill: #2ca02c; stroke: #2ca02c"/>
     <use xlink:href="#m9bad1cf818" x="195.648293" y="125.923358" style="fill: #2ca02c; stroke: #2ca02c"/>
     <use xlink:href="#m9bad1cf818" x="205.287022" y="127.999333" style="fill: #2ca02c; stroke: #2ca02c"/>
     <use xlink:href="#m9bad1cf818" x="214.925751" y="127.424974" style="fill: #2ca02c; stroke: #2ca02c"/>
     <use xlink:href="#m9bad1cf818" x="224.564479" y="126.243446" style="fill: #2ca02c; stroke: #2ca02c"/>
     <use xlink:href="#m9bad1cf818" x="234.203208" y="105.748673" style="fill: #2ca02c; stroke: #2ca02c"/>
    </g>
   </g>
   <g id="legend_1">
    <g id="line2d_18">
     <path d="M 172.341406 16.886875 
L 178.841406 16.886875 
L 185.341406 16.886875 
" style="fill: none; stroke: #d62728; stroke-width: 0.8; stroke-linecap: square"/>
     <g>
      <use xlink:href="#m1f3b361af4" x="178.841406" y="16.886875" style="fill: #d62728; stroke: #d62728"/>
     </g>
    </g>
    <g id="text_17">
     <!-- 2:1 hydrogel -->
     <g transform="translate(190.541406 19.161875) scale(0.065 -0.065)">
      <defs>
       <path id="ArialMT-3a" d="M 578 2678 
L 578 3319 
L 1219 3319 
L 1219 2678 
L 578 2678 
z
M 578 0 
L 578 641 
L 1219 641 
L 1219 0 
L 578 0 
z
" transform="scale(0.015625)"/>
       <path id="ArialMT-68" d="M 422 0 
L 422 4581 
L 984 4581 
L 984 2938 
Q 1378 3394 1978 3394 
Q 2347 3394 2619 3248 
Q 2891 3103 3008 2847 
Q 3125 2591 3125 2103 
L 3125 0 
L 2563 0 
L 2563 2103 
Q 2563 2525 2380 2717 
Q 2197 2909 1863 2909 
Q 1613 2909 1392 2779 
Q 1172 2650 1078 2428 
Q 984 2206 984 1816 
L 984 0 
L 422 0 
z
" transform="scale(0.015625)"/>
       <path id="ArialMT-79" d="M 397 -1278 
L 334 -750 
Q 519 -800 656 -800 
Q 844 -800 956 -737 
Q 1069 -675 1141 -563 
Q 1194 -478 1313 -144 
Q 1328 -97 1363 -6 
L 103 3319 
L 709 3319 
L 1400 1397 
Q 1534 1031 1641 628 
Q 1738 1016 1872 1384 
L 2581 3319 
L 3144 3319 
L 1881 -56 
Q 1678 -603 1566 -809 
Q 1416 -1088 1222 -1217 
Q 1028 -1347 759 -1347 
Q 597 -1347 397 -1278 
z
" transform="scale(0.015625)"/>
       <path id="ArialMT-64" d="M 2575 0 
L 2575 419 
Q 2259 -75 1647 -75 
Q 1250 -75 917 144 
Q 584 363 401 755 
Q 219 1147 219 1656 
Q 219 2153 384 2558 
Q 550 2963 881 3178 
Q 1213 3394 1622 3394 
Q 1922 3394 2156 3267 
Q 2391 3141 2538 2938 
L 2538 4581 
L 3097 4581 
L 3097 0 
L 2575 0 
z
M 797 1656 
Q 797 1019 1065 703 
Q 1334 388 1700 388 
Q 2069 388 2326 689 
Q 2584 991 2584 1609 
Q 2584 2291 2321 2609 
Q 2059 2928 1675 2928 
Q 1300 2928 1048 2622 
Q 797 2316 797 1656 
z
" transform="scale(0.015625)"/>
       <path id="ArialMT-67" d="M 319 -275 
L 866 -356 
Q 900 -609 1056 -725 
Q 1266 -881 1628 -881 
Q 2019 -881 2231 -725 
Q 2444 -569 2519 -288 
Q 2563 -116 2559 434 
Q 2191 0 1641 0 
Q 956 0 581 494 
Q 206 988 206 1678 
Q 206 2153 378 2554 
Q 550 2956 876 3175 
Q 1203 3394 1644 3394 
Q 2231 3394 2613 2919 
L 2613 3319 
L 3131 3319 
L 3131 450 
Q 3131 -325 2973 -648 
Q 2816 -972 2473 -1159 
Q 2131 -1347 1631 -1347 
Q 1038 -1347 672 -1080 
Q 306 -813 319 -275 
z
M 784 1719 
Q 784 1066 1043 766 
Q 1303 466 1694 466 
Q 2081 466 2343 764 
Q 2606 1063 2606 1700 
Q 2606 2309 2336 2618 
Q 2066 2928 1684 2928 
Q 1309 2928 1046 2623 
Q 784 2319 784 1719 
z
" transform="scale(0.015625)"/>
       <path id="ArialMT-6c" d="M 409 0 
L 409 4581 
L 972 4581 
L 972 0 
L 409 0 
z
" transform="scale(0.015625)"/>
      </defs>
      <use xlink:href="#ArialMT-32"/>
      <use xlink:href="#ArialMT-3a" transform="translate(55.615234 0)"/>
      <use xlink:href="#ArialMT-31" transform="translate(83.398438 0)"/>
      <use xlink:href="#ArialMT-20" transform="translate(139.013672 0)"/>
      <use xlink:href="#ArialMT-68" transform="translate(166.796875 0)"/>
      <use xlink:href="#ArialMT-79" transform="translate(222.412109 0)"/>
      <use xlink:href="#ArialMT-64" transform="translate(272.412109 0)"/>
      <use xlink:href="#ArialMT-72" transform="translate(328.027344 0)"/>
      <use xlink:href="#ArialMT-6f" transform="translate(361.328125 0)"/>
      <use xlink:href="#ArialMT-67" transform="translate(416.943359 0)"/>
      <use xlink:href="#ArialMT-65" transform="translate(472.558594 0)"/>
      <use xlink:href="#ArialMT-6c" transform="translate(528.173828 0)"/>
     </g>
    </g>
    <g id="line2d_19">
     <path d="M 172.341406 26.1575 
L 178.841406 26.1575 
L 185.341406 26.1575 
" style="fill: none; stroke: #1f77b4; stroke-width: 0.8; stroke-linecap: square"/>
     <g>
      <use xlink:href="#m83bc28a0c7" x="178.841406" y="26.1575" style="fill: #1f77b4; stroke: #1f77b4"/>
     </g>
    </g>
    <g id="text_18">
     <!-- Agar control -->
     <g transform="translate(190.541406 28.4325) scale(0.065 -0.065)">
      <defs>
       <path id="ArialMT-41" d="M -9 0 
L 1750 4581 
L 2403 4581 
L 4278 0 
L 3588 0 
L 3053 1388 
L 1138 1388 
L 634 0 
L -9 0 
z
M 1313 1881 
L 2866 1881 
L 2388 3150 
Q 2169 3728 2063 4100 
Q 1975 3659 1816 3225 
L 1313 1881 
z
" transform="scale(0.015625)"/>
      </defs>
      <use xlink:href="#ArialMT-41"/>
      <use xlink:href="#ArialMT-67" transform="translate(66.699219 0)"/>
      <use xlink:href="#ArialMT-61" transform="translate(122.314453 0)"/>
      <use xlink:href="#ArialMT-72" transform="translate(177.929688 0)"/>
      <use xlink:href="#ArialMT-20" transform="translate(211.230469 0)"/>
      <use xlink:href="#ArialMT-63" transform="translate(239.013672 0)"/>
      <use xlink:href="#ArialMT-6f" transform="translate(289.013672 0)"/>
      <use xlink:href="#ArialMT-6e" transform="translate(344.628906 0)"/>
      <use xlink:href="#ArialMT-74" transform="translate(400.244141 0)"/>
      <use xlink:href="#ArialMT-72" transform="translate(428.027344 0)"/>
      <use xlink:href="#ArialMT-6f" transform="translate(461.328125 0)"/>
      <use xlink:href="#ArialMT-6c" transform="translate(516.943359 0)"/>
     </g>
    </g>
    <g id="line2d_20">
     <path d="M 172.341406 35.507344 
L 178.841406 35.507344 
L 185.341406 35.507344 
" style="fill: none; stroke: #2ca02c; stroke-width: 0.8; stroke-linecap: square"/>
     <g>
      <use xlink:href="#m9bad1cf818" x="178.841406" y="35.507344" style="fill: #2ca02c; stroke: #2ca02c"/>
     </g>
    </g>
    <g id="text_19">
     <!-- Fungus – Green -->
     <g transform="translate(190.541406 37.782344) scale(0.065 -0.065)">
      <defs>
       <path id="ArialMT-46" d="M 525 0 
L 525 4581 
L 3616 4581 
L 3616 4041 
L 1131 4041 
L 1131 2622 
L 3281 2622 
L 3281 2081 
L 1131 2081 
L 1131 0 
L 525 0 
z
" transform="scale(0.015625)"/>
       <path id="ArialMT-2013" d="M -13 1431 
L -13 1884 
L 3547 1884 
L 3547 1431 
L -13 1431 
z
" transform="scale(0.015625)"/>
       <path id="ArialMT-47" d="M 2638 1797 
L 2638 2334 
L 4578 2338 
L 4578 638 
Q 4131 281 3656 101 
Q 3181 -78 2681 -78 
Q 2006 -78 1454 211 
Q 903 500 622 1047 
Q 341 1594 341 2269 
Q 341 2938 620 3517 
Q 900 4097 1425 4378 
Q 1950 4659 2634 4659 
Q 3131 4659 3532 4498 
Q 3934 4338 4162 4050 
Q 4391 3763 4509 3300 
L 3963 3150 
Q 3859 3500 3706 3700 
Q 3553 3900 3268 4020 
Q 2984 4141 2638 4141 
Q 2222 4141 1919 4014 
Q 1616 3888 1430 3681 
Q 1244 3475 1141 3228 
Q 966 2803 966 2306 
Q 966 1694 1177 1281 
Q 1388 869 1791 669 
Q 2194 469 2647 469 
Q 3041 469 3416 620 
Q 3791 772 3984 944 
L 3984 1797 
L 2638 1797 
z
" transform="scale(0.015625)"/>
      </defs>
      <use xlink:href="#ArialMT-46"/>
      <use xlink:href="#ArialMT-75" transform="translate(61.083984 0)"/>
      <use xlink:href="#ArialMT-6e" transform="translate(116.699219 0)"/>
      <use xlink:href="#ArialMT-67" transform="translate(172.314453 0)"/>
      <use xlink:href="#ArialMT-75" transform="translate(227.929688 0)"/>
      <use xlink:href="#ArialMT-73" transform="translate(283.544922 0)"/>
      <use xlink:href="#ArialMT-20" transform="translate(333.544922 0)"/>
      <use xlink:href="#ArialMT-2013" transform="translate(361.328125 0)"/>
      <use xlink:href="#ArialMT-20" transform="translate(416.943359 0)"/>
      <use xlink:href="#ArialMT-47" transform="translate(444.726562 0)"/>
      <use xlink:href="#ArialMT-72" transform="translate(522.509766 0)"/>
      <use xlink:href="#ArialMT-65" transform="translate(555.810547 0)"/>
      <use xlink:href="#ArialMT-65" transform="translate(611.425781 0)"/>
      <use xlink:href="#ArialMT-6e" transform="translate(667.041016 0)"/>
     </g>
    </g>
   </g>
  </g>
 </g>
 <defs>
  <clipPath id="p061d561ebf">
   <rect x="46.248" y="8.64" width="197.112" height="144.9825"/>
  </clipPath>
 </defs>
</svg>
