<?xml version="1.0" encoding="utf-8" standalone="no"?>
<!DOCTYPE svg PUBLIC "-//W3C//DTD SVG 1.1//EN"
  "http://www.w3.org/Graphics/SVG/1.1/DTD/svg11.dtd">
<svg xmlns:xlink="http://www.w3.org/1999/xlink" width="300.9775pt" height="198.93625pt" viewBox="0 0 300.9775 198.93625" xmlns="http://www.w3.org/2000/svg" version="1.1">
 <metadata>
  <rdf:RDF xmlns:dc="http://purl.org/dc/elements/1.1/" xmlns:cc="http://creativecommons.org/ns#" xmlns:rdf="http://www.w3.org/1999/02/22-rdf-syntax-ns#">
   <cc:Work>
    <dc:type rdf:resource="http://purl.org/dc/dcmitype/StillImage"/>
    <dc:date>2026-03-29T23:03:46.760804</dc:date>
    <dc:format>image/svg+xml</dc:format>
    <dc:creator>
     <cc:Agent>
      <dc:title>Matplotlib v3.10.8, https://matplotlib.org/</dc:title>
     </cc:Agent>
    </dc:creator>
   </cc:Work>
  </rdf:RDF>
 </metadata>
 <defs>
  <style type="text/css">*{stroke-linejoin: round; stroke-linecap: butt}</style>
 </defs>
 <g id="figure_1">
  <g id="patch_1">
   <path d="M 0 198.93625 
L 300.9775 198.93625 
L 300.9775 0 
L 0 0 
z
" style="fill: #ffffff"/>
  </g>
  <g id="axes_1">
   <g id="patch_2">
    <path d="M 37.38 169.92 
L 288.48 169.92 
L 288.48 3.6 
L 37.38 3.6 
z
" style="fill: #ffffff"/>
   </g>
   <g id="matplotlib.axis_1">
    <g id="xtick_1">
     <g id="line2d_1">
      <defs>
       <path id="mbcdc3559fb" d="M 0 0 
L 0 3 
" style="stroke: #000000; stroke-width: 0.6"/>
      </defs>
      <g>
       <use xlink:href="#mbcdc3559fb" x="37.38" y="169.92" style="stroke: #000000; stroke-width: 0.6"/>
      </g>
     </g>
     <g id="text_1">
      <!-- 0 -->
      <g transform="translate(35.155625 182.14625) scale(0.08 -0.08)">
       <defs>
        <path id="ArialMT-30" d="M 266 2259 
Q 266 3072 433 3567 
Q 600 4063 929 4331 
Q 1259 4600 1759 4600 
Q 2128 4600 2406 4451 
Q 2684 4303 2865 4023 
Q 3047 3744 3150 3342 
Q 3253 2941 3253 2259 
Q 3253 1453 3087 958 
Q 2922 463 2592 192 
Q 2263 -78 1759 -78 
Q 1097 -78 719 397 
Q 266 969 266 2259 
z
M 844 2259 
Q 844 1131 1108 757 
Q 1372 384 1759 384 
Q 2147 384 2411 759 
Q 2675 1134 2675 2259 
Q 2675 3391 2411 3762 
Q 2147 4134 1753 4134 
Q 1366 4134 1134 3806 
Q 844 3388 844 2259 
z
" transform="scale(0.015625)"/>
       </defs>
       <use xlink:href="#ArialMT-30"/>
      </g>
     </g>
    </g>
    <g id="xtick_2">
     <g id="line2d_2">
      <g>
       <use xlink:href="#mbcdc3559fb" x="73.251429" y="169.92" style="stroke: #000000; stroke-width: 0.6"/>
      </g>
     </g>
     <g id="text_2">
      <!-- 500 -->
      <g transform="translate(66.578304 182.14625) scale(0.08 -0.08)">
       <defs>
        <path id="ArialMT-35" d="M 266 1200 
L 856 1250 
Q 922 819 1161 601 
Q 1400 384 1738 384 
Q 2144 384 2425 690 
Q 2706 997 2706 1503 
Q 2706 1984 2436 2262 
Q 2166 2541 1728 2541 
Q 1456 2541 1237 2417 
Q 1019 2294 894 2097 
L 366 2166 
L 809 4519 
L 3088 4519 
L 3088 3981 
L 1259 3981 
L 1013 2750 
Q 1425 3038 1878 3038 
Q 2478 3038 2890 2622 
Q 3303 2206 3303 1553 
Q 3303 931 2941 478 
Q 2500 -78 1738 -78 
Q 1113 -78 717 272 
Q 322 622 266 1200 
z
" transform="scale(0.015625)"/>
       </defs>
       <use xlink:href="#ArialMT-35"/>
       <use xlink:href="#ArialMT-30" transform="translate(55.615234 0)"/>
       <use xlink:href="#ArialMT-30" transform="translate(111.230469 0)"/>
      </g>
     </g>
    </g>
    <g id="xtick_3">
     <g id="line2d_3">
      <g>
       <use xlink:href="#mbcdc3559fb" x="109.122857" y="169.92" style="stroke: #000000; stroke-width: 0.6"/>
      </g>
     </g>
     <g id="text_3">
      <!-- 1000 -->
      <g transform="translate(100.225357 182.14625) scale(0.08 -0.08)">
       <defs>
        <path id="ArialMT-31" d="M 2384 0 
L 1822 0 
L 1822 3584 
Q 1619 3391 1289 3197 
Q 959 3003 697 2906 
L 697 3450 
Q 1169 3672 1522 3987 
Q 1875 4303 2022 4600 
L 2384 4600 
L 2384 0 
z
" transform="scale(0.015625)"/>
       </defs>
       <use xlink:href="#ArialMT-31"/>
       <use xlink:href="#ArialMT-30" transform="translate(55.615234 0)"/>
       <use xlink:href="#ArialMT-30" transform="translate(111.230469 0)"/>
       <use xlink:href="#ArialMT-30" transform="translate(166.845703 0)"/>
      </g>
     </g>
    </g>
    <g id="xtick_4">
     <g id="line2d_4">
      <g>
       <use xlink:href="#mbcdc3559fb" x="144.994286" y="169.92" style="stroke: #000000; stroke-width: 0.6"/>
      </g>
     </g>
     <g id="text_4">
      <!-- 1500 -->
      <g transform="translate(136.096786 182.14625) scale(0.08 -0.08)">
       <use xlink:href="#ArialMT-31"/>
       <use xlink:href="#ArialMT-35" transform="translate(55.615234 0)"/>
       <use xlink:href="#ArialMT-30" transform="translate(111.230469 0)"/>
       <use xlink:href="#ArialMT-30" transform="translate(166.845703 0)"/>
      </g>
     </g>
    </g>
    <g id="xtick_5">
     <g id="line2d_5">
      <g>
       <use xlink:href="#mbcdc3559fb" x="180.865714" y="169.92" style="stroke: #000000; stroke-width: 0.6"/>
      </g>
     </g>
     <g id="text_5">
      <!-- 2000 -->
      <g transform="translate(171.968214 182.14625) scale(0.08 -0.08)">
       <defs>
        <path id="ArialMT-32" d="M 3222 541 
L 3222 0 
L 194 0 
Q 188 203 259 391 
Q 375 700 629 1000 
Q 884 1300 1366 1694 
Q 2113 2306 2375 2664 
Q 2638 3022 2638 3341 
Q 2638 3675 2398 3904 
Q 2159 4134 1775 4134 
Q 1369 4134 1125 3890 
Q 881 3647 878 3216 
L 300 3275 
Q 359 3922 746 4261 
Q 1134 4600 1788 4600 
Q 2447 4600 2831 4234 
Q 3216 3869 3216 3328 
Q 3216 3053 3103 2787 
Q 2991 2522 2730 2228 
Q 2469 1934 1863 1422 
Q 1356 997 1212 845 
Q 1069 694 975 541 
L 3222 541 
z
" transform="scale(0.015625)"/>
       </defs>
       <use xlink:href="#ArialMT-32"/>
       <use xlink:href="#ArialMT-30" transform="translate(55.615234 0)"/>
       <use xlink:href="#ArialMT-30" transform="translate(111.230469 0)"/>
       <use xlink:href="#ArialMT-30" transform="translate(166.845703 0)"/>
      </g>
     </g>
    </g>
    <g id="xtick_6">
     <g id="line2d_6">
      <g>
       <use xlink:href="#mbcdc3559fb" x="216.737143" y="169.92" style="stroke: #000000; stroke-width: 0.6"/>
      </g>
     </g>
     <g id="text_6">
      <!-- 2500 -->
      <g transform="translate(207.839643 182.14625) scale(0.08 -0.08)">
       <use xlink:href="#ArialMT-32"/>
       <use xlink:href="#ArialMT-35" transform="translate(55.615234 0)"/>
       <use xlink:href="#ArialMT-30" transform="translate(111.230469 0)"/>
       <use xlink:href="#ArialMT-30" transform="translate(166.845703 0)"/>
      </g>
     </g>
    </g>
    <g id="xtick_7">
     <g id="line2d_7">
      <g>
       <use xlink:href="#mbcdc3559fb" x="252.608571" y="169.92" style="stroke: #000000; stroke-width: 0.6"/>
      </g>
     </g>
     <g id="text_7">
      <!-- 3000 -->
      <g transform="translate(243.711071 182.14625) scale(0.08 -0.08)">
       <defs>
        <path id="ArialMT-33" d="M 269 1209 
L 831 1284 
Q 928 806 1161 595 
Q 1394 384 1728 384 
Q 2125 384 2398 659 
Q 2672 934 2672 1341 
Q 2672 1728 2419 1979 
Q 2166 2231 1775 2231 
Q 1616 2231 1378 2169 
L 1441 2663 
Q 1497 2656 1531 2656 
Q 1891 2656 2178 2843 
Q 2466 3031 2466 3422 
Q 2466 3731 2256 3934 
Q 2047 4138 1716 4138 
Q 1388 4138 1169 3931 
Q 950 3725 888 3313 
L 325 3413 
Q 428 3978 793 4289 
Q 1159 4600 1703 4600 
Q 2078 4600 2393 4439 
Q 2709 4278 2876 4000 
Q 3044 3722 3044 3409 
Q 3044 3113 2884 2869 
Q 2725 2625 2413 2481 
Q 2819 2388 3044 2092 
Q 3269 1797 3269 1353 
Q 3269 753 2831 336 
Q 2394 -81 1725 -81 
Q 1122 -81 723 278 
Q 325 638 269 1209 
z
" transform="scale(0.015625)"/>
       </defs>
       <use xlink:href="#ArialMT-33"/>
       <use xlink:href="#ArialMT-30" transform="translate(55.615234 0)"/>
       <use xlink:href="#ArialMT-30" transform="translate(111.230469 0)"/>
       <use xlink:href="#ArialMT-30" transform="translate(166.845703 0)"/>
      </g>
     </g>
    </g>
    <g id="xtick_8">
     <g id="line2d_8">
      <g>
       <use xlink:href="#mbcdc3559fb" x="288.48" y="169.92" style="stroke: #000000; stroke-width: 0.6"/>
      </g>
     </g>
     <g id="text_8">
      <!-- 3500 -->
      <g transform="translate(279.5825 182.14625) scale(0.08 -0.08)">
       <use xlink:href="#ArialMT-33"/>
       <use xlink:href="#ArialMT-35" transform="translate(55.615234 0)"/>
       <use xlink:href="#ArialMT-30" transform="translate(111.230469 0)"/>
       <use xlink:href="#ArialMT-30" transform="translate(166.845703 0)"/>
      </g>
     </g>
    </g>
    <g id="text_9">
     <!-- Distance from source ($\mu$m) -->
     <g transform="translate(115.69 193.57625) scale(0.08 -0.08)">
      <defs>
       <path id="ArialMT-44" d="M 494 0 
L 494 4581 
L 2072 4581 
Q 2606 4581 2888 4516 
Q 3281 4425 3559 4188 
Q 3922 3881 4101 3404 
Q 4281 2928 4281 2316 
Q 4281 1794 4159 1391 
Q 4038 988 3847 723 
Q 3656 459 3429 307 
Q 3203 156 2883 78 
Q 2563 0 2147 0 
L 494 0 
z
M 1100 541 
L 2078 541 
Q 2531 541 2789 625 
Q 3047 709 3200 863 
Q 3416 1078 3536 1442 
Q 3656 1806 3656 2325 
Q 3656 3044 3420 3430 
Q 3184 3816 2847 3947 
Q 2603 4041 2063 4041 
L 1100 4041 
L 1100 541 
z
" transform="scale(0.015625)"/>
       <path id="ArialMT-69" d="M 425 3934 
L 425 4581 
L 988 4581 
L 988 3934 
L 425 3934 
z
M 425 0 
L 425 3319 
L 988 3319 
L 988 0 
L 425 0 
z
" transform="scale(0.015625)"/>
       <path id="ArialMT-73" d="M 197 991 
L 753 1078 
Q 800 744 1014 566 
Q 1228 388 1613 388 
Q 2000 388 2187 545 
Q 2375 703 2375 916 
Q 2375 1106 2209 1216 
Q 2094 1291 1634 1406 
Q 1016 1563 777 1677 
Q 538 1791 414 1992 
Q 291 2194 291 2438 
Q 291 2659 392 2848 
Q 494 3038 669 3163 
Q 800 3259 1026 3326 
Q 1253 3394 1513 3394 
Q 1903 3394 2198 3281 
Q 2494 3169 2634 2976 
Q 2775 2784 2828 2463 
L 2278 2388 
Q 2241 2644 2061 2787 
Q 1881 2931 1553 2931 
Q 1166 2931 1000 2803 
Q 834 2675 834 2503 
Q 834 2394 903 2306 
Q 972 2216 1119 2156 
Q 1203 2125 1616 2013 
Q 2213 1853 2448 1751 
Q 2684 1650 2818 1456 
Q 2953 1263 2953 975 
Q 2953 694 2789 445 
Q 2625 197 2315 61 
Q 2006 -75 1616 -75 
Q 969 -75 630 194 
Q 291 463 197 991 
z
" transform="scale(0.015625)"/>
       <path id="ArialMT-74" d="M 1650 503 
L 1731 6 
Q 1494 -44 1306 -44 
Q 1000 -44 831 53 
Q 663 150 594 308 
Q 525 466 525 972 
L 525 2881 
L 113 2881 
L 113 3319 
L 525 3319 
L 525 4141 
L 1084 4478 
L 1084 3319 
L 1650 3319 
L 1650 2881 
L 1084 2881 
L 1084 941 
Q 1084 700 1114 631 
Q 1144 563 1211 522 
Q 1278 481 1403 481 
Q 1497 481 1650 503 
z
" transform="scale(0.015625)"/>
       <path id="ArialMT-61" d="M 2588 409 
Q 2275 144 1986 34 
Q 1697 -75 1366 -75 
Q 819 -75 525 192 
Q 231 459 231 875 
Q 231 1119 342 1320 
Q 453 1522 633 1644 
Q 813 1766 1038 1828 
Q 1203 1872 1538 1913 
Q 2219 1994 2541 2106 
Q 2544 2222 2544 2253 
Q 2544 2597 2384 2738 
Q 2169 2928 1744 2928 
Q 1347 2928 1158 2789 
Q 969 2650 878 2297 
L 328 2372 
Q 403 2725 575 2942 
Q 747 3159 1072 3276 
Q 1397 3394 1825 3394 
Q 2250 3394 2515 3294 
Q 2781 3194 2906 3042 
Q 3031 2891 3081 2659 
Q 3109 2516 3109 2141 
L 3109 1391 
Q 3109 606 3145 398 
Q 3181 191 3288 0 
L 2700 0 
Q 2613 175 2588 409 
z
M 2541 1666 
Q 2234 1541 1622 1453 
Q 1275 1403 1131 1340 
Q 988 1278 909 1158 
Q 831 1038 831 891 
Q 831 666 1001 516 
Q 1172 366 1500 366 
Q 1825 366 2078 508 
Q 2331 650 2450 897 
Q 2541 1088 2541 1459 
L 2541 1666 
z
" transform="scale(0.015625)"/>
       <path id="ArialMT-6e" d="M 422 0 
L 422 3319 
L 928 3319 
L 928 2847 
Q 1294 3394 1984 3394 
Q 2284 3394 2536 3286 
Q 2788 3178 2913 3003 
Q 3038 2828 3088 2588 
Q 3119 2431 3119 2041 
L 3119 0 
L 2556 0 
L 2556 2019 
Q 2556 2363 2490 2533 
Q 2425 2703 2258 2804 
Q 2091 2906 1866 2906 
Q 1506 2906 1245 2678 
Q 984 2450 984 1813 
L 984 0 
L 422 0 
z
" transform="scale(0.015625)"/>
       <path id="ArialMT-63" d="M 2588 1216 
L 3141 1144 
Q 3050 572 2676 248 
Q 2303 -75 1759 -75 
Q 1078 -75 664 370 
Q 250 816 250 1647 
Q 250 2184 428 2587 
Q 606 2991 970 3192 
Q 1334 3394 1763 3394 
Q 2303 3394 2647 3120 
Q 2991 2847 3088 2344 
L 2541 2259 
Q 2463 2594 2264 2762 
Q 2066 2931 1784 2931 
Q 1359 2931 1093 2626 
Q 828 2322 828 1663 
Q 828 994 1084 691 
Q 1341 388 1753 388 
Q 2084 388 2306 591 
Q 2528 794 2588 1216 
z
" transform="scale(0.015625)"/>
       <path id="ArialMT-65" d="M 2694 1069 
L 3275 997 
Q 3138 488 2766 206 
Q 2394 -75 1816 -75 
Q 1088 -75 661 373 
Q 234 822 234 1631 
Q 234 2469 665 2931 
Q 1097 3394 1784 3394 
Q 2450 3394 2872 2941 
Q 3294 2488 3294 1666 
Q 3294 1616 3291 1516 
L 816 1516 
Q 847 969 1125 678 
Q 1403 388 1819 388 
Q 2128 388 2347 550 
Q 2566 713 2694 1069 
z
M 847 1978 
L 2700 1978 
Q 2663 2397 2488 2606 
Q 2219 2931 1791 2931 
Q 1403 2931 1139 2672 
Q 875 2413 847 1978 
z
" transform="scale(0.015625)"/>
       <path id="ArialMT-20" transform="scale(0.015625)"/>
       <path id="ArialMT-66" d="M 556 0 
L 556 2881 
L 59 2881 
L 59 3319 
L 556 3319 
L 556 3672 
Q 556 4006 616 4169 
Q 697 4388 901 4523 
Q 1106 4659 1475 4659 
Q 1713 4659 2000 4603 
L 1916 4113 
Q 1741 4144 1584 4144 
Q 1328 4144 1222 4034 
Q 1116 3925 1116 3625 
L 1116 3319 
L 1763 3319 
L 1763 2881 
L 1116 2881 
L 1116 0 
L 556 0 
z
" transform="scale(0.015625)"/>
       <path id="ArialMT-72" d="M 416 0 
L 416 3319 
L 922 3319 
L 922 2816 
Q 1116 3169 1280 3281 
Q 1444 3394 1641 3394 
Q 1925 3394 2219 3213 
L 2025 2691 
Q 1819 2813 1613 2813 
Q 1428 2813 1281 2702 
Q 1134 2591 1072 2394 
Q 978 2094 978 1738 
L 978 0 
L 416 0 
z
" transform="scale(0.015625)"/>
       <path id="ArialMT-6f" d="M 213 1659 
Q 213 2581 725 3025 
Q 1153 3394 1769 3394 
Q 2453 3394 2887 2945 
Q 3322 2497 3322 1706 
Q 3322 1066 3130 698 
Q 2938 331 2570 128 
Q 2203 -75 1769 -75 
Q 1072 -75 642 372 
Q 213 819 213 1659 
z
M 791 1659 
Q 791 1022 1069 705 
Q 1347 388 1769 388 
Q 2188 388 2466 706 
Q 2744 1025 2744 1678 
Q 2744 2294 2464 2611 
Q 2184 2928 1769 2928 
Q 1347 2928 1069 2612 
Q 791 2297 791 1659 
z
" transform="scale(0.015625)"/>
       <path id="ArialMT-6d" d="M 422 0 
L 422 3319 
L 925 3319 
L 925 2853 
Q 1081 3097 1340 3245 
Q 1600 3394 1931 3394 
Q 2300 3394 2536 3241 
Q 2772 3088 2869 2813 
Q 3263 3394 3894 3394 
Q 4388 3394 4653 3120 
Q 4919 2847 4919 2278 
L 4919 0 
L 4359 0 
L 4359 2091 
Q 4359 2428 4304 2576 
Q 4250 2725 4106 2815 
Q 3963 2906 3769 2906 
Q 3419 2906 3187 2673 
Q 2956 2441 2956 1928 
L 2956 0 
L 2394 0 
L 2394 2156 
Q 2394 2531 2256 2718 
Q 2119 2906 1806 2906 
Q 1569 2906 1367 2781 
Q 1166 2656 1075 2415 
Q 984 2175 984 1722 
L 984 0 
L 422 0 
z
" transform="scale(0.015625)"/>
       <path id="ArialMT-75" d="M 2597 0 
L 2597 488 
Q 2209 -75 1544 -75 
Q 1250 -75 995 37 
Q 741 150 617 320 
Q 494 491 444 738 
Q 409 903 409 1263 
L 409 3319 
L 972 3319 
L 972 1478 
Q 972 1038 1006 884 
Q 1059 663 1231 536 
Q 1403 409 1656 409 
Q 1909 409 2131 539 
Q 2353 669 2445 892 
Q 2538 1116 2538 1541 
L 2538 3319 
L 3100 3319 
L 3100 0 
L 2597 0 
z
" transform="scale(0.015625)"/>
       <path id="ArialMT-28" d="M 1497 -1347 
Q 1031 -759 709 28 
Q 388 816 388 1659 
Q 388 2403 628 3084 
Q 909 3875 1497 4659 
L 1900 4659 
Q 1522 4009 1400 3731 
Q 1209 3300 1100 2831 
Q 966 2247 966 1656 
Q 966 153 1900 -1347 
L 1497 -1347 
z
" transform="scale(0.015625)"/>
       <path id="ArialMT-3bc" d="M 3181 3319 
L 3181 0 
L 2678 0 
L 2678 394 
Q 2516 144 2356 50 
Q 2138 -78 1847 -78 
Q 1588 -78 1388 25 
Q 1238 103 1056 334 
L 1056 -1272 
L 500 -1272 
L 500 3319 
L 1056 3319 
L 1056 1913 
Q 1056 1147 1137 920 
Q 1219 694 1401 562 
Q 1584 431 1822 431 
Q 2072 431 2269 568 
Q 2466 706 2547 923 
Q 2628 1141 2628 1903 
L 2628 3319 
L 3181 3319 
z
" transform="scale(0.015625)"/>
       <path id="ArialMT-29" d="M 791 -1347 
L 388 -1347 
Q 1322 153 1322 1656 
Q 1322 2244 1188 2822 
Q 1081 3291 891 3722 
Q 769 4003 388 4659 
L 791 4659 
Q 1378 3875 1659 3084 
Q 1900 2403 1900 1659 
Q 1900 816 1576 28 
Q 1253 -759 791 -1347 
z
" transform="scale(0.015625)"/>
      </defs>
      <use xlink:href="#ArialMT-44" transform="translate(0 0.203125)"/>
      <use xlink:href="#ArialMT-69" transform="translate(72.216797 0.203125)"/>
      <use xlink:href="#ArialMT-73" transform="translate(94.433594 0.203125)"/>
      <use xlink:href="#ArialMT-74" transform="translate(144.433594 0.203125)"/>
      <use xlink:href="#ArialMT-61" transform="translate(172.216797 0.203125)"/>
      <use xlink:href="#ArialMT-6e" transform="translate(227.832031 0.203125)"/>
      <use xlink:href="#ArialMT-63" transform="translate(283.447266 0.203125)"/>
      <use xlink:href="#ArialMT-65" transform="translate(333.447266 0.203125)"/>
      <use xlink:href="#ArialMT-20" transform="translate(389.0625 0.203125)"/>
      <use xlink:href="#ArialMT-66" transform="translate(416.845703 0.203125)"/>
      <use xlink:href="#ArialMT-72" transform="translate(444.628906 0.203125)"/>
      <use xlink:href="#ArialMT-6f" transform="translate(477.929688 0.203125)"/>
      <use xlink:href="#ArialMT-6d" transform="translate(533.544922 0.203125)"/>
      <use xlink:href="#ArialMT-20" transform="translate(616.845703 0.203125)"/>
      <use xlink:href="#ArialMT-73" transform="translate(644.628906 0.203125)"/>
      <use xlink:href="#ArialMT-6f" transform="translate(694.628906 0.203125)"/>
      <use xlink:href="#ArialMT-75" transform="translate(750.244141 0.203125)"/>
      <use xlink:href="#ArialMT-72" transform="translate(805.859375 0.203125)"/>
      <use xlink:href="#ArialMT-63" transform="translate(839.160156 0.203125)"/>
      <use xlink:href="#ArialMT-65" transform="translate(889.160156 0.203125)"/>
      <use xlink:href="#ArialMT-20" transform="translate(944.775391 0.203125)"/>
      <use xlink:href="#ArialMT-28" transform="translate(972.558594 0.203125)"/>
      <use xlink:href="#ArialMT-3bc" transform="translate(1005.859375 0.203125)"/>
      <use xlink:href="#ArialMT-6d" transform="translate(1063.476562 0.203125)"/>
      <use xlink:href="#ArialMT-29" transform="translate(1146.777344 0.203125)"/>
     </g>
    </g>
   </g>
   <g id="matplotlib.axis_2">
    <g id="ytick_1">
     <g id="line2d_9">
      <defs>
       <path id="m134be38832" d="M 0 0 
L -3 0 
" style="stroke: #000000; stroke-width: 0.6"/>
      </defs>
      <g>
       <use xlink:href="#m134be38832" x="37.38" y="163.942495" style="stroke: #000000; stroke-width: 0.6"/>
      </g>
     </g>
     <g id="text_10">
      <!-- 0.0 -->
      <g transform="translate(19.76 166.80562) scale(0.08 -0.08)">
       <defs>
        <path id="ArialMT-2e" d="M 581 0 
L 581 641 
L 1222 641 
L 1222 0 
L 581 0 
z
" transform="scale(0.015625)"/>
       </defs>
       <use xlink:href="#ArialMT-30"/>
       <use xlink:href="#ArialMT-2e" transform="translate(55.615234 0)"/>
       <use xlink:href="#ArialMT-30" transform="translate(83.398438 0)"/>
      </g>
     </g>
    </g>
    <g id="ytick_2">
     <g id="line2d_10">
      <g>
       <use xlink:href="#m134be38832" x="37.38" y="145.383943" style="stroke: #000000; stroke-width: 0.6"/>
      </g>
     </g>
     <g id="text_11">
      <!-- 0.5 -->
      <g transform="translate(19.76 148.247068) scale(0.08 -0.08)">
       <use xlink:href="#ArialMT-30"/>
       <use xlink:href="#ArialMT-2e" transform="translate(55.615234 0)"/>
       <use xlink:href="#ArialMT-35" transform="translate(83.398438 0)"/>
      </g>
     </g>
    </g>
    <g id="ytick_3">
     <g id="line2d_11">
      <g>
       <use xlink:href="#m134be38832" x="37.38" y="126.825391" style="stroke: #000000; stroke-width: 0.6"/>
      </g>
     </g>
     <g id="text_12">
      <!-- 1.0 -->
      <g transform="translate(19.76 129.688516) scale(0.08 -0.08)">
       <use xlink:href="#ArialMT-31"/>
       <use xlink:href="#ArialMT-2e" transform="translate(55.615234 0)"/>
       <use xlink:href="#ArialMT-30" transform="translate(83.398438 0)"/>
      </g>
     </g>
    </g>
    <g id="ytick_4">
     <g id="line2d_12">
      <g>
       <use xlink:href="#m134be38832" x="37.38" y="108.266839" style="stroke: #000000; stroke-width: 0.6"/>
      </g>
     </g>
     <g id="text_13">
      <!-- 1.5 -->
      <g transform="translate(19.76 111.129964) scale(0.08 -0.08)">
       <use xlink:href="#ArialMT-31"/>
       <use xlink:href="#ArialMT-2e" transform="translate(55.615234 0)"/>
       <use xlink:href="#ArialMT-35" transform="translate(83.398438 0)"/>
      </g>
     </g>
    </g>
    <g id="ytick_5">
     <g id="line2d_13">
      <g>
       <use xlink:href="#m134be38832" x="37.38" y="89.708287" style="stroke: #000000; stroke-width: 0.6"/>
      </g>
     </g>
     <g id="text_14">
      <!-- 2.0 -->
      <g transform="translate(19.76 92.571412) scale(0.08 -0.08)">
       <use xlink:href="#ArialMT-32"/>
       <use xlink:href="#ArialMT-2e" transform="translate(55.615234 0)"/>
       <use xlink:href="#ArialMT-30" transform="translate(83.398438 0)"/>
      </g>
     </g>
    </g>
    <g id="ytick_6">
     <g id="line2d_14">
      <g>
       <use xlink:href="#m134be38832" x="37.38" y="71.149735" style="stroke: #000000; stroke-width: 0.6"/>
      </g>
     </g>
     <g id="text_15">
      <!-- 2.5 -->
      <g transform="translate(19.76 74.01286) scale(0.08 -0.08)">
       <use xlink:href="#ArialMT-32"/>
       <use xlink:href="#ArialMT-2e" transform="translate(55.615234 0)"/>
       <use xlink:href="#ArialMT-35" transform="translate(83.398438 0)"/>
      </g>
     </g>
    </g>
    <g id="ytick_7">
     <g id="line2d_15">
      <g>
       <use xlink:href="#m134be38832" x="37.38" y="52.591183" style="stroke: #000000; stroke-width: 0.6"/>
      </g>
     </g>
     <g id="text_16">
      <!-- 3.0 -->
      <g transform="translate(19.76 55.454308) scale(0.08 -0.08)">
       <use xlink:href="#ArialMT-33"/>
       <use xlink:href="#ArialMT-2e" transform="translate(55.615234 0)"/>
       <use xlink:href="#ArialMT-30" transform="translate(83.398438 0)"/>
      </g>
     </g>
    </g>
    <g id="ytick_8">
     <g id="line2d_16">
      <g>
       <use xlink:href="#m134be38832" x="37.38" y="34.03263" style="stroke: #000000; stroke-width: 0.6"/>
      </g>
     </g>
     <g id="text_17">
      <!-- 3.5 -->
      <g transform="translate(19.76 36.895755) scale(0.08 -0.08)">
       <use xlink:href="#ArialMT-33"/>
       <use xlink:href="#ArialMT-2e" transform="translate(55.615234 0)"/>
       <use xlink:href="#ArialMT-35" transform="translate(83.398438 0)"/>
      </g>
     </g>
    </g>
    <g id="ytick_9">
     <g id="line2d_17">
      <g>
       <use xlink:href="#m134be38832" x="37.38" y="15.474078" style="stroke: #000000; stroke-width: 0.6"/>
      </g>
     </g>
     <g id="text_18">
      <!-- 4.0 -->
      <g transform="translate(19.76 18.337203) scale(0.08 -0.08)">
       <defs>
        <path id="ArialMT-34" d="M 2069 0 
L 2069 1097 
L 81 1097 
L 81 1613 
L 2172 4581 
L 2631 4581 
L 2631 1613 
L 3250 1613 
L 3250 1097 
L 2631 1097 
L 2631 0 
L 2069 0 
z
M 2069 1613 
L 2069 3678 
L 634 1613 
L 2069 1613 
z
" transform="scale(0.015625)"/>
       </defs>
       <use xlink:href="#ArialMT-34"/>
       <use xlink:href="#ArialMT-2e" transform="translate(55.615234 0)"/>
       <use xlink:href="#ArialMT-30" transform="translate(83.398438 0)"/>
      </g>
     </g>
    </g>
    <g id="text_19">
     <!-- $K^* = K\,/\,K_{\mathrm{far}}$ -->
     <g transform="translate(13.28 107.64) rotate(-90) scale(0.08 -0.08)">
      <defs>
       <path id="ArialMT-4b" d="M 469 0 
L 469 4581 
L 1075 4581 
L 1075 2309 
L 3350 4581 
L 4172 4581 
L 2250 2725 
L 4256 0 
L 3456 0 
L 1825 2319 
L 1075 1588 
L 1075 0 
L 469 0 
z
" transform="scale(0.015625)"/>
       <path id="ArialMT-2a" d="M 200 3741 
L 344 4184 
Q 841 4009 1066 3881 
Q 1006 4447 1003 4659 
L 1456 4659 
Q 1447 4350 1384 3884 
Q 1706 4047 2122 4184 
L 2266 3741 
Q 1869 3609 1488 3566 
Q 1678 3400 2025 2975 
L 1650 2709 
Q 1469 2956 1222 3381 
Q 991 2941 816 2709 
L 447 2975 
Q 809 3422 966 3566 
Q 563 3644 200 3741 
z
" transform="scale(0.015625)"/>
       <path id="ArialMT-3d" d="M 3381 2694 
L 356 2694 
L 356 3219 
L 3381 3219 
L 3381 2694 
z
M 3381 1303 
L 356 1303 
L 356 1828 
L 3381 1828 
L 3381 1303 
z
" transform="scale(0.015625)"/>
       <path id="ArialMT-2f" d="M 0 -78 
L 1328 4659 
L 1778 4659 
L 453 -78 
L 0 -78 
z
" transform="scale(0.015625)"/>
       <path id="DejaVuSans-66" d="M 2375 4863 
L 2375 4384 
L 1825 4384 
Q 1516 4384 1395 4259 
Q 1275 4134 1275 3809 
L 1275 3500 
L 2222 3500 
L 2222 3053 
L 1275 3053 
L 1275 0 
L 697 0 
L 697 3053 
L 147 3053 
L 147 3500 
L 697 3500 
L 697 3744 
Q 697 4328 969 4595 
Q 1241 4863 1831 4863 
L 2375 4863 
z
" transform="scale(0.015625)"/>
       <path id="DejaVuSans-61" d="M 2194 1759 
Q 1497 1759 1228 1600 
Q 959 1441 959 1056 
Q 959 750 1161 570 
Q 1363 391 1709 391 
Q 2188 391 2477 730 
Q 2766 1069 2766 1631 
L 2766 1759 
L 2194 1759 
z
M 3341 1997 
L 3341 0 
L 2766 0 
L 2766 531 
Q 2569 213 2275 61 
Q 1981 -91 1556 -91 
Q 1019 -91 701 211 
Q 384 513 384 1019 
Q 384 1609 779 1909 
Q 1175 2209 1959 2209 
L 2766 2209 
L 2766 2266 
Q 2766 2663 2505 2880 
Q 2244 3097 1772 3097 
Q 1472 3097 1187 3025 
Q 903 2953 641 2809 
L 641 3341 
Q 956 3463 1253 3523 
Q 1550 3584 1831 3584 
Q 2591 3584 2966 3190 
Q 3341 2797 3341 1997 
z
" transform="scale(0.015625)"/>
       <path id="DejaVuSans-72" d="M 2631 2963 
Q 2534 3019 2420 3045 
Q 2306 3072 2169 3072 
Q 1681 3072 1420 2755 
Q 1159 2438 1159 1844 
L 1159 0 
L 581 0 
L 581 3500 
L 1159 3500 
L 1159 2956 
Q 1341 3275 1631 3429 
Q 1922 3584 2338 3584 
Q 2397 3584 2469 3576 
Q 2541 3569 2628 3553 
L 2631 2963 
z
" transform="scale(0.015625)"/>
      </defs>
      <use xlink:href="#ArialMT-4b" transform="translate(0 0.348438)"/>
      <use xlink:href="#ArialMT-2a" transform="translate(82.079258 70.042188) scale(0.7)"/>
      <use xlink:href="#ArialMT-3d" transform="translate(147.418711 0.348438)"/>
      <use xlink:href="#ArialMT-4b" transform="translate(225.29957 0.348438)"/>
      <use xlink:href="#ArialMT-2f" transform="translate(308.234465 0.348438)"/>
      <use xlink:href="#ArialMT-4b" transform="translate(352.253345 0.348438)"/>
      <use xlink:href="#DejaVuSans-66" transform="translate(420.694907 -29.520312) scale(0.7)"/>
      <use xlink:href="#DejaVuSans-61" transform="translate(445.338462 -29.520312) scale(0.7)"/>
      <use xlink:href="#DejaVuSans-72" transform="translate(488.23397 -29.520312) scale(0.7)"/>
     </g>
    </g>
   </g>
   <g id="line2d_18">
    <path d="M 39.173571 153.400978 
L 42.760714 152.452221 
L 46.347857 153.147657 
L 49.935 151.985637 
L 53.522143 145.770776 
L 57.109286 148.439598 
L 60.696429 146.45671 
L 64.283571 142.494215 
L 67.870714 144.01424 
L 71.457857 140.369443 
L 75.045 139.846428 
L 78.632143 143.046492 
L 82.219286 143.707716 
L 85.806429 134.864654 
L 89.393571 132.969525 
L 92.980714 149.321697 
L 96.567857 140.815178 
L 100.155 141.992486 
L 103.742143 131.583792 
L 107.329286 135.010617 
L 110.916429 147.161245 
L 114.503571 139.087768 
L 118.090714 120.306422 
L 121.677857 151.207354 
L 125.265 117.167 
L 128.852143 131.460412 
L 132.439286 138.331156 
L 136.026429 136.48183 
L 139.613571 136.270791 
L 143.200714 142.8115 
L 146.787857 122.762799 
L 150.375 136.19409 
L 153.962143 129.66544 
L 157.549286 138.064058 
L 161.136429 86.231473 
L 164.723571 120.229983 
L 168.310714 125.162524 
L 171.897857 122.946558 
L 175.485 129.482384 
L 179.072143 129.333037 
L 182.659286 127.524107 
L 186.246429 127.707923 
L 189.833571 135.257529 
L 193.420714 119.617335 
L 197.007857 99.06779 
L 200.595 142.423741 
L 204.182143 132.3121 
L 207.769286 122.257594 
L 211.356429 118.775725 
L 214.943571 135.845338 
L 218.530714 136.774279 
L 222.117857 128.97059 
L 225.705 131.096157 
L 229.292143 136.834183 
L 232.879286 113.552593 
L 240.053571 128.128125 
L 247.227857 134.774686 
L 250.815 116.670269 
" clip-path="url(#pcf0f4ba938)" style="fill: none; stroke: #2ca02c; stroke-opacity: 0.35; stroke-width: 0.8; stroke-linecap: square"/>
   </g>
   <g id="line2d_19">
    <path d="M 39.173571 156.075348 
L 42.760714 151.378826 
L 46.347857 148.364672 
L 49.935 152.492666 
L 53.522143 141.324939 
L 57.109286 142.810776 
L 60.696429 146.659617 
L 64.283571 149.435001 
L 67.870714 140.078217 
L 71.457857 136.339146 
L 75.045 126.28859 
L 78.632143 133.26359 
L 82.219286 135.344534 
L 85.806429 142.829487 
L 89.393571 139.805144 
L 92.980714 133.302519 
L 96.567857 141.749227 
L 100.155 140.976299 
L 103.742143 140.569265 
L 107.329286 122.94426 
L 110.916429 136.435944 
L 114.503571 136.028602 
L 118.090714 131.378542 
L 121.677857 133.072839 
L 125.265 138.839563 
L 128.852143 137.1853 
L 132.439286 139.515121 
L 136.026429 129.772773 
L 139.613571 113.242499 
L 143.200714 145.009901 
L 146.787857 132.156156 
L 150.375 123.750261 
L 153.962143 116.725351 
L 157.549286 129.740175 
L 161.136429 114.756217 
L 164.723571 128.611716 
L 168.310714 132.547507 
L 171.897857 140.573955 
L 175.485 129.060974 
L 179.072143 108.468873 
L 182.659286 130.343458 
L 186.246429 138.999675 
L 189.833571 129.138458 
L 193.420714 134.097319 
L 197.007857 124.96651 
L 200.595 122.486187 
L 204.182143 118.836644 
L 207.769286 122.977837 
L 211.356429 111.629223 
L 214.943571 112.008884 
L 218.530714 127.715806 
L 222.117857 126.44957 
L 225.705 126.374748 
L 229.292143 142.249706 
L 232.879286 124.411717 
L 236.466429 131.858127 
L 240.053571 122.797836 
L 243.640714 117.862614 
L 247.227857 128.795632 
L 250.815 119.631146 
L 254.402143 130.24896 
L 257.989286 103.928867 
L 261.576429 144.409794 
L 268.750714 137.484599 
" clip-path="url(#pcf0f4ba938)" style="fill: none; stroke: #2ca02c; stroke-opacity: 0.35; stroke-width: 0.8; stroke-linecap: square"/>
   </g>
   <g id="line2d_20">
    <path d="M 39.173571 148.112983 
L 42.760714 142.5373 
L 46.347857 123.603557 
L 49.935 136.149349 
L 53.522143 141.520469 
L 57.109286 141.081635 
L 60.696429 135.300976 
L 64.283571 136.593796 
L 67.870714 149.13858 
L 71.457857 133.775967 
L 75.045 143.206137 
L 78.632143 141.801564 
L 82.219286 138.757237 
L 85.806429 141.473901 
L 89.393571 141.512329 
L 92.980714 147.955301 
L 96.567857 141.162326 
L 100.155 135.056919 
L 103.742143 147.480834 
L 107.329286 146.076821 
L 110.916429 137.215836 
L 114.503571 139.455201 
L 118.090714 148.347833 
L 121.677857 139.012385 
L 125.265 138.688206 
L 128.852143 146.478952 
L 132.439286 142.296848 
L 136.026429 121.251117 
L 139.613571 111.725867 
L 143.200714 134.153571 
L 146.787857 137.624148 
L 150.375 134.215251 
L 153.962143 133.944819 
L 157.549286 142.438878 
L 161.136429 136.569262 
L 164.723571 141.061972 
L 168.310714 112.168022 
L 171.897857 141.161675 
L 175.485 122.956378 
L 179.072143 121.878521 
L 182.659286 129.239527 
L 186.246429 129.156695 
L 189.833571 141.19205 
L 193.420714 112.619829 
L 197.007857 133.111139 
L 200.595 127.31708 
L 204.182143 132.076609 
L 207.769286 129.07528 
L 211.356429 135.680713 
L 214.943571 121.740063 
L 218.530714 140.365284 
L 222.117857 104.098041 
L 225.705 126.021787 
L 229.292143 50.549581 
L 232.879286 123.562908 
L 236.466429 123.563136 
L 243.640714 91.806368 
L 247.227857 115.620271 
L 254.402143 150.585662 
" clip-path="url(#pcf0f4ba938)" style="fill: none; stroke: #2ca02c; stroke-opacity: 0.35; stroke-width: 0.8; stroke-linecap: square"/>
   </g>
   <g id="line2d_21">
    <path d="M 39.173571 139.567305 
L 42.760714 145.689101 
L 46.347857 132.416515 
L 49.935 138.60112 
L 53.522143 128.397516 
L 57.109286 126.555977 
L 60.696429 137.921865 
L 64.283571 140.22373 
L 67.870714 139.55 
L 71.457857 136.199037 
L 75.045 139.113554 
L 78.632143 143.444225 
L 82.219286 144.09109 
L 85.806429 140.801149 
L 89.393571 142.684261 
L 92.980714 141.805073 
L 96.567857 137.942125 
L 100.155 138.657353 
L 103.742143 138.867326 
L 107.329286 140.097843 
L 110.916429 135.531556 
L 114.503571 137.649867 
L 118.090714 135.481152 
L 121.677857 133.443313 
L 125.265 136.928521 
L 128.852143 134.310516 
L 132.439286 138.867966 
L 136.026429 131.245334 
L 139.613571 138.18367 
L 143.200714 131.525354 
L 146.787857 131.800894 
L 150.375 125.378762 
L 153.962143 138.022636 
L 157.549286 106.116719 
L 161.136429 134.515726 
L 164.723571 136.206991 
L 168.310714 125.100639 
L 171.897857 117.691346 
L 175.485 136.830284 
L 179.072143 136.398048 
L 182.659286 129.538863 
L 186.246429 128.942907 
L 189.833571 134.395315 
L 193.420714 136.195295 
L 197.007857 129.114435 
L 200.595 126.042022 
L 204.182143 120.772121 
L 207.769286 132.042056 
L 211.356429 129.997944 
L 214.943571 133.47141 
L 218.530714 123.565143 
L 222.117857 116.374743 
L 225.705 130.701015 
L 229.292143 107.575542 
L 232.879286 130.121826 
L 236.466429 118.60885 
L 240.053571 115.566372 
L 243.640714 104.740472 
L 247.227857 115.927538 
L 250.815 113.495672 
L 254.402143 120.407243 
L 257.989286 114.359933 
L 261.576429 135.972858 
L 265.163571 123.819248 
L 268.750714 131.289806 
L 275.925 142.277638 
" clip-path="url(#pcf0f4ba938)" style="fill: none; stroke: #2ca02c; stroke-opacity: 0.35; stroke-width: 0.8; stroke-linecap: square"/>
   </g>
   <g id="line2d_22">
    <path d="M 39.173571 140.388201 
L 42.760714 148.814 
L 46.347857 142.393699 
L 49.935 142.426971 
L 53.522143 147.763871 
L 57.109286 145.176875 
L 60.696429 139.293077 
L 64.283571 147.176975 
L 67.870714 147.900041 
L 71.457857 143.517371 
L 75.045 145.001187 
L 78.632143 138.454705 
L 82.219286 139.714717 
L 85.806429 139.786069 
L 89.393571 141.263977 
L 92.980714 126.055076 
L 96.567857 135.517797 
L 100.155 138.755291 
L 103.742143 135.374072 
L 107.329286 137.373529 
L 110.916429 129.145734 
L 114.503571 137.060464 
L 118.090714 134.268472 
L 121.677857 121.633351 
L 125.265 130.44787 
L 128.852143 148.186535 
L 132.439286 137.948043 
L 136.026429 139.795237 
L 139.613571 149.480965 
L 143.200714 141.229327 
L 146.787857 133.627644 
L 150.375 137.976424 
L 153.962143 136.620667 
L 157.549286 133.219596 
L 161.136429 133.181488 
L 164.723571 110.119582 
L 168.310714 128.322775 
L 171.897857 128.863882 
L 175.485 123.781854 
L 179.072143 115.641006 
L 182.659286 130.188034 
L 186.246429 129.369471 
L 189.833571 131.138593 
L 193.420714 110.738131 
L 197.007857 104.567938 
L 200.595 126.554274 
L 204.182143 124.124808 
L 207.769286 137.684798 
L 211.356429 146.159651 
L 214.943571 116.517763 
L 218.530714 108.952635 
L 222.117857 122.133047 
L 225.705 103.940415 
L 229.292143 121.554446 
L 232.879286 134.73775 
L 236.466429 118.266366 
L 240.053571 107.848612 
L 243.640714 135.865567 
L 247.227857 141.494901 
L 254.402143 146.730641 
" clip-path="url(#pcf0f4ba938)" style="fill: none; stroke: #2ca02c; stroke-opacity: 0.35; stroke-width: 0.8; stroke-linecap: square"/>
   </g>
   <g id="line2d_23">
    <path d="M 53.522143 150.442045 
L 57.109286 151.646753 
L 60.696429 142.04268 
L 64.283571 151.461391 
L 67.870714 139.306579 
L 71.457857 126.954327 
L 75.045 118.567102 
L 78.632143 152.28839 
L 82.219286 134.114233 
L 85.806429 146.729415 
L 89.393571 116.127577 
L 92.980714 139.909083 
L 96.567857 84.719429 
L 100.155 125.624068 
L 103.742143 142.856293 
L 107.329286 108.09811 
L 110.916429 131.858817 
L 114.503571 143.497178 
L 118.090714 142.557067 
L 121.677857 133.551064 
L 125.265 128.54457 
L 132.439286 106.797273 
L 136.026429 133.017139 
L 139.613571 133.788583 
L 146.787857 117.808234 
L 150.375 111.926496 
L 153.962143 130.021066 
L 157.549286 138.735957 
L 164.723571 137.897519 
L 168.310714 123.69549 
L 171.897857 122.19865 
L 182.659286 106.026208 
L 186.246429 123.569741 
L 189.833571 125.140117 
L 193.420714 144.681657 
L 197.007857 121.792185 
L 200.595 108.767844 
L 204.182143 123.255585 
L 211.356429 143.807798 
L 214.943571 115.83578 
L 222.117857 119.677272 
L 229.292143 127.860328 
L 232.879286 118.53195 
L 236.466429 127.939096 
L 243.640714 126.451233 
L 247.227857 123.682291 
L 250.815 128.574042 
L 257.989286 123.994897 
L 261.576429 111.017151 
L 265.163571 113.521235 
L 268.750714 132.196832 
L 272.337857 140.057639 
L 279.512143 135.918021 
L 283.099286 152.072857 
L 290.273571 146.690907 
" clip-path="url(#pcf0f4ba938)" style="fill: none; stroke: #e67e22; stroke-opacity: 0.35; stroke-width: 0.8; stroke-linecap: square"/>
   </g>
   <g id="line2d_24">
    <path d="M 42.760714 147.691954 
L 46.347857 148.933705 
L 49.935 144.850807 
L 53.522143 151.216518 
L 57.109286 146.42354 
L 60.696429 147.816074 
L 64.283571 144.565963 
L 67.870714 149.547401 
L 71.457857 146.451656 
L 75.045 145.264644 
L 78.632143 145.088568 
L 82.219286 143.117726 
L 85.806429 146.284785 
L 89.393571 144.051917 
L 92.980714 150.245354 
L 96.567857 141.53528 
L 100.155 147.116441 
L 103.742143 136.978932 
L 107.329286 137.486469 
L 110.916429 135.878886 
L 114.503571 127.029037 
L 118.090714 128.898566 
L 121.677857 134.47088 
L 125.265 123.592691 
L 128.852143 147.98898 
L 132.439286 139.963052 
L 136.026429 117.587784 
L 139.613571 122.354127 
L 143.200714 131.794272 
L 146.787857 98.311291 
L 150.375 127.269477 
L 153.962143 109.762874 
L 157.549286 133.4265 
L 161.136429 145.358485 
L 164.723571 141.47982 
L 168.310714 132.338458 
L 171.897857 124.593506 
L 175.485 129.012288 
L 179.072143 130.752935 
L 182.659286 139.620101 
L 186.246429 146.614963 
L 189.833571 123.169514 
L 193.420714 76.938343 
L 197.007857 115.251951 
L 200.595 140.521072 
L 204.182143 135.674836 
L 207.769286 133.275236 
L 211.356429 134.609526 
L 218.530714 122.275996 
L 222.117857 125.75821 
L 225.705 135.2391 
L 229.292143 136.199784 
L 232.879286 121.318937 
L 236.466429 136.229273 
L 240.053571 124.970088 
L 243.640714 119.718466 
L 247.227857 118.390458 
L 250.815 135.540358 
L 254.402143 113.518341 
L 257.989286 134.030592 
L 261.576429 108.904767 
L 265.163571 137.889933 
L 268.750714 126.851103 
L 272.337857 135.733851 
L 279.512143 138.990939 
L 283.099286 100.432271 
" clip-path="url(#pcf0f4ba938)" style="fill: none; stroke: #e67e22; stroke-opacity: 0.35; stroke-width: 0.8; stroke-linecap: square"/>
   </g>
   <g id="line2d_25">
    <path d="M 46.347857 153.686053 
L 49.935 149.254147 
L 53.522143 146.192013 
L 57.109286 144.04462 
L 60.696429 145.741844 
L 64.283571 144.844699 
L 67.870714 144.1776 
L 71.457857 140.948792 
L 75.045 133.539479 
L 78.632143 147.723242 
L 82.219286 132.345647 
L 85.806429 136.212102 
L 89.393571 129.551083 
L 92.980714 139.000798 
L 96.567857 140.629646 
L 100.155 116.999114 
L 103.742143 138.604053 
L 107.329286 120.801614 
L 110.916429 124.952687 
L 114.503571 110.052596 
L 118.090714 139.764006 
L 121.677857 113.124572 
L 125.265 126.395625 
L 128.852143 139.092825 
L 132.439286 127.459695 
L 136.026429 142.308665 
L 139.613571 144.516339 
L 143.200714 128.584602 
L 146.787857 125.376542 
L 150.375 128.534611 
L 153.962143 132.09465 
L 157.549286 132.469782 
L 161.136429 121.666791 
L 164.723571 130.691709 
L 168.310714 137.065637 
L 171.897857 135.304665 
L 175.485 101.935112 
L 179.072143 130.068184 
L 182.659286 128.745979 
L 186.246429 122.558454 
L 189.833571 132.24604 
L 193.420714 126.209007 
L 197.007857 124.094368 
L 200.595 130.740904 
L 204.182143 125.409758 
L 207.769286 129.133109 
L 211.356429 134.580959 
L 214.943571 121.701991 
L 218.530714 131.093182 
L 222.117857 124.265316 
L 225.705 130.739777 
L 229.292143 119.16392 
L 232.879286 135.970029 
L 236.466429 131.427021 
L 240.053571 126.533718 
L 243.640714 101.97939 
L 247.227857 121.88392 
L 250.815 130.870356 
L 254.402143 114.301715 
L 257.989286 141.955036 
L 261.576429 136.010188 
L 265.163571 110.630163 
" clip-path="url(#pcf0f4ba938)" style="fill: none; stroke: #e67e22; stroke-opacity: 0.35; stroke-width: 0.8; stroke-linecap: square"/>
   </g>
   <g id="line2d_26">
    <path d="M 46.347857 157.430391 
L 49.935 128.06077 
L 53.522143 138.390328 
L 57.109286 137.721332 
L 60.696429 144.462642 
L 64.283571 144.417464 
L 67.870714 141.252986 
L 71.457857 142.099359 
L 75.045 138.48916 
L 78.632143 140.910971 
L 82.219286 131.345197 
L 85.806429 119.623969 
L 89.393571 127.497375 
L 92.980714 138.979256 
L 96.567857 125.117283 
L 100.155 133.976938 
L 103.742143 133.951085 
L 107.329286 138.701982 
L 110.916429 133.217306 
L 114.503571 131.047978 
L 118.090714 125.993485 
L 121.677857 137.373282 
L 125.265 126.31303 
L 128.852143 135.217046 
L 132.439286 128.271244 
L 136.026429 123.863162 
L 139.613571 133.405395 
L 143.200714 132.568633 
L 146.787857 131.056118 
L 150.375 122.910062 
L 153.962143 128.150871 
L 157.549286 128.063011 
L 161.136429 133.674062 
L 164.723571 133.980343 
L 168.310714 142.890416 
L 171.897857 133.345519 
L 175.485 132.273089 
L 179.072143 103.40986 
L 182.659286 124.541237 
L 186.246429 128.001351 
L 189.833571 119.34821 
L 193.420714 138.532548 
L 197.007857 127.998066 
L 200.595 116.982793 
L 204.182143 102.912536 
L 207.769286 143.155875 
L 211.356429 143.180357 
L 214.943571 127.110786 
L 218.530714 115.60391 
L 222.117857 130.595899 
L 225.705 136.033243 
L 229.292143 114.326069 
L 232.879286 125.824497 
L 236.466429 104.075436 
L 240.053571 114.809093 
L 243.640714 127.317504 
L 247.227857 115.616234 
L 250.815 124.792687 
L 254.402143 114.33143 
L 257.989286 135.781869 
L 261.576429 126.071981 
L 265.163571 111.854259 
L 268.750714 128.40097 
L 272.337857 131.378734 
L 275.925 133.065501 
L 279.512143 126.901152 
L 283.099286 120.903031 
L 286.686429 133.546489 
" clip-path="url(#pcf0f4ba938)" style="fill: none; stroke: #e67e22; stroke-opacity: 0.35; stroke-width: 0.8; stroke-linecap: square"/>
   </g>
   <g id="line2d_27">
    <path d="M 49.935 162.36 
L 53.522143 153.865631 
L 57.109286 156.326459 
L 60.696429 153.432367 
L 64.283571 152.455221 
L 67.870714 153.380362 
L 71.457857 152.440898 
L 75.045 138.198581 
L 78.632143 153.386942 
L 82.219286 142.028507 
L 85.806429 151.82879 
L 89.393571 153.558536 
L 92.980714 145.259875 
L 96.567857 152.86507 
L 100.155 142.939378 
L 103.742143 146.809925 
L 107.329286 140.816952 
L 110.916429 137.89393 
L 114.503571 153.30423 
L 118.090714 139.395179 
L 121.677857 145.622671 
L 125.265 144.876061 
L 128.852143 140.811787 
L 132.439286 148.292196 
L 136.026429 146.733218 
L 139.613571 137.151792 
L 143.200714 143.020914 
L 146.787857 132.471319 
L 150.375 152.398581 
L 153.962143 133.932797 
L 157.549286 130.637789 
L 161.136429 99.921331 
L 164.723571 145.798785 
L 168.310714 142.066661 
L 171.897857 124.531495 
L 175.485 127.225696 
L 179.072143 128.226876 
L 182.659286 138.172481 
L 186.246429 122.910392 
L 189.833571 131.740292 
L 193.420714 144.233747 
L 197.007857 139.988742 
L 200.595 132.623132 
L 204.182143 142.567735 
L 207.769286 141.487375 
L 211.356429 151.047074 
L 214.943571 126.201953 
L 218.530714 132.566626 
L 222.117857 117.108377 
L 225.705 122.479418 
L 229.292143 148.592487 
L 232.879286 101.657145 
L 236.466429 131.516834 
L 240.053571 124.079122 
L 243.640714 96.107328 
L 250.815 113.069786 
L 254.402143 128.165743 
L 257.989286 132.899471 
L 261.576429 118.80242 
L 265.163571 133.681058 
L 268.750714 54.693334 
L 272.337857 82.555808 
L 275.925 70.715644 
L 279.512143 114.557276 
" clip-path="url(#pcf0f4ba938)" style="fill: none; stroke: #e67e22; stroke-opacity: 0.35; stroke-width: 0.8; stroke-linecap: square"/>
   </g>
   <g id="line2d_28">
    <path d="M 64.283571 157.250594 
L 67.870714 155.483206 
L 71.457857 153.398604 
L 75.045 149.717416 
L 78.632143 148.3203 
L 82.219286 149.422631 
L 85.806429 145.85812 
L 89.393571 145.40827 
L 92.980714 150.03593 
L 96.567857 139.926499 
L 100.155 150.746688 
L 103.742143 144.928333 
L 107.329286 138.975613 
L 110.916429 142.856723 
L 114.503571 124.223641 
L 118.090714 137.874286 
L 121.677857 136.565177 
L 125.265 139.492999 
L 128.852143 138.534862 
L 132.439286 133.222388 
L 136.026429 138.877282 
L 139.613571 138.258829 
L 143.200714 144.769926 
L 146.787857 131.060961 
L 150.375 117.099972 
L 153.962143 74.474624 
L 157.549286 120.740752 
L 161.136429 137.4236 
L 164.723571 136.314755 
L 168.310714 142.495453 
L 171.897857 128.232553 
L 175.485 115.885525 
L 179.072143 124.020442 
L 182.659286 134.525499 
L 186.246429 141.012682 
L 189.833571 134.532252 
L 193.420714 127.914572 
L 197.007857 149.992792 
L 200.595 124.671922 
L 204.182143 129.41317 
L 207.769286 144.485629 
L 211.356429 128.864171 
L 214.943571 130.901543 
L 218.530714 130.453269 
L 222.117857 129.32935 
L 225.705 134.889937 
L 229.292143 121.144197 
L 232.879286 125.832453 
L 236.466429 132.81221 
L 240.053571 136.566553 
L 243.640714 128.041669 
L 247.227857 105.699651 
L 250.815 144.751252 
L 254.402143 108.016045 
L 257.989286 140.7338 
L 261.576429 133.77226 
L 265.163571 124.927886 
L 268.750714 112.234698 
L 272.337857 123.015037 
L 275.925 105.004218 
L 283.099286 116.13762 
L 286.686429 127.190352 
" clip-path="url(#pcf0f4ba938)" style="fill: none; stroke: #1f77b4; stroke-opacity: 0.35; stroke-width: 0.8; stroke-linecap: square"/>
   </g>
   <g id="line2d_29">
    <path d="M 53.522143 149.211598 
L 57.109286 145.842165 
L 60.696429 145.034753 
L 64.283571 146.756544 
L 67.870714 145.55396 
L 71.457857 148.188025 
L 75.045 135.848239 
L 78.632143 130.934578 
L 82.219286 144.542021 
L 85.806429 138.791753 
L 89.393571 137.773811 
L 92.980714 135.213201 
L 96.567857 138.308902 
L 100.155 146.19897 
L 103.742143 129.315671 
L 107.329286 138.596962 
L 110.916429 142.968241 
L 114.503571 134.60071 
L 118.090714 121.650551 
L 121.677857 139.46242 
L 125.265 135.818482 
L 128.852143 131.613943 
L 132.439286 134.446 
L 136.026429 127.412002 
L 139.613571 128.041501 
L 143.200714 133.880936 
L 146.787857 136.05941 
L 150.375 132.273242 
L 153.962143 126.389309 
L 157.549286 134.909094 
L 161.136429 143.590946 
L 164.723571 127.044114 
L 168.310714 129.169303 
L 171.897857 135.132673 
L 175.485 128.010337 
L 179.072143 129.790774 
L 182.659286 128.880884 
L 186.246429 109.380258 
L 189.833571 111.927374 
L 193.420714 126.710586 
L 197.007857 121.670413 
L 200.595 107.336425 
L 204.182143 119.169635 
L 207.769286 137.118283 
L 211.356429 106.922566 
L 214.943571 131.639566 
L 218.530714 130.158417 
L 222.117857 123.630542 
L 225.705 127.81133 
L 229.292143 121.252407 
L 232.879286 124.275331 
L 236.466429 120.337887 
L 240.053571 113.04596 
L 243.640714 133.978588 
L 247.227857 142.050665 
L 250.815 127.912062 
L 254.402143 154.558745 
" clip-path="url(#pcf0f4ba938)" style="fill: none; stroke: #1f77b4; stroke-opacity: 0.35; stroke-width: 0.8; stroke-linecap: square"/>
   </g>
   <g id="line2d_30">
    <path d="M 64.283571 150.476476 
L 67.870714 151.118142 
L 71.457857 150.016224 
L 75.045 149.783498 
L 78.632143 146.583164 
L 82.219286 142.983301 
L 85.806429 145.243248 
L 89.393571 143.988985 
L 92.980714 140.040606 
L 96.567857 147.887172 
L 100.155 134.447353 
L 103.742143 139.408286 
L 107.329286 140.109558 
L 110.916429 144.100707 
L 114.503571 129.030315 
L 118.090714 131.424454 
L 121.677857 134.54023 
L 125.265 135.071994 
L 128.852143 123.018378 
L 132.439286 148.548453 
L 136.026429 137.47752 
L 139.613571 139.114922 
L 143.200714 132.562994 
L 146.787857 142.892831 
L 150.375 141.373564 
L 153.962143 137.583395 
L 157.549286 139.8299 
L 161.136429 139.661639 
L 164.723571 137.954382 
L 168.310714 119.51108 
L 171.897857 129.479382 
L 175.485 109.522191 
L 179.072143 125.279912 
L 182.659286 127.520031 
L 186.246429 138.664728 
L 189.833571 132.606783 
L 193.420714 119.158051 
L 197.007857 136.199441 
L 200.595 131.591938 
L 204.182143 122.788719 
L 207.769286 119.932821 
L 211.356429 116.665703 
L 214.943571 134.452217 
L 218.530714 113.300659 
L 222.117857 80.064803 
L 225.705 128.216027 
L 229.292143 103.121307 
L 232.879286 119.969616 
L 236.466429 117.466164 
L 240.053571 117.392862 
L 243.640714 124.381903 
L 247.227857 115.494612 
L 250.815 122.090315 
L 254.402143 131.605602 
L 257.989286 134.392615 
L 261.576429 122.870864 
L 265.163571 146.813863 
L 268.750714 151.960595 
" clip-path="url(#pcf0f4ba938)" style="fill: none; stroke: #1f77b4; stroke-opacity: 0.35; stroke-width: 0.8; stroke-linecap: square"/>
   </g>
   <g id="line2d_31">
    <path d="M 60.696429 138.85565 
L 64.283571 121.967495 
L 67.870714 138.227806 
L 71.457857 126.196537 
L 75.045 134.206412 
L 78.632143 130.342188 
L 82.219286 131.534824 
L 85.806429 114.478518 
L 89.393571 132.8244 
L 92.980714 134.827051 
L 96.567857 139.622015 
L 100.155 127.61288 
L 103.742143 134.142963 
L 107.329286 110.53525 
L 110.916429 143.993036 
L 114.503571 132.902351 
L 118.090714 141.261015 
L 121.677857 128.358863 
L 125.265 132.312782 
L 128.852143 140.318254 
L 132.439286 140.0356 
L 136.026429 144.08719 
L 139.613571 135.811292 
L 143.200714 136.422302 
L 146.787857 141.807358 
L 150.375 133.033416 
L 153.962143 140.794253 
L 157.549286 135.660402 
L 161.136429 134.050044 
L 164.723571 119.508496 
L 168.310714 125.212299 
L 171.897857 127.526892 
L 175.485 144.617766 
L 179.072143 139.171581 
L 182.659286 121.615296 
L 186.246429 134.678505 
L 189.833571 133.680461 
L 193.420714 140.17582 
L 197.007857 121.691589 
L 200.595 143.827933 
L 204.182143 134.336637 
L 207.769286 130.493254 
L 211.356429 123.802291 
L 214.943571 127.831933 
L 218.530714 128.383198 
L 222.117857 109.531602 
L 225.705 109.838272 
L 229.292143 123.294085 
L 232.879286 119.742251 
L 236.466429 112.554979 
L 240.053571 124.163187 
L 243.640714 99.053314 
L 247.227857 120.574229 
L 250.815 107.19723 
L 254.402143 99.568818 
L 257.989286 109.858021 
L 261.576429 129.510616 
L 265.163571 115.271367 
L 268.750714 147.81061 
" clip-path="url(#pcf0f4ba938)" style="fill: none; stroke: #1f77b4; stroke-opacity: 0.35; stroke-width: 0.8; stroke-linecap: square"/>
   </g>
   <g id="line2d_32">
    <path d="M 67.870714 153.390402 
L 71.457857 154.680442 
L 75.045 153.927164 
L 78.632143 151.944214 
L 82.219286 147.668732 
L 85.806429 152.688001 
L 89.393571 146.668358 
L 92.980714 143.470149 
L 96.567857 142.353248 
L 100.155 144.910891 
L 103.742143 145.320158 
L 107.329286 143.962893 
L 110.916429 135.79741 
L 114.503571 141.661982 
L 118.090714 142.038178 
L 121.677857 142.845614 
L 125.265 144.894625 
L 128.852143 125.326312 
L 132.439286 137.655923 
L 136.026429 143.982885 
L 139.613571 135.100967 
L 143.200714 138.092587 
L 146.787857 137.84317 
L 150.375 128.083342 
L 153.962143 139.575474 
L 157.549286 125.712686 
L 161.136429 136.482319 
L 164.723571 145.803479 
L 168.310714 134.527179 
L 171.897857 123.486736 
L 175.485 143.718175 
L 179.072143 119.609699 
L 182.659286 95.4758 
L 186.246429 128.905216 
L 189.833571 125.229966 
L 193.420714 138.747545 
L 197.007857 130.008536 
L 200.595 127.127252 
L 204.182143 132.565091 
L 207.769286 139.006699 
L 211.356429 102.045481 
L 214.943571 127.444921 
L 218.530714 140.302124 
L 222.117857 123.730444 
L 225.705 105.68704 
L 229.292143 133.282617 
L 232.879286 110.557786 
L 236.466429 129.648812 
L 240.053571 126.6792 
L 243.640714 99.403285 
L 247.227857 112.09252 
L 250.815 142.407398 
L 254.402143 102.652394 
L 257.989286 124.856975 
L 261.576429 116.161526 
L 265.163571 132.744397 
L 268.750714 144.619971 
L 272.337857 144.468948 
" clip-path="url(#pcf0f4ba938)" style="fill: none; stroke: #1f77b4; stroke-opacity: 0.35; stroke-width: 0.8; stroke-linecap: square"/>
   </g>
   <g id="line2d_33">
    <path d="M 78.632143 143.028133 
L 82.219286 146.741168 
L 85.806429 147.026046 
L 89.393571 146.389794 
L 92.980714 139.447664 
L 96.567857 137.2279 
L 100.155 138.366929 
L 103.742143 142.631092 
L 107.329286 141.428816 
L 110.916429 140.386262 
L 114.503571 139.992952 
L 118.090714 138.824481 
L 121.677857 136.402173 
L 125.265 145.50737 
L 128.852143 137.041553 
L 132.439286 126.845535 
L 136.026429 132.376729 
L 139.613571 137.126599 
L 143.200714 124.235111 
L 146.787857 124.285977 
L 150.375 129.891439 
L 153.962143 110.952915 
L 157.549286 133.534914 
L 161.136429 136.857708 
L 164.723571 119.362892 
L 168.310714 127.319382 
L 171.897857 135.26574 
L 175.485 130.838689 
L 179.072143 132.02112 
L 182.659286 130.710495 
L 186.246429 120.495284 
L 189.833571 136.148355 
L 193.420714 133.481443 
L 197.007857 136.493816 
L 200.595 125.399861 
L 204.182143 123.260726 
L 207.769286 113.870568 
L 211.356429 125.200212 
L 214.943571 125.020644 
L 218.530714 113.616365 
L 222.117857 107.72321 
L 225.705 112.764679 
L 229.292143 137.799891 
L 232.879286 115.981612 
L 236.466429 134.74386 
L 240.053571 132.090732 
L 243.640714 121.021159 
L 247.227857 129.874151 
L 250.815 124.05764 
L 254.402143 110.4244 
L 257.989286 147.1501 
" clip-path="url(#pcf0f4ba938)" style="fill: none; stroke: #d62728; stroke-opacity: 0.35; stroke-width: 0.8; stroke-linecap: square"/>
   </g>
   <g id="line2d_34">
    <path d="M 92.980714 133.938654 
L 96.567857 142.364839 
L 100.155 150.039043 
L 103.742143 148.796952 
L 107.329286 140.889058 
L 110.916429 135.658827 
L 114.503571 125.945276 
L 118.090714 143.546566 
L 121.677857 131.935962 
L 125.265 142.566142 
L 128.852143 126.87443 
L 132.439286 134.135256 
L 136.026429 136.170074 
L 139.613571 114.515614 
L 143.200714 105.364317 
L 146.787857 128.917803 
L 150.375 146.265762 
L 153.962143 111.783683 
L 157.549286 125.20325 
L 161.136429 129.508493 
L 164.723571 127.446937 
L 168.310714 104.382738 
L 171.897857 132.345812 
L 175.485 130.508859 
L 179.072143 113.828909 
L 182.659286 138.986817 
L 186.246429 102.210961 
L 189.833571 127.293414 
L 193.420714 121.889509 
L 197.007857 134.761343 
L 200.595 100.621658 
L 204.182143 113.10755 
L 207.769286 138.504388 
L 211.356429 120.812928 
L 214.943571 139.071062 
L 218.530714 143.708398 
L 222.117857 122.137717 
L 225.705 131.802223 
L 229.292143 145.464289 
L 232.879286 131.443327 
L 236.466429 131.291587 
L 240.053571 136.458435 
L 243.640714 114.087474 
L 247.227857 119.814234 
L 250.815 144.618838 
L 254.402143 78.325143 
L 257.989286 130.901139 
L 261.576429 141.401688 
L 265.163571 141.230026 
L 268.750714 122.29484 
L 272.337857 119.502736 
" clip-path="url(#pcf0f4ba938)" style="fill: none; stroke: #d62728; stroke-opacity: 0.35; stroke-width: 0.8; stroke-linecap: square"/>
   </g>
   <g id="line2d_35">
    <path d="M 96.567857 139.097745 
L 100.155 128.158032 
L 103.742143 126.272699 
L 107.329286 128.642214 
L 110.916429 128.072277 
L 114.503571 131.137226 
L 118.090714 135.530055 
L 121.677857 134.107136 
L 125.265 137.655729 
L 128.852143 136.916232 
L 132.439286 136.025791 
L 136.026429 133.925484 
L 139.613571 132.490683 
L 143.200714 140.941741 
L 146.787857 131.647506 
L 150.375 128.502673 
L 153.962143 138.293341 
L 157.549286 129.315635 
L 161.136429 130.035844 
L 164.723571 133.541879 
L 168.310714 135.389696 
L 171.897857 121.714908 
L 175.485 118.604528 
L 179.072143 137.909066 
L 182.659286 135.459906 
L 186.246429 118.4673 
L 189.833571 106.074298 
L 193.420714 116.031257 
L 197.007857 125.352228 
L 200.595 130.504195 
L 204.182143 126.39834 
L 207.769286 127.577644 
L 211.356429 121.721634 
L 214.943571 110.302365 
L 218.530714 133.125795 
L 222.117857 123.174944 
L 225.705 120.230388 
L 229.292143 126.6614 
L 232.879286 115.982303 
L 236.466429 128.223919 
L 240.053571 114.199772 
L 243.640714 127.58666 
L 247.227857 128.398439 
L 250.815 129.029148 
L 254.402143 127.668641 
L 257.989286 123.335074 
L 261.576429 137.329097 
L 265.163571 139.649166 
" clip-path="url(#pcf0f4ba938)" style="fill: none; stroke: #d62728; stroke-opacity: 0.35; stroke-width: 0.8; stroke-linecap: square"/>
   </g>
   <g id="line2d_36">
    <path d="M 96.567857 152.355526 
L 100.155 152.690795 
L 103.742143 149.847351 
L 107.329286 148.787607 
L 110.916429 137.39877 
L 114.503571 140.359209 
L 118.090714 139.493641 
L 121.677857 134.412616 
L 125.265 129.304909 
L 128.852143 128.677071 
L 132.439286 131.493923 
L 136.026429 126.618895 
L 139.613571 133.442651 
L 143.200714 123.201947 
L 146.787857 108.171888 
L 150.375 115.007056 
L 153.962143 132.285922 
L 157.549286 135.996437 
L 161.136429 112.753149 
L 164.723571 126.603358 
L 168.310714 124.015739 
L 171.897857 133.064784 
L 175.485 128.694907 
L 179.072143 123.319782 
L 182.659286 122.140284 
L 186.246429 93.687954 
L 189.833571 123.353551 
L 193.420714 139.140614 
L 197.007857 115.152721 
L 200.595 127.921574 
L 204.182143 122.38687 
L 207.769286 128.840606 
L 211.356429 118.736674 
L 214.943571 126.967107 
L 218.530714 130.949411 
L 222.117857 130.749399 
L 225.705 131.187668 
L 229.292143 132.553007 
L 232.879286 131.744092 
L 236.466429 133.159308 
L 243.640714 148.444512 
L 247.227857 151.09406 
L 257.989286 146.549013 
L 261.576429 153.493566 
" clip-path="url(#pcf0f4ba938)" style="fill: none; stroke: #d62728; stroke-opacity: 0.35; stroke-width: 0.8; stroke-linecap: square"/>
   </g>
   <g id="line2d_37">
    <path d="M 103.742143 155.76577 
L 107.329286 155.566208 
L 110.916429 147.016129 
L 114.503571 150.107883 
L 118.090714 137.160921 
L 121.677857 138.798091 
L 125.265 139.841629 
L 128.852143 146.469897 
L 132.439286 138.702843 
L 136.026429 138.613652 
L 139.613571 103.664606 
L 143.200714 132.819018 
L 146.787857 136.53585 
L 150.375 127.501041 
L 153.962143 123.215796 
L 157.549286 130.168526 
L 161.136429 137.775535 
L 164.723571 127.658848 
L 168.310714 120.166383 
L 171.897857 124.709453 
L 175.485 127.279096 
L 179.072143 112.67856 
L 182.659286 123.298045 
L 186.246429 116.986349 
L 189.833571 133.560395 
L 193.420714 132.532408 
L 197.007857 130.675457 
L 200.595 124.943687 
L 204.182143 126.863647 
L 207.769286 135.384654 
L 211.356429 91.042135 
L 214.943571 124.658743 
L 218.530714 137.999977 
L 222.117857 137.87364 
L 225.705 131.027915 
L 229.292143 128.239793 
L 232.879286 130.683848 
L 236.466429 144.31194 
L 240.053571 131.53665 
L 243.640714 114.420055 
L 247.227857 87.992843 
L 250.815 136.898204 
L 254.402143 127.523574 
L 257.989286 121.762381 
L 261.576429 121.17105 
L 265.163571 92.365683 
L 268.750714 141.150377 
L 272.337857 134.277111 
L 275.925 130.470976 
L 279.512143 118.790921 
" clip-path="url(#pcf0f4ba938)" style="fill: none; stroke: #d62728; stroke-opacity: 0.35; stroke-width: 0.8; stroke-linecap: square"/>
   </g>
   <g id="line2d_38">
    <path d="M 49.935 151.279464 
L 53.522143 147.900942 
L 57.109286 148.972508 
L 60.696429 144.762053 
L 64.283571 139.532879 
L 67.870714 140.626229 
L 71.457857 143.206728 
L 75.045 133.879252 
L 78.632143 127.455688 
L 82.219286 142.30266 
L 85.806429 137.906768 
L 89.393571 130.32337 
L 92.980714 128.390172 
L 96.567857 82.067977 
L 100.155 113.132753 
L 103.742143 130.630608 
L 107.329286 110.403855 
L 110.916429 131.346099 
L 114.503571 119.128174 
L 118.090714 128.159005 
L 121.677857 124.256687 
L 125.265 132.872435 
L 128.852143 137.138164 
L 132.439286 129.470892 
L 136.026429 138.917515 
L 139.613571 126.807647 
L 143.200714 129.334752 
L 146.787857 116.652344 
L 150.375 145.123881 
L 153.962143 113.749397 
L 157.549286 127.234941 
L 161.136429 130.077053 
L 164.723571 126.409567 
L 168.310714 99.693598 
L 171.897857 111.794625 
L 175.485 128.083191 
L 179.072143 129.062662 
L 182.659286 114.75443 
L 186.246429 122.79083 
L 189.833571 115.980467 
L 193.420714 126.681346 
L 197.007857 143.753836 
L 200.595 124.633352 
L 204.182143 117.026085 
L 207.769286 121.826705 
L 211.356429 128.530133 
L 214.943571 128.843932 
L 218.530714 117.919652 
L 222.117857 132.771719 
L 225.705 127.063665 
L 229.292143 105.689382 
L 232.879286 100.81425 
L 236.466429 113.012994 
L 240.053571 135.488124 
L 243.640714 141.313021 
L 247.227857 119.437546 
L 250.815 122.355277 
L 254.402143 133.703902 
L 257.989286 126.066119 
L 261.576429 139.771138 
L 265.163571 119.870165 
L 268.750714 130.74489 
L 272.337857 122.195346 
L 275.925 134.169486 
L 279.512143 127.533963 
L 283.099286 152.267051 
L 286.686429 124.927138 
L 290.273571 128.537674 
L 293.860714 136.22576 
L 297.447857 135.705452 
L 301.035 135.356237 
L 301.9775 134.011759 
" clip-path="url(#pcf0f4ba938)" style="fill: none; stroke: #2ca02c; stroke-opacity: 0.35; stroke-width: 0.8; stroke-linecap: square"/>
   </g>
   <g id="line2d_39">
    <path d="M 57.109286 141.782138 
L 60.696429 134.142734 
L 64.283571 141.637197 
L 67.870714 141.654235 
L 71.457857 126.643831 
L 75.045 141.403271 
L 78.632143 138.05472 
L 82.219286 118.46945 
L 85.806429 128.22796 
L 89.393571 97.276922 
L 92.980714 122.516445 
L 96.567857 123.004938 
L 100.155 117.634305 
L 103.742143 111.47083 
L 107.329286 127.235644 
L 110.916429 113.721183 
L 114.503571 136.803727 
L 118.090714 135.323758 
L 121.677857 108.548963 
L 125.265 118.593367 
L 128.852143 99.643998 
L 132.439286 93.932791 
L 136.026429 113.218207 
L 139.613571 123.427502 
L 143.200714 123.375863 
L 146.787857 117.557176 
L 150.375 113.589853 
L 153.962143 142.168384 
L 157.549286 121.262421 
L 161.136429 120.336026 
L 164.723571 133.364706 
L 168.310714 118.93741 
L 171.897857 131.618678 
L 175.485 79.448315 
L 179.072143 124.599242 
L 182.659286 130.592701 
L 186.246429 107.124686 
L 189.833571 111.117508 
L 193.420714 121.456184 
L 197.007857 116.990742 
L 200.595 134.913516 
L 204.182143 118.048135 
L 207.769286 124.597479 
L 211.356429 118.497511 
L 214.943571 127.662845 
L 218.530714 127.760663 
L 222.117857 136.41227 
L 225.705 130.15784 
L 229.292143 124.009599 
L 232.879286 135.691669 
L 236.466429 141.624163 
L 240.053571 128.898752 
L 243.640714 138.199889 
L 247.227857 140.167413 
L 250.815 136.232688 
L 254.402143 139.097455 
L 257.989286 132.262139 
L 261.576429 137.865768 
L 265.163571 110.528584 
L 268.750714 142.703581 
L 272.337857 139.589409 
L 275.925 138.974743 
L 279.512143 145.038403 
L 283.099286 125.645591 
L 286.686429 148.438398 
L 290.273571 99.564033 
L 293.860714 148.040166 
L 297.447857 147.948534 
L 301.035 139.031503 
L 301.9775 141.544444 
" clip-path="url(#pcf0f4ba938)" style="fill: none; stroke: #2ca02c; stroke-opacity: 0.35; stroke-width: 0.8; stroke-linecap: square"/>
   </g>
   <g id="line2d_40">
    <path d="M 53.522143 154.267276 
L 57.109286 152.167924 
L 60.696429 146.01427 
L 64.283571 141.864442 
L 67.870714 135.36925 
L 71.457857 132.704369 
L 75.045 138.206782 
L 78.632143 129.95601 
L 82.219286 129.50957 
L 85.806429 135.999979 
L 89.393571 135.42127 
L 92.980714 130.60119 
L 96.567857 128.140042 
L 100.155 139.831146 
L 103.742143 127.133862 
L 107.329286 132.360827 
L 110.916429 135.127245 
L 114.503571 126.85481 
L 118.090714 126.548715 
L 121.677857 140.917549 
L 125.265 139.41877 
L 128.852143 116.96605 
L 132.439286 129.82067 
L 136.026429 130.95293 
L 139.613571 126.399224 
L 143.200714 121.826847 
L 146.787857 118.009686 
L 150.375 130.203022 
L 153.962143 128.84518 
L 157.549286 136.326864 
L 161.136429 131.774099 
L 164.723571 111.00748 
L 168.310714 134.393125 
L 171.897857 120.216304 
L 175.485 141.874877 
L 179.072143 133.469089 
L 182.659286 124.523641 
L 186.246429 116.104334 
L 189.833571 119.066064 
L 193.420714 115.490761 
L 197.007857 132.138719 
L 200.595 123.058904 
L 204.182143 131.864478 
L 207.769286 131.469215 
L 211.356429 115.169902 
L 214.943571 129.94134 
L 218.530714 125.400332 
L 222.117857 108.329667 
L 225.705 104.665619 
L 229.292143 130.316896 
L 232.879286 110.84286 
L 236.466429 127.118114 
L 240.053571 138.139929 
L 243.640714 126.207539 
L 247.227857 127.702938 
L 250.815 128.677511 
L 254.402143 121.593264 
L 257.989286 134.710693 
L 261.576429 137.213615 
L 265.163571 127.65669 
L 268.750714 136.737456 
L 272.337857 135.929424 
L 275.925 135.517241 
L 279.512143 143.140319 
" clip-path="url(#pcf0f4ba938)" style="fill: none; stroke: #2ca02c; stroke-opacity: 0.35; stroke-width: 0.8; stroke-linecap: square"/>
   </g>
   <g id="line2d_41">
    <path d="M 46.347857 145.805359 
L 49.935 152.842768 
L 53.522143 142.319607 
L 57.109286 131.869397 
L 60.696429 123.783776 
L 64.283571 115.673134 
L 67.870714 130.763974 
L 71.457857 127.856109 
L 75.045 130.863706 
L 78.632143 127.280583 
L 82.219286 129.256583 
L 85.806429 121.716793 
L 89.393571 132.283037 
L 92.980714 110.592299 
L 96.567857 123.044367 
L 100.155 117.837445 
L 103.742143 122.005397 
L 107.329286 121.387456 
L 110.916429 129.668809 
L 114.503571 128.411232 
L 118.090714 118.179761 
L 121.677857 132.55918 
L 125.265 118.016423 
L 128.852143 124.027299 
L 132.439286 109.553223 
L 136.026429 113.27779 
L 139.613571 132.83207 
L 143.200714 107.217056 
L 146.787857 130.737771 
L 150.375 135.154907 
L 153.962143 129.158272 
L 157.549286 114.897182 
L 161.136429 117.733251 
L 164.723571 138.862669 
L 168.310714 121.080065 
L 171.897857 112.391578 
L 175.485 139.505565 
L 179.072143 127.954949 
L 182.659286 132.837368 
L 186.246429 120.270467 
L 189.833571 127.916484 
L 193.420714 113.738072 
L 197.007857 112.227369 
L 200.595 130.626955 
L 204.182143 116.4639 
L 207.769286 122.247563 
L 211.356429 135.941025 
L 214.943571 133.585596 
L 218.530714 123.423849 
L 222.117857 135.033999 
L 225.705 114.131629 
L 229.292143 119.867695 
L 232.879286 134.270184 
L 236.466429 134.461215 
L 240.053571 130.11726 
L 243.640714 127.991182 
L 247.227857 135.331112 
L 250.815 136.452585 
L 254.402143 137.119094 
L 257.989286 106.551354 
L 261.576429 129.644508 
" clip-path="url(#pcf0f4ba938)" style="fill: none; stroke: #2ca02c; stroke-opacity: 0.35; stroke-width: 0.8; stroke-linecap: square"/>
   </g>
   <g id="line2d_42">
    <path d="M 53.522143 148.405323 
L 57.109286 145.973554 
L 60.696429 137.981951 
L 64.283571 139.991699 
L 67.870714 140.080156 
L 71.457857 137.068218 
L 75.045 130.491752 
L 78.632143 135.289057 
L 82.219286 127.784568 
L 85.806429 132.27716 
L 89.393571 130.205904 
L 92.980714 129.005515 
L 96.567857 128.143833 
L 100.155 126.025637 
L 103.742143 127.67718 
L 107.329286 131.651618 
L 110.916429 121.625899 
L 114.503571 125.468847 
L 118.090714 130.387293 
L 121.677857 133.256134 
L 125.265 129.851352 
L 128.852143 134.549263 
L 132.439286 131.29985 
L 136.026429 136.287312 
L 139.613571 113.462958 
L 143.200714 105.101661 
L 146.787857 117.698533 
L 150.375 135.986945 
L 153.962143 129.524164 
L 157.549286 125.967585 
L 161.136429 130.039163 
L 164.723571 130.265776 
L 168.310714 129.757 
L 171.897857 130.048058 
L 175.485 130.819717 
L 179.072143 125.563732 
L 182.659286 128.153304 
L 186.246429 129.646695 
L 189.833571 135.853048 
L 193.420714 127.334075 
L 197.007857 127.408257 
L 200.595 122.392849 
L 204.182143 118.389382 
L 207.769286 121.967768 
L 211.356429 139.71959 
L 214.943571 130.093491 
L 218.530714 133.368124 
L 222.117857 134.118273 
L 225.705 125.625864 
L 229.292143 123.619931 
L 232.879286 120.701545 
L 236.466429 134.398744 
L 240.053571 116.551703 
L 243.640714 126.741876 
L 247.227857 134.976789 
L 250.815 126.478797 
L 254.402143 126.663794 
L 257.989286 120.168623 
L 261.576429 125.249758 
L 265.163571 117.145075 
L 268.750714 121.657331 
L 272.337857 108.71123 
L 275.925 131.829659 
L 279.512143 119.100475 
L 283.099286 123.640918 
L 286.686429 127.017848 
L 290.273571 132.825519 
" clip-path="url(#pcf0f4ba938)" style="fill: none; stroke: #2ca02c; stroke-opacity: 0.35; stroke-width: 0.8; stroke-linecap: square"/>
   </g>
   <g id="line2d_43">
    <path d="M 46.347857 145.81583 
L 49.935 140.809887 
L 53.522143 144.891082 
L 57.109286 152.188397 
L 60.696429 149.823472 
L 64.283571 145.281324 
L 67.870714 144.924715 
L 71.457857 133.639335 
L 75.045 146.166698 
L 78.632143 136.134759 
L 82.219286 140.930622 
L 85.806429 122.670064 
L 89.393571 129.842936 
L 92.980714 131.300401 
L 96.567857 126.078531 
L 100.155 115.217584 
L 103.742143 132.059744 
L 107.329286 136.648902 
L 110.916429 120.047665 
L 114.503571 134.160959 
L 118.090714 117.383602 
L 121.677857 127.216574 
L 125.265 123.69868 
L 128.852143 127.94183 
L 132.439286 112.430897 
L 136.026429 132.794087 
L 139.613571 114.585436 
L 143.200714 121.303341 
L 146.787857 125.558433 
L 150.375 129.629772 
L 153.962143 119.399746 
L 157.549286 112.60214 
L 161.136429 142.601308 
L 164.723571 110.225799 
L 168.310714 123.312207 
L 171.897857 126.914431 
L 175.485 131.531785 
L 179.072143 140.579876 
L 182.659286 123.700773 
L 186.246429 130.318219 
L 189.833571 138.360583 
L 193.420714 119.187404 
L 197.007857 120.727708 
L 200.595 135.176215 
L 204.182143 129.46346 
L 207.769286 128.088168 
L 211.356429 116.452176 
L 214.943571 111.226962 
L 218.530714 122.920378 
L 222.117857 137.826725 
L 225.705 115.410998 
L 229.292143 131.277595 
L 232.879286 133.543227 
L 236.466429 114.135646 
L 240.053571 135.405756 
L 243.640714 126.832373 
L 247.227857 140.490581 
L 250.815 142.886385 
L 254.402143 129.242907 
L 257.989286 103.28524 
L 261.576429 113.661389 
L 265.163571 125.434927 
L 268.750714 127.566039 
L 272.337857 137.349027 
L 275.925 132.306609 
L 279.512143 122.895227 
L 283.099286 133.235524 
L 286.686429 111.259749 
L 290.273571 112.499449 
L 293.860714 145.689032 
L 297.447857 140.092353 
L 301.035 144.598513 
L 301.9775 146.828859 
" clip-path="url(#pcf0f4ba938)" style="fill: none; stroke: #7f7f7f; stroke-opacity: 0.35; stroke-width: 0.8; stroke-linecap: square"/>
   </g>
   <g id="line2d_44">
    <path d="M 42.760714 153.877504 
L 46.347857 154.432359 
L 49.935 157.01298 
L 53.522143 154.226049 
L 57.109286 151.818746 
L 60.696429 153.657218 
L 64.283571 150.458509 
L 67.870714 146.674302 
L 71.457857 144.273802 
L 75.045 148.513172 
L 78.632143 148.608993 
L 82.219286 141.001255 
L 85.806429 144.091203 
L 89.393571 149.074909 
L 92.980714 144.207369 
L 96.567857 145.481025 
L 100.155 135.7169 
L 103.742143 136.231577 
L 107.329286 154.2306 
L 110.916429 142.716195 
L 114.503571 147.797072 
L 118.090714 134.77052 
L 121.677857 134.906404 
L 125.265 131.202672 
L 128.852143 147.051003 
L 132.439286 146.471213 
L 136.026429 142.647532 
L 139.613571 143.114657 
L 143.200714 146.261494 
L 146.787857 138.546625 
L 150.375 129.952743 
L 153.962143 140.021148 
L 157.549286 132.177113 
L 161.136429 148.984468 
L 164.723571 137.137258 
L 168.310714 130.22 
L 171.897857 121.142068 
L 175.485 138.268485 
L 179.072143 122.880911 
L 182.659286 125.554488 
L 186.246429 126.328549 
L 189.833571 122.426778 
L 193.420714 153.084512 
L 197.007857 117.257917 
L 200.595 85.863204 
L 207.769286 106.95347 
L 211.356429 151.251903 
L 214.943571 135.277707 
L 218.530714 89.925182 
L 222.117857 132.884833 
L 225.705 143.284211 
L 229.292143 127.40546 
L 232.879286 141.06993 
L 236.466429 124.103678 
L 240.053571 143.916746 
L 243.640714 135.838425 
L 247.227857 126.42785 
L 250.815 87.789853 
L 254.402143 134.059617 
L 257.989286 148.900396 
L 261.576429 11.16 
L 265.163571 131.355944 
L 268.750714 112.909209 
L 272.337857 98.819912 
L 275.925 142.002717 
L 279.512143 151.113259 
" clip-path="url(#pcf0f4ba938)" style="fill: none; stroke: #7f7f7f; stroke-opacity: 0.35; stroke-width: 0.8; stroke-linecap: square"/>
   </g>
   <g id="line2d_45">
    <path d="M 57.109286 141.430292 
L 60.696429 148.772063 
L 64.283571 140.839641 
L 67.870714 144.90231 
L 71.457857 140.280617 
L 75.045 130.804412 
L 78.632143 142.852554 
L 82.219286 122.232087 
L 85.806429 137.248542 
L 89.393571 140.091408 
L 92.980714 138.315131 
L 96.567857 135.599283 
L 100.155 126.674625 
L 103.742143 140.206589 
L 107.329286 127.641588 
L 110.916429 129.178656 
L 114.503571 119.931815 
L 118.090714 135.216754 
L 121.677857 137.984355 
L 125.265 129.854133 
L 128.852143 118.60348 
L 132.439286 125.407434 
L 136.026429 119.166324 
L 139.613571 122.044163 
L 143.200714 124.354517 
L 146.787857 130.848341 
L 150.375 126.387336 
L 153.962143 127.032707 
L 157.549286 129.613061 
L 161.136429 132.45788 
L 164.723571 122.149768 
L 168.310714 128.698817 
L 171.897857 131.697726 
L 175.485 141.171387 
L 179.072143 125.294485 
L 182.659286 131.995299 
L 186.246429 90.038522 
L 189.833571 119.874119 
L 193.420714 130.249558 
L 197.007857 140.776295 
L 200.595 131.503247 
L 204.182143 123.393979 
L 207.769286 60.86315 
L 211.356429 135.276374 
L 214.943571 142.863351 
L 218.530714 135.381297 
L 222.117857 138.132779 
L 225.705 125.268393 
L 229.292143 122.43829 
L 232.879286 72.093971 
L 236.466429 108.792564 
L 240.053571 125.555591 
L 243.640714 126.083371 
L 247.227857 132.446313 
L 250.815 124.346184 
L 254.402143 131.761418 
L 257.989286 123.380135 
L 261.576429 117.572683 
L 265.163571 144.277811 
L 268.750714 121.156257 
L 272.337857 129.672324 
L 275.925 112.061505 
L 279.512143 125.81073 
L 283.099286 85.834301 
L 286.686429 125.229911 
L 290.273571 130.505485 
L 293.860714 134.468744 
L 297.447857 116.796189 
L 301.035 137.251826 
L 301.9775 139.187756 
" clip-path="url(#pcf0f4ba938)" style="fill: none; stroke: #7f7f7f; stroke-opacity: 0.35; stroke-width: 0.8; stroke-linecap: square"/>
   </g>
   <g id="line2d_46">
    <path d="M 46.347857 147.338397 
L 49.935 131.394014 
L 53.522143 145.257466 
L 57.109286 146.420326 
L 60.696429 142.375165 
L 64.283571 134.451454 
L 67.870714 125.451058 
L 71.457857 134.302317 
L 75.045 141.210103 
L 78.632143 144.470639 
L 82.219286 123.189166 
L 85.806429 135.159323 
L 89.393571 142.021247 
L 92.980714 138.873784 
L 96.567857 137.143577 
L 103.742143 144.752355 
L 107.329286 141.798089 
L 114.503571 143.113516 
L 118.090714 139.364952 
L 121.677857 91.128329 
L 125.265 138.254513 
L 128.852143 142.970521 
L 132.439286 123.354467 
L 139.613571 144.939121 
L 146.787857 148.358606 
L 157.549286 149.143053 
L 164.723571 88.828994 
L 171.897857 132.949956 
L 186.246429 142.260753 
L 193.420714 112.709989 
L 236.466429 142.866994 
" clip-path="url(#pcf0f4ba938)" style="fill: none; stroke: #7f7f7f; stroke-opacity: 0.35; stroke-width: 0.8; stroke-linecap: square"/>
   </g>
   <g id="line2d_47">
    <path d="M 42.760714 118.719665 
L 46.347857 144.542804 
L 49.935 140.045021 
L 53.522143 137.985985 
L 57.109286 136.165824 
L 60.696429 138.287982 
L 64.283571 146.311809 
L 67.870714 140.68049 
L 71.457857 141.241862 
L 75.045 138.165967 
L 78.632143 141.950962 
L 82.219286 139.360699 
L 85.806429 136.393911 
L 89.393571 133.82872 
L 92.980714 131.324406 
L 96.567857 134.312354 
L 100.155 138.718846 
L 103.742143 124.547016 
L 107.329286 132.885257 
L 110.916429 144.187758 
L 114.503571 142.403781 
L 118.090714 135.264902 
L 121.677857 132.552202 
L 125.265 129.966004 
L 128.852143 139.787985 
L 132.439286 120.635019 
L 136.026429 141.297017 
L 139.613571 143.350199 
L 143.200714 140.503739 
L 146.787857 143.895513 
L 150.375 113.391811 
L 153.962143 132.373162 
L 157.549286 120.803882 
L 161.136429 145.206681 
L 164.723571 125.738941 
L 168.310714 142.041107 
L 171.897857 130.670333 
L 175.485 133.845611 
L 179.072143 106.131401 
L 182.659286 133.450292 
L 186.246429 115.28143 
L 189.833571 125.780323 
L 193.420714 114.247493 
L 197.007857 137.080324 
L 200.595 137.437171 
L 204.182143 138.69527 
L 207.769286 138.641868 
L 211.356429 81.300355 
L 214.943571 139.524912 
L 222.117857 118.762827 
L 229.292143 111.463658 
L 232.879286 131.932034 
L 236.466429 140.919655 
L 240.053571 129.829548 
L 243.640714 119.614777 
L 250.815 83.50324 
L 257.989286 131.81184 
L 268.750714 93.367592 
L 275.925 122.995781 
L 283.099286 139.833147 
L 293.860714 130.314335 
L 297.447857 128.999179 
" clip-path="url(#pcf0f4ba938)" style="fill: none; stroke: #7f7f7f; stroke-opacity: 0.35; stroke-width: 0.8; stroke-linecap: square"/>
   </g>
   <g id="line2d_48">
    <path d="M 42.760714 136.611679 
L 46.347857 142.563585 
L 49.935 136.398626 
L 53.522143 138.856929 
L 57.109286 138.815038 
L 60.696429 136.754215 
L 64.283571 132.689578 
L 67.870714 139.263009 
L 71.457857 139.496383 
L 75.045 132.510665 
L 78.632143 136.608397 
L 82.219286 138.886733 
L 85.806429 135.375865 
L 89.393571 140.463831 
L 92.980714 138.174304 
L 96.567857 131.02636 
L 100.155 135.185134 
L 103.742143 132.898077 
L 107.329286 126.343386 
L 110.916429 136.862612 
L 114.503571 136.858319 
L 118.090714 130.808979 
L 121.677857 122.708931 
L 125.265 126.695986 
L 128.852143 132.926423 
L 132.439286 119.106876 
L 136.026429 135.297148 
L 139.613571 134.927927 
L 143.200714 126.146387 
L 146.787857 128.34858 
L 150.375 132.370716 
L 153.962143 134.119932 
L 157.549286 124.987383 
L 161.136429 128.368285 
L 164.723571 125.272036 
L 168.310714 137.486185 
L 171.897857 132.920587 
L 175.485 128.353637 
L 179.072143 137.843272 
L 182.659286 123.286082 
L 186.246429 131.216494 
L 189.833571 137.325085 
L 193.420714 125.863739 
L 197.007857 127.46543 
L 200.595 132.162901 
L 204.182143 138.350488 
L 207.769286 122.764106 
L 211.356429 127.446653 
L 214.943571 132.633639 
L 218.530714 134.783736 
L 222.117857 94.019851 
L 225.705 125.519996 
L 229.292143 120.272122 
L 232.879286 127.401509 
L 236.466429 129.475279 
L 240.053571 130.213029 
L 243.640714 125.860334 
L 247.227857 128.87793 
L 250.815 122.721424 
L 254.402143 118.91727 
L 257.989286 97.303676 
L 261.576429 125.096984 
L 265.163571 109.177021 
L 268.750714 122.393811 
L 272.337857 126.05514 
L 275.925 130.185619 
L 279.512143 140.477605 
L 283.099286 118.866011 
L 290.273571 127.763035 
" clip-path="url(#pcf0f4ba938)" style="fill: none; stroke: #1a1a1a; stroke-opacity: 0.35; stroke-width: 0.8; stroke-linecap: square"/>
   </g>
   <g id="line2d_49">
    <path d="M 42.760714 138.079843 
L 46.347857 150.155553 
L 49.935 147.725149 
L 53.522143 147.513599 
L 57.109286 148.547727 
L 60.696429 148.644686 
L 64.283571 140.809578 
L 67.870714 136.353295 
L 71.457857 137.939079 
L 75.045 146.395744 
L 78.632143 146.808802 
L 82.219286 120.334317 
L 85.806429 136.876627 
L 89.393571 101.93634 
L 92.980714 139.767264 
L 96.567857 102.472359 
L 100.155 125.23319 
L 103.742143 124.495548 
L 107.329286 137.986496 
L 110.916429 123.079395 
L 114.503571 138.301344 
L 118.090714 144.695055 
L 121.677857 139.953124 
L 125.265 136.43131 
L 128.852143 124.278422 
L 132.439286 124.109683 
L 136.026429 121.706221 
L 139.613571 127.114992 
L 143.200714 140.990858 
L 146.787857 132.46013 
L 150.375 85.218429 
L 153.962143 131.724584 
L 157.549286 141.750881 
L 161.136429 126.456939 
L 164.723571 122.421301 
L 168.310714 122.859193 
L 171.897857 112.474319 
L 175.485 135.089137 
L 179.072143 130.226836 
L 182.659286 120.340414 
L 186.246429 124.594371 
L 189.833571 133.189323 
L 193.420714 129.262867 
L 197.007857 121.764768 
L 200.595 144.374097 
L 204.182143 122.867788 
L 207.769286 118.176997 
L 211.356429 105.592003 
L 214.943571 147.450867 
L 218.530714 127.880821 
L 222.117857 132.094448 
L 225.705 146.558828 
L 229.292143 139.307142 
L 232.879286 110.528437 
L 236.466429 121.027579 
L 240.053571 84.934145 
L 243.640714 123.815453 
L 247.227857 138.323451 
L 250.815 118.942531 
L 254.402143 135.075736 
L 257.989286 139.793669 
L 261.576429 134.050123 
L 265.163571 96.752722 
L 268.750714 129.748858 
L 272.337857 146.289601 
L 275.925 124.144171 
L 279.512143 120.095732 
L 283.099286 96.173273 
L 290.273571 145.244489 
L 293.860714 149.2078 
L 297.447857 143.024706 
L 301.035 123.122643 
L 301.9775 123.489837 
" clip-path="url(#pcf0f4ba938)" style="fill: none; stroke: #1a1a1a; stroke-opacity: 0.35; stroke-width: 0.8; stroke-linecap: square"/>
   </g>
   <g id="line2d_50">
    <path d="M 39.173571 113.958467 
L 42.760714 131.057739 
L 46.347857 137.415073 
L 49.935 136.098265 
L 53.522143 141.309334 
L 57.109286 128.495308 
L 60.696429 136.258514 
L 64.283571 128.893855 
L 67.870714 140.539184 
L 71.457857 143.033689 
L 75.045 132.043873 
L 78.632143 99.193235 
L 85.806429 103.59168 
L 89.393571 99.407033 
L 92.980714 121.097687 
L 103.742143 132.365056 
L 110.916429 141.440273 
L 114.503571 138.54023 
L 121.677857 105.937137 
L 132.439286 143.260214 
L 150.375 132.109773 
L 153.962143 144.359927 
L 157.549286 118.05219 
L 161.136429 141.464898 
L 164.723571 129.506191 
L 218.530714 117.88511 
L 222.117857 101.90599 
L 236.466429 122.000467 
L 257.989286 111.496432 
L 265.163571 142.865267 
" clip-path="url(#pcf0f4ba938)" style="fill: none; stroke: #1a1a1a; stroke-opacity: 0.35; stroke-width: 0.8; stroke-linecap: square"/>
   </g>
   <g id="line2d_51">
    <path d="M 42.760714 139.552702 
L 46.347857 144.664645 
L 49.935 142.679447 
L 53.522143 141.25084 
L 57.109286 138.652159 
L 60.696429 134.266884 
L 64.283571 129.730886 
L 67.870714 128.510306 
L 71.457857 128.029244 
L 75.045 120.380845 
L 78.632143 125.709151 
L 82.219286 113.015169 
L 85.806429 122.239367 
L 89.393571 119.100493 
L 92.980714 120.08499 
L 96.567857 125.106481 
L 100.155 121.479536 
L 103.742143 122.316584 
L 107.329286 123.610669 
L 110.916429 127.589866 
L 114.503571 126.733516 
L 118.090714 125.507053 
L 121.677857 120.020314 
L 125.265 130.291991 
L 128.852143 129.067643 
L 132.439286 135.379729 
L 136.026429 128.769401 
L 139.613571 128.459369 
L 143.200714 131.491744 
L 146.787857 132.350627 
L 150.375 136.116512 
L 153.962143 136.823895 
L 157.549286 136.582837 
L 161.136429 135.183139 
L 164.723571 132.568848 
L 168.310714 130.822339 
L 171.897857 130.078462 
L 175.485 124.420703 
L 179.072143 125.244564 
L 182.659286 126.347605 
L 186.246429 123.892725 
L 189.833571 129.090029 
L 193.420714 124.385355 
L 197.007857 128.330577 
L 200.595 128.01278 
L 204.182143 123.28222 
L 207.769286 111.30771 
L 211.356429 123.643246 
L 214.943571 115.856724 
L 218.530714 125.972297 
L 222.117857 106.028222 
L 225.705 124.095775 
L 229.292143 125.065495 
L 232.879286 119.457302 
L 236.466429 131.780133 
L 240.053571 132.947236 
" clip-path="url(#pcf0f4ba938)" style="fill: none; stroke: #1a1a1a; stroke-opacity: 0.35; stroke-width: 0.8; stroke-linecap: square"/>
   </g>
   <g id="line2d_52">
    <path d="M 39.173571 156.837741 
L 42.760714 156.539527 
L 46.347857 152.037623 
L 49.935 144.114286 
L 53.522143 146.020396 
L 57.109286 142.39464 
L 60.696429 145.297688 
L 64.283571 140.836658 
L 67.870714 139.854732 
L 71.457857 137.464261 
L 75.045 128.363319 
L 78.632143 132.178659 
L 82.219286 146.409486 
L 85.806429 127.424849 
L 89.393571 128.555517 
L 92.980714 130.18689 
L 96.567857 136.358464 
L 100.155 135.265818 
L 103.742143 122.966697 
L 107.329286 135.847903 
L 110.916429 120.68596 
L 114.503571 119.078021 
L 118.090714 139.050017 
L 121.677857 138.191871 
L 125.265 130.452756 
L 128.852143 138.869485 
L 132.439286 141.103428 
L 136.026429 131.287841 
L 139.613571 141.400969 
L 143.200714 135.626982 
L 146.787857 110.067572 
L 150.375 135.67998 
L 153.962143 125.583712 
L 157.549286 130.701601 
L 161.136429 109.938716 
L 164.723571 142.375994 
L 168.310714 117.756485 
L 171.897857 139.418936 
L 175.485 132.427507 
L 179.072143 138.08422 
L 182.659286 129.490275 
L 186.246429 120.650036 
L 189.833571 132.787819 
L 193.420714 116.144671 
L 197.007857 128.400459 
L 200.595 145.217062 
L 204.182143 127.351086 
L 207.769286 113.271661 
L 211.356429 141.125984 
L 214.943571 140.204179 
L 218.530714 110.86586 
L 222.117857 102.941975 
L 225.705 117.50495 
L 229.292143 132.902897 
L 232.879286 122.745822 
L 236.466429 122.085627 
L 240.053571 132.662374 
L 243.640714 133.077829 
L 247.227857 137.600841 
L 250.815 117.277076 
L 254.402143 116.213787 
L 257.989286 133.564762 
L 261.576429 131.03054 
L 265.163571 125.964421 
L 268.750714 99.472042 
L 272.337857 132.794662 
L 275.925 114.49403 
L 279.512143 134.794826 
L 283.099286 129.780687 
L 286.686429 133.547537 
L 290.273571 126.663797 
" clip-path="url(#pcf0f4ba938)" style="fill: none; stroke: #1a1a1a; stroke-opacity: 0.35; stroke-width: 0.8; stroke-linecap: square"/>
   </g>
   <g id="line2d_53">
    <path d="M 37.38 126.825391 
L 288.48 126.825391 
" clip-path="url(#pcf0f4ba938)" style="fill: none; stroke-dasharray: 0.5,0.825; stroke-dashoffset: 0; stroke: #808080; stroke-width: 0.5"/>
   </g>
   <g id="patch_3">
    <path d="M 37.38 169.92 
L 37.38 3.6 
" style="fill: none; stroke: #000000; stroke-width: 0.8; stroke-linejoin: miter; stroke-linecap: square"/>
   </g>
   <g id="patch_4">
    <path d="M 288.48 169.92 
L 288.48 3.6 
" style="fill: none; stroke: #000000; stroke-width: 0.8; stroke-linejoin: miter; stroke-linecap: square"/>
   </g>
   <g id="patch_5">
    <path d="M 37.38 169.92 
L 288.48 169.92 
" style="fill: none; stroke: #000000; stroke-width: 0.8; stroke-linejoin: miter; stroke-linecap: square"/>
   </g>
   <g id="patch_6">
    <path d="M 37.38 3.6 
L 288.48 3.6 
" style="fill: none; stroke: #000000; stroke-width: 0.8; stroke-linejoin: miter; stroke-linecap: square"/>
   </g>
   <g id="legend_1">
    <g id="line2d_54">
     <path d="M 232.93125 11.194688 
L 238.93125 11.194688 
L 244.93125 11.194688 
" style="fill: none; stroke: #2ca02c; stroke-width: 1.2; stroke-linecap: square"/>
    </g>
    <g id="text_20">
     <!-- Agar -->
     <g transform="translate(249.73125 13.294688) scale(0.06 -0.06)">
      <defs>
       <path id="ArialMT-41" d="M -9 0 
L 1750 4581 
L 2403 4581 
L 4278 0 
L 3588 0 
L 3053 1388 
L 1138 1388 
L 634 0 
L -9 0 
z
M 1313 1881 
L 2866 1881 
L 2388 3150 
Q 2169 3728 2063 4100 
Q 1975 3659 1816 3225 
L 1313 1881 
z
" transform="scale(0.015625)"/>
       <path id="ArialMT-67" d="M 319 -275 
L 866 -356 
Q 900 -609 1056 -725 
Q 1266 -881 1628 -881 
Q 2019 -881 2231 -725 
Q 2444 -569 2519 -288 
Q 2563 -116 2559 434 
Q 2191 0 1641 0 
Q 956 0 581 494 
Q 206 988 206 1678 
Q 206 2153 378 2554 
Q 550 2956 876 3175 
Q 1203 3394 1644 3394 
Q 2231 3394 2613 2919 
L 2613 3319 
L 3131 3319 
L 3131 450 
Q 3131 -325 2973 -648 
Q 2816 -972 2473 -1159 
Q 2131 -1347 1631 -1347 
Q 1038 -1347 672 -1080 
Q 306 -813 319 -275 
z
M 784 1719 
Q 784 1066 1043 766 
Q 1303 466 1694 466 
Q 2081 466 2343 764 
Q 2606 1063 2606 1700 
Q 2606 2309 2336 2618 
Q 2066 2928 1684 2928 
Q 1309 2928 1046 2623 
Q 784 2319 784 1719 
z
" transform="scale(0.015625)"/>
      </defs>
      <use xlink:href="#ArialMT-41"/>
      <use xlink:href="#ArialMT-67" transform="translate(66.699219 0)"/>
      <use xlink:href="#ArialMT-61" transform="translate(122.314453 0)"/>
      <use xlink:href="#ArialMT-72" transform="translate(177.929688 0)"/>
     </g>
    </g>
    <g id="line2d_55">
     <path d="M 232.93125 19.752188 
L 238.93125 19.752188 
L 244.93125 19.752188 
" style="fill: none; stroke: #e67e22; stroke-width: 1.2; stroke-linecap: square"/>
    </g>
    <g id="text_21">
     <!-- 0.5:1 -->
     <g transform="translate(249.73125 21.852188) scale(0.06 -0.06)">
      <defs>
       <path id="ArialMT-3a" d="M 578 2678 
L 578 3319 
L 1219 3319 
L 1219 2678 
L 578 2678 
z
M 578 0 
L 578 641 
L 1219 641 
L 1219 0 
L 578 0 
z
" transform="scale(0.015625)"/>
      </defs>
      <use xlink:href="#ArialMT-30"/>
      <use xlink:href="#ArialMT-2e" transform="translate(55.615234 0)"/>
      <use xlink:href="#ArialMT-35" transform="translate(83.398438 0)"/>
      <use xlink:href="#ArialMT-3a" transform="translate(139.013672 0)"/>
      <use xlink:href="#ArialMT-31" transform="translate(166.796875 0)"/>
     </g>
    </g>
    <g id="line2d_56">
     <path d="M 232.93125 28.239375 
L 238.93125 28.239375 
L 244.93125 28.239375 
" style="fill: none; stroke: #1f77b4; stroke-width: 1.2; stroke-linecap: square"/>
    </g>
    <g id="text_22">
     <!-- 1:1 -->
     <g transform="translate(249.73125 30.339375) scale(0.06 -0.06)">
      <use xlink:href="#ArialMT-31"/>
      <use xlink:href="#ArialMT-3a" transform="translate(55.615234 0)"/>
      <use xlink:href="#ArialMT-31" transform="translate(83.398438 0)"/>
     </g>
    </g>
    <g id="line2d_57">
     <path d="M 232.93125 36.726562 
L 238.93125 36.726562 
L 244.93125 36.726562 
" style="fill: none; stroke: #d62728; stroke-width: 1.2; stroke-linecap: square"/>
    </g>
    <g id="text_23">
     <!-- 2:1 -->
     <g transform="translate(249.73125 38.826562) scale(0.06 -0.06)">
      <use xlink:href="#ArialMT-32"/>
      <use xlink:href="#ArialMT-3a" transform="translate(55.615234 0)"/>
      <use xlink:href="#ArialMT-31" transform="translate(83.398438 0)"/>
     </g>
    </g>
    <g id="line2d_58">
     <path d="M 232.93125 45.21375 
L 238.93125 45.21375 
L 244.93125 45.21375 
" style="fill: none; stroke: #2ca02c; stroke-width: 1.2; stroke-linecap: square"/>
    </g>
    <g id="text_24">
     <!-- Green -->
     <g transform="translate(249.73125 47.31375) scale(0.06 -0.06)">
      <defs>
       <path id="ArialMT-47" d="M 2638 1797 
L 2638 2334 
L 4578 2338 
L 4578 638 
Q 4131 281 3656 101 
Q 3181 -78 2681 -78 
Q 2006 -78 1454 211 
Q 903 500 622 1047 
Q 341 1594 341 2269 
Q 341 2938 620 3517 
Q 900 4097 1425 4378 
Q 1950 4659 2634 4659 
Q 3131 4659 3532 4498 
Q 3934 4338 4162 4050 
Q 4391 3763 4509 3300 
L 3963 3150 
Q 3859 3500 3706 3700 
Q 3553 3900 3268 4020 
Q 2984 4141 2638 4141 
Q 2222 4141 1919 4014 
Q 1616 3888 1430 3681 
Q 1244 3475 1141 3228 
Q 966 2803 966 2306 
Q 966 1694 1177 1281 
Q 1388 869 1791 669 
Q 2194 469 2647 469 
Q 3041 469 3416 620 
Q 3791 772 3984 944 
L 3984 1797 
L 2638 1797 
z
" transform="scale(0.015625)"/>
      </defs>
      <use xlink:href="#ArialMT-47"/>
      <use xlink:href="#ArialMT-72" transform="translate(77.783203 0)"/>
      <use xlink:href="#ArialMT-65" transform="translate(111.083984 0)"/>
      <use xlink:href="#ArialMT-65" transform="translate(166.699219 0)"/>
      <use xlink:href="#ArialMT-6e" transform="translate(222.314453 0)"/>
     </g>
    </g>
    <g id="line2d_59">
     <path d="M 232.93125 53.700938 
L 238.93125 53.700938 
L 244.93125 53.700938 
" style="fill: none; stroke: #7f7f7f; stroke-width: 1.2; stroke-linecap: square"/>
    </g>
    <g id="text_25">
     <!-- White -->
     <g transform="translate(249.73125 55.800938) scale(0.06 -0.06)">
      <defs>
       <path id="ArialMT-57" d="M 1294 0 
L 78 4581 
L 700 4581 
L 1397 1578 
Q 1509 1106 1591 641 
Q 1766 1375 1797 1488 
L 2669 4581 
L 3400 4581 
L 4056 2263 
Q 4303 1400 4413 641 
Q 4500 1075 4641 1638 
L 5359 4581 
L 5969 4581 
L 4713 0 
L 4128 0 
L 3163 3491 
Q 3041 3928 3019 4028 
Q 2947 3713 2884 3491 
L 1913 0 
L 1294 0 
z
" transform="scale(0.015625)"/>
       <path id="ArialMT-68" d="M 422 0 
L 422 4581 
L 984 4581 
L 984 2938 
Q 1378 3394 1978 3394 
Q 2347 3394 2619 3248 
Q 2891 3103 3008 2847 
Q 3125 2591 3125 2103 
L 3125 0 
L 2563 0 
L 2563 2103 
Q 2563 2525 2380 2717 
Q 2197 2909 1863 2909 
Q 1613 2909 1392 2779 
Q 1172 2650 1078 2428 
Q 984 2206 984 1816 
L 984 0 
L 422 0 
z
" transform="scale(0.015625)"/>
      </defs>
      <use xlink:href="#ArialMT-57"/>
      <use xlink:href="#ArialMT-68" transform="translate(94.384766 0)"/>
      <use xlink:href="#ArialMT-69" transform="translate(150 0)"/>
      <use xlink:href="#ArialMT-74" transform="translate(172.216797 0)"/>
      <use xlink:href="#ArialMT-65" transform="translate(200 0)"/>
     </g>
    </g>
    <g id="line2d_60">
     <path d="M 232.93125 62.188125 
L 238.93125 62.188125 
L 244.93125 62.188125 
" style="fill: none; stroke: #1a1a1a; stroke-width: 1.2; stroke-linecap: square"/>
    </g>
    <g id="text_26">
     <!-- Black -->
     <g transform="translate(249.73125 64.288125) scale(0.06 -0.06)">
      <defs>
       <path id="ArialMT-42" d="M 469 0 
L 469 4581 
L 2188 4581 
Q 2713 4581 3030 4442 
Q 3347 4303 3526 4014 
Q 3706 3725 3706 3409 
Q 3706 3116 3547 2856 
Q 3388 2597 3066 2438 
Q 3481 2316 3704 2022 
Q 3928 1728 3928 1328 
Q 3928 1006 3792 729 
Q 3656 453 3456 303 
Q 3256 153 2954 76 
Q 2653 0 2216 0 
L 469 0 
z
M 1075 2656 
L 2066 2656 
Q 2469 2656 2644 2709 
Q 2875 2778 2992 2937 
Q 3109 3097 3109 3338 
Q 3109 3566 3000 3739 
Q 2891 3913 2687 3977 
Q 2484 4041 1991 4041 
L 1075 4041 
L 1075 2656 
z
M 1075 541 
L 2216 541 
Q 2509 541 2628 563 
Q 2838 600 2978 687 
Q 3119 775 3209 942 
Q 3300 1109 3300 1328 
Q 3300 1584 3169 1773 
Q 3038 1963 2805 2039 
Q 2572 2116 2134 2116 
L 1075 2116 
L 1075 541 
z
" transform="scale(0.015625)"/>
       <path id="ArialMT-6c" d="M 409 0 
L 409 4581 
L 972 4581 
L 972 0 
L 409 0 
z
" transform="scale(0.015625)"/>
       <path id="ArialMT-6b" d="M 425 0 
L 425 4581 
L 988 4581 
L 988 1969 
L 2319 3319 
L 3047 3319 
L 1778 2088 
L 3175 0 
L 2481 0 
L 1384 1697 
L 988 1316 
L 988 0 
L 425 0 
z
" transform="scale(0.015625)"/>
      </defs>
      <use xlink:href="#ArialMT-42"/>
      <use xlink:href="#ArialMT-6c" transform="translate(66.699219 0)"/>
      <use xlink:href="#ArialMT-61" transform="translate(88.916016 0)"/>
      <use xlink:href="#ArialMT-63" transform="translate(144.53125 0)"/>
      <use xlink:href="#ArialMT-6b" transform="translate(194.53125 0)"/>
     </g>
    </g>
    <g id="line2d_61">
     <path d="M 232.93125 70.675313 
L 238.93125 70.675313 
L 244.93125 70.675313 
" style="fill: none; stroke: #000000; stroke-width: 1.8; stroke-linecap: square"/>
    </g>
    <g id="text_27">
     <!-- Grand mean -->
     <g transform="translate(249.73125 72.775313) scale(0.06 -0.06)">
      <defs>
       <path id="ArialMT-64" d="M 2575 0 
L 2575 419 
Q 2259 -75 1647 -75 
Q 1250 -75 917 144 
Q 584 363 401 755 
Q 219 1147 219 1656 
Q 219 2153 384 2558 
Q 550 2963 881 3178 
Q 1213 3394 1622 3394 
Q 1922 3394 2156 3267 
Q 2391 3141 2538 2938 
L 2538 4581 
L 3097 4581 
L 3097 0 
L 2575 0 
z
M 797 1656 
Q 797 1019 1065 703 
Q 1334 388 1700 388 
Q 2069 388 2326 689 
Q 2584 991 2584 1609 
Q 2584 2291 2321 2609 
Q 2059 2928 1675 2928 
Q 1300 2928 1048 2622 
Q 797 2316 797 1656 
z
" transform="scale(0.015625)"/>
      </defs>
      <use xlink:href="#ArialMT-47"/>
      <use xlink:href="#ArialMT-72" transform="translate(77.783203 0)"/>
      <use xlink:href="#ArialMT-61" transform="translate(111.083984 0)"/>
      <use xlink:href="#ArialMT-6e" transform="translate(166.699219 0)"/>
      <use xlink:href="#ArialMT-64" transform="translate(222.314453 0)"/>
      <use xlink:href="#ArialMT-20" transform="translate(277.929688 0)"/>
      <use xlink:href="#ArialMT-6d" transform="translate(305.712891 0)"/>
      <use xlink:href="#ArialMT-65" transform="translate(389.013672 0)"/>
      <use xlink:href="#ArialMT-61" transform="translate(444.628906 0)"/>
      <use xlink:href="#ArialMT-6e" transform="translate(500.244141 0)"/>
     </g>
    </g>
   </g>
   <g id="FillBetweenPolyCollection_1">
    <defs>
     <path id="m330c4c9f47" d="M 39.173571 -60.559283 
L 39.173571 -49.215782 
L 42.760714 -52.706035 
L 46.347857 -51.161852 
L 49.935 -52.641979 
L 53.522143 -52.524449 
L 57.109286 -53.96187 
L 60.696429 -55.277384 
L 64.283571 -55.895266 
L 67.870714 -55.392384 
L 71.457857 -58.188886 
L 75.045 -59.692045 
L 78.632143 -58.202837 
L 82.219286 -61.185436 
L 85.806429 -61.390491 
L 89.393571 -63.135716 
L 92.980714 -61.565162 
L 96.567857 -63.45132 
L 100.155 -63.141928 
L 103.742143 -61.835562 
L 107.329286 -63.017647 
L 110.916429 -63.234989 
L 114.503571 -63.40873 
L 118.090714 -63.618106 
L 121.677857 -65.780246 
L 125.265 -64.997523 
L 128.852143 -63.516294 
L 132.439286 -65.626121 
L 136.026429 -65.044849 
L 139.613571 -66.434494 
L 143.200714 -65.853892 
L 146.787857 -68.45153 
L 150.375 -68.036358 
L 153.962143 -68.464518 
L 157.549286 -67.540618 
L 161.136429 -66.75103 
L 164.723571 -68.301617 
L 168.310714 -69.88722 
L 171.897857 -69.796115 
L 175.485 -68.711642 
L 179.072143 -71.345332 
L 182.659286 -70.512349 
L 186.246429 -73.15967 
L 189.833571 -69.706006 
L 193.420714 -71.018159 
L 197.007857 -70.501914 
L 200.595 -69.676024 
L 204.182143 -72.060028 
L 207.769286 -70.353169 
L 211.356429 -71.105363 
L 214.943571 -69.054378 
L 218.530714 -70.901092 
L 222.117857 -75.530708 
L 225.705 -72.039069 
L 229.292143 -71.990271 
L 232.879286 -74.906215 
L 236.466429 -70.30566 
L 240.053571 -71.456899 
L 243.640714 -74.399489 
L 247.227857 -70.215214 
L 250.815 -71.782693 
L 254.402143 -71.514264 
L 257.989286 -69.598995 
L 261.576429 -69.335396 
L 265.163571 -71.954282 
L 268.750714 -69.819407 
L 272.337857 -67.933601 
L 275.925 -69.437317 
L 279.512143 -65.044994 
L 283.099286 -70.698605 
L 286.686429 -66.329057 
L 290.273571 -66.228251 
L 293.860714 -55.023616 
L 297.447857 -58.94496 
L 301.035 -59.522563 
L 304.622143 -53.24121 
L 308.209286 -58.69797 
L 308.209286 -61.75825 
L 308.209286 -61.75825 
L 304.622143 -64.206406 
L 301.035 -66.605649 
L 297.447857 -68.072069 
L 293.860714 -61.533606 
L 290.273571 -76.023274 
L 286.686429 -73.754088 
L 283.099286 -81.816621 
L 279.512143 -70.806326 
L 275.925 -78.408241 
L 272.337857 -75.672683 
L 268.750714 -78.536154 
L 265.163571 -77.965975 
L 261.576429 -79.366617 
L 257.989286 -74.7711 
L 254.402143 -77.63814 
L 250.815 -77.174637 
L 247.227857 -74.920346 
L 243.640714 -79.354067 
L 240.053571 -75.647167 
L 236.466429 -73.694037 
L 232.879286 -79.51206 
L 229.292143 -77.921308 
L 225.705 -75.809631 
L 222.117857 -80.304128 
L 218.530714 -74.821547 
L 214.943571 -72.325022 
L 211.356429 -76.753221 
L 207.769286 -75.739358 
L 204.182143 -74.973136 
L 200.595 -74.028127 
L 197.007857 -74.26308 
L 193.420714 -75.708398 
L 189.833571 -72.654943 
L 186.246429 -77.487011 
L 182.659286 -73.567441 
L 179.072143 -74.730767 
L 175.485 -73.21848 
L 171.897857 -72.399547 
L 168.310714 -73.403164 
L 164.723571 -72.230718 
L 161.136429 -71.446559 
L 157.549286 -70.555471 
L 153.962143 -72.985977 
L 150.375 -72.159601 
L 146.787857 -72.167568 
L 143.200714 -69.735846 
L 139.613571 -70.228951 
L 136.026429 -68.147815 
L 132.439286 -69.721197 
L 128.852143 -67.123185 
L 125.265 -67.589083 
L 121.677857 -69.802097 
L 118.090714 -66.262909 
L 114.503571 -66.59178 
L 110.916429 -66.118809 
L 107.329286 -66.917519 
L 103.742143 -65.107682 
L 100.155 -67.029398 
L 96.567857 -69.016525 
L 92.980714 -64.854517 
L 89.393571 -68.162057 
L 85.806429 -65.403293 
L 82.219286 -64.677621 
L 78.632143 -62.049439 
L 75.045 -62.820644 
L 71.457857 -61.099902 
L 67.870714 -57.962332 
L 64.283571 -59.279151 
L 60.696429 -57.866158 
L 57.109286 -56.851883 
L 53.522143 -54.989673 
L 49.935 -56.572384 
L 46.347857 -55.072039 
L 42.760714 -58.550763 
L 39.173571 -60.559283 
z
" style="stroke: #000000; stroke-opacity: 0.12"/>
    </defs>
    <g clip-path="url(#pcf0f4ba938)">
     <use xlink:href="#m330c4c9f47" x="0" y="198.93625" style="fill-opacity: 0.12; stroke: #000000; stroke-opacity: 0.12"/>
    </g>
   </g>
   <g id="line2d_62">
    <path d="M 39.173571 144.048718 
L 42.760714 143.307851 
L 46.347857 145.819304 
L 49.935 144.329069 
L 53.522143 145.179189 
L 57.109286 143.529373 
L 60.696429 142.364479 
L 64.283571 141.349042 
L 67.870714 142.258892 
L 71.457857 139.291856 
L 75.045 137.679905 
L 78.632143 138.810112 
L 82.219286 136.004722 
L 85.806429 135.539358 
L 89.393571 133.287364 
L 92.980714 135.72641 
L 96.567857 132.702327 
L 100.155 133.850587 
L 103.742143 135.464628 
L 107.329286 133.968667 
L 110.916429 134.259351 
L 114.503571 133.935995 
L 118.090714 133.995742 
L 121.677857 131.145078 
L 125.265 132.642947 
L 128.852143 133.616511 
L 132.439286 131.262591 
L 136.026429 132.339918 
L 139.613571 130.604527 
L 143.200714 131.141381 
L 146.787857 128.626701 
L 150.375 128.838271 
L 153.962143 128.211003 
L 157.549286 129.888205 
L 161.136429 129.837455 
L 164.723571 128.670083 
L 168.310714 127.291058 
L 171.897857 127.838419 
L 175.485 127.971189 
L 179.072143 125.898201 
L 182.659286 126.896355 
L 186.246429 123.612909 
L 189.833571 127.755776 
L 193.420714 125.572972 
L 197.007857 126.553753 
L 200.595 127.084174 
L 204.182143 125.419668 
L 207.769286 125.889986 
L 211.356429 125.006958 
L 214.943571 128.24655 
L 218.530714 126.07493 
L 222.117857 121.018832 
L 225.705 125.0119 
L 229.292143 123.980461 
L 232.879286 121.727112 
L 236.466429 126.936402 
L 240.053571 125.384217 
L 243.640714 122.059472 
L 247.227857 126.36847 
L 250.815 124.457585 
L 254.402143 124.360048 
L 257.989286 126.751202 
L 261.576429 124.585244 
L 265.163571 123.976121 
L 268.750714 124.75847 
L 272.337857 127.133108 
L 275.925 125.013471 
L 279.512143 131.01059 
L 283.099286 122.678637 
L 286.686429 128.894678 
L 290.273571 127.810487 
L 293.860714 140.657639 
L 297.447857 135.427736 
L 301.035 135.872144 
L 301.9775 137.012531 
" clip-path="url(#pcf0f4ba938)" style="fill: none; stroke: #000000; stroke-width: 1.8; stroke-linecap: square"/>
   </g>
  </g>
 </g>
 <defs>
  <clipPath id="pcf0f4ba938">
   <rect x="37.38" y="3.6" width="251.1" height="166.32"/>
  </clipPath>
 </defs>
</svg>
