<?xml version="1.0" encoding="utf-8" standalone="no"?>
<!DOCTYPE svg PUBLIC "-//W3C//DTD SVG 1.1//EN"
  "http://www.w3.org/Graphics/SVG/1.1/DTD/svg11.dtd">
<svg xmlns:xlink="http://www.w3.org/1999/xlink" width="241.924817pt" height="384.905906pt" viewBox="0 0 241.924817 384.905906" xmlns="http://www.w3.org/2000/svg" version="1.1">
 <metadata>
  <rdf:RDF xmlns:dc="http://purl.org/dc/elements/1.1/" xmlns:cc="http://creativecommons.org/ns#" xmlns:rdf="http://www.w3.org/1999/02/22-rdf-syntax-ns#">
   <cc:Work>
    <dc:type rdf:resource="http://purl.org/dc/dcmitype/StillImage"/>
    <dc:date>2026-03-22T14:54:23.932543</dc:date>
    <dc:format>image/svg+xml</dc:format>
    <dc:creator>
     <cc:Agent>
      <dc:title>Matplotlib v3.10.8, https://matplotlib.org/</dc:title>
     </cc:Agent>
    </dc:creator>
   </cc:Work>
  </rdf:RDF>
 </metadata>
 <defs>
  <style type="text/css">*{stroke-linejoin: round; stroke-linecap: butt}</style>
 </defs>
 <g id="figure_1">
  <g id="patch_1">
   <path d="M 0 384.905906 
L 241.924817 384.905906 
L 241.924817 0 
L 0 0 
z
" style="fill: #ffffff"/>
  </g>
  <g id="axes_1">
   <g id="patch_2">
    <path d="M 36.620312 355.979656 
L 222.204534 355.979656 
L 222.204534 16.151719 
L 36.620312 16.151719 
z
" style="fill: #ffffff"/>
   </g>
   <g id="line2d_1">
    <path d="M 199.853329 355.979656 
L 199.853329 16.151719 
" clip-path="url(#paad38027fb)" style="fill: none; stroke-dasharray: 1.85,0.8; stroke-dashoffset: 0; stroke: #888888; stroke-width: 0.5"/>
   </g>
   <g id="matplotlib.axis_1">
    <g id="xtick_1">
     <g id="line2d_2">
      <defs>
       <path id="md2687a45ac" d="M 0 0 
L 0 3.5 
" style="stroke: #000000; stroke-width: 0.5"/>
      </defs>
      <g>
       <use xlink:href="#md2687a45ac" x="199.853329" y="355.979656" style="stroke: #000000; stroke-width: 0.5"/>
      </g>
     </g>
     <g id="text_1">
      <!-- 1.00 -->
      <g transform="translate(193.042001 367.990125) scale(0.07 -0.07)">
       <defs>
        <path id="ArialMT-31" d="M 2384 0 
L 1822 0 
L 1822 3584 
Q 1619 3391 1289 3197 
Q 959 3003 697 2906 
L 697 3450 
Q 1169 3672 1522 3987 
Q 1875 4303 2022 4600 
L 2384 4600 
L 2384 0 
z
" transform="scale(0.015625)"/>
        <path id="ArialMT-2e" d="M 581 0 
L 581 641 
L 1222 641 
L 1222 0 
L 581 0 
z
" transform="scale(0.015625)"/>
        <path id="ArialMT-30" d="M 266 2259 
Q 266 3072 433 3567 
Q 600 4063 929 4331 
Q 1259 4600 1759 4600 
Q 2128 4600 2406 4451 
Q 2684 4303 2865 4023 
Q 3047 3744 3150 3342 
Q 3253 2941 3253 2259 
Q 3253 1453 3087 958 
Q 2922 463 2592 192 
Q 2263 -78 1759 -78 
Q 1097 -78 719 397 
Q 266 969 266 2259 
z
M 844 2259 
Q 844 1131 1108 757 
Q 1372 384 1759 384 
Q 2147 384 2411 759 
Q 2675 1134 2675 2259 
Q 2675 3391 2411 3762 
Q 2147 4134 1753 4134 
Q 1366 4134 1134 3806 
Q 844 3388 844 2259 
z
" transform="scale(0.015625)"/>
       </defs>
       <use xlink:href="#ArialMT-31"/>
       <use xlink:href="#ArialMT-2e" transform="translate(55.615234 0)"/>
       <use xlink:href="#ArialMT-30" transform="translate(83.398438 0)"/>
       <use xlink:href="#ArialMT-30" transform="translate(139.013672 0)"/>
      </g>
     </g>
    </g>
    <g id="xtick_2">
     <g id="line2d_3">
      <defs>
       <path id="m0e14c37ce4" d="M 0 0 
L 0 2 
" style="stroke: #000000; stroke-width: 0.6"/>
      </defs>
      <g>
       <use xlink:href="#m0e14c37ce4" x="46.12664" y="355.979656" style="stroke: #000000; stroke-width: 0.6"/>
      </g>
     </g>
     <g id="text_2">
      <!-- $\mathdefault{2\times10^{-1}}$ -->
      <g transform="translate(33.84164 368.598406) scale(0.07 -0.07)">
       <defs>
        <path id="ArialMT-32" d="M 3222 541 
L 3222 0 
L 194 0 
Q 188 203 259 391 
Q 375 700 629 1000 
Q 884 1300 1366 1694 
Q 2113 2306 2375 2664 
Q 2638 3022 2638 3341 
Q 2638 3675 2398 3904 
Q 2159 4134 1775 4134 
Q 1369 4134 1125 3890 
Q 881 3647 878 3216 
L 300 3275 
Q 359 3922 746 4261 
Q 1134 4600 1788 4600 
Q 2447 4600 2831 4234 
Q 3216 3869 3216 3328 
Q 3216 3053 3103 2787 
Q 2991 2522 2730 2228 
Q 2469 1934 1863 1422 
Q 1356 997 1212 845 
Q 1069 694 975 541 
L 3222 541 
z
" transform="scale(0.015625)"/>
        <path id="ArialMT-d7" d="M 503 1278 
L 1488 2263 
L 506 3244 
L 888 3625 
L 1869 2644 
L 2847 3622 
L 3222 3244 
L 2247 2266 
L 3228 1284 
L 2847 903 
L 1866 1884 
L 881 900 
L 503 1278 
z
" transform="scale(0.015625)"/>
        <path id="ArialMT-2212" d="M 3381 1997 
L 356 1997 
L 356 2522 
L 3381 2522 
L 3381 1997 
z
" transform="scale(0.015625)"/>
       </defs>
       <use xlink:href="#ArialMT-32" transform="translate(0 0.99375)"/>
       <use xlink:href="#ArialMT-d7" transform="translate(75.097656 0.99375)"/>
       <use xlink:href="#ArialMT-31" transform="translate(152.978516 0.99375)"/>
       <use xlink:href="#ArialMT-30" transform="translate(208.59375 0.99375)"/>
       <use xlink:href="#ArialMT-2212" transform="translate(265.951328 70.6875) scale(0.7)"/>
       <use xlink:href="#ArialMT-31" transform="translate(306.830234 70.6875) scale(0.7)"/>
      </g>
     </g>
    </g>
    <g id="xtick_3">
     <g id="line2d_4">
      <g>
       <use xlink:href="#m0e14c37ce4" x="84.854949" y="355.979656" style="stroke: #000000; stroke-width: 0.6"/>
      </g>
     </g>
     <g id="text_3">
      <!-- $\mathdefault{3\times10^{-1}}$ -->
      <g transform="translate(72.569949 368.598406) scale(0.07 -0.07)">
       <defs>
        <path id="ArialMT-33" d="M 269 1209 
L 831 1284 
Q 928 806 1161 595 
Q 1394 384 1728 384 
Q 2125 384 2398 659 
Q 2672 934 2672 1341 
Q 2672 1728 2419 1979 
Q 2166 2231 1775 2231 
Q 1616 2231 1378 2169 
L 1441 2663 
Q 1497 2656 1531 2656 
Q 1891 2656 2178 2843 
Q 2466 3031 2466 3422 
Q 2466 3731 2256 3934 
Q 2047 4138 1716 4138 
Q 1388 4138 1169 3931 
Q 950 3725 888 3313 
L 325 3413 
Q 428 3978 793 4289 
Q 1159 4600 1703 4600 
Q 2078 4600 2393 4439 
Q 2709 4278 2876 4000 
Q 3044 3722 3044 3409 
Q 3044 3113 2884 2869 
Q 2725 2625 2413 2481 
Q 2819 2388 3044 2092 
Q 3269 1797 3269 1353 
Q 3269 753 2831 336 
Q 2394 -81 1725 -81 
Q 1122 -81 723 278 
Q 325 638 269 1209 
z
" transform="scale(0.015625)"/>
       </defs>
       <use xlink:href="#ArialMT-33" transform="translate(0 0.99375)"/>
       <use xlink:href="#ArialMT-d7" transform="translate(75.097656 0.99375)"/>
       <use xlink:href="#ArialMT-31" transform="translate(152.978516 0.99375)"/>
       <use xlink:href="#ArialMT-30" transform="translate(208.59375 0.99375)"/>
       <use xlink:href="#ArialMT-2212" transform="translate(265.951328 70.6875) scale(0.7)"/>
       <use xlink:href="#ArialMT-31" transform="translate(306.830234 70.6875) scale(0.7)"/>
      </g>
     </g>
    </g>
    <g id="xtick_4">
     <g id="line2d_5">
      <g>
       <use xlink:href="#m0e14c37ce4" x="112.333122" y="355.979656" style="stroke: #000000; stroke-width: 0.6"/>
      </g>
     </g>
     <g id="text_4">
      <!-- $\mathdefault{4\times10^{-1}}$ -->
      <g transform="translate(100.048122 368.598406) scale(0.07 -0.07)">
       <defs>
        <path id="ArialMT-34" d="M 2069 0 
L 2069 1097 
L 81 1097 
L 81 1613 
L 2172 4581 
L 2631 4581 
L 2631 1613 
L 3250 1613 
L 3250 1097 
L 2631 1097 
L 2631 0 
L 2069 0 
z
M 2069 1613 
L 2069 3678 
L 634 1613 
L 2069 1613 
z
" transform="scale(0.015625)"/>
       </defs>
       <use xlink:href="#ArialMT-34" transform="translate(0 0.99375)"/>
       <use xlink:href="#ArialMT-d7" transform="translate(75.097656 0.99375)"/>
       <use xlink:href="#ArialMT-31" transform="translate(152.978516 0.99375)"/>
       <use xlink:href="#ArialMT-30" transform="translate(208.59375 0.99375)"/>
       <use xlink:href="#ArialMT-2212" transform="translate(265.951328 70.6875) scale(0.7)"/>
       <use xlink:href="#ArialMT-31" transform="translate(306.830234 70.6875) scale(0.7)"/>
      </g>
     </g>
    </g>
    <g id="xtick_5">
     <g id="line2d_6">
      <g>
       <use xlink:href="#m0e14c37ce4" x="133.646848" y="355.979656" style="stroke: #000000; stroke-width: 0.6"/>
      </g>
     </g>
    </g>
    <g id="xtick_6">
     <g id="line2d_7">
      <g>
       <use xlink:href="#m0e14c37ce4" x="151.061431" y="355.979656" style="stroke: #000000; stroke-width: 0.6"/>
      </g>
     </g>
     <g id="text_5">
      <!-- $\mathdefault{6\times10^{-1}}$ -->
      <g transform="translate(138.776431 368.598406) scale(0.07 -0.07)">
       <defs>
        <path id="ArialMT-36" d="M 3184 3459 
L 2625 3416 
Q 2550 3747 2413 3897 
Q 2184 4138 1850 4138 
Q 1581 4138 1378 3988 
Q 1113 3794 959 3422 
Q 806 3050 800 2363 
Q 1003 2672 1297 2822 
Q 1591 2972 1913 2972 
Q 2475 2972 2870 2558 
Q 3266 2144 3266 1488 
Q 3266 1056 3080 686 
Q 2894 316 2569 119 
Q 2244 -78 1831 -78 
Q 1128 -78 684 439 
Q 241 956 241 2144 
Q 241 3472 731 4075 
Q 1159 4600 1884 4600 
Q 2425 4600 2770 4297 
Q 3116 3994 3184 3459 
z
M 888 1484 
Q 888 1194 1011 928 
Q 1134 663 1356 523 
Q 1578 384 1822 384 
Q 2178 384 2434 671 
Q 2691 959 2691 1453 
Q 2691 1928 2437 2201 
Q 2184 2475 1800 2475 
Q 1419 2475 1153 2201 
Q 888 1928 888 1484 
z
" transform="scale(0.015625)"/>
       </defs>
       <use xlink:href="#ArialMT-36" transform="translate(0 0.99375)"/>
       <use xlink:href="#ArialMT-d7" transform="translate(75.097656 0.99375)"/>
       <use xlink:href="#ArialMT-31" transform="translate(152.978516 0.99375)"/>
       <use xlink:href="#ArialMT-30" transform="translate(208.59375 0.99375)"/>
       <use xlink:href="#ArialMT-2212" transform="translate(265.951328 70.6875) scale(0.7)"/>
       <use xlink:href="#ArialMT-31" transform="translate(306.830234 70.6875) scale(0.7)"/>
      </g>
     </g>
    </g>
    <g id="xtick_7">
     <g id="line2d_8">
      <g>
       <use xlink:href="#m0e14c37ce4" x="165.78525" y="355.979656" style="stroke: #000000; stroke-width: 0.6"/>
      </g>
     </g>
    </g>
    <g id="xtick_8">
     <g id="line2d_9">
      <g>
       <use xlink:href="#m0e14c37ce4" x="178.539603" y="355.979656" style="stroke: #000000; stroke-width: 0.6"/>
      </g>
     </g>
    </g>
    <g id="xtick_9">
     <g id="line2d_10">
      <g>
       <use xlink:href="#m0e14c37ce4" x="189.789739" y="355.979656" style="stroke: #000000; stroke-width: 0.6"/>
      </g>
     </g>
    </g>
    <g id="text_6">
     <!-- Hazard ratio per mm distance -->
     <g transform="translate(76.951173 379.715906) scale(0.08 -0.08)">
      <defs>
       <path id="ArialMT-48" d="M 513 0 
L 513 4581 
L 1119 4581 
L 1119 2700 
L 3500 2700 
L 3500 4581 
L 4106 4581 
L 4106 0 
L 3500 0 
L 3500 2159 
L 1119 2159 
L 1119 0 
L 513 0 
z
" transform="scale(0.015625)"/>
       <path id="ArialMT-61" d="M 2588 409 
Q 2275 144 1986 34 
Q 1697 -75 1366 -75 
Q 819 -75 525 192 
Q 231 459 231 875 
Q 231 1119 342 1320 
Q 453 1522 633 1644 
Q 813 1766 1038 1828 
Q 1203 1872 1538 1913 
Q 2219 1994 2541 2106 
Q 2544 2222 2544 2253 
Q 2544 2597 2384 2738 
Q 2169 2928 1744 2928 
Q 1347 2928 1158 2789 
Q 969 2650 878 2297 
L 328 2372 
Q 403 2725 575 2942 
Q 747 3159 1072 3276 
Q 1397 3394 1825 3394 
Q 2250 3394 2515 3294 
Q 2781 3194 2906 3042 
Q 3031 2891 3081 2659 
Q 3109 2516 3109 2141 
L 3109 1391 
Q 3109 606 3145 398 
Q 3181 191 3288 0 
L 2700 0 
Q 2613 175 2588 409 
z
M 2541 1666 
Q 2234 1541 1622 1453 
Q 1275 1403 1131 1340 
Q 988 1278 909 1158 
Q 831 1038 831 891 
Q 831 666 1001 516 
Q 1172 366 1500 366 
Q 1825 366 2078 508 
Q 2331 650 2450 897 
Q 2541 1088 2541 1459 
L 2541 1666 
z
" transform="scale(0.015625)"/>
       <path id="ArialMT-7a" d="M 125 0 
L 125 456 
L 2238 2881 
Q 1878 2863 1603 2863 
L 250 2863 
L 250 3319 
L 2963 3319 
L 2963 2947 
L 1166 841 
L 819 456 
Q 1197 484 1528 484 
L 3063 484 
L 3063 0 
L 125 0 
z
" transform="scale(0.015625)"/>
       <path id="ArialMT-72" d="M 416 0 
L 416 3319 
L 922 3319 
L 922 2816 
Q 1116 3169 1280 3281 
Q 1444 3394 1641 3394 
Q 1925 3394 2219 3213 
L 2025 2691 
Q 1819 2813 1613 2813 
Q 1428 2813 1281 2702 
Q 1134 2591 1072 2394 
Q 978 2094 978 1738 
L 978 0 
L 416 0 
z
" transform="scale(0.015625)"/>
       <path id="ArialMT-64" d="M 2575 0 
L 2575 419 
Q 2259 -75 1647 -75 
Q 1250 -75 917 144 
Q 584 363 401 755 
Q 219 1147 219 1656 
Q 219 2153 384 2558 
Q 550 2963 881 3178 
Q 1213 3394 1622 3394 
Q 1922 3394 2156 3267 
Q 2391 3141 2538 2938 
L 2538 4581 
L 3097 4581 
L 3097 0 
L 2575 0 
z
M 797 1656 
Q 797 1019 1065 703 
Q 1334 388 1700 388 
Q 2069 388 2326 689 
Q 2584 991 2584 1609 
Q 2584 2291 2321 2609 
Q 2059 2928 1675 2928 
Q 1300 2928 1048 2622 
Q 797 2316 797 1656 
z
" transform="scale(0.015625)"/>
       <path id="ArialMT-20" transform="scale(0.015625)"/>
       <path id="ArialMT-74" d="M 1650 503 
L 1731 6 
Q 1494 -44 1306 -44 
Q 1000 -44 831 53 
Q 663 150 594 308 
Q 525 466 525 972 
L 525 2881 
L 113 2881 
L 113 3319 
L 525 3319 
L 525 4141 
L 1084 4478 
L 1084 3319 
L 1650 3319 
L 1650 2881 
L 1084 2881 
L 1084 941 
Q 1084 700 1114 631 
Q 1144 563 1211 522 
Q 1278 481 1403 481 
Q 1497 481 1650 503 
z
" transform="scale(0.015625)"/>
       <path id="ArialMT-69" d="M 425 3934 
L 425 4581 
L 988 4581 
L 988 3934 
L 425 3934 
z
M 425 0 
L 425 3319 
L 988 3319 
L 988 0 
L 425 0 
z
" transform="scale(0.015625)"/>
       <path id="ArialMT-6f" d="M 213 1659 
Q 213 2581 725 3025 
Q 1153 3394 1769 3394 
Q 2453 3394 2887 2945 
Q 3322 2497 3322 1706 
Q 3322 1066 3130 698 
Q 2938 331 2570 128 
Q 2203 -75 1769 -75 
Q 1072 -75 642 372 
Q 213 819 213 1659 
z
M 791 1659 
Q 791 1022 1069 705 
Q 1347 388 1769 388 
Q 2188 388 2466 706 
Q 2744 1025 2744 1678 
Q 2744 2294 2464 2611 
Q 2184 2928 1769 2928 
Q 1347 2928 1069 2612 
Q 791 2297 791 1659 
z
" transform="scale(0.015625)"/>
       <path id="ArialMT-70" d="M 422 -1272 
L 422 3319 
L 934 3319 
L 934 2888 
Q 1116 3141 1344 3267 
Q 1572 3394 1897 3394 
Q 2322 3394 2647 3175 
Q 2972 2956 3137 2557 
Q 3303 2159 3303 1684 
Q 3303 1175 3120 767 
Q 2938 359 2589 142 
Q 2241 -75 1856 -75 
Q 1575 -75 1351 44 
Q 1128 163 984 344 
L 984 -1272 
L 422 -1272 
z
M 931 1641 
Q 931 1000 1190 694 
Q 1450 388 1819 388 
Q 2194 388 2461 705 
Q 2728 1022 2728 1688 
Q 2728 2322 2467 2637 
Q 2206 2953 1844 2953 
Q 1484 2953 1207 2617 
Q 931 2281 931 1641 
z
" transform="scale(0.015625)"/>
       <path id="ArialMT-65" d="M 2694 1069 
L 3275 997 
Q 3138 488 2766 206 
Q 2394 -75 1816 -75 
Q 1088 -75 661 373 
Q 234 822 234 1631 
Q 234 2469 665 2931 
Q 1097 3394 1784 3394 
Q 2450 3394 2872 2941 
Q 3294 2488 3294 1666 
Q 3294 1616 3291 1516 
L 816 1516 
Q 847 969 1125 678 
Q 1403 388 1819 388 
Q 2128 388 2347 550 
Q 2566 713 2694 1069 
z
M 847 1978 
L 2700 1978 
Q 2663 2397 2488 2606 
Q 2219 2931 1791 2931 
Q 1403 2931 1139 2672 
Q 875 2413 847 1978 
z
" transform="scale(0.015625)"/>
       <path id="ArialMT-6d" d="M 422 0 
L 422 3319 
L 925 3319 
L 925 2853 
Q 1081 3097 1340 3245 
Q 1600 3394 1931 3394 
Q 2300 3394 2536 3241 
Q 2772 3088 2869 2813 
Q 3263 3394 3894 3394 
Q 4388 3394 4653 3120 
Q 4919 2847 4919 2278 
L 4919 0 
L 4359 0 
L 4359 2091 
Q 4359 2428 4304 2576 
Q 4250 2725 4106 2815 
Q 3963 2906 3769 2906 
Q 3419 2906 3187 2673 
Q 2956 2441 2956 1928 
L 2956 0 
L 2394 0 
L 2394 2156 
Q 2394 2531 2256 2718 
Q 2119 2906 1806 2906 
Q 1569 2906 1367 2781 
Q 1166 2656 1075 2415 
Q 984 2175 984 1722 
L 984 0 
L 422 0 
z
" transform="scale(0.015625)"/>
       <path id="ArialMT-73" d="M 197 991 
L 753 1078 
Q 800 744 1014 566 
Q 1228 388 1613 388 
Q 2000 388 2187 545 
Q 2375 703 2375 916 
Q 2375 1106 2209 1216 
Q 2094 1291 1634 1406 
Q 1016 1563 777 1677 
Q 538 1791 414 1992 
Q 291 2194 291 2438 
Q 291 2659 392 2848 
Q 494 3038 669 3163 
Q 800 3259 1026 3326 
Q 1253 3394 1513 3394 
Q 1903 3394 2198 3281 
Q 2494 3169 2634 2976 
Q 2775 2784 2828 2463 
L 2278 2388 
Q 2241 2644 2061 2787 
Q 1881 2931 1553 2931 
Q 1166 2931 1000 2803 
Q 834 2675 834 2503 
Q 834 2394 903 2306 
Q 972 2216 1119 2156 
Q 1203 2125 1616 2013 
Q 2213 1853 2448 1751 
Q 2684 1650 2818 1456 
Q 2953 1263 2953 975 
Q 2953 694 2789 445 
Q 2625 197 2315 61 
Q 2006 -75 1616 -75 
Q 969 -75 630 194 
Q 291 463 197 991 
z
" transform="scale(0.015625)"/>
       <path id="ArialMT-6e" d="M 422 0 
L 422 3319 
L 928 3319 
L 928 2847 
Q 1294 3394 1984 3394 
Q 2284 3394 2536 3286 
Q 2788 3178 2913 3003 
Q 3038 2828 3088 2588 
Q 3119 2431 3119 2041 
L 3119 0 
L 2556 0 
L 2556 2019 
Q 2556 2363 2490 2533 
Q 2425 2703 2258 2804 
Q 2091 2906 1866 2906 
Q 1506 2906 1245 2678 
Q 984 2450 984 1813 
L 984 0 
L 422 0 
z
" transform="scale(0.015625)"/>
       <path id="ArialMT-63" d="M 2588 1216 
L 3141 1144 
Q 3050 572 2676 248 
Q 2303 -75 1759 -75 
Q 1078 -75 664 370 
Q 250 816 250 1647 
Q 250 2184 428 2587 
Q 606 2991 970 3192 
Q 1334 3394 1763 3394 
Q 2303 3394 2647 3120 
Q 2991 2847 3088 2344 
L 2541 2259 
Q 2463 2594 2264 2762 
Q 2066 2931 1784 2931 
Q 1359 2931 1093 2626 
Q 828 2322 828 1663 
Q 828 994 1084 691 
Q 1341 388 1753 388 
Q 2084 388 2306 591 
Q 2528 794 2588 1216 
z
" transform="scale(0.015625)"/>
      </defs>
      <use xlink:href="#ArialMT-48"/>
      <use xlink:href="#ArialMT-61" transform="translate(72.216797 0)"/>
      <use xlink:href="#ArialMT-7a" transform="translate(127.832031 0)"/>
      <use xlink:href="#ArialMT-61" transform="translate(177.832031 0)"/>
      <use xlink:href="#ArialMT-72" transform="translate(233.447266 0)"/>
      <use xlink:href="#ArialMT-64" transform="translate(266.748047 0)"/>
      <use xlink:href="#ArialMT-20" transform="translate(322.363281 0)"/>
      <use xlink:href="#ArialMT-72" transform="translate(350.146484 0)"/>
      <use xlink:href="#ArialMT-61" transform="translate(383.447266 0)"/>
      <use xlink:href="#ArialMT-74" transform="translate(439.0625 0)"/>
      <use xlink:href="#ArialMT-69" transform="translate(466.845703 0)"/>
      <use xlink:href="#ArialMT-6f" transform="translate(489.0625 0)"/>
      <use xlink:href="#ArialMT-20" transform="translate(544.677734 0)"/>
      <use xlink:href="#ArialMT-70" transform="translate(572.460938 0)"/>
      <use xlink:href="#ArialMT-65" transform="translate(628.076172 0)"/>
      <use xlink:href="#ArialMT-72" transform="translate(683.691406 0)"/>
      <use xlink:href="#ArialMT-20" transform="translate(716.992188 0)"/>
      <use xlink:href="#ArialMT-6d" transform="translate(744.775391 0)"/>
      <use xlink:href="#ArialMT-6d" transform="translate(828.076172 0)"/>
      <use xlink:href="#ArialMT-20" transform="translate(911.376953 0)"/>
      <use xlink:href="#ArialMT-64" transform="translate(939.160156 0)"/>
      <use xlink:href="#ArialMT-69" transform="translate(994.775391 0)"/>
      <use xlink:href="#ArialMT-73" transform="translate(1016.992188 0)"/>
      <use xlink:href="#ArialMT-74" transform="translate(1066.992188 0)"/>
      <use xlink:href="#ArialMT-61" transform="translate(1094.775391 0)"/>
      <use xlink:href="#ArialMT-6e" transform="translate(1150.390625 0)"/>
      <use xlink:href="#ArialMT-63" transform="translate(1206.005859 0)"/>
      <use xlink:href="#ArialMT-65" transform="translate(1256.005859 0)"/>
     </g>
    </g>
   </g>
   <g id="matplotlib.axis_2">
    <g id="ytick_1">
     <g id="line2d_11">
      <defs>
       <path id="mc4ca28c02a" d="M 0 0 
L -3.5 0 
" style="stroke: #000000; stroke-width: 0.5"/>
      </defs>
      <g>
       <use xlink:href="#mc4ca28c02a" x="36.620312" y="31.598443" style="stroke: #000000; stroke-width: 0.5"/>
      </g>
     </g>
     <g id="text_7">
      <!-- 2to1.4* -->
      <g transform="translate(9.020391 33.924732) scale(0.065 -0.065)">
       <defs>
        <path id="ArialMT-2a" d="M 200 3741 
L 344 4184 
Q 841 4009 1066 3881 
Q 1006 4447 1003 4659 
L 1456 4659 
Q 1447 4350 1384 3884 
Q 1706 4047 2122 4184 
L 2266 3741 
Q 1869 3609 1488 3566 
Q 1678 3400 2025 2975 
L 1650 2709 
Q 1469 2956 1222 3381 
Q 991 2941 816 2709 
L 447 2975 
Q 809 3422 966 3566 
Q 563 3644 200 3741 
z
" transform="scale(0.015625)"/>
       </defs>
       <use xlink:href="#ArialMT-32"/>
       <use xlink:href="#ArialMT-74" transform="translate(55.615234 0)"/>
       <use xlink:href="#ArialMT-6f" transform="translate(83.398438 0)"/>
       <use xlink:href="#ArialMT-31" transform="translate(139.013672 0)"/>
       <use xlink:href="#ArialMT-2e" transform="translate(194.628906 0)"/>
       <use xlink:href="#ArialMT-34" transform="translate(222.412109 0)"/>
       <use xlink:href="#ArialMT-2a" transform="translate(278.027344 0)"/>
      </g>
     </g>
    </g>
    <g id="ytick_2">
     <g id="line2d_12">
      <g>
       <use xlink:href="#mc4ca28c02a" x="36.620312" y="40.527186" style="stroke: #000000; stroke-width: 0.5"/>
      </g>
     </g>
     <g id="text_8">
      <!-- 2to1.5* -->
      <g transform="translate(9.020391 42.853475) scale(0.065 -0.065)">
       <defs>
        <path id="ArialMT-35" d="M 266 1200 
L 856 1250 
Q 922 819 1161 601 
Q 1400 384 1738 384 
Q 2144 384 2425 690 
Q 2706 997 2706 1503 
Q 2706 1984 2436 2262 
Q 2166 2541 1728 2541 
Q 1456 2541 1237 2417 
Q 1019 2294 894 2097 
L 366 2166 
L 809 4519 
L 3088 4519 
L 3088 3981 
L 1259 3981 
L 1013 2750 
Q 1425 3038 1878 3038 
Q 2478 3038 2890 2622 
Q 3303 2206 3303 1553 
Q 3303 931 2941 478 
Q 2500 -78 1738 -78 
Q 1113 -78 717 272 
Q 322 622 266 1200 
z
" transform="scale(0.015625)"/>
       </defs>
       <use xlink:href="#ArialMT-32"/>
       <use xlink:href="#ArialMT-74" transform="translate(55.615234 0)"/>
       <use xlink:href="#ArialMT-6f" transform="translate(83.398438 0)"/>
       <use xlink:href="#ArialMT-31" transform="translate(139.013672 0)"/>
       <use xlink:href="#ArialMT-2e" transform="translate(194.628906 0)"/>
       <use xlink:href="#ArialMT-35" transform="translate(222.412109 0)"/>
       <use xlink:href="#ArialMT-2a" transform="translate(278.027344 0)"/>
      </g>
     </g>
    </g>
    <g id="ytick_3">
     <g id="line2d_13">
      <g>
       <use xlink:href="#mc4ca28c02a" x="36.620312" y="49.455928" style="stroke: #000000; stroke-width: 0.5"/>
      </g>
     </g>
     <g id="text_9">
      <!-- 2to1.3* -->
      <g transform="translate(9.020391 51.782217) scale(0.065 -0.065)">
       <use xlink:href="#ArialMT-32"/>
       <use xlink:href="#ArialMT-74" transform="translate(55.615234 0)"/>
       <use xlink:href="#ArialMT-6f" transform="translate(83.398438 0)"/>
       <use xlink:href="#ArialMT-31" transform="translate(139.013672 0)"/>
       <use xlink:href="#ArialMT-2e" transform="translate(194.628906 0)"/>
       <use xlink:href="#ArialMT-33" transform="translate(222.412109 0)"/>
       <use xlink:href="#ArialMT-2a" transform="translate(278.027344 0)"/>
      </g>
     </g>
    </g>
    <g id="ytick_4">
     <g id="line2d_14">
      <g>
       <use xlink:href="#mc4ca28c02a" x="36.620312" y="58.384671" style="stroke: #000000; stroke-width: 0.5"/>
      </g>
     </g>
     <g id="text_10">
      <!-- 2to1.1* -->
      <g transform="translate(9.020391 60.71096) scale(0.065 -0.065)">
       <use xlink:href="#ArialMT-32"/>
       <use xlink:href="#ArialMT-74" transform="translate(55.615234 0)"/>
       <use xlink:href="#ArialMT-6f" transform="translate(83.398438 0)"/>
       <use xlink:href="#ArialMT-31" transform="translate(139.013672 0)"/>
       <use xlink:href="#ArialMT-2e" transform="translate(194.628906 0)"/>
       <use xlink:href="#ArialMT-31" transform="translate(222.412109 0)"/>
       <use xlink:href="#ArialMT-2a" transform="translate(278.027344 0)"/>
      </g>
     </g>
    </g>
    <g id="ytick_5">
     <g id="line2d_15">
      <g>
       <use xlink:href="#mc4ca28c02a" x="36.620312" y="67.313413" style="stroke: #000000; stroke-width: 0.5"/>
      </g>
     </g>
     <g id="text_11">
      <!-- 2to1.2* -->
      <g transform="translate(9.020391 69.639702) scale(0.065 -0.065)">
       <use xlink:href="#ArialMT-32"/>
       <use xlink:href="#ArialMT-74" transform="translate(55.615234 0)"/>
       <use xlink:href="#ArialMT-6f" transform="translate(83.398438 0)"/>
       <use xlink:href="#ArialMT-31" transform="translate(139.013672 0)"/>
       <use xlink:href="#ArialMT-2e" transform="translate(194.628906 0)"/>
       <use xlink:href="#ArialMT-32" transform="translate(222.412109 0)"/>
       <use xlink:href="#ArialMT-2a" transform="translate(278.027344 0)"/>
      </g>
     </g>
    </g>
    <g id="ytick_6">
     <g id="line2d_16">
      <g>
       <use xlink:href="#mc4ca28c02a" x="36.620312" y="81.599401" style="stroke: #000000; stroke-width: 0.5"/>
      </g>
     </g>
     <g id="text_12">
      <!-- 1to1.2* -->
      <g transform="translate(9.020391 83.92569) scale(0.065 -0.065)">
       <use xlink:href="#ArialMT-31"/>
       <use xlink:href="#ArialMT-74" transform="translate(55.615234 0)"/>
       <use xlink:href="#ArialMT-6f" transform="translate(83.398438 0)"/>
       <use xlink:href="#ArialMT-31" transform="translate(139.013672 0)"/>
       <use xlink:href="#ArialMT-2e" transform="translate(194.628906 0)"/>
       <use xlink:href="#ArialMT-32" transform="translate(222.412109 0)"/>
       <use xlink:href="#ArialMT-2a" transform="translate(278.027344 0)"/>
      </g>
     </g>
    </g>
    <g id="ytick_7">
     <g id="line2d_17">
      <g>
       <use xlink:href="#mc4ca28c02a" x="36.620312" y="90.528143" style="stroke: #000000; stroke-width: 0.5"/>
      </g>
     </g>
     <g id="text_13">
      <!-- 1to1.1* -->
      <g transform="translate(9.020391 92.854432) scale(0.065 -0.065)">
       <use xlink:href="#ArialMT-31"/>
       <use xlink:href="#ArialMT-74" transform="translate(55.615234 0)"/>
       <use xlink:href="#ArialMT-6f" transform="translate(83.398438 0)"/>
       <use xlink:href="#ArialMT-31" transform="translate(139.013672 0)"/>
       <use xlink:href="#ArialMT-2e" transform="translate(194.628906 0)"/>
       <use xlink:href="#ArialMT-31" transform="translate(222.412109 0)"/>
       <use xlink:href="#ArialMT-2a" transform="translate(278.027344 0)"/>
      </g>
     </g>
    </g>
    <g id="ytick_8">
     <g id="line2d_18">
      <g>
       <use xlink:href="#mc4ca28c02a" x="36.620312" y="99.456886" style="stroke: #000000; stroke-width: 0.5"/>
      </g>
     </g>
     <g id="text_14">
      <!-- 1to1.5* -->
      <g transform="translate(9.020391 101.783175) scale(0.065 -0.065)">
       <use xlink:href="#ArialMT-31"/>
       <use xlink:href="#ArialMT-74" transform="translate(55.615234 0)"/>
       <use xlink:href="#ArialMT-6f" transform="translate(83.398438 0)"/>
       <use xlink:href="#ArialMT-31" transform="translate(139.013672 0)"/>
       <use xlink:href="#ArialMT-2e" transform="translate(194.628906 0)"/>
       <use xlink:href="#ArialMT-35" transform="translate(222.412109 0)"/>
       <use xlink:href="#ArialMT-2a" transform="translate(278.027344 0)"/>
      </g>
     </g>
    </g>
    <g id="ytick_9">
     <g id="line2d_19">
      <g>
       <use xlink:href="#mc4ca28c02a" x="36.620312" y="108.385628" style="stroke: #000000; stroke-width: 0.5"/>
      </g>
     </g>
     <g id="text_15">
      <!-- 1to1.3* -->
      <g transform="translate(9.020391 110.711917) scale(0.065 -0.065)">
       <use xlink:href="#ArialMT-31"/>
       <use xlink:href="#ArialMT-74" transform="translate(55.615234 0)"/>
       <use xlink:href="#ArialMT-6f" transform="translate(83.398438 0)"/>
       <use xlink:href="#ArialMT-31" transform="translate(139.013672 0)"/>
       <use xlink:href="#ArialMT-2e" transform="translate(194.628906 0)"/>
       <use xlink:href="#ArialMT-33" transform="translate(222.412109 0)"/>
       <use xlink:href="#ArialMT-2a" transform="translate(278.027344 0)"/>
      </g>
     </g>
    </g>
    <g id="ytick_10">
     <g id="line2d_20">
      <g>
       <use xlink:href="#mc4ca28c02a" x="36.620312" y="117.314371" style="stroke: #000000; stroke-width: 0.5"/>
      </g>
     </g>
     <g id="text_16">
      <!-- 1to1.4* -->
      <g transform="translate(9.020391 119.64066) scale(0.065 -0.065)">
       <use xlink:href="#ArialMT-31"/>
       <use xlink:href="#ArialMT-74" transform="translate(55.615234 0)"/>
       <use xlink:href="#ArialMT-6f" transform="translate(83.398438 0)"/>
       <use xlink:href="#ArialMT-31" transform="translate(139.013672 0)"/>
       <use xlink:href="#ArialMT-2e" transform="translate(194.628906 0)"/>
       <use xlink:href="#ArialMT-34" transform="translate(222.412109 0)"/>
       <use xlink:href="#ArialMT-2a" transform="translate(278.027344 0)"/>
      </g>
     </g>
    </g>
    <g id="ytick_11">
     <g id="line2d_21">
      <g>
       <use xlink:href="#mc4ca28c02a" x="36.620312" y="131.600359" style="stroke: #000000; stroke-width: 0.5"/>
      </g>
     </g>
     <g id="text_17">
      <!-- agar.4* -->
      <g transform="translate(9.019375 133.966257) scale(0.065 -0.065)">
       <defs>
        <path id="ArialMT-67" d="M 319 -275 
L 866 -356 
Q 900 -609 1056 -725 
Q 1266 -881 1628 -881 
Q 2019 -881 2231 -725 
Q 2444 -569 2519 -288 
Q 2563 -116 2559 434 
Q 2191 0 1641 0 
Q 956 0 581 494 
Q 206 988 206 1678 
Q 206 2153 378 2554 
Q 550 2956 876 3175 
Q 1203 3394 1644 3394 
Q 2231 3394 2613 2919 
L 2613 3319 
L 3131 3319 
L 3131 450 
Q 3131 -325 2973 -648 
Q 2816 -972 2473 -1159 
Q 2131 -1347 1631 -1347 
Q 1038 -1347 672 -1080 
Q 306 -813 319 -275 
z
M 784 1719 
Q 784 1066 1043 766 
Q 1303 466 1694 466 
Q 2081 466 2343 764 
Q 2606 1063 2606 1700 
Q 2606 2309 2336 2618 
Q 2066 2928 1684 2928 
Q 1309 2928 1046 2623 
Q 784 2319 784 1719 
z
" transform="scale(0.015625)"/>
       </defs>
       <use xlink:href="#ArialMT-61"/>
       <use xlink:href="#ArialMT-67" transform="translate(55.615234 0)"/>
       <use xlink:href="#ArialMT-61" transform="translate(111.230469 0)"/>
       <use xlink:href="#ArialMT-72" transform="translate(166.845703 0)"/>
       <use xlink:href="#ArialMT-2e" transform="translate(194.646484 0)"/>
       <use xlink:href="#ArialMT-34" transform="translate(222.429688 0)"/>
       <use xlink:href="#ArialMT-2a" transform="translate(278.044922 0)"/>
      </g>
     </g>
    </g>
    <g id="ytick_12">
     <g id="line2d_22">
      <g>
       <use xlink:href="#mc4ca28c02a" x="36.620312" y="140.529101" style="stroke: #000000; stroke-width: 0.5"/>
      </g>
     </g>
     <g id="text_18">
      <!-- agar.1* -->
      <g transform="translate(9.019375 142.894999) scale(0.065 -0.065)">
       <use xlink:href="#ArialMT-61"/>
       <use xlink:href="#ArialMT-67" transform="translate(55.615234 0)"/>
       <use xlink:href="#ArialMT-61" transform="translate(111.230469 0)"/>
       <use xlink:href="#ArialMT-72" transform="translate(166.845703 0)"/>
       <use xlink:href="#ArialMT-2e" transform="translate(194.646484 0)"/>
       <use xlink:href="#ArialMT-31" transform="translate(222.429688 0)"/>
       <use xlink:href="#ArialMT-2a" transform="translate(278.044922 0)"/>
      </g>
     </g>
    </g>
    <g id="ytick_13">
     <g id="line2d_23">
      <g>
       <use xlink:href="#mc4ca28c02a" x="36.620312" y="149.457843" style="stroke: #000000; stroke-width: 0.5"/>
      </g>
     </g>
     <g id="text_19">
      <!-- agar.2 -->
      <g transform="translate(11.549297 151.793781) scale(0.065 -0.065)">
       <use xlink:href="#ArialMT-61"/>
       <use xlink:href="#ArialMT-67" transform="translate(55.615234 0)"/>
       <use xlink:href="#ArialMT-61" transform="translate(111.230469 0)"/>
       <use xlink:href="#ArialMT-72" transform="translate(166.845703 0)"/>
       <use xlink:href="#ArialMT-2e" transform="translate(194.646484 0)"/>
       <use xlink:href="#ArialMT-32" transform="translate(222.429688 0)"/>
      </g>
     </g>
    </g>
    <g id="ytick_14">
     <g id="line2d_24">
      <g>
       <use xlink:href="#mc4ca28c02a" x="36.620312" y="158.386586" style="stroke: #000000; stroke-width: 0.5"/>
      </g>
     </g>
     <g id="text_20">
      <!-- agar.3 -->
      <g transform="translate(11.549297 160.722523) scale(0.065 -0.065)">
       <use xlink:href="#ArialMT-61"/>
       <use xlink:href="#ArialMT-67" transform="translate(55.615234 0)"/>
       <use xlink:href="#ArialMT-61" transform="translate(111.230469 0)"/>
       <use xlink:href="#ArialMT-72" transform="translate(166.845703 0)"/>
       <use xlink:href="#ArialMT-2e" transform="translate(194.646484 0)"/>
       <use xlink:href="#ArialMT-33" transform="translate(222.429688 0)"/>
      </g>
     </g>
    </g>
    <g id="ytick_15">
     <g id="line2d_25">
      <g>
       <use xlink:href="#mc4ca28c02a" x="36.620312" y="167.315328" style="stroke: #000000; stroke-width: 0.5"/>
      </g>
     </g>
     <g id="text_21">
      <!-- agar.5 -->
      <g transform="translate(11.549297 169.610133) scale(0.065 -0.065)">
       <use xlink:href="#ArialMT-61"/>
       <use xlink:href="#ArialMT-67" transform="translate(55.615234 0)"/>
       <use xlink:href="#ArialMT-61" transform="translate(111.230469 0)"/>
       <use xlink:href="#ArialMT-72" transform="translate(166.845703 0)"/>
       <use xlink:href="#ArialMT-2e" transform="translate(194.646484 0)"/>
       <use xlink:href="#ArialMT-35" transform="translate(222.429688 0)"/>
      </g>
     </g>
    </g>
    <g id="ytick_16">
     <g id="line2d_26">
      <g>
       <use xlink:href="#mc4ca28c02a" x="36.620312" y="181.601316" style="stroke: #000000; stroke-width: 0.5"/>
      </g>
     </g>
     <g id="text_22">
      <!-- Green.5* -->
      <g transform="translate(3.606094 183.927605) scale(0.065 -0.065)">
       <defs>
        <path id="ArialMT-47" d="M 2638 1797 
L 2638 2334 
L 4578 2338 
L 4578 638 
Q 4131 281 3656 101 
Q 3181 -78 2681 -78 
Q 2006 -78 1454 211 
Q 903 500 622 1047 
Q 341 1594 341 2269 
Q 341 2938 620 3517 
Q 900 4097 1425 4378 
Q 1950 4659 2634 4659 
Q 3131 4659 3532 4498 
Q 3934 4338 4162 4050 
Q 4391 3763 4509 3300 
L 3963 3150 
Q 3859 3500 3706 3700 
Q 3553 3900 3268 4020 
Q 2984 4141 2638 4141 
Q 2222 4141 1919 4014 
Q 1616 3888 1430 3681 
Q 1244 3475 1141 3228 
Q 966 2803 966 2306 
Q 966 1694 1177 1281 
Q 1388 869 1791 669 
Q 2194 469 2647 469 
Q 3041 469 3416 620 
Q 3791 772 3984 944 
L 3984 1797 
L 2638 1797 
z
" transform="scale(0.015625)"/>
       </defs>
       <use xlink:href="#ArialMT-47"/>
       <use xlink:href="#ArialMT-72" transform="translate(77.783203 0)"/>
       <use xlink:href="#ArialMT-65" transform="translate(111.083984 0)"/>
       <use xlink:href="#ArialMT-65" transform="translate(166.699219 0)"/>
       <use xlink:href="#ArialMT-6e" transform="translate(222.314453 0)"/>
       <use xlink:href="#ArialMT-2e" transform="translate(277.929688 0)"/>
       <use xlink:href="#ArialMT-35" transform="translate(305.712891 0)"/>
       <use xlink:href="#ArialMT-2a" transform="translate(361.328125 0)"/>
      </g>
     </g>
    </g>
    <g id="ytick_17">
     <g id="line2d_27">
      <g>
       <use xlink:href="#mc4ca28c02a" x="36.620312" y="190.530059" style="stroke: #000000; stroke-width: 0.5"/>
      </g>
     </g>
     <g id="text_23">
      <!-- Green.2* -->
      <g transform="translate(3.606094 192.856348) scale(0.065 -0.065)">
       <use xlink:href="#ArialMT-47"/>
       <use xlink:href="#ArialMT-72" transform="translate(77.783203 0)"/>
       <use xlink:href="#ArialMT-65" transform="translate(111.083984 0)"/>
       <use xlink:href="#ArialMT-65" transform="translate(166.699219 0)"/>
       <use xlink:href="#ArialMT-6e" transform="translate(222.314453 0)"/>
       <use xlink:href="#ArialMT-2e" transform="translate(277.929688 0)"/>
       <use xlink:href="#ArialMT-32" transform="translate(305.712891 0)"/>
       <use xlink:href="#ArialMT-2a" transform="translate(361.328125 0)"/>
      </g>
     </g>
    </g>
    <g id="ytick_18">
     <g id="line2d_28">
      <g>
       <use xlink:href="#mc4ca28c02a" x="36.620312" y="199.458801" style="stroke: #000000; stroke-width: 0.5"/>
      </g>
     </g>
     <g id="text_24">
      <!-- Green.1* -->
      <g transform="translate(3.606094 201.78509) scale(0.065 -0.065)">
       <use xlink:href="#ArialMT-47"/>
       <use xlink:href="#ArialMT-72" transform="translate(77.783203 0)"/>
       <use xlink:href="#ArialMT-65" transform="translate(111.083984 0)"/>
       <use xlink:href="#ArialMT-65" transform="translate(166.699219 0)"/>
       <use xlink:href="#ArialMT-6e" transform="translate(222.314453 0)"/>
       <use xlink:href="#ArialMT-2e" transform="translate(277.929688 0)"/>
       <use xlink:href="#ArialMT-31" transform="translate(305.712891 0)"/>
       <use xlink:href="#ArialMT-2a" transform="translate(361.328125 0)"/>
      </g>
     </g>
    </g>
    <g id="ytick_19">
     <g id="line2d_29">
      <g>
       <use xlink:href="#mc4ca28c02a" x="36.620312" y="208.387544" style="stroke: #000000; stroke-width: 0.5"/>
      </g>
     </g>
     <g id="text_25">
      <!-- Green.3* -->
      <g transform="translate(3.606094 210.713833) scale(0.065 -0.065)">
       <use xlink:href="#ArialMT-47"/>
       <use xlink:href="#ArialMT-72" transform="translate(77.783203 0)"/>
       <use xlink:href="#ArialMT-65" transform="translate(111.083984 0)"/>
       <use xlink:href="#ArialMT-65" transform="translate(166.699219 0)"/>
       <use xlink:href="#ArialMT-6e" transform="translate(222.314453 0)"/>
       <use xlink:href="#ArialMT-2e" transform="translate(277.929688 0)"/>
       <use xlink:href="#ArialMT-33" transform="translate(305.712891 0)"/>
       <use xlink:href="#ArialMT-2a" transform="translate(361.328125 0)"/>
      </g>
     </g>
    </g>
    <g id="ytick_20">
     <g id="line2d_30">
      <g>
       <use xlink:href="#mc4ca28c02a" x="36.620312" y="217.316286" style="stroke: #000000; stroke-width: 0.5"/>
      </g>
     </g>
     <g id="text_26">
      <!-- Green.4* -->
      <g transform="translate(3.606094 219.642575) scale(0.065 -0.065)">
       <use xlink:href="#ArialMT-47"/>
       <use xlink:href="#ArialMT-72" transform="translate(77.783203 0)"/>
       <use xlink:href="#ArialMT-65" transform="translate(111.083984 0)"/>
       <use xlink:href="#ArialMT-65" transform="translate(166.699219 0)"/>
       <use xlink:href="#ArialMT-6e" transform="translate(222.314453 0)"/>
       <use xlink:href="#ArialMT-2e" transform="translate(277.929688 0)"/>
       <use xlink:href="#ArialMT-34" transform="translate(305.712891 0)"/>
       <use xlink:href="#ArialMT-2a" transform="translate(361.328125 0)"/>
      </g>
     </g>
    </g>
    <g id="ytick_21">
     <g id="line2d_31">
      <g>
       <use xlink:href="#mc4ca28c02a" x="36.620312" y="231.602274" style="stroke: #000000; stroke-width: 0.5"/>
      </g>
     </g>
     <g id="text_27">
      <!-- white.4* -->
      <g transform="translate(6.496562 233.928563) scale(0.065 -0.065)">
       <defs>
        <path id="ArialMT-77" d="M 1034 0 
L 19 3319 
L 600 3319 
L 1128 1403 
L 1325 691 
Q 1338 744 1497 1375 
L 2025 3319 
L 2603 3319 
L 3100 1394 
L 3266 759 
L 3456 1400 
L 4025 3319 
L 4572 3319 
L 3534 0 
L 2950 0 
L 2422 1988 
L 2294 2553 
L 1622 0 
L 1034 0 
z
" transform="scale(0.015625)"/>
        <path id="ArialMT-68" d="M 422 0 
L 422 4581 
L 984 4581 
L 984 2938 
Q 1378 3394 1978 3394 
Q 2347 3394 2619 3248 
Q 2891 3103 3008 2847 
Q 3125 2591 3125 2103 
L 3125 0 
L 2563 0 
L 2563 2103 
Q 2563 2525 2380 2717 
Q 2197 2909 1863 2909 
Q 1613 2909 1392 2779 
Q 1172 2650 1078 2428 
Q 984 2206 984 1816 
L 984 0 
L 422 0 
z
" transform="scale(0.015625)"/>
       </defs>
       <use xlink:href="#ArialMT-77"/>
       <use xlink:href="#ArialMT-68" transform="translate(72.216797 0)"/>
       <use xlink:href="#ArialMT-69" transform="translate(127.832031 0)"/>
       <use xlink:href="#ArialMT-74" transform="translate(150.048828 0)"/>
       <use xlink:href="#ArialMT-65" transform="translate(177.832031 0)"/>
       <use xlink:href="#ArialMT-2e" transform="translate(233.447266 0)"/>
       <use xlink:href="#ArialMT-34" transform="translate(261.230469 0)"/>
       <use xlink:href="#ArialMT-2a" transform="translate(316.845703 0)"/>
      </g>
     </g>
    </g>
    <g id="ytick_22">
     <g id="line2d_32">
      <g>
       <use xlink:href="#mc4ca28c02a" x="36.620312" y="240.531016" style="stroke: #000000; stroke-width: 0.5"/>
      </g>
     </g>
     <g id="text_28">
      <!-- white.1* -->
      <g transform="translate(6.496562 242.857305) scale(0.065 -0.065)">
       <use xlink:href="#ArialMT-77"/>
       <use xlink:href="#ArialMT-68" transform="translate(72.216797 0)"/>
       <use xlink:href="#ArialMT-69" transform="translate(127.832031 0)"/>
       <use xlink:href="#ArialMT-74" transform="translate(150.048828 0)"/>
       <use xlink:href="#ArialMT-65" transform="translate(177.832031 0)"/>
       <use xlink:href="#ArialMT-2e" transform="translate(233.447266 0)"/>
       <use xlink:href="#ArialMT-31" transform="translate(261.230469 0)"/>
       <use xlink:href="#ArialMT-2a" transform="translate(316.845703 0)"/>
      </g>
     </g>
    </g>
    <g id="ytick_23">
     <g id="line2d_33">
      <g>
       <use xlink:href="#mc4ca28c02a" x="36.620312" y="249.459759" style="stroke: #000000; stroke-width: 0.5"/>
      </g>
     </g>
     <g id="text_29">
      <!-- white.5* -->
      <g transform="translate(6.496562 251.786048) scale(0.065 -0.065)">
       <use xlink:href="#ArialMT-77"/>
       <use xlink:href="#ArialMT-68" transform="translate(72.216797 0)"/>
       <use xlink:href="#ArialMT-69" transform="translate(127.832031 0)"/>
       <use xlink:href="#ArialMT-74" transform="translate(150.048828 0)"/>
       <use xlink:href="#ArialMT-65" transform="translate(177.832031 0)"/>
       <use xlink:href="#ArialMT-2e" transform="translate(233.447266 0)"/>
       <use xlink:href="#ArialMT-35" transform="translate(261.230469 0)"/>
       <use xlink:href="#ArialMT-2a" transform="translate(316.845703 0)"/>
      </g>
     </g>
    </g>
    <g id="ytick_24">
     <g id="line2d_34">
      <g>
       <use xlink:href="#mc4ca28c02a" x="36.620312" y="258.388501" style="stroke: #000000; stroke-width: 0.5"/>
      </g>
     </g>
     <g id="text_30">
      <!-- white.3* -->
      <g transform="translate(6.496562 260.71479) scale(0.065 -0.065)">
       <use xlink:href="#ArialMT-77"/>
       <use xlink:href="#ArialMT-68" transform="translate(72.216797 0)"/>
       <use xlink:href="#ArialMT-69" transform="translate(127.832031 0)"/>
       <use xlink:href="#ArialMT-74" transform="translate(150.048828 0)"/>
       <use xlink:href="#ArialMT-65" transform="translate(177.832031 0)"/>
       <use xlink:href="#ArialMT-2e" transform="translate(233.447266 0)"/>
       <use xlink:href="#ArialMT-33" transform="translate(261.230469 0)"/>
       <use xlink:href="#ArialMT-2a" transform="translate(316.845703 0)"/>
      </g>
     </g>
    </g>
    <g id="ytick_25">
     <g id="line2d_35">
      <g>
       <use xlink:href="#mc4ca28c02a" x="36.620312" y="272.674489" style="stroke: #000000; stroke-width: 0.5"/>
      </g>
     </g>
     <g id="text_31">
      <!-- black.3* -->
      <g transform="translate(6.496562 275.000778) scale(0.065 -0.065)">
       <defs>
        <path id="ArialMT-62" d="M 941 0 
L 419 0 
L 419 4581 
L 981 4581 
L 981 2947 
Q 1338 3394 1891 3394 
Q 2197 3394 2470 3270 
Q 2744 3147 2920 2923 
Q 3097 2700 3197 2384 
Q 3297 2069 3297 1709 
Q 3297 856 2875 390 
Q 2453 -75 1863 -75 
Q 1275 -75 941 416 
L 941 0 
z
M 934 1684 
Q 934 1088 1097 822 
Q 1363 388 1816 388 
Q 2184 388 2453 708 
Q 2722 1028 2722 1663 
Q 2722 2313 2464 2622 
Q 2206 2931 1841 2931 
Q 1472 2931 1203 2611 
Q 934 2291 934 1684 
z
" transform="scale(0.015625)"/>
        <path id="ArialMT-6c" d="M 409 0 
L 409 4581 
L 972 4581 
L 972 0 
L 409 0 
z
" transform="scale(0.015625)"/>
        <path id="ArialMT-6b" d="M 425 0 
L 425 4581 
L 988 4581 
L 988 1969 
L 2319 3319 
L 3047 3319 
L 1778 2088 
L 3175 0 
L 2481 0 
L 1384 1697 
L 988 1316 
L 988 0 
L 425 0 
z
" transform="scale(0.015625)"/>
       </defs>
       <use xlink:href="#ArialMT-62"/>
       <use xlink:href="#ArialMT-6c" transform="translate(55.615234 0)"/>
       <use xlink:href="#ArialMT-61" transform="translate(77.832031 0)"/>
       <use xlink:href="#ArialMT-63" transform="translate(133.447266 0)"/>
       <use xlink:href="#ArialMT-6b" transform="translate(183.447266 0)"/>
       <use xlink:href="#ArialMT-2e" transform="translate(233.447266 0)"/>
       <use xlink:href="#ArialMT-33" transform="translate(261.230469 0)"/>
       <use xlink:href="#ArialMT-2a" transform="translate(316.845703 0)"/>
      </g>
     </g>
    </g>
    <g id="ytick_26">
     <g id="line2d_36">
      <g>
       <use xlink:href="#mc4ca28c02a" x="36.620312" y="281.603232" style="stroke: #000000; stroke-width: 0.5"/>
      </g>
     </g>
     <g id="text_32">
      <!-- black.4* -->
      <g transform="translate(6.496562 283.929521) scale(0.065 -0.065)">
       <use xlink:href="#ArialMT-62"/>
       <use xlink:href="#ArialMT-6c" transform="translate(55.615234 0)"/>
       <use xlink:href="#ArialMT-61" transform="translate(77.832031 0)"/>
       <use xlink:href="#ArialMT-63" transform="translate(133.447266 0)"/>
       <use xlink:href="#ArialMT-6b" transform="translate(183.447266 0)"/>
       <use xlink:href="#ArialMT-2e" transform="translate(233.447266 0)"/>
       <use xlink:href="#ArialMT-34" transform="translate(261.230469 0)"/>
       <use xlink:href="#ArialMT-2a" transform="translate(316.845703 0)"/>
      </g>
     </g>
    </g>
    <g id="ytick_27">
     <g id="line2d_37">
      <g>
       <use xlink:href="#mc4ca28c02a" x="36.620312" y="290.531974" style="stroke: #000000; stroke-width: 0.5"/>
      </g>
     </g>
     <g id="text_33">
      <!-- Black.2 -->
      <g transform="translate(8.305391 292.858263) scale(0.065 -0.065)">
       <defs>
        <path id="ArialMT-42" d="M 469 0 
L 469 4581 
L 2188 4581 
Q 2713 4581 3030 4442 
Q 3347 4303 3526 4014 
Q 3706 3725 3706 3409 
Q 3706 3116 3547 2856 
Q 3388 2597 3066 2438 
Q 3481 2316 3704 2022 
Q 3928 1728 3928 1328 
Q 3928 1006 3792 729 
Q 3656 453 3456 303 
Q 3256 153 2954 76 
Q 2653 0 2216 0 
L 469 0 
z
M 1075 2656 
L 2066 2656 
Q 2469 2656 2644 2709 
Q 2875 2778 2992 2937 
Q 3109 3097 3109 3338 
Q 3109 3566 3000 3739 
Q 2891 3913 2687 3977 
Q 2484 4041 1991 4041 
L 1075 4041 
L 1075 2656 
z
M 1075 541 
L 2216 541 
Q 2509 541 2628 563 
Q 2838 600 2978 687 
Q 3119 775 3209 942 
Q 3300 1109 3300 1328 
Q 3300 1584 3169 1773 
Q 3038 1963 2805 2039 
Q 2572 2116 2134 2116 
L 1075 2116 
L 1075 541 
z
" transform="scale(0.015625)"/>
       </defs>
       <use xlink:href="#ArialMT-42"/>
       <use xlink:href="#ArialMT-6c" transform="translate(66.699219 0)"/>
       <use xlink:href="#ArialMT-61" transform="translate(88.916016 0)"/>
       <use xlink:href="#ArialMT-63" transform="translate(144.53125 0)"/>
       <use xlink:href="#ArialMT-6b" transform="translate(194.53125 0)"/>
       <use xlink:href="#ArialMT-2e" transform="translate(244.53125 0)"/>
       <use xlink:href="#ArialMT-32" transform="translate(272.314453 0)"/>
      </g>
     </g>
    </g>
    <g id="ytick_28">
     <g id="line2d_38">
      <g>
       <use xlink:href="#mc4ca28c02a" x="36.620312" y="304.817962" style="stroke: #000000; stroke-width: 0.5"/>
      </g>
     </g>
     <g id="text_34">
      <!-- 0.5to1.5* -->
      <g transform="translate(3.6 307.144251) scale(0.065 -0.065)">
       <use xlink:href="#ArialMT-30"/>
       <use xlink:href="#ArialMT-2e" transform="translate(55.615234 0)"/>
       <use xlink:href="#ArialMT-35" transform="translate(83.398438 0)"/>
       <use xlink:href="#ArialMT-74" transform="translate(139.013672 0)"/>
       <use xlink:href="#ArialMT-6f" transform="translate(166.796875 0)"/>
       <use xlink:href="#ArialMT-31" transform="translate(222.412109 0)"/>
       <use xlink:href="#ArialMT-2e" transform="translate(278.027344 0)"/>
       <use xlink:href="#ArialMT-35" transform="translate(305.810547 0)"/>
       <use xlink:href="#ArialMT-2a" transform="translate(361.425781 0)"/>
      </g>
     </g>
    </g>
    <g id="ytick_29">
     <g id="line2d_39">
      <g>
       <use xlink:href="#mc4ca28c02a" x="36.620312" y="313.746704" style="stroke: #000000; stroke-width: 0.5"/>
      </g>
     </g>
     <g id="text_35">
      <!-- 0.5to1.3* -->
      <g transform="translate(3.6 316.072994) scale(0.065 -0.065)">
       <use xlink:href="#ArialMT-30"/>
       <use xlink:href="#ArialMT-2e" transform="translate(55.615234 0)"/>
       <use xlink:href="#ArialMT-35" transform="translate(83.398438 0)"/>
       <use xlink:href="#ArialMT-74" transform="translate(139.013672 0)"/>
       <use xlink:href="#ArialMT-6f" transform="translate(166.796875 0)"/>
       <use xlink:href="#ArialMT-31" transform="translate(222.412109 0)"/>
       <use xlink:href="#ArialMT-2e" transform="translate(278.027344 0)"/>
       <use xlink:href="#ArialMT-33" transform="translate(305.810547 0)"/>
       <use xlink:href="#ArialMT-2a" transform="translate(361.425781 0)"/>
      </g>
     </g>
    </g>
    <g id="ytick_30">
     <g id="line2d_40">
      <g>
       <use xlink:href="#mc4ca28c02a" x="36.620312" y="322.675447" style="stroke: #000000; stroke-width: 0.5"/>
      </g>
     </g>
     <g id="text_36">
      <!-- 0.5to1.7* -->
      <g transform="translate(3.6 325.001736) scale(0.065 -0.065)">
       <defs>
        <path id="ArialMT-37" d="M 303 3981 
L 303 4522 
L 3269 4522 
L 3269 4084 
Q 2831 3619 2401 2847 
Q 1972 2075 1738 1259 
Q 1569 684 1522 0 
L 944 0 
Q 953 541 1156 1306 
Q 1359 2072 1739 2783 
Q 2119 3494 2547 3981 
L 303 3981 
z
" transform="scale(0.015625)"/>
       </defs>
       <use xlink:href="#ArialMT-30"/>
       <use xlink:href="#ArialMT-2e" transform="translate(55.615234 0)"/>
       <use xlink:href="#ArialMT-35" transform="translate(83.398438 0)"/>
       <use xlink:href="#ArialMT-74" transform="translate(139.013672 0)"/>
       <use xlink:href="#ArialMT-6f" transform="translate(166.796875 0)"/>
       <use xlink:href="#ArialMT-31" transform="translate(222.412109 0)"/>
       <use xlink:href="#ArialMT-2e" transform="translate(278.027344 0)"/>
       <use xlink:href="#ArialMT-37" transform="translate(305.810547 0)"/>
       <use xlink:href="#ArialMT-2a" transform="translate(361.425781 0)"/>
      </g>
     </g>
    </g>
    <g id="ytick_31">
     <g id="line2d_41">
      <g>
       <use xlink:href="#mc4ca28c02a" x="36.620312" y="331.604189" style="stroke: #000000; stroke-width: 0.5"/>
      </g>
     </g>
     <g id="text_37">
      <!-- 0.5to1.4* -->
      <g transform="translate(3.6 333.930478) scale(0.065 -0.065)">
       <use xlink:href="#ArialMT-30"/>
       <use xlink:href="#ArialMT-2e" transform="translate(55.615234 0)"/>
       <use xlink:href="#ArialMT-35" transform="translate(83.398438 0)"/>
       <use xlink:href="#ArialMT-74" transform="translate(139.013672 0)"/>
       <use xlink:href="#ArialMT-6f" transform="translate(166.796875 0)"/>
       <use xlink:href="#ArialMT-31" transform="translate(222.412109 0)"/>
       <use xlink:href="#ArialMT-2e" transform="translate(278.027344 0)"/>
       <use xlink:href="#ArialMT-34" transform="translate(305.810547 0)"/>
       <use xlink:href="#ArialMT-2a" transform="translate(361.425781 0)"/>
      </g>
     </g>
    </g>
    <g id="ytick_32">
     <g id="line2d_42">
      <g>
       <use xlink:href="#mc4ca28c02a" x="36.620312" y="340.532932" style="stroke: #000000; stroke-width: 0.5"/>
      </g>
     </g>
     <g id="text_38">
      <!-- 0.5to1.2* -->
      <g transform="translate(3.6 342.859221) scale(0.065 -0.065)">
       <use xlink:href="#ArialMT-30"/>
       <use xlink:href="#ArialMT-2e" transform="translate(55.615234 0)"/>
       <use xlink:href="#ArialMT-35" transform="translate(83.398438 0)"/>
       <use xlink:href="#ArialMT-74" transform="translate(139.013672 0)"/>
       <use xlink:href="#ArialMT-6f" transform="translate(166.796875 0)"/>
       <use xlink:href="#ArialMT-31" transform="translate(222.412109 0)"/>
       <use xlink:href="#ArialMT-2e" transform="translate(278.027344 0)"/>
       <use xlink:href="#ArialMT-32" transform="translate(305.810547 0)"/>
       <use xlink:href="#ArialMT-2a" transform="translate(361.425781 0)"/>
      </g>
     </g>
    </g>
   </g>
   <g id="line2d_43">
    <path d="M 45.055959 31.598443 
L 83.348137 31.598443 
" clip-path="url(#paad38027fb)" style="fill: none; stroke: #e41a1c; stroke-width: 1.2; stroke-linecap: round"/>
   </g>
   <g id="line2d_44">
    <path d="M 81.458222 40.527186 
L 117.264863 40.527186 
" clip-path="url(#paad38027fb)" style="fill: none; stroke: #e41a1c; stroke-width: 1.2; stroke-linecap: round"/>
   </g>
   <g id="line2d_45">
    <path d="M 94.163912 49.455928 
L 119.293408 49.455928 
" clip-path="url(#paad38027fb)" style="fill: none; stroke: #e41a1c; stroke-width: 1.2; stroke-linecap: round"/>
   </g>
   <g id="line2d_46">
    <path d="M 97.514539 58.384671 
L 125.28284 58.384671 
" clip-path="url(#paad38027fb)" style="fill: none; stroke: #e41a1c; stroke-width: 1.2; stroke-linecap: round"/>
   </g>
   <g id="line2d_47">
    <path d="M 139.543973 67.313413 
L 164.697565 67.313413 
" clip-path="url(#paad38027fb)" style="fill: none; stroke: #e41a1c; stroke-width: 1.2; stroke-linecap: round"/>
   </g>
   <g id="line2d_48">
    <path d="M 131.317769 81.599401 
L 151.276974 81.599401 
" clip-path="url(#paad38027fb)" style="fill: none; stroke: #377eb8; stroke-width: 1.2; stroke-linecap: round"/>
   </g>
   <g id="line2d_49">
    <path d="M 143.652053 90.528143 
L 169.720784 90.528143 
" clip-path="url(#paad38027fb)" style="fill: none; stroke: #377eb8; stroke-width: 1.2; stroke-linecap: round"/>
   </g>
   <g id="line2d_50">
    <path d="M 153.846138 99.456886 
L 172.482329 99.456886 
" clip-path="url(#paad38027fb)" style="fill: none; stroke: #377eb8; stroke-width: 1.2; stroke-linecap: round"/>
   </g>
   <g id="line2d_51">
    <path d="M 158.026776 108.385628 
L 177.422347 108.385628 
" clip-path="url(#paad38027fb)" style="fill: none; stroke: #377eb8; stroke-width: 1.2; stroke-linecap: round"/>
   </g>
   <g id="line2d_52">
    <path d="M 166.971775 117.314371 
L 186.318918 117.314371 
" clip-path="url(#paad38027fb)" style="fill: none; stroke: #377eb8; stroke-width: 1.2; stroke-linecap: round"/>
   </g>
   <g id="line2d_53">
    <path d="M 173.679467 131.600359 
L 187.590521 131.600359 
" clip-path="url(#paad38027fb)" style="fill: none; stroke: #4daf4a; stroke-width: 1.2; stroke-linecap: round"/>
   </g>
   <g id="line2d_54">
    <path d="M 176.727952 140.529101 
L 198.053962 140.529101 
" clip-path="url(#paad38027fb)" style="fill: none; stroke: #4daf4a; stroke-width: 1.2; stroke-linecap: round"/>
   </g>
   <g id="line2d_55">
    <path d="M 187.899489 149.457843 
L 205.042605 149.457843 
" clip-path="url(#paad38027fb)" style="fill: none; stroke: #4daf4a; stroke-width: 1.2; stroke-linecap: round"/>
   </g>
   <g id="line2d_56">
    <path d="M 189.394901 158.386586 
L 212.935974 158.386586 
" clip-path="url(#paad38027fb)" style="fill: none; stroke: #4daf4a; stroke-width: 1.2; stroke-linecap: round"/>
   </g>
   <g id="line2d_57">
    <path d="M 193.416461 167.315328 
L 213.768888 167.315328 
" clip-path="url(#paad38027fb)" style="fill: none; stroke: #4daf4a; stroke-width: 1.2; stroke-linecap: round"/>
   </g>
   <g id="line2d_58">
    <path d="M 73.690323 181.601316 
L 90.719294 181.601316 
" clip-path="url(#paad38027fb)" style="fill: none; stroke: #228b22; stroke-width: 1.2; stroke-linecap: round"/>
   </g>
   <g id="line2d_59">
    <path d="M 137.563478 190.530059 
L 153.968793 190.530059 
" clip-path="url(#paad38027fb)" style="fill: none; stroke: #228b22; stroke-width: 1.2; stroke-linecap: round"/>
   </g>
   <g id="line2d_60">
    <path d="M 167.803417 199.458801 
L 181.867947 199.458801 
" clip-path="url(#paad38027fb)" style="fill: none; stroke: #228b22; stroke-width: 1.2; stroke-linecap: round"/>
   </g>
   <g id="line2d_61">
    <path d="M 170.439101 208.387544 
L 184.731394 208.387544 
" clip-path="url(#paad38027fb)" style="fill: none; stroke: #228b22; stroke-width: 1.2; stroke-linecap: round"/>
   </g>
   <g id="line2d_62">
    <path d="M 178.068921 217.316286 
L 193.561844 217.316286 
" clip-path="url(#paad38027fb)" style="fill: none; stroke: #228b22; stroke-width: 1.2; stroke-linecap: round"/>
   </g>
   <g id="line2d_63">
    <path d="M 119.925309 231.602274 
L 149.5539 231.602274 
" clip-path="url(#paad38027fb)" style="fill: none; stroke: #999999; stroke-width: 1.2; stroke-linecap: round"/>
   </g>
   <g id="line2d_64">
    <path d="M 141.945734 240.531016 
L 155.677684 240.531016 
" clip-path="url(#paad38027fb)" style="fill: none; stroke: #999999; stroke-width: 1.2; stroke-linecap: round"/>
   </g>
   <g id="line2d_65">
    <path d="M 147.41141 249.459759 
L 168.271841 249.459759 
" clip-path="url(#paad38027fb)" style="fill: none; stroke: #999999; stroke-width: 1.2; stroke-linecap: round"/>
   </g>
   <g id="line2d_66">
    <path d="M 154.611159 258.388501 
L 173.519059 258.388501 
" clip-path="url(#paad38027fb)" style="fill: none; stroke: #999999; stroke-width: 1.2; stroke-linecap: round"/>
   </g>
   <g id="line2d_67">
    <path d="M 150.566761 272.674489 
L 177.236966 272.674489 
" clip-path="url(#paad38027fb)" style="fill: none; stroke: #333333; stroke-width: 1.2; stroke-linecap: round"/>
   </g>
   <g id="line2d_68">
    <path d="M 163.194025 281.603232 
L 177.562799 281.603232 
" clip-path="url(#paad38027fb)" style="fill: none; stroke: #333333; stroke-width: 1.2; stroke-linecap: round"/>
   </g>
   <g id="line2d_69">
    <path d="M 189.423602 290.531974 
L 204.025708 290.531974 
" clip-path="url(#paad38027fb)" style="fill: none; stroke: #333333; stroke-width: 1.2; stroke-linecap: round"/>
   </g>
   <g id="line2d_70">
    <path d="M 102.538287 304.817962 
L 125.055069 304.817962 
" clip-path="url(#paad38027fb)" style="fill: none; stroke: #e67e22; stroke-width: 1.2; stroke-linecap: round"/>
   </g>
   <g id="line2d_71">
    <path d="M 117.727101 313.746704 
L 142.406164 313.746704 
" clip-path="url(#paad38027fb)" style="fill: none; stroke: #e67e22; stroke-width: 1.2; stroke-linecap: round"/>
   </g>
   <g id="line2d_72">
    <path d="M 117.815357 322.675447 
L 147.489151 322.675447 
" clip-path="url(#paad38027fb)" style="fill: none; stroke: #e67e22; stroke-width: 1.2; stroke-linecap: round"/>
   </g>
   <g id="line2d_73">
    <path d="M 150.164589 331.604189 
L 171.608777 331.604189 
" clip-path="url(#paad38027fb)" style="fill: none; stroke: #e67e22; stroke-width: 1.2; stroke-linecap: round"/>
   </g>
   <g id="line2d_74">
    <path d="M 152.571556 340.532932 
L 176.187891 340.532932 
" clip-path="url(#paad38027fb)" style="fill: none; stroke: #e67e22; stroke-width: 1.2; stroke-linecap: round"/>
   </g>
   <g id="patch_3">
    <path d="M 36.620312 355.979656 
L 36.620312 16.151719 
" style="fill: none; stroke: #000000; stroke-width: 0.5; stroke-linejoin: miter; stroke-linecap: square"/>
   </g>
   <g id="patch_4">
    <path d="M 222.204534 355.979656 
L 222.204534 16.151719 
" style="fill: none; stroke: #000000; stroke-width: 0.5; stroke-linejoin: miter; stroke-linecap: square"/>
   </g>
   <g id="patch_5">
    <path d="M 36.620312 355.979656 
L 222.204534 355.979656 
" style="fill: none; stroke: #000000; stroke-width: 0.5; stroke-linejoin: miter; stroke-linecap: square"/>
   </g>
   <g id="patch_6">
    <path d="M 36.620312 16.151719 
L 222.204534 16.151719 
" style="fill: none; stroke: #000000; stroke-width: 0.5; stroke-linejoin: miter; stroke-linecap: square"/>
   </g>
   <g id="text_39">
    <!-- 2:1 -->
    <g style="fill: #e41a1c" transform="translate(219.539817 51.14085) scale(0.065 -0.065)">
     <defs>
      <path id="Arial-BoldMT-32" d="M 3238 816 
L 3238 0 
L 159 0 
Q 209 463 459 877 
Q 709 1291 1447 1975 
Q 2041 2528 2175 2725 
Q 2356 2997 2356 3263 
Q 2356 3556 2198 3714 
Q 2041 3872 1763 3872 
Q 1488 3872 1325 3706 
Q 1163 3541 1138 3156 
L 263 3244 
Q 341 3969 753 4284 
Q 1166 4600 1784 4600 
Q 2463 4600 2850 4234 
Q 3238 3869 3238 3325 
Q 3238 3016 3127 2736 
Q 3016 2456 2775 2150 
Q 2616 1947 2200 1565 
Q 1784 1184 1673 1059 
Q 1563 934 1494 816 
L 3238 816 
z
" transform="scale(0.015625)"/>
      <path id="Arial-BoldMT-3a" d="M 628 2441 
L 628 3319 
L 1506 3319 
L 1506 2441 
L 628 2441 
z
M 628 0 
L 628 878 
L 1506 878 
L 1506 0 
L 628 0 
z
" transform="scale(0.015625)"/>
      <path id="Arial-BoldMT-31" d="M 2519 0 
L 1641 0 
L 1641 3309 
Q 1159 2859 506 2644 
L 506 3441 
Q 850 3553 1253 3867 
Q 1656 4181 1806 4600 
L 2519 4600 
L 2519 0 
z
" transform="scale(0.015625)"/>
     </defs>
     <use xlink:href="#Arial-BoldMT-32"/>
     <use xlink:href="#Arial-BoldMT-3a" transform="translate(55.615234 0)"/>
     <use xlink:href="#Arial-BoldMT-31" transform="translate(88.916016 0)"/>
    </g>
   </g>
   <g id="text_40">
    <!-- 1:1 -->
    <g style="fill: #377eb8" transform="translate(219.539817 101.141808) scale(0.065 -0.065)">
     <use xlink:href="#Arial-BoldMT-31"/>
     <use xlink:href="#Arial-BoldMT-3a" transform="translate(55.615234 0)"/>
     <use xlink:href="#Arial-BoldMT-31" transform="translate(88.916016 0)"/>
    </g>
   </g>
   <g id="text_41">
    <!-- Agar -->
    <g style="fill: #4daf4a" transform="translate(219.539817 151.100109) scale(0.065 -0.065)">
     <defs>
      <path id="Arial-BoldMT-41" d="M 4597 0 
L 3591 0 
L 3191 1041 
L 1359 1041 
L 981 0 
L 0 0 
L 1784 4581 
L 2763 4581 
L 4597 0 
z
M 2894 1813 
L 2263 3513 
L 1644 1813 
L 2894 1813 
z
" transform="scale(0.015625)"/>
      <path id="Arial-BoldMT-67" d="M 378 -219 
L 1381 -341 
Q 1406 -516 1497 -581 
Q 1622 -675 1891 -675 
Q 2234 -675 2406 -572 
Q 2522 -503 2581 -350 
Q 2622 -241 2622 53 
L 2622 538 
Q 2228 0 1628 0 
Q 959 0 569 566 
Q 263 1013 263 1678 
Q 263 2513 664 2953 
Q 1066 3394 1663 3394 
Q 2278 3394 2678 2853 
L 2678 3319 
L 3500 3319 
L 3500 341 
Q 3500 -247 3403 -537 
Q 3306 -828 3131 -993 
Q 2956 -1159 2664 -1253 
Q 2372 -1347 1925 -1347 
Q 1081 -1347 728 -1058 
Q 375 -769 375 -325 
Q 375 -281 378 -219 
z
M 1163 1728 
Q 1163 1200 1367 954 
Q 1572 709 1872 709 
Q 2194 709 2416 961 
Q 2638 1213 2638 1706 
Q 2638 2222 2425 2472 
Q 2213 2722 1888 2722 
Q 1572 2722 1367 2476 
Q 1163 2231 1163 1728 
z
" transform="scale(0.015625)"/>
      <path id="Arial-BoldMT-61" d="M 1116 2306 
L 319 2450 
Q 453 2931 781 3162 
Q 1109 3394 1756 3394 
Q 2344 3394 2631 3255 
Q 2919 3116 3036 2902 
Q 3153 2688 3153 2116 
L 3144 1091 
Q 3144 653 3186 445 
Q 3228 238 3344 0 
L 2475 0 
Q 2441 88 2391 259 
Q 2369 338 2359 363 
Q 2134 144 1878 34 
Q 1622 -75 1331 -75 
Q 819 -75 523 203 
Q 228 481 228 906 
Q 228 1188 362 1408 
Q 497 1628 739 1745 
Q 981 1863 1438 1950 
Q 2053 2066 2291 2166 
L 2291 2253 
Q 2291 2506 2166 2614 
Q 2041 2722 1694 2722 
Q 1459 2722 1328 2630 
Q 1197 2538 1116 2306 
z
M 2291 1594 
Q 2122 1538 1756 1459 
Q 1391 1381 1278 1306 
Q 1106 1184 1106 997 
Q 1106 813 1243 678 
Q 1381 544 1594 544 
Q 1831 544 2047 700 
Q 2206 819 2256 991 
Q 2291 1103 2291 1419 
L 2291 1594 
z
" transform="scale(0.015625)"/>
      <path id="Arial-BoldMT-72" d="M 1300 0 
L 422 0 
L 422 3319 
L 1238 3319 
L 1238 2847 
Q 1447 3181 1614 3287 
Q 1781 3394 1994 3394 
Q 2294 3394 2572 3228 
L 2300 2463 
Q 2078 2606 1888 2606 
Q 1703 2606 1575 2504 
Q 1447 2403 1373 2137 
Q 1300 1872 1300 1025 
L 1300 0 
z
" transform="scale(0.015625)"/>
     </defs>
     <use xlink:href="#Arial-BoldMT-41"/>
     <use xlink:href="#Arial-BoldMT-67" transform="translate(72.216797 0)"/>
     <use xlink:href="#Arial-BoldMT-61" transform="translate(133.300781 0)"/>
     <use xlink:href="#Arial-BoldMT-72" transform="translate(188.916016 0)"/>
    </g>
   </g>
   <g id="text_42">
    <!-- Green -->
    <g style="fill: #228b22" transform="translate(219.539817 201.143723) scale(0.065 -0.065)">
     <defs>
      <path id="Arial-BoldMT-47" d="M 2597 1684 
L 2597 2456 
L 4591 2456 
L 4591 631 
Q 4300 350 3748 136 
Q 3197 -78 2631 -78 
Q 1913 -78 1378 223 
Q 844 525 575 1086 
Q 306 1647 306 2306 
Q 306 3022 606 3578 
Q 906 4134 1484 4431 
Q 1925 4659 2581 4659 
Q 3434 4659 3914 4301 
Q 4394 3944 4531 3313 
L 3613 3141 
Q 3516 3478 3248 3673 
Q 2981 3869 2581 3869 
Q 1975 3869 1617 3484 
Q 1259 3100 1259 2344 
Q 1259 1528 1621 1120 
Q 1984 713 2572 713 
Q 2863 713 3155 827 
Q 3447 941 3656 1103 
L 3656 1684 
L 2597 1684 
z
" transform="scale(0.015625)"/>
      <path id="Arial-BoldMT-65" d="M 2381 1056 
L 3256 909 
Q 3088 428 2723 176 
Q 2359 -75 1813 -75 
Q 947 -75 531 491 
Q 203 944 203 1634 
Q 203 2459 634 2926 
Q 1066 3394 1725 3394 
Q 2466 3394 2894 2905 
Q 3322 2416 3303 1406 
L 1103 1406 
Q 1113 1016 1316 798 
Q 1519 581 1822 581 
Q 2028 581 2168 693 
Q 2309 806 2381 1056 
z
M 2431 1944 
Q 2422 2325 2234 2523 
Q 2047 2722 1778 2722 
Q 1491 2722 1303 2513 
Q 1116 2303 1119 1944 
L 2431 1944 
z
" transform="scale(0.015625)"/>
      <path id="Arial-BoldMT-6e" d="M 3478 0 
L 2600 0 
L 2600 1694 
Q 2600 2231 2544 2389 
Q 2488 2547 2361 2634 
Q 2234 2722 2056 2722 
Q 1828 2722 1647 2597 
Q 1466 2472 1398 2265 
Q 1331 2059 1331 1503 
L 1331 0 
L 453 0 
L 453 3319 
L 1269 3319 
L 1269 2831 
Q 1703 3394 2363 3394 
Q 2653 3394 2893 3289 
Q 3134 3184 3257 3021 
Q 3381 2859 3429 2653 
Q 3478 2447 3478 2063 
L 3478 0 
z
" transform="scale(0.015625)"/>
     </defs>
     <use xlink:href="#Arial-BoldMT-47"/>
     <use xlink:href="#Arial-BoldMT-72" transform="translate(77.783203 0)"/>
     <use xlink:href="#Arial-BoldMT-65" transform="translate(116.699219 0)"/>
     <use xlink:href="#Arial-BoldMT-65" transform="translate(172.314453 0)"/>
     <use xlink:href="#Arial-BoldMT-6e" transform="translate(227.929688 0)"/>
    </g>
   </g>
   <g id="text_43">
    <!-- White -->
    <g style="fill: #999999" transform="translate(219.539817 246.68031) scale(0.065 -0.065)">
     <defs>
      <path id="Arial-BoldMT-57" d="M 1116 0 
L 22 4581 
L 969 4581 
L 1659 1434 
L 2497 4581 
L 3597 4581 
L 4400 1381 
L 5103 4581 
L 6034 4581 
L 4922 0 
L 3941 0 
L 3028 3425 
L 2119 0 
L 1116 0 
z
" transform="scale(0.015625)"/>
      <path id="Arial-BoldMT-68" d="M 1334 4581 
L 1334 2897 
Q 1759 3394 2350 3394 
Q 2653 3394 2897 3281 
Q 3141 3169 3264 2994 
Q 3388 2819 3433 2606 
Q 3478 2394 3478 1947 
L 3478 0 
L 2600 0 
L 2600 1753 
Q 2600 2275 2550 2415 
Q 2500 2556 2373 2639 
Q 2247 2722 2056 2722 
Q 1838 2722 1666 2615 
Q 1494 2509 1414 2295 
Q 1334 2081 1334 1663 
L 1334 0 
L 456 0 
L 456 4581 
L 1334 4581 
z
" transform="scale(0.015625)"/>
      <path id="Arial-BoldMT-69" d="M 459 3769 
L 459 4581 
L 1338 4581 
L 1338 3769 
L 459 3769 
z
M 459 0 
L 459 3319 
L 1338 3319 
L 1338 0 
L 459 0 
z
" transform="scale(0.015625)"/>
      <path id="Arial-BoldMT-74" d="M 1981 3319 
L 1981 2619 
L 1381 2619 
L 1381 1281 
Q 1381 875 1398 808 
Q 1416 741 1477 697 
Q 1538 653 1625 653 
Q 1747 653 1978 738 
L 2053 56 
Q 1747 -75 1359 -75 
Q 1122 -75 931 4 
Q 741 84 652 211 
Q 563 338 528 553 
Q 500 706 500 1172 
L 500 2619 
L 97 2619 
L 97 3319 
L 500 3319 
L 500 3978 
L 1381 4491 
L 1381 3319 
L 1981 3319 
z
" transform="scale(0.015625)"/>
     </defs>
     <use xlink:href="#Arial-BoldMT-57"/>
     <use xlink:href="#Arial-BoldMT-68" transform="translate(94.384766 0)"/>
     <use xlink:href="#Arial-BoldMT-69" transform="translate(155.46875 0)"/>
     <use xlink:href="#Arial-BoldMT-74" transform="translate(183.251953 0)"/>
     <use xlink:href="#Arial-BoldMT-65" transform="translate(216.552734 0)"/>
    </g>
   </g>
   <g id="text_44">
    <!-- Black -->
    <g style="fill: #333333" transform="translate(219.539817 283.288154) scale(0.065 -0.065)">
     <defs>
      <path id="Arial-BoldMT-42" d="M 469 4581 
L 2300 4581 
Q 2844 4581 3111 4536 
Q 3378 4491 3589 4347 
Q 3800 4203 3940 3964 
Q 4081 3725 4081 3428 
Q 4081 3106 3907 2837 
Q 3734 2569 3438 2434 
Q 3856 2313 4081 2019 
Q 4306 1725 4306 1328 
Q 4306 1016 4161 720 
Q 4016 425 3764 248 
Q 3513 72 3144 31 
Q 2913 6 2028 0 
L 469 0 
L 469 4581 
z
M 1394 3819 
L 1394 2759 
L 2000 2759 
Q 2541 2759 2672 2775 
Q 2909 2803 3045 2939 
Q 3181 3075 3181 3297 
Q 3181 3509 3064 3642 
Q 2947 3775 2716 3803 
Q 2578 3819 1925 3819 
L 1394 3819 
z
M 1394 1997 
L 1394 772 
L 2250 772 
Q 2750 772 2884 800 
Q 3091 838 3220 983 
Q 3350 1128 3350 1372 
Q 3350 1578 3250 1722 
Q 3150 1866 2961 1931 
Q 2772 1997 2141 1997 
L 1394 1997 
z
" transform="scale(0.015625)"/>
      <path id="Arial-BoldMT-6c" d="M 459 0 
L 459 4581 
L 1338 4581 
L 1338 0 
L 459 0 
z
" transform="scale(0.015625)"/>
      <path id="Arial-BoldMT-63" d="M 3353 2338 
L 2488 2181 
Q 2444 2441 2289 2572 
Q 2134 2703 1888 2703 
Q 1559 2703 1364 2476 
Q 1169 2250 1169 1719 
Q 1169 1128 1367 884 
Q 1566 641 1900 641 
Q 2150 641 2309 783 
Q 2469 925 2534 1272 
L 3397 1125 
Q 3263 531 2881 228 
Q 2500 -75 1859 -75 
Q 1131 -75 698 384 
Q 266 844 266 1656 
Q 266 2478 700 2936 
Q 1134 3394 1875 3394 
Q 2481 3394 2839 3133 
Q 3197 2872 3353 2338 
z
" transform="scale(0.015625)"/>
      <path id="Arial-BoldMT-6b" d="M 428 0 
L 428 4581 
L 1306 4581 
L 1306 2150 
L 2334 3319 
L 3416 3319 
L 2281 2106 
L 3497 0 
L 2550 0 
L 1716 1491 
L 1306 1063 
L 1306 0 
L 428 0 
z
" transform="scale(0.015625)"/>
     </defs>
     <use xlink:href="#Arial-BoldMT-42"/>
     <use xlink:href="#Arial-BoldMT-6c" transform="translate(72.216797 0)"/>
     <use xlink:href="#Arial-BoldMT-61" transform="translate(100 0)"/>
     <use xlink:href="#Arial-BoldMT-63" transform="translate(155.615234 0)"/>
     <use xlink:href="#Arial-BoldMT-6b" transform="translate(211.230469 0)"/>
    </g>
   </g>
   <g id="text_45">
    <!-- Filled = p &lt; 0.05 -->
    <g style="fill: #555555" transform="translate(40.331997 347.990598) scale(0.06 -0.06)">
     <defs>
      <path id="ArialMT-46" d="M 525 0 
L 525 4581 
L 3616 4581 
L 3616 4041 
L 1131 4041 
L 1131 2622 
L 3281 2622 
L 3281 2081 
L 1131 2081 
L 1131 0 
L 525 0 
z
" transform="scale(0.015625)"/>
      <path id="ArialMT-3d" d="M 3381 2694 
L 356 2694 
L 356 3219 
L 3381 3219 
L 3381 2694 
z
M 3381 1303 
L 356 1303 
L 356 1828 
L 3381 1828 
L 3381 1303 
z
" transform="scale(0.015625)"/>
      <path id="ArialMT-3c" d="M 350 2003 
L 350 2528 
L 3384 3809 
L 3384 3250 
L 978 2263 
L 3384 1266 
L 3384 706 
L 350 2003 
z
" transform="scale(0.015625)"/>
     </defs>
     <use xlink:href="#ArialMT-46"/>
     <use xlink:href="#ArialMT-69" transform="translate(61.083984 0)"/>
     <use xlink:href="#ArialMT-6c" transform="translate(83.300781 0)"/>
     <use xlink:href="#ArialMT-6c" transform="translate(105.517578 0)"/>
     <use xlink:href="#ArialMT-65" transform="translate(127.734375 0)"/>
     <use xlink:href="#ArialMT-64" transform="translate(183.349609 0)"/>
     <use xlink:href="#ArialMT-20" transform="translate(238.964844 0)"/>
     <use xlink:href="#ArialMT-3d" transform="translate(266.748047 0)"/>
     <use xlink:href="#ArialMT-20" transform="translate(325.146484 0)"/>
     <use xlink:href="#ArialMT-70" transform="translate(352.929688 0)"/>
     <use xlink:href="#ArialMT-20" transform="translate(408.544922 0)"/>
     <use xlink:href="#ArialMT-3c" transform="translate(436.328125 0)"/>
     <use xlink:href="#ArialMT-20" transform="translate(494.726562 0)"/>
     <use xlink:href="#ArialMT-30" transform="translate(522.509766 0)"/>
     <use xlink:href="#ArialMT-2e" transform="translate(578.125 0)"/>
     <use xlink:href="#ArialMT-30" transform="translate(605.908203 0)"/>
     <use xlink:href="#ArialMT-35" transform="translate(661.523438 0)"/>
    </g>
   </g>
   <g id="text_46">
    <!-- Cox PH: distance effect on evaporation hazard -->
    <g transform="translate(36.443126 10.151719) scale(0.09 -0.09)">
     <defs>
      <path id="ArialMT-43" d="M 3763 1606 
L 4369 1453 
Q 4178 706 3683 314 
Q 3188 -78 2472 -78 
Q 1731 -78 1267 223 
Q 803 525 561 1097 
Q 319 1669 319 2325 
Q 319 3041 592 3573 
Q 866 4106 1370 4382 
Q 1875 4659 2481 4659 
Q 3169 4659 3637 4309 
Q 4106 3959 4291 3325 
L 3694 3184 
Q 3534 3684 3231 3912 
Q 2928 4141 2469 4141 
Q 1941 4141 1586 3887 
Q 1231 3634 1087 3207 
Q 944 2781 944 2328 
Q 944 1744 1114 1308 
Q 1284 872 1643 656 
Q 2003 441 2422 441 
Q 2931 441 3284 734 
Q 3638 1028 3763 1606 
z
" transform="scale(0.015625)"/>
      <path id="ArialMT-78" d="M 47 0 
L 1259 1725 
L 138 3319 
L 841 3319 
L 1350 2541 
Q 1494 2319 1581 2169 
Q 1719 2375 1834 2534 
L 2394 3319 
L 3066 3319 
L 1919 1756 
L 3153 0 
L 2463 0 
L 1781 1031 
L 1600 1309 
L 728 0 
L 47 0 
z
" transform="scale(0.015625)"/>
      <path id="ArialMT-50" d="M 494 0 
L 494 4581 
L 2222 4581 
Q 2678 4581 2919 4538 
Q 3256 4481 3484 4323 
Q 3713 4166 3852 3881 
Q 3991 3597 3991 3256 
Q 3991 2672 3619 2267 
Q 3247 1863 2275 1863 
L 1100 1863 
L 1100 0 
L 494 0 
z
M 1100 2403 
L 2284 2403 
Q 2872 2403 3119 2622 
Q 3366 2841 3366 3238 
Q 3366 3525 3220 3729 
Q 3075 3934 2838 4000 
Q 2684 4041 2272 4041 
L 1100 4041 
L 1100 2403 
z
" transform="scale(0.015625)"/>
      <path id="ArialMT-3a" d="M 578 2678 
L 578 3319 
L 1219 3319 
L 1219 2678 
L 578 2678 
z
M 578 0 
L 578 641 
L 1219 641 
L 1219 0 
L 578 0 
z
" transform="scale(0.015625)"/>
      <path id="ArialMT-66" d="M 556 0 
L 556 2881 
L 59 2881 
L 59 3319 
L 556 3319 
L 556 3672 
Q 556 4006 616 4169 
Q 697 4388 901 4523 
Q 1106 4659 1475 4659 
Q 1713 4659 2000 4603 
L 1916 4113 
Q 1741 4144 1584 4144 
Q 1328 4144 1222 4034 
Q 1116 3925 1116 3625 
L 1116 3319 
L 1763 3319 
L 1763 2881 
L 1116 2881 
L 1116 0 
L 556 0 
z
" transform="scale(0.015625)"/>
      <path id="ArialMT-76" d="M 1344 0 
L 81 3319 
L 675 3319 
L 1388 1331 
Q 1503 1009 1600 663 
Q 1675 925 1809 1294 
L 2547 3319 
L 3125 3319 
L 1869 0 
L 1344 0 
z
" transform="scale(0.015625)"/>
     </defs>
     <use xlink:href="#ArialMT-43"/>
     <use xlink:href="#ArialMT-6f" transform="translate(72.216797 0)"/>
     <use xlink:href="#ArialMT-78" transform="translate(127.832031 0)"/>
     <use xlink:href="#ArialMT-20" transform="translate(177.832031 0)"/>
     <use xlink:href="#ArialMT-50" transform="translate(205.615234 0)"/>
     <use xlink:href="#ArialMT-48" transform="translate(272.314453 0)"/>
     <use xlink:href="#ArialMT-3a" transform="translate(344.53125 0)"/>
     <use xlink:href="#ArialMT-20" transform="translate(372.314453 0)"/>
     <use xlink:href="#ArialMT-64" transform="translate(400.097656 0)"/>
     <use xlink:href="#ArialMT-69" transform="translate(455.712891 0)"/>
     <use xlink:href="#ArialMT-73" transform="translate(477.929688 0)"/>
     <use xlink:href="#ArialMT-74" transform="translate(527.929688 0)"/>
     <use xlink:href="#ArialMT-61" transform="translate(555.712891 0)"/>
     <use xlink:href="#ArialMT-6e" transform="translate(611.328125 0)"/>
     <use xlink:href="#ArialMT-63" transform="translate(666.943359 0)"/>
     <use xlink:href="#ArialMT-65" transform="translate(716.943359 0)"/>
     <use xlink:href="#ArialMT-20" transform="translate(772.558594 0)"/>
     <use xlink:href="#ArialMT-65" transform="translate(800.341797 0)"/>
     <use xlink:href="#ArialMT-66" transform="translate(855.957031 0)"/>
     <use xlink:href="#ArialMT-66" transform="translate(881.990234 0)"/>
     <use xlink:href="#ArialMT-65" transform="translate(909.773438 0)"/>
     <use xlink:href="#ArialMT-63" transform="translate(965.388672 0)"/>
     <use xlink:href="#ArialMT-74" transform="translate(1015.388672 0)"/>
     <use xlink:href="#ArialMT-20" transform="translate(1043.171875 0)"/>
     <use xlink:href="#ArialMT-6f" transform="translate(1070.955078 0)"/>
     <use xlink:href="#ArialMT-6e" transform="translate(1126.570312 0)"/>
     <use xlink:href="#ArialMT-20" transform="translate(1182.185547 0)"/>
     <use xlink:href="#ArialMT-65" transform="translate(1209.96875 0)"/>
     <use xlink:href="#ArialMT-76" transform="translate(1265.583984 0)"/>
     <use xlink:href="#ArialMT-61" transform="translate(1315.583984 0)"/>
     <use xlink:href="#ArialMT-70" transform="translate(1371.199219 0)"/>
     <use xlink:href="#ArialMT-6f" transform="translate(1426.814453 0)"/>
     <use xlink:href="#ArialMT-72" transform="translate(1482.429688 0)"/>
     <use xlink:href="#ArialMT-61" transform="translate(1515.730469 0)"/>
     <use xlink:href="#ArialMT-74" transform="translate(1571.345703 0)"/>
     <use xlink:href="#ArialMT-69" transform="translate(1599.128906 0)"/>
     <use xlink:href="#ArialMT-6f" transform="translate(1621.345703 0)"/>
     <use xlink:href="#ArialMT-6e" transform="translate(1676.960938 0)"/>
     <use xlink:href="#ArialMT-20" transform="translate(1732.576172 0)"/>
     <use xlink:href="#ArialMT-68" transform="translate(1760.359375 0)"/>
     <use xlink:href="#ArialMT-61" transform="translate(1815.974609 0)"/>
     <use xlink:href="#ArialMT-7a" transform="translate(1871.589844 0)"/>
     <use xlink:href="#ArialMT-61" transform="translate(1921.589844 0)"/>
     <use xlink:href="#ArialMT-72" transform="translate(1977.205078 0)"/>
     <use xlink:href="#ArialMT-64" transform="translate(2010.505859 0)"/>
    </g>
   </g>
   <g id="line2d_75">
    <path d="M 64.202048 31.598443 
" clip-path="url(#paad38027fb)" style="fill: none; stroke: #1f77b4; stroke-width: 0.8; stroke-linecap: square"/>
    <defs>
     <path id="ma8d8d55f0f" d="M 0 2 
C 0.530406 2 1.03916 1.789267 1.414214 1.414214 
C 1.789267 1.03916 2 0.530406 2 0 
C 2 -0.530406 1.789267 -1.03916 1.414214 -1.414214 
C 1.03916 -1.789267 0.530406 -2 0 -2 
C -0.530406 -2 -1.03916 -1.789267 -1.414214 -1.414214 
C -1.789267 -1.03916 -2 -0.530406 -2 0 
C -2 0.530406 -1.789267 1.03916 -1.414214 1.414214 
C -1.03916 1.789267 -0.530406 2 0 2 
z
" style="stroke: #e41a1c; stroke-width: 0.8"/>
    </defs>
    <g clip-path="url(#paad38027fb)">
     <use xlink:href="#ma8d8d55f0f" x="64.202048" y="31.598443" style="fill: #e41a1c; stroke: #e41a1c; stroke-width: 0.8"/>
    </g>
   </g>
   <g id="line2d_76">
    <path d="M 99.361542 40.527186 
" clip-path="url(#paad38027fb)" style="fill: none; stroke: #ff7f0e; stroke-width: 0.8; stroke-linecap: square"/>
    <g clip-path="url(#paad38027fb)">
     <use xlink:href="#ma8d8d55f0f" x="99.361542" y="40.527186" style="fill: #e41a1c; stroke: #e41a1c; stroke-width: 0.8"/>
    </g>
   </g>
   <g id="line2d_77">
    <path d="M 106.72866 49.455928 
" clip-path="url(#paad38027fb)" style="fill: none; stroke: #2ca02c; stroke-width: 0.8; stroke-linecap: square"/>
    <g clip-path="url(#paad38027fb)">
     <use xlink:href="#ma8d8d55f0f" x="106.72866" y="49.455928" style="fill: #e41a1c; stroke: #e41a1c; stroke-width: 0.8"/>
    </g>
   </g>
   <g id="line2d_78">
    <path d="M 111.398689 58.384671 
" clip-path="url(#paad38027fb)" style="fill: none; stroke: #d62728; stroke-width: 0.8; stroke-linecap: square"/>
    <g clip-path="url(#paad38027fb)">
     <use xlink:href="#ma8d8d55f0f" x="111.398689" y="58.384671" style="fill: #e41a1c; stroke: #e41a1c; stroke-width: 0.8"/>
    </g>
   </g>
   <g id="line2d_79">
    <path d="M 152.120769 67.313413 
" clip-path="url(#paad38027fb)" style="fill: none; stroke: #9467bd; stroke-width: 0.8; stroke-linecap: square"/>
    <g clip-path="url(#paad38027fb)">
     <use xlink:href="#ma8d8d55f0f" x="152.120769" y="67.313413" style="fill: #e41a1c; stroke: #e41a1c; stroke-width: 0.8"/>
    </g>
   </g>
   <g id="line2d_80">
    <path d="M 141.297371 81.599401 
" clip-path="url(#paad38027fb)" style="fill: none; stroke: #8c564b; stroke-width: 0.8; stroke-linecap: square"/>
    <defs>
     <path id="m854f4b1a8a" d="M 0 2 
C 0.530406 2 1.03916 1.789267 1.414214 1.414214 
C 1.789267 1.03916 2 0.530406 2 0 
C 2 -0.530406 1.789267 -1.03916 1.414214 -1.414214 
C 1.03916 -1.789267 0.530406 -2 0 -2 
C -0.530406 -2 -1.03916 -1.789267 -1.414214 -1.414214 
C -1.789267 -1.03916 -2 -0.530406 -2 0 
C -2 0.530406 -1.789267 1.03916 -1.414214 1.414214 
C -1.03916 1.789267 -0.530406 2 0 2 
z
" style="stroke: #377eb8; stroke-width: 0.8"/>
    </defs>
    <g clip-path="url(#paad38027fb)">
     <use xlink:href="#m854f4b1a8a" x="141.297371" y="81.599401" style="fill: #377eb8; stroke: #377eb8; stroke-width: 0.8"/>
    </g>
   </g>
   <g id="line2d_81">
    <path d="M 156.686419 90.528143 
" clip-path="url(#paad38027fb)" style="fill: none; stroke: #e377c2; stroke-width: 0.8; stroke-linecap: square"/>
    <g clip-path="url(#paad38027fb)">
     <use xlink:href="#m854f4b1a8a" x="156.686419" y="90.528143" style="fill: #377eb8; stroke: #377eb8; stroke-width: 0.8"/>
    </g>
   </g>
   <g id="line2d_82">
    <path d="M 163.164234 99.456886 
" clip-path="url(#paad38027fb)" style="fill: none; stroke: #7f7f7f; stroke-width: 0.8; stroke-linecap: square"/>
    <g clip-path="url(#paad38027fb)">
     <use xlink:href="#m854f4b1a8a" x="163.164234" y="99.456886" style="fill: #377eb8; stroke: #377eb8; stroke-width: 0.8"/>
    </g>
   </g>
   <g id="line2d_83">
    <path d="M 167.724562 108.385628 
" clip-path="url(#paad38027fb)" style="fill: none; stroke: #bcbd22; stroke-width: 0.8; stroke-linecap: square"/>
    <g clip-path="url(#paad38027fb)">
     <use xlink:href="#m854f4b1a8a" x="167.724562" y="108.385628" style="fill: #377eb8; stroke: #377eb8; stroke-width: 0.8"/>
    </g>
   </g>
   <g id="line2d_84">
    <path d="M 176.645346 117.314371 
" clip-path="url(#paad38027fb)" style="fill: none; stroke: #17becf; stroke-width: 0.8; stroke-linecap: square"/>
    <g clip-path="url(#paad38027fb)">
     <use xlink:href="#m854f4b1a8a" x="176.645346" y="117.314371" style="fill: #377eb8; stroke: #377eb8; stroke-width: 0.8"/>
    </g>
   </g>
   <g id="line2d_85">
    <path d="M 180.634994 131.600359 
" clip-path="url(#paad38027fb)" style="fill: none; stroke: #1f77b4; stroke-width: 0.8; stroke-linecap: square"/>
    <defs>
     <path id="maebde50e3c" d="M 0 2 
C 0.530406 2 1.03916 1.789267 1.414214 1.414214 
C 1.789267 1.03916 2 0.530406 2 0 
C 2 -0.530406 1.789267 -1.03916 1.414214 -1.414214 
C 1.03916 -1.789267 0.530406 -2 0 -2 
C -0.530406 -2 -1.03916 -1.789267 -1.414214 -1.414214 
C -1.789267 -1.03916 -2 -0.530406 -2 0 
C -2 0.530406 -1.789267 1.03916 -1.414214 1.414214 
C -1.03916 1.789267 -0.530406 2 0 2 
z
" style="stroke: #4daf4a; stroke-width: 0.8"/>
    </defs>
    <g clip-path="url(#paad38027fb)">
     <use xlink:href="#maebde50e3c" x="180.634994" y="131.600359" style="fill: #4daf4a; stroke: #4daf4a; stroke-width: 0.8"/>
    </g>
   </g>
   <g id="line2d_86">
    <path d="M 187.390957 140.529101 
" clip-path="url(#paad38027fb)" style="fill: none; stroke: #ff7f0e; stroke-width: 0.8; stroke-linecap: square"/>
    <g clip-path="url(#paad38027fb)">
     <use xlink:href="#maebde50e3c" x="187.390957" y="140.529101" style="fill: #4daf4a; stroke: #4daf4a; stroke-width: 0.8"/>
    </g>
   </g>
   <g id="line2d_87">
    <path d="M 196.471047 149.457843 
" clip-path="url(#paad38027fb)" style="fill: none; stroke: #2ca02c; stroke-width: 0.8; stroke-linecap: square"/>
    <defs>
     <path id="m5a9bfe834f" d="M 0 2 
C 0.530406 2 1.03916 1.789267 1.414214 1.414214 
C 1.789267 1.03916 2 0.530406 2 0 
C 2 -0.530406 1.789267 -1.03916 1.414214 -1.414214 
C 1.03916 -1.789267 0.530406 -2 0 -2 
C -0.530406 -2 -1.03916 -1.789267 -1.414214 -1.414214 
C -1.789267 -1.03916 -2 -0.530406 -2 0 
C -2 0.530406 -1.789267 1.03916 -1.414214 1.414214 
C -1.03916 1.789267 -0.530406 2 0 2 
z
" style="stroke: #4daf4a; stroke-width: 0.8"/>
    </defs>
    <g clip-path="url(#paad38027fb)">
     <use xlink:href="#m5a9bfe834f" x="196.471047" y="149.457843" style="fill: #ffffff; stroke: #4daf4a; stroke-width: 0.8"/>
    </g>
   </g>
   <g id="line2d_88">
    <path d="M 201.165437 158.386586 
" clip-path="url(#paad38027fb)" style="fill: none; stroke: #d62728; stroke-width: 0.8; stroke-linecap: square"/>
    <g clip-path="url(#paad38027fb)">
     <use xlink:href="#m5a9bfe834f" x="201.165437" y="158.386586" style="fill: #ffffff; stroke: #4daf4a; stroke-width: 0.8"/>
    </g>
   </g>
   <g id="line2d_89">
    <path d="M 203.592674 167.315328 
" clip-path="url(#paad38027fb)" style="fill: none; stroke: #9467bd; stroke-width: 0.8; stroke-linecap: square"/>
    <g clip-path="url(#paad38027fb)">
     <use xlink:href="#m5a9bfe834f" x="203.592674" y="167.315328" style="fill: #ffffff; stroke: #4daf4a; stroke-width: 0.8"/>
    </g>
   </g>
   <g id="line2d_90">
    <path d="M 82.204809 181.601316 
" clip-path="url(#paad38027fb)" style="fill: none; stroke: #8c564b; stroke-width: 0.8; stroke-linecap: square"/>
    <defs>
     <path id="me982dad4ce" d="M 0 2 
C 0.530406 2 1.03916 1.789267 1.414214 1.414214 
C 1.789267 1.03916 2 0.530406 2 0 
C 2 -0.530406 1.789267 -1.03916 1.414214 -1.414214 
C 1.03916 -1.789267 0.530406 -2 0 -2 
C -0.530406 -2 -1.03916 -1.789267 -1.414214 -1.414214 
C -1.789267 -1.03916 -2 -0.530406 -2 0 
C -2 0.530406 -1.789267 1.03916 -1.414214 1.414214 
C -1.03916 1.789267 -0.530406 2 0 2 
z
" style="stroke: #228b22; stroke-width: 0.8"/>
    </defs>
    <g clip-path="url(#paad38027fb)">
     <use xlink:href="#me982dad4ce" x="82.204809" y="181.601316" style="fill: #228b22; stroke: #228b22; stroke-width: 0.8"/>
    </g>
   </g>
   <g id="line2d_91">
    <path d="M 145.766136 190.530059 
" clip-path="url(#paad38027fb)" style="fill: none; stroke: #e377c2; stroke-width: 0.8; stroke-linecap: square"/>
    <g clip-path="url(#paad38027fb)">
     <use xlink:href="#me982dad4ce" x="145.766136" y="190.530059" style="fill: #228b22; stroke: #228b22; stroke-width: 0.8"/>
    </g>
   </g>
   <g id="line2d_92">
    <path d="M 174.835682 199.458801 
" clip-path="url(#paad38027fb)" style="fill: none; stroke: #7f7f7f; stroke-width: 0.8; stroke-linecap: square"/>
    <g clip-path="url(#paad38027fb)">
     <use xlink:href="#me982dad4ce" x="174.835682" y="199.458801" style="fill: #228b22; stroke: #228b22; stroke-width: 0.8"/>
    </g>
   </g>
   <g id="line2d_93">
    <path d="M 177.585248 208.387544 
" clip-path="url(#paad38027fb)" style="fill: none; stroke: #bcbd22; stroke-width: 0.8; stroke-linecap: square"/>
    <g clip-path="url(#paad38027fb)">
     <use xlink:href="#me982dad4ce" x="177.585248" y="208.387544" style="fill: #228b22; stroke: #228b22; stroke-width: 0.8"/>
    </g>
   </g>
   <g id="line2d_94">
    <path d="M 185.815383 217.316286 
" clip-path="url(#paad38027fb)" style="fill: none; stroke: #17becf; stroke-width: 0.8; stroke-linecap: square"/>
    <g clip-path="url(#paad38027fb)">
     <use xlink:href="#me982dad4ce" x="185.815383" y="217.316286" style="fill: #228b22; stroke: #228b22; stroke-width: 0.8"/>
    </g>
   </g>
   <g id="line2d_95">
    <path d="M 134.739605 231.602274 
" clip-path="url(#paad38027fb)" style="fill: none; stroke: #1f77b4; stroke-width: 0.8; stroke-linecap: square"/>
    <defs>
     <path id="m64a85e2ff0" d="M 0 2 
C 0.530406 2 1.03916 1.789267 1.414214 1.414214 
C 1.789267 1.03916 2 0.530406 2 0 
C 2 -0.530406 1.789267 -1.03916 1.414214 -1.414214 
C 1.03916 -1.789267 0.530406 -2 0 -2 
C -0.530406 -2 -1.03916 -1.789267 -1.414214 -1.414214 
C -1.789267 -1.03916 -2 -0.530406 -2 0 
C -2 0.530406 -1.789267 1.03916 -1.414214 1.414214 
C -1.03916 1.789267 -0.530406 2 0 2 
z
" style="stroke: #999999; stroke-width: 0.8"/>
    </defs>
    <g clip-path="url(#paad38027fb)">
     <use xlink:href="#m64a85e2ff0" x="134.739605" y="231.602274" style="fill: #999999; stroke: #999999; stroke-width: 0.8"/>
    </g>
   </g>
   <g id="line2d_96">
    <path d="M 148.811709 240.531016 
" clip-path="url(#paad38027fb)" style="fill: none; stroke: #ff7f0e; stroke-width: 0.8; stroke-linecap: square"/>
    <g clip-path="url(#paad38027fb)">
     <use xlink:href="#m64a85e2ff0" x="148.811709" y="240.531016" style="fill: #999999; stroke: #999999; stroke-width: 0.8"/>
    </g>
   </g>
   <g id="line2d_97">
    <path d="M 157.841626 249.459759 
" clip-path="url(#paad38027fb)" style="fill: none; stroke: #2ca02c; stroke-width: 0.8; stroke-linecap: square"/>
    <g clip-path="url(#paad38027fb)">
     <use xlink:href="#m64a85e2ff0" x="157.841626" y="249.459759" style="fill: #999999; stroke: #999999; stroke-width: 0.8"/>
    </g>
   </g>
   <g id="line2d_98">
    <path d="M 164.065109 258.388501 
" clip-path="url(#paad38027fb)" style="fill: none; stroke: #d62728; stroke-width: 0.8; stroke-linecap: square"/>
    <g clip-path="url(#paad38027fb)">
     <use xlink:href="#m64a85e2ff0" x="164.065109" y="258.388501" style="fill: #999999; stroke: #999999; stroke-width: 0.8"/>
    </g>
   </g>
   <g id="line2d_99">
    <path d="M 163.901864 272.674489 
" clip-path="url(#paad38027fb)" style="fill: none; stroke: #9467bd; stroke-width: 0.8; stroke-linecap: square"/>
    <defs>
     <path id="m32a630a322" d="M 0 2 
C 0.530406 2 1.03916 1.789267 1.414214 1.414214 
C 1.789267 1.03916 2 0.530406 2 0 
C 2 -0.530406 1.789267 -1.03916 1.414214 -1.414214 
C 1.03916 -1.789267 0.530406 -2 0 -2 
C -0.530406 -2 -1.03916 -1.789267 -1.414214 -1.414214 
C -1.789267 -1.03916 -2 -0.530406 -2 0 
C -2 0.530406 -1.789267 1.03916 -1.414214 1.414214 
C -1.03916 1.789267 -0.530406 2 0 2 
z
" style="stroke: #333333; stroke-width: 0.8"/>
    </defs>
    <g clip-path="url(#paad38027fb)">
     <use xlink:href="#m32a630a322" x="163.901864" y="272.674489" style="fill: #333333; stroke: #333333; stroke-width: 0.8"/>
    </g>
   </g>
   <g id="line2d_100">
    <path d="M 170.378412 281.603232 
" clip-path="url(#paad38027fb)" style="fill: none; stroke: #8c564b; stroke-width: 0.8; stroke-linecap: square"/>
    <g clip-path="url(#paad38027fb)">
     <use xlink:href="#m32a630a322" x="170.378412" y="281.603232" style="fill: #333333; stroke: #333333; stroke-width: 0.8"/>
    </g>
   </g>
   <g id="line2d_101">
    <path d="M 196.724655 290.531974 
" clip-path="url(#paad38027fb)" style="fill: none; stroke: #e377c2; stroke-width: 0.8; stroke-linecap: square"/>
    <defs>
     <path id="mad7f082d4a" d="M 0 2 
C 0.530406 2 1.03916 1.789267 1.414214 1.414214 
C 1.789267 1.03916 2 0.530406 2 0 
C 2 -0.530406 1.789267 -1.03916 1.414214 -1.414214 
C 1.03916 -1.789267 0.530406 -2 0 -2 
C -0.530406 -2 -1.03916 -1.789267 -1.414214 -1.414214 
C -1.789267 -1.03916 -2 -0.530406 -2 0 
C -2 0.530406 -1.789267 1.03916 -1.414214 1.414214 
C -1.03916 1.789267 -0.530406 2 0 2 
z
" style="stroke: #333333; stroke-width: 0.8"/>
    </defs>
    <g clip-path="url(#paad38027fb)">
     <use xlink:href="#mad7f082d4a" x="196.724655" y="290.531974" style="fill: #ffffff; stroke: #333333; stroke-width: 0.8"/>
    </g>
   </g>
   <g id="line2d_102">
    <path d="M 113.796678 304.817962 
" clip-path="url(#paad38027fb)" style="fill: none; stroke: #7f7f7f; stroke-width: 0.8; stroke-linecap: square"/>
    <defs>
     <path id="m13c180a458" d="M 0 2 
C 0.530406 2 1.03916 1.789267 1.414214 1.414214 
C 1.789267 1.03916 2 0.530406 2 0 
C 2 -0.530406 1.789267 -1.03916 1.414214 -1.414214 
C 1.03916 -1.789267 0.530406 -2 0 -2 
C -0.530406 -2 -1.03916 -1.789267 -1.414214 -1.414214 
C -1.789267 -1.03916 -2 -0.530406 -2 0 
C -2 0.530406 -1.789267 1.03916 -1.414214 1.414214 
C -1.03916 1.789267 -0.530406 2 0 2 
z
" style="stroke: #e67e22; stroke-width: 0.8"/>
    </defs>
    <g clip-path="url(#paad38027fb)">
     <use xlink:href="#m13c180a458" x="113.796678" y="304.817962" style="fill: #e67e22; stroke: #e67e22; stroke-width: 0.8"/>
    </g>
   </g>
   <g id="line2d_103">
    <path d="M 130.066633 313.746704 
" clip-path="url(#paad38027fb)" style="fill: none; stroke: #bcbd22; stroke-width: 0.8; stroke-linecap: square"/>
    <g clip-path="url(#paad38027fb)">
     <use xlink:href="#m13c180a458" x="130.066633" y="313.746704" style="fill: #e67e22; stroke: #e67e22; stroke-width: 0.8"/>
    </g>
   </g>
   <g id="line2d_104">
    <path d="M 132.652254 322.675447 
" clip-path="url(#paad38027fb)" style="fill: none; stroke: #17becf; stroke-width: 0.8; stroke-linecap: square"/>
    <g clip-path="url(#paad38027fb)">
     <use xlink:href="#m13c180a458" x="132.652254" y="322.675447" style="fill: #e67e22; stroke: #e67e22; stroke-width: 0.8"/>
    </g>
   </g>
   <g id="line2d_105">
    <path d="M 160.886683 331.604189 
" clip-path="url(#paad38027fb)" style="fill: none; stroke: #1f77b4; stroke-width: 0.8; stroke-linecap: square"/>
    <g clip-path="url(#paad38027fb)">
     <use xlink:href="#m13c180a458" x="160.886683" y="331.604189" style="fill: #e67e22; stroke: #e67e22; stroke-width: 0.8"/>
    </g>
   </g>
   <g id="line2d_106">
    <path d="M 164.379724 340.532932 
" clip-path="url(#paad38027fb)" style="fill: none; stroke: #ff7f0e; stroke-width: 0.8; stroke-linecap: square"/>
    <g clip-path="url(#paad38027fb)">
     <use xlink:href="#m13c180a458" x="164.379724" y="340.532932" style="fill: #e67e22; stroke: #e67e22; stroke-width: 0.8"/>
    </g>
   </g>
  </g>
 </g>
 <defs>
  <clipPath id="paad38027fb">
   <rect x="36.620312" y="16.151719" width="185.584222" height="339.827938"/>
  </clipPath>
 </defs>
</svg>
