<?xml version="1.0" encoding="utf-8" standalone="no"?>
<!DOCTYPE svg PUBLIC "-//W3C//DTD SVG 1.1//EN"
  "http://www.w3.org/Graphics/SVG/1.1/DTD/svg11.dtd">
<svg xmlns:xlink="http://www.w3.org/1999/xlink" width="493.951094pt" height="169.620469pt" viewBox="0 0 493.951094 169.620469" xmlns="http://www.w3.org/2000/svg" version="1.1">
 <metadata>
  <rdf:RDF xmlns:dc="http://purl.org/dc/elements/1.1/" xmlns:cc="http://creativecommons.org/ns#" xmlns:rdf="http://www.w3.org/1999/02/22-rdf-syntax-ns#">
   <cc:Work>
    <dc:type rdf:resource="http://purl.org/dc/dcmitype/StillImage"/>
    <dc:date>2026-03-22T14:54:31.599630</dc:date>
    <dc:format>image/svg+xml</dc:format>
    <dc:creator>
     <cc:Agent>
      <dc:title>Matplotlib v3.10.8, https://matplotlib.org/</dc:title>
     </cc:Agent>
    </dc:creator>
   </cc:Work>
  </rdf:RDF>
 </metadata>
 <defs>
  <style type="text/css">*{stroke-linejoin: round; stroke-linecap: butt}</style>
 </defs>
 <g id="figure_1">
  <g id="patch_1">
   <path d="M 0 169.620469 
L 493.951094 169.620469 
L 493.951094 0 
L 0 0 
z
" style="fill: #ffffff"/>
  </g>
  <g id="axes_1">
   <g id="patch_2">
    <path d="M 30.088594 141.11125 
L 174.682115 141.11125 
L 174.682115 16.06875 
L 30.088594 16.06875 
z
" style="fill: #ffffff"/>
   </g>
   <g id="matplotlib.axis_1">
    <g id="xtick_1">
     <g id="line2d_1">
      <defs>
       <path id="m405feb1b31" d="M 0 0 
L 0 3.5 
" style="stroke: #000000; stroke-width: 0.5"/>
      </defs>
      <g>
       <use xlink:href="#m405feb1b31" x="49.529398" y="141.11125" style="stroke: #000000; stroke-width: 0.5"/>
      </g>
     </g>
     <g id="text_1">
      <!-- 4 -->
      <g transform="translate(47.58307 153.121719) scale(0.07 -0.07)">
       <defs>
        <path id="ArialMT-34" d="M 2069 0 
L 2069 1097 
L 81 1097 
L 81 1613 
L 2172 4581 
L 2631 4581 
L 2631 1613 
L 3250 1613 
L 3250 1097 
L 2631 1097 
L 2631 0 
L 2069 0 
z
M 2069 1613 
L 2069 3678 
L 634 1613 
L 2069 1613 
z
" transform="scale(0.015625)"/>
       </defs>
       <use xlink:href="#ArialMT-34"/>
      </g>
     </g>
    </g>
    <g id="xtick_2">
     <g id="line2d_2">
      <g>
       <use xlink:href="#m405feb1b31" x="90.890767" y="141.11125" style="stroke: #000000; stroke-width: 0.5"/>
      </g>
     </g>
     <g id="text_2">
      <!-- 5 -->
      <g transform="translate(88.944439 153.121719) scale(0.07 -0.07)">
       <defs>
        <path id="ArialMT-35" d="M 266 1200 
L 856 1250 
Q 922 819 1161 601 
Q 1400 384 1738 384 
Q 2144 384 2425 690 
Q 2706 997 2706 1503 
Q 2706 1984 2436 2262 
Q 2166 2541 1728 2541 
Q 1456 2541 1237 2417 
Q 1019 2294 894 2097 
L 366 2166 
L 809 4519 
L 3088 4519 
L 3088 3981 
L 1259 3981 
L 1013 2750 
Q 1425 3038 1878 3038 
Q 2478 3038 2890 2622 
Q 3303 2206 3303 1553 
Q 3303 931 2941 478 
Q 2500 -78 1738 -78 
Q 1113 -78 717 272 
Q 322 622 266 1200 
z
" transform="scale(0.015625)"/>
       </defs>
       <use xlink:href="#ArialMT-35"/>
      </g>
     </g>
    </g>
    <g id="xtick_3">
     <g id="line2d_3">
      <g>
       <use xlink:href="#m405feb1b31" x="132.252135" y="141.11125" style="stroke: #000000; stroke-width: 0.5"/>
      </g>
     </g>
     <g id="text_3">
      <!-- 6 -->
      <g transform="translate(130.305807 153.121719) scale(0.07 -0.07)">
       <defs>
        <path id="ArialMT-36" d="M 3184 3459 
L 2625 3416 
Q 2550 3747 2413 3897 
Q 2184 4138 1850 4138 
Q 1581 4138 1378 3988 
Q 1113 3794 959 3422 
Q 806 3050 800 2363 
Q 1003 2672 1297 2822 
Q 1591 2972 1913 2972 
Q 2475 2972 2870 2558 
Q 3266 2144 3266 1488 
Q 3266 1056 3080 686 
Q 2894 316 2569 119 
Q 2244 -78 1831 -78 
Q 1128 -78 684 439 
Q 241 956 241 2144 
Q 241 3472 731 4075 
Q 1159 4600 1884 4600 
Q 2425 4600 2770 4297 
Q 3116 3994 3184 3459 
z
M 888 1484 
Q 888 1194 1011 928 
Q 1134 663 1356 523 
Q 1578 384 1822 384 
Q 2178 384 2434 671 
Q 2691 959 2691 1453 
Q 2691 1928 2437 2201 
Q 2184 2475 1800 2475 
Q 1419 2475 1153 2201 
Q 888 1928 888 1484 
z
" transform="scale(0.015625)"/>
       </defs>
       <use xlink:href="#ArialMT-36"/>
      </g>
     </g>
    </g>
    <g id="xtick_4">
     <g id="line2d_4">
      <g>
       <use xlink:href="#m405feb1b31" x="173.613504" y="141.11125" style="stroke: #000000; stroke-width: 0.5"/>
      </g>
     </g>
     <g id="text_4">
      <!-- 7 -->
      <g transform="translate(171.667176 153.121719) scale(0.07 -0.07)">
       <defs>
        <path id="ArialMT-37" d="M 303 3981 
L 303 4522 
L 3269 4522 
L 3269 4084 
Q 2831 3619 2401 2847 
Q 1972 2075 1738 1259 
Q 1569 684 1522 0 
L 944 0 
Q 953 541 1156 1306 
Q 1359 2072 1739 2783 
Q 2119 3494 2547 3981 
L 303 3981 
z
" transform="scale(0.015625)"/>
       </defs>
       <use xlink:href="#ArialMT-37"/>
      </g>
     </g>
    </g>
    <g id="text_5">
     <!-- ln(time) -->
     <g transform="translate(89.05223 164.336719) scale(0.08 -0.08)">
      <defs>
       <path id="ArialMT-6c" d="M 409 0 
L 409 4581 
L 972 4581 
L 972 0 
L 409 0 
z
" transform="scale(0.015625)"/>
       <path id="ArialMT-6e" d="M 422 0 
L 422 3319 
L 928 3319 
L 928 2847 
Q 1294 3394 1984 3394 
Q 2284 3394 2536 3286 
Q 2788 3178 2913 3003 
Q 3038 2828 3088 2588 
Q 3119 2431 3119 2041 
L 3119 0 
L 2556 0 
L 2556 2019 
Q 2556 2363 2490 2533 
Q 2425 2703 2258 2804 
Q 2091 2906 1866 2906 
Q 1506 2906 1245 2678 
Q 984 2450 984 1813 
L 984 0 
L 422 0 
z
" transform="scale(0.015625)"/>
       <path id="ArialMT-28" d="M 1497 -1347 
Q 1031 -759 709 28 
Q 388 816 388 1659 
Q 388 2403 628 3084 
Q 909 3875 1497 4659 
L 1900 4659 
Q 1522 4009 1400 3731 
Q 1209 3300 1100 2831 
Q 966 2247 966 1656 
Q 966 153 1900 -1347 
L 1497 -1347 
z
" transform="scale(0.015625)"/>
       <path id="ArialMT-74" d="M 1650 503 
L 1731 6 
Q 1494 -44 1306 -44 
Q 1000 -44 831 53 
Q 663 150 594 308 
Q 525 466 525 972 
L 525 2881 
L 113 2881 
L 113 3319 
L 525 3319 
L 525 4141 
L 1084 4478 
L 1084 3319 
L 1650 3319 
L 1650 2881 
L 1084 2881 
L 1084 941 
Q 1084 700 1114 631 
Q 1144 563 1211 522 
Q 1278 481 1403 481 
Q 1497 481 1650 503 
z
" transform="scale(0.015625)"/>
       <path id="ArialMT-69" d="M 425 3934 
L 425 4581 
L 988 4581 
L 988 3934 
L 425 3934 
z
M 425 0 
L 425 3319 
L 988 3319 
L 988 0 
L 425 0 
z
" transform="scale(0.015625)"/>
       <path id="ArialMT-6d" d="M 422 0 
L 422 3319 
L 925 3319 
L 925 2853 
Q 1081 3097 1340 3245 
Q 1600 3394 1931 3394 
Q 2300 3394 2536 3241 
Q 2772 3088 2869 2813 
Q 3263 3394 3894 3394 
Q 4388 3394 4653 3120 
Q 4919 2847 4919 2278 
L 4919 0 
L 4359 0 
L 4359 2091 
Q 4359 2428 4304 2576 
Q 4250 2725 4106 2815 
Q 3963 2906 3769 2906 
Q 3419 2906 3187 2673 
Q 2956 2441 2956 1928 
L 2956 0 
L 2394 0 
L 2394 2156 
Q 2394 2531 2256 2718 
Q 2119 2906 1806 2906 
Q 1569 2906 1367 2781 
Q 1166 2656 1075 2415 
Q 984 2175 984 1722 
L 984 0 
L 422 0 
z
" transform="scale(0.015625)"/>
       <path id="ArialMT-65" d="M 2694 1069 
L 3275 997 
Q 3138 488 2766 206 
Q 2394 -75 1816 -75 
Q 1088 -75 661 373 
Q 234 822 234 1631 
Q 234 2469 665 2931 
Q 1097 3394 1784 3394 
Q 2450 3394 2872 2941 
Q 3294 2488 3294 1666 
Q 3294 1616 3291 1516 
L 816 1516 
Q 847 969 1125 678 
Q 1403 388 1819 388 
Q 2128 388 2347 550 
Q 2566 713 2694 1069 
z
M 847 1978 
L 2700 1978 
Q 2663 2397 2488 2606 
Q 2219 2931 1791 2931 
Q 1403 2931 1139 2672 
Q 875 2413 847 1978 
z
" transform="scale(0.015625)"/>
       <path id="ArialMT-29" d="M 791 -1347 
L 388 -1347 
Q 1322 153 1322 1656 
Q 1322 2244 1188 2822 
Q 1081 3291 891 3722 
Q 769 4003 388 4659 
L 791 4659 
Q 1378 3875 1659 3084 
Q 1900 2403 1900 1659 
Q 1900 816 1576 28 
Q 1253 -759 791 -1347 
z
" transform="scale(0.015625)"/>
      </defs>
      <use xlink:href="#ArialMT-6c"/>
      <use xlink:href="#ArialMT-6e" transform="translate(22.216797 0)"/>
      <use xlink:href="#ArialMT-28" transform="translate(77.832031 0)"/>
      <use xlink:href="#ArialMT-74" transform="translate(111.132812 0)"/>
      <use xlink:href="#ArialMT-69" transform="translate(138.916016 0)"/>
      <use xlink:href="#ArialMT-6d" transform="translate(161.132812 0)"/>
      <use xlink:href="#ArialMT-65" transform="translate(244.433594 0)"/>
      <use xlink:href="#ArialMT-29" transform="translate(300.048828 0)"/>
     </g>
    </g>
   </g>
   <g id="matplotlib.axis_2">
    <g id="ytick_1">
     <g id="line2d_5">
      <defs>
       <path id="mcefa7b071f" d="M 0 0 
L -3.5 0 
" style="stroke: #000000; stroke-width: 0.5"/>
      </defs>
      <g>
       <use xlink:href="#mcefa7b071f" x="30.088594" y="139.507246" style="stroke: #000000; stroke-width: 0.5"/>
      </g>
     </g>
     <g id="text_6">
      <!-- −6 -->
      <g transform="translate(15.1075 142.01248) scale(0.07 -0.07)">
       <defs>
        <path id="ArialMT-2212" d="M 3381 1997 
L 356 1997 
L 356 2522 
L 3381 2522 
L 3381 1997 
z
" transform="scale(0.015625)"/>
       </defs>
       <use xlink:href="#ArialMT-2212"/>
       <use xlink:href="#ArialMT-36" transform="translate(58.398438 0)"/>
      </g>
     </g>
    </g>
    <g id="ytick_2">
     <g id="line2d_6">
      <g>
       <use xlink:href="#mcefa7b071f" x="30.088594" y="109.093048" style="stroke: #000000; stroke-width: 0.5"/>
      </g>
     </g>
     <g id="text_7">
      <!-- −4 -->
      <g transform="translate(15.1075 111.598282) scale(0.07 -0.07)">
       <use xlink:href="#ArialMT-2212"/>
       <use xlink:href="#ArialMT-34" transform="translate(58.398438 0)"/>
      </g>
     </g>
    </g>
    <g id="ytick_3">
     <g id="line2d_7">
      <g>
       <use xlink:href="#mcefa7b071f" x="30.088594" y="78.67885" style="stroke: #000000; stroke-width: 0.5"/>
      </g>
     </g>
     <g id="text_8">
      <!-- −2 -->
      <g transform="translate(15.1075 81.184085) scale(0.07 -0.07)">
       <defs>
        <path id="ArialMT-32" d="M 3222 541 
L 3222 0 
L 194 0 
Q 188 203 259 391 
Q 375 700 629 1000 
Q 884 1300 1366 1694 
Q 2113 2306 2375 2664 
Q 2638 3022 2638 3341 
Q 2638 3675 2398 3904 
Q 2159 4134 1775 4134 
Q 1369 4134 1125 3890 
Q 881 3647 878 3216 
L 300 3275 
Q 359 3922 746 4261 
Q 1134 4600 1788 4600 
Q 2447 4600 2831 4234 
Q 3216 3869 3216 3328 
Q 3216 3053 3103 2787 
Q 2991 2522 2730 2228 
Q 2469 1934 1863 1422 
Q 1356 997 1212 845 
Q 1069 694 975 541 
L 3222 541 
z
" transform="scale(0.015625)"/>
       </defs>
       <use xlink:href="#ArialMT-2212"/>
       <use xlink:href="#ArialMT-32" transform="translate(58.398438 0)"/>
      </g>
     </g>
    </g>
    <g id="ytick_4">
     <g id="line2d_8">
      <g>
       <use xlink:href="#mcefa7b071f" x="30.088594" y="48.264653" style="stroke: #000000; stroke-width: 0.5"/>
      </g>
     </g>
     <g id="text_9">
      <!-- 0 -->
      <g transform="translate(19.195937 50.769887) scale(0.07 -0.07)">
       <defs>
        <path id="ArialMT-30" d="M 266 2259 
Q 266 3072 433 3567 
Q 600 4063 929 4331 
Q 1259 4600 1759 4600 
Q 2128 4600 2406 4451 
Q 2684 4303 2865 4023 
Q 3047 3744 3150 3342 
Q 3253 2941 3253 2259 
Q 3253 1453 3087 958 
Q 2922 463 2592 192 
Q 2263 -78 1759 -78 
Q 1097 -78 719 397 
Q 266 969 266 2259 
z
M 844 2259 
Q 844 1131 1108 757 
Q 1372 384 1759 384 
Q 2147 384 2411 759 
Q 2675 1134 2675 2259 
Q 2675 3391 2411 3762 
Q 2147 4134 1753 4134 
Q 1366 4134 1134 3806 
Q 844 3388 844 2259 
z
" transform="scale(0.015625)"/>
       </defs>
       <use xlink:href="#ArialMT-30"/>
      </g>
     </g>
    </g>
    <g id="ytick_5">
     <g id="line2d_9">
      <g>
       <use xlink:href="#mcefa7b071f" x="30.088594" y="17.850455" style="stroke: #000000; stroke-width: 0.5"/>
      </g>
     </g>
     <g id="text_10">
      <!-- 2 -->
      <g transform="translate(19.195937 20.355689) scale(0.07 -0.07)">
       <use xlink:href="#ArialMT-32"/>
      </g>
     </g>
    </g>
    <g id="text_11">
     <!-- ln(-ln(S(t))) -->
     <g transform="translate(9.42375 97.91875) rotate(-90) scale(0.08 -0.08)">
      <defs>
       <path id="ArialMT-2d" d="M 203 1375 
L 203 1941 
L 1931 1941 
L 1931 1375 
L 203 1375 
z
" transform="scale(0.015625)"/>
       <path id="ArialMT-53" d="M 288 1472 
L 859 1522 
Q 900 1178 1048 958 
Q 1197 738 1509 602 
Q 1822 466 2213 466 
Q 2559 466 2825 569 
Q 3091 672 3220 851 
Q 3350 1031 3350 1244 
Q 3350 1459 3225 1620 
Q 3100 1781 2813 1891 
Q 2628 1963 1997 2114 
Q 1366 2266 1113 2400 
Q 784 2572 623 2826 
Q 463 3081 463 3397 
Q 463 3744 659 4045 
Q 856 4347 1234 4503 
Q 1613 4659 2075 4659 
Q 2584 4659 2973 4495 
Q 3363 4331 3572 4012 
Q 3781 3694 3797 3291 
L 3216 3247 
Q 3169 3681 2898 3903 
Q 2628 4125 2100 4125 
Q 1550 4125 1298 3923 
Q 1047 3722 1047 3438 
Q 1047 3191 1225 3031 
Q 1400 2872 2139 2705 
Q 2878 2538 3153 2413 
Q 3553 2228 3743 1945 
Q 3934 1663 3934 1294 
Q 3934 928 3725 604 
Q 3516 281 3123 101 
Q 2731 -78 2241 -78 
Q 1619 -78 1198 103 
Q 778 284 539 648 
Q 300 1013 288 1472 
z
" transform="scale(0.015625)"/>
      </defs>
      <use xlink:href="#ArialMT-6c"/>
      <use xlink:href="#ArialMT-6e" transform="translate(22.216797 0)"/>
      <use xlink:href="#ArialMT-28" transform="translate(77.832031 0)"/>
      <use xlink:href="#ArialMT-2d" transform="translate(111.132812 0)"/>
      <use xlink:href="#ArialMT-6c" transform="translate(144.433594 0)"/>
      <use xlink:href="#ArialMT-6e" transform="translate(166.650391 0)"/>
      <use xlink:href="#ArialMT-28" transform="translate(222.265625 0)"/>
      <use xlink:href="#ArialMT-53" transform="translate(255.566406 0)"/>
      <use xlink:href="#ArialMT-28" transform="translate(322.265625 0)"/>
      <use xlink:href="#ArialMT-74" transform="translate(355.566406 0)"/>
      <use xlink:href="#ArialMT-29" transform="translate(383.349609 0)"/>
      <use xlink:href="#ArialMT-29" transform="translate(416.650391 0)"/>
      <use xlink:href="#ArialMT-29" transform="translate(449.951172 0)"/>
     </g>
    </g>
   </g>
   <g id="line2d_10">
    <path d="M 36.661027 114.021943 
L 53.431618 99.934805 
L 59.807501 90.78816 
L 70.20221 87.630662 
L 74.560065 79.760839 
L 78.502225 78.882909 
L 82.101134 76.484212 
L 85.41181 75.751082 
L 88.477017 72.468319 
L 91.330657 70.197509 
L 94.000059 69.152999 
L 96.507576 67.211167 
L 101.10802 66.295339 
L 103.229581 64.570311 
L 105.247609 63.356464 
L 107.171741 62.965162 
L 109.010327 62.200701 
L 112.459104 61.458628 
L 114.081326 60.383269 
L 115.642318 59.689029 
L 117.146534 57.69903 
L 118.597959 57.379213 
L 120.000173 56.74846 
L 121.356405 56.128699 
L 122.669575 55.518973 
L 123.942333 55.217589 
L 125.177092 54.918382 
L 126.376056 54.032788 
L 127.541242 53.451431 
L 128.674501 52.307052 
L 129.777537 51.742611 
L 130.851918 51.182421 
L 131.899097 50.625809 
L 132.920418 50.07211 
L 134.890379 48.97079 
L 135.841257 47.873048 
L 136.770765 46.773197 
L 137.679843 46.220571 
L 138.569369 44.541545 
L 139.440166 44.257342 
L 140.293008 42.51263 
L 141.12862 42.213603 
L 141.947684 40.985979 
L 142.750842 40.024256 
L 143.538702 39.358311 
L 144.311834 37.949504 
L 145.07078 37.577567 
L 145.81605 36.400437 
L 146.548128 35.983659 
L 147.267475 35.552179 
L 147.974524 34.637005 
L 150.025921 33.633974 
L 151.339091 32.510516 
L 152.611849 31.211354 
L 153.233836 28.664295 
L 153.846608 27.50411 
L 155.045572 23.744006 
L 168.109683 23.744006 
" clip-path="url(#pb669fb5845)" style="fill: none; stroke: #c62828; stroke-width: 0.8; stroke-linecap: square"/>
   </g>
   <g id="line2d_11">
    <path d="M 103.229581 113.819173 
L 105.247609 96.905079 
L 107.171741 94.508299 
L 109.010327 90.580421 
L 110.77065 88.924665 
L 114.081326 83.590557 
L 115.642318 82.486211 
L 117.146534 80.471488 
L 118.597959 78.654334 
L 120.000173 77.811812 
L 122.669575 75.499392 
L 123.942333 73.447395 
L 125.177092 72.194545 
L 126.376056 71.597625 
L 127.541242 69.909139 
L 128.674501 68.352014 
L 129.777537 65.989821 
L 130.851918 64.267347 
L 131.899097 63.856137 
L 132.920418 63.05441 
L 133.917125 62.27814 
L 134.890379 61.89882 
L 135.841257 60.792999 
L 136.770765 59.38508 
L 137.679843 58.706025 
L 138.569369 57.390875 
L 139.440166 57.070152 
L 140.293008 55.815434 
L 141.12862 55.187876 
L 141.947684 54.569649 
L 142.750842 53.959836 
L 143.538702 52.762011 
L 144.311834 52.466499 
L 145.07078 51.879518 
L 145.81605 51.29729 
L 146.548128 51.007724 
L 147.974524 49.857601 
L 148.669689 49.571642 
L 149.353364 48.716039 
L 150.025921 47.86183 
L 150.687717 47.576942 
L 151.339091 46.146615 
L 151.980365 45.852169 
L 152.611849 44.663122 
L 153.233836 43.139635 
L 153.846608 42.828149 
L 154.450434 41.551966 
L 155.045572 41.22397 
L 155.632268 39.865877 
L 156.210758 38.786127 
L 156.781269 37.635428 
L 157.344017 36.817045 
L 157.899212 35.007439 
L 158.447053 32.832093 
L 159.521434 32.196344 
L 160.568613 29.894997 
L 161.082426 28.913416 
L 161.589934 23.923855 
" clip-path="url(#pb669fb5845)" style="fill: none; stroke: #f57c00; stroke-width: 0.8; stroke-linecap: square"/>
   </g>
   <g id="line2d_12">
    <path d="M 74.560065 124.613139 
L 96.507576 114.021943 
L 107.171741 107.805276 
L 110.77065 103.379462 
L 112.459104 99.934805 
L 114.081326 90.78816 
L 117.146534 89.133148 
L 120.000173 87.630662 
L 122.669575 86.254063 
L 123.942333 81.662398 
L 125.177092 79.760839 
L 126.376056 76.484212 
L 127.541242 74.367684 
L 128.674501 71.875243 
L 129.777537 70.197509 
L 130.851918 69.668481 
L 131.899097 68.15947 
L 132.920418 67.211167 
L 134.890379 66.75242 
L 135.841257 65.007931 
L 136.770765 64.592178 
L 137.679843 64.183775 
L 138.569369 62.616907 
L 139.440166 61.503587 
L 140.293008 60.786998 
L 141.12862 60.435728 
L 141.947684 60.088871 
L 142.750842 59.407649 
L 143.538702 57.76958 
L 144.311834 57.13717 
L 145.07078 56.209654 
L 145.81605 55.603977 
L 146.548128 55.007398 
L 147.267475 54.127781 
L 147.974524 52.696049 
L 148.669689 51.575123 
L 149.353364 49.648683 
L 150.025921 49.103326 
L 150.687717 48.831081 
L 151.339091 48.559015 
L 151.980365 47.713341 
L 152.611849 47.431196 
L 153.233836 46.013895 
L 153.846608 45.72834 
L 154.450434 45.441808 
L 155.045572 44.575033 
L 155.632268 44.283243 
L 156.210758 43.989768 
L 156.781269 43.097531 
L 157.344017 42.795562 
L 157.899212 42.490975 
L 158.447053 40.264142 
L 158.987732 39.587841 
L 159.521434 39.24096 
L 161.082426 38.526985 
L 161.589934 37.395023 
L 162.09129 36.167232 
L 163.076131 34.310737 
L 163.559895 33.791129 
L 164.038066 33.241625 
L 164.978138 32.656426 
L 165.440281 28.777476 
L 165.897317 26.100989 
" clip-path="url(#pb669fb5845)" style="fill: none; stroke: #1565c0; stroke-width: 0.8; stroke-linecap: square"/>
   </g>
   <g id="patch_3">
    <path d="M 30.088594 141.11125 
L 30.088594 16.06875 
" style="fill: none; stroke: #000000; stroke-width: 0.5; stroke-linejoin: miter; stroke-linecap: square"/>
   </g>
   <g id="patch_4">
    <path d="M 174.682115 141.11125 
L 174.682115 16.06875 
" style="fill: none; stroke: #000000; stroke-width: 0.5; stroke-linejoin: miter; stroke-linecap: square"/>
   </g>
   <g id="patch_5">
    <path d="M 30.088594 141.11125 
L 174.682115 141.11125 
" style="fill: none; stroke: #000000; stroke-width: 0.5; stroke-linejoin: miter; stroke-linecap: square"/>
   </g>
   <g id="patch_6">
    <path d="M 30.088594 16.06875 
L 174.682115 16.06875 
" style="fill: none; stroke: #000000; stroke-width: 0.5; stroke-linejoin: miter; stroke-linecap: square"/>
   </g>
   <g id="text_12">
    <!-- 2to1.2 -->
    <g transform="translate(89.381058 10.06875) scale(0.09 -0.09)">
     <defs>
      <path id="Arial-BoldMT-32" d="M 3238 816 
L 3238 0 
L 159 0 
Q 209 463 459 877 
Q 709 1291 1447 1975 
Q 2041 2528 2175 2725 
Q 2356 2997 2356 3263 
Q 2356 3556 2198 3714 
Q 2041 3872 1763 3872 
Q 1488 3872 1325 3706 
Q 1163 3541 1138 3156 
L 263 3244 
Q 341 3969 753 4284 
Q 1166 4600 1784 4600 
Q 2463 4600 2850 4234 
Q 3238 3869 3238 3325 
Q 3238 3016 3127 2736 
Q 3016 2456 2775 2150 
Q 2616 1947 2200 1565 
Q 1784 1184 1673 1059 
Q 1563 934 1494 816 
L 3238 816 
z
" transform="scale(0.015625)"/>
      <path id="Arial-BoldMT-74" d="M 1981 3319 
L 1981 2619 
L 1381 2619 
L 1381 1281 
Q 1381 875 1398 808 
Q 1416 741 1477 697 
Q 1538 653 1625 653 
Q 1747 653 1978 738 
L 2053 56 
Q 1747 -75 1359 -75 
Q 1122 -75 931 4 
Q 741 84 652 211 
Q 563 338 528 553 
Q 500 706 500 1172 
L 500 2619 
L 97 2619 
L 97 3319 
L 500 3319 
L 500 3978 
L 1381 4491 
L 1381 3319 
L 1981 3319 
z
" transform="scale(0.015625)"/>
      <path id="Arial-BoldMT-6f" d="M 256 1706 
Q 256 2144 472 2553 
Q 688 2963 1083 3178 
Q 1478 3394 1966 3394 
Q 2719 3394 3200 2905 
Q 3681 2416 3681 1669 
Q 3681 916 3195 420 
Q 2709 -75 1972 -75 
Q 1516 -75 1102 131 
Q 688 338 472 736 
Q 256 1134 256 1706 
z
M 1156 1659 
Q 1156 1166 1390 903 
Q 1625 641 1969 641 
Q 2313 641 2545 903 
Q 2778 1166 2778 1666 
Q 2778 2153 2545 2415 
Q 2313 2678 1969 2678 
Q 1625 2678 1390 2415 
Q 1156 2153 1156 1659 
z
" transform="scale(0.015625)"/>
      <path id="Arial-BoldMT-31" d="M 2519 0 
L 1641 0 
L 1641 3309 
Q 1159 2859 506 2644 
L 506 3441 
Q 850 3553 1253 3867 
Q 1656 4181 1806 4600 
L 2519 4600 
L 2519 0 
z
" transform="scale(0.015625)"/>
      <path id="Arial-BoldMT-2e" d="M 459 0 
L 459 878 
L 1338 878 
L 1338 0 
L 459 0 
z
" transform="scale(0.015625)"/>
     </defs>
     <use xlink:href="#Arial-BoldMT-32"/>
     <use xlink:href="#Arial-BoldMT-74" transform="translate(55.615234 0)"/>
     <use xlink:href="#Arial-BoldMT-6f" transform="translate(88.916016 0)"/>
     <use xlink:href="#Arial-BoldMT-31" transform="translate(150 0)"/>
     <use xlink:href="#Arial-BoldMT-2e" transform="translate(205.615234 0)"/>
     <use xlink:href="#Arial-BoldMT-32" transform="translate(233.398438 0)"/>
    </g>
   </g>
   <g id="legend_1">
    <g id="line2d_13">
     <path d="M 35.488594 23.663437 
L 41.488594 23.663437 
L 47.488594 23.663437 
" style="fill: none; stroke: #c62828; stroke-width: 0.8; stroke-linecap: square"/>
    </g>
    <g id="text_13">
     <!-- Near -->
     <g transform="translate(52.288594 25.763437) scale(0.06 -0.06)">
      <defs>
       <path id="ArialMT-4e" d="M 488 0 
L 488 4581 
L 1109 4581 
L 3516 984 
L 3516 4581 
L 4097 4581 
L 4097 0 
L 3475 0 
L 1069 3600 
L 1069 0 
L 488 0 
z
" transform="scale(0.015625)"/>
       <path id="ArialMT-61" d="M 2588 409 
Q 2275 144 1986 34 
Q 1697 -75 1366 -75 
Q 819 -75 525 192 
Q 231 459 231 875 
Q 231 1119 342 1320 
Q 453 1522 633 1644 
Q 813 1766 1038 1828 
Q 1203 1872 1538 1913 
Q 2219 1994 2541 2106 
Q 2544 2222 2544 2253 
Q 2544 2597 2384 2738 
Q 2169 2928 1744 2928 
Q 1347 2928 1158 2789 
Q 969 2650 878 2297 
L 328 2372 
Q 403 2725 575 2942 
Q 747 3159 1072 3276 
Q 1397 3394 1825 3394 
Q 2250 3394 2515 3294 
Q 2781 3194 2906 3042 
Q 3031 2891 3081 2659 
Q 3109 2516 3109 2141 
L 3109 1391 
Q 3109 606 3145 398 
Q 3181 191 3288 0 
L 2700 0 
Q 2613 175 2588 409 
z
M 2541 1666 
Q 2234 1541 1622 1453 
Q 1275 1403 1131 1340 
Q 988 1278 909 1158 
Q 831 1038 831 891 
Q 831 666 1001 516 
Q 1172 366 1500 366 
Q 1825 366 2078 508 
Q 2331 650 2450 897 
Q 2541 1088 2541 1459 
L 2541 1666 
z
" transform="scale(0.015625)"/>
       <path id="ArialMT-72" d="M 416 0 
L 416 3319 
L 922 3319 
L 922 2816 
Q 1116 3169 1280 3281 
Q 1444 3394 1641 3394 
Q 1925 3394 2219 3213 
L 2025 2691 
Q 1819 2813 1613 2813 
Q 1428 2813 1281 2702 
Q 1134 2591 1072 2394 
Q 978 2094 978 1738 
L 978 0 
L 416 0 
z
" transform="scale(0.015625)"/>
      </defs>
      <use xlink:href="#ArialMT-4e"/>
      <use xlink:href="#ArialMT-65" transform="translate(72.216797 0)"/>
      <use xlink:href="#ArialMT-61" transform="translate(127.832031 0)"/>
      <use xlink:href="#ArialMT-72" transform="translate(183.447266 0)"/>
     </g>
    </g>
    <g id="line2d_14">
     <path d="M 35.488594 32.150625 
L 41.488594 32.150625 
L 47.488594 32.150625 
" style="fill: none; stroke: #f57c00; stroke-width: 0.8; stroke-linecap: square"/>
    </g>
    <g id="text_14">
     <!-- Mid -->
     <g transform="translate(52.288594 34.250625) scale(0.06 -0.06)">
      <defs>
       <path id="ArialMT-4d" d="M 475 0 
L 475 4581 
L 1388 4581 
L 2472 1338 
Q 2622 884 2691 659 
Q 2769 909 2934 1394 
L 4031 4581 
L 4847 4581 
L 4847 0 
L 4263 0 
L 4263 3834 
L 2931 0 
L 2384 0 
L 1059 3900 
L 1059 0 
L 475 0 
z
" transform="scale(0.015625)"/>
       <path id="ArialMT-64" d="M 2575 0 
L 2575 419 
Q 2259 -75 1647 -75 
Q 1250 -75 917 144 
Q 584 363 401 755 
Q 219 1147 219 1656 
Q 219 2153 384 2558 
Q 550 2963 881 3178 
Q 1213 3394 1622 3394 
Q 1922 3394 2156 3267 
Q 2391 3141 2538 2938 
L 2538 4581 
L 3097 4581 
L 3097 0 
L 2575 0 
z
M 797 1656 
Q 797 1019 1065 703 
Q 1334 388 1700 388 
Q 2069 388 2326 689 
Q 2584 991 2584 1609 
Q 2584 2291 2321 2609 
Q 2059 2928 1675 2928 
Q 1300 2928 1048 2622 
Q 797 2316 797 1656 
z
" transform="scale(0.015625)"/>
      </defs>
      <use xlink:href="#ArialMT-4d"/>
      <use xlink:href="#ArialMT-69" transform="translate(83.300781 0)"/>
      <use xlink:href="#ArialMT-64" transform="translate(105.517578 0)"/>
     </g>
    </g>
    <g id="line2d_15">
     <path d="M 35.488594 40.637812 
L 41.488594 40.637812 
L 47.488594 40.637812 
" style="fill: none; stroke: #1565c0; stroke-width: 0.8; stroke-linecap: square"/>
    </g>
    <g id="text_15">
     <!-- Far -->
     <g transform="translate(52.288594 42.737812) scale(0.06 -0.06)">
      <defs>
       <path id="ArialMT-46" d="M 525 0 
L 525 4581 
L 3616 4581 
L 3616 4041 
L 1131 4041 
L 1131 2622 
L 3281 2622 
L 3281 2081 
L 1131 2081 
L 1131 0 
L 525 0 
z
" transform="scale(0.015625)"/>
      </defs>
      <use xlink:href="#ArialMT-46"/>
      <use xlink:href="#ArialMT-61" transform="translate(61.083984 0)"/>
      <use xlink:href="#ArialMT-72" transform="translate(116.699219 0)"/>
     </g>
    </g>
   </g>
  </g>
  <g id="axes_2">
   <g id="patch_7">
    <path d="M 187.923083 141.11125 
L 332.516605 141.11125 
L 332.516605 16.06875 
L 187.923083 16.06875 
z
" style="fill: #ffffff"/>
   </g>
   <g id="matplotlib.axis_3">
    <g id="xtick_5">
     <g id="line2d_16">
      <g>
       <use xlink:href="#m405feb1b31" x="188.517454" y="141.11125" style="stroke: #000000; stroke-width: 0.5"/>
      </g>
     </g>
     <g id="text_16">
      <!-- 4.5 -->
      <g transform="translate(183.652454 153.121719) scale(0.07 -0.07)">
       <defs>
        <path id="ArialMT-2e" d="M 581 0 
L 581 641 
L 1222 641 
L 1222 0 
L 581 0 
z
" transform="scale(0.015625)"/>
       </defs>
       <use xlink:href="#ArialMT-34"/>
       <use xlink:href="#ArialMT-2e" transform="translate(55.615234 0)"/>
       <use xlink:href="#ArialMT-35" transform="translate(83.398438 0)"/>
      </g>
     </g>
    </g>
    <g id="xtick_6">
     <g id="line2d_17">
      <g>
       <use xlink:href="#m405feb1b31" x="216.93835" y="141.11125" style="stroke: #000000; stroke-width: 0.5"/>
      </g>
     </g>
     <g id="text_17">
      <!-- 5.0 -->
      <g transform="translate(212.07335 153.121719) scale(0.07 -0.07)">
       <use xlink:href="#ArialMT-35"/>
       <use xlink:href="#ArialMT-2e" transform="translate(55.615234 0)"/>
       <use xlink:href="#ArialMT-30" transform="translate(83.398438 0)"/>
      </g>
     </g>
    </g>
    <g id="xtick_7">
     <g id="line2d_18">
      <g>
       <use xlink:href="#m405feb1b31" x="245.359245" y="141.11125" style="stroke: #000000; stroke-width: 0.5"/>
      </g>
     </g>
     <g id="text_18">
      <!-- 5.5 -->
      <g transform="translate(240.494245 153.121719) scale(0.07 -0.07)">
       <use xlink:href="#ArialMT-35"/>
       <use xlink:href="#ArialMT-2e" transform="translate(55.615234 0)"/>
       <use xlink:href="#ArialMT-35" transform="translate(83.398438 0)"/>
      </g>
     </g>
    </g>
    <g id="xtick_8">
     <g id="line2d_19">
      <g>
       <use xlink:href="#m405feb1b31" x="273.780141" y="141.11125" style="stroke: #000000; stroke-width: 0.5"/>
      </g>
     </g>
     <g id="text_19">
      <!-- 6.0 -->
      <g transform="translate(268.915141 153.121719) scale(0.07 -0.07)">
       <use xlink:href="#ArialMT-36"/>
       <use xlink:href="#ArialMT-2e" transform="translate(55.615234 0)"/>
       <use xlink:href="#ArialMT-30" transform="translate(83.398438 0)"/>
      </g>
     </g>
    </g>
    <g id="xtick_9">
     <g id="line2d_20">
      <g>
       <use xlink:href="#m405feb1b31" x="302.201037" y="141.11125" style="stroke: #000000; stroke-width: 0.5"/>
      </g>
     </g>
     <g id="text_20">
      <!-- 6.5 -->
      <g transform="translate(297.336037 153.121719) scale(0.07 -0.07)">
       <use xlink:href="#ArialMT-36"/>
       <use xlink:href="#ArialMT-2e" transform="translate(55.615234 0)"/>
       <use xlink:href="#ArialMT-35" transform="translate(83.398438 0)"/>
      </g>
     </g>
    </g>
    <g id="xtick_10">
     <g id="line2d_21">
      <g>
       <use xlink:href="#m405feb1b31" x="330.621932" y="141.11125" style="stroke: #000000; stroke-width: 0.5"/>
      </g>
     </g>
     <g id="text_21">
      <!-- 7.0 -->
      <g transform="translate(325.756932 153.121719) scale(0.07 -0.07)">
       <use xlink:href="#ArialMT-37"/>
       <use xlink:href="#ArialMT-2e" transform="translate(55.615234 0)"/>
       <use xlink:href="#ArialMT-30" transform="translate(83.398438 0)"/>
      </g>
     </g>
    </g>
    <g id="text_22">
     <!-- ln(time) -->
     <g transform="translate(246.886719 164.336719) scale(0.08 -0.08)">
      <use xlink:href="#ArialMT-6c"/>
      <use xlink:href="#ArialMT-6e" transform="translate(22.216797 0)"/>
      <use xlink:href="#ArialMT-28" transform="translate(77.832031 0)"/>
      <use xlink:href="#ArialMT-74" transform="translate(111.132812 0)"/>
      <use xlink:href="#ArialMT-69" transform="translate(138.916016 0)"/>
      <use xlink:href="#ArialMT-6d" transform="translate(161.132812 0)"/>
      <use xlink:href="#ArialMT-65" transform="translate(244.433594 0)"/>
      <use xlink:href="#ArialMT-29" transform="translate(300.048828 0)"/>
     </g>
    </g>
   </g>
   <g id="matplotlib.axis_4">
    <g id="ytick_6">
     <g id="line2d_22">
      <g>
       <use xlink:href="#mcefa7b071f" x="187.923083" y="139.507246" style="stroke: #000000; stroke-width: 0.5"/>
      </g>
     </g>
    </g>
    <g id="ytick_7">
     <g id="line2d_23">
      <g>
       <use xlink:href="#mcefa7b071f" x="187.923083" y="109.093048" style="stroke: #000000; stroke-width: 0.5"/>
      </g>
     </g>
    </g>
    <g id="ytick_8">
     <g id="line2d_24">
      <g>
       <use xlink:href="#mcefa7b071f" x="187.923083" y="78.67885" style="stroke: #000000; stroke-width: 0.5"/>
      </g>
     </g>
    </g>
    <g id="ytick_9">
     <g id="line2d_25">
      <g>
       <use xlink:href="#mcefa7b071f" x="187.923083" y="48.264653" style="stroke: #000000; stroke-width: 0.5"/>
      </g>
     </g>
    </g>
    <g id="ytick_10">
     <g id="line2d_26">
      <g>
       <use xlink:href="#mcefa7b071f" x="187.923083" y="17.850455" style="stroke: #000000; stroke-width: 0.5"/>
      </g>
     </g>
    </g>
   </g>
   <g id="line2d_27">
    <path d="M 194.495516 135.4275 
L 199.913117 114.271662 
L 204.859 110.853386 
L 224.657376 108.055826 
L 241.839562 105.686595 
L 265.704807 101.814531 
L 267.30609 91.938948 
L 268.863497 91.043904 
L 270.379368 89.389792 
L 271.855861 85.865398 
L 273.294971 85.24253 
L 274.698543 82.94467 
L 276.068291 79.993109 
L 278.712572 78.272494 
L 279.989969 74.919532 
L 281.23929 73.926295 
L 282.461741 73.606663 
L 283.658454 72.679122 
L 284.830492 71.794705 
L 285.97885 69.615569 
L 287.104467 67.885136 
L 288.208225 66.95719 
L 289.290959 65.205279 
L 290.353453 64.378101 
L 292.420655 63.383748 
L 293.426731 61.872807 
L 295.386987 61.690147 
L 296.342334 60.972006 
L 297.281889 60.795458 
L 298.206166 60.443995 
L 299.115654 59.584261 
L 300.010819 58.749313 
L 300.892104 57.936598 
L 301.759935 57.143824 
L 302.614715 55.609993 
L 303.456831 55.013182 
L 304.286653 54.717931 
L 305.104534 53.699428 
L 305.910814 53.555658 
L 306.705817 52.984452 
L 307.489855 52.559804 
L 308.263224 51.163652 
L 309.026213 50.749533 
L 309.779095 49.107249 
L 310.522136 47.882686 
L 311.255588 46.928898 
L 311.979697 45.969557 
L 312.694698 44.157576 
L 313.400816 43.587866 
L 314.09827 43.15554 
L 314.78727 42.423646 
L 315.468018 40.590988 
L 316.14071 40.272175 
L 316.805534 39.116672 
L 317.462672 37.699495 
L 318.112299 36.939521 
L 318.754586 36.543437 
L 319.389697 34.819164 
L 320.017789 34.096748 
L 320.639017 33.843927 
L 321.253529 32.159891 
L 321.861468 31.168967 
L 322.462974 30.807138 
L 323.647221 29.129017 
L 324.230219 28.628437 
L 324.807298 25.975904 
L 325.378577 23.718052 
L 325.944172 21.7525 
" clip-path="url(#p1aa6c0353d)" style="fill: none; stroke: #c62828; stroke-width: 0.8; stroke-linecap: square"/>
   </g>
   <g id="line2d_28">
    <path d="M 233.895243 135.378126 
L 241.839562 124.812581 
L 255.015581 114.222045 
L 265.704807 108.006045 
L 267.30609 101.7645 
L 268.863497 97.313459 
L 270.379368 90.144899 
L 271.855861 86.461196 
L 273.294971 84.590474 
L 274.698543 82.902236 
L 276.068291 81.367094 
L 278.712572 78.654997 
L 279.989969 76.30589 
L 281.23929 75.237239 
L 282.461741 74.8878 
L 283.658454 72.919077 
L 284.830492 72.610112 
L 285.97885 71.135817 
L 287.104467 69.501745 
L 288.208225 68.234411 
L 289.290959 67.039891 
L 290.353453 66.130077 
L 291.396451 65.256398 
L 292.420655 64.204923 
L 293.426731 64.00023 
L 294.415309 63.19865 
L 295.386987 62.418931 
L 296.342334 61.109686 
L 297.281889 59.861746 
L 298.206166 59.002886 
L 299.115654 58.333121 
L 300.010819 57.840043 
L 300.892104 57.034363 
L 301.759935 56.875487 
L 302.614715 56.091505 
L 303.456831 55.171597 
L 304.286653 54.869521 
L 305.104534 54.569545 
L 305.910814 53.828112 
L 306.705817 52.520032 
L 307.489855 51.380119 
L 308.263224 50.395679 
L 309.026213 49.837083 
L 309.779095 48.447848 
L 310.522136 48.03188 
L 311.255588 47.060047 
L 311.979697 46.083037 
L 312.694698 43.949557 
L 313.400816 43.512607 
L 314.09827 42.624105 
L 314.78727 41.865616 
L 315.468018 40.607854 
L 316.14071 39.618439 
L 316.805534 36.880629 
L 317.462672 36.05613 
L 318.112299 34.940425 
L 318.754586 34.460771 
L 319.389697 33.427031 
L 320.017789 32.863912 
L 320.639017 32.568161 
L 321.253529 31.611237 
L 321.861468 30.900193 
L 322.462974 30.11012 
L 323.058182 29.212323 
L 323.647221 26.85177 
L 324.807298 23.776369 
" clip-path="url(#p1aa6c0353d)" style="fill: none; stroke: #f57c00; stroke-width: 0.8; stroke-linecap: square"/>
   </g>
   <g id="line2d_29">
    <path d="M 204.859 135.4275 
L 224.657376 124.862035 
L 230.97964 118.671313 
L 233.895243 114.271662 
L 248.808498 110.853386 
L 265.704807 105.686595 
L 267.30609 96.121058 
L 268.863497 91.043904 
L 270.379368 89.389792 
L 271.855861 86.51254 
L 273.294971 83.502151 
L 274.698543 80.948689 
L 276.068291 79.581109 
L 277.405806 78.313082 
L 278.712572 76.741361 
L 279.989969 74.61433 
L 281.23929 73.011926 
L 282.461741 72.407293 
L 283.658454 71.252378 
L 284.830492 70.69967 
L 287.104467 69.381794 
L 288.208225 69.128275 
L 289.290959 67.905621 
L 290.353453 66.74551 
L 291.396451 65.860347 
L 292.420655 65.001603 
L 293.426731 63.77103 
L 294.415309 62.984818 
L 295.386987 62.601015 
L 296.342334 61.666412 
L 297.281889 60.764294 
L 298.206166 60.587457 
L 299.115654 59.373891 
L 300.010819 58.702541 
L 300.892104 58.537003 
L 301.759935 58.045595 
L 302.614715 57.401844 
L 303.456831 56.614017 
L 304.286653 55.387828 
L 305.104534 54.788622 
L 305.910814 54.344593 
L 306.705817 54.050946 
L 307.489855 53.613789 
L 308.263224 53.036608 
L 309.026213 52.323261 
L 309.779095 52.181565 
L 310.522136 52.040168 
L 311.255588 51.89906 
L 311.979697 51.337298 
L 312.694698 50.918488 
L 313.400816 50.224418 
L 314.09827 48.983804 
L 314.78727 48.297075 
L 315.468018 47.472955 
L 316.14071 45.814808 
L 316.805534 44.266887 
L 317.462672 43.257857 
L 318.112299 41.919853 
L 318.754586 40.35677 
L 319.389697 39.02333 
L 320.017789 38.31927 
L 320.639017 36.609598 
L 321.253529 35.557563 
L 321.861468 35.109297 
L 322.462974 32.809631 
L 323.058182 30.469982 
L 323.647221 29.169613 
L 324.230219 27.507281 
L 324.807298 23.746483 
" clip-path="url(#p1aa6c0353d)" style="fill: none; stroke: #1565c0; stroke-width: 0.8; stroke-linecap: square"/>
   </g>
   <g id="patch_8">
    <path d="M 187.923083 141.11125 
L 187.923083 16.06875 
" style="fill: none; stroke: #000000; stroke-width: 0.5; stroke-linejoin: miter; stroke-linecap: square"/>
   </g>
   <g id="patch_9">
    <path d="M 332.516605 141.11125 
L 332.516605 16.06875 
" style="fill: none; stroke: #000000; stroke-width: 0.5; stroke-linejoin: miter; stroke-linecap: square"/>
   </g>
   <g id="patch_10">
    <path d="M 187.923083 141.11125 
L 332.516605 141.11125 
" style="fill: none; stroke: #000000; stroke-width: 0.5; stroke-linejoin: miter; stroke-linecap: square"/>
   </g>
   <g id="patch_11">
    <path d="M 187.923083 16.06875 
L 332.516605 16.06875 
" style="fill: none; stroke: #000000; stroke-width: 0.5; stroke-linejoin: miter; stroke-linecap: square"/>
   </g>
   <g id="text_23">
    <!-- agar.4 -->
    <g transform="translate(247.209922 10.06875) scale(0.09 -0.09)">
     <defs>
      <path id="Arial-BoldMT-61" d="M 1116 2306 
L 319 2450 
Q 453 2931 781 3162 
Q 1109 3394 1756 3394 
Q 2344 3394 2631 3255 
Q 2919 3116 3036 2902 
Q 3153 2688 3153 2116 
L 3144 1091 
Q 3144 653 3186 445 
Q 3228 238 3344 0 
L 2475 0 
Q 2441 88 2391 259 
Q 2369 338 2359 363 
Q 2134 144 1878 34 
Q 1622 -75 1331 -75 
Q 819 -75 523 203 
Q 228 481 228 906 
Q 228 1188 362 1408 
Q 497 1628 739 1745 
Q 981 1863 1438 1950 
Q 2053 2066 2291 2166 
L 2291 2253 
Q 2291 2506 2166 2614 
Q 2041 2722 1694 2722 
Q 1459 2722 1328 2630 
Q 1197 2538 1116 2306 
z
M 2291 1594 
Q 2122 1538 1756 1459 
Q 1391 1381 1278 1306 
Q 1106 1184 1106 997 
Q 1106 813 1243 678 
Q 1381 544 1594 544 
Q 1831 544 2047 700 
Q 2206 819 2256 991 
Q 2291 1103 2291 1419 
L 2291 1594 
z
" transform="scale(0.015625)"/>
      <path id="Arial-BoldMT-67" d="M 378 -219 
L 1381 -341 
Q 1406 -516 1497 -581 
Q 1622 -675 1891 -675 
Q 2234 -675 2406 -572 
Q 2522 -503 2581 -350 
Q 2622 -241 2622 53 
L 2622 538 
Q 2228 0 1628 0 
Q 959 0 569 566 
Q 263 1013 263 1678 
Q 263 2513 664 2953 
Q 1066 3394 1663 3394 
Q 2278 3394 2678 2853 
L 2678 3319 
L 3500 3319 
L 3500 341 
Q 3500 -247 3403 -537 
Q 3306 -828 3131 -993 
Q 2956 -1159 2664 -1253 
Q 2372 -1347 1925 -1347 
Q 1081 -1347 728 -1058 
Q 375 -769 375 -325 
Q 375 -281 378 -219 
z
M 1163 1728 
Q 1163 1200 1367 954 
Q 1572 709 1872 709 
Q 2194 709 2416 961 
Q 2638 1213 2638 1706 
Q 2638 2222 2425 2472 
Q 2213 2722 1888 2722 
Q 1572 2722 1367 2476 
Q 1163 2231 1163 1728 
z
" transform="scale(0.015625)"/>
      <path id="Arial-BoldMT-72" d="M 1300 0 
L 422 0 
L 422 3319 
L 1238 3319 
L 1238 2847 
Q 1447 3181 1614 3287 
Q 1781 3394 1994 3394 
Q 2294 3394 2572 3228 
L 2300 2463 
Q 2078 2606 1888 2606 
Q 1703 2606 1575 2504 
Q 1447 2403 1373 2137 
Q 1300 1872 1300 1025 
L 1300 0 
z
" transform="scale(0.015625)"/>
      <path id="Arial-BoldMT-34" d="M 1994 0 
L 1994 922 
L 119 922 
L 119 1691 
L 2106 4600 
L 2844 4600 
L 2844 1694 
L 3413 1694 
L 3413 922 
L 2844 922 
L 2844 0 
L 1994 0 
z
M 1994 1694 
L 1994 3259 
L 941 1694 
L 1994 1694 
z
" transform="scale(0.015625)"/>
     </defs>
     <use xlink:href="#Arial-BoldMT-61"/>
     <use xlink:href="#Arial-BoldMT-67" transform="translate(55.615234 0)"/>
     <use xlink:href="#Arial-BoldMT-61" transform="translate(116.699219 0)"/>
     <use xlink:href="#Arial-BoldMT-72" transform="translate(172.314453 0)"/>
     <use xlink:href="#Arial-BoldMT-2e" transform="translate(205.730469 0)"/>
     <use xlink:href="#Arial-BoldMT-34" transform="translate(233.513672 0)"/>
    </g>
   </g>
   <g id="legend_2">
    <g id="line2d_30">
     <path d="M 193.323083 23.663437 
L 199.323083 23.663437 
L 205.323083 23.663437 
" style="fill: none; stroke: #c62828; stroke-width: 0.8; stroke-linecap: square"/>
    </g>
    <g id="text_24">
     <!-- Near -->
     <g transform="translate(210.123083 25.763437) scale(0.06 -0.06)">
      <use xlink:href="#ArialMT-4e"/>
      <use xlink:href="#ArialMT-65" transform="translate(72.216797 0)"/>
      <use xlink:href="#ArialMT-61" transform="translate(127.832031 0)"/>
      <use xlink:href="#ArialMT-72" transform="translate(183.447266 0)"/>
     </g>
    </g>
    <g id="line2d_31">
     <path d="M 193.323083 32.150625 
L 199.323083 32.150625 
L 205.323083 32.150625 
" style="fill: none; stroke: #f57c00; stroke-width: 0.8; stroke-linecap: square"/>
    </g>
    <g id="text_25">
     <!-- Mid -->
     <g transform="translate(210.123083 34.250625) scale(0.06 -0.06)">
      <use xlink:href="#ArialMT-4d"/>
      <use xlink:href="#ArialMT-69" transform="translate(83.300781 0)"/>
      <use xlink:href="#ArialMT-64" transform="translate(105.517578 0)"/>
     </g>
    </g>
    <g id="line2d_32">
     <path d="M 193.323083 40.637812 
L 199.323083 40.637812 
L 205.323083 40.637812 
" style="fill: none; stroke: #1565c0; stroke-width: 0.8; stroke-linecap: square"/>
    </g>
    <g id="text_26">
     <!-- Far -->
     <g transform="translate(210.123083 42.737812) scale(0.06 -0.06)">
      <use xlink:href="#ArialMT-46"/>
      <use xlink:href="#ArialMT-61" transform="translate(61.083984 0)"/>
      <use xlink:href="#ArialMT-72" transform="translate(116.699219 0)"/>
     </g>
    </g>
   </g>
  </g>
  <g id="axes_3">
   <g id="patch_12">
    <path d="M 345.757572 141.11125 
L 490.351094 141.11125 
L 490.351094 16.06875 
L 345.757572 16.06875 
z
" style="fill: #ffffff"/>
   </g>
   <g id="matplotlib.axis_5">
    <g id="xtick_11">
     <g id="line2d_33">
      <g>
       <use xlink:href="#m405feb1b31" x="347.787392" y="141.11125" style="stroke: #000000; stroke-width: 0.5"/>
      </g>
     </g>
     <g id="text_27">
      <!-- 4 -->
      <g transform="translate(345.841064 153.121719) scale(0.07 -0.07)">
       <use xlink:href="#ArialMT-34"/>
      </g>
     </g>
    </g>
    <g id="xtick_12">
     <g id="line2d_34">
      <g>
       <use xlink:href="#m405feb1b31" x="395.936569" y="141.11125" style="stroke: #000000; stroke-width: 0.5"/>
      </g>
     </g>
     <g id="text_28">
      <!-- 5 -->
      <g transform="translate(393.990241 153.121719) scale(0.07 -0.07)">
       <use xlink:href="#ArialMT-35"/>
      </g>
     </g>
    </g>
    <g id="xtick_13">
     <g id="line2d_35">
      <g>
       <use xlink:href="#m405feb1b31" x="444.085747" y="141.11125" style="stroke: #000000; stroke-width: 0.5"/>
      </g>
     </g>
     <g id="text_29">
      <!-- 6 -->
      <g transform="translate(442.139419 153.121719) scale(0.07 -0.07)">
       <use xlink:href="#ArialMT-36"/>
      </g>
     </g>
    </g>
    <g id="text_30">
     <!-- ln(time) -->
     <g transform="translate(404.721208 164.336719) scale(0.08 -0.08)">
      <use xlink:href="#ArialMT-6c"/>
      <use xlink:href="#ArialMT-6e" transform="translate(22.216797 0)"/>
      <use xlink:href="#ArialMT-28" transform="translate(77.832031 0)"/>
      <use xlink:href="#ArialMT-74" transform="translate(111.132812 0)"/>
      <use xlink:href="#ArialMT-69" transform="translate(138.916016 0)"/>
      <use xlink:href="#ArialMT-6d" transform="translate(161.132812 0)"/>
      <use xlink:href="#ArialMT-65" transform="translate(244.433594 0)"/>
      <use xlink:href="#ArialMT-29" transform="translate(300.048828 0)"/>
     </g>
    </g>
   </g>
   <g id="matplotlib.axis_6">
    <g id="ytick_11">
     <g id="line2d_36">
      <g>
       <use xlink:href="#mcefa7b071f" x="345.757572" y="139.507246" style="stroke: #000000; stroke-width: 0.5"/>
      </g>
     </g>
    </g>
    <g id="ytick_12">
     <g id="line2d_37">
      <g>
       <use xlink:href="#mcefa7b071f" x="345.757572" y="109.093048" style="stroke: #000000; stroke-width: 0.5"/>
      </g>
     </g>
    </g>
    <g id="ytick_13">
     <g id="line2d_38">
      <g>
       <use xlink:href="#mcefa7b071f" x="345.757572" y="78.67885" style="stroke: #000000; stroke-width: 0.5"/>
      </g>
     </g>
    </g>
    <g id="ytick_14">
     <g id="line2d_39">
      <g>
       <use xlink:href="#mcefa7b071f" x="345.757572" y="48.264653" style="stroke: #000000; stroke-width: 0.5"/>
      </g>
     </g>
    </g>
    <g id="ytick_15">
     <g id="line2d_40">
      <g>
       <use xlink:href="#mcefa7b071f" x="345.757572" y="17.850455" style="stroke: #000000; stroke-width: 0.5"/>
      </g>
     </g>
    </g>
   </g>
   <g id="line2d_41">
    <path d="M 352.330005 114.807022 
L 376.925839 110.40014 
L 385.704472 106.974589 
L 399.556127 104.169708 
L 402.475152 104.169708 
L 405.227283 99.713366 
L 412.649511 97.884007 
L 417.029728 94.758555 
L 421.044484 92.146264 
L 422.932929 87.925361 
L 424.750094 87.020978 
L 426.501167 86.16361 
L 428.190785 85.34841 
L 429.823117 83.117258 
L 431.40192 81.778423 
L 432.930593 80.536886 
L 434.412223 78.292442 
L 435.849619 76.301464 
L 437.245345 75.836393 
L 438.60175 75.382929 
L 441.205042 74.086125 
L 442.45574 73.673263 
L 443.674772 73.269306 
L 444.863701 70.658379 
L 446.023978 69.638029 
L 447.156952 68.666877 
L 448.263879 68.044052 
L 449.345928 65.998112 
L 450.404194 64.909468 
L 451.4397 63.617582 
L 452.453405 62.153889 
L 453.446206 61.918073 
L 454.41895 61.452821 
L 455.37243 60.324203 
L 456.307395 59.88544 
L 457.22455 59.027539 
L 458.124561 58.193509 
L 459.008057 57.380852 
L 459.875633 56.784025 
L 460.727853 55.428452 
L 461.565251 54.116814 
L 462.388334 53.565927 
L 463.197583 51.238148 
L 463.993456 50.187276 
L 464.776386 48.62556 
L 465.546789 47.240921 
L 466.30506 46.54604 
L 467.051574 45.671853 
L 467.78669 44.071818 
L 468.510751 43.160722 
L 469.224086 42.790356 
L 469.927006 42.037348 
L 470.619812 41.068342 
L 471.30279 39.643832 
L 471.976216 39.218411 
L 472.640353 37.877893 
L 473.295454 36.916468 
L 473.941762 35.044655 
L 474.579508 33.13897 
L 475.830207 32.405891 
L 476.44358 30.701662 
L 477.647373 30.205027 
L 478.238167 27.697692 
L 478.821801 26.84454 
L 479.398445 25.810861 
L 479.968264 24.463845 
L 480.531419 22.405894 
" clip-path="url(#p48a8c0bac2)" style="fill: none; stroke: #c62828; stroke-width: 0.8; stroke-linecap: square"/>
   </g>
   <g id="line2d_42">
    <path d="M 428.190785 131.577534 
L 431.40192 121.004929 
L 432.930593 114.807022 
L 435.849619 101.793109 
L 437.245345 96.271175 
L 439.920988 91.022151 
L 441.205042 82.486211 
L 443.674772 80.590719 
L 444.863701 75.895355 
L 447.156952 75.442359 
L 448.263879 73.734439 
L 450.404194 70.722616 
L 451.4397 68.723215 
L 452.453405 68.098125 
L 453.446206 66.326932 
L 454.41895 65.492768 
L 456.307395 64.426592 
L 457.22455 63.657981 
L 459.008057 61.954195 
L 459.875633 61.257772 
L 460.727853 60.356727 
L 461.565251 59.269955 
L 462.388334 58.221777 
L 463.993456 56.416788 
L 464.776386 55.072602 
L 465.546789 54.884178 
L 466.30506 53.040964 
L 467.051574 51.786713 
L 467.78669 51.256034 
L 468.510751 50.37859 
L 469.224086 49.334027 
L 469.927006 48.813846 
L 470.619812 47.601502 
L 471.30279 46.210107 
L 471.976216 45.684254 
L 472.640353 44.799898 
L 473.295454 44.442646 
L 473.941762 44.08298 
L 474.579508 42.237155 
L 475.208918 41.663342 
L 475.830207 40.679313 
L 476.44358 40.27426 
L 477.049238 39.226523 
L 477.647373 37.88532 
L 478.238167 37.169983 
L 478.821801 35.050819 
L 479.398445 34.756977 
L 479.968264 33.489391 
L 480.531419 32.411073 
L 481.088063 31.606266 
L 481.638345 31.170114 
L 482.182409 29.086214 
L 482.720395 28.436136 
L 483.252435 22.408579 
" clip-path="url(#p48a8c0bac2)" style="fill: none; stroke: #f57c00; stroke-width: 0.8; stroke-linecap: square"/>
   </g>
   <g id="line2d_43">
    <path d="M 366.18166 131.577534 
L 417.029728 121.004929 
L 424.750094 114.807022 
L 431.40192 104.169708 
L 432.930593 99.729954 
L 434.412223 97.906168 
L 435.849619 94.7889 
L 437.245345 88.924665 
L 438.60175 87.969124 
L 439.920988 84.619993 
L 441.205042 82.467745 
L 442.45574 80.557669 
L 443.674772 78.837983 
L 444.863701 74.91506 
L 446.023978 74.053752 
L 447.156952 72.059263 
L 448.263879 70.600725 
L 449.345928 70.252426 
L 450.404194 69.573567 
L 451.4397 67.360989 
L 452.453405 66.769428 
L 453.446206 66.193635 
L 454.41895 64.816435 
L 455.37243 64.550763 
L 456.307395 63.517316 
L 457.22455 62.2849 
L 458.124561 61.808465 
L 459.008057 61.573519 
L 459.875633 60.421869 
L 460.727853 60.19728 
L 461.565251 59.534047 
L 462.388334 59.097223 
L 463.197583 58.242131 
L 463.993456 57.82319 
L 464.776386 56.396874 
L 465.546789 55.999631 
L 466.30506 55.606483 
L 467.051574 55.217189 
L 467.78669 55.023915 
L 468.510751 54.449246 
L 469.224086 53.135016 
L 469.927006 52.765466 
L 470.619812 52.398202 
L 471.30279 50.58971 
L 471.976216 49.87593 
L 472.640353 49.165498 
L 473.295454 48.279956 
L 473.941762 47.748842 
L 474.579508 47.039572 
L 475.208918 45.790564 
L 475.830207 45.43078 
L 476.44358 44.523056 
L 477.049238 44.155923 
L 477.647373 42.077452 
L 478.238167 40.884294 
L 478.821801 38.97187 
L 479.398445 38.055704 
L 479.968264 35.480974 
L 480.531419 33.616822 
L 481.088063 32.907198 
L 481.638345 30.812339 
L 482.182409 26.930352 
L 483.252435 25.891019 
L 483.778661 22.469937 
" clip-path="url(#p48a8c0bac2)" style="fill: none; stroke: #1565c0; stroke-width: 0.8; stroke-linecap: square"/>
   </g>
   <g id="patch_13">
    <path d="M 345.757572 141.11125 
L 345.757572 16.06875 
" style="fill: none; stroke: #000000; stroke-width: 0.5; stroke-linejoin: miter; stroke-linecap: square"/>
   </g>
   <g id="patch_14">
    <path d="M 490.351094 141.11125 
L 490.351094 16.06875 
" style="fill: none; stroke: #000000; stroke-width: 0.5; stroke-linejoin: miter; stroke-linecap: square"/>
   </g>
   <g id="patch_15">
    <path d="M 345.757572 141.11125 
L 490.351094 141.11125 
" style="fill: none; stroke: #000000; stroke-width: 0.5; stroke-linejoin: miter; stroke-linecap: square"/>
   </g>
   <g id="patch_16">
    <path d="M 345.757572 16.06875 
L 490.351094 16.06875 
" style="fill: none; stroke: #000000; stroke-width: 0.5; stroke-linejoin: miter; stroke-linecap: square"/>
   </g>
   <g id="text_31">
    <!-- Green.1 -->
    <g transform="translate(401.296755 10.06875) scale(0.09 -0.09)">
     <defs>
      <path id="Arial-BoldMT-47" d="M 2597 1684 
L 2597 2456 
L 4591 2456 
L 4591 631 
Q 4300 350 3748 136 
Q 3197 -78 2631 -78 
Q 1913 -78 1378 223 
Q 844 525 575 1086 
Q 306 1647 306 2306 
Q 306 3022 606 3578 
Q 906 4134 1484 4431 
Q 1925 4659 2581 4659 
Q 3434 4659 3914 4301 
Q 4394 3944 4531 3313 
L 3613 3141 
Q 3516 3478 3248 3673 
Q 2981 3869 2581 3869 
Q 1975 3869 1617 3484 
Q 1259 3100 1259 2344 
Q 1259 1528 1621 1120 
Q 1984 713 2572 713 
Q 2863 713 3155 827 
Q 3447 941 3656 1103 
L 3656 1684 
L 2597 1684 
z
" transform="scale(0.015625)"/>
      <path id="Arial-BoldMT-65" d="M 2381 1056 
L 3256 909 
Q 3088 428 2723 176 
Q 2359 -75 1813 -75 
Q 947 -75 531 491 
Q 203 944 203 1634 
Q 203 2459 634 2926 
Q 1066 3394 1725 3394 
Q 2466 3394 2894 2905 
Q 3322 2416 3303 1406 
L 1103 1406 
Q 1113 1016 1316 798 
Q 1519 581 1822 581 
Q 2028 581 2168 693 
Q 2309 806 2381 1056 
z
M 2431 1944 
Q 2422 2325 2234 2523 
Q 2047 2722 1778 2722 
Q 1491 2722 1303 2513 
Q 1116 2303 1119 1944 
L 2431 1944 
z
" transform="scale(0.015625)"/>
      <path id="Arial-BoldMT-6e" d="M 3478 0 
L 2600 0 
L 2600 1694 
Q 2600 2231 2544 2389 
Q 2488 2547 2361 2634 
Q 2234 2722 2056 2722 
Q 1828 2722 1647 2597 
Q 1466 2472 1398 2265 
Q 1331 2059 1331 1503 
L 1331 0 
L 453 0 
L 453 3319 
L 1269 3319 
L 1269 2831 
Q 1703 3394 2363 3394 
Q 2653 3394 2893 3289 
Q 3134 3184 3257 3021 
Q 3381 2859 3429 2653 
Q 3478 2447 3478 2063 
L 3478 0 
z
" transform="scale(0.015625)"/>
     </defs>
     <use xlink:href="#Arial-BoldMT-47"/>
     <use xlink:href="#Arial-BoldMT-72" transform="translate(77.783203 0)"/>
     <use xlink:href="#Arial-BoldMT-65" transform="translate(116.699219 0)"/>
     <use xlink:href="#Arial-BoldMT-65" transform="translate(172.314453 0)"/>
     <use xlink:href="#Arial-BoldMT-6e" transform="translate(227.929688 0)"/>
     <use xlink:href="#Arial-BoldMT-2e" transform="translate(289.013672 0)"/>
     <use xlink:href="#Arial-BoldMT-31" transform="translate(316.796875 0)"/>
    </g>
   </g>
   <g id="legend_3">
    <g id="line2d_44">
     <path d="M 351.157572 23.663437 
L 357.157572 23.663437 
L 363.157572 23.663437 
" style="fill: none; stroke: #c62828; stroke-width: 0.8; stroke-linecap: square"/>
    </g>
    <g id="text_32">
     <!-- Near -->
     <g transform="translate(367.957572 25.763437) scale(0.06 -0.06)">
      <use xlink:href="#ArialMT-4e"/>
      <use xlink:href="#ArialMT-65" transform="translate(72.216797 0)"/>
      <use xlink:href="#ArialMT-61" transform="translate(127.832031 0)"/>
      <use xlink:href="#ArialMT-72" transform="translate(183.447266 0)"/>
     </g>
    </g>
    <g id="line2d_45">
     <path d="M 351.157572 32.150625 
L 357.157572 32.150625 
L 363.157572 32.150625 
" style="fill: none; stroke: #f57c00; stroke-width: 0.8; stroke-linecap: square"/>
    </g>
    <g id="text_33">
     <!-- Mid -->
     <g transform="translate(367.957572 34.250625) scale(0.06 -0.06)">
      <use xlink:href="#ArialMT-4d"/>
      <use xlink:href="#ArialMT-69" transform="translate(83.300781 0)"/>
      <use xlink:href="#ArialMT-64" transform="translate(105.517578 0)"/>
     </g>
    </g>
    <g id="line2d_46">
     <path d="M 351.157572 40.637812 
L 357.157572 40.637812 
L 363.157572 40.637812 
" style="fill: none; stroke: #1565c0; stroke-width: 0.8; stroke-linecap: square"/>
    </g>
    <g id="text_34">
     <!-- Far -->
     <g transform="translate(367.957572 42.737812) scale(0.06 -0.06)">
      <use xlink:href="#ArialMT-46"/>
      <use xlink:href="#ArialMT-61" transform="translate(61.083984 0)"/>
      <use xlink:href="#ArialMT-72" transform="translate(116.699219 0)"/>
     </g>
    </g>
   </g>
  </g>
 </g>
 <defs>
  <clipPath id="pb669fb5845">
   <rect x="30.088594" y="16.06875" width="144.593522" height="125.0425"/>
  </clipPath>
  <clipPath id="p1aa6c0353d">
   <rect x="187.923083" y="16.06875" width="144.593522" height="125.0425"/>
  </clipPath>
  <clipPath id="p48a8c0bac2">
   <rect x="345.757572" y="16.06875" width="144.593522" height="125.0425"/>
  </clipPath>
 </defs>
</svg>
