<?xml version="1.0" encoding="utf-8" standalone="no"?>
<!DOCTYPE svg PUBLIC "-//W3C//DTD SVG 1.1//EN"
  "http://www.w3.org/Graphics/SVG/1.1/DTD/svg11.dtd">
<svg xmlns:xlink="http://www.w3.org/1999/xlink" width="493.96pt" height="169.657969pt" viewBox="0 0 493.96 169.657969" xmlns="http://www.w3.org/2000/svg" version="1.1">
 <metadata>
  <rdf:RDF xmlns:dc="http://purl.org/dc/elements/1.1/" xmlns:cc="http://creativecommons.org/ns#" xmlns:rdf="http://www.w3.org/1999/02/22-rdf-syntax-ns#">
   <cc:Work>
    <dc:type rdf:resource="http://purl.org/dc/dcmitype/StillImage"/>
    <dc:date>2026-03-22T14:54:25.206629</dc:date>
    <dc:format>image/svg+xml</dc:format>
    <dc:creator>
     <cc:Agent>
      <dc:title>Matplotlib v3.10.8, https://matplotlib.org/</dc:title>
     </cc:Agent>
    </dc:creator>
   </cc:Work>
  </rdf:RDF>
 </metadata>
 <defs>
  <style type="text/css">*{stroke-linejoin: round; stroke-linecap: butt}</style>
 </defs>
 <g id="figure_1">
  <g id="patch_1">
   <path d="M 0 169.657969 
L 493.96 169.657969 
L 493.96 0 
L 0 0 
z
" style="fill: #ffffff"/>
  </g>
  <g id="axes_1">
   <g id="patch_2">
    <path d="M 31.8375 141.14875 
L 176.585 141.14875 
L 176.585 16.06875 
L 31.8375 16.06875 
z
" style="fill: #ffffff"/>
   </g>
   <g id="matplotlib.axis_1">
    <g id="xtick_1">
     <g id="line2d_1">
      <defs>
       <path id="m2d2c6a5526" d="M 0 0 
L 0 3.5 
" style="stroke: #000000; stroke-width: 0.5"/>
      </defs>
      <g>
       <use xlink:href="#m2d2c6a5526" x="32.695687" y="141.14875" style="stroke: #000000; stroke-width: 0.5"/>
      </g>
     </g>
     <g id="text_1">
      <!-- 0 -->
      <g transform="translate(30.749359 153.159219) scale(0.07 -0.07)">
       <defs>
        <path id="ArialMT-30" d="M 266 2259 
Q 266 3072 433 3567 
Q 600 4063 929 4331 
Q 1259 4600 1759 4600 
Q 2128 4600 2406 4451 
Q 2684 4303 2865 4023 
Q 3047 3744 3150 3342 
Q 3253 2941 3253 2259 
Q 3253 1453 3087 958 
Q 2922 463 2592 192 
Q 2263 -78 1759 -78 
Q 1097 -78 719 397 
Q 266 969 266 2259 
z
M 844 2259 
Q 844 1131 1108 757 
Q 1372 384 1759 384 
Q 2147 384 2411 759 
Q 2675 1134 2675 2259 
Q 2675 3391 2411 3762 
Q 2147 4134 1753 4134 
Q 1366 4134 1134 3806 
Q 844 3388 844 2259 
z
" transform="scale(0.015625)"/>
       </defs>
       <use xlink:href="#ArialMT-30"/>
      </g>
     </g>
    </g>
    <g id="xtick_2">
     <g id="line2d_2">
      <g>
       <use xlink:href="#m2d2c6a5526" x="75.605025" y="141.14875" style="stroke: #000000; stroke-width: 0.5"/>
      </g>
     </g>
     <g id="text_2">
      <!-- 5 -->
      <g transform="translate(73.658697 153.159219) scale(0.07 -0.07)">
       <defs>
        <path id="ArialMT-35" d="M 266 1200 
L 856 1250 
Q 922 819 1161 601 
Q 1400 384 1738 384 
Q 2144 384 2425 690 
Q 2706 997 2706 1503 
Q 2706 1984 2436 2262 
Q 2166 2541 1728 2541 
Q 1456 2541 1237 2417 
Q 1019 2294 894 2097 
L 366 2166 
L 809 4519 
L 3088 4519 
L 3088 3981 
L 1259 3981 
L 1013 2750 
Q 1425 3038 1878 3038 
Q 2478 3038 2890 2622 
Q 3303 2206 3303 1553 
Q 3303 931 2941 478 
Q 2500 -78 1738 -78 
Q 1113 -78 717 272 
Q 322 622 266 1200 
z
" transform="scale(0.015625)"/>
       </defs>
       <use xlink:href="#ArialMT-35"/>
      </g>
     </g>
    </g>
    <g id="xtick_3">
     <g id="line2d_3">
      <g>
       <use xlink:href="#m2d2c6a5526" x="118.514363" y="141.14875" style="stroke: #000000; stroke-width: 0.5"/>
      </g>
     </g>
     <g id="text_3">
      <!-- 10 -->
      <g transform="translate(114.621706 153.159219) scale(0.07 -0.07)">
       <defs>
        <path id="ArialMT-31" d="M 2384 0 
L 1822 0 
L 1822 3584 
Q 1619 3391 1289 3197 
Q 959 3003 697 2906 
L 697 3450 
Q 1169 3672 1522 3987 
Q 1875 4303 2022 4600 
L 2384 4600 
L 2384 0 
z
" transform="scale(0.015625)"/>
       </defs>
       <use xlink:href="#ArialMT-31"/>
       <use xlink:href="#ArialMT-30" transform="translate(55.615234 0)"/>
      </g>
     </g>
    </g>
    <g id="xtick_4">
     <g id="line2d_4">
      <g>
       <use xlink:href="#m2d2c6a5526" x="161.423701" y="141.14875" style="stroke: #000000; stroke-width: 0.5"/>
      </g>
     </g>
     <g id="text_4">
      <!-- 15 -->
      <g transform="translate(157.531044 153.159219) scale(0.07 -0.07)">
       <use xlink:href="#ArialMT-31"/>
       <use xlink:href="#ArialMT-35" transform="translate(55.615234 0)"/>
      </g>
     </g>
    </g>
    <g id="text_5">
     <!-- Time (min) -->
     <g transform="translate(85.253125 164.374219) scale(0.08 -0.08)">
      <defs>
       <path id="ArialMT-54" d="M 1659 0 
L 1659 4041 
L 150 4041 
L 150 4581 
L 3781 4581 
L 3781 4041 
L 2266 4041 
L 2266 0 
L 1659 0 
z
" transform="scale(0.015625)"/>
       <path id="ArialMT-69" d="M 425 3934 
L 425 4581 
L 988 4581 
L 988 3934 
L 425 3934 
z
M 425 0 
L 425 3319 
L 988 3319 
L 988 0 
L 425 0 
z
" transform="scale(0.015625)"/>
       <path id="ArialMT-6d" d="M 422 0 
L 422 3319 
L 925 3319 
L 925 2853 
Q 1081 3097 1340 3245 
Q 1600 3394 1931 3394 
Q 2300 3394 2536 3241 
Q 2772 3088 2869 2813 
Q 3263 3394 3894 3394 
Q 4388 3394 4653 3120 
Q 4919 2847 4919 2278 
L 4919 0 
L 4359 0 
L 4359 2091 
Q 4359 2428 4304 2576 
Q 4250 2725 4106 2815 
Q 3963 2906 3769 2906 
Q 3419 2906 3187 2673 
Q 2956 2441 2956 1928 
L 2956 0 
L 2394 0 
L 2394 2156 
Q 2394 2531 2256 2718 
Q 2119 2906 1806 2906 
Q 1569 2906 1367 2781 
Q 1166 2656 1075 2415 
Q 984 2175 984 1722 
L 984 0 
L 422 0 
z
" transform="scale(0.015625)"/>
       <path id="ArialMT-65" d="M 2694 1069 
L 3275 997 
Q 3138 488 2766 206 
Q 2394 -75 1816 -75 
Q 1088 -75 661 373 
Q 234 822 234 1631 
Q 234 2469 665 2931 
Q 1097 3394 1784 3394 
Q 2450 3394 2872 2941 
Q 3294 2488 3294 1666 
Q 3294 1616 3291 1516 
L 816 1516 
Q 847 969 1125 678 
Q 1403 388 1819 388 
Q 2128 388 2347 550 
Q 2566 713 2694 1069 
z
M 847 1978 
L 2700 1978 
Q 2663 2397 2488 2606 
Q 2219 2931 1791 2931 
Q 1403 2931 1139 2672 
Q 875 2413 847 1978 
z
" transform="scale(0.015625)"/>
       <path id="ArialMT-20" transform="scale(0.015625)"/>
       <path id="ArialMT-28" d="M 1497 -1347 
Q 1031 -759 709 28 
Q 388 816 388 1659 
Q 388 2403 628 3084 
Q 909 3875 1497 4659 
L 1900 4659 
Q 1522 4009 1400 3731 
Q 1209 3300 1100 2831 
Q 966 2247 966 1656 
Q 966 153 1900 -1347 
L 1497 -1347 
z
" transform="scale(0.015625)"/>
       <path id="ArialMT-6e" d="M 422 0 
L 422 3319 
L 928 3319 
L 928 2847 
Q 1294 3394 1984 3394 
Q 2284 3394 2536 3286 
Q 2788 3178 2913 3003 
Q 3038 2828 3088 2588 
Q 3119 2431 3119 2041 
L 3119 0 
L 2556 0 
L 2556 2019 
Q 2556 2363 2490 2533 
Q 2425 2703 2258 2804 
Q 2091 2906 1866 2906 
Q 1506 2906 1245 2678 
Q 984 2450 984 1813 
L 984 0 
L 422 0 
z
" transform="scale(0.015625)"/>
       <path id="ArialMT-29" d="M 791 -1347 
L 388 -1347 
Q 1322 153 1322 1656 
Q 1322 2244 1188 2822 
Q 1081 3291 891 3722 
Q 769 4003 388 4659 
L 791 4659 
Q 1378 3875 1659 3084 
Q 1900 2403 1900 1659 
Q 1900 816 1576 28 
Q 1253 -759 791 -1347 
z
" transform="scale(0.015625)"/>
      </defs>
      <use xlink:href="#ArialMT-54"/>
      <use xlink:href="#ArialMT-69" transform="translate(57.333984 0)"/>
      <use xlink:href="#ArialMT-6d" transform="translate(79.550781 0)"/>
      <use xlink:href="#ArialMT-65" transform="translate(162.851562 0)"/>
      <use xlink:href="#ArialMT-20" transform="translate(218.466797 0)"/>
      <use xlink:href="#ArialMT-28" transform="translate(246.25 0)"/>
      <use xlink:href="#ArialMT-6d" transform="translate(279.550781 0)"/>
      <use xlink:href="#ArialMT-69" transform="translate(362.851562 0)"/>
      <use xlink:href="#ArialMT-6e" transform="translate(385.068359 0)"/>
      <use xlink:href="#ArialMT-29" transform="translate(440.683594 0)"/>
     </g>
    </g>
   </g>
   <g id="matplotlib.axis_2">
    <g id="ytick_1">
     <g id="line2d_5">
      <defs>
       <path id="m6b3b5c3bc4" d="M 0 0 
L -3.5 0 
" style="stroke: #000000; stroke-width: 0.5"/>
      </defs>
      <g>
       <use xlink:href="#m6b3b5c3bc4" x="31.8375" y="141.14875" style="stroke: #000000; stroke-width: 0.5"/>
      </g>
     </g>
     <g id="text_6">
      <!-- 0.0 -->
      <g transform="translate(15.1075 143.653984) scale(0.07 -0.07)">
       <defs>
        <path id="ArialMT-2e" d="M 581 0 
L 581 641 
L 1222 641 
L 1222 0 
L 581 0 
z
" transform="scale(0.015625)"/>
       </defs>
       <use xlink:href="#ArialMT-30"/>
       <use xlink:href="#ArialMT-2e" transform="translate(55.615234 0)"/>
       <use xlink:href="#ArialMT-30" transform="translate(83.398438 0)"/>
      </g>
     </g>
    </g>
    <g id="ytick_2">
     <g id="line2d_6">
      <g>
       <use xlink:href="#m6b3b5c3bc4" x="31.8375" y="117.323988" style="stroke: #000000; stroke-width: 0.5"/>
      </g>
     </g>
     <g id="text_7">
      <!-- 0.2 -->
      <g transform="translate(15.1075 119.829222) scale(0.07 -0.07)">
       <defs>
        <path id="ArialMT-32" d="M 3222 541 
L 3222 0 
L 194 0 
Q 188 203 259 391 
Q 375 700 629 1000 
Q 884 1300 1366 1694 
Q 2113 2306 2375 2664 
Q 2638 3022 2638 3341 
Q 2638 3675 2398 3904 
Q 2159 4134 1775 4134 
Q 1369 4134 1125 3890 
Q 881 3647 878 3216 
L 300 3275 
Q 359 3922 746 4261 
Q 1134 4600 1788 4600 
Q 2447 4600 2831 4234 
Q 3216 3869 3216 3328 
Q 3216 3053 3103 2787 
Q 2991 2522 2730 2228 
Q 2469 1934 1863 1422 
Q 1356 997 1212 845 
Q 1069 694 975 541 
L 3222 541 
z
" transform="scale(0.015625)"/>
       </defs>
       <use xlink:href="#ArialMT-30"/>
       <use xlink:href="#ArialMT-2e" transform="translate(55.615234 0)"/>
       <use xlink:href="#ArialMT-32" transform="translate(83.398438 0)"/>
      </g>
     </g>
    </g>
    <g id="ytick_3">
     <g id="line2d_7">
      <g>
       <use xlink:href="#m6b3b5c3bc4" x="31.8375" y="93.499226" style="stroke: #000000; stroke-width: 0.5"/>
      </g>
     </g>
     <g id="text_8">
      <!-- 0.4 -->
      <g transform="translate(15.1075 96.004461) scale(0.07 -0.07)">
       <defs>
        <path id="ArialMT-34" d="M 2069 0 
L 2069 1097 
L 81 1097 
L 81 1613 
L 2172 4581 
L 2631 4581 
L 2631 1613 
L 3250 1613 
L 3250 1097 
L 2631 1097 
L 2631 0 
L 2069 0 
z
M 2069 1613 
L 2069 3678 
L 634 1613 
L 2069 1613 
z
" transform="scale(0.015625)"/>
       </defs>
       <use xlink:href="#ArialMT-30"/>
       <use xlink:href="#ArialMT-2e" transform="translate(55.615234 0)"/>
       <use xlink:href="#ArialMT-34" transform="translate(83.398438 0)"/>
      </g>
     </g>
    </g>
    <g id="ytick_4">
     <g id="line2d_8">
      <g>
       <use xlink:href="#m6b3b5c3bc4" x="31.8375" y="69.674464" style="stroke: #000000; stroke-width: 0.5"/>
      </g>
     </g>
     <g id="text_9">
      <!-- 0.6 -->
      <g transform="translate(15.1075 72.179699) scale(0.07 -0.07)">
       <defs>
        <path id="ArialMT-36" d="M 3184 3459 
L 2625 3416 
Q 2550 3747 2413 3897 
Q 2184 4138 1850 4138 
Q 1581 4138 1378 3988 
Q 1113 3794 959 3422 
Q 806 3050 800 2363 
Q 1003 2672 1297 2822 
Q 1591 2972 1913 2972 
Q 2475 2972 2870 2558 
Q 3266 2144 3266 1488 
Q 3266 1056 3080 686 
Q 2894 316 2569 119 
Q 2244 -78 1831 -78 
Q 1128 -78 684 439 
Q 241 956 241 2144 
Q 241 3472 731 4075 
Q 1159 4600 1884 4600 
Q 2425 4600 2770 4297 
Q 3116 3994 3184 3459 
z
M 888 1484 
Q 888 1194 1011 928 
Q 1134 663 1356 523 
Q 1578 384 1822 384 
Q 2178 384 2434 671 
Q 2691 959 2691 1453 
Q 2691 1928 2437 2201 
Q 2184 2475 1800 2475 
Q 1419 2475 1153 2201 
Q 888 1928 888 1484 
z
" transform="scale(0.015625)"/>
       </defs>
       <use xlink:href="#ArialMT-30"/>
       <use xlink:href="#ArialMT-2e" transform="translate(55.615234 0)"/>
       <use xlink:href="#ArialMT-36" transform="translate(83.398438 0)"/>
      </g>
     </g>
    </g>
    <g id="ytick_5">
     <g id="line2d_9">
      <g>
       <use xlink:href="#m6b3b5c3bc4" x="31.8375" y="45.849702" style="stroke: #000000; stroke-width: 0.5"/>
      </g>
     </g>
     <g id="text_10">
      <!-- 0.8 -->
      <g transform="translate(15.1075 48.354937) scale(0.07 -0.07)">
       <defs>
        <path id="ArialMT-38" d="M 1131 2484 
Q 781 2613 612 2850 
Q 444 3088 444 3419 
Q 444 3919 803 4259 
Q 1163 4600 1759 4600 
Q 2359 4600 2725 4251 
Q 3091 3903 3091 3403 
Q 3091 3084 2923 2848 
Q 2756 2613 2416 2484 
Q 2838 2347 3058 2040 
Q 3278 1734 3278 1309 
Q 3278 722 2862 322 
Q 2447 -78 1769 -78 
Q 1091 -78 675 323 
Q 259 725 259 1325 
Q 259 1772 486 2073 
Q 713 2375 1131 2484 
z
M 1019 3438 
Q 1019 3113 1228 2906 
Q 1438 2700 1772 2700 
Q 2097 2700 2305 2904 
Q 2513 3109 2513 3406 
Q 2513 3716 2298 3927 
Q 2084 4138 1766 4138 
Q 1444 4138 1231 3931 
Q 1019 3725 1019 3438 
z
M 838 1322 
Q 838 1081 952 856 
Q 1066 631 1291 507 
Q 1516 384 1775 384 
Q 2178 384 2440 643 
Q 2703 903 2703 1303 
Q 2703 1709 2433 1975 
Q 2163 2241 1756 2241 
Q 1359 2241 1098 1978 
Q 838 1716 838 1322 
z
" transform="scale(0.015625)"/>
       </defs>
       <use xlink:href="#ArialMT-30"/>
       <use xlink:href="#ArialMT-2e" transform="translate(55.615234 0)"/>
       <use xlink:href="#ArialMT-38" transform="translate(83.398438 0)"/>
      </g>
     </g>
    </g>
    <g id="ytick_6">
     <g id="line2d_10">
      <g>
       <use xlink:href="#m6b3b5c3bc4" x="31.8375" y="22.02494" style="stroke: #000000; stroke-width: 0.5"/>
      </g>
     </g>
     <g id="text_11">
      <!-- 1.0 -->
      <g transform="translate(15.1075 24.530175) scale(0.07 -0.07)">
       <use xlink:href="#ArialMT-31"/>
       <use xlink:href="#ArialMT-2e" transform="translate(55.615234 0)"/>
       <use xlink:href="#ArialMT-30" transform="translate(83.398438 0)"/>
      </g>
     </g>
    </g>
    <g id="text_12">
     <!-- Survival probability -->
     <g transform="translate(9.42375 112.1775) rotate(-90) scale(0.08 -0.08)">
      <defs>
       <path id="ArialMT-53" d="M 288 1472 
L 859 1522 
Q 900 1178 1048 958 
Q 1197 738 1509 602 
Q 1822 466 2213 466 
Q 2559 466 2825 569 
Q 3091 672 3220 851 
Q 3350 1031 3350 1244 
Q 3350 1459 3225 1620 
Q 3100 1781 2813 1891 
Q 2628 1963 1997 2114 
Q 1366 2266 1113 2400 
Q 784 2572 623 2826 
Q 463 3081 463 3397 
Q 463 3744 659 4045 
Q 856 4347 1234 4503 
Q 1613 4659 2075 4659 
Q 2584 4659 2973 4495 
Q 3363 4331 3572 4012 
Q 3781 3694 3797 3291 
L 3216 3247 
Q 3169 3681 2898 3903 
Q 2628 4125 2100 4125 
Q 1550 4125 1298 3923 
Q 1047 3722 1047 3438 
Q 1047 3191 1225 3031 
Q 1400 2872 2139 2705 
Q 2878 2538 3153 2413 
Q 3553 2228 3743 1945 
Q 3934 1663 3934 1294 
Q 3934 928 3725 604 
Q 3516 281 3123 101 
Q 2731 -78 2241 -78 
Q 1619 -78 1198 103 
Q 778 284 539 648 
Q 300 1013 288 1472 
z
" transform="scale(0.015625)"/>
       <path id="ArialMT-75" d="M 2597 0 
L 2597 488 
Q 2209 -75 1544 -75 
Q 1250 -75 995 37 
Q 741 150 617 320 
Q 494 491 444 738 
Q 409 903 409 1263 
L 409 3319 
L 972 3319 
L 972 1478 
Q 972 1038 1006 884 
Q 1059 663 1231 536 
Q 1403 409 1656 409 
Q 1909 409 2131 539 
Q 2353 669 2445 892 
Q 2538 1116 2538 1541 
L 2538 3319 
L 3100 3319 
L 3100 0 
L 2597 0 
z
" transform="scale(0.015625)"/>
       <path id="ArialMT-72" d="M 416 0 
L 416 3319 
L 922 3319 
L 922 2816 
Q 1116 3169 1280 3281 
Q 1444 3394 1641 3394 
Q 1925 3394 2219 3213 
L 2025 2691 
Q 1819 2813 1613 2813 
Q 1428 2813 1281 2702 
Q 1134 2591 1072 2394 
Q 978 2094 978 1738 
L 978 0 
L 416 0 
z
" transform="scale(0.015625)"/>
       <path id="ArialMT-76" d="M 1344 0 
L 81 3319 
L 675 3319 
L 1388 1331 
Q 1503 1009 1600 663 
Q 1675 925 1809 1294 
L 2547 3319 
L 3125 3319 
L 1869 0 
L 1344 0 
z
" transform="scale(0.015625)"/>
       <path id="ArialMT-61" d="M 2588 409 
Q 2275 144 1986 34 
Q 1697 -75 1366 -75 
Q 819 -75 525 192 
Q 231 459 231 875 
Q 231 1119 342 1320 
Q 453 1522 633 1644 
Q 813 1766 1038 1828 
Q 1203 1872 1538 1913 
Q 2219 1994 2541 2106 
Q 2544 2222 2544 2253 
Q 2544 2597 2384 2738 
Q 2169 2928 1744 2928 
Q 1347 2928 1158 2789 
Q 969 2650 878 2297 
L 328 2372 
Q 403 2725 575 2942 
Q 747 3159 1072 3276 
Q 1397 3394 1825 3394 
Q 2250 3394 2515 3294 
Q 2781 3194 2906 3042 
Q 3031 2891 3081 2659 
Q 3109 2516 3109 2141 
L 3109 1391 
Q 3109 606 3145 398 
Q 3181 191 3288 0 
L 2700 0 
Q 2613 175 2588 409 
z
M 2541 1666 
Q 2234 1541 1622 1453 
Q 1275 1403 1131 1340 
Q 988 1278 909 1158 
Q 831 1038 831 891 
Q 831 666 1001 516 
Q 1172 366 1500 366 
Q 1825 366 2078 508 
Q 2331 650 2450 897 
Q 2541 1088 2541 1459 
L 2541 1666 
z
" transform="scale(0.015625)"/>
       <path id="ArialMT-6c" d="M 409 0 
L 409 4581 
L 972 4581 
L 972 0 
L 409 0 
z
" transform="scale(0.015625)"/>
       <path id="ArialMT-70" d="M 422 -1272 
L 422 3319 
L 934 3319 
L 934 2888 
Q 1116 3141 1344 3267 
Q 1572 3394 1897 3394 
Q 2322 3394 2647 3175 
Q 2972 2956 3137 2557 
Q 3303 2159 3303 1684 
Q 3303 1175 3120 767 
Q 2938 359 2589 142 
Q 2241 -75 1856 -75 
Q 1575 -75 1351 44 
Q 1128 163 984 344 
L 984 -1272 
L 422 -1272 
z
M 931 1641 
Q 931 1000 1190 694 
Q 1450 388 1819 388 
Q 2194 388 2461 705 
Q 2728 1022 2728 1688 
Q 2728 2322 2467 2637 
Q 2206 2953 1844 2953 
Q 1484 2953 1207 2617 
Q 931 2281 931 1641 
z
" transform="scale(0.015625)"/>
       <path id="ArialMT-6f" d="M 213 1659 
Q 213 2581 725 3025 
Q 1153 3394 1769 3394 
Q 2453 3394 2887 2945 
Q 3322 2497 3322 1706 
Q 3322 1066 3130 698 
Q 2938 331 2570 128 
Q 2203 -75 1769 -75 
Q 1072 -75 642 372 
Q 213 819 213 1659 
z
M 791 1659 
Q 791 1022 1069 705 
Q 1347 388 1769 388 
Q 2188 388 2466 706 
Q 2744 1025 2744 1678 
Q 2744 2294 2464 2611 
Q 2184 2928 1769 2928 
Q 1347 2928 1069 2612 
Q 791 2297 791 1659 
z
" transform="scale(0.015625)"/>
       <path id="ArialMT-62" d="M 941 0 
L 419 0 
L 419 4581 
L 981 4581 
L 981 2947 
Q 1338 3394 1891 3394 
Q 2197 3394 2470 3270 
Q 2744 3147 2920 2923 
Q 3097 2700 3197 2384 
Q 3297 2069 3297 1709 
Q 3297 856 2875 390 
Q 2453 -75 1863 -75 
Q 1275 -75 941 416 
L 941 0 
z
M 934 1684 
Q 934 1088 1097 822 
Q 1363 388 1816 388 
Q 2184 388 2453 708 
Q 2722 1028 2722 1663 
Q 2722 2313 2464 2622 
Q 2206 2931 1841 2931 
Q 1472 2931 1203 2611 
Q 934 2291 934 1684 
z
" transform="scale(0.015625)"/>
       <path id="ArialMT-74" d="M 1650 503 
L 1731 6 
Q 1494 -44 1306 -44 
Q 1000 -44 831 53 
Q 663 150 594 308 
Q 525 466 525 972 
L 525 2881 
L 113 2881 
L 113 3319 
L 525 3319 
L 525 4141 
L 1084 4478 
L 1084 3319 
L 1650 3319 
L 1650 2881 
L 1084 2881 
L 1084 941 
Q 1084 700 1114 631 
Q 1144 563 1211 522 
Q 1278 481 1403 481 
Q 1497 481 1650 503 
z
" transform="scale(0.015625)"/>
       <path id="ArialMT-79" d="M 397 -1278 
L 334 -750 
Q 519 -800 656 -800 
Q 844 -800 956 -737 
Q 1069 -675 1141 -563 
Q 1194 -478 1313 -144 
Q 1328 -97 1363 -6 
L 103 3319 
L 709 3319 
L 1400 1397 
Q 1534 1031 1641 628 
Q 1738 1016 1872 1384 
L 2581 3319 
L 3144 3319 
L 1881 -56 
Q 1678 -603 1566 -809 
Q 1416 -1088 1222 -1217 
Q 1028 -1347 759 -1347 
Q 597 -1347 397 -1278 
z
" transform="scale(0.015625)"/>
      </defs>
      <use xlink:href="#ArialMT-53"/>
      <use xlink:href="#ArialMT-75" transform="translate(66.699219 0)"/>
      <use xlink:href="#ArialMT-72" transform="translate(122.314453 0)"/>
      <use xlink:href="#ArialMT-76" transform="translate(155.615234 0)"/>
      <use xlink:href="#ArialMT-69" transform="translate(205.615234 0)"/>
      <use xlink:href="#ArialMT-76" transform="translate(227.832031 0)"/>
      <use xlink:href="#ArialMT-61" transform="translate(277.832031 0)"/>
      <use xlink:href="#ArialMT-6c" transform="translate(333.447266 0)"/>
      <use xlink:href="#ArialMT-20" transform="translate(355.664062 0)"/>
      <use xlink:href="#ArialMT-70" transform="translate(383.447266 0)"/>
      <use xlink:href="#ArialMT-72" transform="translate(439.0625 0)"/>
      <use xlink:href="#ArialMT-6f" transform="translate(472.363281 0)"/>
      <use xlink:href="#ArialMT-62" transform="translate(527.978516 0)"/>
      <use xlink:href="#ArialMT-61" transform="translate(583.59375 0)"/>
      <use xlink:href="#ArialMT-62" transform="translate(639.208984 0)"/>
      <use xlink:href="#ArialMT-69" transform="translate(694.824219 0)"/>
      <use xlink:href="#ArialMT-6c" transform="translate(717.041016 0)"/>
      <use xlink:href="#ArialMT-69" transform="translate(739.257812 0)"/>
      <use xlink:href="#ArialMT-74" transform="translate(761.474609 0)"/>
      <use xlink:href="#ArialMT-79" transform="translate(789.257812 0)"/>
     </g>
    </g>
   </g>
   <g id="line2d_11">
    <path d="M 38.416932 22.745818 
L 41.277554 23.827499 
L 42.707866 25.27125 
L 45.568488 25.997238 
L 46.998799 28.877661 
L 48.429111 29.242412 
L 49.859422 30.332838 
L 51.289733 30.697702 
L 52.720044 32.511685 
L 54.150356 33.968885 
L 55.580667 34.701783 
L 57.010978 36.526215 
L 59.871601 37.261746 
L 61.301912 39.457246 
L 62.732223 42.013073 
L 64.162535 43.113273 
L 65.592846 44.573046 
L 67.023157 45.303841 
L 68.453468 46.393001 
L 69.88378 50.326675 
L 71.314091 51.403744 
L 72.744402 54.590709 
L 74.174713 55.665759 
L 75.605025 57.092862 
L 77.035336 57.805536 
L 78.465647 59.928376 
L 79.895958 62.730771 
L 81.32627 64.471098 
L 82.756581 67.217807 
L 84.186892 69.936548 
L 85.617204 73.603177 
L 87.047515 76.892622 
L 88.477826 79.171818 
L 89.908137 81.112074 
L 91.338449 83.032557 
L 92.76876 83.672592 
L 94.199071 85.563346 
L 95.629382 88.968579 
L 97.059694 91.716915 
L 98.490005 93.245563 
L 99.920316 97.361347 
L 101.350627 98.847121 
L 102.780939 102.281176 
L 104.21125 103.45553 
L 105.641561 105.469647 
L 107.071873 107.469967 
L 108.502184 110.517615 
L 109.932495 112.41669 
L 111.362806 114.025427 
L 112.793118 115.847963 
L 114.223429 116.885654 
L 115.65374 117.904365 
L 117.084051 120.547358 
L 118.514363 121.736387 
L 119.944674 123.970412 
L 121.374985 125.468121 
L 122.805296 125.8999 
L 124.235608 127.536488 
L 125.665919 128.374711 
L 127.09623 129.764684 
L 128.526542 132.139937 
L 129.956853 132.689992 
L 131.387164 133.568406 
L 132.817475 134.574104 
L 134.247787 135.383527 
L 135.678098 136.008368 
L 137.108409 136.874563 
L 138.53872 137.295406 
L 139.969032 137.949887 
L 141.399343 139.150228 
L 142.829654 139.359694 
L 144.259965 139.555422 
L 147.120588 139.824125 
L 148.550899 140.076109 
L 149.98121 140.4762 
L 151.411522 140.662635 
L 154.272144 140.851804 
L 155.702456 140.893399 
L 157.132767 140.962986 
L 159.993389 140.99488 
L 161.423701 141.093894 
L 162.854012 141.122075 
L 167.144946 141.138397 
L 170.005568 141.138397 
" clip-path="url(#pfdbc94a36b)" style="fill: none; stroke: #c62828; stroke-linecap: square"/>
   </g>
   <g id="line2d_12">
    <path d="M 38.416932 22.527231 
L 41.277554 23.282669 
L 42.707866 24.29428 
L 45.568488 24.804414 
L 46.998799 26.838133 
L 48.429111 27.09679 
L 49.859422 27.871578 
L 51.289733 28.131344 
L 52.720044 29.42671 
L 54.150356 30.472063 
L 55.580667 30.999454 
L 57.010978 32.317127 
L 59.871601 32.850326 
L 61.301912 34.448755 
L 62.732223 36.322793 
L 64.162535 37.134013 
L 65.592846 38.214647 
L 67.023157 38.757499 
L 68.453468 39.568893 
L 69.88378 42.523332 
L 71.314091 43.339013 
L 72.744402 45.770189 
L 74.174713 46.596396 
L 75.605025 47.698061 
L 77.035336 48.250342 
L 78.465647 49.903999 
L 79.895958 52.107287 
L 81.32627 53.487598 
L 82.756581 55.685657 
L 84.186892 57.885912 
L 85.617204 60.894199 
L 87.047515 63.635521 
L 88.477826 65.559975 
L 89.908137 67.215247 
L 91.338449 68.869736 
L 92.76876 69.424798 
L 94.199071 71.075627 
L 95.629382 74.092557 
L 97.059694 76.571348 
L 98.490005 77.968161 
L 99.920316 81.79833 
L 101.350627 83.207579 
L 102.780939 86.523855 
L 104.21125 87.678136 
L 105.641561 89.683649 
L 107.071873 91.709783 
L 108.502184 94.868758 
L 109.932495 96.885503 
L 111.362806 98.62581 
L 112.793118 100.635805 
L 114.223429 101.799846 
L 115.65374 102.957407 
L 117.084051 106.035383 
L 118.514363 107.458864 
L 119.944674 110.207585 
L 121.374985 112.111372 
L 122.805296 112.670336 
L 124.235608 114.834464 
L 125.665919 115.973324 
L 127.09623 117.913433 
L 128.526542 121.406325 
L 129.956853 122.253461 
L 131.387164 123.642014 
L 132.817475 125.293521 
L 134.247787 126.679245 
L 135.678098 127.789819 
L 137.108409 129.400258 
L 138.53872 130.218123 
L 139.969032 131.546611 
L 141.399343 134.227941 
L 142.829654 134.741329 
L 144.259965 135.237837 
L 147.120588 135.950994 
L 148.550899 136.661056 
L 149.98121 137.906133 
L 151.411522 138.562023 
L 154.272144 139.313333 
L 155.702456 139.496369 
L 157.132767 139.82465 
L 159.993389 139.987379 
L 161.423701 140.582309 
L 162.854012 140.805846 
L 167.144946 140.971312 
L 170.005568 140.971312 
" clip-path="url(#pfdbc94a36b)" style="fill: none; stroke: #f57c00; stroke-linecap: square"/>
   </g>
   <g id="line2d_13">
    <path d="M 38.416932 22.290678 
L 41.277554 22.691343 
L 42.707866 23.229778 
L 45.568488 23.502133 
L 46.998799 24.593552 
L 48.429111 24.733016 
L 49.859422 25.151669 
L 51.289733 25.292335 
L 52.720044 25.996072 
L 54.150356 26.566793 
L 55.580667 26.855692 
L 57.010978 27.580363 
L 59.871601 27.874778 
L 61.301912 28.761495 
L 62.732223 29.80912 
L 64.162535 30.265346 
L 65.592846 30.875701 
L 67.023157 31.18345 
L 68.453468 31.644877 
L 69.88378 33.339887 
L 71.314091 33.812059 
L 72.744402 35.230515 
L 74.174713 35.716433 
L 75.605025 36.367482 
L 77.035336 36.695225 
L 78.465647 37.682094 
L 79.895958 39.010171 
L 81.32627 39.850087 
L 82.756581 41.200578 
L 84.186892 42.568923 
L 85.617204 44.467686 
L 87.047515 46.227387 
L 88.477826 47.480315 
L 89.908137 48.570074 
L 91.338449 49.670875 
L 92.76876 50.042837 
L 94.199071 51.157198 
L 95.629382 53.226199 
L 97.059694 54.959219 
L 98.490005 55.949617 
L 99.920316 58.719655 
L 101.350627 59.759963 
L 102.780939 62.256176 
L 104.21125 63.141704 
L 105.641561 64.701988 
L 107.071873 66.30771 
L 108.502184 68.874465 
L 109.932495 70.556527 
L 111.362806 72.037304 
L 112.793118 73.783582 
L 114.223429 74.813608 
L 115.65374 75.852248 
L 117.084051 78.688635 
L 118.514363 80.039965 
L 119.944674 82.727899 
L 121.374985 84.656148 
L 122.805296 85.233536 
L 124.235608 87.521093 
L 125.665919 88.760565 
L 127.09623 90.934637 
L 128.526542 95.077104 
L 129.956853 96.132745 
L 131.387164 97.912577 
L 132.817475 100.118568 
L 134.247787 102.054662 
L 135.678098 103.670368 
L 137.108409 106.130479 
L 138.53872 107.440803 
L 139.969032 109.672099 
L 141.399343 114.674326 
L 142.829654 115.731129 
L 144.259965 116.791884 
L 147.120588 118.392048 
L 148.550899 120.091902 
L 149.98121 123.414859 
L 151.411522 125.411386 
L 154.272144 128.021504 
L 155.702456 128.730515 
L 157.132767 130.10233 
L 159.993389 130.84199 
L 161.423701 134.096632 
L 162.854012 135.739822 
L 167.144946 137.330307 
L 170.005568 137.330307 
" clip-path="url(#pfdbc94a36b)" style="fill: none; stroke: #1565c0; stroke-linecap: square"/>
   </g>
   <g id="patch_3">
    <path d="M 31.8375 141.14875 
L 31.8375 16.06875 
" style="fill: none; stroke: #000000; stroke-width: 0.5; stroke-linejoin: miter; stroke-linecap: square"/>
   </g>
   <g id="patch_4">
    <path d="M 176.585 141.14875 
L 176.585 16.06875 
" style="fill: none; stroke: #000000; stroke-width: 0.5; stroke-linejoin: miter; stroke-linecap: square"/>
   </g>
   <g id="patch_5">
    <path d="M 31.8375 141.14875 
L 176.585 141.14875 
" style="fill: none; stroke: #000000; stroke-width: 0.5; stroke-linejoin: miter; stroke-linecap: square"/>
   </g>
   <g id="patch_6">
    <path d="M 31.8375 16.06875 
L 176.585 16.06875 
" style="fill: none; stroke: #000000; stroke-width: 0.5; stroke-linejoin: miter; stroke-linecap: square"/>
   </g>
   <g id="text_13">
    <g id="patch_7">
     <path d="M 141.720387 33.475837 
L 172.242575 33.475837 
Q 174.042575 33.475837 174.042575 31.675838 
L 174.042575 19.82115 
Q 174.042575 18.02115 172.242575 18.02115 
L 141.720387 18.02115 
Q 139.920387 18.02115 139.920387 19.82115 
L 139.920387 31.675838 
Q 139.920387 33.475837 141.720387 33.475837 
z
" style="fill: #ffffff; opacity: 0.8; stroke: #cccccc; stroke-linejoin: miter"/>
    </g>
    <!-- HR = 0.61 -->
    <g transform="translate(145.061637 24.115837) scale(0.06 -0.06)">
     <defs>
      <path id="ArialMT-48" d="M 513 0 
L 513 4581 
L 1119 4581 
L 1119 2700 
L 3500 2700 
L 3500 4581 
L 4106 4581 
L 4106 0 
L 3500 0 
L 3500 2159 
L 1119 2159 
L 1119 0 
L 513 0 
z
" transform="scale(0.015625)"/>
      <path id="ArialMT-52" d="M 503 0 
L 503 4581 
L 2534 4581 
Q 3147 4581 3465 4457 
Q 3784 4334 3975 4021 
Q 4166 3709 4166 3331 
Q 4166 2844 3850 2509 
Q 3534 2175 2875 2084 
Q 3116 1969 3241 1856 
Q 3506 1613 3744 1247 
L 4541 0 
L 3778 0 
L 3172 953 
Q 2906 1366 2734 1584 
Q 2563 1803 2427 1890 
Q 2291 1978 2150 2013 
Q 2047 2034 1813 2034 
L 1109 2034 
L 1109 0 
L 503 0 
z
M 1109 2559 
L 2413 2559 
Q 2828 2559 3062 2645 
Q 3297 2731 3419 2920 
Q 3541 3109 3541 3331 
Q 3541 3656 3305 3865 
Q 3069 4075 2559 4075 
L 1109 4075 
L 1109 2559 
z
" transform="scale(0.015625)"/>
      <path id="ArialMT-3d" d="M 3381 2694 
L 356 2694 
L 356 3219 
L 3381 3219 
L 3381 2694 
z
M 3381 1303 
L 356 1303 
L 356 1828 
L 3381 1828 
L 3381 1303 
z
" transform="scale(0.015625)"/>
     </defs>
     <use xlink:href="#ArialMT-48"/>
     <use xlink:href="#ArialMT-52" transform="translate(72.216797 0)"/>
     <use xlink:href="#ArialMT-20" transform="translate(144.433594 0)"/>
     <use xlink:href="#ArialMT-3d" transform="translate(172.216797 0)"/>
     <use xlink:href="#ArialMT-20" transform="translate(230.615234 0)"/>
     <use xlink:href="#ArialMT-30" transform="translate(258.398438 0)"/>
     <use xlink:href="#ArialMT-2e" transform="translate(314.013672 0)"/>
     <use xlink:href="#ArialMT-36" transform="translate(341.796875 0)"/>
     <use xlink:href="#ArialMT-31" transform="translate(397.412109 0)"/>
    </g>
    <!-- p = 1.0e-13 -->
    <g transform="translate(141.720387 30.483337) scale(0.06 -0.06)">
     <defs>
      <path id="ArialMT-2d" d="M 203 1375 
L 203 1941 
L 1931 1941 
L 1931 1375 
L 203 1375 
z
" transform="scale(0.015625)"/>
      <path id="ArialMT-33" d="M 269 1209 
L 831 1284 
Q 928 806 1161 595 
Q 1394 384 1728 384 
Q 2125 384 2398 659 
Q 2672 934 2672 1341 
Q 2672 1728 2419 1979 
Q 2166 2231 1775 2231 
Q 1616 2231 1378 2169 
L 1441 2663 
Q 1497 2656 1531 2656 
Q 1891 2656 2178 2843 
Q 2466 3031 2466 3422 
Q 2466 3731 2256 3934 
Q 2047 4138 1716 4138 
Q 1388 4138 1169 3931 
Q 950 3725 888 3313 
L 325 3413 
Q 428 3978 793 4289 
Q 1159 4600 1703 4600 
Q 2078 4600 2393 4439 
Q 2709 4278 2876 4000 
Q 3044 3722 3044 3409 
Q 3044 3113 2884 2869 
Q 2725 2625 2413 2481 
Q 2819 2388 3044 2092 
Q 3269 1797 3269 1353 
Q 3269 753 2831 336 
Q 2394 -81 1725 -81 
Q 1122 -81 723 278 
Q 325 638 269 1209 
z
" transform="scale(0.015625)"/>
     </defs>
     <use xlink:href="#ArialMT-70"/>
     <use xlink:href="#ArialMT-20" transform="translate(55.615234 0)"/>
     <use xlink:href="#ArialMT-3d" transform="translate(83.398438 0)"/>
     <use xlink:href="#ArialMT-20" transform="translate(141.796875 0)"/>
     <use xlink:href="#ArialMT-31" transform="translate(169.580078 0)"/>
     <use xlink:href="#ArialMT-2e" transform="translate(225.195312 0)"/>
     <use xlink:href="#ArialMT-30" transform="translate(252.978516 0)"/>
     <use xlink:href="#ArialMT-65" transform="translate(308.59375 0)"/>
     <use xlink:href="#ArialMT-2d" transform="translate(364.208984 0)"/>
     <use xlink:href="#ArialMT-31" transform="translate(397.509766 0)"/>
     <use xlink:href="#ArialMT-33" transform="translate(453.125 0)"/>
    </g>
   </g>
   <g id="text_14">
    <!-- 2to1.2 -->
    <g transform="translate(91.206953 10.06875) scale(0.09 -0.09)">
     <defs>
      <path id="Arial-BoldMT-32" d="M 3238 816 
L 3238 0 
L 159 0 
Q 209 463 459 877 
Q 709 1291 1447 1975 
Q 2041 2528 2175 2725 
Q 2356 2997 2356 3263 
Q 2356 3556 2198 3714 
Q 2041 3872 1763 3872 
Q 1488 3872 1325 3706 
Q 1163 3541 1138 3156 
L 263 3244 
Q 341 3969 753 4284 
Q 1166 4600 1784 4600 
Q 2463 4600 2850 4234 
Q 3238 3869 3238 3325 
Q 3238 3016 3127 2736 
Q 3016 2456 2775 2150 
Q 2616 1947 2200 1565 
Q 1784 1184 1673 1059 
Q 1563 934 1494 816 
L 3238 816 
z
" transform="scale(0.015625)"/>
      <path id="Arial-BoldMT-74" d="M 1981 3319 
L 1981 2619 
L 1381 2619 
L 1381 1281 
Q 1381 875 1398 808 
Q 1416 741 1477 697 
Q 1538 653 1625 653 
Q 1747 653 1978 738 
L 2053 56 
Q 1747 -75 1359 -75 
Q 1122 -75 931 4 
Q 741 84 652 211 
Q 563 338 528 553 
Q 500 706 500 1172 
L 500 2619 
L 97 2619 
L 97 3319 
L 500 3319 
L 500 3978 
L 1381 4491 
L 1381 3319 
L 1981 3319 
z
" transform="scale(0.015625)"/>
      <path id="Arial-BoldMT-6f" d="M 256 1706 
Q 256 2144 472 2553 
Q 688 2963 1083 3178 
Q 1478 3394 1966 3394 
Q 2719 3394 3200 2905 
Q 3681 2416 3681 1669 
Q 3681 916 3195 420 
Q 2709 -75 1972 -75 
Q 1516 -75 1102 131 
Q 688 338 472 736 
Q 256 1134 256 1706 
z
M 1156 1659 
Q 1156 1166 1390 903 
Q 1625 641 1969 641 
Q 2313 641 2545 903 
Q 2778 1166 2778 1666 
Q 2778 2153 2545 2415 
Q 2313 2678 1969 2678 
Q 1625 2678 1390 2415 
Q 1156 2153 1156 1659 
z
" transform="scale(0.015625)"/>
      <path id="Arial-BoldMT-31" d="M 2519 0 
L 1641 0 
L 1641 3309 
Q 1159 2859 506 2644 
L 506 3441 
Q 850 3553 1253 3867 
Q 1656 4181 1806 4600 
L 2519 4600 
L 2519 0 
z
" transform="scale(0.015625)"/>
      <path id="Arial-BoldMT-2e" d="M 459 0 
L 459 878 
L 1338 878 
L 1338 0 
L 459 0 
z
" transform="scale(0.015625)"/>
     </defs>
     <use xlink:href="#Arial-BoldMT-32"/>
     <use xlink:href="#Arial-BoldMT-74" transform="translate(55.615234 0)"/>
     <use xlink:href="#Arial-BoldMT-6f" transform="translate(88.916016 0)"/>
     <use xlink:href="#Arial-BoldMT-31" transform="translate(150 0)"/>
     <use xlink:href="#Arial-BoldMT-2e" transform="translate(205.615234 0)"/>
     <use xlink:href="#Arial-BoldMT-32" transform="translate(233.398438 0)"/>
    </g>
   </g>
   <g id="legend_1">
    <g id="line2d_14">
     <path d="M 38.1375 111.204062 
L 45.1375 111.204062 
L 52.1375 111.204062 
" style="fill: none; stroke: #c62828; stroke-linecap: square"/>
    </g>
    <g id="text_15">
     <!-- Near -->
     <g transform="translate(57.7375 113.654062) scale(0.07 -0.07)">
      <defs>
       <path id="ArialMT-4e" d="M 488 0 
L 488 4581 
L 1109 4581 
L 3516 984 
L 3516 4581 
L 4097 4581 
L 4097 0 
L 3475 0 
L 1069 3600 
L 1069 0 
L 488 0 
z
" transform="scale(0.015625)"/>
      </defs>
      <use xlink:href="#ArialMT-4e"/>
      <use xlink:href="#ArialMT-65" transform="translate(72.216797 0)"/>
      <use xlink:href="#ArialMT-61" transform="translate(127.832031 0)"/>
      <use xlink:href="#ArialMT-72" transform="translate(183.447266 0)"/>
     </g>
    </g>
    <g id="line2d_15">
     <path d="M 38.1375 121.105781 
L 45.1375 121.105781 
L 52.1375 121.105781 
" style="fill: none; stroke: #f57c00; stroke-linecap: square"/>
    </g>
    <g id="text_16">
     <!-- Mid -->
     <g transform="translate(57.7375 123.555781) scale(0.07 -0.07)">
      <defs>
       <path id="ArialMT-4d" d="M 475 0 
L 475 4581 
L 1388 4581 
L 2472 1338 
Q 2622 884 2691 659 
Q 2769 909 2934 1394 
L 4031 4581 
L 4847 4581 
L 4847 0 
L 4263 0 
L 4263 3834 
L 2931 0 
L 2384 0 
L 1059 3900 
L 1059 0 
L 475 0 
z
" transform="scale(0.015625)"/>
       <path id="ArialMT-64" d="M 2575 0 
L 2575 419 
Q 2259 -75 1647 -75 
Q 1250 -75 917 144 
Q 584 363 401 755 
Q 219 1147 219 1656 
Q 219 2153 384 2558 
Q 550 2963 881 3178 
Q 1213 3394 1622 3394 
Q 1922 3394 2156 3267 
Q 2391 3141 2538 2938 
L 2538 4581 
L 3097 4581 
L 3097 0 
L 2575 0 
z
M 797 1656 
Q 797 1019 1065 703 
Q 1334 388 1700 388 
Q 2069 388 2326 689 
Q 2584 991 2584 1609 
Q 2584 2291 2321 2609 
Q 2059 2928 1675 2928 
Q 1300 2928 1048 2622 
Q 797 2316 797 1656 
z
" transform="scale(0.015625)"/>
      </defs>
      <use xlink:href="#ArialMT-4d"/>
      <use xlink:href="#ArialMT-69" transform="translate(83.300781 0)"/>
      <use xlink:href="#ArialMT-64" transform="translate(105.517578 0)"/>
     </g>
    </g>
    <g id="line2d_16">
     <path d="M 38.1375 131.0075 
L 45.1375 131.0075 
L 52.1375 131.0075 
" style="fill: none; stroke: #1565c0; stroke-linecap: square"/>
    </g>
    <g id="text_17">
     <!-- Far -->
     <g transform="translate(57.7375 133.4575) scale(0.07 -0.07)">
      <defs>
       <path id="ArialMT-46" d="M 525 0 
L 525 4581 
L 3616 4581 
L 3616 4041 
L 1131 4041 
L 1131 2622 
L 3281 2622 
L 3281 2081 
L 1131 2081 
L 1131 0 
L 525 0 
z
" transform="scale(0.015625)"/>
      </defs>
      <use xlink:href="#ArialMT-46"/>
      <use xlink:href="#ArialMT-61" transform="translate(61.083984 0)"/>
      <use xlink:href="#ArialMT-72" transform="translate(116.699219 0)"/>
     </g>
    </g>
   </g>
  </g>
  <g id="axes_2">
   <g id="patch_8">
    <path d="M 188.725 141.14875 
L 333.4725 141.14875 
L 333.4725 16.06875 
L 188.725 16.06875 
z
" style="fill: #ffffff"/>
   </g>
   <g id="matplotlib.axis_3">
    <g id="xtick_5">
     <g id="line2d_17">
      <g>
       <use xlink:href="#m2d2c6a5526" x="223.007303" y="141.14875" style="stroke: #000000; stroke-width: 0.5"/>
      </g>
     </g>
     <g id="text_18">
      <!-- 5 -->
      <g transform="translate(221.060975 153.159219) scale(0.07 -0.07)">
       <use xlink:href="#ArialMT-35"/>
      </g>
     </g>
    </g>
    <g id="xtick_6">
     <g id="line2d_18">
      <g>
       <use xlink:href="#m2d2c6a5526" x="264.561609" y="141.14875" style="stroke: #000000; stroke-width: 0.5"/>
      </g>
     </g>
     <g id="text_19">
      <!-- 10 -->
      <g transform="translate(260.668953 153.159219) scale(0.07 -0.07)">
       <use xlink:href="#ArialMT-31"/>
       <use xlink:href="#ArialMT-30" transform="translate(55.615234 0)"/>
      </g>
     </g>
    </g>
    <g id="xtick_7">
     <g id="line2d_19">
      <g>
       <use xlink:href="#m2d2c6a5526" x="306.115915" y="141.14875" style="stroke: #000000; stroke-width: 0.5"/>
      </g>
     </g>
     <g id="text_20">
      <!-- 15 -->
      <g transform="translate(302.223259 153.159219) scale(0.07 -0.07)">
       <use xlink:href="#ArialMT-31"/>
       <use xlink:href="#ArialMT-35" transform="translate(55.615234 0)"/>
      </g>
     </g>
    </g>
    <g id="text_21">
     <!-- Time (min) -->
     <g transform="translate(242.140625 164.374219) scale(0.08 -0.08)">
      <use xlink:href="#ArialMT-54"/>
      <use xlink:href="#ArialMT-69" transform="translate(57.333984 0)"/>
      <use xlink:href="#ArialMT-6d" transform="translate(79.550781 0)"/>
      <use xlink:href="#ArialMT-65" transform="translate(162.851562 0)"/>
      <use xlink:href="#ArialMT-20" transform="translate(218.466797 0)"/>
      <use xlink:href="#ArialMT-28" transform="translate(246.25 0)"/>
      <use xlink:href="#ArialMT-6d" transform="translate(279.550781 0)"/>
      <use xlink:href="#ArialMT-69" transform="translate(362.851562 0)"/>
      <use xlink:href="#ArialMT-6e" transform="translate(385.068359 0)"/>
      <use xlink:href="#ArialMT-29" transform="translate(440.683594 0)"/>
     </g>
    </g>
   </g>
   <g id="matplotlib.axis_4">
    <g id="ytick_7">
     <g id="line2d_20">
      <g>
       <use xlink:href="#m6b3b5c3bc4" x="188.725" y="141.14875" style="stroke: #000000; stroke-width: 0.5"/>
      </g>
     </g>
    </g>
    <g id="ytick_8">
     <g id="line2d_21">
      <g>
       <use xlink:href="#m6b3b5c3bc4" x="188.725" y="117.323988" style="stroke: #000000; stroke-width: 0.5"/>
      </g>
     </g>
    </g>
    <g id="ytick_9">
     <g id="line2d_22">
      <g>
       <use xlink:href="#m6b3b5c3bc4" x="188.725" y="93.499226" style="stroke: #000000; stroke-width: 0.5"/>
      </g>
     </g>
    </g>
    <g id="ytick_10">
     <g id="line2d_23">
      <g>
       <use xlink:href="#m6b3b5c3bc4" x="188.725" y="69.674464" style="stroke: #000000; stroke-width: 0.5"/>
      </g>
     </g>
    </g>
    <g id="ytick_11">
     <g id="line2d_24">
      <g>
       <use xlink:href="#m6b3b5c3bc4" x="188.725" y="45.849702" style="stroke: #000000; stroke-width: 0.5"/>
      </g>
     </g>
    </g>
    <g id="ytick_12">
     <g id="line2d_25">
      <g>
       <use xlink:href="#m6b3b5c3bc4" x="188.725" y="22.02494" style="stroke: #000000; stroke-width: 0.5"/>
      </g>
     </g>
    </g>
   </g>
   <g id="line2d_26">
    <path d="M 195.304432 22.181056 
L 196.689575 22.649119 
L 198.074719 22.960933 
L 205.000437 23.272204 
L 207.770724 23.427916 
L 209.155867 23.738885 
L 213.311298 24.049715 
L 217.466728 24.205249 
L 221.622159 24.516017 
L 229.93302 25.445196 
L 231.318164 28.056094 
L 232.703307 29.45164 
L 234.088451 31.158882 
L 235.473594 33.325015 
L 236.858738 34.729029 
L 238.243882 36.607662 
L 239.629025 38.480452 
L 241.014169 38.952241 
L 242.399312 41.138732 
L 243.784456 44.398718 
L 245.169599 46.129365 
L 246.554743 46.76613 
L 247.939886 48.817383 
L 249.32503 49.769513 
L 250.710173 51.822501 
L 252.095317 54.646296 
L 253.480461 56.22427 
L 254.865604 59.045245 
L 256.250748 61.081812 
L 257.635891 62.34044 
L 259.021035 64.543982 
L 260.406178 66.888097 
L 261.791322 68.142926 
L 263.176465 69.241948 
L 264.561609 71.727234 
L 265.946752 73.750285 
L 267.331896 74.997108 
L 268.717039 77.463599 
L 270.102183 79.315493 
L 271.487327 81.006995 
L 272.87247 82.388057 
L 274.257614 85.254406 
L 275.642757 87.509271 
L 277.027901 89.301764 
L 278.413044 91.225399 
L 279.798188 92.552746 
L 281.183331 94.726934 
L 282.568475 96.734438 
L 283.953618 99.676518 
L 285.338762 101.342499 
L 286.723906 104.443309 
L 288.109049 106.191637 
L 289.494193 108.17243 
L 290.879336 110.490537 
L 292.26448 114.290779 
L 293.649623 115.779765 
L 295.034767 117.953601 
L 296.41991 119.723664 
L 297.805054 122.61568 
L 299.190197 124.803236 
L 300.575341 128.079398 
L 301.960484 129.956782 
L 303.345628 131.67897 
L 304.730772 132.959516 
L 306.115915 134.634043 
L 307.501059 135.414625 
L 308.886202 136.314203 
L 310.271346 137.360043 
L 311.656489 137.882603 
L 313.041633 138.693042 
L 314.426776 139.249733 
L 315.81192 139.856753 
L 317.197063 140.101494 
L 318.582207 140.614275 
L 319.96735 140.938788 
L 321.352494 141.026677 
L 326.893068 141.101685 
" clip-path="url(#p0f1b6e83cc)" style="fill: none; stroke: #c62828; stroke-linecap: square"/>
   </g>
   <g id="line2d_27">
    <path d="M 195.304432 22.150136 
L 196.689575 22.525689 
L 198.074719 22.776038 
L 205.000437 23.026083 
L 207.770724 23.151215 
L 209.155867 23.401213 
L 213.311298 23.651229 
L 217.466728 23.776383 
L 221.622159 24.026548 
L 229.93302 24.775315 
L 231.318164 26.885697 
L 232.703307 28.017665 
L 234.088451 29.406279 
L 235.473594 31.174307 
L 236.858738 32.32404 
L 238.243882 33.86715 
L 239.629025 35.41094 
L 241.014169 35.800725 
L 242.399312 37.61186 
L 243.784456 40.32687 
L 245.169599 41.775549 
L 246.554743 42.30988 
L 247.939886 44.036046 
L 249.32503 44.839856 
L 250.710173 46.578717 
L 252.095317 48.983459 
L 253.480461 50.334019 
L 254.865604 52.760932 
L 256.250748 54.523279 
L 257.635891 55.61687 
L 259.021035 57.539863 
L 260.406178 59.597609 
L 261.791322 60.704417 
L 263.176465 61.676898 
L 264.561609 63.886991 
L 265.946752 65.697619 
L 267.331896 66.818881 
L 268.717039 69.049437 
L 270.102183 70.735442 
L 271.487327 72.284183 
L 272.87247 73.555091 
L 274.257614 76.211954 
L 275.642757 78.321018 
L 277.027901 80.010154 
L 278.413044 81.835803 
L 279.798188 83.103661 
L 281.183331 85.195379 
L 282.568475 87.144036 
L 283.953618 90.031838 
L 285.338762 91.685001 
L 286.723906 94.799179 
L 288.109049 96.577901 
L 289.494193 98.614604 
L 290.879336 101.029266 
L 292.26448 105.068382 
L 293.649623 106.681281 
L 295.034767 109.070309 
L 296.41991 111.048486 
L 297.805054 114.352467 
L 299.190197 116.919754 
L 300.575341 120.897982 
L 301.960484 123.265772 
L 303.345628 125.508151 
L 304.730772 127.228075 
L 306.115915 129.560997 
L 307.501059 130.68818 
L 308.886202 132.025906 
L 310.271346 133.645592 
L 311.656489 134.48741 
L 313.041633 135.849101 
L 314.426776 136.836301 
L 315.81192 137.982079 
L 317.197063 138.472857 
L 318.582207 139.588364 
L 319.96735 140.411087 
L 321.352494 140.67121 
L 326.893068 140.926363 
" clip-path="url(#p0f1b6e83cc)" style="fill: none; stroke: #f57c00; stroke-linecap: square"/>
   </g>
   <g id="line2d_28">
    <path d="M 195.304432 22.117728 
L 196.689575 22.396216 
L 198.074719 22.581987 
L 205.000437 22.767634 
L 207.770724 22.860577 
L 209.155867 23.046342 
L 213.311298 23.232223 
L 217.466728 23.325309 
L 221.622159 23.511455 
L 229.93302 24.069222 
L 231.318164 25.646303 
L 232.703307 26.495324 
L 234.088451 27.53985 
L 235.473594 28.874655 
L 236.858738 29.745648 
L 238.243882 30.918404 
L 239.629025 32.096057 
L 241.014169 32.394099 
L 242.399312 33.782723 
L 243.784456 35.876215 
L 245.169599 36.999227 
L 246.554743 37.414507 
L 247.939886 38.760072 
L 249.32503 39.388761 
L 250.710173 40.753461 
L 252.095317 42.651525 
L 253.480461 43.723139 
L 254.865604 45.659239 
L 256.250748 47.073806 
L 257.635891 47.955335 
L 259.021035 49.512551 
L 260.406178 51.189201 
L 261.791322 52.095551 
L 263.176465 52.894571 
L 264.561609 54.719944 
L 265.946752 56.225482 
L 267.331896 57.1625 
L 268.717039 59.037509 
L 270.102183 60.464745 
L 271.487327 61.783603 
L 272.87247 62.871611 
L 274.257614 65.163427 
L 275.642757 67.000033 
L 277.027901 68.482493 
L 278.413044 70.096746 
L 279.798188 71.225367 
L 281.183331 73.101453 
L 282.568475 74.865632 
L 283.953618 77.510744 
L 285.338762 79.04235 
L 286.723906 81.964178 
L 288.109049 83.655782 
L 289.494193 85.614372 
L 290.879336 87.968222 
L 292.26448 91.989819 
L 293.649623 93.62789 
L 295.034767 96.09128 
L 296.41991 98.167171 
L 297.805054 101.715446 
L 299.190197 104.551297 
L 300.575341 109.106085 
L 301.960484 111.926651 
L 303.345628 114.68855 
L 304.730772 116.876961 
L 306.115915 119.961723 
L 307.501059 121.509021 
L 308.886202 123.402798 
L 310.271346 125.795668 
L 311.656489 127.091611 
L 313.041633 129.282834 
L 314.426776 130.963743 
L 315.81192 133.047113 
L 317.197063 133.997571 
L 318.582207 136.353628 
L 319.96735 138.396513 
L 321.352494 139.154672 
L 326.893068 140.016892 
" clip-path="url(#p0f1b6e83cc)" style="fill: none; stroke: #1565c0; stroke-linecap: square"/>
   </g>
   <g id="patch_9">
    <path d="M 188.725 141.14875 
L 188.725 16.06875 
" style="fill: none; stroke: #000000; stroke-width: 0.5; stroke-linejoin: miter; stroke-linecap: square"/>
   </g>
   <g id="patch_10">
    <path d="M 333.4725 141.14875 
L 333.4725 16.06875 
" style="fill: none; stroke: #000000; stroke-width: 0.5; stroke-linejoin: miter; stroke-linecap: square"/>
   </g>
   <g id="patch_11">
    <path d="M 188.725 141.14875 
L 333.4725 141.14875 
" style="fill: none; stroke: #000000; stroke-width: 0.5; stroke-linejoin: miter; stroke-linecap: square"/>
   </g>
   <g id="patch_12">
    <path d="M 188.725 16.06875 
L 333.4725 16.06875 
" style="fill: none; stroke: #000000; stroke-width: 0.5; stroke-linejoin: miter; stroke-linecap: square"/>
   </g>
   <g id="text_22">
    <g id="patch_13">
     <path d="M 298.607887 33.475837 
L 329.130075 33.475837 
Q 330.930075 33.475837 330.930075 31.675838 
L 330.930075 19.82115 
Q 330.930075 18.02115 329.130075 18.02115 
L 298.607887 18.02115 
Q 296.807887 18.02115 296.807887 19.82115 
L 296.807887 31.675838 
Q 296.807887 33.475837 298.607887 33.475837 
z
" style="fill: #ffffff; opacity: 0.8; stroke: #cccccc; stroke-linejoin: miter"/>
    </g>
    <!-- HR = 0.82 -->
    <g transform="translate(301.949137 24.115837) scale(0.06 -0.06)">
     <use xlink:href="#ArialMT-48"/>
     <use xlink:href="#ArialMT-52" transform="translate(72.216797 0)"/>
     <use xlink:href="#ArialMT-20" transform="translate(144.433594 0)"/>
     <use xlink:href="#ArialMT-3d" transform="translate(172.216797 0)"/>
     <use xlink:href="#ArialMT-20" transform="translate(230.615234 0)"/>
     <use xlink:href="#ArialMT-30" transform="translate(258.398438 0)"/>
     <use xlink:href="#ArialMT-2e" transform="translate(314.013672 0)"/>
     <use xlink:href="#ArialMT-38" transform="translate(341.796875 0)"/>
     <use xlink:href="#ArialMT-32" transform="translate(397.412109 0)"/>
    </g>
    <!-- p = 6.1e-08 -->
    <g transform="translate(298.607887 30.483337) scale(0.06 -0.06)">
     <use xlink:href="#ArialMT-70"/>
     <use xlink:href="#ArialMT-20" transform="translate(55.615234 0)"/>
     <use xlink:href="#ArialMT-3d" transform="translate(83.398438 0)"/>
     <use xlink:href="#ArialMT-20" transform="translate(141.796875 0)"/>
     <use xlink:href="#ArialMT-36" transform="translate(169.580078 0)"/>
     <use xlink:href="#ArialMT-2e" transform="translate(225.195312 0)"/>
     <use xlink:href="#ArialMT-31" transform="translate(252.978516 0)"/>
     <use xlink:href="#ArialMT-65" transform="translate(308.59375 0)"/>
     <use xlink:href="#ArialMT-2d" transform="translate(364.208984 0)"/>
     <use xlink:href="#ArialMT-30" transform="translate(397.509766 0)"/>
     <use xlink:href="#ArialMT-38" transform="translate(453.125 0)"/>
    </g>
   </g>
   <g id="text_23">
    <!-- agar.4 -->
    <g transform="translate(248.088828 10.06875) scale(0.09 -0.09)">
     <defs>
      <path id="Arial-BoldMT-61" d="M 1116 2306 
L 319 2450 
Q 453 2931 781 3162 
Q 1109 3394 1756 3394 
Q 2344 3394 2631 3255 
Q 2919 3116 3036 2902 
Q 3153 2688 3153 2116 
L 3144 1091 
Q 3144 653 3186 445 
Q 3228 238 3344 0 
L 2475 0 
Q 2441 88 2391 259 
Q 2369 338 2359 363 
Q 2134 144 1878 34 
Q 1622 -75 1331 -75 
Q 819 -75 523 203 
Q 228 481 228 906 
Q 228 1188 362 1408 
Q 497 1628 739 1745 
Q 981 1863 1438 1950 
Q 2053 2066 2291 2166 
L 2291 2253 
Q 2291 2506 2166 2614 
Q 2041 2722 1694 2722 
Q 1459 2722 1328 2630 
Q 1197 2538 1116 2306 
z
M 2291 1594 
Q 2122 1538 1756 1459 
Q 1391 1381 1278 1306 
Q 1106 1184 1106 997 
Q 1106 813 1243 678 
Q 1381 544 1594 544 
Q 1831 544 2047 700 
Q 2206 819 2256 991 
Q 2291 1103 2291 1419 
L 2291 1594 
z
" transform="scale(0.015625)"/>
      <path id="Arial-BoldMT-67" d="M 378 -219 
L 1381 -341 
Q 1406 -516 1497 -581 
Q 1622 -675 1891 -675 
Q 2234 -675 2406 -572 
Q 2522 -503 2581 -350 
Q 2622 -241 2622 53 
L 2622 538 
Q 2228 0 1628 0 
Q 959 0 569 566 
Q 263 1013 263 1678 
Q 263 2513 664 2953 
Q 1066 3394 1663 3394 
Q 2278 3394 2678 2853 
L 2678 3319 
L 3500 3319 
L 3500 341 
Q 3500 -247 3403 -537 
Q 3306 -828 3131 -993 
Q 2956 -1159 2664 -1253 
Q 2372 -1347 1925 -1347 
Q 1081 -1347 728 -1058 
Q 375 -769 375 -325 
Q 375 -281 378 -219 
z
M 1163 1728 
Q 1163 1200 1367 954 
Q 1572 709 1872 709 
Q 2194 709 2416 961 
Q 2638 1213 2638 1706 
Q 2638 2222 2425 2472 
Q 2213 2722 1888 2722 
Q 1572 2722 1367 2476 
Q 1163 2231 1163 1728 
z
" transform="scale(0.015625)"/>
      <path id="Arial-BoldMT-72" d="M 1300 0 
L 422 0 
L 422 3319 
L 1238 3319 
L 1238 2847 
Q 1447 3181 1614 3287 
Q 1781 3394 1994 3394 
Q 2294 3394 2572 3228 
L 2300 2463 
Q 2078 2606 1888 2606 
Q 1703 2606 1575 2504 
Q 1447 2403 1373 2137 
Q 1300 1872 1300 1025 
L 1300 0 
z
" transform="scale(0.015625)"/>
      <path id="Arial-BoldMT-34" d="M 1994 0 
L 1994 922 
L 119 922 
L 119 1691 
L 2106 4600 
L 2844 4600 
L 2844 1694 
L 3413 1694 
L 3413 922 
L 2844 922 
L 2844 0 
L 1994 0 
z
M 1994 1694 
L 1994 3259 
L 941 1694 
L 1994 1694 
z
" transform="scale(0.015625)"/>
     </defs>
     <use xlink:href="#Arial-BoldMT-61"/>
     <use xlink:href="#Arial-BoldMT-67" transform="translate(55.615234 0)"/>
     <use xlink:href="#Arial-BoldMT-61" transform="translate(116.699219 0)"/>
     <use xlink:href="#Arial-BoldMT-72" transform="translate(172.314453 0)"/>
     <use xlink:href="#Arial-BoldMT-2e" transform="translate(205.730469 0)"/>
     <use xlink:href="#Arial-BoldMT-34" transform="translate(233.513672 0)"/>
    </g>
   </g>
   <g id="legend_2">
    <g id="line2d_29">
     <path d="M 195.025 111.204062 
L 202.025 111.204062 
L 209.025 111.204062 
" style="fill: none; stroke: #c62828; stroke-linecap: square"/>
    </g>
    <g id="text_24">
     <!-- Near -->
     <g transform="translate(214.625 113.654062) scale(0.07 -0.07)">
      <use xlink:href="#ArialMT-4e"/>
      <use xlink:href="#ArialMT-65" transform="translate(72.216797 0)"/>
      <use xlink:href="#ArialMT-61" transform="translate(127.832031 0)"/>
      <use xlink:href="#ArialMT-72" transform="translate(183.447266 0)"/>
     </g>
    </g>
    <g id="line2d_30">
     <path d="M 195.025 121.105781 
L 202.025 121.105781 
L 209.025 121.105781 
" style="fill: none; stroke: #f57c00; stroke-linecap: square"/>
    </g>
    <g id="text_25">
     <!-- Mid -->
     <g transform="translate(214.625 123.555781) scale(0.07 -0.07)">
      <use xlink:href="#ArialMT-4d"/>
      <use xlink:href="#ArialMT-69" transform="translate(83.300781 0)"/>
      <use xlink:href="#ArialMT-64" transform="translate(105.517578 0)"/>
     </g>
    </g>
    <g id="line2d_31">
     <path d="M 195.025 131.0075 
L 202.025 131.0075 
L 209.025 131.0075 
" style="fill: none; stroke: #1565c0; stroke-linecap: square"/>
    </g>
    <g id="text_26">
     <!-- Far -->
     <g transform="translate(214.625 133.4575) scale(0.07 -0.07)">
      <use xlink:href="#ArialMT-46"/>
      <use xlink:href="#ArialMT-61" transform="translate(61.083984 0)"/>
      <use xlink:href="#ArialMT-72" transform="translate(116.699219 0)"/>
     </g>
    </g>
   </g>
  </g>
  <g id="axes_3">
   <g id="patch_14">
    <path d="M 345.6125 141.14875 
L 490.36 141.14875 
L 490.36 16.06875 
L 345.6125 16.06875 
z
" style="fill: #ffffff"/>
   </g>
   <g id="matplotlib.axis_5">
    <g id="xtick_8">
     <g id="line2d_32">
      <g>
       <use xlink:href="#m2d2c6a5526" x="388.492245" y="141.14875" style="stroke: #000000; stroke-width: 0.5"/>
      </g>
     </g>
     <g id="text_27">
      <!-- 5 -->
      <g transform="translate(386.545917 153.159219) scale(0.07 -0.07)">
       <use xlink:href="#ArialMT-35"/>
      </g>
     </g>
    </g>
    <g id="xtick_9">
     <g id="line2d_33">
      <g>
       <use xlink:href="#m2d2c6a5526" x="433.867637" y="141.14875" style="stroke: #000000; stroke-width: 0.5"/>
      </g>
     </g>
     <g id="text_28">
      <!-- 10 -->
      <g transform="translate(429.974981 153.159219) scale(0.07 -0.07)">
       <use xlink:href="#ArialMT-31"/>
       <use xlink:href="#ArialMT-30" transform="translate(55.615234 0)"/>
      </g>
     </g>
    </g>
    <g id="xtick_10">
     <g id="line2d_34">
      <g>
       <use xlink:href="#m2d2c6a5526" x="479.243029" y="141.14875" style="stroke: #000000; stroke-width: 0.5"/>
      </g>
     </g>
     <g id="text_29">
      <!-- 15 -->
      <g transform="translate(475.350373 153.159219) scale(0.07 -0.07)">
       <use xlink:href="#ArialMT-31"/>
       <use xlink:href="#ArialMT-35" transform="translate(55.615234 0)"/>
      </g>
     </g>
    </g>
    <g id="text_30">
     <!-- Time (min) -->
     <g transform="translate(399.028125 164.374219) scale(0.08 -0.08)">
      <use xlink:href="#ArialMT-54"/>
      <use xlink:href="#ArialMT-69" transform="translate(57.333984 0)"/>
      <use xlink:href="#ArialMT-6d" transform="translate(79.550781 0)"/>
      <use xlink:href="#ArialMT-65" transform="translate(162.851562 0)"/>
      <use xlink:href="#ArialMT-20" transform="translate(218.466797 0)"/>
      <use xlink:href="#ArialMT-28" transform="translate(246.25 0)"/>
      <use xlink:href="#ArialMT-6d" transform="translate(279.550781 0)"/>
      <use xlink:href="#ArialMT-69" transform="translate(362.851562 0)"/>
      <use xlink:href="#ArialMT-6e" transform="translate(385.068359 0)"/>
      <use xlink:href="#ArialMT-29" transform="translate(440.683594 0)"/>
     </g>
    </g>
   </g>
   <g id="matplotlib.axis_6">
    <g id="ytick_13">
     <g id="line2d_35">
      <g>
       <use xlink:href="#m6b3b5c3bc4" x="345.6125" y="141.14875" style="stroke: #000000; stroke-width: 0.5"/>
      </g>
     </g>
    </g>
    <g id="ytick_14">
     <g id="line2d_36">
      <g>
       <use xlink:href="#m6b3b5c3bc4" x="345.6125" y="117.323988" style="stroke: #000000; stroke-width: 0.5"/>
      </g>
     </g>
    </g>
    <g id="ytick_15">
     <g id="line2d_37">
      <g>
       <use xlink:href="#m6b3b5c3bc4" x="345.6125" y="93.499226" style="stroke: #000000; stroke-width: 0.5"/>
      </g>
     </g>
    </g>
    <g id="ytick_16">
     <g id="line2d_38">
      <g>
       <use xlink:href="#m6b3b5c3bc4" x="345.6125" y="69.674464" style="stroke: #000000; stroke-width: 0.5"/>
      </g>
     </g>
    </g>
    <g id="ytick_17">
     <g id="line2d_39">
      <g>
       <use xlink:href="#m6b3b5c3bc4" x="345.6125" y="45.849702" style="stroke: #000000; stroke-width: 0.5"/>
      </g>
     </g>
    </g>
    <g id="ytick_18">
     <g id="line2d_40">
      <g>
       <use xlink:href="#m6b3b5c3bc4" x="345.6125" y="22.02494" style="stroke: #000000; stroke-width: 0.5"/>
      </g>
     </g>
    </g>
   </g>
   <g id="line2d_41">
    <path d="M 352.191932 22.74863 
L 355.216958 22.989704 
L 358.241984 23.230526 
L 361.26701 23.471114 
L 367.317062 23.71144 
L 368.829575 23.71144 
L 370.342089 24.192015 
L 374.879628 24.432361 
L 377.904654 25.151789 
L 380.92968 25.630607 
L 382.442193 26.586494 
L 383.954706 27.06511 
L 385.467219 27.304173 
L 386.979732 27.781962 
L 388.492245 28.497603 
L 390.004758 29.92457 
L 391.517271 31.113902 
L 393.029784 32.300222 
L 394.542298 34.654906 
L 396.054811 36.771927 
L 397.567324 37.243338 
L 399.079837 39.115787 
L 400.59235 42.823238 
L 402.104863 43.755428 
L 403.617376 45.37586 
L 405.129889 50.798974 
L 406.642402 51.942645 
L 408.154915 53.98548 
L 409.667428 56.239547 
L 411.179941 58.037626 
L 412.692454 61.146259 
L 414.204967 65.102846 
L 415.71748 67.303352 
L 417.229993 69.273221 
L 418.742507 71.444079 
L 420.25502 72.742811 
L 421.767533 74.893032 
L 423.280046 77.441076 
L 424.792559 78.710797 
L 426.305072 81.207252 
L 427.817585 83.481997 
L 429.330098 85.92776 
L 430.842611 88.922441 
L 432.355124 90.90771 
L 433.867637 94.19191 
L 435.38015 97.389886 
L 436.892663 101.564799 
L 438.405176 103.546062 
L 439.917689 106.353496 
L 441.430202 108.759622 
L 442.942716 110.951271 
L 444.455229 113.091928 
L 445.967742 115.483186 
L 447.480255 116.896473 
L 448.992768 119.029751 
L 450.505281 122.588728 
L 452.017794 123.856943 
L 453.530307 125.858466 
L 455.04282 127.284284 
L 456.555333 128.773469 
L 458.067846 131.056845 
L 459.580359 132.18708 
L 461.092872 133.150415 
L 462.605385 134.260093 
L 464.117898 134.951771 
L 465.630411 136.514922 
L 467.142925 137.535344 
L 468.655438 138.735368 
L 470.167951 139.113458 
L 471.680464 139.877904 
L 473.192977 140.314311 
L 474.70549 140.474732 
L 476.218003 140.703313 
L 477.730516 140.938523 
L 479.243029 140.9639 
L 480.755542 141.070547 
L 482.268055 141.130537 
L 483.780568 141.147847 
" clip-path="url(#pf25a5043d9)" style="fill: none; stroke: #c62828; stroke-linecap: square"/>
   </g>
   <g id="line2d_42">
    <path d="M 352.191932 22.542131 
L 355.216958 22.714617 
L 358.241984 22.887023 
L 361.26701 23.059362 
L 367.317062 23.231615 
L 368.829575 23.231615 
L 370.342089 23.576366 
L 374.879628 23.748936 
L 377.904654 24.266098 
L 380.92968 24.610805 
L 382.442193 25.300187 
L 383.954706 25.645979 
L 385.467219 25.818855 
L 386.979732 26.164672 
L 388.492245 26.683424 
L 390.004758 27.720625 
L 391.517271 28.588008 
L 393.029784 29.45587 
L 394.542298 31.186521 
L 396.054811 32.751857 
L 397.567324 33.101653 
L 399.079837 34.495552 
L 400.59235 37.277283 
L 402.104863 37.9814 
L 403.617376 39.209981 
L 405.129889 43.365786 
L 406.642402 44.251201 
L 408.154915 45.840865 
L 409.667428 47.607322 
L 411.179941 49.026064 
L 412.692454 51.499788 
L 414.204967 54.688456 
L 415.71748 56.482361 
L 417.229993 58.101252 
L 418.742507 59.900094 
L 420.25502 60.983918 
L 421.767533 62.791373 
L 423.280046 64.955113 
L 424.792559 66.042545 
L 426.305072 68.199247 
L 427.817585 70.186882 
L 429.330098 72.349145 
L 430.842611 75.03441 
L 432.355124 76.838836 
L 433.867637 79.86942 
L 435.38015 82.87928 
L 436.892663 86.905337 
L 438.405176 88.858125 
L 439.917689 91.676506 
L 441.430202 94.14416 
L 442.942716 96.437874 
L 444.455229 98.724671 
L 445.967742 101.33913 
L 447.480255 102.917018 
L 448.992768 105.349678 
L 450.505281 109.564431 
L 452.017794 111.120957 
L 453.530307 113.645998 
L 455.04282 115.502683 
L 456.555333 117.501293 
L 458.067846 120.706261 
L 459.580359 122.368525 
L 461.092872 123.833251 
L 462.605385 125.584829 
L 464.117898 126.717437 
L 465.630411 129.42232 
L 467.142925 131.330515 
L 468.655438 133.78889 
L 470.167951 134.631996 
L 471.680464 136.493031 
L 473.192977 137.701017 
L 474.70549 138.188515 
L 476.218003 138.946425 
L 477.730516 139.860393 
L 479.243029 139.973465 
L 480.755542 140.512859 
L 482.268055 140.9241 
L 483.780568 141.122456 
" clip-path="url(#pf25a5043d9)" style="fill: none; stroke: #f57c00; stroke-linecap: square"/>
   </g>
   <g id="line2d_43">
    <path d="M 352.191932 22.346693 
L 355.216958 22.454117 
L 358.241984 22.561551 
L 361.26701 22.669002 
L 367.317062 22.776458 
L 368.829575 22.776458 
L 370.342089 22.991704 
L 374.879628 23.099537 
L 377.904654 23.423056 
L 380.92968 23.638993 
L 382.442193 24.071574 
L 383.954706 24.288922 
L 385.467219 24.397676 
L 386.979732 24.61541 
L 388.492245 24.942492 
L 390.004758 25.598153 
L 391.517271 26.148209 
L 393.029784 26.700176 
L 394.542298 27.805752 
L 396.054811 28.811406 
L 397.567324 29.036882 
L 399.079837 29.938139 
L 400.59235 31.750168 
L 402.104863 32.211734 
L 403.617376 33.019961 
L 405.129889 35.781631 
L 406.642402 36.375717 
L 408.154915 37.447513 
L 409.667428 38.646475 
L 411.179941 39.615645 
L 412.692454 41.319115 
L 414.204967 43.541395 
L 415.71748 44.805249 
L 417.229993 45.954527 
L 418.742507 47.241546 
L 420.25502 48.022198 
L 421.767533 49.333006 
L 423.280046 50.917346 
L 424.792559 51.72001 
L 426.305072 53.325065 
L 427.817585 54.820272 
L 429.330098 56.46496 
L 430.842611 58.534954 
L 432.355124 59.943837 
L 433.867637 62.344246 
L 435.38015 64.773133 
L 436.892663 68.097688 
L 438.405176 69.743751 
L 439.917689 72.161085 
L 441.430202 74.320735 
L 442.942716 76.366964 
L 444.455229 78.44697 
L 445.967742 80.877745 
L 447.480255 82.374034 
L 448.992768 84.727543 
L 450.505281 88.953985 
L 452.017794 90.568157 
L 453.530307 93.255819 
L 455.04282 95.292093 
L 456.555333 97.54746 
L 458.067846 101.321304 
L 459.580359 103.366578 
L 461.092872 105.226332 
L 462.605385 107.530481 
L 464.117898 109.072872 
L 465.630411 112.955371 
L 467.142925 115.902242 
L 468.655438 120.04309 
L 470.167951 121.580388 
L 471.680464 125.2716 
L 473.192977 127.975822 
L 474.70549 129.166799 
L 476.218003 131.178966 
L 477.730516 134.004639 
L 479.243029 134.401133 
L 480.755542 136.542677 
L 482.268055 138.736388 
L 483.780568 140.512947 
" clip-path="url(#pf25a5043d9)" style="fill: none; stroke: #1565c0; stroke-linecap: square"/>
   </g>
   <g id="patch_15">
    <path d="M 345.6125 141.14875 
L 345.6125 16.06875 
" style="fill: none; stroke: #000000; stroke-width: 0.5; stroke-linejoin: miter; stroke-linecap: square"/>
   </g>
   <g id="patch_16">
    <path d="M 490.36 141.14875 
L 490.36 16.06875 
" style="fill: none; stroke: #000000; stroke-width: 0.5; stroke-linejoin: miter; stroke-linecap: square"/>
   </g>
   <g id="patch_17">
    <path d="M 345.6125 141.14875 
L 490.36 141.14875 
" style="fill: none; stroke: #000000; stroke-width: 0.5; stroke-linejoin: miter; stroke-linecap: square"/>
   </g>
   <g id="patch_18">
    <path d="M 345.6125 16.06875 
L 490.36 16.06875 
" style="fill: none; stroke: #000000; stroke-width: 0.5; stroke-linejoin: miter; stroke-linecap: square"/>
   </g>
   <g id="text_31">
    <g id="patch_19">
     <path d="M 455.495387 33.475837 
L 486.017575 33.475837 
Q 487.817575 33.475837 487.817575 31.675838 
L 487.817575 19.82115 
Q 487.817575 18.02115 486.017575 18.02115 
L 455.495387 18.02115 
Q 453.695387 18.02115 453.695387 19.82115 
L 453.695387 31.675838 
Q 453.695387 33.475837 455.495387 33.475837 
z
" style="fill: #ffffff; opacity: 0.8; stroke: #cccccc; stroke-linejoin: miter"/>
    </g>
    <!-- HR = 0.77 -->
    <g transform="translate(458.836637 24.115837) scale(0.06 -0.06)">
     <defs>
      <path id="ArialMT-37" d="M 303 3981 
L 303 4522 
L 3269 4522 
L 3269 4084 
Q 2831 3619 2401 2847 
Q 1972 2075 1738 1259 
Q 1569 684 1522 0 
L 944 0 
Q 953 541 1156 1306 
Q 1359 2072 1739 2783 
Q 2119 3494 2547 3981 
L 303 3981 
z
" transform="scale(0.015625)"/>
     </defs>
     <use xlink:href="#ArialMT-48"/>
     <use xlink:href="#ArialMT-52" transform="translate(72.216797 0)"/>
     <use xlink:href="#ArialMT-20" transform="translate(144.433594 0)"/>
     <use xlink:href="#ArialMT-3d" transform="translate(172.216797 0)"/>
     <use xlink:href="#ArialMT-20" transform="translate(230.615234 0)"/>
     <use xlink:href="#ArialMT-30" transform="translate(258.398438 0)"/>
     <use xlink:href="#ArialMT-2e" transform="translate(314.013672 0)"/>
     <use xlink:href="#ArialMT-37" transform="translate(341.796875 0)"/>
     <use xlink:href="#ArialMT-37" transform="translate(397.412109 0)"/>
    </g>
    <!-- p = 3.1e-12 -->
    <g transform="translate(455.495387 30.483337) scale(0.06 -0.06)">
     <use xlink:href="#ArialMT-70"/>
     <use xlink:href="#ArialMT-20" transform="translate(55.615234 0)"/>
     <use xlink:href="#ArialMT-3d" transform="translate(83.398438 0)"/>
     <use xlink:href="#ArialMT-20" transform="translate(141.796875 0)"/>
     <use xlink:href="#ArialMT-33" transform="translate(169.580078 0)"/>
     <use xlink:href="#ArialMT-2e" transform="translate(225.195312 0)"/>
     <use xlink:href="#ArialMT-31" transform="translate(252.978516 0)"/>
     <use xlink:href="#ArialMT-65" transform="translate(308.59375 0)"/>
     <use xlink:href="#ArialMT-2d" transform="translate(364.208984 0)"/>
     <use xlink:href="#ArialMT-31" transform="translate(397.509766 0)"/>
     <use xlink:href="#ArialMT-32" transform="translate(453.125 0)"/>
    </g>
   </g>
   <g id="text_32">
    <!-- Green.1 -->
    <g transform="translate(401.228672 10.06875) scale(0.09 -0.09)">
     <defs>
      <path id="Arial-BoldMT-47" d="M 2597 1684 
L 2597 2456 
L 4591 2456 
L 4591 631 
Q 4300 350 3748 136 
Q 3197 -78 2631 -78 
Q 1913 -78 1378 223 
Q 844 525 575 1086 
Q 306 1647 306 2306 
Q 306 3022 606 3578 
Q 906 4134 1484 4431 
Q 1925 4659 2581 4659 
Q 3434 4659 3914 4301 
Q 4394 3944 4531 3313 
L 3613 3141 
Q 3516 3478 3248 3673 
Q 2981 3869 2581 3869 
Q 1975 3869 1617 3484 
Q 1259 3100 1259 2344 
Q 1259 1528 1621 1120 
Q 1984 713 2572 713 
Q 2863 713 3155 827 
Q 3447 941 3656 1103 
L 3656 1684 
L 2597 1684 
z
" transform="scale(0.015625)"/>
      <path id="Arial-BoldMT-65" d="M 2381 1056 
L 3256 909 
Q 3088 428 2723 176 
Q 2359 -75 1813 -75 
Q 947 -75 531 491 
Q 203 944 203 1634 
Q 203 2459 634 2926 
Q 1066 3394 1725 3394 
Q 2466 3394 2894 2905 
Q 3322 2416 3303 1406 
L 1103 1406 
Q 1113 1016 1316 798 
Q 1519 581 1822 581 
Q 2028 581 2168 693 
Q 2309 806 2381 1056 
z
M 2431 1944 
Q 2422 2325 2234 2523 
Q 2047 2722 1778 2722 
Q 1491 2722 1303 2513 
Q 1116 2303 1119 1944 
L 2431 1944 
z
" transform="scale(0.015625)"/>
      <path id="Arial-BoldMT-6e" d="M 3478 0 
L 2600 0 
L 2600 1694 
Q 2600 2231 2544 2389 
Q 2488 2547 2361 2634 
Q 2234 2722 2056 2722 
Q 1828 2722 1647 2597 
Q 1466 2472 1398 2265 
Q 1331 2059 1331 1503 
L 1331 0 
L 453 0 
L 453 3319 
L 1269 3319 
L 1269 2831 
Q 1703 3394 2363 3394 
Q 2653 3394 2893 3289 
Q 3134 3184 3257 3021 
Q 3381 2859 3429 2653 
Q 3478 2447 3478 2063 
L 3478 0 
z
" transform="scale(0.015625)"/>
     </defs>
     <use xlink:href="#Arial-BoldMT-47"/>
     <use xlink:href="#Arial-BoldMT-72" transform="translate(77.783203 0)"/>
     <use xlink:href="#Arial-BoldMT-65" transform="translate(116.699219 0)"/>
     <use xlink:href="#Arial-BoldMT-65" transform="translate(172.314453 0)"/>
     <use xlink:href="#Arial-BoldMT-6e" transform="translate(227.929688 0)"/>
     <use xlink:href="#Arial-BoldMT-2e" transform="translate(289.013672 0)"/>
     <use xlink:href="#Arial-BoldMT-31" transform="translate(316.796875 0)"/>
    </g>
   </g>
   <g id="legend_3">
    <g id="line2d_44">
     <path d="M 351.9125 111.204062 
L 358.9125 111.204062 
L 365.9125 111.204062 
" style="fill: none; stroke: #c62828; stroke-linecap: square"/>
    </g>
    <g id="text_33">
     <!-- Near -->
     <g transform="translate(371.5125 113.654062) scale(0.07 -0.07)">
      <use xlink:href="#ArialMT-4e"/>
      <use xlink:href="#ArialMT-65" transform="translate(72.216797 0)"/>
      <use xlink:href="#ArialMT-61" transform="translate(127.832031 0)"/>
      <use xlink:href="#ArialMT-72" transform="translate(183.447266 0)"/>
     </g>
    </g>
    <g id="line2d_45">
     <path d="M 351.9125 121.105781 
L 358.9125 121.105781 
L 365.9125 121.105781 
" style="fill: none; stroke: #f57c00; stroke-linecap: square"/>
    </g>
    <g id="text_34">
     <!-- Mid -->
     <g transform="translate(371.5125 123.555781) scale(0.07 -0.07)">
      <use xlink:href="#ArialMT-4d"/>
      <use xlink:href="#ArialMT-69" transform="translate(83.300781 0)"/>
      <use xlink:href="#ArialMT-64" transform="translate(105.517578 0)"/>
     </g>
    </g>
    <g id="line2d_46">
     <path d="M 351.9125 131.0075 
L 358.9125 131.0075 
L 365.9125 131.0075 
" style="fill: none; stroke: #1565c0; stroke-linecap: square"/>
    </g>
    <g id="text_35">
     <!-- Far -->
     <g transform="translate(371.5125 133.4575) scale(0.07 -0.07)">
      <use xlink:href="#ArialMT-46"/>
      <use xlink:href="#ArialMT-61" transform="translate(61.083984 0)"/>
      <use xlink:href="#ArialMT-72" transform="translate(116.699219 0)"/>
     </g>
    </g>
   </g>
  </g>
 </g>
 <defs>
  <clipPath id="pfdbc94a36b">
   <rect x="31.8375" y="16.06875" width="144.7475" height="125.08"/>
  </clipPath>
  <clipPath id="p0f1b6e83cc">
   <rect x="188.725" y="16.06875" width="144.7475" height="125.08"/>
  </clipPath>
  <clipPath id="pf25a5043d9">
   <rect x="345.6125" y="16.06875" width="144.7475" height="125.08"/>
  </clipPath>
 </defs>
</svg>
