<?xml version="1.0" encoding="utf-8" standalone="no"?>
<!DOCTYPE svg PUBLIC "-//W3C//DTD SVG 1.1//EN"
  "http://www.w3.org/Graphics/SVG/1.1/DTD/svg11.dtd">
<svg xmlns:xlink="http://www.w3.org/1999/xlink" width="438.139787pt" height="388.027811pt" viewBox="0 0 438.139787 388.027811" xmlns="http://www.w3.org/2000/svg" version="1.1">
 <metadata>
  <rdf:RDF xmlns:dc="http://purl.org/dc/elements/1.1/" xmlns:cc="http://creativecommons.org/ns#" xmlns:rdf="http://www.w3.org/1999/02/22-rdf-syntax-ns#">
   <cc:Work>
    <dc:type rdf:resource="http://purl.org/dc/dcmitype/StillImage"/>
    <dc:date>2026-03-30T04:51:48.483543</dc:date>
    <dc:format>image/svg+xml</dc:format>
    <dc:creator>
     <cc:Agent>
      <dc:title>Matplotlib v3.10.8, https://matplotlib.org/</dc:title>
     </cc:Agent>
    </dc:creator>
   </cc:Work>
  </rdf:RDF>
 </metadata>
 <defs>
  <style type="text/css">*{stroke-linejoin: round; stroke-linecap: butt}</style>
 </defs>
 <g id="figure_1">
  <g id="patch_1">
   <path d="M 0 388.027811 
L 438.139787 388.027811 
L 438.139787 -0 
L 0 -0 
z
" style="fill: #ffffff"/>
  </g>
  <g id="axes_1">
   <g id="patch_2">
    <path d="M 32.7425 170.966681 
L 216.269327 170.966681 
L 216.269327 28.990031 
L 32.7425 28.990031 
z
" style="fill: #ffffff"/>
   </g>
   <g id="FillBetweenPolyCollection_1">
    <defs>
     <path id="m216ca5735a" d="M 32.7425 -352.276987 
L 32.7425 -352.276987 
L 35.291484 -352.276987 
L 35.291484 -352.276987 
L 37.840467 -352.276987 
L 37.840467 -349.372223 
L 40.389451 -349.372223 
L 40.389451 -348.764608 
L 42.938435 -348.764608 
L 42.938435 -348.664003 
L 45.487419 -348.664003 
L 45.487419 -348.463314 
L 48.036402 -348.463314 
L 48.036402 -348.263271 
L 50.585386 -348.263271 
L 50.585386 -348.113633 
L 53.13437 -348.113633 
L 53.13437 -348.063824 
L 55.683353 -348.063824 
L 55.683353 -347.964309 
L 58.232337 -347.964309 
L 58.232337 -347.864927 
L 60.781321 -347.864927 
L 60.781321 -347.765671 
L 63.330304 -347.765671 
L 63.330304 -347.518063 
L 65.879288 -347.518063 
L 65.879288 -347.271161 
L 70.977256 -347.271161 
L 70.977256 -346.975734 
L 73.526239 -346.975734 
L 73.526239 -346.779263 
L 76.075223 -346.779263 
L 76.075223 -346.338487 
L 78.624207 -346.338487 
L 78.624207 -345.801932 
L 81.17319 -345.801932 
L 81.17319 -345.315987 
L 83.722174 -345.315987 
L 83.722174 -344.686556 
L 86.271158 -344.686556 
L 86.271158 -344.155764 
L 88.820141 -344.155764 
L 88.820141 -343.674516 
L 91.369125 -343.674516 
L 91.369125 -343.146433 
L 93.918109 -343.146433 
L 93.918109 -342.61959 
L 96.467093 -342.61959 
L 96.467093 -341.093123 
L 99.016076 -341.093123 
L 99.016076 -340.238002 
L 101.56506 -340.238002 
L 101.56506 -339.006659 
L 104.114044 -339.006659 
L 104.114044 -337.166977 
L 106.663027 -337.166977 
L 106.663027 -335.053488 
L 109.212011 -335.053488 
L 109.212011 -333.508946 
L 111.760995 -333.508946 
L 111.760995 -330.105737 
L 114.309978 -330.105737 
L 114.309978 -326.579225 
L 116.858962 -326.579225 
L 116.858962 -321.269049 
L 119.407946 -321.269049 
L 119.407946 -311.818563 
L 121.95693 -311.818563 
L 121.95693 -296.172079 
L 124.505913 -296.172079 
L 124.505913 -277.388577 
L 127.054897 -277.388577 
L 127.054897 -266.129239 
L 129.603881 -266.129239 
L 129.603881 -258.087995 
L 132.152864 -258.087995 
L 132.152864 -247.098876 
L 134.701848 -247.098876 
L 134.701848 -239.22161 
L 137.250832 -239.22161 
L 137.250832 -230.393967 
L 139.799816 -230.393967 
L 139.799816 -221.651418 
L 142.348799 -221.651418 
L 142.348799 -218.161028 
L 144.897783 -218.161028 
L 144.897783 -217.206897 
L 147.446767 -217.206897 
L 147.446767 -217.150597 
L 170.38762 -217.150597 
L 170.38762 -217.06113 
L 170.38762 -217.06113 
L 170.38762 -217.06113 
L 170.38762 -217.579326 
L 147.446767 -217.579326 
L 147.446767 -217.703304 
L 144.897783 -217.703304 
L 144.897783 -219.205217 
L 142.348799 -219.205217 
L 142.348799 -223.560661 
L 139.799816 -223.560661 
L 139.799816 -233.411411 
L 137.250832 -233.411411 
L 137.250832 -242.912527 
L 134.701848 -242.912527 
L 134.701848 -251.209398 
L 132.152864 -251.209398 
L 132.152864 -262.596017 
L 129.603881 -262.596017 
L 129.603881 -270.820612 
L 127.054897 -270.820612 
L 127.054897 -282.208377 
L 124.505913 -282.208377 
L 124.505913 -300.901801 
L 121.95693 -300.901801 
L 121.95693 -316.172454 
L 119.407946 -316.172454 
L 119.407946 -325.236602 
L 116.858962 -325.236602 
L 116.858962 -330.262346 
L 114.309978 -330.262346 
L 114.309978 -333.566557 
L 111.760995 -333.566557 
L 111.760995 -336.724453 
L 109.212011 -336.724453 
L 109.212011 -338.145894 
L 106.663027 -338.145894 
L 106.663027 -340.076931 
L 104.114044 -340.076931 
L 104.114044 -341.742506 
L 101.56506 -341.742506 
L 101.56506 -342.847999 
L 99.016076 -342.847999 
L 99.016076 -343.610688 
L 96.467093 -343.610688 
L 96.467093 -344.960322 
L 93.918109 -344.960322 
L 93.918109 -345.422137 
L 91.369125 -345.422137 
L 91.369125 -345.88271 
L 88.820141 -345.88271 
L 88.820141 -346.300239 
L 86.271158 -346.300239 
L 86.271158 -346.758099 
L 83.722174 -346.758099 
L 83.722174 -347.297071 
L 81.17319 -347.297071 
L 81.17319 -347.709893 
L 78.624207 -347.709893 
L 78.624207 -348.161977 
L 76.075223 -348.161977 
L 76.075223 -348.530083 
L 73.526239 -348.530083 
L 73.526239 -348.693112 
L 70.977256 -348.693112 
L 70.977256 -348.936934 
L 65.879288 -348.936934 
L 65.879288 -349.139402 
L 63.330304 -349.139402 
L 63.330304 -349.341161 
L 60.781321 -349.341161 
L 60.781321 -349.421652 
L 58.232337 -349.421652 
L 58.232337 -349.502014 
L 55.683353 -349.502014 
L 55.683353 -349.582244 
L 53.13437 -349.582244 
L 53.13437 -349.622307 
L 50.585386 -349.622307 
L 50.585386 -349.742283 
L 48.036402 -349.742283 
L 48.036402 -349.901723 
L 45.487419 -349.901723 
L 45.487419 -350.060512 
L 42.938435 -350.060512 
L 42.938435 -350.139644 
L 40.389451 -350.139644 
L 40.389451 -350.610032 
L 37.840467 -350.610032 
L 37.840467 -352.276987 
L 35.291484 -352.276987 
L 35.291484 -352.276987 
L 32.7425 -352.276987 
z
" style="stroke: #9e9e9e; stroke-opacity: 0.18"/>
    </defs>
    <g clip-path="url(#p03ecdf9f19)">
     <use xlink:href="#m216ca5735a" x="0" y="388.027811" style="fill: #9e9e9e; fill-opacity: 0.18; stroke: #9e9e9e; stroke-opacity: 0.18"/>
    </g>
   </g>
   <g id="matplotlib.axis_1">
    <g id="xtick_1">
     <g id="line2d_1">
      <defs>
       <path id="me1ef926484" d="M 0 0 
L 0 3 
" style="stroke: #000000; stroke-width: 0.6"/>
      </defs>
      <g>
       <use xlink:href="#me1ef926484" x="32.7425" y="170.966681" style="stroke: #000000; stroke-width: 0.6"/>
      </g>
     </g>
    </g>
    <g id="xtick_2">
     <g id="line2d_2">
      <g>
       <use xlink:href="#me1ef926484" x="63.330304" y="170.966681" style="stroke: #000000; stroke-width: 0.6"/>
      </g>
     </g>
    </g>
    <g id="xtick_3">
     <g id="line2d_3">
      <g>
       <use xlink:href="#me1ef926484" x="93.918109" y="170.966681" style="stroke: #000000; stroke-width: 0.6"/>
      </g>
     </g>
    </g>
    <g id="xtick_4">
     <g id="line2d_4">
      <g>
       <use xlink:href="#me1ef926484" x="124.505913" y="170.966681" style="stroke: #000000; stroke-width: 0.6"/>
      </g>
     </g>
    </g>
    <g id="xtick_5">
     <g id="line2d_5">
      <g>
       <use xlink:href="#me1ef926484" x="155.093718" y="170.966681" style="stroke: #000000; stroke-width: 0.6"/>
      </g>
     </g>
    </g>
    <g id="xtick_6">
     <g id="line2d_6">
      <g>
       <use xlink:href="#me1ef926484" x="185.681522" y="170.966681" style="stroke: #000000; stroke-width: 0.6"/>
      </g>
     </g>
    </g>
    <g id="xtick_7">
     <g id="line2d_7">
      <g>
       <use xlink:href="#me1ef926484" x="216.269327" y="170.966681" style="stroke: #000000; stroke-width: 0.6"/>
      </g>
     </g>
    </g>
   </g>
   <g id="matplotlib.axis_2">
    <g id="ytick_1">
     <g id="line2d_8">
      <defs>
       <path id="m581e05fcaa" d="M 0 0 
L -3 0 
" style="stroke: #000000; stroke-width: 0.6"/>
      </defs>
      <g>
       <use xlink:href="#m581e05fcaa" x="32.7425" y="170.966681" style="stroke: #000000; stroke-width: 0.6"/>
      </g>
     </g>
     <g id="text_1">
      <text style="font-size: 6.5px; font-family: 'Arial', 'Helvetica', 'DejaVu Sans', sans-serif; text-anchor: end" x="27.7425" y="173.29297" transform="rotate(-0 27.7425 173.29297)">0.0</text>
     </g>
    </g>
    <g id="ytick_2">
     <g id="line2d_9">
      <g>
       <use xlink:href="#m581e05fcaa" x="32.7425" y="143.92351" style="stroke: #000000; stroke-width: 0.6"/>
      </g>
     </g>
     <g id="text_2">
      <text style="font-size: 6.5px; font-family: 'Arial', 'Helvetica', 'DejaVu Sans', sans-serif; text-anchor: end" x="27.7425" y="146.249799" transform="rotate(-0 27.7425 146.249799)">0.2</text>
     </g>
    </g>
    <g id="ytick_3">
     <g id="line2d_10">
      <g>
       <use xlink:href="#m581e05fcaa" x="32.7425" y="116.880338" style="stroke: #000000; stroke-width: 0.6"/>
      </g>
     </g>
     <g id="text_3">
      <text style="font-size: 6.5px; font-family: 'Arial', 'Helvetica', 'DejaVu Sans', sans-serif; text-anchor: end" x="27.7425" y="119.206627" transform="rotate(-0 27.7425 119.206627)">0.4</text>
     </g>
    </g>
    <g id="ytick_4">
     <g id="line2d_11">
      <g>
       <use xlink:href="#m581e05fcaa" x="32.7425" y="89.837167" style="stroke: #000000; stroke-width: 0.6"/>
      </g>
     </g>
     <g id="text_4">
      <text style="font-size: 6.5px; font-family: 'Arial', 'Helvetica', 'DejaVu Sans', sans-serif; text-anchor: end" x="27.7425" y="92.163456" transform="rotate(-0 27.7425 92.163456)">0.6</text>
     </g>
    </g>
    <g id="ytick_5">
     <g id="line2d_12">
      <g>
       <use xlink:href="#m581e05fcaa" x="32.7425" y="62.793996" style="stroke: #000000; stroke-width: 0.6"/>
      </g>
     </g>
     <g id="text_5">
      <text style="font-size: 6.5px; font-family: 'Arial', 'Helvetica', 'DejaVu Sans', sans-serif; text-anchor: end" x="27.7425" y="65.120285" transform="rotate(-0 27.7425 65.120285)">0.8</text>
     </g>
    </g>
    <g id="ytick_6">
     <g id="line2d_13">
      <g>
       <use xlink:href="#m581e05fcaa" x="32.7425" y="35.750824" style="stroke: #000000; stroke-width: 0.6"/>
      </g>
     </g>
     <g id="text_6">
      <text style="font-size: 6.5px; font-family: 'Arial', 'Helvetica', 'DejaVu Sans', sans-serif; text-anchor: end" x="27.7425" y="38.077113" transform="rotate(-0 27.7425 38.077113)">1.0</text>
     </g>
    </g>
    <g id="text_7">
     <text style="font-size: 8px; font-family: 'Arial', 'Helvetica', 'DejaVu Sans', sans-serif; text-anchor: middle" x="13.02375" y="99.978356" transform="rotate(-90 13.02375 99.978356)">Survival  S(τ)</text>
    </g>
   </g>
   <g id="line2d_14">
    <path d="M 32.7425 35.750824 
L 37.840467 35.750824 
L 37.840467 36.259154 
L 40.389451 36.259154 
L 40.389451 36.51332 
L 50.585386 36.51332 
L 50.585386 36.767485 
L 60.781321 36.767485 
L 60.781321 37.02165 
L 63.330304 37.02165 
L 63.330304 37.275815 
L 65.879288 37.275815 
L 65.879288 37.52998 
L 70.977256 37.52998 
L 70.977256 38.038311 
L 73.526239 38.038311 
L 73.526239 38.292476 
L 78.624207 38.292476 
L 78.624207 39.054971 
L 81.17319 39.054971 
L 81.17319 39.563301 
L 86.271158 39.563301 
L 86.271158 39.817467 
L 88.820141 39.817467 
L 88.820141 40.325797 
L 91.369125 40.325797 
L 91.369125 40.834127 
L 93.918109 40.834127 
L 93.918109 41.850788 
L 96.467093 41.850788 
L 96.467093 42.867448 
L 99.016076 42.867448 
L 99.016076 43.629944 
L 101.56506 43.629944 
L 101.56506 44.392439 
L 104.114044 44.392439 
L 104.114044 44.900769 
L 106.663027 44.900769 
L 106.663027 45.91743 
L 109.212011 45.91743 
L 109.212011 47.188256 
L 111.760995 47.188256 
L 111.760995 48.967412 
L 114.309978 48.967412 
L 114.309978 49.729907 
L 116.858962 49.729907 
L 116.858962 50.746568 
L 119.407946 50.746568 
L 119.407946 51.254898 
L 121.95693 51.254898 
L 121.95693 52.525724 
L 124.505913 52.525724 
L 124.505913 55.067375 
L 127.054897 55.067375 
L 127.054897 60.150678 
L 129.603881 60.150678 
L 129.603881 65.488146 
L 132.152864 65.488146 
L 132.152864 73.1131 
L 134.701848 73.1131 
L 134.701848 84.550532 
L 137.250832 84.550532 
L 137.250832 106.662899 
L 139.799816 106.662899 
L 139.799816 143.77101 
L 142.348799 143.77101 
L 142.348799 164.104222 
L 144.897783 164.104222 
L 144.897783 170.966681 
" clip-path="url(#p03ecdf9f19)" style="fill: none; stroke: #9e9e9e; stroke-opacity: 0.3; stroke-width: 0.7; stroke-linecap: square"/>
   </g>
   <g id="line2d_15">
    <path d="M 32.7425 35.750824 
L 35.291484 35.750824 
L 35.291484 35.750824 
L 37.840467 35.750824 
L 37.840467 37.688631 
L 40.389451 37.688631 
L 40.389451 38.549879 
L 42.938435 38.549879 
L 42.938435 38.980502 
L 45.487419 38.980502 
L 45.487419 39.195814 
L 48.036402 39.195814 
L 48.036402 39.411126 
L 58.232337 39.411126 
L 58.232337 39.626438 
L 65.879288 39.626438 
L 65.879288 40.272374 
L 70.977256 40.272374 
L 70.977256 40.702997 
L 76.075223 40.702997 
L 76.075223 40.918309 
L 78.624207 40.918309 
L 78.624207 41.133621 
L 81.17319 41.133621 
L 81.17319 41.348933 
L 83.722174 41.348933 
L 83.722174 41.994869 
L 86.271158 41.994869 
L 86.271158 42.425492 
L 88.820141 42.425492 
L 88.820141 42.640804 
L 96.467093 42.640804 
L 96.467093 43.28674 
L 99.016076 43.28674 
L 99.016076 44.147987 
L 101.56506 44.147987 
L 101.56506 46.085794 
L 104.114044 46.085794 
L 104.114044 48.023601 
L 106.663027 48.023601 
L 106.663027 48.884848 
L 109.212011 48.884848 
L 109.212011 51.468591 
L 111.760995 51.468591 
L 111.760995 57.282012 
L 114.309978 57.282012 
L 114.309978 63.526056 
L 116.858962 63.526056 
L 116.858962 73.645714 
L 119.407946 73.645714 
L 119.407946 99.483139 
L 121.95693 99.483139 
L 121.95693 129.411489 
L 124.505913 129.411489 
L 124.505913 156.325473 
L 127.054897 156.325473 
L 127.054897 168.382938 
L 129.603881 168.382938 
L 129.603881 170.966681 
" clip-path="url(#p03ecdf9f19)" style="fill: none; stroke: #9e9e9e; stroke-opacity: 0.3; stroke-width: 0.7; stroke-linecap: square"/>
   </g>
   <g id="line2d_16">
    <path d="M 32.7425 35.750824 
L 37.840467 35.750824 
L 37.840467 37.044756 
L 58.232337 37.044756 
L 58.232337 37.368239 
L 81.17319 37.368239 
L 81.17319 38.338687 
L 91.369125 38.338687 
L 91.369125 38.66217 
L 96.467093 38.66217 
L 96.467093 38.985653 
L 104.114044 38.985653 
L 104.114044 39.309136 
L 109.212011 39.309136 
L 109.212011 40.926551 
L 111.760995 40.926551 
L 111.760995 41.250034 
L 114.309978 41.250034 
L 114.309978 41.897 
L 116.858962 41.897 
L 116.858962 44.16138 
L 119.407946 44.16138 
L 119.407946 48.366658 
L 121.95693 48.366658 
L 121.95693 52.248453 
L 124.505913 52.248453 
L 124.505913 65.187769 
L 127.054897 65.187769 
L 127.054897 75.215739 
L 129.603881 75.215739 
L 129.603881 104.976167 
L 132.152864 104.976167 
L 132.152864 135.383561 
L 134.701848 135.383561 
L 134.701848 150.263775 
L 137.250832 150.263775 
L 137.250832 165.143988 
L 139.799816 165.143988 
L 139.799816 169.672749 
L 147.446767 169.672749 
L 147.446767 170.966681 
" clip-path="url(#p03ecdf9f19)" style="fill: none; stroke: #9e9e9e; stroke-opacity: 0.3; stroke-width: 0.7; stroke-linecap: square"/>
   </g>
   <g id="line2d_17">
    <path d="M 32.7425 35.750824 
L 35.291484 35.750824 
L 35.291484 35.750824 
L 37.840467 35.750824 
L 37.840467 39.762723 
L 40.389451 39.762723 
L 40.389451 40.507354 
L 45.487419 40.507354 
L 45.487419 40.954133 
L 48.036402 40.954133 
L 48.036402 41.103059 
L 50.585386 41.103059 
L 50.585386 41.400911 
L 53.13437 41.400911 
L 53.13437 41.549837 
L 55.683353 41.549837 
L 55.683353 41.698763 
L 60.781321 41.698763 
L 60.781321 41.84769 
L 63.330304 41.84769 
L 63.330304 42.145542 
L 65.879288 42.145542 
L 65.879288 42.294468 
L 70.977256 42.294468 
L 70.977256 42.443394 
L 73.526239 42.443394 
L 73.526239 42.741247 
L 76.075223 42.741247 
L 76.075223 43.78373 
L 78.624207 43.78373 
L 78.624207 44.677287 
L 81.17319 44.677287 
L 81.17319 45.124065 
L 83.722174 45.124065 
L 83.722174 46.315475 
L 86.271158 46.315475 
L 86.271158 47.357958 
L 88.820141 47.357958 
L 88.820141 48.251515 
L 91.369125 48.251515 
L 91.369125 49.145072 
L 93.918109 49.145072 
L 93.918109 50.187555 
L 96.467093 50.187555 
L 96.467093 53.761783 
L 99.016076 53.761783 
L 99.016076 54.65534 
L 101.56506 54.65534 
L 101.56506 55.84675 
L 104.114044 55.84675 
L 104.114044 59.420978 
L 106.663027 59.420978 
L 106.663027 64.186615 
L 109.212011 64.186615 
L 109.212011 65.675877 
L 111.760995 65.675877 
L 111.760995 69.547958 
L 114.309978 69.547958 
L 114.309978 74.164669 
L 116.858962 74.164669 
L 116.858962 81.313125 
L 119.407946 81.313125 
L 119.407946 89.206212 
L 121.95693 89.206212 
L 121.95693 114.821514 
L 124.505913 114.821514 
L 124.505913 148.03205 
L 127.054897 148.03205 
L 127.054897 166.796748 
L 129.603881 166.796748 
L 129.603881 169.030641 
L 132.152864 169.030641 
L 132.152864 170.966681 
" clip-path="url(#p03ecdf9f19)" style="fill: none; stroke: #9e9e9e; stroke-opacity: 0.3; stroke-width: 0.7; stroke-linecap: square"/>
   </g>
   <g id="line2d_18">
    <path d="M 32.7425 35.750824 
L 35.291484 35.750824 
L 35.291484 35.750824 
L 37.840467 35.750824 
L 37.840467 37.564064 
L 40.389451 37.564064 
L 40.389451 38.08314 
L 48.036402 38.08314 
L 48.036402 38.603232 
L 55.683353 38.603232 
L 55.683353 38.863278 
L 63.330304 38.863278 
L 63.330304 39.38337 
L 70.977256 39.38337 
L 70.977256 39.643416 
L 73.526239 39.643416 
L 73.526239 39.903462 
L 76.075223 39.903462 
L 76.075223 40.163509 
L 78.624207 40.163509 
L 78.624207 40.423555 
L 81.17319 40.423555 
L 81.17319 40.683601 
L 83.722174 40.683601 
L 83.722174 41.203693 
L 86.271158 41.203693 
L 86.271158 41.463739 
L 88.820141 41.463739 
L 88.820141 41.723785 
L 91.369125 41.723785 
L 91.369125 42.243877 
L 99.016076 42.243877 
L 99.016076 43.544107 
L 101.56506 43.544107 
L 101.56506 45.104384 
L 104.114044 45.104384 
L 104.114044 45.884522 
L 106.663027 45.884522 
L 106.663027 47.184752 
L 109.212011 47.184752 
L 109.212011 47.444798 
L 111.760995 47.444798 
L 111.760995 50.565351 
L 114.309978 50.565351 
L 114.309978 53.425858 
L 116.858962 53.425858 
L 116.858962 55.766273 
L 119.407946 55.766273 
L 119.407946 60.447102 
L 121.95693 60.447102 
L 121.95693 64.607839 
L 124.505913 64.607839 
L 124.505913 69.548714 
L 127.054897 69.548714 
L 127.054897 74.48959 
L 129.603881 74.48959 
L 129.603881 85.151478 
L 132.152864 85.151478 
L 132.152864 114.276638 
L 134.701848 114.276638 
L 134.701848 137.420738 
L 137.250832 137.420738 
L 137.250832 155.884009 
L 139.799816 155.884009 
L 139.799816 168.106174 
L 142.348799 168.106174 
L 142.348799 169.666451 
L 170.38762 169.666451 
L 170.38762 170.966681 
" clip-path="url(#p03ecdf9f19)" style="fill: none; stroke: #9e9e9e; stroke-opacity: 0.3; stroke-width: 0.7; stroke-linecap: square"/>
   </g>
   <g id="line2d_19">
    <path d="M 32.7425 35.750824 
L 35.291484 35.750824 
L 35.291484 35.750824 
L 37.840467 35.750824 
L 37.840467 37.952013 
L 40.389451 37.952013 
L 40.389451 38.491626 
L 42.938435 38.491626 
L 42.938435 38.581592 
L 45.487419 38.581592 
L 45.487419 38.761524 
L 48.036402 38.761524 
L 48.036402 38.941456 
L 50.585386 38.941456 
L 50.585386 39.076405 
L 53.13437 39.076405 
L 53.13437 39.121388 
L 55.683353 39.121388 
L 55.683353 39.211354 
L 58.232337 39.211354 
L 58.232337 39.301321 
L 60.781321 39.301321 
L 60.781321 39.391287 
L 63.330304 39.391287 
L 63.330304 39.616202 
L 65.879288 39.616202 
L 65.879288 39.841117 
L 70.977256 39.841117 
L 70.977256 40.111015 
L 73.526239 40.111015 
L 73.526239 40.290947 
L 76.075223 40.290947 
L 76.075223 40.695795 
L 78.624207 40.695795 
L 78.624207 41.190608 
L 81.17319 41.190608 
L 81.17319 41.640439 
L 83.722174 41.640439 
L 83.722174 42.225218 
L 86.271158 42.225218 
L 86.271158 42.720032 
L 88.820141 42.720032 
L 88.820141 43.169862 
L 91.369125 43.169862 
L 91.369125 43.664676 
L 93.918109 43.664676 
L 93.918109 44.159489 
L 96.467093 44.159489 
L 96.467093 45.598946 
L 99.016076 45.598946 
L 99.016076 46.408641 
L 101.56506 46.408641 
L 101.56506 47.5782 
L 104.114044 47.5782 
L 104.114044 49.332539 
L 106.663027 49.332539 
L 106.663027 51.356775 
L 109.212011 51.356775 
L 109.212011 52.841216 
L 111.760995 52.841216 
L 111.760995 56.124978 
L 114.309978 56.124978 
L 114.309978 59.543689 
L 116.858962 59.543689 
L 116.858962 64.716739 
L 119.407946 64.716739 
L 119.407946 73.983245 
L 121.95693 73.983245 
L 121.95693 89.457411 
L 124.505913 89.457411 
L 124.505913 108.215339 
L 127.054897 108.215339 
L 127.054897 119.551065 
L 129.603881 119.551065 
L 129.603881 127.692996 
L 132.152864 127.692996 
L 132.152864 138.893773 
L 134.701848 138.893773 
L 134.701848 146.99072 
L 137.250832 146.99072 
L 137.250832 156.16726 
L 139.799816 156.16726 
L 139.799816 165.47875 
L 142.348799 165.47875 
L 142.348799 169.411767 
L 144.897783 169.411767 
L 144.897783 170.646552 
L 147.446767 170.646552 
L 147.446767 170.738017 
L 170.38762 170.738017 
L 170.38762 170.966681 
" clip-path="url(#p03ecdf9f19)" style="fill: none; stroke: #9e9e9e; stroke-width: 2; stroke-linecap: square"/>
   </g>
   <g id="line2d_20">
    <path d="M 124.505913 170.966681 
L 124.505913 28.990031 
" clip-path="url(#p03ecdf9f19)" style="fill: none; stroke-dasharray: 3.7,1.6; stroke-dashoffset: 0; stroke: #9e9e9e; stroke-opacity: 0.8"/>
   </g>
   <g id="line2d_21">
    <path d="M 32.7425 103.358753 
L 216.269327 103.358753 
" clip-path="url(#p03ecdf9f19)" style="fill: none; stroke-dasharray: 0.5,0.825; stroke-dashoffset: 0; stroke: #aaaaaa; stroke-width: 0.5"/>
   </g>
   <g id="patch_3">
    <path d="M 32.7425 170.966681 
L 32.7425 28.990031 
" style="fill: none; stroke: #000000; stroke-width: 0.6; stroke-linejoin: miter; stroke-linecap: square"/>
   </g>
   <g id="patch_4">
    <path d="M 32.7425 170.966681 
L 216.269327 170.966681 
" style="fill: none; stroke: #000000; stroke-width: 0.6; stroke-linejoin: miter; stroke-linecap: square"/>
   </g>
   <g id="text_8">
    <text style="font-weight: 700; font-size: 10.5px; font-family: 'Arial', 'Helvetica', 'DejaVu Sans', sans-serif; text-anchor: start" x="18.060354" y="27.987136" transform="rotate(-0 18.060354 27.987136)">a</text>
   </g>
   <g id="text_9">
    <text style="font-weight: 700; font-size: 8px; font-family: 'Arial', 'Helvetica', 'DejaVu Sans', sans-serif; text-anchor: middle; fill: #9e9e9e" x="124.505913" y="24.990031" transform="rotate(-0 124.505913 24.990031)">Agar</text>
   </g>
   <g id="legend_1">
    <g id="line2d_22">
     <path d="M 167.649327 35.951828 
L 170.949327 35.951828 
L 170.949327 35.951828 
L 174.249327 35.951828 
L 174.249327 35.951828 
" style="fill: none; stroke: #9e9e9e; stroke-width: 2; stroke-linecap: square"/>
    </g>
    <g id="text_10">
     <text style="font-size: 5.5px; font-family: 'Arial', 'Helvetica', 'DejaVu Sans', sans-serif; text-anchor: start" x="178.649327" y="37.876828" transform="rotate(-0 178.649327 37.876828)">Pooled</text>
    </g>
    <g id="line2d_23">
     <defs>
      <path id="mf4f4cfa6a0" d="M 0 2.5 
C 0.663008 2.5 1.29895 2.236584 1.767767 1.767767 
C 2.236584 1.29895 2.5 0.663008 2.5 0 
C 2.5 -0.663008 2.236584 -1.29895 1.767767 -1.767767 
C 1.29895 -2.236584 0.663008 -2.5 0 -2.5 
C -0.663008 -2.5 -1.29895 -2.236584 -1.767767 -1.767767 
C -2.236584 -1.29895 -2.5 -0.663008 -2.5 0 
C -2.5 0.663008 -2.236584 1.29895 -1.767767 1.767767 
C -1.29895 2.236584 -0.663008 2.5 0 2.5 
z
" style="stroke: #9e9e9e"/>
     </defs>
     <g>
      <use xlink:href="#mf4f4cfa6a0" x="170.949327" y="42.35675" style="fill: #9e9e9e; stroke: #9e9e9e"/>
     </g>
    </g>
    <g id="text_11">
     <!-- $\tau_{50}$ = 6.0 min -->
     <g transform="translate(178.649327 44.28175)">
      <text>
       <tspan x="0" y="-0.6875" style="font-style: oblique; font-size: 5.5px; font-family: 'DejaVu Sans'">τ</tspan>
       <tspan x="3.311279" y="0.296875" style="font-size: 3.85px; font-family: 'DejaVu Sans'">5</tspan>
       <tspan x="5.760767" y="0.296875" style="font-size: 3.85px; font-family: 'DejaVu Sans'">0</tspan>
       <tspan x="8.374316" y="-0.6875" style="font-size: 5.5px; font-family: 'Arial'"> </tspan>
       <tspan x="9.902393" y="-0.6875" style="font-size: 5.5px; font-family: 'Arial'">=</tspan>
       <tspan x="13.114307" y="-0.6875" style="font-size: 5.5px; font-family: 'Arial'"> </tspan>
       <tspan x="14.642383" y="-0.6875" style="font-size: 5.5px; font-family: 'Arial'">6</tspan>
       <tspan x="17.701221" y="-0.6875" style="font-size: 5.5px; font-family: 'Arial'">.</tspan>
       <tspan x="19.229297" y="-0.6875" style="font-size: 5.5px; font-family: 'Arial'">0</tspan>
       <tspan x="22.288135" y="-0.6875" style="font-size: 5.5px; font-family: 'Arial'"> </tspan>
       <tspan x="23.816211" y="-0.6875" style="font-size: 5.5px; font-family: 'Arial'">m</tspan>
       <tspan x="28.397754" y="-0.6875" style="font-size: 5.5px; font-family: 'Arial'">i</tspan>
       <tspan x="29.619678" y="-0.6875" style="font-size: 5.5px; font-family: 'Arial'">n</tspan>
      </text>
     </g>
    </g>
   </g>
   <g id="line2d_24">
    <g clip-path="url(#p03ecdf9f19)">
     <use xlink:href="#mf4f4cfa6a0" x="124.505913" y="103.358753" style="fill: #9e9e9e; stroke: #9e9e9e"/>
    </g>
   </g>
  </g>
  <g id="axes_2">
   <g id="patch_5">
    <path d="M 243.798351 170.966681 
L 427.325177 170.966681 
L 427.325177 28.990031 
L 243.798351 28.990031 
z
" style="fill: #ffffff"/>
   </g>
   <g id="FillBetweenPolyCollection_2">
    <defs>
     <path id="m144906942d" d="M 243.798351 -352.276987 
L 243.798351 -352.276987 
L 246.347334 -352.276987 
L 246.347334 -352.276987 
L 248.896318 -352.276987 
L 248.896318 -348.721619 
L 251.445302 -348.721619 
L 251.445302 -346.763783 
L 253.994285 -346.763783 
L 253.994285 -344.949336 
L 256.543269 -344.949336 
L 256.543269 -342.265491 
L 259.092253 -342.265491 
L 259.092253 -341.325953 
L 261.641236 -341.325953 
L 261.641236 -338.8868 
L 264.19022 -338.8868 
L 264.19022 -336.515328 
L 266.739204 -336.515328 
L 266.739204 -334.463274 
L 269.288188 -334.463274 
L 269.288188 -332.929439 
L 271.837171 -332.929439 
L 271.837171 -331.398861 
L 274.386155 -331.398861 
L 274.386155 -329.667719 
L 276.935139 -329.667719 
L 276.935139 -328.092931 
L 279.484122 -328.092931 
L 279.484122 -325.30654 
L 282.033106 -325.30654 
L 282.033106 -322.226266 
L 284.58209 -322.226266 
L 284.58209 -318.904033 
L 287.131074 -318.904033 
L 287.131074 -316.544199 
L 289.680057 -316.544199 
L 289.680057 -312.387847 
L 292.229041 -312.387847 
L 292.229041 -306.600196 
L 294.778025 -306.600196 
L 294.778025 -301.13246 
L 297.327008 -301.13246 
L 297.327008 -296.771523 
L 299.875992 -296.771523 
L 299.875992 -292.569837 
L 302.424976 -292.569837 
L 302.424976 -290.250875 
L 304.973959 -290.250875 
L 304.973959 -285.769534 
L 307.522943 -285.769534 
L 307.522943 -277.721383 
L 310.071927 -277.721383 
L 310.071927 -267.469167 
L 312.620911 -267.469167 
L 312.620911 -262.027047 
L 315.169894 -262.027047 
L 315.169894 -253.659771 
L 317.718878 -253.659771 
L 317.718878 -246.496711 
L 320.267862 -246.496711 
L 320.267862 -242.193355 
L 322.816845 -242.193355 
L 322.816845 -236.915758 
L 325.365829 -236.915758 
L 325.365829 -233.090614 
L 327.914813 -233.090614 
L 327.914813 -228.582684 
L 330.463796 -228.582684 
L 330.463796 -226.211488 
L 333.01278 -226.211488 
L 333.01278 -223.95538 
L 335.561764 -223.95538 
L 335.561764 -223.315968 
L 338.110748 -223.315968 
L 338.110748 -222.543425 
L 340.659731 -222.543425 
L 340.659731 -221.641048 
L 343.208715 -221.641048 
L 343.208715 -221.327178 
L 345.757699 -221.327178 
L 345.757699 -220.570058 
L 348.306682 -220.570058 
L 348.306682 -219.95319 
L 350.855666 -219.95319 
L 350.855666 -219.25795 
L 353.40465 -219.25795 
L 353.40465 -218.245313 
L 355.953633 -218.245313 
L 355.953633 -217.646977 
L 358.502617 -217.646977 
L 358.502617 -217.218056 
L 361.051601 -217.218056 
L 361.051601 -217.06113 
L 361.051601 -217.06113 
L 361.051601 -217.06113 
L 361.051601 -217.752884 
L 358.502617 -217.752884 
L 358.502617 -218.498237 
L 355.953633 -218.498237 
L 355.953633 -219.372184 
L 353.40465 -219.372184 
L 353.40465 -220.717683 
L 350.855666 -220.717683 
L 350.855666 -221.595284 
L 348.306682 -221.595284 
L 348.306682 -222.354942 
L 345.757699 -222.354942 
L 345.757699 -223.269574 
L 343.208715 -223.269574 
L 343.208715 -223.644138 
L 340.659731 -223.644138 
L 340.659731 -224.708883 
L 338.110748 -224.708883 
L 338.110748 -225.608553 
L 335.561764 -225.608553 
L 335.561764 -226.346348 
L 333.01278 -226.346348 
L 333.01278 -228.910958 
L 330.463796 -228.910958 
L 330.463796 -231.55784 
L 327.914813 -231.55784 
L 327.914813 -236.496778 
L 325.365829 -236.496778 
L 325.365829 -240.621084 
L 322.816845 -240.621084 
L 322.816845 -246.237909 
L 320.267862 -246.237909 
L 320.267862 -250.768328 
L 317.718878 -250.768328 
L 317.718878 -258.230736 
L 315.169894 -258.230736 
L 315.169894 -266.845485 
L 312.620911 -266.845485 
L 312.620911 -272.397851 
L 310.071927 -272.397851 
L 310.071927 -282.760858 
L 307.522943 -282.760858 
L 307.522943 -290.812629 
L 304.973959 -290.812629 
L 304.973959 -295.264912 
L 302.424976 -295.264912 
L 302.424976 -297.560053 
L 299.875992 -297.560053 
L 299.875992 -301.703073 
L 297.327008 -301.703073 
L 297.327008 -305.98143 
L 294.778025 -305.98143 
L 294.778025 -311.312899 
L 292.229041 -311.312899 
L 292.229041 -316.9136 
L 289.680057 -316.9136 
L 289.680057 -320.905868 
L 287.131074 -320.905868 
L 287.131074 -323.160332 
L 284.58209 -323.160332 
L 284.58209 -326.317776 
L 282.033106 -326.317776 
L 282.033106 -329.226319 
L 279.484122 -329.226319 
L 279.484122 -331.8397 
L 276.935139 -331.8397 
L 276.935139 -333.308428 
L 274.386155 -333.308428 
L 274.386155 -334.915343 
L 271.837171 -334.915343 
L 271.837171 -336.328864 
L 269.288188 -336.328864 
L 269.288188 -337.737896 
L 266.739204 -337.737896 
L 266.739204 -339.609669 
L 264.19022 -339.609669 
L 264.19022 -341.750601 
L 261.641236 -341.750601 
L 261.641236 -343.921947 
L 259.092253 -343.921947 
L 259.092253 -344.748128 
L 256.543269 -344.748128 
L 256.543269 -347.067135 
L 253.994285 -347.067135 
L 253.994285 -348.587876 
L 251.445302 -348.587876 
L 251.445302 -350.159902 
L 248.896318 -350.159902 
L 248.896318 -352.276987 
L 246.347334 -352.276987 
L 246.347334 -352.276987 
L 243.798351 -352.276987 
z
" style="stroke: #e67e22; stroke-opacity: 0.18"/>
    </defs>
    <g clip-path="url(#p1974036540)">
     <use xlink:href="#m144906942d" x="0" y="388.027811" style="fill: #e67e22; fill-opacity: 0.18; stroke: #e67e22; stroke-opacity: 0.18"/>
    </g>
   </g>
   <g id="matplotlib.axis_3">
    <g id="xtick_8">
     <g id="line2d_25">
      <g>
       <use xlink:href="#me1ef926484" x="243.798351" y="170.966681" style="stroke: #000000; stroke-width: 0.6"/>
      </g>
     </g>
    </g>
    <g id="xtick_9">
     <g id="line2d_26">
      <g>
       <use xlink:href="#me1ef926484" x="274.386155" y="170.966681" style="stroke: #000000; stroke-width: 0.6"/>
      </g>
     </g>
    </g>
    <g id="xtick_10">
     <g id="line2d_27">
      <g>
       <use xlink:href="#me1ef926484" x="304.973959" y="170.966681" style="stroke: #000000; stroke-width: 0.6"/>
      </g>
     </g>
    </g>
    <g id="xtick_11">
     <g id="line2d_28">
      <g>
       <use xlink:href="#me1ef926484" x="335.561764" y="170.966681" style="stroke: #000000; stroke-width: 0.6"/>
      </g>
     </g>
    </g>
    <g id="xtick_12">
     <g id="line2d_29">
      <g>
       <use xlink:href="#me1ef926484" x="366.149568" y="170.966681" style="stroke: #000000; stroke-width: 0.6"/>
      </g>
     </g>
    </g>
    <g id="xtick_13">
     <g id="line2d_30">
      <g>
       <use xlink:href="#me1ef926484" x="396.737373" y="170.966681" style="stroke: #000000; stroke-width: 0.6"/>
      </g>
     </g>
    </g>
    <g id="xtick_14">
     <g id="line2d_31">
      <g>
       <use xlink:href="#me1ef926484" x="427.325177" y="170.966681" style="stroke: #000000; stroke-width: 0.6"/>
      </g>
     </g>
    </g>
   </g>
   <g id="matplotlib.axis_4">
    <g id="ytick_7">
     <g id="line2d_32">
      <g>
       <use xlink:href="#m581e05fcaa" x="243.798351" y="170.966681" style="stroke: #000000; stroke-width: 0.6"/>
      </g>
     </g>
    </g>
    <g id="ytick_8">
     <g id="line2d_33">
      <g>
       <use xlink:href="#m581e05fcaa" x="243.798351" y="143.92351" style="stroke: #000000; stroke-width: 0.6"/>
      </g>
     </g>
    </g>
    <g id="ytick_9">
     <g id="line2d_34">
      <g>
       <use xlink:href="#m581e05fcaa" x="243.798351" y="116.880338" style="stroke: #000000; stroke-width: 0.6"/>
      </g>
     </g>
    </g>
    <g id="ytick_10">
     <g id="line2d_35">
      <g>
       <use xlink:href="#m581e05fcaa" x="243.798351" y="89.837167" style="stroke: #000000; stroke-width: 0.6"/>
      </g>
     </g>
    </g>
    <g id="ytick_11">
     <g id="line2d_36">
      <g>
       <use xlink:href="#m581e05fcaa" x="243.798351" y="62.793996" style="stroke: #000000; stroke-width: 0.6"/>
      </g>
     </g>
    </g>
    <g id="ytick_12">
     <g id="line2d_37">
      <g>
       <use xlink:href="#m581e05fcaa" x="243.798351" y="35.750824" style="stroke: #000000; stroke-width: 0.6"/>
      </g>
     </g>
    </g>
   </g>
   <g id="line2d_38">
    <path d="M 243.798351 35.750824 
L 246.347334 35.750824 
L 246.347334 35.750824 
L 248.896318 35.750824 
L 248.896318 37.360537 
L 251.445302 37.360537 
L 251.445302 38.167825 
L 253.994285 38.167825 
L 253.994285 41.001947 
L 256.543269 41.001947 
L 256.543269 41.811696 
L 259.092253 41.811696 
L 259.092253 42.21657 
L 266.739204 42.21657 
L 266.739204 42.621445 
L 269.288188 42.621445 
L 269.288188 43.026319 
L 271.837171 43.026319 
L 271.837171 45.455567 
L 274.386155 45.455567 
L 274.386155 46.265316 
L 279.484122 46.265316 
L 279.484122 48.289689 
L 284.58209 48.289689 
L 284.58209 48.694563 
L 287.131074 48.694563 
L 287.131074 49.909187 
L 289.680057 49.909187 
L 289.680057 51.123811 
L 292.229041 51.123811 
L 292.229041 51.528685 
L 294.778025 51.528685 
L 294.778025 52.338434 
L 297.327008 52.338434 
L 297.327008 56.792054 
L 299.875992 56.792054 
L 299.875992 58.411553 
L 302.424976 58.411553 
L 302.424976 61.245675 
L 304.973959 61.245675 
L 304.973959 63.270047 
L 307.522943 63.270047 
L 307.522943 65.29442 
L 310.071927 65.29442 
L 310.071927 69.74804 
L 312.620911 69.74804 
L 312.620911 72.177288 
L 315.169894 72.177288 
L 315.169894 72.582162 
L 317.718878 72.582162 
L 317.718878 75.01141 
L 320.267862 75.01141 
L 320.267862 76.226033 
L 322.816845 76.226033 
L 322.816845 84.323525 
L 325.365829 84.323525 
L 325.365829 84.728399 
L 327.914813 84.728399 
L 327.914813 86.347897 
L 330.463796 86.347897 
L 330.463796 90.801518 
L 333.01278 90.801518 
L 333.01278 104.972127 
L 335.561764 104.972127 
L 335.561764 110.640371 
L 338.110748 110.640371 
L 338.110748 117.523239 
L 340.659731 117.523239 
L 340.659731 125.62073 
L 343.208715 125.62073 
L 343.208715 128.454852 
L 345.757699 128.454852 
L 345.757699 135.337719 
L 348.306682 135.337719 
L 348.306682 141.005963 
L 350.855666 141.005963 
L 350.855666 147.483956 
L 353.40465 147.483956 
L 353.40465 157.200946 
L 355.953633 157.200946 
L 355.953633 163.274064 
L 358.502617 163.274064 
L 358.502617 168.132559 
L 361.051601 168.132559 
L 361.051601 170.966681 
" clip-path="url(#p1974036540)" style="fill: none; stroke: #e67e22; stroke-opacity: 0.3; stroke-width: 0.7; stroke-linecap: square"/>
   </g>
   <g id="line2d_39">
    <path d="M 243.798351 35.750824 
L 246.347334 35.750824 
L 246.347334 35.750824 
L 248.896318 35.750824 
L 248.896318 39.186436 
L 251.445302 39.186436 
L 251.445302 39.924012 
L 253.994285 39.924012 
L 253.994285 41.153305 
L 256.543269 41.153305 
L 256.543269 44.595326 
L 259.092253 44.595326 
L 259.092253 45.82462 
L 261.641236 45.82462 
L 261.641236 50.495934 
L 264.19022 50.495934 
L 264.19022 53.446238 
L 266.739204 53.446238 
L 266.739204 55.413108 
L 269.288188 55.413108 
L 269.288188 57.379977 
L 271.837171 57.379977 
L 271.837171 60.084422 
L 276.935139 60.084422 
L 276.935139 61.559574 
L 279.484122 61.559574 
L 279.484122 63.280585 
L 282.033106 63.280585 
L 282.033106 65.247454 
L 284.58209 65.247454 
L 284.58209 65.493313 
L 287.131074 65.493313 
L 287.131074 67.214324 
L 289.680057 67.214324 
L 289.680057 70.410486 
L 292.229041 70.410486 
L 292.229041 74.344225 
L 294.778025 74.344225 
L 294.778025 77.540388 
L 297.327008 77.540388 
L 297.327008 79.753116 
L 299.875992 79.753116 
L 299.875992 82.949278 
L 302.424976 82.949278 
L 302.424976 84.670289 
L 304.973959 84.670289 
L 304.973959 87.374734 
L 307.522943 87.374734 
L 307.522943 93.275342 
L 310.071927 93.275342 
L 310.071927 100.405244 
L 312.620911 100.405244 
L 312.620911 104.093124 
L 315.169894 104.093124 
L 315.169894 112.698177 
L 317.718878 112.698177 
L 317.718878 117.123633 
L 320.267862 117.123633 
L 320.267862 123.2701 
L 322.816845 123.2701 
L 322.816845 133.104446 
L 325.365829 133.104446 
L 325.365829 143.922228 
L 327.914813 143.922228 
L 327.914813 157.690313 
L 330.463796 157.690313 
L 330.463796 167.52466 
L 333.01278 167.52466 
L 333.01278 170.966681 
" clip-path="url(#p1974036540)" style="fill: none; stroke: #e67e22; stroke-opacity: 0.3; stroke-width: 0.7; stroke-linecap: square"/>
   </g>
   <g id="line2d_40">
    <path d="M 243.798351 35.750824 
L 246.347334 35.750824 
L 246.347334 35.750824 
L 248.896318 35.750824 
L 248.896318 38.618371 
L 251.445302 38.618371 
L 251.445302 40.383015 
L 253.994285 40.383015 
L 253.994285 41.927079 
L 256.543269 41.927079 
L 256.543269 46.77985 
L 259.092253 46.77985 
L 259.092253 47.882753 
L 261.641236 47.882753 
L 261.641236 49.647397 
L 264.19022 49.647397 
L 264.19022 53.176685 
L 266.739204 53.176685 
L 266.739204 56.264812 
L 269.288188 56.264812 
L 269.288188 56.705973 
L 271.837171 56.705973 
L 271.837171 57.367715 
L 274.386155 57.367715 
L 274.386155 58.691198 
L 276.935139 58.691198 
L 276.935139 59.57352 
L 279.484122 59.57352 
L 279.484122 61.779325 
L 282.033106 61.779325 
L 282.033106 63.323389 
L 284.58209 63.323389 
L 284.58209 72.146609 
L 287.131074 72.146609 
L 287.131074 76.117059 
L 289.680057 76.117059 
L 289.680057 81.852152 
L 292.229041 81.852152 
L 292.229041 86.704924 
L 294.778025 86.704924 
L 294.778025 90.675373 
L 297.327008 90.675373 
L 297.327008 93.322339 
L 299.875992 93.322339 
L 299.875992 94.866403 
L 302.424976 94.866403 
L 302.424976 98.17511 
L 304.973959 98.17511 
L 304.973959 103.469043 
L 307.522943 103.469043 
L 307.522943 111.409941 
L 310.071927 111.409941 
L 310.071927 119.130259 
L 312.620911 119.130259 
L 312.620911 127.512319 
L 315.169894 127.512319 
L 315.169894 147.805727 
L 317.718878 147.805727 
L 317.718878 170.966681 
" clip-path="url(#p1974036540)" style="fill: none; stroke: #e67e22; stroke-opacity: 0.3; stroke-width: 0.7; stroke-linecap: square"/>
   </g>
   <g id="line2d_41">
    <path d="M 243.798351 35.750824 
L 246.347334 35.750824 
L 246.347334 35.750824 
L 248.896318 35.750824 
L 248.896318 38.416051 
L 251.445302 38.416051 
L 251.445302 41.796537 
L 253.994285 41.796537 
L 253.994285 43.753661 
L 256.543269 43.753661 
L 256.543269 44.999103 
L 259.092253 44.999103 
L 259.092253 45.177023 
L 261.641236 45.177023 
L 261.641236 46.600386 
L 264.19022 46.600386 
L 264.19022 47.312067 
L 266.739204 47.312067 
L 266.739204 49.44711 
L 269.288188 49.44711 
L 269.288188 52.115915 
L 271.837171 52.115915 
L 271.837171 53.363224 
L 274.386155 53.363224 
L 274.386155 57.110831 
L 276.935139 57.110831 
L 276.935139 59.430778 
L 279.484122 59.430778 
L 279.484122 63.535299 
L 282.033106 63.535299 
L 282.033106 68.35365 
L 284.58209 68.35365 
L 284.58209 70.852054 
L 287.131074 70.852054 
L 287.131074 73.528916 
L 289.680057 73.528916 
L 289.680057 79.418011 
L 292.229041 79.418011 
L 292.229041 91.731575 
L 294.778025 91.731575 
L 294.778025 104.580511 
L 297.327008 104.580511 
L 297.327008 113.324926 
L 299.875992 113.324926 
L 299.875992 122.604713 
L 302.424976 122.604713 
L 302.424976 124.21083 
L 304.973959 124.21083 
L 304.973959 130.635298 
L 307.522943 130.635298 
L 307.522943 142.591947 
L 310.071927 142.591947 
L 310.071927 161.865351 
L 312.620911 161.865351 
L 312.620911 167.397532 
L 315.169894 167.397532 
L 315.169894 170.966681 
" clip-path="url(#p1974036540)" style="fill: none; stroke: #e67e22; stroke-opacity: 0.3; stroke-width: 0.7; stroke-linecap: square"/>
   </g>
   <g id="line2d_42">
    <path d="M 243.798351 35.750824 
L 248.896318 35.750824 
L 248.896318 38.466002 
L 251.445302 38.466002 
L 251.445302 39.554303 
L 253.994285 39.554303 
L 253.994285 40.642605 
L 256.543269 40.642605 
L 256.543269 42.275056 
L 259.092253 42.275056 
L 259.092253 43.907508 
L 261.641236 43.907508 
L 261.641236 47.172412 
L 264.19022 47.172412 
L 264.19022 50.981467 
L 266.739204 50.981467 
L 266.739204 52.341843 
L 269.288188 52.341843 
L 269.288188 53.430144 
L 271.837171 53.430144 
L 271.837171 54.24637 
L 274.386155 54.24637 
L 274.386155 55.606747 
L 276.935139 55.606747 
L 276.935139 57.783349 
L 279.484122 57.783349 
L 279.484122 60.504103 
L 282.033106 60.504103 
L 282.033106 65.673534 
L 284.58209 65.673534 
L 284.58209 68.394287 
L 287.131074 68.394287 
L 287.131074 69.482588 
L 289.680057 69.482588 
L 289.680057 71.659191 
L 292.229041 71.659191 
L 292.229041 73.835793 
L 294.778025 73.835793 
L 294.778025 75.19617 
L 297.327008 75.19617 
L 297.327008 77.100697 
L 299.875992 77.100697 
L 299.875992 79.549375 
L 302.424976 79.549375 
L 302.424976 81.998053 
L 304.973959 81.998053 
L 304.973959 86.079182 
L 307.522943 86.079182 
L 307.522943 94.785592 
L 310.071927 94.785592 
L 310.071927 102.131626 
L 312.620911 102.131626 
L 312.620911 108.117283 
L 315.169894 108.117283 
L 315.169894 114.919166 
L 317.718878 114.919166 
L 317.718878 120.360672 
L 320.267862 120.360672 
L 320.267862 137.229342 
L 322.816845 137.229342 
L 322.816845 151.105183 
L 325.365829 151.105183 
L 325.365829 160.899894 
L 327.914813 160.899894 
L 327.914813 170.966681 
" clip-path="url(#p1974036540)" style="fill: none; stroke: #e67e22; stroke-opacity: 0.3; stroke-width: 0.7; stroke-linecap: square"/>
   </g>
   <g id="line2d_43">
    <path d="M 243.798351 35.750824 
L 246.347334 35.750824 
L 246.347334 35.750824 
L 248.896318 35.750824 
L 248.896318 38.495329 
L 251.445302 38.495329 
L 251.445302 40.262268 
L 253.994285 40.262268 
L 253.994285 41.931671 
L 256.543269 41.931671 
L 256.543269 44.435775 
L 259.092253 44.435775 
L 259.092253 45.319576 
L 261.641236 45.319576 
L 261.641236 47.62728 
L 264.19022 47.62728 
L 264.19022 49.885884 
L 266.739204 49.885884 
L 266.739204 51.849887 
L 269.288188 51.849887 
L 269.288188 53.322889 
L 271.837171 53.322889 
L 271.837171 54.796507 
L 274.386155 54.796507 
L 274.386155 56.467313 
L 276.935139 56.467313 
L 276.935139 57.990695 
L 279.484122 57.990695 
L 279.484122 60.69347 
L 282.033106 60.69347 
L 282.033106 63.691093 
L 284.58209 63.691093 
L 284.58209 66.934422 
L 287.131074 66.934422 
L 287.131074 69.244066 
L 289.680057 69.244066 
L 289.680057 73.322799 
L 292.229041 73.322799 
L 292.229041 79.023197 
L 294.778025 79.023197 
L 294.778025 84.428746 
L 297.327008 84.428746 
L 297.327008 88.753186 
L 299.875992 88.753186 
L 299.875992 92.930202 
L 302.424976 92.930202 
L 302.424976 95.239846 
L 304.973959 95.239846 
L 304.973959 99.711709 
L 307.522943 99.711709 
L 307.522943 107.770892 
L 310.071927 107.770892 
L 310.071927 118.090578 
L 312.620911 118.090578 
L 312.620911 123.59441 
L 315.169894 123.59441 
L 315.169894 132.095865 
L 317.718878 132.095865 
L 317.718878 139.417928 
L 320.267862 139.417928 
L 320.267862 143.84065 
L 322.816845 143.84065 
L 322.816845 149.295341 
L 325.365829 149.295341 
L 325.365829 153.275791 
L 327.914813 153.275791 
L 327.914813 158.006503 
L 330.463796 158.006503 
L 330.463796 160.519693 
L 333.01278 160.519693 
L 333.01278 162.934327 
L 335.561764 162.934327 
L 335.561764 163.624223 
L 338.110748 163.624223 
L 338.110748 164.461953 
L 340.659731 164.461953 
L 340.659731 165.447518 
L 343.208715 165.447518 
L 343.208715 165.792465 
L 345.757699 165.792465 
L 345.757699 166.630195 
L 348.306682 166.630195 
L 348.306682 167.320091 
L 350.855666 167.320091 
L 350.855666 168.108543 
L 353.40465 168.108543 
L 353.40465 169.291221 
L 355.953633 169.291221 
L 355.953633 170.030394 
L 358.502617 170.030394 
L 358.502617 170.621733 
L 361.051601 170.621733 
L 361.051601 170.966681 
" clip-path="url(#p1974036540)" style="fill: none; stroke: #e67e22; stroke-width: 2; stroke-linecap: square"/>
   </g>
   <g id="line2d_44">
    <path d="M 307.522943 170.966681 
L 307.522943 28.990031 
" clip-path="url(#p1974036540)" style="fill: none; stroke-dasharray: 3.7,1.6; stroke-dashoffset: 0; stroke: #e67e22; stroke-opacity: 0.8"/>
   </g>
   <g id="line2d_45">
    <path d="M 243.798351 103.358753 
L 427.325177 103.358753 
" clip-path="url(#p1974036540)" style="fill: none; stroke-dasharray: 0.5,0.825; stroke-dashoffset: 0; stroke: #aaaaaa; stroke-width: 0.5"/>
   </g>
   <g id="patch_6">
    <path d="M 243.798351 170.966681 
L 243.798351 28.990031 
" style="fill: none; stroke: #000000; stroke-width: 0.6; stroke-linejoin: miter; stroke-linecap: square"/>
   </g>
   <g id="patch_7">
    <path d="M 243.798351 170.966681 
L 427.325177 170.966681 
" style="fill: none; stroke: #000000; stroke-width: 0.6; stroke-linejoin: miter; stroke-linecap: square"/>
   </g>
   <g id="text_12">
    <text style="font-weight: 700; font-size: 10.5px; font-family: 'Arial', 'Helvetica', 'DejaVu Sans', sans-serif; text-anchor: start" x="229.116204" y="27.987136" transform="rotate(-0 229.116204 27.987136)">b</text>
   </g>
   <g id="text_13">
    <text style="font-weight: 700; font-size: 8px; font-family: 'Arial', 'Helvetica', 'DejaVu Sans', sans-serif; text-anchor: middle; fill: #e67e22" x="335.561764" y="24.990031" transform="rotate(-0 335.561764 24.990031)">0.5:1 NaCl</text>
   </g>
   <g id="legend_2">
    <g id="line2d_46">
     <path d="M 378.705177 35.951828 
L 382.005177 35.951828 
L 382.005177 35.951828 
L 385.305177 35.951828 
L 385.305177 35.951828 
" style="fill: none; stroke: #e67e22; stroke-width: 2; stroke-linecap: square"/>
    </g>
    <g id="text_14">
     <text style="font-size: 5.5px; font-family: 'Arial', 'Helvetica', 'DejaVu Sans', sans-serif; text-anchor: start" x="389.705177" y="37.876828" transform="rotate(-0 389.705177 37.876828)">Pooled</text>
    </g>
    <g id="line2d_47">
     <defs>
      <path id="m93cfba5c8c" d="M 0 2.5 
C 0.663008 2.5 1.29895 2.236584 1.767767 1.767767 
C 2.236584 1.29895 2.5 0.663008 2.5 0 
C 2.5 -0.663008 2.236584 -1.29895 1.767767 -1.767767 
C 1.29895 -2.236584 0.663008 -2.5 0 -2.5 
C -0.663008 -2.5 -1.29895 -2.236584 -1.767767 -1.767767 
C -2.236584 -1.29895 -2.5 -0.663008 -2.5 0 
C -2.5 0.663008 -2.236584 1.29895 -1.767767 1.767767 
C -1.29895 2.236584 -0.663008 2.5 0 2.5 
z
" style="stroke: #e67e22"/>
     </defs>
     <g>
      <use xlink:href="#m93cfba5c8c" x="382.005177" y="42.35675" style="fill: #e67e22; stroke: #e67e22"/>
     </g>
    </g>
    <g id="text_15">
     <!-- $\tau_{50}$ = 4.2 min -->
     <g transform="translate(389.705177 44.28175)">
      <text>
       <tspan x="0" y="-0.6875" style="font-style: oblique; font-size: 5.5px; font-family: 'DejaVu Sans'">τ</tspan>
       <tspan x="3.311279" y="0.296875" style="font-size: 3.85px; font-family: 'DejaVu Sans'">5</tspan>
       <tspan x="5.760767" y="0.296875" style="font-size: 3.85px; font-family: 'DejaVu Sans'">0</tspan>
       <tspan x="8.374316" y="-0.6875" style="font-size: 5.5px; font-family: 'Arial'"> </tspan>
       <tspan x="9.902393" y="-0.6875" style="font-size: 5.5px; font-family: 'Arial'">=</tspan>
       <tspan x="13.114307" y="-0.6875" style="font-size: 5.5px; font-family: 'Arial'"> </tspan>
       <tspan x="14.642383" y="-0.6875" style="font-size: 5.5px; font-family: 'Arial'">4</tspan>
       <tspan x="17.701221" y="-0.6875" style="font-size: 5.5px; font-family: 'Arial'">.</tspan>
       <tspan x="19.229297" y="-0.6875" style="font-size: 5.5px; font-family: 'Arial'">2</tspan>
       <tspan x="22.288135" y="-0.6875" style="font-size: 5.5px; font-family: 'Arial'"> </tspan>
       <tspan x="23.816211" y="-0.6875" style="font-size: 5.5px; font-family: 'Arial'">m</tspan>
       <tspan x="28.397754" y="-0.6875" style="font-size: 5.5px; font-family: 'Arial'">i</tspan>
       <tspan x="29.619678" y="-0.6875" style="font-size: 5.5px; font-family: 'Arial'">n</tspan>
      </text>
     </g>
    </g>
   </g>
   <g id="line2d_48">
    <g clip-path="url(#p1974036540)">
     <use xlink:href="#m93cfba5c8c" x="307.522943" y="103.358753" style="fill: #e67e22; stroke: #e67e22"/>
    </g>
   </g>
  </g>
  <g id="axes_3">
   <g id="patch_8">
    <path d="M 32.7425 358.375858 
L 216.269327 358.375858 
L 216.269327 216.399209 
L 32.7425 216.399209 
z
" style="fill: #ffffff"/>
   </g>
   <g id="FillBetweenPolyCollection_3">
    <defs>
     <path id="m921a754ace" d="M 32.7425 -164.86781 
L 32.7425 -164.86781 
L 35.291484 -164.86781 
L 35.291484 -164.86781 
L 37.840467 -164.86781 
L 37.840467 -161.589133 
L 40.389451 -161.589133 
L 40.389451 -159.375292 
L 42.938435 -159.375292 
L 42.938435 -155.592757 
L 45.487419 -155.592757 
L 45.487419 -152.404602 
L 48.036402 -152.404602 
L 48.036402 -148.436729 
L 50.585386 -148.436729 
L 50.585386 -145.62874 
L 53.13437 -145.62874 
L 53.13437 -142.798227 
L 55.683353 -142.798227 
L 55.683353 -139.877446 
L 58.232337 -139.877446 
L 58.232337 -135.511668 
L 60.781321 -135.511668 
L 60.781321 -132.544101 
L 63.330304 -132.544101 
L 63.330304 -129.221526 
L 65.879288 -129.221526 
L 65.879288 -126.135853 
L 68.428272 -126.135853 
L 68.428272 -122.368759 
L 70.977256 -122.368759 
L 70.977256 -118.348507 
L 73.526239 -118.348507 
L 73.526239 -114.076157 
L 76.075223 -114.076157 
L 76.075223 -109.390303 
L 78.624207 -109.390303 
L 78.624207 -104.001452 
L 81.17319 -104.001452 
L 81.17319 -98.076111 
L 83.722174 -98.076111 
L 83.722174 -91.295993 
L 86.271158 -91.295993 
L 86.271158 -84.85813 
L 88.820141 -84.85813 
L 88.820141 -76.518272 
L 91.369125 -76.518272 
L 91.369125 -64.522727 
L 93.918109 -64.522727 
L 93.918109 -51.931904 
L 96.467093 -51.931904 
L 96.467093 -44.667 
L 99.016076 -44.667 
L 99.016076 -40.973993 
L 101.56506 -40.973993 
L 101.56506 -35.795153 
L 104.114044 -35.795153 
L 104.114044 -32.682493 
L 106.663027 -32.682493 
L 106.663027 -30.701609 
L 109.212011 -30.701609 
L 109.212011 -29.651953 
L 109.212011 -29.651953 
L 109.212011 -29.651953 
L 109.212011 -31.542197 
L 106.663027 -31.542197 
L 106.663027 -34.012669 
L 104.114044 -34.012669 
L 104.114044 -37.612818 
L 101.56506 -37.612818 
L 101.56506 -43.34508 
L 99.016076 -43.34508 
L 99.016076 -47.335985 
L 96.467093 -47.335985 
L 96.467093 -55.052663 
L 93.918109 -55.052663 
L 93.918109 -68.165031 
L 91.369125 -68.165031 
L 91.369125 -80.453233 
L 88.820141 -80.453233 
L 88.820141 -88.905815 
L 86.271158 -88.905815 
L 86.271158 -95.38542 
L 83.722174 -95.38542 
L 83.722174 -102.168801 
L 81.17319 -102.168801 
L 81.17319 -108.063196 
L 78.624207 -108.063196 
L 78.624207 -113.396153 
L 76.075223 -113.396153 
L 76.075223 -118.011203 
L 73.526239 -118.011203 
L 73.526239 -122.200133 
L 70.977256 -122.200133 
L 70.977256 -126.124474 
L 68.428272 -126.124474 
L 68.428272 -129.78528 
L 65.879288 -129.78528 
L 65.879288 -132.771126 
L 63.330304 -132.771126 
L 63.330304 -135.972222 
L 60.781321 -135.972222 
L 60.781321 -138.817842 
L 58.232337 -138.817842 
L 58.232337 -142.978094 
L 55.683353 -142.978094 
L 55.683353 -145.741348 
L 53.13437 -145.741348 
L 53.13437 -148.401105 
L 50.585386 -148.401105 
L 50.585386 -151.018804 
L 48.036402 -151.018804 
L 48.036402 -154.67274 
L 45.487419 -154.67274 
L 45.487419 -157.556199 
L 42.938435 -157.556199 
L 42.938435 -160.878717 
L 40.389451 -160.878717 
L 40.389451 -162.731997 
L 37.840467 -162.731997 
L 37.840467 -164.86781 
L 35.291484 -164.86781 
L 35.291484 -164.86781 
L 32.7425 -164.86781 
z
" style="stroke: #5b8fc9; stroke-opacity: 0.18"/>
    </defs>
    <g clip-path="url(#p66ae3df741)">
     <use xlink:href="#m921a754ace" x="0" y="388.027811" style="fill: #5b8fc9; fill-opacity: 0.18; stroke: #5b8fc9; stroke-opacity: 0.18"/>
    </g>
   </g>
   <g id="matplotlib.axis_5">
    <g id="xtick_15">
     <g id="line2d_49">
      <g>
       <use xlink:href="#me1ef926484" x="32.7425" y="358.375858" style="stroke: #000000; stroke-width: 0.6"/>
      </g>
     </g>
     <g id="text_16">
      <text style="font-size: 6.5px; font-family: 'Arial', 'Helvetica', 'DejaVu Sans', sans-serif; text-anchor: middle" x="32.7425" y="368.028436" transform="rotate(-0 32.7425 368.028436)">0</text>
     </g>
    </g>
    <g id="xtick_16">
     <g id="line2d_50">
      <g>
       <use xlink:href="#me1ef926484" x="63.330304" y="358.375858" style="stroke: #000000; stroke-width: 0.6"/>
      </g>
     </g>
     <g id="text_17">
      <text style="font-size: 6.5px; font-family: 'Arial', 'Helvetica', 'DejaVu Sans', sans-serif; text-anchor: middle" x="63.330304" y="368.028436" transform="rotate(-0 63.330304 368.028436)">2</text>
     </g>
    </g>
    <g id="xtick_17">
     <g id="line2d_51">
      <g>
       <use xlink:href="#me1ef926484" x="93.918109" y="358.375858" style="stroke: #000000; stroke-width: 0.6"/>
      </g>
     </g>
     <g id="text_18">
      <text style="font-size: 6.5px; font-family: 'Arial', 'Helvetica', 'DejaVu Sans', sans-serif; text-anchor: middle" x="93.918109" y="368.028436" transform="rotate(-0 93.918109 368.028436)">4</text>
     </g>
    </g>
    <g id="xtick_18">
     <g id="line2d_52">
      <g>
       <use xlink:href="#me1ef926484" x="124.505913" y="358.375858" style="stroke: #000000; stroke-width: 0.6"/>
      </g>
     </g>
     <g id="text_19">
      <text style="font-size: 6.5px; font-family: 'Arial', 'Helvetica', 'DejaVu Sans', sans-serif; text-anchor: middle" x="124.505913" y="368.028436" transform="rotate(-0 124.505913 368.028436)">6</text>
     </g>
    </g>
    <g id="xtick_19">
     <g id="line2d_53">
      <g>
       <use xlink:href="#me1ef926484" x="155.093718" y="358.375858" style="stroke: #000000; stroke-width: 0.6"/>
      </g>
     </g>
     <g id="text_20">
      <text style="font-size: 6.5px; font-family: 'Arial', 'Helvetica', 'DejaVu Sans', sans-serif; text-anchor: middle" x="155.093718" y="368.028436" transform="rotate(-0 155.093718 368.028436)">8</text>
     </g>
    </g>
    <g id="xtick_20">
     <g id="line2d_54">
      <g>
       <use xlink:href="#me1ef926484" x="185.681522" y="358.375858" style="stroke: #000000; stroke-width: 0.6"/>
      </g>
     </g>
     <g id="text_21">
      <text style="font-size: 6.5px; font-family: 'Arial', 'Helvetica', 'DejaVu Sans', sans-serif; text-anchor: middle" x="185.681522" y="368.028436" transform="rotate(-0 185.681522 368.028436)">10</text>
     </g>
    </g>
    <g id="xtick_21">
     <g id="line2d_55">
      <g>
       <use xlink:href="#me1ef926484" x="216.269327" y="358.375858" style="stroke: #000000; stroke-width: 0.6"/>
      </g>
     </g>
     <g id="text_22">
      <text style="font-size: 6.5px; font-family: 'Arial', 'Helvetica', 'DejaVu Sans', sans-serif; text-anchor: middle" x="216.269327" y="368.028436" transform="rotate(-0 216.269327 368.028436)">12</text>
     </g>
    </g>
    <g id="text_23">
     <text style="font-size: 8px; font-family: 'Arial', 'Helvetica', 'DejaVu Sans', sans-serif; text-anchor: middle" x="124.505913" y="379.144061" transform="rotate(-0 124.505913 379.144061)">Forward lifetime (min)</text>
    </g>
   </g>
   <g id="matplotlib.axis_6">
    <g id="ytick_13">
     <g id="line2d_56">
      <g>
       <use xlink:href="#m581e05fcaa" x="32.7425" y="358.375858" style="stroke: #000000; stroke-width: 0.6"/>
      </g>
     </g>
     <g id="text_24">
      <text style="font-size: 6.5px; font-family: 'Arial', 'Helvetica', 'DejaVu Sans', sans-serif; text-anchor: end" x="27.7425" y="360.702147" transform="rotate(-0 27.7425 360.702147)">0.0</text>
     </g>
    </g>
    <g id="ytick_14">
     <g id="line2d_57">
      <g>
       <use xlink:href="#m581e05fcaa" x="32.7425" y="331.332687" style="stroke: #000000; stroke-width: 0.6"/>
      </g>
     </g>
     <g id="text_25">
      <text style="font-size: 6.5px; font-family: 'Arial', 'Helvetica', 'DejaVu Sans', sans-serif; text-anchor: end" x="27.7425" y="333.658976" transform="rotate(-0 27.7425 333.658976)">0.2</text>
     </g>
    </g>
    <g id="ytick_15">
     <g id="line2d_58">
      <g>
       <use xlink:href="#m581e05fcaa" x="32.7425" y="304.289515" style="stroke: #000000; stroke-width: 0.6"/>
      </g>
     </g>
     <g id="text_26">
      <text style="font-size: 6.5px; font-family: 'Arial', 'Helvetica', 'DejaVu Sans', sans-serif; text-anchor: end" x="27.7425" y="306.615805" transform="rotate(-0 27.7425 306.615805)">0.4</text>
     </g>
    </g>
    <g id="ytick_16">
     <g id="line2d_59">
      <g>
       <use xlink:href="#m581e05fcaa" x="32.7425" y="277.246344" style="stroke: #000000; stroke-width: 0.6"/>
      </g>
     </g>
     <g id="text_27">
      <text style="font-size: 6.5px; font-family: 'Arial', 'Helvetica', 'DejaVu Sans', sans-serif; text-anchor: end" x="27.7425" y="279.572633" transform="rotate(-0 27.7425 279.572633)">0.6</text>
     </g>
    </g>
    <g id="ytick_17">
     <g id="line2d_60">
      <g>
       <use xlink:href="#m581e05fcaa" x="32.7425" y="250.203173" style="stroke: #000000; stroke-width: 0.6"/>
      </g>
     </g>
     <g id="text_28">
      <text style="font-size: 6.5px; font-family: 'Arial', 'Helvetica', 'DejaVu Sans', sans-serif; text-anchor: end" x="27.7425" y="252.529462" transform="rotate(-0 27.7425 252.529462)">0.8</text>
     </g>
    </g>
    <g id="ytick_18">
     <g id="line2d_61">
      <g>
       <use xlink:href="#m581e05fcaa" x="32.7425" y="223.160002" style="stroke: #000000; stroke-width: 0.6"/>
      </g>
     </g>
     <g id="text_29">
      <text style="font-size: 6.5px; font-family: 'Arial', 'Helvetica', 'DejaVu Sans', sans-serif; text-anchor: end" x="27.7425" y="225.486291" transform="rotate(-0 27.7425 225.486291)">1.0</text>
     </g>
    </g>
    <g id="text_30">
     <text style="font-size: 8px; font-family: 'Arial', 'Helvetica', 'DejaVu Sans', sans-serif; text-anchor: middle" x="13.02375" y="287.387533" transform="rotate(-90 13.02375 287.387533)">Survival  S(τ)</text>
    </g>
   </g>
   <g id="line2d_62">
    <path d="M 32.7425 223.160002 
L 37.840467 223.160002 
L 37.840467 231.480977 
L 40.389451 231.480977 
L 40.389451 235.121404 
L 42.938435 235.121404 
L 42.938435 238.501801 
L 45.487419 238.501801 
L 45.487419 244.482502 
L 48.036402 244.482502 
L 48.036402 251.503325 
L 50.585386 251.503325 
L 50.585386 253.583569 
L 53.13437 253.583569 
L 53.13437 255.923844 
L 55.683353 255.923844 
L 55.683353 258.784179 
L 58.232337 258.784179 
L 58.232337 265.024911 
L 60.781321 265.024911 
L 60.781321 267.365185 
L 63.330304 267.365185 
L 63.330304 268.925368 
L 65.879288 268.925368 
L 65.879288 269.96549 
L 68.428272 269.96549 
L 68.428272 273.865948 
L 70.977256 273.865948 
L 70.977256 276.986314 
L 73.526239 276.986314 
L 73.526239 278.806527 
L 76.075223 278.806527 
L 76.075223 283.487076 
L 78.624207 283.487076 
L 78.624207 285.047259 
L 81.17319 285.047259 
L 81.17319 286.347411 
L 83.722174 286.347411 
L 83.722174 288.687686 
L 86.271158 288.687686 
L 86.271158 289.987838 
L 88.820141 289.987838 
L 88.820141 293.888296 
L 91.369125 293.888296 
L 91.369125 296.748631 
L 93.918109 296.748631 
L 93.918109 299.088906 
L 96.467093 299.088906 
L 96.467093 305.849698 
L 99.016076 305.849698 
L 99.016076 312.870522 
L 101.56506 312.870522 
L 101.56506 323.271742 
L 104.114044 323.271742 
L 104.114044 334.973114 
L 106.663027 334.973114 
L 106.663027 352.915218 
L 109.212011 352.915218 
L 109.212011 358.375858 
" clip-path="url(#p66ae3df741)" style="fill: none; stroke: #5b8fc9; stroke-opacity: 0.3; stroke-width: 0.7; stroke-linecap: square"/>
   </g>
   <g id="line2d_63">
    <path d="M 32.7425 223.160002 
L 35.291484 223.160002 
L 35.291484 223.160002 
L 37.840467 223.160002 
L 37.840467 225.800936 
L 40.389451 225.800936 
L 40.389451 228.050211 
L 42.938435 228.050211 
L 42.938435 232.284141 
L 45.487419 232.284141 
L 45.487419 234.665726 
L 48.036402 234.665726 
L 48.036402 237.973484 
L 50.585386 237.973484 
L 50.585386 241.545862 
L 53.13437 241.545862 
L 53.13437 245.382861 
L 55.683353 245.382861 
L 55.683353 247.896757 
L 58.232337 247.896757 
L 58.232337 252.130686 
L 60.781321 252.130686 
L 60.781321 255.438444 
L 63.330304 255.438444 
L 63.330304 258.613891 
L 65.879288 258.613891 
L 65.879288 260.863166 
L 68.428272 260.863166 
L 68.428272 263.906303 
L 70.977256 263.906303 
L 70.977256 266.81713 
L 73.526239 266.81713 
L 73.526239 271.712611 
L 76.075223 271.712611 
L 76.075223 274.358817 
L 78.624207 274.358817 
L 78.624207 282.958986 
L 81.17319 282.958986 
L 81.17319 289.04526 
L 83.722174 289.04526 
L 83.722174 297.116189 
L 86.271158 297.116189 
L 86.271158 304.657876 
L 88.820141 304.657876 
L 88.820141 311.273391 
L 91.369125 311.273391 
L 91.369125 318.153527 
L 93.918109 318.153527 
L 93.918109 339.323175 
L 96.467093 339.323175 
L 96.467093 351.495722 
L 99.016076 351.495722 
L 99.016076 358.375858 
" clip-path="url(#p66ae3df741)" style="fill: none; stroke: #5b8fc9; stroke-opacity: 0.3; stroke-width: 0.7; stroke-linecap: square"/>
   </g>
   <g id="line2d_64">
    <path d="M 32.7425 223.160002 
L 35.291484 223.160002 
L 35.291484 223.160002 
L 37.840467 223.160002 
L 37.840467 224.608743 
L 40.389451 224.608743 
L 40.389451 226.701369 
L 42.938435 226.701369 
L 42.938435 229.276909 
L 45.487419 229.276909 
L 45.487419 233.140219 
L 48.036402 233.140219 
L 48.036402 236.520616 
L 50.585386 236.520616 
L 50.585386 238.774214 
L 53.13437 238.774214 
L 53.13437 240.222955 
L 55.683353 240.222955 
L 55.683353 243.603351 
L 58.232337 243.603351 
L 58.232337 246.822776 
L 60.781321 246.822776 
L 60.781321 249.559288 
L 63.330304 249.559288 
L 63.330304 253.100655 
L 65.879288 253.100655 
L 65.879288 258.090764 
L 68.428272 258.090764 
L 68.428272 261.471161 
L 70.977256 261.471161 
L 70.977256 264.851557 
L 73.526239 264.851557 
L 73.526239 268.714867 
L 76.075223 268.714867 
L 76.075223 274.348862 
L 78.624207 274.348862 
L 78.624207 277.890229 
L 81.17319 277.890229 
L 81.17319 282.075482 
L 83.722174 282.075482 
L 83.722174 288.031418 
L 86.271158 288.031418 
L 86.271158 294.309297 
L 88.820141 294.309297 
L 88.820141 299.621349 
L 91.369125 299.621349 
L 91.369125 305.255343 
L 93.918109 305.255343 
L 93.918109 311.21128 
L 96.467093 311.21128 
L 96.467093 319.742756 
L 99.016076 319.742756 
L 99.016076 326.181607 
L 101.56506 326.181607 
L 101.56506 345.176215 
L 104.114044 345.176215 
L 104.114044 354.673519 
L 109.212011 354.673519 
L 109.212011 358.375858 
" clip-path="url(#p66ae3df741)" style="fill: none; stroke: #5b8fc9; stroke-opacity: 0.3; stroke-width: 0.7; stroke-linecap: square"/>
   </g>
   <g id="line2d_65">
    <path d="M 32.7425 223.160002 
L 35.291484 223.160002 
L 35.291484 223.160002 
L 37.840467 223.160002 
L 37.840467 224.184364 
L 40.389451 224.184364 
L 40.389451 224.477039 
L 42.938435 224.477039 
L 42.938435 227.403789 
L 45.487419 227.403789 
L 45.487419 229.598852 
L 48.036402 229.598852 
L 48.036402 232.818277 
L 50.585386 232.818277 
L 50.585386 235.159677 
L 53.13437 235.159677 
L 53.13437 237.647415 
L 55.683353 237.647415 
L 55.683353 240.28149 
L 58.232337 240.28149 
L 58.232337 243.79359 
L 60.781321 243.79359 
L 60.781321 246.574003 
L 63.330304 246.574003 
L 63.330304 248.47639 
L 65.879288 248.47639 
L 65.879288 252.281165 
L 68.428272 252.281165 
L 68.428272 256.085941 
L 70.977256 256.085941 
L 70.977256 262.085778 
L 73.526239 262.085778 
L 73.526239 266.475904 
L 76.075223 266.475904 
L 76.075223 271.890391 
L 78.624207 271.890391 
L 78.624207 277.158542 
L 81.17319 277.158542 
L 81.17319 285.646117 
L 83.722174 285.646117 
L 83.722174 293.255667 
L 86.271158 293.255667 
L 86.271158 301.88958 
L 88.820141 301.88958 
L 88.820141 315.937981 
L 91.369125 315.937981 
L 91.369125 339.205645 
L 93.918109 339.205645 
L 93.918109 358.375858 
" clip-path="url(#p66ae3df741)" style="fill: none; stroke: #5b8fc9; stroke-opacity: 0.3; stroke-width: 0.7; stroke-linecap: square"/>
   </g>
   <g id="line2d_66">
    <path d="M 32.7425 223.160002 
L 35.291484 223.160002 
L 35.291484 223.160002 
L 37.840467 223.160002 
L 37.840467 225.308721 
L 40.389451 225.308721 
L 40.389451 227.920894 
L 42.938435 227.920894 
L 42.938435 232.387474 
L 45.487419 232.387474 
L 45.487419 234.543755 
L 48.036402 234.543755 
L 48.036402 238.086215 
L 50.585386 238.086215 
L 50.585386 241.012596 
L 53.13437 241.012596 
L 53.13437 244.247017 
L 55.683353 244.247017 
L 55.683353 247.173397 
L 58.232337 247.173397 
L 58.232337 252.102038 
L 60.781321 252.102038 
L 60.781321 255.182439 
L 63.330304 255.182439 
L 63.330304 260.72716 
L 65.879288 260.72716 
L 65.879288 263.19148 
L 68.428272 263.19148 
L 68.428272 267.812081 
L 70.977256 267.812081 
L 70.977256 271.970622 
L 73.526239 271.970622 
L 73.526239 277.053283 
L 76.075223 277.053283 
L 76.075223 282.289964 
L 78.624207 282.289964 
L 78.624207 287.988705 
L 81.17319 287.988705 
L 81.17319 295.381666 
L 83.722174 295.381666 
L 83.722174 303.236688 
L 86.271158 303.236688 
L 86.271158 309.397489 
L 88.820141 309.397489 
L 88.820141 319.562811 
L 91.369125 319.562811 
L 91.369125 337.891194 
L 93.918109 337.891194 
L 93.918109 347.286416 
L 96.467093 347.286416 
L 96.467093 356.681638 
L 101.56506 356.681638 
L 101.56506 358.375858 
" clip-path="url(#p66ae3df741)" style="fill: none; stroke: #5b8fc9; stroke-opacity: 0.3; stroke-width: 0.7; stroke-linecap: square"/>
   </g>
   <g id="line2d_67">
    <path d="M 32.7425 223.160002 
L 35.291484 223.160002 
L 35.291484 223.160002 
L 37.840467 223.160002 
L 37.840467 225.806862 
L 40.389451 225.806862 
L 40.389451 227.841913 
L 42.938435 227.841913 
L 42.938435 231.396935 
L 45.487419 231.396935 
L 45.487419 234.434863 
L 48.036402 234.434863 
L 48.036402 238.248432 
L 50.585386 238.248432 
L 50.585386 240.963176 
L 53.13437 240.963176 
L 53.13437 243.710238 
L 55.683353 243.710238 
L 55.683353 246.554256 
L 58.232337 246.554256 
L 58.232337 250.820282 
L 60.781321 250.820282 
L 60.781321 253.728937 
L 63.330304 253.728937 
L 63.330304 256.993093 
L 65.879288 256.993093 
L 65.879288 260.031021 
L 68.428272 260.031021 
L 68.428272 263.747635 
L 70.977256 263.747635 
L 70.977256 267.722796 
L 73.526239 267.722796 
L 73.526239 271.956504 
L 76.075223 271.956504 
L 76.075223 276.610351 
L 78.624207 276.610351 
L 78.624207 281.975203 
L 81.17319 281.975203 
L 81.17319 287.889467 
L 83.722174 287.889467 
L 83.722174 294.676327 
L 86.271158 294.676327 
L 86.271158 301.140003 
L 88.820141 301.140003 
L 88.820141 309.542783 
L 91.369125 309.542783 
L 91.369125 321.694494 
L 93.918109 321.694494 
L 93.918109 334.557211 
L 96.467093 334.557211 
L 96.467093 342.055075 
L 99.016076 342.055075 
L 99.016076 345.900963 
L 101.56506 345.900963 
L 101.56506 351.362769 
L 104.114044 351.362769 
L 104.114044 354.723881 
L 106.663027 354.723881 
L 106.663027 356.953849 
L 109.212011 356.953849 
L 109.212011 358.375858 
" clip-path="url(#p66ae3df741)" style="fill: none; stroke: #5b8fc9; stroke-width: 2; stroke-linecap: square"/>
   </g>
   <g id="line2d_68">
    <path d="M 83.722174 358.375858 
L 83.722174 216.399209 
" clip-path="url(#p66ae3df741)" style="fill: none; stroke-dasharray: 3.7,1.6; stroke-dashoffset: 0; stroke: #5b8fc9; stroke-opacity: 0.8"/>
   </g>
   <g id="line2d_69">
    <path d="M 32.7425 290.76793 
L 216.269327 290.76793 
" clip-path="url(#p66ae3df741)" style="fill: none; stroke-dasharray: 0.5,0.825; stroke-dashoffset: 0; stroke: #aaaaaa; stroke-width: 0.5"/>
   </g>
   <g id="patch_9">
    <path d="M 32.7425 358.375858 
L 32.7425 216.399209 
" style="fill: none; stroke: #000000; stroke-width: 0.6; stroke-linejoin: miter; stroke-linecap: square"/>
   </g>
   <g id="patch_10">
    <path d="M 32.7425 358.375858 
L 216.269327 358.375858 
" style="fill: none; stroke: #000000; stroke-width: 0.6; stroke-linejoin: miter; stroke-linecap: square"/>
   </g>
   <g id="text_31">
    <text style="font-weight: 700; font-size: 10.5px; font-family: 'Arial', 'Helvetica', 'DejaVu Sans', sans-serif; text-anchor: start" x="18.060354" y="215.396313" transform="rotate(-0 18.060354 215.396313)">c</text>
   </g>
   <g id="text_32">
    <text style="font-weight: 700; font-size: 8px; font-family: 'Arial', 'Helvetica', 'DejaVu Sans', sans-serif; text-anchor: middle; fill: #5b8fc9" x="124.505913" y="212.399209" transform="rotate(-0 124.505913 212.399209)">1:1 NaCl</text>
   </g>
   <g id="legend_3">
    <g id="line2d_70">
     <path d="M 167.649327 223.361006 
L 170.949327 223.361006 
L 170.949327 223.361006 
L 174.249327 223.361006 
L 174.249327 223.361006 
" style="fill: none; stroke: #5b8fc9; stroke-width: 2; stroke-linecap: square"/>
    </g>
    <g id="text_33">
     <text style="font-size: 5.5px; font-family: 'Arial', 'Helvetica', 'DejaVu Sans', sans-serif; text-anchor: start" x="178.649327" y="225.286006" transform="rotate(-0 178.649327 225.286006)">Pooled</text>
    </g>
    <g id="line2d_71">
     <defs>
      <path id="mf5bb29c829" d="M 0 2.5 
C 0.663008 2.5 1.29895 2.236584 1.767767 1.767767 
C 2.236584 1.29895 2.5 0.663008 2.5 0 
C 2.5 -0.663008 2.236584 -1.29895 1.767767 -1.767767 
C 1.29895 -2.236584 0.663008 -2.5 0 -2.5 
C -0.663008 -2.5 -1.29895 -2.236584 -1.767767 -1.767767 
C -2.236584 -1.29895 -2.5 -0.663008 -2.5 0 
C -2.5 0.663008 -2.236584 1.29895 -1.767767 1.767767 
C -1.29895 2.236584 -0.663008 2.5 0 2.5 
z
" style="stroke: #5b8fc9"/>
     </defs>
     <g>
      <use xlink:href="#mf5bb29c829" x="170.949327" y="229.765927" style="fill: #5b8fc9; stroke: #5b8fc9"/>
     </g>
    </g>
    <g id="text_34">
     <!-- $\tau_{50}$ = 3.3 min -->
     <g transform="translate(178.649327 231.690927)">
      <text>
       <tspan x="0" y="-0.6875" style="font-style: oblique; font-size: 5.5px; font-family: 'DejaVu Sans'">τ</tspan>
       <tspan x="3.311279" y="0.296875" style="font-size: 3.85px; font-family: 'DejaVu Sans'">5</tspan>
       <tspan x="5.760767" y="0.296875" style="font-size: 3.85px; font-family: 'DejaVu Sans'">0</tspan>
       <tspan x="8.374316" y="-0.6875" style="font-size: 5.5px; font-family: 'Arial'"> </tspan>
       <tspan x="9.902393" y="-0.6875" style="font-size: 5.5px; font-family: 'Arial'">=</tspan>
       <tspan x="13.114307" y="-0.6875" style="font-size: 5.5px; font-family: 'Arial'"> </tspan>
       <tspan x="14.642383" y="-0.6875" style="font-size: 5.5px; font-family: 'Arial'">3</tspan>
       <tspan x="17.701221" y="-0.6875" style="font-size: 5.5px; font-family: 'Arial'">.</tspan>
       <tspan x="19.229297" y="-0.6875" style="font-size: 5.5px; font-family: 'Arial'">3</tspan>
       <tspan x="22.288135" y="-0.6875" style="font-size: 5.5px; font-family: 'Arial'"> </tspan>
       <tspan x="23.816211" y="-0.6875" style="font-size: 5.5px; font-family: 'Arial'">m</tspan>
       <tspan x="28.397754" y="-0.6875" style="font-size: 5.5px; font-family: 'Arial'">i</tspan>
       <tspan x="29.619678" y="-0.6875" style="font-size: 5.5px; font-family: 'Arial'">n</tspan>
      </text>
     </g>
    </g>
   </g>
   <g id="line2d_72">
    <g clip-path="url(#p66ae3df741)">
     <use xlink:href="#mf5bb29c829" x="83.722174" y="290.76793" style="fill: #5b8fc9; stroke: #5b8fc9"/>
    </g>
   </g>
  </g>
  <g id="axes_4">
   <g id="patch_11">
    <path d="M 243.798351 358.375858 
L 427.325177 358.375858 
L 427.325177 216.399209 
L 243.798351 216.399209 
z
" style="fill: #ffffff"/>
   </g>
   <g id="FillBetweenPolyCollection_4">
    <defs>
     <path id="ma15f4f559e" d="M 243.798351 -164.86781 
L 243.798351 -164.86781 
L 246.347334 -164.86781 
L 246.347334 -164.86781 
L 248.896318 -164.86781 
L 248.896318 -162.259486 
L 251.445302 -162.259486 
L 251.445302 -160.108662 
L 253.994285 -160.108662 
L 253.994285 -155.212813 
L 256.543269 -155.212813 
L 256.543269 -150.372589 
L 259.092253 -150.372589 
L 259.092253 -145.919972 
L 261.641236 -145.919972 
L 261.641236 -141.581574 
L 264.19022 -141.581574 
L 264.19022 -136.355351 
L 266.739204 -136.355351 
L 266.739204 -131.443366 
L 269.288188 -131.443366 
L 269.288188 -128.193277 
L 271.837171 -128.193277 
L 271.837171 -124.49995 
L 274.386155 -124.49995 
L 274.386155 -120.652135 
L 276.935139 -120.652135 
L 276.935139 -116.201665 
L 279.484122 -116.201665 
L 279.484122 -111.31516 
L 282.033106 -111.31516 
L 282.033106 -107.415274 
L 284.58209 -107.415274 
L 284.58209 -103.442329 
L 287.131074 -103.442329 
L 287.131074 -99.154122 
L 289.680057 -99.154122 
L 289.680057 -95.036473 
L 292.229041 -95.036473 
L 292.229041 -91.007838 
L 294.778025 -91.007838 
L 294.778025 -86.626012 
L 297.327008 -86.626012 
L 297.327008 -79.571955 
L 299.875992 -79.571955 
L 299.875992 -73.143232 
L 302.424976 -73.143232 
L 302.424976 -68.36843 
L 304.973959 -68.36843 
L 304.973959 -65.7668 
L 307.522943 -65.7668 
L 307.522943 -62.491779 
L 310.071927 -62.491779 
L 310.071927 -58.54921 
L 312.620911 -58.54921 
L 312.620911 -54.818754 
L 315.169894 -54.818754 
L 315.169894 -49.999367 
L 317.718878 -49.999367 
L 317.718878 -46.033008 
L 320.267862 -46.033008 
L 320.267862 -41.778551 
L 322.816845 -41.778551 
L 322.816845 -38.326188 
L 325.365829 -38.326188 
L 325.365829 -35.799042 
L 327.914813 -35.799042 
L 327.914813 -32.574812 
L 330.463796 -32.574812 
L 330.463796 -29.651953 
L 330.463796 -29.651953 
L 330.463796 -29.651953 
L 330.463796 -34.184517 
L 327.914813 -34.184517 
L 327.914813 -37.976892 
L 325.365829 -37.976892 
L 325.365829 -40.811729 
L 322.816845 -40.811729 
L 322.816845 -44.575344 
L 320.267862 -44.575344 
L 320.267862 -49.144577 
L 317.718878 -49.144577 
L 317.718878 -53.387396 
L 315.169894 -53.387396 
L 315.169894 -58.484583 
L 312.620911 -58.484583 
L 312.620911 -62.39507 
L 310.071927 -62.39507 
L 310.071927 -66.500106 
L 307.522943 -66.500106 
L 307.522943 -69.890929 
L 304.973959 -69.890929 
L 304.973959 -72.573284 
L 302.424976 -72.573284 
L 302.424976 -77.47241 
L 299.875992 -77.47241 
L 299.875992 -84.028092 
L 297.327008 -84.028092 
L 297.327008 -91.168457 
L 294.778025 -91.168457 
L 294.778025 -95.577624 
L 292.229041 -95.577624 
L 292.229041 -99.614195 
L 289.680057 -99.614195 
L 289.680057 -103.723124 
L 287.131074 -103.723124 
L 287.131074 -107.984171 
L 284.58209 -107.984171 
L 284.58209 -111.915309 
L 282.033106 -111.915309 
L 282.033106 -115.758245 
L 279.484122 -115.758245 
L 279.484122 -120.550328 
L 276.935139 -120.550328 
L 276.935139 -124.891296 
L 274.386155 -124.891296 
L 274.386155 -128.625126 
L 271.837171 -128.625126 
L 271.837171 -132.190852 
L 269.288188 -132.190852 
L 269.288188 -135.312621 
L 266.739204 -135.312621 
L 266.739204 -139.99879 
L 264.19022 -139.99879 
L 264.19022 -144.935364 
L 261.641236 -144.935364 
L 261.641236 -148.985337 
L 259.092253 -148.985337 
L 259.092253 -153.082427 
L 256.543269 -153.082427 
L 256.543269 -157.437175 
L 253.994285 -157.437175 
L 253.994285 -161.652581 
L 251.445302 -161.652581 
L 251.445302 -163.371685 
L 248.896318 -163.371685 
L 248.896318 -164.86781 
L 246.347334 -164.86781 
L 246.347334 -164.86781 
L 243.798351 -164.86781 
z
" style="stroke: #c0392b; stroke-opacity: 0.18"/>
    </defs>
    <g clip-path="url(#p75bd9b76aa)">
     <use xlink:href="#ma15f4f559e" x="0" y="388.027811" style="fill: #c0392b; fill-opacity: 0.18; stroke: #c0392b; stroke-opacity: 0.18"/>
    </g>
   </g>
   <g id="matplotlib.axis_7">
    <g id="xtick_22">
     <g id="line2d_73">
      <g>
       <use xlink:href="#me1ef926484" x="243.798351" y="358.375858" style="stroke: #000000; stroke-width: 0.6"/>
      </g>
     </g>
     <g id="text_35">
      <text style="font-size: 6.5px; font-family: 'Arial', 'Helvetica', 'DejaVu Sans', sans-serif; text-anchor: middle" x="243.798351" y="368.028436" transform="rotate(-0 243.798351 368.028436)">0</text>
     </g>
    </g>
    <g id="xtick_23">
     <g id="line2d_74">
      <g>
       <use xlink:href="#me1ef926484" x="274.386155" y="358.375858" style="stroke: #000000; stroke-width: 0.6"/>
      </g>
     </g>
     <g id="text_36">
      <text style="font-size: 6.5px; font-family: 'Arial', 'Helvetica', 'DejaVu Sans', sans-serif; text-anchor: middle" x="274.386155" y="368.028436" transform="rotate(-0 274.386155 368.028436)">2</text>
     </g>
    </g>
    <g id="xtick_24">
     <g id="line2d_75">
      <g>
       <use xlink:href="#me1ef926484" x="304.973959" y="358.375858" style="stroke: #000000; stroke-width: 0.6"/>
      </g>
     </g>
     <g id="text_37">
      <text style="font-size: 6.5px; font-family: 'Arial', 'Helvetica', 'DejaVu Sans', sans-serif; text-anchor: middle" x="304.973959" y="368.028436" transform="rotate(-0 304.973959 368.028436)">4</text>
     </g>
    </g>
    <g id="xtick_25">
     <g id="line2d_76">
      <g>
       <use xlink:href="#me1ef926484" x="335.561764" y="358.375858" style="stroke: #000000; stroke-width: 0.6"/>
      </g>
     </g>
     <g id="text_38">
      <text style="font-size: 6.5px; font-family: 'Arial', 'Helvetica', 'DejaVu Sans', sans-serif; text-anchor: middle" x="335.561764" y="368.028436" transform="rotate(-0 335.561764 368.028436)">6</text>
     </g>
    </g>
    <g id="xtick_26">
     <g id="line2d_77">
      <g>
       <use xlink:href="#me1ef926484" x="366.149568" y="358.375858" style="stroke: #000000; stroke-width: 0.6"/>
      </g>
     </g>
     <g id="text_39">
      <text style="font-size: 6.5px; font-family: 'Arial', 'Helvetica', 'DejaVu Sans', sans-serif; text-anchor: middle" x="366.149568" y="368.028436" transform="rotate(-0 366.149568 368.028436)">8</text>
     </g>
    </g>
    <g id="xtick_27">
     <g id="line2d_78">
      <g>
       <use xlink:href="#me1ef926484" x="396.737373" y="358.375858" style="stroke: #000000; stroke-width: 0.6"/>
      </g>
     </g>
     <g id="text_40">
      <text style="font-size: 6.5px; font-family: 'Arial', 'Helvetica', 'DejaVu Sans', sans-serif; text-anchor: middle" x="396.737373" y="368.028436" transform="rotate(-0 396.737373 368.028436)">10</text>
     </g>
    </g>
    <g id="xtick_28">
     <g id="line2d_79">
      <g>
       <use xlink:href="#me1ef926484" x="427.325177" y="358.375858" style="stroke: #000000; stroke-width: 0.6"/>
      </g>
     </g>
     <g id="text_41">
      <text style="font-size: 6.5px; font-family: 'Arial', 'Helvetica', 'DejaVu Sans', sans-serif; text-anchor: middle" x="427.325177" y="368.028436" transform="rotate(-0 427.325177 368.028436)">12</text>
     </g>
    </g>
    <g id="text_42">
     <text style="font-size: 8px; font-family: 'Arial', 'Helvetica', 'DejaVu Sans', sans-serif; text-anchor: middle" x="335.561764" y="379.144061" transform="rotate(-0 335.561764 379.144061)">Forward lifetime (min)</text>
    </g>
   </g>
   <g id="matplotlib.axis_8">
    <g id="ytick_19">
     <g id="line2d_80">
      <g>
       <use xlink:href="#m581e05fcaa" x="243.798351" y="358.375858" style="stroke: #000000; stroke-width: 0.6"/>
      </g>
     </g>
    </g>
    <g id="ytick_20">
     <g id="line2d_81">
      <g>
       <use xlink:href="#m581e05fcaa" x="243.798351" y="331.332687" style="stroke: #000000; stroke-width: 0.6"/>
      </g>
     </g>
    </g>
    <g id="ytick_21">
     <g id="line2d_82">
      <g>
       <use xlink:href="#m581e05fcaa" x="243.798351" y="304.289515" style="stroke: #000000; stroke-width: 0.6"/>
      </g>
     </g>
    </g>
    <g id="ytick_22">
     <g id="line2d_83">
      <g>
       <use xlink:href="#m581e05fcaa" x="243.798351" y="277.246344" style="stroke: #000000; stroke-width: 0.6"/>
      </g>
     </g>
    </g>
    <g id="ytick_23">
     <g id="line2d_84">
      <g>
       <use xlink:href="#m581e05fcaa" x="243.798351" y="250.203173" style="stroke: #000000; stroke-width: 0.6"/>
      </g>
     </g>
    </g>
    <g id="ytick_24">
     <g id="line2d_85">
      <g>
       <use xlink:href="#m581e05fcaa" x="243.798351" y="223.160002" style="stroke: #000000; stroke-width: 0.6"/>
      </g>
     </g>
    </g>
   </g>
   <g id="line2d_86">
    <path d="M 243.798351 223.160002 
L 248.896318 223.160002 
L 248.896318 223.835237 
L 251.445302 223.835237 
L 251.445302 224.679281 
L 253.994285 224.679281 
L 253.994285 226.704987 
L 256.543269 226.704987 
L 256.543269 229.743545 
L 259.092253 229.743545 
L 259.092253 232.950912 
L 261.641236 232.950912 
L 261.641236 237.50875 
L 264.19022 237.50875 
L 264.19022 242.573015 
L 266.739204 242.573015 
L 266.739204 245.780382 
L 269.288188 245.780382 
L 269.288188 248.312514 
L 271.837171 248.312514 
L 271.837171 250.675838 
L 274.386155 250.675838 
L 274.386155 253.545587 
L 276.935139 253.545587 
L 276.935139 258.947469 
L 279.484122 258.947469 
L 279.484122 263.505307 
L 282.033106 263.505307 
L 282.033106 266.375057 
L 284.58209 266.375057 
L 284.58209 269.582424 
L 287.131074 269.582424 
L 287.131074 271.60813 
L 289.680057 271.60813 
L 289.680057 275.997159 
L 292.229041 275.997159 
L 292.229041 279.035718 
L 294.778025 279.035718 
L 294.778025 282.749511 
L 297.327008 282.749511 
L 297.327008 287.644967 
L 299.875992 287.644967 
L 299.875992 289.839481 
L 302.424976 289.839481 
L 302.424976 293.046849 
L 304.973959 293.046849 
L 304.973959 295.578981 
L 307.522943 295.578981 
L 307.522943 300.980863 
L 310.071927 300.980863 
L 310.071927 305.032274 
L 312.620911 305.032274 
L 312.620911 308.40845 
L 315.169894 308.40845 
L 315.169894 313.135097 
L 317.718878 313.135097 
L 317.718878 318.705788 
L 320.267862 318.705788 
L 320.267862 325.626949 
L 322.816845 325.626949 
L 322.816845 332.54811 
L 325.365829 332.54811 
L 325.365829 339.63808 
L 327.914813 339.63808 
L 327.914813 346.72805 
L 330.463796 346.72805 
L 330.463796 358.375858 
" clip-path="url(#p75bd9b76aa)" style="fill: none; stroke: #c0392b; stroke-opacity: 0.3; stroke-width: 0.7; stroke-linecap: square"/>
   </g>
   <g id="line2d_87">
    <path d="M 243.798351 223.160002 
L 246.347334 223.160002 
L 246.347334 223.160002 
L 248.896318 223.160002 
L 248.896318 228.592781 
L 251.445302 228.592781 
L 251.445302 231.315503 
L 253.994285 231.315503 
L 253.994285 239.181144 
L 256.543269 239.181144 
L 256.543269 244.929113 
L 259.092253 244.929113 
L 259.092253 248.559409 
L 261.641236 248.559409 
L 261.641236 252.794754 
L 264.19022 252.794754 
L 264.19022 256.42505 
L 266.739204 256.42505 
L 266.739204 260.055346 
L 269.288188 260.055346 
L 269.288188 263.988166 
L 271.837171 263.988166 
L 271.837171 267.920987 
L 274.386155 267.920987 
L 274.386155 271.853807 
L 276.935139 271.853807 
L 276.935139 277.9043 
L 279.484122 277.9043 
L 279.484122 281.232071 
L 282.033106 281.232071 
L 282.033106 284.559843 
L 284.58209 284.559843 
L 284.58209 286.37499 
L 287.131074 286.37499 
L 287.131074 288.795188 
L 289.680057 288.795188 
L 289.680057 291.215385 
L 292.229041 291.215385 
L 292.229041 293.938107 
L 294.778025 293.938107 
L 294.778025 295.753255 
L 297.327008 295.753255 
L 297.327008 299.383551 
L 299.875992 299.383551 
L 299.875992 304.223945 
L 302.424976 304.223945 
L 302.424976 309.366864 
L 304.973959 309.366864 
L 304.973959 314.207259 
L 307.522943 314.207259 
L 307.522943 319.652702 
L 310.071927 319.652702 
L 310.071927 328.123393 
L 312.620911 328.123393 
L 312.620911 336.291558 
L 315.169894 336.291558 
L 315.169894 349.602643 
L 317.718878 349.602643 
L 317.718878 356.56071 
L 320.267862 356.56071 
L 320.267862 358.073333 
L 327.914813 358.073333 
L 327.914813 358.073333 
" clip-path="url(#p75bd9b76aa)" style="fill: none; stroke: #c0392b; stroke-opacity: 0.3; stroke-width: 0.7; stroke-linecap: square"/>
   </g>
   <g id="line2d_88">
    <path d="M 243.798351 223.160002 
L 246.347334 223.160002 
L 246.347334 223.160002 
L 248.896318 223.160002 
L 248.896318 223.963264 
L 251.445302 223.963264 
L 251.445302 225.703666 
L 253.994285 225.703666 
L 253.994285 229.452225 
L 256.543269 229.452225 
L 256.543269 233.736291 
L 259.092253 233.736291 
L 259.092253 238.154235 
L 261.641236 238.154235 
L 261.641236 243.777073 
L 264.19022 243.777073 
L 264.19022 250.470927 
L 266.739204 250.470927 
L 266.739204 257.70029 
L 269.288188 257.70029 
L 269.288188 261.314971 
L 271.837171 261.314971 
L 271.837171 266.4023 
L 274.386155 266.4023 
L 274.386155 270.820244 
L 276.935139 270.820244 
L 276.935139 275.505942 
L 279.484122 275.505942 
L 279.484122 282.601428 
L 282.033106 282.601428 
L 282.033106 289.696913 
L 284.58209 289.696913 
L 284.58209 296.123013 
L 287.131074 296.123013 
L 287.131074 304.423393 
L 289.680057 304.423393 
L 289.680057 310.447861 
L 292.229041 310.447861 
L 292.229041 316.204576 
L 294.778025 316.204576 
L 294.778025 323.701693 
L 297.327008 323.701693 
L 297.327008 337.223279 
L 299.875992 337.223279 
L 299.875992 350.209356 
L 302.424976 350.209356 
L 302.424976 358.375858 
" clip-path="url(#p75bd9b76aa)" style="fill: none; stroke: #c0392b; stroke-opacity: 0.3; stroke-width: 0.7; stroke-linecap: square"/>
   </g>
   <g id="line2d_89">
    <path d="M 243.798351 223.160002 
L 248.896318 223.160002 
L 248.896318 224.456 
L 251.445302 224.456 
L 251.445302 227.047997 
L 253.994285 227.047997 
L 253.994285 233.311991 
L 256.543269 233.311991 
L 256.543269 239.359984 
L 259.092253 239.359984 
L 259.092253 244.759979 
L 261.641236 244.759979 
L 261.641236 247.567976 
L 264.19022 247.567976 
L 264.19022 251.671971 
L 266.739204 251.671971 
L 266.739204 255.343967 
L 269.288188 255.343967 
L 269.288188 258.583964 
L 271.837171 258.583964 
L 271.837171 261.175961 
L 274.386155 261.175961 
L 274.386155 265.063957 
L 276.935139 265.063957 
L 276.935139 268.303954 
L 279.484122 268.303954 
L 279.484122 272.19195 
L 282.033106 272.19195 
L 282.033106 274.135947 
L 284.58209 274.135947 
L 284.58209 276.943944 
L 287.131074 276.943944 
L 287.131074 280.399941 
L 289.680057 280.399941 
L 289.680057 282.991938 
L 292.229041 282.991938 
L 292.229041 285.799935 
L 294.778025 285.799935 
L 294.778025 289.687931 
L 297.327008 289.687931 
L 297.327008 294.007926 
L 299.875992 294.007926 
L 299.875992 299.191921 
L 302.424976 299.191921 
L 302.424976 302.647917 
L 304.973959 302.647917 
L 304.973959 307.399912 
L 307.522943 307.399912 
L 307.522943 311.935907 
L 310.071927 311.935907 
L 310.071927 317.551901 
L 312.620911 317.551901 
L 312.620911 323.599895 
L 315.169894 323.599895 
L 315.169894 330.727887 
L 317.718878 330.727887 
L 317.718878 336.127882 
L 320.267862 336.127882 
L 320.267862 350.430152 
" clip-path="url(#p75bd9b76aa)" style="fill: none; stroke: #c0392b; stroke-opacity: 0.3; stroke-width: 0.7; stroke-linecap: square"/>
   </g>
   <g id="line2d_90">
    <path d="M 243.798351 223.160002 
L 246.347334 223.160002 
L 246.347334 223.160002 
L 248.896318 223.160002 
L 248.896318 227.493843 
L 251.445302 227.493843 
L 251.445302 230.099901 
L 253.994285 230.099901 
L 253.994285 235.312017 
L 256.543269 235.312017 
L 256.543269 240.24618 
L 259.092253 240.24618 
L 259.092253 245.180343 
L 261.641236 245.180343 
L 261.641236 247.502303 
L 264.19022 247.502303 
L 264.19022 251.855976 
L 266.739204 251.855976 
L 266.739204 256.79014 
L 269.288188 256.79014 
L 269.288188 259.402344 
L 271.837171 259.402344 
L 271.837171 263.175528 
L 274.386155 263.175528 
L 274.386155 266.948712 
L 276.935139 266.948712 
L 276.935139 268.980426 
L 279.484122 268.980426 
L 279.484122 272.17312 
L 282.033106 272.17312 
L 282.033106 273.914589 
L 284.58209 273.914589 
L 284.58209 277.397528 
L 287.131074 277.397528 
L 287.131074 279.719488 
L 289.680057 279.719488 
L 289.680057 282.912182 
L 292.229041 282.912182 
L 292.229041 287.846345 
L 294.778025 287.846345 
L 294.778025 289.87806 
L 297.327008 289.87806 
L 297.327008 293.941488 
L 299.875992 293.941488 
L 299.875992 297.134182 
L 302.424976 297.134182 
L 302.424976 301.487856 
L 304.973959 301.487856 
L 304.973959 304.970795 
L 307.522943 304.970795 
L 307.522943 308.163489 
L 310.071927 308.163489 
L 310.071927 314.258632 
L 312.620911 314.258632 
L 312.620911 319.773285 
L 315.169894 319.773285 
L 315.169894 324.707449 
L 317.718878 324.707449 
L 317.718878 330.512347 
L 320.267862 330.512347 
L 320.267862 334.86602 
L 322.816845 334.86602 
L 322.816845 344.444102 
L 325.365829 344.444102 
L 325.365829 348.217286 
L 327.914813 348.217286 
L 327.914813 356.924634 
L 330.463796 356.924634 
L 330.463796 358.375858 
" clip-path="url(#p75bd9b76aa)" style="fill: none; stroke: #c0392b; stroke-opacity: 0.3; stroke-width: 0.7; stroke-linecap: square"/>
   </g>
   <g id="line2d_91">
    <path d="M 243.798351 223.160002 
L 246.347334 223.160002 
L 246.347334 223.160002 
L 248.896318 223.160002 
L 248.896318 225.136016 
L 251.445302 225.136016 
L 251.445302 227.072876 
L 253.994285 227.072876 
L 253.994285 231.632568 
L 256.543269 231.632568 
L 256.543269 236.234076 
L 259.092253 236.234076 
L 259.092253 240.512671 
L 261.641236 240.512671 
L 261.641236 244.710538 
L 264.19022 244.710538 
L 264.19022 249.796415 
L 266.739204 249.796415 
L 266.739204 254.599744 
L 269.288188 254.599744 
L 269.288188 257.788508 
L 271.837171 257.788508 
L 271.837171 261.421278 
L 274.386155 261.421278 
L 274.386155 265.215504 
L 276.935139 265.215504 
L 276.935139 269.615191 
L 279.484122 269.615191 
L 279.484122 274.458884 
L 282.033106 274.458884 
L 282.033106 278.333838 
L 284.58209 278.333838 
L 284.58209 282.28952 
L 287.131074 282.28952 
L 287.131074 286.568115 
L 289.680057 286.568115 
L 289.680057 290.685254 
L 292.229041 290.685254 
L 292.229041 294.721664 
L 294.778025 294.721664 
L 294.778025 299.121352 
L 297.327008 299.121352 
L 297.327008 306.225434 
L 299.875992 306.225434 
L 299.875992 312.724055 
L 302.424976 312.724055 
L 302.424976 317.565913 
L 304.973959 317.565913 
L 304.973959 320.210625 
L 307.522943 320.210625 
L 307.522943 323.547032 
L 310.071927 323.547032 
L 310.071927 327.575132 
L 312.620911 327.575132 
L 312.620911 331.399793 
L 315.169894 331.399793 
L 315.169894 336.363714 
L 317.718878 336.363714 
L 317.718878 340.47319 
L 320.267862 340.47319 
L 320.267862 344.891915 
L 322.816845 344.891915 
L 322.816845 348.507175 
L 325.365829 348.507175 
L 325.365829 351.194193 
L 327.914813 351.194193 
L 327.914813 354.711743 
L 330.463796 354.711743 
L 330.463796 358.375858 
" clip-path="url(#p75bd9b76aa)" style="fill: none; stroke: #c0392b; stroke-width: 2; stroke-linecap: square"/>
   </g>
   <g id="line2d_92">
    <path d="M 292.229041 358.375858 
L 292.229041 216.399209 
" clip-path="url(#p75bd9b76aa)" style="fill: none; stroke-dasharray: 3.7,1.6; stroke-dashoffset: 0; stroke: #c0392b; stroke-opacity: 0.8"/>
   </g>
   <g id="line2d_93">
    <path d="M 243.798351 290.76793 
L 427.325177 290.76793 
" clip-path="url(#p75bd9b76aa)" style="fill: none; stroke-dasharray: 0.5,0.825; stroke-dashoffset: 0; stroke: #aaaaaa; stroke-width: 0.5"/>
   </g>
   <g id="patch_12">
    <path d="M 243.798351 358.375858 
L 243.798351 216.399209 
" style="fill: none; stroke: #000000; stroke-width: 0.6; stroke-linejoin: miter; stroke-linecap: square"/>
   </g>
   <g id="patch_13">
    <path d="M 243.798351 358.375858 
L 427.325177 358.375858 
" style="fill: none; stroke: #000000; stroke-width: 0.6; stroke-linejoin: miter; stroke-linecap: square"/>
   </g>
   <g id="text_43">
    <text style="font-weight: 700; font-size: 10.5px; font-family: 'Arial', 'Helvetica', 'DejaVu Sans', sans-serif; text-anchor: start" x="229.116204" y="215.396313" transform="rotate(-0 229.116204 215.396313)">d</text>
   </g>
   <g id="text_44">
    <text style="font-weight: 700; font-size: 8px; font-family: 'Arial', 'Helvetica', 'DejaVu Sans', sans-serif; text-anchor: middle; fill: #c0392b" x="335.561764" y="212.399209" transform="rotate(-0 335.561764 212.399209)">2:1 NaCl</text>
   </g>
   <g id="legend_4">
    <g id="line2d_94">
     <path d="M 378.705177 223.361006 
L 382.005177 223.361006 
L 382.005177 223.361006 
L 385.305177 223.361006 
L 385.305177 223.361006 
" style="fill: none; stroke: #c0392b; stroke-width: 2; stroke-linecap: square"/>
    </g>
    <g id="text_45">
     <text style="font-size: 5.5px; font-family: 'Arial', 'Helvetica', 'DejaVu Sans', sans-serif; text-anchor: start" x="389.705177" y="225.286006" transform="rotate(-0 389.705177 225.286006)">Pooled</text>
    </g>
    <g id="line2d_95">
     <defs>
      <path id="me3286f469e" d="M 0 2.5 
C 0.663008 2.5 1.29895 2.236584 1.767767 1.767767 
C 2.236584 1.29895 2.5 0.663008 2.5 0 
C 2.5 -0.663008 2.236584 -1.29895 1.767767 -1.767767 
C 1.29895 -2.236584 0.663008 -2.5 0 -2.5 
C -0.663008 -2.5 -1.29895 -2.236584 -1.767767 -1.767767 
C -2.236584 -1.29895 -2.5 -0.663008 -2.5 0 
C -2.5 0.663008 -2.236584 1.29895 -1.767767 1.767767 
C -1.29895 2.236584 -0.663008 2.5 0 2.5 
z
" style="stroke: #c0392b"/>
     </defs>
     <g>
      <use xlink:href="#me3286f469e" x="382.005177" y="229.765927" style="fill: #c0392b; stroke: #c0392b"/>
     </g>
    </g>
    <g id="text_46">
     <!-- $\tau_{50}$ = 3.2 min -->
     <g transform="translate(389.705177 231.690927)">
      <text>
       <tspan x="0" y="-0.6875" style="font-style: oblique; font-size: 5.5px; font-family: 'DejaVu Sans'">τ</tspan>
       <tspan x="3.311279" y="0.296875" style="font-size: 3.85px; font-family: 'DejaVu Sans'">5</tspan>
       <tspan x="5.760767" y="0.296875" style="font-size: 3.85px; font-family: 'DejaVu Sans'">0</tspan>
       <tspan x="8.374316" y="-0.6875" style="font-size: 5.5px; font-family: 'Arial'"> </tspan>
       <tspan x="9.902393" y="-0.6875" style="font-size: 5.5px; font-family: 'Arial'">=</tspan>
       <tspan x="13.114307" y="-0.6875" style="font-size: 5.5px; font-family: 'Arial'"> </tspan>
       <tspan x="14.642383" y="-0.6875" style="font-size: 5.5px; font-family: 'Arial'">3</tspan>
       <tspan x="17.701221" y="-0.6875" style="font-size: 5.5px; font-family: 'Arial'">.</tspan>
       <tspan x="19.229297" y="-0.6875" style="font-size: 5.5px; font-family: 'Arial'">2</tspan>
       <tspan x="22.288135" y="-0.6875" style="font-size: 5.5px; font-family: 'Arial'"> </tspan>
       <tspan x="23.816211" y="-0.6875" style="font-size: 5.5px; font-family: 'Arial'">m</tspan>
       <tspan x="28.397754" y="-0.6875" style="font-size: 5.5px; font-family: 'Arial'">i</tspan>
       <tspan x="29.619678" y="-0.6875" style="font-size: 5.5px; font-family: 'Arial'">n</tspan>
      </text>
     </g>
    </g>
   </g>
   <g id="line2d_96">
    <g clip-path="url(#p75bd9b76aa)">
     <use xlink:href="#me3286f469e" x="292.229041" y="290.76793" style="fill: #c0392b; stroke: #c0392b"/>
    </g>
   </g>
  </g>
  <g id="text_47">
   <text style="font-style: italic; font-size: 6.5px; font-family: 'Arial', 'Helvetica', 'DejaVu Sans', sans-serif; text-anchor: middle; fill: #555555" x="227.766122" y="13.116016" transform="rotate(-0 227.766122 13.116016)">Thin lines = individual replicates  │  Bold = pooled KM  │  Band = 95% CI</text>
  </g>
 </g>
 <defs>
  <clipPath id="p03ecdf9f19">
   <rect x="32.7425" y="28.990031" width="183.526827" height="141.976649"/>
  </clipPath>
  <clipPath id="p1974036540">
   <rect x="243.798351" y="28.990031" width="183.526827" height="141.976649"/>
  </clipPath>
  <clipPath id="p66ae3df741">
   <rect x="32.7425" y="216.399209" width="183.526827" height="141.976649"/>
  </clipPath>
  <clipPath id="p75bd9b76aa">
   <rect x="243.798351" y="216.399209" width="183.526827" height="141.976649"/>
  </clipPath>
 </defs>
</svg>
