<?xml version="1.0" encoding="utf-8" standalone="no"?>
<!DOCTYPE svg PUBLIC "-//W3C//DTD SVG 1.1//EN"
  "http://www.w3.org/Graphics/SVG/1.1/DTD/svg11.dtd">
<svg xmlns:xlink="http://www.w3.org/1999/xlink" width="237.033071pt" height="231.150734pt" viewBox="0 0 237.033071 231.150734" xmlns="http://www.w3.org/2000/svg" version="1.1">
 <metadata>
  <rdf:RDF xmlns:dc="http://purl.org/dc/elements/1.1/" xmlns:cc="http://creativecommons.org/ns#" xmlns:rdf="http://www.w3.org/1999/02/22-rdf-syntax-ns#">
   <cc:Work>
    <dc:type rdf:resource="http://purl.org/dc/dcmitype/StillImage"/>
    <dc:date>2026-04-02T17:57:45.254471</dc:date>
    <dc:format>image/svg+xml</dc:format>
    <dc:creator>
     <cc:Agent>
      <dc:title>Matplotlib v3.10.8, https://matplotlib.org/</dc:title>
     </cc:Agent>
    </dc:creator>
   </cc:Work>
  </rdf:RDF>
 </metadata>
 <defs>
  <style type="text/css">*{stroke-linejoin: round; stroke-linecap: butt}</style>
 </defs>
 <g id="figure_1">
  <g id="patch_1">
   <path d="M 0 231.150734 
L 237.033071 231.150734 
L 237.033071 0 
L 0 0 
z
" style="fill: #ffffff"/>
  </g>
  <g id="axes_1">
   <g id="patch_2">
    <path d="M 44.305512 199.474016 
L 229.833071 199.474016 
L 229.833071 16.355906 
L 44.305512 16.355906 
z
" style="fill: #ffffff"/>
   </g>
   <g id="line2d_1">
    <path d="M 44.305512 112.274916 
L 229.833071 112.274916 
" clip-path="url(#pb5912a3ad6)" style="fill: none; stroke-dasharray: 2.59,1.12; stroke-dashoffset: 0; stroke: #808080; stroke-opacity: 0.7; stroke-width: 0.7"/>
   </g>
   <g id="matplotlib.axis_1">
    <g id="xtick_1">
     <g id="line2d_2">
      <defs>
       <path id="m2817beab74" d="M 0 0 
L 0 3.5 
" style="stroke: #000000; stroke-width: 0.6"/>
      </defs>
      <g>
       <use xlink:href="#m2817beab74" x="44.305512" y="199.474016" style="stroke: #000000; stroke-width: 0.6"/>
      </g>
     </g>
     <g id="text_1">
      <text style="font-size: 7px; font-family: 'Arial', 'Helvetica', 'DejaVu Sans', sans-serif; text-anchor: middle" x="44.305512" y="211.484484" transform="rotate(-0 44.305512 211.484484)">0</text>
     </g>
    </g>
    <g id="xtick_2">
     <g id="line2d_3">
      <g>
       <use xlink:href="#m2817beab74" x="75.486614" y="199.474016" style="stroke: #000000; stroke-width: 0.6"/>
      </g>
     </g>
     <g id="text_2">
      <text style="font-size: 7px; font-family: 'Arial', 'Helvetica', 'DejaVu Sans', sans-serif; text-anchor: middle" x="75.486614" y="211.484484" transform="rotate(-0 75.486614 211.484484)">1</text>
     </g>
    </g>
    <g id="xtick_3">
     <g id="line2d_4">
      <g>
       <use xlink:href="#m2817beab74" x="106.667717" y="199.474016" style="stroke: #000000; stroke-width: 0.6"/>
      </g>
     </g>
     <g id="text_3">
      <text style="font-size: 7px; font-family: 'Arial', 'Helvetica', 'DejaVu Sans', sans-serif; text-anchor: middle" x="106.667717" y="211.484484" transform="rotate(-0 106.667717 211.484484)">2</text>
     </g>
    </g>
    <g id="xtick_4">
     <g id="line2d_5">
      <g>
       <use xlink:href="#m2817beab74" x="137.848819" y="199.474016" style="stroke: #000000; stroke-width: 0.6"/>
      </g>
     </g>
     <g id="text_4">
      <text style="font-size: 7px; font-family: 'Arial', 'Helvetica', 'DejaVu Sans', sans-serif; text-anchor: middle" x="137.848819" y="211.484484" transform="rotate(-0 137.848819 211.484484)">3</text>
     </g>
    </g>
    <g id="xtick_5">
     <g id="line2d_6">
      <g>
       <use xlink:href="#m2817beab74" x="169.029921" y="199.474016" style="stroke: #000000; stroke-width: 0.6"/>
      </g>
     </g>
     <g id="text_5">
      <text style="font-size: 7px; font-family: 'Arial', 'Helvetica', 'DejaVu Sans', sans-serif; text-anchor: middle" x="169.029921" y="211.484484" transform="rotate(-0 169.029921 211.484484)">4</text>
     </g>
    </g>
    <g id="xtick_6">
     <g id="line2d_7">
      <g>
       <use xlink:href="#m2817beab74" x="200.211024" y="199.474016" style="stroke: #000000; stroke-width: 0.6"/>
      </g>
     </g>
     <g id="text_6">
      <text style="font-size: 7px; font-family: 'Arial', 'Helvetica', 'DejaVu Sans', sans-serif; text-anchor: middle" x="200.211024" y="211.484484" transform="rotate(-0 200.211024 211.484484)">5</text>
     </g>
    </g>
    <g id="text_7">
     <!-- $\tau$ (min) -->
     <g transform="translate(123.639291 222.080734)">
      <text>
       <tspan x="0" y="-0.453125" style="font-style: oblique; font-size: 8.5px; font-family: 'DejaVu Sans'">τ</tspan>
       <tspan x="5.117432" y="-0.453125" style="font-size: 8.5px; font-family: 'Arial'"> </tspan>
       <tspan x="7.479004" y="-0.453125" style="font-size: 8.5px; font-family: 'Arial'">(</tspan>
       <tspan x="10.30957" y="-0.453125" style="font-size: 8.5px; font-family: 'Arial'">m</tspan>
       <tspan x="17.390137" y="-0.453125" style="font-size: 8.5px; font-family: 'Arial'">i</tspan>
       <tspan x="19.278564" y="-0.453125" style="font-size: 8.5px; font-family: 'Arial'">n</tspan>
       <tspan x="24.005859" y="-0.453125" style="font-size: 8.5px; font-family: 'Arial'">)</tspan>
      </text>
     </g>
    </g>
   </g>
   <g id="matplotlib.axis_2">
    <g id="ytick_1">
     <g id="line2d_8">
      <defs>
       <path id="m7d25b0fadc" d="M 0 0 
L -3.5 0 
" style="stroke: #000000; stroke-width: 0.6"/>
      </defs>
      <g>
       <use xlink:href="#m7d25b0fadc" x="44.305512" y="199.474016" style="stroke: #000000; stroke-width: 0.6"/>
      </g>
     </g>
     <g id="text_8">
      <text style="font-size: 7px; font-family: 'Arial', 'Helvetica', 'DejaVu Sans', sans-serif; text-anchor: end" x="37.305512" y="201.97925" transform="rotate(-0 37.305512 201.97925)">0.0</text>
     </g>
    </g>
    <g id="ytick_2">
     <g id="line2d_9">
      <g>
       <use xlink:href="#m7d25b0fadc" x="44.305512" y="164.594376" style="stroke: #000000; stroke-width: 0.6"/>
      </g>
     </g>
     <g id="text_9">
      <text style="font-size: 7px; font-family: 'Arial', 'Helvetica', 'DejaVu Sans', sans-serif; text-anchor: end" x="37.305512" y="167.09961" transform="rotate(-0 37.305512 167.09961)">0.2</text>
     </g>
    </g>
    <g id="ytick_3">
     <g id="line2d_10">
      <g>
       <use xlink:href="#m7d25b0fadc" x="44.305512" y="129.714736" style="stroke: #000000; stroke-width: 0.6"/>
      </g>
     </g>
     <g id="text_10">
      <text style="font-size: 7px; font-family: 'Arial', 'Helvetica', 'DejaVu Sans', sans-serif; text-anchor: end" x="37.305512" y="132.21997" transform="rotate(-0 37.305512 132.21997)">0.4</text>
     </g>
    </g>
    <g id="ytick_4">
     <g id="line2d_11">
      <g>
       <use xlink:href="#m7d25b0fadc" x="44.305512" y="94.835096" style="stroke: #000000; stroke-width: 0.6"/>
      </g>
     </g>
     <g id="text_11">
      <text style="font-size: 7px; font-family: 'Arial', 'Helvetica', 'DejaVu Sans', sans-serif; text-anchor: end" x="37.305512" y="97.34033" transform="rotate(-0 37.305512 97.34033)">0.6</text>
     </g>
    </g>
    <g id="ytick_5">
     <g id="line2d_12">
      <g>
       <use xlink:href="#m7d25b0fadc" x="44.305512" y="59.955456" style="stroke: #000000; stroke-width: 0.6"/>
      </g>
     </g>
     <g id="text_12">
      <text style="font-size: 7px; font-family: 'Arial', 'Helvetica', 'DejaVu Sans', sans-serif; text-anchor: end" x="37.305512" y="62.46069" transform="rotate(-0 37.305512 62.46069)">0.8</text>
     </g>
    </g>
    <g id="ytick_6">
     <g id="line2d_13">
      <g>
       <use xlink:href="#m7d25b0fadc" x="44.305512" y="25.075816" style="stroke: #000000; stroke-width: 0.6"/>
      </g>
     </g>
     <g id="text_13">
      <text style="font-size: 7px; font-family: 'Arial', 'Helvetica', 'DejaVu Sans', sans-serif; text-anchor: end" x="37.305512" y="27.58105" transform="rotate(-0 37.305512 27.58105)">1.0</text>
     </g>
    </g>
    <g id="text_14">
     <text style="font-size: 8.5px; font-family: 'Arial', 'Helvetica', 'DejaVu Sans', sans-serif; text-anchor: middle" x="22.786527" y="107.914961" transform="rotate(-90 22.786527 107.914961)">Fraction surviving</text>
    </g>
   </g>
   <g id="FillBetweenPolyCollection_1">
    <defs>
     <path id="m15e8f7cae7" d="M 44.305512 -206.074919 
L 44.305512 -206.074919 
L 54.699213 -206.074919 
L 54.699213 -193.783867 
L 59.896063 -193.783867 
L 59.896063 -181.727222 
L 65.092913 -181.727222 
L 65.092913 -150.784772 
L 70.289764 -150.784772 
L 70.289764 -126.573709 
L 75.486614 -126.573709 
L 75.486614 -107.349059 
L 80.683465 -107.349059 
L 80.683465 -94.057448 
L 85.880315 -94.057448 
L 85.880315 -78.901521 
L 91.077165 -78.901521 
L 91.077165 -68.171453 
L 96.274016 -68.171453 
L 96.274016 -61.275339 
L 101.470866 -61.275339 
L 101.470866 -56.080341 
L 106.667717 -56.080341 
L 106.667717 -50.969558 
L 111.864567 -50.969558 
L 111.864567 -42.589397 
L 117.061417 -42.589397 
L 117.061417 -36.857365 
L 122.258268 -36.857365 
L 122.258268 -34.230811 
L 127.455118 -34.230811 
L 127.455118 -32.266948 
L 137.848819 -32.266948 
L 137.848819 -31.676719 
L 137.848819 -31.676719 
L 137.848819 -31.676719 
L 137.848819 -35.886826 
L 127.455118 -35.886826 
L 127.455118 -39.911051 
L 122.258268 -39.911051 
L 122.258268 -44.174943 
L 117.061417 -44.174943 
L 117.061417 -52.261741 
L 111.864567 -52.261741 
L 111.864567 -62.914863 
L 106.667717 -62.914863 
L 106.667717 -69.059975 
L 101.470866 -69.059975 
L 101.470866 -75.125149 
L 96.274016 -75.125149 
L 96.274016 -82.958681 
L 91.077165 -82.958681 
L 91.077165 -94.764039 
L 85.880315 -94.764039 
L 85.880315 -110.821881 
L 80.683465 -110.821881 
L 80.683465 -124.415993 
L 75.486614 -124.415993 
L 75.486614 -143.359918 
L 70.289764 -143.359918 
L 70.289764 -166.001417 
L 65.092913 -166.001417 
L 65.092913 -192.329287 
L 59.896063 -192.329287 
L 59.896063 -201.088569 
L 54.699213 -201.088569 
L 54.699213 -206.074919 
L 44.305512 -206.074919 
z
"/>
    </defs>
    <g clip-path="url(#pb5912a3ad6)">
     <use xlink:href="#m15e8f7cae7" x="0" y="231.150734" style="fill: #1a237e; fill-opacity: 0.08"/>
    </g>
   </g>
   <g id="FillBetweenPolyCollection_2">
    <defs>
     <path id="mfb01feb26c" d="M 44.305512 -206.074919 
L 44.305512 -206.074919 
L 49.502362 -206.074919 
L 49.502362 -206.074919 
L 54.699213 -206.074919 
L 54.699213 -197.718281 
L 59.896063 -197.718281 
L 59.896063 -195.257421 
L 85.880315 -195.257421 
L 85.880315 -193.66065 
L 91.077165 -193.66065 
L 91.077165 -191.31618 
L 96.274016 -191.31618 
L 96.274016 -189.0198 
L 101.470866 -189.0198 
L 101.470866 -181.605482 
L 106.667717 -181.605482 
L 106.667717 -174.438076 
L 111.864567 -174.438076 
L 111.864567 -162.61101 
L 117.061417 -162.61101 
L 117.061417 -145.098266 
L 122.258268 -145.098266 
L 122.258268 -125.502114 
L 127.455118 -125.502114 
L 127.455118 -111.471513 
L 132.651969 -111.471513 
L 132.651969 -102.059101 
L 137.848819 -102.059101 
L 137.848819 -91.543715 
L 143.045669 -91.543715 
L 143.045669 -78.791479 
L 148.24252 -78.791479 
L 148.24252 -69.274341 
L 153.43937 -69.274341 
L 153.43937 -58.818996 
L 158.63622 -58.818996 
L 158.63622 -53.71684 
L 163.833071 -53.71684 
L 163.833071 -49.822223 
L 169.029921 -49.822223 
L 169.029921 -48.723406 
L 174.226772 -48.723406 
L 174.226772 -40.236986 
L 179.423622 -40.236986 
L 179.423622 -36.312155 
L 184.620472 -36.312155 
L 184.620472 -33.660338 
L 189.817323 -33.660338 
L 189.817323 -31.935274 
L 195.014173 -31.935274 
L 195.014173 -31.676719 
L 195.014173 -31.676719 
L 195.014173 -31.676719 
L 195.014173 -35.920383 
L 189.817323 -35.920383 
L 189.817323 -40.323421 
L 184.620472 -40.323421 
L 184.620472 -45.142877 
L 179.423622 -45.142877 
L 179.423622 -51.219437 
L 174.226772 -51.219437 
L 174.226772 -62.786815 
L 169.029921 -62.786815 
L 169.029921 -64.197402 
L 163.833071 -64.197402 
L 163.833071 -69.08884 
L 158.63622 -69.08884 
L 158.63622 -75.288841 
L 153.43937 -75.288841 
L 153.43937 -87.451831 
L 148.24252 -87.451831 
L 148.24252 -98.050994 
L 143.045669 -98.050994 
L 143.045669 -111.712502 
L 137.848819 -111.712502 
L 137.848819 -122.586587 
L 132.651969 -122.586587 
L 132.651969 -132.051254 
L 127.455118 -132.051254 
L 127.455118 -145.712472 
L 122.258268 -145.712472 
L 122.258268 -163.885753 
L 117.061417 -163.885753 
L 117.061417 -179.110921 
L 111.864567 -179.110921 
L 111.864567 -188.688879 
L 106.667717 -188.688879 
L 106.667717 -194.109951 
L 101.470866 -194.109951 
L 101.470866 -199.276176 
L 96.274016 -199.276176 
L 96.274016 -200.749643 
L 91.077165 -200.749643 
L 91.077165 -202.170025 
L 85.880315 -202.170025 
L 85.880315 -203.077854 
L 59.896063 -203.077854 
L 59.896063 -204.355099 
L 54.699213 -204.355099 
L 54.699213 -206.074919 
L 49.502362 -206.074919 
L 49.502362 -206.074919 
L 44.305512 -206.074919 
z
"/>
    </defs>
    <g clip-path="url(#pb5912a3ad6)">
     <use xlink:href="#mfb01feb26c" x="0" y="231.150734" style="fill: #7b1fa2; fill-opacity: 0.08"/>
    </g>
   </g>
   <g id="FillBetweenPolyCollection_3">
    <defs>
     <path id="mec2d9b36f7" d="M 44.305512 -206.074919 
L 44.305512 -206.074919 
L 49.502362 -206.074919 
L 49.502362 -206.074919 
L 54.699213 -206.074919 
L 54.699213 -198.870843 
L 70.289764 -198.870843 
L 70.289764 -197.827453 
L 91.077165 -197.827453 
L 91.077165 -196.786475 
L 106.667717 -196.786475 
L 106.667717 -195.756513 
L 122.258268 -195.756513 
L 122.258268 -193.734012 
L 127.455118 -193.734012 
L 127.455118 -187.90922 
L 132.651969 -187.90922 
L 132.651969 -180.50867 
L 137.848819 -180.50867 
L 137.848819 -174.247441 
L 143.045669 -174.247441 
L 143.045669 -161.261225 
L 148.24252 -161.261225 
L 148.24252 -150.339562 
L 153.43937 -150.339562 
L 153.43937 -133.97523 
L 158.63622 -133.97523 
L 158.63622 -130.756373 
L 163.833071 -130.756373 
L 163.833071 -128.353071 
L 169.029921 -128.353071 
L 169.029921 -121.988204 
L 174.226772 -121.988204 
L 174.226772 -106.343478 
L 179.423622 -106.343478 
L 179.423622 -87.316979 
L 184.620472 -87.316979 
L 184.620472 -72.555591 
L 189.817323 -72.555591 
L 189.817323 -59.700508 
L 195.014173 -59.700508 
L 195.014173 -56.220921 
L 200.211024 -56.220921 
L 200.211024 -48.085439 
L 205.407874 -48.085439 
L 205.407874 -37.980768 
L 210.604724 -37.980768 
L 210.604724 -33.1604 
L 215.801575 -33.1604 
L 215.801575 -31.751167 
L 220.998425 -31.751167 
L 220.998425 -31.676719 
L 220.998425 -31.676719 
L 220.998425 -31.676719 
L 220.998425 -35.729469 
L 215.801575 -35.729469 
L 215.801575 -40.200276 
L 210.604724 -40.200276 
L 210.604724 -49.155084 
L 205.407874 -49.155084 
L 205.407874 -63.699593 
L 200.211024 -63.699593 
L 200.211024 -74.093828 
L 195.014173 -74.093828 
L 195.014173 -78.340905 
L 189.817323 -78.340905 
L 189.817323 -93.321143 
L 184.620472 -93.321143 
L 184.620472 -109.512303 
L 179.423622 -109.512303 
L 179.423622 -129.199698 
L 174.226772 -129.199698 
L 174.226772 -144.538846 
L 169.029921 -144.538846 
L 169.029921 -150.569901 
L 163.833071 -150.569901 
L 163.833071 -152.815361 
L 158.63622 -152.815361 
L 158.63622 -155.795077 
L 153.43937 -155.795077 
L 153.43937 -170.426614 
L 148.24252 -170.426614 
L 148.24252 -179.653555 
L 143.045669 -179.653555 
L 143.045669 -189.913096 
L 137.848819 -189.913096 
L 137.848819 -194.49558 
L 132.651969 -194.49558 
L 132.651969 -199.475555 
L 127.455118 -199.475555 
L 127.455118 -202.903287 
L 122.258268 -202.903287 
L 122.258268 -203.941414 
L 106.667717 -203.941414 
L 106.667717 -204.429177 
L 91.077165 -204.429177 
L 91.077165 -204.888867 
L 70.289764 -204.888867 
L 70.289764 -205.311323 
L 54.699213 -205.311323 
L 54.699213 -206.074919 
L 49.502362 -206.074919 
L 49.502362 -206.074919 
L 44.305512 -206.074919 
z
"/>
    </defs>
    <g clip-path="url(#pb5912a3ad6)">
     <use xlink:href="#mec2d9b36f7" x="0" y="231.150734" style="fill: #e65100; fill-opacity: 0.08"/>
    </g>
   </g>
   <g id="FillBetweenPolyCollection_4">
    <defs>
     <path id="mb3166724e0" d="M 44.305512 -206.074919 
L 44.305512 -206.074919 
L 49.502362 -206.074919 
L 49.502362 -206.074919 
L 54.699213 -206.074919 
L 54.699213 -199.137188 
L 80.683465 -199.137188 
L 80.683465 -198.011551 
L 85.880315 -198.011551 
L 85.880315 -196.844647 
L 111.864567 -196.844647 
L 111.864567 -194.529244 
L 117.061417 -194.529244 
L 117.061417 -192.268774 
L 127.455118 -192.268774 
L 127.455118 -191.158306 
L 137.848819 -191.158306 
L 137.848819 -187.89316 
L 143.045669 -187.89316 
L 143.045669 -185.762436 
L 148.24252 -185.762436 
L 148.24252 -180.558664 
L 153.43937 -180.558664 
L 153.43937 -174.488555 
L 158.63622 -174.488555 
L 158.63622 -148.55203 
L 163.833071 -148.55203 
L 163.833071 -129.051139 
L 169.029921 -129.051139 
L 169.029921 -127.229196 
L 174.226772 -127.229196 
L 174.226772 -126.320341 
L 179.423622 -126.320341 
L 179.423622 -121.796835 
L 184.620472 -121.796835 
L 184.620472 -119.099039 
L 189.817323 -119.099039 
L 189.817323 -111.077117 
L 195.014173 -111.077117 
L 195.014173 -98.807772 
L 200.211024 -98.807772 
L 200.211024 -92.100524 
L 205.407874 -92.100524 
L 205.407874 -83.355248 
L 210.604724 -83.355248 
L 210.604724 -68.960673 
L 215.801575 -68.960673 
L 215.801575 -54.284465 
L 220.998425 -54.284465 
L 220.998425 -31.676719 
L 220.998425 -31.676719 
L 220.998425 -31.676719 
L 220.998425 -75.741686 
L 215.801575 -75.741686 
L 215.801575 -92.881411 
L 210.604724 -92.881411 
L 210.604724 -107.97505 
L 205.407874 -107.97505 
L 205.407874 -116.490718 
L 200.211024 -116.490718 
L 200.211024 -123.008165 
L 195.014173 -123.008165 
L 195.014173 -135.344531 
L 189.817323 -135.344531 
L 189.817323 -143.145175 
L 184.620472 -143.145175 
L 184.620472 -145.722316 
L 179.423622 -145.722316 
L 179.423622 -149.991186 
L 174.226772 -149.991186 
L 174.226772 -150.840928 
L 169.029921 -150.840928 
L 169.029921 -152.536299 
L 163.833071 -152.536299 
L 163.833071 -169.977609 
L 158.63622 -169.977609 
L 158.63622 -190.877188 
L 153.43937 -190.877188 
L 153.43937 -195.208281 
L 148.24252 -195.208281 
L 148.24252 -198.663669 
L 143.045669 -198.663669 
L 143.045669 -199.991941 
L 137.848819 -199.991941 
L 137.848819 -201.904523 
L 127.455118 -201.904523 
L 127.455118 -202.514883 
L 117.061417 -202.514883 
L 117.061417 -203.680615 
L 111.864567 -203.680615 
L 111.864567 -204.744187 
L 85.880315 -204.744187 
L 85.880315 -205.218287 
L 80.683465 -205.218287 
L 80.683465 -205.632672 
L 54.699213 -205.632672 
L 54.699213 -206.074919 
L 49.502362 -206.074919 
L 49.502362 -206.074919 
L 44.305512 -206.074919 
z
"/>
    </defs>
    <g clip-path="url(#pb5912a3ad6)">
     <use xlink:href="#mb3166724e0" x="0" y="231.150734" style="fill: #f0a500; fill-opacity: 0.08"/>
    </g>
   </g>
   <g id="patch_3">
    <path d="M 44.305512 199.474016 
L 44.305512 16.355906 
" style="fill: none; stroke: #000000; stroke-width: 0.6; stroke-linejoin: miter; stroke-linecap: square"/>
   </g>
   <g id="patch_4">
    <path d="M 44.305512 199.474016 
L 229.833071 199.474016 
" style="fill: none; stroke: #000000; stroke-width: 0.6; stroke-linejoin: miter; stroke-linecap: square"/>
   </g>
   <g id="line2d_14">
    <path d="M 44.305512 25.075816 
L 54.699213 25.075816 
L 54.699213 32.923735 
L 59.896063 32.923735 
L 59.896063 43.415091 
L 65.092913 43.415091 
L 65.092913 72.266321 
L 70.289764 72.266321 
L 70.289764 95.871872 
L 75.486614 95.871872 
L 75.486614 115.106026 
L 80.683465 115.106026 
L 80.683465 128.657361 
L 85.880315 128.657361 
L 85.880315 144.394395 
L 91.077165 144.394395 
L 91.077165 155.760031 
L 96.274016 155.760031 
L 96.274016 163.191409 
L 101.470866 163.191409 
L 101.470866 168.874227 
L 106.667717 168.874227 
L 106.667717 174.557045 
L 111.864567 174.557045 
L 111.864567 184.174121 
L 117.061417 184.174121 
L 117.061417 191.168359 
L 122.258268 191.168359 
L 122.258268 194.665477 
L 127.455118 194.665477 
L 127.455118 197.725456 
L 137.848819 197.725456 
L 137.848819 199.474016 
" clip-path="url(#pb5912a3ad6)" style="fill: none; stroke: #1a237e; stroke-width: 1.4; stroke-linecap: square"/>
   </g>
   <g id="line2d_15">
    <path d="M 44.305512 25.075816 
L 49.502362 25.075816 
L 49.502362 25.075816 
L 54.699213 25.075816 
L 54.699213 28.880867 
L 59.896063 28.880867 
L 59.896063 30.790492 
L 85.880315 30.790492 
L 85.880315 32.063575 
L 91.077165 32.063575 
L 91.077165 33.9732 
L 96.274016 33.9732 
L 96.274016 35.882825 
L 101.470866 35.882825 
L 101.470866 42.248241 
L 106.667717 42.248241 
L 106.667717 48.613657 
L 111.864567 48.613657 
L 111.864567 59.434864 
L 117.061417 59.434864 
L 117.061417 75.984946 
L 122.258268 75.984946 
L 122.258268 95.081193 
L 127.455118 95.081193 
L 127.455118 109.085109 
L 132.651969 109.085109 
L 132.651969 118.633233 
L 137.848819 118.633233 
L 137.848819 129.45444 
L 143.045669 129.45444 
L 143.045669 142.821813 
L 148.24252 142.821813 
L 148.24252 153.006479 
L 153.43937 153.006479 
L 153.43937 164.464228 
L 158.63622 164.464228 
L 158.63622 170.193102 
L 163.833071 170.193102 
L 163.833071 174.648893 
L 169.029921 174.648893 
L 169.029921 175.921977 
L 174.226772 175.921977 
L 174.226772 186.106642 
L 179.423622 186.106642 
L 179.423622 191.198975 
L 184.620472 191.198975 
L 184.620472 195.018225 
L 189.817323 195.018225 
L 189.817323 198.200933 
L 195.014173 198.200933 
L 195.014173 199.474016 
" clip-path="url(#pb5912a3ad6)" style="fill: none; stroke: #7b1fa2; stroke-width: 1.4; stroke-linecap: square"/>
   </g>
   <g id="line2d_16">
    <path d="M 44.305512 25.075816 
L 49.502362 25.075816 
L 49.502362 25.075816 
L 54.699213 25.075816 
L 54.699213 27.432548 
L 70.289764 27.432548 
L 70.289764 28.218125 
L 91.077165 28.218125 
L 91.077165 29.003703 
L 106.667717 29.003703 
L 106.667717 29.78928 
L 122.258268 29.78928 
L 122.258268 31.360435 
L 127.455118 31.360435 
L 127.455118 36.0739 
L 132.651969 36.0739 
L 132.651969 42.35852 
L 137.848819 42.35852 
L 137.848819 47.857562 
L 143.045669 47.857562 
L 143.045669 59.641225 
L 148.24252 59.641225 
L 148.24252 69.853732 
L 153.43937 69.853732 
L 153.43937 85.565281 
L 158.63622 85.565281 
L 158.63622 88.707591 
L 163.833071 88.707591 
L 163.833071 91.064324 
L 169.029921 91.064324 
L 169.029921 97.348944 
L 174.226772 97.348944 
L 174.226772 113.060493 
L 179.423622 113.060493 
L 179.423622 132.69993 
L 184.620472 132.69993 
L 184.620472 148.41148 
L 189.817323 148.41148 
L 189.817323 162.551874 
L 195.014173 162.551874 
L 195.014173 166.479762 
L 200.211024 166.479762 
L 200.211024 175.906691 
L 205.407874 175.906691 
L 205.407874 188.475931 
L 210.604724 188.475931 
L 210.604724 195.546128 
L 215.801575 195.546128 
L 215.801575 198.688438 
L 220.998425 198.688438 
L 220.998425 199.474016 
" clip-path="url(#pb5912a3ad6)" style="fill: none; stroke: #e65100; stroke-width: 1.4; stroke-linecap: square"/>
   </g>
   <g id="line2d_17">
    <path d="M 44.305512 25.075816 
L 49.502362 25.075816 
L 49.502362 25.075816 
L 54.699213 25.075816 
L 54.699213 26.837414 
L 80.683465 26.837414 
L 80.683465 27.718212 
L 85.880315 27.718212 
L 85.880315 28.599011 
L 111.864567 28.599011 
L 111.864567 30.360609 
L 117.061417 30.360609 
L 117.061417 32.122207 
L 127.455118 32.122207 
L 127.455118 33.003006 
L 137.848819 33.003006 
L 137.848819 35.645403 
L 143.045669 35.645403 
L 143.045669 37.407001 
L 148.24252 37.407001 
L 148.24252 41.810996 
L 153.43937 41.810996 
L 153.43937 47.09579 
L 158.63622 47.09579 
L 158.63622 70.877363 
L 163.833071 70.877363 
L 163.833071 89.631042 
L 169.029921 89.631042 
L 169.029921 91.417106 
L 174.226772 91.417106 
L 174.226772 92.310139 
L 179.423622 92.310139 
L 179.423622 96.7753 
L 184.620472 96.7753 
L 184.620472 99.454397 
L 189.817323 99.454397 
L 189.817323 107.491688 
L 195.014173 107.491688 
L 195.014173 119.99414 
L 200.211024 119.99414 
L 200.211024 126.710749 
L 205.407874 126.710749 
L 205.407874 135.492523 
L 210.604724 135.492523 
L 210.604724 150.546992 
L 215.801575 150.546992 
L 215.801575 166.856 
L 220.998425 166.856 
L 220.998425 199.474016 
" clip-path="url(#pb5912a3ad6)" style="fill: none; stroke: #f0a500; stroke-width: 1.4; stroke-linecap: square"/>
   </g>
   <g id="text_15">
    <!-- $\tau_{50}$ -->
    <g style="fill: #808080" transform="translate(51.726614 102.563223)">
     <text>
      <tspan x="0" y="-0.078125" style="font-style: oblique; font-size: 8.5px; font-family: 'DejaVu Sans'; fill: #808080">τ</tspan>
      <tspan x="5.117432" y="1.398438" style="font-size: 5.95px; font-family: 'DejaVu Sans'; fill: #808080">5</tspan>
      <tspan x="8.903003" y="1.398438" style="font-size: 5.95px; font-family: 'DejaVu Sans'; fill: #808080">0</tspan>
     </text>
    </g>
   </g>
   <g id="text_16">
    <text style="font-weight: 700; font-size: 12px; font-family: 'Arial', 'Helvetica', 'DejaVu Sans', sans-serif; text-anchor: start" x="7.2" y="15.789375" transform="rotate(-0 7.2 15.789375)">I</text>
   </g>
   <g id="line2d_18">
    <defs>
     <path id="mb46f600523" d="M 0 2.25 
C 0.596707 2.25 1.169055 2.012926 1.59099 1.59099 
C 2.012926 1.169055 2.25 0.596707 2.25 0 
C 2.25 -0.596707 2.012926 -1.169055 1.59099 -1.59099 
C 1.169055 -2.012926 0.596707 -2.25 0 -2.25 
C -0.596707 -2.25 -1.169055 -2.012926 -1.59099 -1.59099 
C -2.012926 -1.169055 -2.25 -0.596707 -2.25 0 
C -2.25 0.596707 -2.012926 1.169055 -1.59099 1.59099 
C -1.169055 2.012926 -0.596707 2.25 0 2.25 
z
" style="stroke: #ffffff; stroke-width: 0.4"/>
    </defs>
    <g clip-path="url(#pb5912a3ad6)">
     <use xlink:href="#mb46f600523" x="75.486614" y="112.274916" style="fill: #1a237e; stroke: #ffffff; stroke-width: 0.4"/>
    </g>
   </g>
   <g id="line2d_19">
    <defs>
     <path id="m802320d4c6" d="M 0 2.25 
C 0.596707 2.25 1.169055 2.012926 1.59099 1.59099 
C 2.012926 1.169055 2.25 0.596707 2.25 0 
C 2.25 -0.596707 2.012926 -1.169055 1.59099 -1.59099 
C 1.169055 -2.012926 0.596707 -2.25 0 -2.25 
C -0.596707 -2.25 -1.169055 -2.012926 -1.59099 -1.59099 
C -2.012926 -1.169055 -2.25 -0.596707 -2.25 0 
C -2.25 0.596707 -2.012926 1.169055 -1.59099 1.59099 
C -1.169055 2.012926 -0.596707 2.25 0 2.25 
z
" style="stroke: #ffffff; stroke-width: 0.4"/>
    </defs>
    <g clip-path="url(#pb5912a3ad6)">
     <use xlink:href="#m802320d4c6" x="132.651969" y="112.274916" style="fill: #7b1fa2; stroke: #ffffff; stroke-width: 0.4"/>
    </g>
   </g>
   <g id="line2d_20">
    <defs>
     <path id="m0ca845236e" d="M 0 2.25 
C 0.596707 2.25 1.169055 2.012926 1.59099 1.59099 
C 2.012926 1.169055 2.25 0.596707 2.25 0 
C 2.25 -0.596707 2.012926 -1.169055 1.59099 -1.59099 
C 1.169055 -2.012926 0.596707 -2.25 0 -2.25 
C -0.596707 -2.25 -1.169055 -2.012926 -1.59099 -1.59099 
C -2.012926 -1.169055 -2.25 -0.596707 -2.25 0 
C -2.25 0.596707 -2.012926 1.169055 -1.59099 1.59099 
C -1.169055 2.012926 -0.596707 2.25 0 2.25 
z
" style="stroke: #ffffff; stroke-width: 0.4"/>
    </defs>
    <g clip-path="url(#pb5912a3ad6)">
     <use xlink:href="#m0ca845236e" x="174.226772" y="112.274916" style="fill: #e65100; stroke: #ffffff; stroke-width: 0.4"/>
    </g>
   </g>
   <g id="line2d_21">
    <defs>
     <path id="m10516a2525" d="M 0 2.25 
C 0.596707 2.25 1.169055 2.012926 1.59099 1.59099 
C 2.012926 1.169055 2.25 0.596707 2.25 0 
C 2.25 -0.596707 2.012926 -1.169055 1.59099 -1.59099 
C 1.169055 -2.012926 0.596707 -2.25 0 -2.25 
C -0.596707 -2.25 -1.169055 -2.012926 -1.59099 -1.59099 
C -2.012926 -1.169055 -2.25 -0.596707 -2.25 0 
C -2.25 0.596707 -2.012926 1.169055 -1.59099 1.59099 
C -1.169055 2.012926 -0.596707 2.25 0 2.25 
z
" style="stroke: #ffffff; stroke-width: 0.4"/>
    </defs>
    <g clip-path="url(#pb5912a3ad6)">
     <use xlink:href="#m10516a2525" x="195.014173" y="112.274916" style="fill: #f0a500; stroke: #ffffff; stroke-width: 0.4"/>
    </g>
   </g>
   <g id="legend_1">
    <g id="patch_5">
     <path d="M 162.576352 61.028171 
L 225.283071 61.028171 
Q 226.583071 61.028171 226.583071 59.728171 
L 226.583071 20.905906 
Q 226.583071 19.605906 225.283071 19.605906 
L 162.576352 19.605906 
Q 161.276352 19.605906 161.276352 20.905906 
L 161.276352 59.728171 
Q 161.276352 61.028171 162.576352 61.028171 
L 162.576352 61.028171 
z
" style="fill: none; opacity: 0"/>
    </g>
    <g id="text_17">
     <text style="font-size: 6.5px; font-family: 'Arial', 'Helvetica', 'DejaVu Sans', sans-serif; text-anchor: start" x="163.226352" y="26.208484" transform="rotate(-0 163.226352 26.208484)">Distance from source</text>
    </g>
    <g id="line2d_22">
     <path d="M 175.620024 31.827937 
L 182.120024 31.827937 
L 182.120024 31.827937 
L 188.620024 31.827937 
L 188.620024 31.827937 
" style="fill: none; stroke: #1a237e; stroke-width: 1.4; stroke-linecap: square"/>
    </g>
    <g id="text_18">
     <text style="font-size: 6.5px; font-family: 'Arial', 'Helvetica', 'DejaVu Sans', sans-serif; text-anchor: start" x="190.570024" y="34.102937" transform="rotate(-0 190.570024 34.102937)">0.9 mm</text>
    </g>
    <g id="line2d_23">
     <path d="M 175.620024 39.72239 
L 182.120024 39.72239 
L 182.120024 39.72239 
L 188.620024 39.72239 
L 188.620024 39.72239 
" style="fill: none; stroke: #7b1fa2; stroke-width: 1.4; stroke-linecap: square"/>
    </g>
    <g id="text_19">
     <text style="font-size: 6.5px; font-family: 'Arial', 'Helvetica', 'DejaVu Sans', sans-serif; text-anchor: start" x="190.570024" y="41.99739" transform="rotate(-0 190.570024 41.99739)">1.5 mm</text>
    </g>
    <g id="line2d_24">
     <path d="M 175.620024 47.616843 
L 182.120024 47.616843 
L 182.120024 47.616843 
L 188.620024 47.616843 
L 188.620024 47.616843 
" style="fill: none; stroke: #e65100; stroke-width: 1.4; stroke-linecap: square"/>
    </g>
    <g id="text_20">
     <text style="font-size: 6.5px; font-family: 'Arial', 'Helvetica', 'DejaVu Sans', sans-serif; text-anchor: start" x="190.570024" y="49.891843" transform="rotate(-0 190.570024 49.891843)">2.1 mm</text>
    </g>
    <g id="line2d_25">
     <path d="M 175.620024 55.511296 
L 182.120024 55.511296 
L 182.120024 55.511296 
L 188.620024 55.511296 
L 188.620024 55.511296 
" style="fill: none; stroke: #f0a500; stroke-width: 1.4; stroke-linecap: square"/>
    </g>
    <g id="text_21">
     <text style="font-size: 6.5px; font-family: 'Arial', 'Helvetica', 'DejaVu Sans', sans-serif; text-anchor: start" x="190.570024" y="57.786296" transform="rotate(-0 190.570024 57.786296)">2.9 mm</text>
    </g>
   </g>
  </g>
 </g>
 <defs>
  <clipPath id="pb5912a3ad6">
   <rect x="44.305512" y="16.355906" width="185.527559" height="183.11811"/>
  </clipPath>
 </defs>
</svg>
