<?xml version="1.0" encoding="utf-8" standalone="no"?>
<!DOCTYPE svg PUBLIC "-//W3C//DTD SVG 1.1//EN"
  "http://www.w3.org/Graphics/SVG/1.1/DTD/svg11.dtd">
<svg xmlns:xlink="http://www.w3.org/1999/xlink" width="230.745766pt" height="231.320734pt" viewBox="0 0 230.745766 231.320734" xmlns="http://www.w3.org/2000/svg" version="1.1">
 <metadata>
  <rdf:RDF xmlns:dc="http://purl.org/dc/elements/1.1/" xmlns:cc="http://creativecommons.org/ns#" xmlns:rdf="http://www.w3.org/1999/02/22-rdf-syntax-ns#">
   <cc:Work>
    <dc:type rdf:resource="http://purl.org/dc/dcmitype/StillImage"/>
    <dc:date>2026-04-02T17:58:00.878844</dc:date>
    <dc:format>image/svg+xml</dc:format>
    <dc:creator>
     <cc:Agent>
      <dc:title>Matplotlib v3.10.8, https://matplotlib.org/</dc:title>
     </cc:Agent>
    </dc:creator>
   </cc:Work>
  </rdf:RDF>
 </metadata>
 <defs>
  <style type="text/css">*{stroke-linejoin: round; stroke-linecap: butt}</style>
 </defs>
 <g id="figure_1">
  <g id="patch_1">
   <path d="M 0 231.320734 
L 230.745766 231.320734 
L 230.745766 0 
L 0 0 
z
" style="fill: #ffffff"/>
  </g>
  <g id="axes_1">
   <g id="patch_2">
    <path d="M 40.427656 199.474016 
L 223.545766 199.474016 
L 223.545766 16.355906 
L 40.427656 16.355906 
z
" style="fill: #ffffff"/>
   </g>
   <g id="matplotlib.axis_1">
    <g id="xtick_1">
     <g id="line2d_1">
      <defs>
       <path id="m5c0cb3b9ae" d="M 0 0 
L 0 3.5 
" style="stroke: #000000; stroke-width: 0.6"/>
      </defs>
      <g>
       <use xlink:href="#m5c0cb3b9ae" x="40.427656" y="199.474016" style="stroke: #000000; stroke-width: 0.6"/>
      </g>
     </g>
     <g id="text_1">
      <text style="font-size: 7px; font-family: 'Arial', 'Helvetica', 'DejaVu Sans', sans-serif; text-anchor: middle" x="40.427656" y="211.484484" transform="rotate(-0 40.427656 211.484484)">0</text>
     </g>
    </g>
    <g id="xtick_2">
     <g id="line2d_2">
      <g>
       <use xlink:href="#m5c0cb3b9ae" x="73.721858" y="199.474016" style="stroke: #000000; stroke-width: 0.6"/>
      </g>
     </g>
     <g id="text_2">
      <text style="font-size: 7px; font-family: 'Arial', 'Helvetica', 'DejaVu Sans', sans-serif; text-anchor: middle" x="73.721858" y="211.484484" transform="rotate(-0 73.721858 211.484484)">200</text>
     </g>
    </g>
    <g id="xtick_3">
     <g id="line2d_3">
      <g>
       <use xlink:href="#m5c0cb3b9ae" x="107.01606" y="199.474016" style="stroke: #000000; stroke-width: 0.6"/>
      </g>
     </g>
     <g id="text_3">
      <text style="font-size: 7px; font-family: 'Arial', 'Helvetica', 'DejaVu Sans', sans-serif; text-anchor: middle" x="107.01606" y="211.484484" transform="rotate(-0 107.01606 211.484484)">400</text>
     </g>
    </g>
    <g id="xtick_4">
     <g id="line2d_4">
      <g>
       <use xlink:href="#m5c0cb3b9ae" x="140.310262" y="199.474016" style="stroke: #000000; stroke-width: 0.6"/>
      </g>
     </g>
     <g id="text_4">
      <text style="font-size: 7px; font-family: 'Arial', 'Helvetica', 'DejaVu Sans', sans-serif; text-anchor: middle" x="140.310262" y="211.484484" transform="rotate(-0 140.310262 211.484484)">600</text>
     </g>
    </g>
    <g id="xtick_5">
     <g id="line2d_5">
      <g>
       <use xlink:href="#m5c0cb3b9ae" x="173.604464" y="199.474016" style="stroke: #000000; stroke-width: 0.6"/>
      </g>
     </g>
     <g id="text_5">
      <text style="font-size: 7px; font-family: 'Arial', 'Helvetica', 'DejaVu Sans', sans-serif; text-anchor: middle" x="173.604464" y="211.484484" transform="rotate(-0 173.604464 211.484484)">800</text>
     </g>
    </g>
    <g id="xtick_6">
     <g id="line2d_6">
      <g>
       <use xlink:href="#m5c0cb3b9ae" x="206.898666" y="199.474016" style="stroke: #000000; stroke-width: 0.6"/>
      </g>
     </g>
     <g id="text_6">
      <text style="font-size: 7px; font-family: 'Arial', 'Helvetica', 'DejaVu Sans', sans-serif; text-anchor: middle" x="206.898666" y="211.484484" transform="rotate(-0 206.898666 211.484484)">1000</text>
     </g>
    </g>
    <g id="text_7">
     <!-- $\delta$ (µm) -->
     <g transform="translate(119.364211 222.250734)">
      <text>
       <tspan x="0" y="-0.3125" style="font-style: oblique; font-size: 8.5px; font-family: 'DejaVu Sans'">δ</tspan>
       <tspan x="5.200439" y="-0.3125" style="font-size: 8.5px; font-family: 'Arial'"> </tspan>
       <tspan x="7.562012" y="-0.3125" style="font-size: 8.5px; font-family: 'Arial'">(</tspan>
       <tspan x="10.392578" y="-0.3125" style="font-size: 8.5px; font-family: 'Arial'">µ</tspan>
       <tspan x="15.290039" y="-0.3125" style="font-size: 8.5px; font-family: 'Arial'">m</tspan>
       <tspan x="22.370605" y="-0.3125" style="font-size: 8.5px; font-family: 'Arial'">)</tspan>
      </text>
     </g>
    </g>
   </g>
   <g id="matplotlib.axis_2">
    <g id="ytick_1">
     <g id="line2d_7">
      <defs>
       <path id="m713971a872" d="M 0 0 
L -3.5 0 
" style="stroke: #000000; stroke-width: 0.6"/>
      </defs>
      <g>
       <use xlink:href="#m713971a872" x="40.427656" y="187.880672" style="stroke: #000000; stroke-width: 0.6"/>
      </g>
     </g>
     <g id="text_8">
      <text style="font-size: 7px; font-family: 'Arial', 'Helvetica', 'DejaVu Sans', sans-serif; text-anchor: end" x="33.427656" y="190.385907" transform="rotate(-0 33.427656 190.385907)">0.00</text>
     </g>
    </g>
    <g id="ytick_2">
     <g id="line2d_8">
      <g>
       <use xlink:href="#m713971a872" x="40.427656" y="165.329106" style="stroke: #000000; stroke-width: 0.6"/>
      </g>
     </g>
     <g id="text_9">
      <text style="font-size: 7px; font-family: 'Arial', 'Helvetica', 'DejaVu Sans', sans-serif; text-anchor: end" x="33.427656" y="167.83434" transform="rotate(-0 33.427656 167.83434)">0.25</text>
     </g>
    </g>
    <g id="ytick_3">
     <g id="line2d_9">
      <g>
       <use xlink:href="#m713971a872" x="40.427656" y="142.77754" style="stroke: #000000; stroke-width: 0.6"/>
      </g>
     </g>
     <g id="text_10">
      <text style="font-size: 7px; font-family: 'Arial', 'Helvetica', 'DejaVu Sans', sans-serif; text-anchor: end" x="33.427656" y="145.282774" transform="rotate(-0 33.427656 145.282774)">0.50</text>
     </g>
    </g>
    <g id="ytick_4">
     <g id="line2d_10">
      <g>
       <use xlink:href="#m713971a872" x="40.427656" y="120.225974" style="stroke: #000000; stroke-width: 0.6"/>
      </g>
     </g>
     <g id="text_11">
      <text style="font-size: 7px; font-family: 'Arial', 'Helvetica', 'DejaVu Sans', sans-serif; text-anchor: end" x="33.427656" y="122.731208" transform="rotate(-0 33.427656 122.731208)">0.75</text>
     </g>
    </g>
    <g id="ytick_5">
     <g id="line2d_11">
      <g>
       <use xlink:href="#m713971a872" x="40.427656" y="97.674408" style="stroke: #000000; stroke-width: 0.6"/>
      </g>
     </g>
     <g id="text_12">
      <text style="font-size: 7px; font-family: 'Arial', 'Helvetica', 'DejaVu Sans', sans-serif; text-anchor: end" x="33.427656" y="100.179642" transform="rotate(-0 33.427656 100.179642)">1.00</text>
     </g>
    </g>
    <g id="ytick_6">
     <g id="line2d_12">
      <g>
       <use xlink:href="#m713971a872" x="40.427656" y="75.122841" style="stroke: #000000; stroke-width: 0.6"/>
      </g>
     </g>
     <g id="text_13">
      <text style="font-size: 7px; font-family: 'Arial', 'Helvetica', 'DejaVu Sans', sans-serif; text-anchor: end" x="33.427656" y="77.628076" transform="rotate(-0 33.427656 77.628076)">1.25</text>
     </g>
    </g>
    <g id="ytick_7">
     <g id="line2d_13">
      <g>
       <use xlink:href="#m713971a872" x="40.427656" y="52.571275" style="stroke: #000000; stroke-width: 0.6"/>
      </g>
     </g>
     <g id="text_14">
      <text style="font-size: 7px; font-family: 'Arial', 'Helvetica', 'DejaVu Sans', sans-serif; text-anchor: end" x="33.427656" y="55.07651" transform="rotate(-0 33.427656 55.07651)">1.50</text>
     </g>
    </g>
    <g id="ytick_8">
     <g id="line2d_14">
      <g>
       <use xlink:href="#m713971a872" x="40.427656" y="30.019709" style="stroke: #000000; stroke-width: 0.6"/>
      </g>
     </g>
     <g id="text_15">
      <text style="font-size: 7px; font-family: 'Arial', 'Helvetica', 'DejaVu Sans', sans-serif; text-anchor: end" x="33.427656" y="32.524944" transform="rotate(-0 33.427656 32.524944)">1.75</text>
     </g>
    </g>
    <g id="text_16">
     <!-- $d^*$ (mm) -->
     <g transform="translate(14.935 124.787461) rotate(-90)">
      <text>
       <tspan x="0" y="-0.873438" style="font-style: oblique; font-size: 8.5px; font-family: 'DejaVu Sans'">d</tspan>
       <tspan x="7.225728" y="-4.31875" style="font-size: 5.95px; font-family: 'DejaVu Sans'">*</tspan>
       <tspan x="11.606025" y="-0.873438" style="font-size: 8.5px; font-family: 'Arial'"> </tspan>
       <tspan x="13.967598" y="-0.873438" style="font-size: 8.5px; font-family: 'Arial'">(</tspan>
       <tspan x="16.798164" y="-0.873438" style="font-size: 8.5px; font-family: 'Arial'">m</tspan>
       <tspan x="23.87873" y="-0.873438" style="font-size: 8.5px; font-family: 'Arial'">m</tspan>
       <tspan x="30.959297" y="-0.873438" style="font-size: 8.5px; font-family: 'Arial'">)</tspan>
      </text>
     </g>
    </g>
   </g>
   <g id="line2d_15">
    <path d="M 40.427656 191.150465 
L 42.277334 189.46894 
L 44.127012 187.787415 
L 45.97669 186.105889 
L 47.826368 184.424364 
L 49.676046 182.742839 
L 51.525724 181.061313 
L 53.375401 179.379788 
L 55.225079 177.698263 
L 57.074757 176.016737 
L 58.924435 174.335212 
L 60.774113 172.653686 
L 62.623791 170.972161 
L 64.473469 169.290636 
L 66.323147 167.60911 
L 68.172824 165.927585 
L 70.022502 164.24606 
L 71.87218 162.564534 
L 73.721858 160.883009 
L 75.571536 159.201484 
L 77.421214 157.519958 
L 79.270892 155.838433 
L 81.12057 154.156908 
L 82.970248 152.475382 
L 84.819925 150.793857 
L 86.669603 149.112332 
L 88.519281 147.430806 
L 90.368959 145.749281 
L 92.218637 144.067756 
L 94.068315 142.38623 
L 95.917993 140.704705 
L 97.767671 139.02318 
L 99.617348 137.341654 
L 101.467026 135.660129 
L 103.316704 133.978604 
L 105.166382 132.297078 
L 107.01606 130.615553 
L 108.865738 128.934027 
L 110.715416 127.252502 
L 112.565094 125.570977 
L 114.414771 123.889451 
L 116.264449 122.207926 
L 118.114127 120.526401 
L 119.963805 118.844875 
L 121.813483 117.16335 
L 123.663161 115.481825 
L 125.512839 113.800299 
L 127.362517 112.118774 
L 129.212195 110.437249 
L 131.061872 108.755723 
L 132.91155 107.074198 
L 134.761228 105.392673 
L 136.610906 103.711147 
L 138.460584 102.029622 
L 140.310262 100.348097 
L 142.15994 98.666571 
L 144.009618 96.985046 
L 145.859295 95.303521 
L 147.708973 93.621995 
L 149.558651 91.94047 
L 151.408329 90.258944 
L 153.258007 88.577419 
L 155.107685 86.895894 
L 156.957363 85.214368 
L 158.807041 83.532843 
L 160.656719 81.851318 
L 162.506396 80.169792 
L 164.356074 78.488267 
L 166.205752 76.806742 
L 168.05543 75.125216 
L 169.905108 73.443691 
L 171.754786 71.762166 
L 173.604464 70.08064 
L 175.454142 68.399115 
L 177.303819 66.71759 
L 179.153497 65.036064 
L 181.003175 63.354539 
L 182.852853 61.673014 
L 184.702531 59.991488 
L 186.552209 58.309963 
L 188.401887 56.628438 
L 190.251565 54.946912 
L 192.101243 53.265387 
L 193.95092 51.583862 
L 195.800598 49.902336 
L 197.650276 48.220811 
L 199.499954 46.539285 
L 201.349632 44.85776 
L 203.19931 43.176235 
L 205.048988 41.494709 
L 206.898666 39.813184 
L 208.748343 38.131659 
L 210.598021 36.450133 
L 212.447699 34.768608 
L 214.297377 33.087083 
L 216.147055 31.405557 
L 217.996733 29.724032 
L 219.846411 28.042507 
L 221.696089 26.360981 
L 223.545766 24.679456 
" clip-path="url(#pc6202ae076)" style="fill: none; stroke-dasharray: 4.44,1.92; stroke-dashoffset: 0; stroke: #000000; stroke-opacity: 0.7; stroke-width: 1.2"/>
   </g>
   <g id="line2d_16">
    <path d="M 40.427656 187.880672 
L 223.545766 187.880672 
" clip-path="url(#pc6202ae076)" style="fill: none; stroke-dasharray: 0.5,0.825; stroke-dashoffset: 0; stroke: #808080; stroke-opacity: 0.5; stroke-width: 0.5"/>
   </g>
   <g id="patch_3">
    <path d="M 40.427656 199.474016 
L 40.427656 16.355906 
" style="fill: none; stroke: #000000; stroke-width: 0.6; stroke-linejoin: miter; stroke-linecap: square"/>
   </g>
   <g id="patch_4">
    <path d="M 40.427656 199.474016 
L 223.545766 199.474016 
" style="fill: none; stroke: #000000; stroke-width: 0.6; stroke-linejoin: miter; stroke-linecap: square"/>
   </g>
   <g id="PathCollection_1">
    <defs>
     <path id="me105d6f134" d="M 0 2.95804 
C 0.784481 2.95804 1.536938 2.646362 2.09165 2.09165 
C 2.646362 1.536938 2.95804 0.784481 2.95804 0 
C 2.95804 -0.784481 2.646362 -1.536938 2.09165 -2.09165 
C 1.536938 -2.646362 0.784481 -2.95804 0 -2.95804 
C -0.784481 -2.95804 -1.536938 -2.646362 -2.09165 -2.09165 
C -2.646362 -1.536938 -2.95804 -0.784481 -2.95804 0 
C -2.95804 0.784481 -2.646362 1.536938 -2.09165 2.09165 
C -1.536938 2.646362 -0.784481 2.95804 0 2.95804 
z
" style="stroke: #ffffff; stroke-opacity: 0.65; stroke-width: 0.4"/>
    </defs>
    <g clip-path="url(#pc6202ae076)">
     <use xlink:href="#me105d6f134" x="54.291216" y="187.880672" style="fill: #3a9e6f; fill-opacity: 0.65; stroke: #ffffff; stroke-opacity: 0.65; stroke-width: 0.4"/>
    </g>
   </g>
   <g id="PathCollection_2">
    <g clip-path="url(#pc6202ae076)">
     <use xlink:href="#me105d6f134" x="55.606078" y="187.880672" style="fill: #3a9e6f; fill-opacity: 0.65; stroke: #ffffff; stroke-opacity: 0.65; stroke-width: 0.4"/>
    </g>
   </g>
   <g id="PathCollection_3">
    <g clip-path="url(#pc6202ae076)">
     <use xlink:href="#me105d6f134" x="68.839589" y="187.880672" style="fill: #3a9e6f; fill-opacity: 0.65; stroke: #ffffff; stroke-opacity: 0.65; stroke-width: 0.4"/>
    </g>
   </g>
   <g id="PathCollection_4">
    <g clip-path="url(#pc6202ae076)">
     <use xlink:href="#me105d6f134" x="57.748525" y="187.880672" style="fill: #3a9e6f; fill-opacity: 0.65; stroke: #ffffff; stroke-opacity: 0.65; stroke-width: 0.4"/>
    </g>
   </g>
   <g id="PathCollection_5">
    <g clip-path="url(#pc6202ae076)">
     <use xlink:href="#me105d6f134" x="55.989957" y="187.880672" style="fill: #3a9e6f; fill-opacity: 0.65; stroke: #ffffff; stroke-opacity: 0.65; stroke-width: 0.4"/>
    </g>
   </g>
   <g id="PathCollection_6">
    <defs>
     <path id="mfe99963653" d="M 0 2.95804 
C 0.784481 2.95804 1.536938 2.646362 2.09165 2.09165 
C 2.646362 1.536938 2.95804 0.784481 2.95804 0 
C 2.95804 -0.784481 2.646362 -1.536938 2.09165 -2.09165 
C 1.536938 -2.646362 0.784481 -2.95804 0 -2.95804 
C -0.784481 -2.95804 -1.536938 -2.646362 -2.09165 -2.09165 
C -2.646362 -1.536938 -2.95804 -0.784481 -2.95804 0 
C -2.95804 0.784481 -2.646362 1.536938 -2.09165 2.09165 
C -1.536938 2.646362 -0.784481 2.95804 0 2.95804 
z
" style="stroke: #ffffff; stroke-opacity: 0.65; stroke-width: 0.4"/>
    </defs>
    <g clip-path="url(#pc6202ae076)">
     <use xlink:href="#mfe99963653" x="98.161874" y="134.739282" style="fill: #e67e22; fill-opacity: 0.65; stroke: #ffffff; stroke-opacity: 0.65; stroke-width: 0.4"/>
    </g>
   </g>
   <g id="PathCollection_7">
    <g clip-path="url(#pc6202ae076)">
     <use xlink:href="#mfe99963653" x="79.968316" y="137.8227" style="fill: #e67e22; fill-opacity: 0.65; stroke: #ffffff; stroke-opacity: 0.65; stroke-width: 0.4"/>
    </g>
   </g>
   <g id="PathCollection_8">
    <g clip-path="url(#pc6202ae076)">
     <use xlink:href="#mfe99963653" x="80.817067" y="152.574164" style="fill: #e67e22; fill-opacity: 0.65; stroke: #ffffff; stroke-opacity: 0.65; stroke-width: 0.4"/>
    </g>
   </g>
   <g id="PathCollection_9">
    <g clip-path="url(#pc6202ae076)">
     <use xlink:href="#mfe99963653" x="80.357771" y="148.93335" style="fill: #e67e22; fill-opacity: 0.65; stroke: #ffffff; stroke-opacity: 0.65; stroke-width: 0.4"/>
    </g>
   </g>
   <g id="PathCollection_10">
    <g clip-path="url(#pc6202ae076)">
     <use xlink:href="#mfe99963653" x="93.183604" y="134.902028" style="fill: #e67e22; fill-opacity: 0.65; stroke: #ffffff; stroke-opacity: 0.65; stroke-width: 0.4"/>
    </g>
   </g>
   <g id="PathCollection_11">
    <defs>
     <path id="m9b85dc7b44" d="M 0 2.95804 
C 0.784481 2.95804 1.536938 2.646362 2.09165 2.09165 
C 2.646362 1.536938 2.95804 0.784481 2.95804 0 
C 2.95804 -0.784481 2.646362 -1.536938 2.09165 -2.09165 
C 1.536938 -2.646362 0.784481 -2.95804 0 -2.95804 
C -0.784481 -2.95804 -1.536938 -2.646362 -2.09165 -2.09165 
C -2.646362 -1.536938 -2.95804 -0.784481 -2.95804 0 
C -2.95804 0.784481 -2.646362 1.536938 -2.09165 2.09165 
C -1.536938 2.646362 -0.784481 2.95804 0 2.95804 
z
" style="stroke: #ffffff; stroke-opacity: 0.65; stroke-width: 0.4"/>
    </defs>
    <g clip-path="url(#pc6202ae076)">
     <use xlink:href="#m9b85dc7b44" x="109.998548" y="109.566409" style="fill: #5b8fc9; fill-opacity: 0.65; stroke: #ffffff; stroke-opacity: 0.65; stroke-width: 0.4"/>
    </g>
   </g>
   <g id="PathCollection_12">
    <g clip-path="url(#pc6202ae076)">
     <use xlink:href="#m9b85dc7b44" x="89.559127" y="130.793683" style="fill: #5b8fc9; fill-opacity: 0.65; stroke: #ffffff; stroke-opacity: 0.65; stroke-width: 0.4"/>
    </g>
   </g>
   <g id="PathCollection_13">
    <g clip-path="url(#pc6202ae076)">
     <use xlink:href="#m9b85dc7b44" x="110.841115" y="119.403419" style="fill: #5b8fc9; fill-opacity: 0.65; stroke: #ffffff; stroke-opacity: 0.65; stroke-width: 0.4"/>
    </g>
   </g>
   <g id="PathCollection_14">
    <g clip-path="url(#pc6202ae076)">
     <use xlink:href="#m9b85dc7b44" x="102.047771" y="134.552854" style="fill: #5b8fc9; fill-opacity: 0.65; stroke: #ffffff; stroke-opacity: 0.65; stroke-width: 0.4"/>
    </g>
   </g>
   <g id="PathCollection_15">
    <g clip-path="url(#pc6202ae076)">
     <use xlink:href="#m9b85dc7b44" x="117.265394" y="118.654393" style="fill: #5b8fc9; fill-opacity: 0.65; stroke: #ffffff; stroke-opacity: 0.65; stroke-width: 0.4"/>
    </g>
   </g>
   <g id="PathCollection_16">
    <defs>
     <path id="m5f66bffabe" d="M 0 2.95804 
C 0.784481 2.95804 1.536938 2.646362 2.09165 2.09165 
C 2.646362 1.536938 2.95804 0.784481 2.95804 0 
C 2.95804 -0.784481 2.646362 -1.536938 2.09165 -2.09165 
C 1.536938 -2.646362 0.784481 -2.95804 0 -2.95804 
C -0.784481 -2.95804 -1.536938 -2.646362 -2.09165 -2.09165 
C -2.646362 -1.536938 -2.95804 -0.784481 -2.95804 0 
C -2.95804 0.784481 -2.646362 1.536938 -2.09165 2.09165 
C -1.536938 2.646362 -0.784481 2.95804 0 2.95804 
z
" style="stroke: #ffffff; stroke-opacity: 0.65; stroke-width: 0.4"/>
    </defs>
    <g clip-path="url(#pc6202ae076)">
     <use xlink:href="#m5f66bffabe" x="152.902924" y="86.178359" style="fill: #c0392b; fill-opacity: 0.65; stroke: #ffffff; stroke-opacity: 0.65; stroke-width: 0.4"/>
    </g>
   </g>
   <g id="PathCollection_17">
    <g clip-path="url(#pc6202ae076)">
     <use xlink:href="#m5f66bffabe" x="174.318907" y="72.062601" style="fill: #c0392b; fill-opacity: 0.65; stroke: #ffffff; stroke-opacity: 0.65; stroke-width: 0.4"/>
    </g>
   </g>
   <g id="PathCollection_18">
    <g clip-path="url(#pc6202ae076)">
     <use xlink:href="#m5f66bffabe" x="194.359461" y="55.589604" style="fill: #c0392b; fill-opacity: 0.65; stroke: #ffffff; stroke-opacity: 0.65; stroke-width: 0.4"/>
    </g>
   </g>
   <g id="PathCollection_19">
    <g clip-path="url(#pc6202ae076)">
     <use xlink:href="#m5f66bffabe" x="186.831022" y="66.921206" style="fill: #c0392b; fill-opacity: 0.65; stroke: #ffffff; stroke-opacity: 0.65; stroke-width: 0.4"/>
    </g>
   </g>
   <g id="PathCollection_20">
    <g clip-path="url(#pc6202ae076)">
     <use xlink:href="#m5f66bffabe" x="208.235975" y="46.499089" style="fill: #c0392b; fill-opacity: 0.65; stroke: #ffffff; stroke-opacity: 0.65; stroke-width: 0.4"/>
    </g>
   </g>
   <g id="text_17">
    <!-- $R^2$ = 0.944 -->
    <g transform="translate(180.229861 183.433317)">
     <text>
      <tspan x="0" y="-0.678125" style="font-style: oblique; font-size: 7px; font-family: 'DejaVu Sans'">R</tspan>
      <tspan x="5.355775" y="-3.357812" style="font-size: 4.9px; font-family: 'DejaVu Sans'">2</tspan>
      <tspan x="8.66471" y="-0.678125" style="font-size: 7px; font-family: 'Arial'"> </tspan>
      <tspan x="10.609535" y="-0.678125" style="font-size: 7px; font-family: 'Arial'">=</tspan>
      <tspan x="14.697425" y="-0.678125" style="font-size: 7px; font-family: 'Arial'"> </tspan>
      <tspan x="16.642249" y="-0.678125" style="font-size: 7px; font-family: 'Arial'">0</tspan>
      <tspan x="20.535316" y="-0.678125" style="font-size: 7px; font-family: 'Arial'">.</tspan>
      <tspan x="22.48014" y="-0.678125" style="font-size: 7px; font-family: 'Arial'">9</tspan>
      <tspan x="26.373206" y="-0.678125" style="font-size: 7px; font-family: 'Arial'">4</tspan>
      <tspan x="30.266273" y="-0.678125" style="font-size: 7px; font-family: 'Arial'">4</tspan>
     </text>
    </g>
   </g>
   <g id="text_18">
    <text style="font-weight: 700; font-size: 12px; font-family: 'Arial', 'Helvetica', 'DejaVu Sans', sans-serif; text-anchor: start" x="7.466396" y="15.789375" transform="rotate(-0 7.466396 15.789375)">L</text>
   </g>
   <g id="legend_1">
    <g id="patch_5">
     <path d="M 44.977656 57.10989 
L 75.683047 57.10989 
Q 76.983047 57.10989 76.983047 55.80989 
L 76.983047 20.905906 
Q 76.983047 19.605906 75.683047 19.605906 
L 44.977656 19.605906 
Q 43.677656 19.605906 43.677656 20.905906 
L 43.677656 55.80989 
Q 43.677656 57.10989 44.977656 57.10989 
z
" style="fill: #ffffff; opacity: 0.9; stroke: #cccccc; stroke-linejoin: miter"/>
    </g>
    <g id="PathCollection_21">
     <g>
      <use xlink:href="#me105d6f134" x="52.127656" y="24.502234" style="fill: #3a9e6f; fill-opacity: 0.65; stroke: #ffffff; stroke-opacity: 0.65; stroke-width: 0.4"/>
     </g>
    </g>
    <g id="text_19">
     <text style="font-size: 6.5px; font-family: 'Arial', 'Helvetica', 'DejaVu Sans', sans-serif; text-anchor: start" x="60.577656" y="26.208484" transform="rotate(-0 60.577656 26.208484)">Agar</text>
    </g>
    <g id="PathCollection_22">
     <g>
      <use xlink:href="#mfe99963653" x="52.127656" y="33.772859" style="fill: #e67e22; fill-opacity: 0.65; stroke: #ffffff; stroke-opacity: 0.65; stroke-width: 0.4"/>
     </g>
    </g>
    <g id="text_20">
     <text style="font-size: 6.5px; font-family: 'Arial', 'Helvetica', 'DejaVu Sans', sans-serif; text-anchor: start" x="60.577656" y="35.479109" transform="rotate(-0 60.577656 35.479109)">0.5:1</text>
    </g>
    <g id="PathCollection_23">
     <g>
      <use xlink:href="#m9b85dc7b44" x="52.127656" y="42.967312" style="fill: #5b8fc9; fill-opacity: 0.65; stroke: #ffffff; stroke-opacity: 0.65; stroke-width: 0.4"/>
     </g>
    </g>
    <g id="text_21">
     <text style="font-size: 6.5px; font-family: 'Arial', 'Helvetica', 'DejaVu Sans', sans-serif; text-anchor: start" x="60.577656" y="44.673562" transform="rotate(-0 60.577656 44.673562)">1:1</text>
    </g>
    <g id="PathCollection_24">
     <g>
      <use xlink:href="#m5f66bffabe" x="52.127656" y="52.161765" style="fill: #c0392b; fill-opacity: 0.65; stroke: #ffffff; stroke-opacity: 0.65; stroke-width: 0.4"/>
     </g>
    </g>
    <g id="text_22">
     <text style="font-size: 6.5px; font-family: 'Arial', 'Helvetica', 'DejaVu Sans', sans-serif; text-anchor: start" x="60.577656" y="53.868015" transform="rotate(-0 60.577656 53.868015)">2:1</text>
    </g>
   </g>
  </g>
 </g>
 <defs>
  <clipPath id="pc6202ae076">
   <rect x="40.427656" y="16.355906" width="183.11811" height="183.11811"/>
  </clipPath>
 </defs>
</svg>
