<?xml version="1.0" encoding="utf-8" standalone="no"?>
<!DOCTYPE svg PUBLIC "-//W3C//DTD SVG 1.1//EN"
  "http://www.w3.org/Graphics/SVG/1.1/DTD/svg11.dtd">
<svg xmlns:xlink="http://www.w3.org/1999/xlink" width="233.312099pt" height="228.450813pt" viewBox="0 0 233.312099 228.450813" xmlns="http://www.w3.org/2000/svg" version="1.1">
 <metadata>
  <rdf:RDF xmlns:dc="http://purl.org/dc/elements/1.1/" xmlns:cc="http://creativecommons.org/ns#" xmlns:rdf="http://www.w3.org/1999/02/22-rdf-syntax-ns#">
   <cc:Work>
    <dc:type rdf:resource="http://purl.org/dc/dcmitype/StillImage"/>
    <dc:date>2026-03-29T23:02:06.223532</dc:date>
    <dc:format>image/svg+xml</dc:format>
    <dc:creator>
     <cc:Agent>
      <dc:title>Matplotlib v3.10.8, https://matplotlib.org/</dc:title>
     </cc:Agent>
    </dc:creator>
   </cc:Work>
  </rdf:RDF>
 </metadata>
 <defs>
  <style type="text/css">*{stroke-linejoin: round; stroke-linecap: butt}</style>
 </defs>
 <g id="figure_1">
  <g id="patch_1">
   <path d="M 0 228.450813 
L 233.312099 228.450813 
L 233.312099 0 
L 0 0 
z
" style="fill: #ffffff"/>
  </g>
  <g id="axes_1">
   <g id="patch_2">
    <path d="M 40.538438 196.944094 
L 221.247099 196.944094 
L 221.247099 16.235433 
L 40.538438 16.235433 
z
" style="fill: #ffffff"/>
   </g>
   <g id="FillBetweenPolyCollection_1">
    <defs>
     <path id="mf730c0cda0" d="M 46.014458 -97.8248 
L 46.014458 -39.720749 
L 46.895024 -40.305135 
L 47.77559 -40.885104 
L 48.656156 -41.452883 
L 49.536722 -42.029491 
L 50.417288 -42.61573 
L 51.297854 -43.197924 
L 52.17842 -43.771519 
L 53.058986 -44.353659 
L 53.939552 -44.922675 
L 54.820118 -45.48401 
L 55.700684 -46.06068 
L 56.58125 -46.625104 
L 57.461816 -47.205615 
L 58.342382 -47.780429 
L 59.222948 -48.352169 
L 60.103514 -48.910391 
L 60.98408 -49.461602 
L 61.864646 -50.041166 
L 62.745212 -50.590303 
L 63.625778 -51.152795 
L 64.506344 -51.712746 
L 65.38691 -52.270621 
L 66.267476 -52.830897 
L 67.148042 -53.401654 
L 68.028608 -53.942803 
L 68.909175 -54.486966 
L 69.789741 -55.037426 
L 70.670307 -55.588496 
L 71.550873 -56.124229 
L 72.431439 -56.65603 
L 73.312005 -57.211555 
L 74.192571 -57.773746 
L 75.073137 -58.308355 
L 75.953703 -58.847577 
L 76.834269 -59.406793 
L 77.714835 -59.950519 
L 78.595401 -60.482156 
L 79.475967 -61.003902 
L 80.356533 -61.537027 
L 81.237099 -62.072067 
L 82.117665 -62.610285 
L 82.998231 -63.137626 
L 83.878797 -63.664906 
L 84.759363 -64.171386 
L 85.639929 -64.683063 
L 86.520495 -65.197533 
L 87.401061 -65.716757 
L 88.281627 -66.233848 
L 89.162193 -66.743578 
L 90.042759 -67.264841 
L 90.923325 -67.792963 
L 91.803891 -68.309727 
L 92.684458 -68.834693 
L 93.565024 -69.351597 
L 94.44559 -69.864274 
L 95.326156 -70.36465 
L 96.206722 -70.853775 
L 97.087288 -71.342932 
L 97.967854 -71.849777 
L 98.84842 -72.341472 
L 99.728986 -72.836206 
L 100.609552 -73.333311 
L 101.490118 -73.828271 
L 102.370684 -74.323535 
L 103.25125 -74.796793 
L 104.131816 -75.287607 
L 105.012382 -75.772463 
L 105.892948 -76.258392 
L 106.773514 -76.7455 
L 107.65408 -77.227459 
L 108.534646 -77.706356 
L 109.415212 -78.177545 
L 110.295778 -78.655837 
L 111.176344 -79.13894 
L 112.05691 -79.626319 
L 112.937476 -80.099167 
L 113.818042 -80.570654 
L 114.698608 -81.042375 
L 115.579174 -81.512975 
L 116.459741 -81.979736 
L 117.340307 -82.43372 
L 118.220873 -82.905436 
L 119.101439 -83.371634 
L 119.982005 -83.837254 
L 120.862571 -84.292533 
L 121.743137 -84.752406 
L 122.623703 -85.212477 
L 123.504269 -85.663809 
L 124.384835 -86.100541 
L 125.265401 -86.550852 
L 126.145967 -86.997949 
L 127.026533 -87.441379 
L 127.907099 -87.878237 
L 128.787665 -88.332702 
L 129.668231 -88.774558 
L 130.548797 -89.235369 
L 131.429363 -89.675679 
L 132.309929 -90.127847 
L 133.190495 -90.572569 
L 134.071061 -91.020306 
L 134.951627 -91.46938 
L 135.832193 -91.917876 
L 136.712759 -92.366371 
L 137.593325 -92.807406 
L 138.473891 -93.251115 
L 139.354457 -93.697311 
L 140.235024 -94.141605 
L 141.11559 -94.570152 
L 141.996156 -95.017702 
L 142.876722 -95.457151 
L 143.757288 -95.899965 
L 144.637854 -96.34822 
L 145.51842 -96.775747 
L 146.398986 -97.205472 
L 147.279552 -97.63209 
L 148.160118 -98.062726 
L 149.040684 -98.498224 
L 149.92125 -98.921688 
L 150.801816 -99.373 
L 151.682382 -99.814048 
L 152.562948 -100.263241 
L 153.443514 -100.706737 
L 154.32408 -101.122281 
L 155.204646 -101.539842 
L 156.085212 -101.968886 
L 156.965778 -102.406282 
L 157.846344 -102.820826 
L 158.72691 -103.22915 
L 159.607476 -103.657516 
L 160.488042 -104.074003 
L 161.368608 -104.493799 
L 162.249174 -104.932084 
L 163.12974 -105.35231 
L 164.010307 -105.788498 
L 164.890873 -106.200997 
L 165.771439 -106.617278 
L 166.652005 -107.049394 
L 167.532571 -107.487326 
L 168.413137 -107.935762 
L 169.293703 -108.362967 
L 170.174269 -108.796212 
L 171.054835 -109.240326 
L 171.935401 -109.678404 
L 172.815967 -110.114169 
L 173.696533 -110.542815 
L 174.577099 -110.970102 
L 175.457665 -111.386445 
L 176.338231 -111.806396 
L 177.218797 -112.23092 
L 178.099363 -112.660139 
L 178.979929 -113.101551 
L 179.860495 -113.525207 
L 180.741061 -113.946955 
L 181.621627 -114.36825 
L 182.502193 -114.795583 
L 183.382759 -115.228856 
L 184.263325 -115.636514 
L 185.143891 -116.047148 
L 186.024457 -116.477246 
L 186.905023 -116.901879 
L 187.78559 -117.325981 
L 188.666156 -117.73419 
L 189.546722 -118.160598 
L 190.427288 -118.600137 
L 191.307854 -119.020497 
L 192.18842 -119.444576 
L 193.068986 -119.86661 
L 193.949552 -120.299006 
L 194.830118 -120.737712 
L 195.710684 -121.168869 
L 196.59125 -121.59088 
L 197.471816 -121.997465 
L 198.352382 -122.417816 
L 199.232948 -122.810951 
L 200.113514 -123.236196 
L 200.99408 -123.642976 
L 201.874646 -124.032716 
L 202.755212 -124.453874 
L 203.635778 -124.883437 
L 204.516344 -125.314813 
L 205.39691 -125.749411 
L 206.277476 -126.177028 
L 207.158042 -126.59661 
L 208.038608 -127.024412 
L 208.919174 -127.446156 
L 209.79974 -127.849323 
L 210.680306 -128.287699 
L 211.560873 -128.701836 
L 212.441439 -129.09954 
L 213.322005 -129.489842 
L 214.202571 -129.876023 
L 215.083137 -130.296491 
L 215.963703 -130.691623 
L 216.844269 -131.103051 
L 217.724835 -131.503496 
L 218.605401 -131.90616 
L 219.485967 -132.318915 
L 220.366533 -132.748632 
L 221.247099 -133.17077 
L 221.247099 -204.00135 
L 221.247099 -204.00135 
L 220.366533 -203.40389 
L 219.485967 -202.80643 
L 218.605401 -202.20897 
L 217.724835 -201.617489 
L 216.844269 -201.025828 
L 215.963703 -200.428959 
L 215.083137 -199.831673 
L 214.202571 -199.236133 
L 213.322005 -198.639619 
L 212.441439 -198.039411 
L 211.560873 -197.437408 
L 210.680306 -196.833927 
L 209.79974 -196.233941 
L 208.919174 -195.649123 
L 208.038608 -195.046794 
L 207.158042 -194.444436 
L 206.277476 -193.849618 
L 205.39691 -193.246637 
L 204.516344 -192.648961 
L 203.635778 -192.053913 
L 202.755212 -191.449677 
L 201.874646 -190.856227 
L 200.99408 -190.259061 
L 200.113514 -189.66144 
L 199.232948 -189.063726 
L 198.352382 -188.452074 
L 197.471816 -187.852947 
L 196.59125 -187.266485 
L 195.710684 -186.670525 
L 194.830118 -186.076283 
L 193.949552 -185.468431 
L 193.068986 -184.881203 
L 192.18842 -184.294434 
L 191.307854 -183.713749 
L 190.427288 -183.129767 
L 189.546722 -182.533632 
L 188.666156 -181.945248 
L 187.78559 -181.361233 
L 186.905023 -180.762398 
L 186.024457 -180.153661 
L 185.143891 -179.560075 
L 184.263325 -178.981036 
L 183.382759 -178.386593 
L 182.502193 -177.799907 
L 181.621627 -177.218561 
L 180.741061 -176.661019 
L 179.860495 -176.07281 
L 178.979929 -175.483335 
L 178.099363 -174.915446 
L 177.218797 -174.323262 
L 176.338231 -173.73797 
L 175.457665 -173.145871 
L 174.577099 -172.553656 
L 173.696533 -171.97494 
L 172.815967 -171.387208 
L 171.935401 -170.808554 
L 171.054835 -170.21334 
L 170.174269 -169.621021 
L 169.293703 -169.042445 
L 168.413137 -168.445899 
L 167.532571 -167.859754 
L 166.652005 -167.269829 
L 165.771439 -166.674193 
L 164.890873 -166.079931 
L 164.010307 -165.493624 
L 163.12974 -164.914715 
L 162.249174 -164.329198 
L 161.368608 -163.740803 
L 160.488042 -163.152713 
L 159.607476 -162.561264 
L 158.72691 -161.971804 
L 157.846344 -161.376327 
L 156.965778 -160.789543 
L 156.085212 -160.211171 
L 155.204646 -159.616489 
L 154.32408 -159.03303 
L 153.443514 -158.447581 
L 152.562948 -157.859604 
L 151.682382 -157.271211 
L 150.801816 -156.685222 
L 149.92125 -156.098109 
L 149.040684 -155.51256 
L 148.160118 -154.934412 
L 147.279552 -154.354419 
L 146.398986 -153.75516 
L 145.51842 -153.165698 
L 144.637854 -152.588333 
L 143.757288 -152.003852 
L 142.876722 -151.427025 
L 141.996156 -150.855011 
L 141.11559 -150.293016 
L 140.235024 -149.713968 
L 139.354457 -149.150356 
L 138.473891 -148.564128 
L 137.593325 -147.993393 
L 136.712759 -147.402921 
L 135.832193 -146.837622 
L 134.951627 -146.273634 
L 134.071061 -145.708095 
L 133.190495 -145.144464 
L 132.309929 -144.594754 
L 131.429363 -144.01189 
L 130.548797 -143.426372 
L 129.668231 -142.857964 
L 128.787665 -142.289026 
L 127.907099 -141.723821 
L 127.026533 -141.15686 
L 126.145967 -140.586716 
L 125.265401 -140.036082 
L 124.384835 -139.477422 
L 123.504269 -138.935541 
L 122.623703 -138.408955 
L 121.743137 -137.864379 
L 120.862571 -137.323318 
L 119.982005 -136.774475 
L 119.101439 -136.253109 
L 118.220873 -135.718685 
L 117.340307 -135.190496 
L 116.459741 -134.66017 
L 115.579174 -134.131908 
L 114.698608 -133.579485 
L 113.818042 -133.051983 
L 112.937476 -132.526798 
L 112.05691 -132.029581 
L 111.176344 -131.501788 
L 110.295778 -130.943926 
L 109.415212 -130.446673 
L 108.534646 -129.899156 
L 107.65408 -129.402556 
L 106.773514 -128.884578 
L 105.892948 -128.390559 
L 105.012382 -127.886065 
L 104.131816 -127.391219 
L 103.25125 -126.893719 
L 102.370684 -126.365983 
L 101.490118 -125.876701 
L 100.609552 -125.355634 
L 99.728986 -124.877076 
L 98.84842 -124.373815 
L 97.967854 -123.912329 
L 97.087288 -123.400765 
L 96.206722 -122.89544 
L 95.326156 -122.438872 
L 94.44559 -121.975795 
L 93.565024 -121.514595 
L 92.684458 -121.030671 
L 91.803891 -120.556068 
L 90.923325 -120.082106 
L 90.042759 -119.620816 
L 89.162193 -119.147483 
L 88.281627 -118.692669 
L 87.401061 -118.259254 
L 86.520495 -117.807977 
L 85.639929 -117.315246 
L 84.759363 -116.839069 
L 83.878797 -116.368534 
L 82.998231 -115.898674 
L 82.117665 -115.461144 
L 81.237099 -115.01925 
L 80.356533 -114.570542 
L 79.475967 -114.130637 
L 78.595401 -113.689077 
L 77.714835 -113.245681 
L 76.834269 -112.826091 
L 75.953703 -112.38562 
L 75.073137 -111.92592 
L 74.192571 -111.496666 
L 73.312005 -111.053566 
L 72.431439 -110.603785 
L 71.550873 -110.185302 
L 70.670307 -109.746218 
L 69.789741 -109.315403 
L 68.909175 -108.871506 
L 68.028608 -108.430732 
L 67.148042 -108.005665 
L 66.267476 -107.563285 
L 65.38691 -107.130733 
L 64.506344 -106.694419 
L 63.625778 -106.264799 
L 62.745212 -105.825305 
L 61.864646 -105.396116 
L 60.98408 -104.987542 
L 60.103514 -104.556338 
L 59.222948 -104.116827 
L 58.342382 -103.697048 
L 57.461816 -103.2682 
L 56.58125 -102.852605 
L 55.700684 -102.42687 
L 54.820118 -101.988608 
L 53.939552 -101.5504 
L 53.058986 -101.133723 
L 52.17842 -100.720082 
L 51.297854 -100.282313 
L 50.417288 -99.869692 
L 49.536722 -99.459047 
L 48.656156 -99.037109 
L 47.77559 -98.632974 
L 46.895024 -98.235586 
L 46.014458 -97.8248 
z
" style="stroke: #888888; stroke-opacity: 0.08"/>
    </defs>
    <g clip-path="url(#pc18a947474)">
     <use xlink:href="#mf730c0cda0" x="0" y="228.450813" style="fill: #888888; fill-opacity: 0.08; stroke: #888888; stroke-opacity: 0.08"/>
    </g>
   </g>
   <g id="FillBetweenPolyCollection_2">
    <defs>
     <path id="m29ec01d4fb" d="M 46.014458 -76.165825 
L 46.014458 -61.379724 
L 46.895024 -61.96411 
L 47.77559 -62.544079 
L 48.656156 -63.111858 
L 49.536722 -63.688466 
L 50.417288 -64.274704 
L 51.297854 -64.856898 
L 52.17842 -65.430493 
L 53.058986 -66.012634 
L 53.939552 -66.581649 
L 54.820118 -67.142985 
L 55.700684 -67.719654 
L 56.58125 -68.284079 
L 57.461816 -68.86459 
L 58.342382 -69.439403 
L 59.222948 -70.011143 
L 60.103514 -70.569365 
L 60.98408 -71.120577 
L 61.864646 -71.700141 
L 62.745212 -72.249277 
L 63.625778 -72.81177 
L 64.506344 -73.371721 
L 65.38691 -73.929595 
L 66.267476 -74.489872 
L 67.148042 -75.060629 
L 68.028608 -75.601778 
L 68.909175 -76.145941 
L 69.789741 -76.6964 
L 70.670307 -77.247471 
L 71.550873 -77.783204 
L 72.431439 -78.315005 
L 73.312005 -78.870529 
L 74.192571 -79.43272 
L 75.073137 -79.96733 
L 75.953703 -80.506551 
L 76.834269 -81.065768 
L 77.714835 -81.609494 
L 78.595401 -82.141131 
L 79.475967 -82.662876 
L 80.356533 -83.196002 
L 81.237099 -83.731042 
L 82.117665 -84.26926 
L 82.998231 -84.796601 
L 83.878797 -85.32388 
L 84.759363 -85.830361 
L 85.639929 -86.342038 
L 86.520495 -86.856508 
L 87.401061 -87.375732 
L 88.281627 -87.892822 
L 89.162193 -88.402553 
L 90.042759 -88.923816 
L 90.923325 -89.451937 
L 91.803891 -89.968702 
L 92.684458 -90.493668 
L 93.565024 -91.010572 
L 94.44559 -91.523248 
L 95.326156 -92.023625 
L 96.206722 -92.51275 
L 97.087288 -93.001907 
L 97.967854 -93.508752 
L 98.84842 -94.000447 
L 99.728986 -94.495181 
L 100.609552 -94.992286 
L 101.490118 -95.487246 
L 102.370684 -95.98251 
L 103.25125 -96.455768 
L 104.131816 -96.946582 
L 105.012382 -97.431438 
L 105.892948 -97.917367 
L 106.773514 -98.404474 
L 107.65408 -98.886434 
L 108.534646 -99.365331 
L 109.415212 -99.83652 
L 110.295778 -100.314812 
L 111.176344 -100.797915 
L 112.05691 -101.285294 
L 112.937476 -101.758142 
L 113.818042 -102.229629 
L 114.698608 -102.70135 
L 115.579174 -103.17195 
L 116.459741 -103.638711 
L 117.340307 -104.092695 
L 118.220873 -104.564411 
L 119.101439 -105.030609 
L 119.982005 -105.496229 
L 120.862571 -105.951507 
L 121.743137 -106.411381 
L 122.623703 -106.871452 
L 123.504269 -107.322784 
L 124.384835 -107.759516 
L 125.265401 -108.209827 
L 126.145967 -108.656924 
L 127.026533 -109.100354 
L 127.907099 -109.537211 
L 128.787665 -109.991677 
L 129.668231 -110.433532 
L 130.548797 -110.894344 
L 131.429363 -111.334654 
L 132.309929 -111.786822 
L 133.190495 -112.231543 
L 134.071061 -112.67928 
L 134.951627 -113.128355 
L 135.832193 -113.57685 
L 136.712759 -114.025346 
L 137.593325 -114.466381 
L 138.473891 -114.91009 
L 139.354457 -115.356286 
L 140.235024 -115.80058 
L 141.11559 -116.229127 
L 141.996156 -116.676677 
L 142.876722 -117.116125 
L 143.757288 -117.55894 
L 144.637854 -118.007195 
L 145.51842 -118.434721 
L 146.398986 -118.864447 
L 147.279552 -119.291065 
L 148.160118 -119.721701 
L 149.040684 -120.157199 
L 149.92125 -120.580663 
L 150.801816 -121.031975 
L 151.682382 -121.473023 
L 152.562948 -121.922216 
L 153.443514 -122.365712 
L 154.32408 -122.781256 
L 155.204646 -123.198817 
L 156.085212 -123.627861 
L 156.965778 -124.065257 
L 157.846344 -124.4798 
L 158.72691 -124.888125 
L 159.607476 -125.316491 
L 160.488042 -125.732977 
L 161.368608 -126.152774 
L 162.249174 -126.591059 
L 163.12974 -127.011285 
L 164.010307 -127.447473 
L 164.890873 -127.859972 
L 165.771439 -128.276253 
L 166.652005 -128.708369 
L 167.532571 -129.146301 
L 168.413137 -129.594737 
L 169.293703 -130.021942 
L 170.174269 -130.455187 
L 171.054835 -130.8993 
L 171.935401 -131.337379 
L 172.815967 -131.773144 
L 173.696533 -132.20179 
L 174.577099 -132.629077 
L 175.457665 -133.04542 
L 176.338231 -133.465371 
L 177.218797 -133.889894 
L 178.099363 -134.319113 
L 178.979929 -134.760525 
L 179.860495 -135.184181 
L 180.741061 -135.60593 
L 181.621627 -136.027225 
L 182.502193 -136.454558 
L 183.382759 -136.88783 
L 184.263325 -137.295489 
L 185.143891 -137.706123 
L 186.024457 -138.136221 
L 186.905023 -138.560854 
L 187.78559 -138.984955 
L 188.666156 -139.393164 
L 189.546722 -139.819573 
L 190.427288 -140.259111 
L 191.307854 -140.679472 
L 192.18842 -141.103551 
L 193.068986 -141.525585 
L 193.949552 -141.95798 
L 194.830118 -142.396687 
L 195.710684 -142.827844 
L 196.59125 -143.249855 
L 197.471816 -143.65644 
L 198.352382 -144.076791 
L 199.232948 -144.469926 
L 200.113514 -144.895171 
L 200.99408 -145.30195 
L 201.874646 -145.691691 
L 202.755212 -146.112849 
L 203.635778 -146.542412 
L 204.516344 -146.973787 
L 205.39691 -147.408386 
L 206.277476 -147.836003 
L 207.158042 -148.255585 
L 208.038608 -148.683387 
L 208.919174 -149.105131 
L 209.79974 -149.508298 
L 210.680306 -149.946674 
L 211.560873 -150.360811 
L 212.441439 -150.758514 
L 213.322005 -151.148817 
L 214.202571 -151.534998 
L 215.083137 -151.955466 
L 215.963703 -152.350598 
L 216.844269 -152.762026 
L 217.724835 -153.162471 
L 218.605401 -153.565135 
L 219.485967 -153.97789 
L 220.366533 -154.407607 
L 221.247099 -154.829745 
L 221.247099 -182.342375 
L 221.247099 -182.342375 
L 220.366533 -181.744915 
L 219.485967 -181.147455 
L 218.605401 -180.549995 
L 217.724835 -179.958514 
L 216.844269 -179.366854 
L 215.963703 -178.769984 
L 215.083137 -178.172699 
L 214.202571 -177.577159 
L 213.322005 -176.980644 
L 212.441439 -176.380436 
L 211.560873 -175.778434 
L 210.680306 -175.174952 
L 209.79974 -174.574966 
L 208.919174 -173.990148 
L 208.038608 -173.387819 
L 207.158042 -172.785461 
L 206.277476 -172.190643 
L 205.39691 -171.587662 
L 204.516344 -170.989986 
L 203.635778 -170.394938 
L 202.755212 -169.790702 
L 201.874646 -169.197252 
L 200.99408 -168.600087 
L 200.113514 -168.002465 
L 199.232948 -167.404751 
L 198.352382 -166.793099 
L 197.471816 -166.193973 
L 196.59125 -165.60751 
L 195.710684 -165.01155 
L 194.830118 -164.417308 
L 193.949552 -163.809457 
L 193.068986 -163.222228 
L 192.18842 -162.63546 
L 191.307854 -162.054774 
L 190.427288 -161.470792 
L 189.546722 -160.874658 
L 188.666156 -160.286273 
L 187.78559 -159.702258 
L 186.905023 -159.103424 
L 186.024457 -158.494686 
L 185.143891 -157.9011 
L 184.263325 -157.322061 
L 183.382759 -156.727618 
L 182.502193 -156.140933 
L 181.621627 -155.559586 
L 180.741061 -155.002044 
L 179.860495 -154.413835 
L 178.979929 -153.824361 
L 178.099363 -153.256472 
L 177.218797 -152.664287 
L 176.338231 -152.078995 
L 175.457665 -151.486896 
L 174.577099 -150.894682 
L 173.696533 -150.315966 
L 172.815967 -149.728234 
L 171.935401 -149.149579 
L 171.054835 -148.554365 
L 170.174269 -147.962046 
L 169.293703 -147.383471 
L 168.413137 -146.786924 
L 167.532571 -146.20078 
L 166.652005 -145.610854 
L 165.771439 -145.015218 
L 164.890873 -144.420956 
L 164.010307 -143.834649 
L 163.12974 -143.25574 
L 162.249174 -142.670223 
L 161.368608 -142.081829 
L 160.488042 -141.493738 
L 159.607476 -140.90229 
L 158.72691 -140.312829 
L 157.846344 -139.717352 
L 156.965778 -139.130568 
L 156.085212 -138.552197 
L 155.204646 -137.957514 
L 154.32408 -137.374055 
L 153.443514 -136.788606 
L 152.562948 -136.200629 
L 151.682382 -135.612236 
L 150.801816 -135.026247 
L 149.92125 -134.439134 
L 149.040684 -133.853585 
L 148.160118 -133.275438 
L 147.279552 -132.695445 
L 146.398986 -132.096185 
L 145.51842 -131.506723 
L 144.637854 -130.929358 
L 143.757288 -130.344877 
L 142.876722 -129.76805 
L 141.996156 -129.196037 
L 141.11559 -128.634041 
L 140.235024 -128.054993 
L 139.354457 -127.491381 
L 138.473891 -126.905154 
L 137.593325 -126.334419 
L 136.712759 -125.743946 
L 135.832193 -125.178647 
L 134.951627 -124.61466 
L 134.071061 -124.04912 
L 133.190495 -123.485489 
L 132.309929 -122.935779 
L 131.429363 -122.352915 
L 130.548797 -121.767397 
L 129.668231 -121.198989 
L 128.787665 -120.630051 
L 127.907099 -120.064846 
L 127.026533 -119.497886 
L 126.145967 -118.927741 
L 125.265401 -118.377107 
L 124.384835 -117.818447 
L 123.504269 -117.276566 
L 122.623703 -116.74998 
L 121.743137 -116.205404 
L 120.862571 -115.664344 
L 119.982005 -115.1155 
L 119.101439 -114.594134 
L 118.220873 -114.05971 
L 117.340307 -113.531521 
L 116.459741 -113.001196 
L 115.579174 -112.472934 
L 114.698608 -111.92051 
L 113.818042 -111.393008 
L 112.937476 -110.867823 
L 112.05691 -110.370606 
L 111.176344 -109.842813 
L 110.295778 -109.284951 
L 109.415212 -108.787698 
L 108.534646 -108.240181 
L 107.65408 -107.743581 
L 106.773514 -107.225603 
L 105.892948 -106.731584 
L 105.012382 -106.227091 
L 104.131816 -105.732245 
L 103.25125 -105.234744 
L 102.370684 -104.707008 
L 101.490118 -104.217726 
L 100.609552 -103.696659 
L 99.728986 -103.218101 
L 98.84842 -102.71484 
L 97.967854 -102.253354 
L 97.087288 -101.741791 
L 96.206722 -101.236466 
L 95.326156 -100.779897 
L 94.44559 -100.31682 
L 93.565024 -99.85562 
L 92.684458 -99.371696 
L 91.803891 -98.897093 
L 90.923325 -98.423131 
L 90.042759 -97.961841 
L 89.162193 -97.488509 
L 88.281627 -97.033694 
L 87.401061 -96.600279 
L 86.520495 -96.149002 
L 85.639929 -95.656271 
L 84.759363 -95.180095 
L 83.878797 -94.709559 
L 82.998231 -94.239699 
L 82.117665 -93.80217 
L 81.237099 -93.360275 
L 80.356533 -92.911567 
L 79.475967 -92.471663 
L 78.595401 -92.030102 
L 77.714835 -91.586707 
L 76.834269 -91.167116 
L 75.953703 -90.726645 
L 75.073137 -90.266946 
L 74.192571 -89.837692 
L 73.312005 -89.394591 
L 72.431439 -88.94481 
L 71.550873 -88.526327 
L 70.670307 -88.087243 
L 69.789741 -87.656428 
L 68.909175 -87.212531 
L 68.028608 -86.771757 
L 67.148042 -86.346691 
L 66.267476 -85.904311 
L 65.38691 -85.471758 
L 64.506344 -85.035444 
L 63.625778 -84.605825 
L 62.745212 -84.16633 
L 61.864646 -83.737141 
L 60.98408 -83.328567 
L 60.103514 -82.897363 
L 59.222948 -82.457852 
L 58.342382 -82.038073 
L 57.461816 -81.609226 
L 56.58125 -81.19363 
L 55.700684 -80.767895 
L 54.820118 -80.329633 
L 53.939552 -79.891425 
L 53.058986 -79.474748 
L 52.17842 -79.061107 
L 51.297854 -78.623338 
L 50.417288 -78.210717 
L 49.536722 -77.800073 
L 48.656156 -77.378134 
L 47.77559 -76.974 
L 46.895024 -76.576611 
L 46.014458 -76.165825 
z
" style="stroke: #444444; stroke-opacity: 0.18"/>
    </defs>
    <g clip-path="url(#pc18a947474)">
     <use xlink:href="#m29ec01d4fb" x="0" y="228.450813" style="fill: #444444; fill-opacity: 0.18; stroke: #444444; stroke-opacity: 0.18"/>
    </g>
   </g>
   <g id="matplotlib.axis_1">
    <g id="xtick_1">
     <g id="line2d_1">
      <defs>
       <path id="macc21c5b33" d="M 0 0 
L 0 3.5 
" style="stroke: #000000; stroke-width: 0.6"/>
      </defs>
      <g>
       <use xlink:href="#macc21c5b33" x="56.966498" y="196.944094" style="stroke: #000000; stroke-width: 0.6"/>
      </g>
     </g>
     <g id="text_1">
      <text style="font-size: 7px; font-family: 'Arial', 'Helvetica', 'DejaVu Sans', sans-serif; text-anchor: middle" x="56.966498" y="208.954563" transform="rotate(-0 56.966498 208.954563)">0.0</text>
     </g>
    </g>
    <g id="xtick_2">
     <g id="line2d_2">
      <g>
       <use xlink:href="#macc21c5b33" x="111.726698" y="196.944094" style="stroke: #000000; stroke-width: 0.6"/>
      </g>
     </g>
     <g id="text_2">
      <text style="font-size: 7px; font-family: 'Arial', 'Helvetica', 'DejaVu Sans', sans-serif; text-anchor: middle" x="111.726698" y="208.954563" transform="rotate(-0 111.726698 208.954563)">0.1</text>
     </g>
    </g>
    <g id="xtick_3">
     <g id="line2d_3">
      <g>
       <use xlink:href="#macc21c5b33" x="166.486898" y="196.944094" style="stroke: #000000; stroke-width: 0.6"/>
      </g>
     </g>
     <g id="text_3">
      <text style="font-size: 7px; font-family: 'Arial', 'Helvetica', 'DejaVu Sans', sans-serif; text-anchor: middle" x="166.486898" y="208.954563" transform="rotate(-0 166.486898 208.954563)">0.2</text>
     </g>
    </g>
    <g id="xtick_4">
     <g id="line2d_4">
      <g>
       <use xlink:href="#macc21c5b33" x="221.247099" y="196.944094" style="stroke: #000000; stroke-width: 0.6"/>
      </g>
     </g>
     <g id="text_4">
      <text style="font-size: 7px; font-family: 'Arial', 'Helvetica', 'DejaVu Sans', sans-serif; text-anchor: middle" x="221.247099" y="208.954563" transform="rotate(-0 221.247099 208.954563)">0.3</text>
     </g>
    </g>
    <g id="text_5">
     <!-- $(1 - a_w)$ -->
     <g transform="translate(114.487768 219.561438)">
      <text>
       <tspan x="0" y="-0.171875" style="font-size: 8.5px; font-family: 'DejaVu Sans'">(</tspan>
       <tspan x="3.316162" y="-0.171875" style="font-size: 8.5px; font-family: 'DejaVu Sans'">1</tspan>
       <tspan x="10.380127" y="-0.171875" style="font-size: 8.5px; font-family: 'DejaVu Sans'">−</tspan>
       <tspan x="29.47937" y="-0.171875" style="font-size: 8.5px; font-family: 'DejaVu Sans'">)</tspan>
       <tspan x="19.158203" y="-0.171875" style="font-style: oblique; font-size: 8.5px; font-family: 'DejaVu Sans'">a</tspan>
       <tspan x="24.366943" y="1.304688" style="font-style: oblique; font-size: 5.95px; font-family: 'DejaVu Sans'">w</tspan>
      </text>
     </g>
    </g>
   </g>
   <g id="matplotlib.axis_2">
    <g id="ytick_1">
     <g id="line2d_5">
      <defs>
       <path id="mb028cafaf9" d="M 0 0 
L -3.5 0 
" style="stroke: #000000; stroke-width: 0.6"/>
      </defs>
      <g>
       <use xlink:href="#mb028cafaf9" x="40.538438" y="181.949201" style="stroke: #000000; stroke-width: 0.6"/>
      </g>
     </g>
     <g id="text_6">
      <text style="font-size: 7px; font-family: 'Arial', 'Helvetica', 'DejaVu Sans', sans-serif; text-anchor: end" x="33.538438" y="184.454435" transform="rotate(-0 33.538438 184.454435)">−0.5</text>
     </g>
    </g>
    <g id="ytick_2">
     <g id="line2d_6">
      <g>
       <use xlink:href="#mb028cafaf9" x="40.538438" y="159.693642" style="stroke: #000000; stroke-width: 0.6"/>
      </g>
     </g>
     <g id="text_7">
      <text style="font-size: 7px; font-family: 'Arial', 'Helvetica', 'DejaVu Sans', sans-serif; text-anchor: end" x="33.538438" y="162.198876" transform="rotate(-0 33.538438 162.198876)">0.0</text>
     </g>
    </g>
    <g id="ytick_3">
     <g id="line2d_7">
      <g>
       <use xlink:href="#mb028cafaf9" x="40.538438" y="137.438083" style="stroke: #000000; stroke-width: 0.6"/>
      </g>
     </g>
     <g id="text_8">
      <text style="font-size: 7px; font-family: 'Arial', 'Helvetica', 'DejaVu Sans', sans-serif; text-anchor: end" x="33.538438" y="139.943318" transform="rotate(-0 33.538438 139.943318)">0.5</text>
     </g>
    </g>
    <g id="ytick_4">
     <g id="line2d_8">
      <g>
       <use xlink:href="#mb028cafaf9" x="40.538438" y="115.182525" style="stroke: #000000; stroke-width: 0.6"/>
      </g>
     </g>
     <g id="text_9">
      <text style="font-size: 7px; font-family: 'Arial', 'Helvetica', 'DejaVu Sans', sans-serif; text-anchor: end" x="33.538438" y="117.687759" transform="rotate(-0 33.538438 117.687759)">1.0</text>
     </g>
    </g>
    <g id="ytick_5">
     <g id="line2d_9">
      <g>
       <use xlink:href="#mb028cafaf9" x="40.538438" y="92.926966" style="stroke: #000000; stroke-width: 0.6"/>
      </g>
     </g>
     <g id="text_10">
      <text style="font-size: 7px; font-family: 'Arial', 'Helvetica', 'DejaVu Sans', sans-serif; text-anchor: end" x="33.538438" y="95.432201" transform="rotate(-0 33.538438 95.432201)">1.5</text>
     </g>
    </g>
    <g id="ytick_6">
     <g id="line2d_10">
      <g>
       <use xlink:href="#mb028cafaf9" x="40.538438" y="70.671408" style="stroke: #000000; stroke-width: 0.6"/>
      </g>
     </g>
     <g id="text_11">
      <text style="font-size: 7px; font-family: 'Arial', 'Helvetica', 'DejaVu Sans', sans-serif; text-anchor: end" x="33.538438" y="73.176642" transform="rotate(-0 33.538438 73.176642)">2.0</text>
     </g>
    </g>
    <g id="ytick_7">
     <g id="line2d_11">
      <g>
       <use xlink:href="#mb028cafaf9" x="40.538438" y="48.415849" style="stroke: #000000; stroke-width: 0.6"/>
      </g>
     </g>
     <g id="text_12">
      <text style="font-size: 7px; font-family: 'Arial', 'Helvetica', 'DejaVu Sans', sans-serif; text-anchor: end" x="33.538438" y="50.921083" transform="rotate(-0 33.538438 50.921083)">2.5</text>
     </g>
    </g>
    <g id="ytick_8">
     <g id="line2d_12">
      <g>
       <use xlink:href="#mb028cafaf9" x="40.538438" y="26.16029" style="stroke: #000000; stroke-width: 0.6"/>
      </g>
     </g>
     <g id="text_13">
      <text style="font-size: 7px; font-family: 'Arial', 'Helvetica', 'DejaVu Sans', sans-serif; text-anchor: end" x="33.538438" y="28.665525" transform="rotate(-0 33.538438 28.665525)">3.0</text>
     </g>
    </g>
    <g id="text_14">
     <!-- d$\tau_{50}$/d$r$ (min mm$^{-1}$) -->
     <g transform="translate(14.85 144.372264) rotate(-90)">
      <text>
       <tspan x="0" y="-0.960938" style="font-size: 8.5px; font-family: 'Arial'">d</tspan>
       <tspan x="17.661963" y="-0.960938" style="font-size: 8.5px; font-family: 'Arial'">/</tspan>
       <tspan x="20.023535" y="-0.960938" style="font-size: 8.5px; font-family: 'Arial'">d</tspan>
       <tspan x="28.245459" y="-0.960938" style="font-size: 8.5px; font-family: 'Arial'"> </tspan>
       <tspan x="30.607031" y="-0.960938" style="font-size: 8.5px; font-family: 'Arial'">(</tspan>
       <tspan x="33.437598" y="-0.960938" style="font-size: 8.5px; font-family: 'Arial'">m</tspan>
       <tspan x="40.518164" y="-0.960938" style="font-size: 8.5px; font-family: 'Arial'">i</tspan>
       <tspan x="42.406592" y="-0.960938" style="font-size: 8.5px; font-family: 'Arial'">n</tspan>
       <tspan x="47.133887" y="-0.960938" style="font-size: 8.5px; font-family: 'Arial'"> </tspan>
       <tspan x="49.495459" y="-0.960938" style="font-size: 8.5px; font-family: 'Arial'">m</tspan>
       <tspan x="56.576025" y="-0.960938" style="font-size: 8.5px; font-family: 'Arial'">m</tspan>
       <tspan x="72.759839" y="-0.960938" style="font-size: 8.5px; font-family: 'Arial'">)</tspan>
       <tspan x="4.727295" y="-0.960938" style="font-style: oblique; font-size: 8.5px; font-family: 'DejaVu Sans'">τ</tspan>
       <tspan x="24.75083" y="-0.960938" style="font-style: oblique; font-size: 8.5px; font-family: 'DejaVu Sans'">r</tspan>
       <tspan x="9.844727" y="0.515625" style="font-size: 5.95px; font-family: 'DejaVu Sans'">5</tspan>
       <tspan x="13.630298" y="0.515625" style="font-size: 5.95px; font-family: 'DejaVu Sans'">0</tspan>
       <tspan x="63.742725" y="-4.40625" style="font-size: 5.95px; font-family: 'DejaVu Sans'">−</tspan>
       <tspan x="68.728174" y="-4.40625" style="font-size: 5.95px; font-family: 'DejaVu Sans'">1</tspan>
      </text>
     </g>
    </g>
   </g>
   <g id="line2d_13">
    <path d="M 46.014458 160.908236 
L 221.247099 60.078496 
L 221.247099 60.078496 
" clip-path="url(#pc18a947474)" style="fill: none; stroke-dasharray: 4.44,1.92; stroke-dashoffset: 0; stroke: #000000; stroke-opacity: 0.7; stroke-width: 1.2"/>
   </g>
   <g id="patch_3">
    <path d="M 40.538438 196.944094 
L 40.538438 16.235433 
" style="fill: none; stroke: #000000; stroke-width: 0.6; stroke-linejoin: miter; stroke-linecap: square"/>
   </g>
   <g id="patch_4">
    <path d="M 40.538438 196.944094 
L 221.247099 196.944094 
" style="fill: none; stroke: #000000; stroke-width: 0.6; stroke-linejoin: miter; stroke-linecap: square"/>
   </g>
   <g id="PathCollection_1">
    <defs>
     <path id="m11bfa77330" d="M 0 2.95804 
C 0.784481 2.95804 1.536938 2.646362 2.09165 2.09165 
C 2.646362 1.536938 2.95804 0.784481 2.95804 0 
C 2.95804 -0.784481 2.646362 -1.536938 2.09165 -2.09165 
C 1.536938 -2.646362 0.784481 -2.95804 0 -2.95804 
C -0.784481 -2.95804 -1.536938 -2.646362 -2.09165 -2.09165 
C -2.646362 -1.536938 -2.95804 -0.784481 -2.95804 0 
C -2.95804 0.784481 -2.646362 1.536938 -2.09165 2.09165 
C -1.536938 2.646362 -0.784481 2.95804 0 2.95804 
z
" style="stroke: #ffffff; stroke-opacity: 0.65; stroke-width: 0.4"/>
    </defs>
    <g clip-path="url(#pc18a947474)">
     <use xlink:href="#m11bfa77330" x="56.966498" y="155.189541" style="fill: #3a9e6f; fill-opacity: 0.65; stroke: #ffffff; stroke-opacity: 0.65; stroke-width: 0.4"/>
     <use xlink:href="#m11bfa77330" x="56.966498" y="159.857286" style="fill: #3a9e6f; fill-opacity: 0.65; stroke: #ffffff; stroke-opacity: 0.65; stroke-width: 0.4"/>
     <use xlink:href="#m11bfa77330" x="56.966498" y="163.667849" style="fill: #3a9e6f; fill-opacity: 0.65; stroke: #ffffff; stroke-opacity: 0.65; stroke-width: 0.4"/>
     <use xlink:href="#m11bfa77330" x="56.966498" y="159.239076" style="fill: #3a9e6f; fill-opacity: 0.65; stroke: #ffffff; stroke-opacity: 0.65; stroke-width: 0.4"/>
     <use xlink:href="#m11bfa77330" x="56.966498" y="162.873008" style="fill: #3a9e6f; fill-opacity: 0.65; stroke: #ffffff; stroke-opacity: 0.65; stroke-width: 0.4"/>
    </g>
   </g>
   <g id="PathCollection_2">
    <defs>
     <path id="m610bde3ffe" d="M 0 2.95804 
C 0.784481 2.95804 1.536938 2.646362 2.09165 2.09165 
C 2.646362 1.536938 2.95804 0.784481 2.95804 0 
C 2.95804 -0.784481 2.646362 -1.536938 2.09165 -2.09165 
C 1.536938 -2.646362 0.784481 -2.95804 0 -2.95804 
C -0.784481 -2.95804 -1.536938 -2.646362 -2.09165 -2.09165 
C -2.646362 -1.536938 -2.95804 -0.784481 -2.95804 0 
C -2.95804 0.784481 -2.646362 1.536938 -2.09165 2.09165 
C -1.536938 2.646362 -0.784481 2.95804 0 2.95804 
z
" style="stroke: #ffffff; stroke-opacity: 0.65; stroke-width: 0.4"/>
    </defs>
    <g clip-path="url(#pc18a947474)">
     <use xlink:href="#m610bde3ffe" x="95.298638" y="137.601727" style="fill: #e67e22; fill-opacity: 0.65; stroke: #ffffff; stroke-opacity: 0.65; stroke-width: 0.4"/>
     <use xlink:href="#m610bde3ffe" x="95.298638" y="113.758537" style="fill: #e67e22; fill-opacity: 0.65; stroke: #ffffff; stroke-opacity: 0.65; stroke-width: 0.4"/>
     <use xlink:href="#m610bde3ffe" x="95.298638" y="123.310168" style="fill: #e67e22; fill-opacity: 0.65; stroke: #ffffff; stroke-opacity: 0.65; stroke-width: 0.4"/>
     <use xlink:href="#m610bde3ffe" x="95.298638" y="122.782871" style="fill: #e67e22; fill-opacity: 0.65; stroke: #ffffff; stroke-opacity: 0.65; stroke-width: 0.4"/>
     <use xlink:href="#m610bde3ffe" x="95.298638" y="122.219209" style="fill: #e67e22; fill-opacity: 0.65; stroke: #ffffff; stroke-opacity: 0.65; stroke-width: 0.4"/>
    </g>
   </g>
   <g id="PathCollection_3">
    <defs>
     <path id="m4e9f3e0d68" d="M 0 2.95804 
C 0.784481 2.95804 1.536938 2.646362 2.09165 2.09165 
C 2.646362 1.536938 2.95804 0.784481 2.95804 0 
C 2.95804 -0.784481 2.646362 -1.536938 2.09165 -2.09165 
C 1.536938 -2.646362 0.784481 -2.95804 0 -2.95804 
C -0.784481 -2.95804 -1.536938 -2.646362 -2.09165 -2.09165 
C -2.646362 -1.536938 -2.95804 -0.784481 -2.95804 0 
C -2.95804 0.784481 -2.646362 1.536938 -2.09165 2.09165 
C -1.536938 2.646362 -0.784481 2.95804 0 2.95804 
z
" style="stroke: #ffffff; stroke-opacity: 0.65; stroke-width: 0.4"/>
    </defs>
    <g clip-path="url(#pc18a947474)">
     <use xlink:href="#m4e9f3e0d68" x="128.154758" y="111.418717" style="fill: #5b8fc9; fill-opacity: 0.65; stroke: #ffffff; stroke-opacity: 0.65; stroke-width: 0.4"/>
     <use xlink:href="#m4e9f3e0d68" x="128.154758" y="120.481467" style="fill: #5b8fc9; fill-opacity: 0.65; stroke: #ffffff; stroke-opacity: 0.65; stroke-width: 0.4"/>
     <use xlink:href="#m4e9f3e0d68" x="128.154758" y="102.200116" style="fill: #5b8fc9; fill-opacity: 0.65; stroke: #ffffff; stroke-opacity: 0.65; stroke-width: 0.4"/>
     <use xlink:href="#m4e9f3e0d68" x="128.154758" y="119.421679" style="fill: #5b8fc9; fill-opacity: 0.65; stroke: #ffffff; stroke-opacity: 0.65; stroke-width: 0.4"/>
     <use xlink:href="#m4e9f3e0d68" x="128.154758" y="121.408782" style="fill: #5b8fc9; fill-opacity: 0.65; stroke: #ffffff; stroke-opacity: 0.65; stroke-width: 0.4"/>
    </g>
   </g>
   <g id="PathCollection_4">
    <defs>
     <path id="m5d2e93e557" d="M 0 2.95804 
C 0.784481 2.95804 1.536938 2.646362 2.09165 2.09165 
C 2.646362 1.536938 2.95804 0.784481 2.95804 0 
C 2.95804 -0.784481 2.646362 -1.536938 2.09165 -2.09165 
C 1.536938 -2.646362 0.784481 -2.95804 0 -2.95804 
C -0.784481 -2.95804 -1.536938 -2.646362 -2.09165 -2.09165 
C -2.646362 -1.536938 -2.95804 -0.784481 -2.95804 0 
C -2.95804 0.784481 -2.646362 1.536938 -2.09165 2.09165 
C -1.536938 2.646362 -0.784481 2.95804 0 2.95804 
z
" style="stroke: #ffffff; stroke-opacity: 0.65; stroke-width: 0.4"/>
    </defs>
    <g clip-path="url(#pc18a947474)">
     <use xlink:href="#m5d2e93e557" x="193.866999" y="81.228532" style="fill: #c0392b; fill-opacity: 0.65; stroke: #ffffff; stroke-opacity: 0.65; stroke-width: 0.4"/>
     <use xlink:href="#m5d2e93e557" x="193.866999" y="82.043754" style="fill: #c0392b; fill-opacity: 0.65; stroke: #ffffff; stroke-opacity: 0.65; stroke-width: 0.4"/>
     <use xlink:href="#m5d2e93e557" x="193.866999" y="100.293608" style="fill: #c0392b; fill-opacity: 0.65; stroke: #ffffff; stroke-opacity: 0.65; stroke-width: 0.4"/>
     <use xlink:href="#m5d2e93e557" x="193.866999" y="59.65603" style="fill: #c0392b; fill-opacity: 0.65; stroke: #ffffff; stroke-opacity: 0.65; stroke-width: 0.4"/>
     <use xlink:href="#m5d2e93e557" x="193.866999" y="64.516482" style="fill: #c0392b; fill-opacity: 0.65; stroke: #ffffff; stroke-opacity: 0.65; stroke-width: 0.4"/>
    </g>
   </g>
   <g id="text_15">
    <!-- $R^2$ = 0.884 -->
    <g transform="translate(178.051666 173.667402)">
     <text>
      <tspan x="0" y="-0.678125" style="font-style: oblique; font-size: 7px; font-family: 'DejaVu Sans'">R</tspan>
      <tspan x="5.355775" y="-3.357812" style="font-size: 4.9px; font-family: 'DejaVu Sans'">2</tspan>
      <tspan x="8.66471" y="-0.678125" style="font-size: 7px; font-family: 'Arial'"> </tspan>
      <tspan x="10.609535" y="-0.678125" style="font-size: 7px; font-family: 'Arial'">=</tspan>
      <tspan x="14.697425" y="-0.678125" style="font-size: 7px; font-family: 'Arial'"> </tspan>
      <tspan x="16.642249" y="-0.678125" style="font-size: 7px; font-family: 'Arial'">0</tspan>
      <tspan x="20.535316" y="-0.678125" style="font-size: 7px; font-family: 'Arial'">.</tspan>
      <tspan x="22.48014" y="-0.678125" style="font-size: 7px; font-family: 'Arial'">8</tspan>
      <tspan x="26.373206" y="-0.678125" style="font-size: 7px; font-family: 'Arial'">8</tspan>
      <tspan x="30.266273" y="-0.678125" style="font-size: 7px; font-family: 'Arial'">4</tspan>
     </text>
    </g>
    <text style="font-size: 7px; font-family: 'Arial', 'Helvetica', 'DejaVu Sans', sans-serif" transform="translate(169.402291 181.096152)">[0.776, 0.958]</text>
   </g>
   <g id="text_16">
    <text style="font-weight: 700; font-size: 12px; font-family: 'Arial', 'Helvetica', 'DejaVu Sans', sans-serif; text-anchor: start" x="8.010878" y="15.789375" transform="rotate(-0 8.010878 15.789375)">K</text>
   </g>
   <g id="legend_1">
    <g id="patch_5">
     <path d="M 44.738438 64.901996 
L 99.4275 64.901996 
Q 100.6275 64.901996 100.6275 63.701996 
L 100.6275 20.435433 
Q 100.6275 19.235433 99.4275 19.235433 
L 44.738438 19.235433 
Q 43.538438 19.235433 43.538438 20.435433 
L 43.538438 63.701996 
Q 43.538438 64.901996 44.738438 64.901996 
z
" style="fill: #ffffff; opacity: 0.9; stroke: #cccccc; stroke-linejoin: miter"/>
    </g>
    <g id="patch_6">
     <path d="M 45.338438 25.403246 
L 57.338438 25.403246 
L 57.338438 21.203246 
L 45.338438 21.203246 
z
" style="fill: #888888; fill-opacity: 0.08; stroke: #888888; stroke-opacity: 0.08; stroke-linejoin: miter"/>
    </g>
    <g id="text_17">
     <text style="font-size: 6px; font-family: 'Arial', 'Helvetica', 'DejaVu Sans', sans-serif; text-anchor: start" x="59.138438" y="25.403246" transform="rotate(-0 59.138438 25.403246)">95% prediction</text>
    </g>
    <g id="patch_7">
     <path d="M 45.338438 32.690433 
L 57.338438 32.690433 
L 57.338438 28.490433 
L 45.338438 28.490433 
z
" style="fill: #444444; fill-opacity: 0.18; stroke: #444444; stroke-opacity: 0.18; stroke-linejoin: miter"/>
    </g>
    <g id="text_18">
     <text style="font-size: 6px; font-family: 'Arial', 'Helvetica', 'DejaVu Sans', sans-serif; text-anchor: start" x="59.138438" y="32.690433" transform="rotate(-0 59.138438 32.690433)">95% CI</text>
    </g>
    <g id="PathCollection_5">
     <g>
      <use xlink:href="#m11bfa77330" x="51.338438" y="38.402621" style="fill: #3a9e6f; fill-opacity: 0.65; stroke: #ffffff; stroke-opacity: 0.65; stroke-width: 0.4"/>
     </g>
    </g>
    <g id="text_19">
     <text style="font-size: 6px; font-family: 'Arial', 'Helvetica', 'DejaVu Sans', sans-serif; text-anchor: start" x="59.138438" y="39.977621" transform="rotate(-0 59.138438 39.977621)">Agar</text>
    </g>
    <g id="PathCollection_6">
     <g>
      <use xlink:href="#m610bde3ffe" x="51.338438" y="45.760121" style="fill: #e67e22; fill-opacity: 0.65; stroke: #ffffff; stroke-opacity: 0.65; stroke-width: 0.4"/>
     </g>
    </g>
    <g id="text_20">
     <text style="font-size: 6px; font-family: 'Arial', 'Helvetica', 'DejaVu Sans', sans-serif; text-anchor: start" x="59.138438" y="47.335121" transform="rotate(-0 59.138438 47.335121)">0.5:1</text>
    </g>
    <g id="PathCollection_7">
     <g>
      <use xlink:href="#m4e9f3e0d68" x="51.338438" y="53.047308" style="fill: #5b8fc9; fill-opacity: 0.65; stroke: #ffffff; stroke-opacity: 0.65; stroke-width: 0.4"/>
     </g>
    </g>
    <g id="text_21">
     <text style="font-size: 6px; font-family: 'Arial', 'Helvetica', 'DejaVu Sans', sans-serif; text-anchor: start" x="59.138438" y="54.622308" transform="rotate(-0 59.138438 54.622308)">1:1</text>
    </g>
    <g id="PathCollection_8">
     <g>
      <use xlink:href="#m5d2e93e557" x="51.338438" y="60.334496" style="fill: #c0392b; fill-opacity: 0.65; stroke: #ffffff; stroke-opacity: 0.65; stroke-width: 0.4"/>
     </g>
    </g>
    <g id="text_22">
     <text style="font-size: 6px; font-family: 'Arial', 'Helvetica', 'DejaVu Sans', sans-serif; text-anchor: start" x="59.138438" y="61.909496" transform="rotate(-0 59.138438 61.909496)">2:1</text>
    </g>
   </g>
  </g>
 </g>
 <defs>
  <clipPath id="pc18a947474">
   <rect x="40.538438" y="16.235433" width="180.708661" height="180.708661"/>
  </clipPath>
 </defs>
</svg>
