<?xml version="1.0" encoding="utf-8" standalone="no"?>
<!DOCTYPE svg PUBLIC "-//W3C//DTD SVG 1.1//EN"
  "http://www.w3.org/Graphics/SVG/1.1/DTD/svg11.dtd">
<svg xmlns:xlink="http://www.w3.org/1999/xlink" width="222.264855pt" height="223.754829pt" viewBox="0 0 222.264855 223.754829" xmlns="http://www.w3.org/2000/svg" version="1.1">
 <metadata>
  <rdf:RDF xmlns:dc="http://purl.org/dc/elements/1.1/" xmlns:cc="http://creativecommons.org/ns#" xmlns:rdf="http://www.w3.org/1999/02/22-rdf-syntax-ns#">
   <cc:Work>
    <dc:type rdf:resource="http://purl.org/dc/dcmitype/StillImage"/>
    <dc:date>2026-03-29T23:02:15.747831</dc:date>
    <dc:format>image/svg+xml</dc:format>
    <dc:creator>
     <cc:Agent>
      <dc:title>Matplotlib v3.10.8, https://matplotlib.org/</dc:title>
     </cc:Agent>
    </dc:creator>
   </cc:Work>
  </rdf:RDF>
 </metadata>
 <defs>
  <style type="text/css">*{stroke-linejoin: round; stroke-linecap: butt}</style>
 </defs>
 <g id="figure_1">
  <g id="patch_1">
   <path d="M 0 223.754829 
L 222.264855 223.754829 
L 222.264855 0 
L 0 0 
z
" style="fill: #ffffff"/>
  </g>
  <g id="axes_1">
   <g id="patch_2">
    <path d="M 41.538438 190.31811 
L 210.199855 190.31811 
L 210.199855 7.2 
L 41.538438 7.2 
z
" style="fill: #ffffff"/>
   </g>
   <g id="FillBetweenPolyCollection_1">
    <defs>
     <path id="m6076e37b9a" d="M 46.64939 -100.504213 
L 46.64939 -41.760269 
L 47.471251 -42.341059 
L 48.293113 -42.9265 
L 49.114974 -43.531797 
L 49.936836 -44.102762 
L 50.758698 -44.675944 
L 51.580559 -45.26824 
L 52.402421 -45.845489 
L 53.224283 -46.409745 
L 54.046144 -47.002451 
L 54.868006 -47.573248 
L 55.689868 -48.146108 
L 56.511729 -48.716193 
L 57.333591 -49.284536 
L 58.155452 -49.854783 
L 58.977314 -50.413207 
L 59.799176 -50.989597 
L 60.621037 -51.564637 
L 61.442899 -52.135927 
L 62.264761 -52.680961 
L 63.086622 -53.245271 
L 63.908484 -53.816543 
L 64.730346 -54.363725 
L 65.552207 -54.917976 
L 66.374069 -55.465343 
L 67.19593 -56.030926 
L 68.017792 -56.592685 
L 68.839654 -57.152851 
L 69.661515 -57.701089 
L 70.483377 -58.255327 
L 71.305239 -58.805843 
L 72.1271 -59.353749 
L 72.948962 -59.910511 
L 73.770823 -60.447377 
L 74.592685 -61.001038 
L 75.414547 -61.537722 
L 76.236408 -62.090225 
L 77.05827 -62.625683 
L 77.880132 -63.160551 
L 78.701993 -63.718002 
L 79.523855 -64.251992 
L 80.345717 -64.76843 
L 81.167578 -65.297481 
L 81.98944 -65.833194 
L 82.811301 -66.368336 
L 83.633163 -66.89868 
L 84.455025 -67.42526 
L 85.276886 -67.949321 
L 86.098748 -68.474236 
L 86.92061 -68.999342 
L 87.742471 -69.517288 
L 88.564333 -70.040681 
L 89.386195 -70.568199 
L 90.208056 -71.090085 
L 91.029918 -71.596354 
L 91.851779 -72.107045 
L 92.673641 -72.646314 
L 93.495503 -73.152809 
L 94.317364 -73.64724 
L 95.139226 -74.142734 
L 95.961088 -74.649667 
L 96.782949 -75.16758 
L 97.604811 -75.67264 
L 98.426673 -76.164861 
L 99.248534 -76.64331 
L 100.070396 -77.135164 
L 100.892257 -77.631777 
L 101.714119 -78.120387 
L 102.535981 -78.613864 
L 103.357842 -79.0994 
L 104.179704 -79.595702 
L 105.001566 -80.076996 
L 105.823427 -80.548783 
L 106.645289 -81.023986 
L 107.46715 -81.521779 
L 108.289012 -82.004136 
L 109.110874 -82.49258 
L 109.932735 -82.981447 
L 110.754597 -83.472457 
L 111.576459 -83.951428 
L 112.39832 -84.427966 
L 113.220182 -84.882787 
L 114.042044 -85.342292 
L 114.863905 -85.804292 
L 115.685767 -86.264331 
L 116.507628 -86.708614 
L 117.32949 -87.172832 
L 118.151352 -87.621084 
L 118.973213 -88.083176 
L 119.795075 -88.532107 
L 120.616937 -88.970007 
L 121.438798 -89.429197 
L 122.26066 -89.888237 
L 123.082522 -90.344096 
L 123.904383 -90.800168 
L 124.726245 -91.262383 
L 125.548106 -91.715533 
L 126.369968 -92.162403 
L 127.19183 -92.605602 
L 128.013691 -93.050944 
L 128.835553 -93.503504 
L 129.657415 -93.986399 
L 130.479276 -94.46044 
L 131.301138 -94.911813 
L 132.123 -95.37118 
L 132.944861 -95.829708 
L 133.766723 -96.281586 
L 134.588584 -96.730621 
L 135.410446 -97.155406 
L 136.232308 -97.590938 
L 137.054169 -98.038771 
L 137.876031 -98.480108 
L 138.697893 -98.938973 
L 139.519754 -99.37723 
L 140.341616 -99.826518 
L 141.163478 -100.273621 
L 141.985339 -100.723654 
L 142.807201 -101.163753 
L 143.629062 -101.596815 
L 144.450924 -102.041599 
L 145.272786 -102.479611 
L 146.094647 -102.886523 
L 146.916509 -103.337318 
L 147.738371 -103.751402 
L 148.560232 -104.179349 
L 149.382094 -104.611019 
L 150.203955 -105.042929 
L 151.025817 -105.463916 
L 151.847679 -105.885054 
L 152.66954 -106.325794 
L 153.491402 -106.747502 
L 154.313264 -107.188521 
L 155.135125 -107.631944 
L 155.956987 -108.051225 
L 156.778849 -108.470801 
L 157.60071 -108.902841 
L 158.422572 -109.294096 
L 159.244433 -109.7243 
L 160.066295 -110.143166 
L 160.888157 -110.567463 
L 161.710018 -110.985559 
L 162.53188 -111.424919 
L 163.353742 -111.8571 
L 164.175603 -112.302688 
L 164.997465 -112.737349 
L 165.819327 -113.153653 
L 166.641188 -113.559731 
L 167.46305 -113.979034 
L 168.284911 -114.409579 
L 169.106773 -114.822608 
L 169.928635 -115.237171 
L 170.750496 -115.662224 
L 171.572358 -116.090065 
L 172.39422 -116.512365 
L 173.216081 -116.930267 
L 174.037943 -117.342747 
L 174.859805 -117.758218 
L 175.681666 -118.175877 
L 176.503528 -118.616384 
L 177.325389 -119.029241 
L 178.147251 -119.447574 
L 178.969113 -119.861348 
L 179.790974 -120.273993 
L 180.612836 -120.694655 
L 181.434698 -121.121109 
L 182.256559 -121.542355 
L 183.078421 -121.95492 
L 183.900283 -122.363853 
L 184.722144 -122.784866 
L 185.544006 -123.211808 
L 186.365867 -123.626267 
L 187.187729 -124.04989 
L 188.009591 -124.470316 
L 188.831452 -124.883721 
L 189.653314 -125.300626 
L 190.475176 -125.720099 
L 191.297037 -126.139124 
L 192.118899 -126.545947 
L 192.94076 -126.964258 
L 193.762622 -127.396046 
L 194.584484 -127.81671 
L 195.406345 -128.236003 
L 196.228207 -128.655296 
L 197.050069 -129.070558 
L 197.87193 -129.477569 
L 198.693792 -129.889535 
L 199.515654 -130.305134 
L 200.337515 -130.722331 
L 201.159377 -131.142159 
L 201.981238 -131.564492 
L 202.8031 -131.985407 
L 203.624962 -132.406291 
L 204.446823 -132.82719 
L 205.268685 -133.248347 
L 206.090547 -133.668939 
L 206.912408 -134.079065 
L 207.73427 -134.487987 
L 208.556132 -134.902678 
L 209.377993 -135.315332 
L 210.199855 -135.747863 
L 210.199855 -208.231279 
L 210.199855 -208.231279 
L 209.377993 -207.632016 
L 208.556132 -207.02907 
L 207.73427 -206.434287 
L 206.912408 -205.826309 
L 206.090547 -205.220164 
L 205.268685 -204.609021 
L 204.446823 -204.007629 
L 203.624962 -203.39275 
L 202.8031 -202.778185 
L 201.981238 -202.180831 
L 201.159377 -201.578302 
L 200.337515 -200.966219 
L 199.515654 -200.355559 
L 198.693792 -199.752246 
L 197.87193 -199.154844 
L 197.050069 -198.557262 
L 196.228207 -197.956836 
L 195.406345 -197.360784 
L 194.584484 -196.75845 
L 193.762622 -196.161682 
L 192.94076 -195.570879 
L 192.118899 -194.954821 
L 191.297037 -194.348997 
L 190.475176 -193.749987 
L 189.653314 -193.158756 
L 188.831452 -192.541222 
L 188.009591 -191.938602 
L 187.187729 -191.335834 
L 186.365867 -190.730586 
L 185.544006 -190.121079 
L 184.722144 -189.507072 
L 183.900283 -188.902435 
L 183.078421 -188.304641 
L 182.256559 -187.697056 
L 181.434698 -187.088907 
L 180.612836 -186.480823 
L 179.790974 -185.884611 
L 178.969113 -185.289711 
L 178.147251 -184.692106 
L 177.325389 -184.079799 
L 176.503528 -183.459565 
L 175.681666 -182.842877 
L 174.859805 -182.227695 
L 174.037943 -181.640311 
L 173.216081 -181.049081 
L 172.39422 -180.437993 
L 171.572358 -179.84086 
L 170.750496 -179.242739 
L 169.928635 -178.630624 
L 169.106773 -178.04134 
L 168.284911 -177.454764 
L 167.46305 -176.849658 
L 166.641188 -176.235643 
L 165.819327 -175.641188 
L 164.997465 -175.059209 
L 164.175603 -174.442369 
L 163.353742 -173.805924 
L 162.53188 -173.19792 
L 161.710018 -172.606298 
L 160.888157 -172.010923 
L 160.066295 -171.399778 
L 159.244433 -170.79064 
L 158.422572 -170.177727 
L 157.60071 -169.56745 
L 156.778849 -168.973986 
L 155.956987 -168.369896 
L 155.135125 -167.766449 
L 154.313264 -167.183337 
L 153.491402 -166.611221 
L 152.66954 -165.999669 
L 151.847679 -165.374179 
L 151.025817 -164.776808 
L 150.203955 -164.181056 
L 149.382094 -163.584103 
L 148.560232 -162.985557 
L 147.738371 -162.390011 
L 146.916509 -161.794504 
L 146.094647 -161.209149 
L 145.272786 -160.621373 
L 144.450924 -160.014045 
L 143.629062 -159.415705 
L 142.807201 -158.816957 
L 141.985339 -158.221262 
L 141.163478 -157.62482 
L 140.341616 -157.047331 
L 139.519754 -156.453617 
L 138.697893 -155.875938 
L 137.876031 -155.276185 
L 137.054169 -154.688231 
L 136.232308 -154.114338 
L 135.410446 -153.530876 
L 134.588584 -152.947687 
L 133.766723 -152.358908 
L 132.944861 -151.785877 
L 132.123 -151.204174 
L 131.301138 -150.613233 
L 130.479276 -150.016869 
L 129.657415 -149.444596 
L 128.835553 -148.877003 
L 128.013691 -148.278621 
L 127.19183 -147.693024 
L 126.369968 -147.144068 
L 125.548106 -146.590294 
L 124.726245 -145.998466 
L 123.904383 -145.443406 
L 123.082522 -144.855959 
L 122.26066 -144.275694 
L 121.438798 -143.713024 
L 120.616937 -143.143663 
L 119.795075 -142.591593 
L 118.973213 -142.015048 
L 118.151352 -141.469179 
L 117.32949 -140.915061 
L 116.507628 -140.345952 
L 115.685767 -139.781734 
L 114.863905 -139.217688 
L 114.042044 -138.665246 
L 113.220182 -138.10789 
L 112.39832 -137.575333 
L 111.576459 -137.028262 
L 110.754597 -136.497195 
L 109.932735 -135.958577 
L 109.110874 -135.401407 
L 108.289012 -134.859043 
L 107.46715 -134.336066 
L 106.645289 -133.821909 
L 105.823427 -133.267703 
L 105.001566 -132.737381 
L 104.179704 -132.222295 
L 103.357842 -131.705763 
L 102.535981 -131.181497 
L 101.714119 -130.641509 
L 100.892257 -130.146461 
L 100.070396 -129.636324 
L 99.248534 -129.160396 
L 98.426673 -128.625617 
L 97.604811 -128.125238 
L 96.782949 -127.626019 
L 95.961088 -127.131527 
L 95.139226 -126.653901 
L 94.317364 -126.155026 
L 93.495503 -125.657624 
L 92.673641 -125.194396 
L 91.851779 -124.709236 
L 91.029918 -124.242348 
L 90.208056 -123.788905 
L 89.386195 -123.312971 
L 88.564333 -122.855047 
L 87.742471 -122.380569 
L 86.92061 -121.923326 
L 86.098748 -121.499119 
L 85.276886 -121.040323 
L 84.455025 -120.585974 
L 83.633163 -120.134617 
L 82.811301 -119.694244 
L 81.98944 -119.254617 
L 81.167578 -118.812849 
L 80.345717 -118.34307 
L 79.523855 -117.881384 
L 78.701993 -117.43693 
L 77.880132 -117.00206 
L 77.05827 -116.580607 
L 76.236408 -116.139049 
L 75.414547 -115.683153 
L 74.592685 -115.260089 
L 73.770823 -114.818382 
L 72.948962 -114.369275 
L 72.1271 -113.928689 
L 71.305239 -113.474199 
L 70.483377 -113.037483 
L 69.661515 -112.599085 
L 68.839654 -112.161771 
L 68.017792 -111.718975 
L 67.19593 -111.309042 
L 66.374069 -110.856964 
L 65.552207 -110.418819 
L 64.730346 -109.979699 
L 63.908484 -109.541077 
L 63.086622 -109.119899 
L 62.264761 -108.666096 
L 61.442899 -108.234209 
L 60.621037 -107.799142 
L 59.799176 -107.363819 
L 58.977314 -106.927892 
L 58.155452 -106.497409 
L 57.333591 -106.059534 
L 56.511729 -105.605412 
L 55.689868 -105.151024 
L 54.868006 -104.732141 
L 54.046144 -104.317574 
L 53.224283 -103.894202 
L 52.402421 -103.487629 
L 51.580559 -103.090035 
L 50.758698 -102.66281 
L 49.936836 -102.208849 
L 49.114974 -101.804688 
L 48.293113 -101.362685 
L 47.471251 -100.921327 
L 46.64939 -100.504213 
z
" style="stroke: #333333; stroke-opacity: 0.06"/>
    </defs>
    <g clip-path="url(#p991c5d19a4)">
     <use xlink:href="#m6076e37b9a" x="0" y="223.754829" style="fill: #333333; fill-opacity: 0.06; stroke: #333333; stroke-opacity: 0.06"/>
    </g>
   </g>
   <g id="FillBetweenPolyCollection_2">
    <defs>
     <path id="me72bc1c31c" d="M 46.64939 -78.627207 
L 46.64939 -63.637275 
L 47.471251 -64.218064 
L 48.293113 -64.803506 
L 49.114974 -65.408802 
L 49.936836 -65.979768 
L 50.758698 -66.552949 
L 51.580559 -67.145245 
L 52.402421 -67.722494 
L 53.224283 -68.28675 
L 54.046144 -68.879456 
L 54.868006 -69.450253 
L 55.689868 -70.023114 
L 56.511729 -70.593199 
L 57.333591 -71.161541 
L 58.155452 -71.731789 
L 58.977314 -72.290213 
L 59.799176 -72.866603 
L 60.621037 -73.441642 
L 61.442899 -74.012932 
L 62.264761 -74.557966 
L 63.086622 -75.122276 
L 63.908484 -75.693548 
L 64.730346 -76.24073 
L 65.552207 -76.794981 
L 66.374069 -77.342348 
L 67.19593 -77.907932 
L 68.017792 -78.46969 
L 68.839654 -79.029857 
L 69.661515 -79.578095 
L 70.483377 -80.132332 
L 71.305239 -80.682849 
L 72.1271 -81.230754 
L 72.948962 -81.787516 
L 73.770823 -82.324382 
L 74.592685 -82.878043 
L 75.414547 -83.414728 
L 76.236408 -83.96723 
L 77.05827 -84.502688 
L 77.880132 -85.037557 
L 78.701993 -85.595008 
L 79.523855 -86.128997 
L 80.345717 -86.645435 
L 81.167578 -87.174487 
L 81.98944 -87.7102 
L 82.811301 -88.245341 
L 83.633163 -88.775685 
L 84.455025 -89.302265 
L 85.276886 -89.826327 
L 86.098748 -90.351241 
L 86.92061 -90.876347 
L 87.742471 -91.394294 
L 88.564333 -91.917686 
L 89.386195 -92.445205 
L 90.208056 -92.96709 
L 91.029918 -93.47336 
L 91.851779 -93.984051 
L 92.673641 -94.523319 
L 93.495503 -95.029814 
L 94.317364 -95.524245 
L 95.139226 -96.019739 
L 95.961088 -96.526673 
L 96.782949 -97.044585 
L 97.604811 -97.549646 
L 98.426673 -98.041866 
L 99.248534 -98.520315 
L 100.070396 -99.01217 
L 100.892257 -99.508783 
L 101.714119 -99.997392 
L 102.535981 -100.49087 
L 103.357842 -100.976406 
L 104.179704 -101.472707 
L 105.001566 -101.954001 
L 105.823427 -102.425789 
L 106.645289 -102.900991 
L 107.46715 -103.398785 
L 108.289012 -103.881141 
L 109.110874 -104.369585 
L 109.932735 -104.858452 
L 110.754597 -105.349463 
L 111.576459 -105.828434 
L 112.39832 -106.304972 
L 113.220182 -106.759793 
L 114.042044 -107.219297 
L 114.863905 -107.681297 
L 115.685767 -108.141336 
L 116.507628 -108.58562 
L 117.32949 -109.049838 
L 118.151352 -109.498089 
L 118.973213 -109.960181 
L 119.795075 -110.409113 
L 120.616937 -110.847012 
L 121.438798 -111.306203 
L 122.26066 -111.765242 
L 123.082522 -112.221102 
L 123.904383 -112.677173 
L 124.726245 -113.139388 
L 125.548106 -113.592538 
L 126.369968 -114.039408 
L 127.19183 -114.482608 
L 128.013691 -114.92795 
L 128.835553 -115.38051 
L 129.657415 -115.863404 
L 130.479276 -116.337446 
L 131.301138 -116.788818 
L 132.123 -117.248186 
L 132.944861 -117.706713 
L 133.766723 -118.158592 
L 134.588584 -118.607626 
L 135.410446 -119.032412 
L 136.232308 -119.467944 
L 137.054169 -119.915777 
L 137.876031 -120.357114 
L 138.697893 -120.815978 
L 139.519754 -121.254236 
L 140.341616 -121.703523 
L 141.163478 -122.150626 
L 141.985339 -122.600659 
L 142.807201 -123.040758 
L 143.629062 -123.473821 
L 144.450924 -123.918604 
L 145.272786 -124.356616 
L 146.094647 -124.763529 
L 146.916509 -125.214323 
L 147.738371 -125.628407 
L 148.560232 -126.056354 
L 149.382094 -126.488025 
L 150.203955 -126.919934 
L 151.025817 -127.340921 
L 151.847679 -127.762059 
L 152.66954 -128.202799 
L 153.491402 -128.624507 
L 154.313264 -129.065526 
L 155.135125 -129.508949 
L 155.956987 -129.92823 
L 156.778849 -130.347806 
L 157.60071 -130.779846 
L 158.422572 -131.171101 
L 159.244433 -131.601306 
L 160.066295 -132.020172 
L 160.888157 -132.444468 
L 161.710018 -132.862564 
L 162.53188 -133.301924 
L 163.353742 -133.734105 
L 164.175603 -134.179694 
L 164.997465 -134.614354 
L 165.819327 -135.030659 
L 166.641188 -135.436737 
L 167.46305 -135.85604 
L 168.284911 -136.286585 
L 169.106773 -136.699614 
L 169.928635 -137.114176 
L 170.750496 -137.539229 
L 171.572358 -137.967071 
L 172.39422 -138.389371 
L 173.216081 -138.807272 
L 174.037943 -139.219753 
L 174.859805 -139.635223 
L 175.681666 -140.052882 
L 176.503528 -140.49339 
L 177.325389 -140.906247 
L 178.147251 -141.32458 
L 178.969113 -141.738353 
L 179.790974 -142.150998 
L 180.612836 -142.57166 
L 181.434698 -142.998115 
L 182.256559 -143.41936 
L 183.078421 -143.831925 
L 183.900283 -144.240858 
L 184.722144 -144.661871 
L 185.544006 -145.088814 
L 186.365867 -145.503272 
L 187.187729 -145.926895 
L 188.009591 -146.347322 
L 188.831452 -146.760727 
L 189.653314 -147.177631 
L 190.475176 -147.597104 
L 191.297037 -148.01613 
L 192.118899 -148.422953 
L 192.94076 -148.841263 
L 193.762622 -149.273051 
L 194.584484 -149.693715 
L 195.406345 -150.113008 
L 196.228207 -150.532302 
L 197.050069 -150.947564 
L 197.87193 -151.354574 
L 198.693792 -151.76654 
L 199.515654 -152.18214 
L 200.337515 -152.599337 
L 201.159377 -153.019165 
L 201.981238 -153.441498 
L 202.8031 -153.862413 
L 203.624962 -154.283296 
L 204.446823 -154.704195 
L 205.268685 -155.125352 
L 206.090547 -155.545944 
L 206.912408 -155.95607 
L 207.73427 -156.364993 
L 208.556132 -156.779684 
L 209.377993 -157.192338 
L 210.199855 -157.624868 
L 210.199855 -186.354273 
L 210.199855 -186.354273 
L 209.377993 -185.755011 
L 208.556132 -185.152065 
L 207.73427 -184.557281 
L 206.912408 -183.949304 
L 206.090547 -183.343158 
L 205.268685 -182.732016 
L 204.446823 -182.130623 
L 203.624962 -181.515744 
L 202.8031 -180.90118 
L 201.981238 -180.303825 
L 201.159377 -179.701296 
L 200.337515 -179.089214 
L 199.515654 -178.478553 
L 198.693792 -177.87524 
L 197.87193 -177.277839 
L 197.050069 -176.680256 
L 196.228207 -176.07983 
L 195.406345 -175.483778 
L 194.584484 -174.881445 
L 193.762622 -174.284676 
L 192.94076 -173.693874 
L 192.118899 -173.077815 
L 191.297037 -172.471992 
L 190.475176 -171.872982 
L 189.653314 -171.28175 
L 188.831452 -170.664216 
L 188.009591 -170.061597 
L 187.187729 -169.458829 
L 186.365867 -168.853581 
L 185.544006 -168.244074 
L 184.722144 -167.630067 
L 183.900283 -167.025429 
L 183.078421 -166.427636 
L 182.256559 -165.820051 
L 181.434698 -165.211902 
L 180.612836 -164.603818 
L 179.790974 -164.007606 
L 178.969113 -163.412705 
L 178.147251 -162.815101 
L 177.325389 -162.202794 
L 176.503528 -161.582559 
L 175.681666 -160.965872 
L 174.859805 -160.35069 
L 174.037943 -159.763306 
L 173.216081 -159.172075 
L 172.39422 -158.560987 
L 171.572358 -157.963854 
L 170.750496 -157.365734 
L 169.928635 -156.753618 
L 169.106773 -156.164335 
L 168.284911 -155.577759 
L 167.46305 -154.972652 
L 166.641188 -154.358637 
L 165.819327 -153.764183 
L 164.997465 -153.182204 
L 164.175603 -152.565364 
L 163.353742 -151.928919 
L 162.53188 -151.320915 
L 161.710018 -150.729292 
L 160.888157 -150.133917 
L 160.066295 -149.522773 
L 159.244433 -148.913635 
L 158.422572 -148.300722 
L 157.60071 -147.690444 
L 156.778849 -147.096981 
L 155.956987 -146.492891 
L 155.135125 -145.889444 
L 154.313264 -145.306332 
L 153.491402 -144.734216 
L 152.66954 -144.122663 
L 151.847679 -143.497173 
L 151.025817 -142.899803 
L 150.203955 -142.304051 
L 149.382094 -141.707097 
L 148.560232 -141.108552 
L 147.738371 -140.513005 
L 146.916509 -139.917499 
L 146.094647 -139.332144 
L 145.272786 -138.744368 
L 144.450924 -138.13704 
L 143.629062 -137.5387 
L 142.807201 -136.939952 
L 141.985339 -136.344256 
L 141.163478 -135.747815 
L 140.341616 -135.170326 
L 139.519754 -134.576611 
L 138.697893 -133.998932 
L 137.876031 -133.399179 
L 137.054169 -132.811226 
L 136.232308 -132.237333 
L 135.410446 -131.653871 
L 134.588584 -131.070682 
L 133.766723 -130.481902 
L 132.944861 -129.908871 
L 132.123 -129.327168 
L 131.301138 -128.736228 
L 130.479276 -128.139863 
L 129.657415 -127.567591 
L 128.835553 -126.999998 
L 128.013691 -126.401616 
L 127.19183 -125.816018 
L 126.369968 -125.267063 
L 125.548106 -124.713288 
L 124.726245 -124.121461 
L 123.904383 -123.5664 
L 123.082522 -122.978953 
L 122.26066 -122.398689 
L 121.438798 -121.836018 
L 120.616937 -121.266658 
L 119.795075 -120.714588 
L 118.973213 -120.138043 
L 118.151352 -119.592173 
L 117.32949 -119.038055 
L 116.507628 -118.468947 
L 115.685767 -117.904729 
L 114.863905 -117.340682 
L 114.042044 -116.788241 
L 113.220182 -116.230884 
L 112.39832 -115.698327 
L 111.576459 -115.151257 
L 110.754597 -114.620189 
L 109.932735 -114.081571 
L 109.110874 -113.524402 
L 108.289012 -112.982037 
L 107.46715 -112.459061 
L 106.645289 -111.944903 
L 105.823427 -111.390698 
L 105.001566 -110.860376 
L 104.179704 -110.34529 
L 103.357842 -109.828758 
L 102.535981 -109.304492 
L 101.714119 -108.764504 
L 100.892257 -108.269455 
L 100.070396 -107.759319 
L 99.248534 -107.28339 
L 98.426673 -106.748611 
L 97.604811 -106.248233 
L 96.782949 -105.749014 
L 95.961088 -105.254522 
L 95.139226 -104.776895 
L 94.317364 -104.278021 
L 93.495503 -103.780619 
L 92.673641 -103.317391 
L 91.851779 -102.832231 
L 91.029918 -102.365343 
L 90.208056 -101.911899 
L 89.386195 -101.435966 
L 88.564333 -100.978042 
L 87.742471 -100.503564 
L 86.92061 -100.046321 
L 86.098748 -99.622113 
L 85.276886 -99.163318 
L 84.455025 -98.708968 
L 83.633163 -98.257612 
L 82.811301 -97.817239 
L 81.98944 -97.377612 
L 81.167578 -96.935844 
L 80.345717 -96.466065 
L 79.523855 -96.004379 
L 78.701993 -95.559925 
L 77.880132 -95.125054 
L 77.05827 -94.703601 
L 76.236408 -94.262043 
L 75.414547 -93.806148 
L 74.592685 -93.383084 
L 73.770823 -92.941376 
L 72.948962 -92.492269 
L 72.1271 -92.051683 
L 71.305239 -91.597194 
L 70.483377 -91.160478 
L 69.661515 -90.722079 
L 68.839654 -90.284766 
L 68.017792 -89.841969 
L 67.19593 -89.432037 
L 66.374069 -88.979959 
L 65.552207 -88.541814 
L 64.730346 -88.102693 
L 63.908484 -87.664071 
L 63.086622 -87.242894 
L 62.264761 -86.789091 
L 61.442899 -86.357204 
L 60.621037 -85.922136 
L 59.799176 -85.486813 
L 58.977314 -85.050887 
L 58.155452 -84.620403 
L 57.333591 -84.182528 
L 56.511729 -83.728406 
L 55.689868 -83.274019 
L 54.868006 -82.855136 
L 54.046144 -82.440569 
L 53.224283 -82.017196 
L 52.402421 -81.610624 
L 51.580559 -81.21303 
L 50.758698 -80.785805 
L 49.936836 -80.331844 
L 49.114974 -79.927683 
L 48.293113 -79.48568 
L 47.471251 -79.044321 
L 46.64939 -78.627207 
z
" style="stroke: #333333; stroke-opacity: 0.15"/>
    </defs>
    <g clip-path="url(#p991c5d19a4)">
     <use xlink:href="#me72bc1c31c" x="0" y="223.754829" style="fill: #333333; fill-opacity: 0.15; stroke: #333333; stroke-opacity: 0.15"/>
    </g>
   </g>
   <g id="FillBetweenPolyCollection_3">
    <defs>
     <path id="m5a4a6fcac5" d="M 46.64939 -68.352393 
L 46.64939 -54.848568 
L 47.471251 -55.384557 
L 48.293113 -55.926301 
L 49.114974 -56.464561 
L 49.936836 -56.998787 
L 50.758698 -57.54609 
L 51.580559 -58.07592 
L 52.402421 -58.596036 
L 53.224283 -59.13739 
L 54.046144 -59.689625 
L 54.868006 -60.212769 
L 55.689868 -60.732114 
L 56.511729 -61.285293 
L 57.333591 -61.831874 
L 58.155452 -62.34625 
L 58.977314 -62.857519 
L 59.799176 -63.395847 
L 60.621037 -63.911989 
L 61.442899 -64.431414 
L 62.264761 -64.958646 
L 63.086622 -65.488077 
L 63.908484 -65.995869 
L 64.730346 -66.492351 
L 65.552207 -67.006388 
L 66.374069 -67.538892 
L 67.19593 -68.04758 
L 68.017792 -68.566347 
L 68.839654 -69.062317 
L 69.661515 -69.57427 
L 70.483377 -70.089455 
L 71.305239 -70.590257 
L 72.1271 -71.082891 
L 72.948962 -71.583178 
L 73.770823 -72.074523 
L 74.592685 -72.562029 
L 75.414547 -73.051509 
L 76.236408 -73.551173 
L 77.05827 -74.040914 
L 77.880132 -74.526172 
L 78.701993 -75.046291 
L 79.523855 -75.536429 
L 80.345717 -76.02435 
L 81.167578 -76.517711 
L 81.98944 -77.011651 
L 82.811301 -77.503018 
L 83.633163 -78.001182 
L 84.455025 -78.480358 
L 85.276886 -78.970925 
L 86.098748 -79.446844 
L 86.92061 -79.929448 
L 87.742471 -80.412218 
L 88.564333 -80.889187 
L 89.386195 -81.363047 
L 90.208056 -81.825931 
L 91.029918 -82.292168 
L 91.851779 -82.763333 
L 92.673641 -83.234307 
L 93.495503 -83.706551 
L 94.317364 -84.177973 
L 95.139226 -84.643012 
L 95.961088 -85.103005 
L 96.782949 -85.561008 
L 97.604811 -86.020477 
L 98.426673 -86.486356 
L 99.248534 -86.935332 
L 100.070396 -87.398666 
L 100.892257 -87.868101 
L 101.714119 -88.329823 
L 102.535981 -88.765181 
L 103.357842 -89.216595 
L 104.179704 -89.667308 
L 105.001566 -90.124673 
L 105.823427 -90.564416 
L 106.645289 -91.007449 
L 107.46715 -91.454639 
L 108.289012 -91.916834 
L 109.110874 -92.357457 
L 109.932735 -92.812901 
L 110.754597 -93.257738 
L 111.576459 -93.698278 
L 112.39832 -94.141339 
L 113.220182 -94.588788 
L 114.042044 -95.043673 
L 114.863905 -95.487529 
L 115.685767 -95.912814 
L 116.507628 -96.358411 
L 117.32949 -96.783808 
L 118.151352 -97.211859 
L 118.973213 -97.652032 
L 119.795075 -98.078304 
L 120.616937 -98.505775 
L 121.438798 -98.925229 
L 122.26066 -99.343894 
L 123.082522 -99.779204 
L 123.904383 -100.195575 
L 124.726245 -100.638716 
L 125.548106 -101.08083 
L 126.369968 -101.520175 
L 127.19183 -101.948463 
L 128.013691 -102.388456 
L 128.835553 -102.814354 
L 129.657415 -103.24353 
L 130.479276 -103.669956 
L 131.301138 -104.090438 
L 132.123 -104.523875 
L 132.944861 -104.94125 
L 133.766723 -105.368406 
L 134.588584 -105.775311 
L 135.410446 -106.201222 
L 136.232308 -106.638648 
L 137.054169 -107.049352 
L 137.876031 -107.49686 
L 138.697893 -107.924585 
L 139.519754 -108.352317 
L 140.341616 -108.771923 
L 141.163478 -109.182317 
L 141.985339 -109.593923 
L 142.807201 -110.030735 
L 143.629062 -110.420692 
L 144.450924 -110.8277 
L 145.272786 -111.251217 
L 146.094647 -111.652865 
L 146.916509 -112.068407 
L 147.738371 -112.477839 
L 148.560232 -112.879647 
L 149.382094 -113.278739 
L 150.203955 -113.685349 
L 151.025817 -114.106265 
L 151.847679 -114.51944 
L 152.66954 -114.93751 
L 153.491402 -115.354382 
L 154.313264 -115.754189 
L 155.135125 -116.175795 
L 155.956987 -116.602363 
L 156.778849 -117.013948 
L 157.60071 -117.435747 
L 158.422572 -117.843134 
L 159.244433 -118.261342 
L 160.066295 -118.666832 
L 160.888157 -119.086937 
L 161.710018 -119.516137 
L 162.53188 -119.924096 
L 163.353742 -120.327168 
L 164.175603 -120.750423 
L 164.997465 -121.154039 
L 165.819327 -121.571994 
L 166.641188 -121.990109 
L 167.46305 -122.3972 
L 168.284911 -122.82033 
L 169.106773 -123.214651 
L 169.928635 -123.62327 
L 170.750496 -124.037321 
L 171.572358 -124.440101 
L 172.39422 -124.848176 
L 173.216081 -125.238181 
L 174.037943 -125.647118 
L 174.859805 -126.065443 
L 175.681666 -126.4627 
L 176.503528 -126.85957 
L 177.325389 -127.256181 
L 178.147251 -127.667107 
L 178.969113 -128.058071 
L 179.790974 -128.457228 
L 180.612836 -128.85597 
L 181.434698 -129.24331 
L 182.256559 -129.638244 
L 183.078421 -130.039062 
L 183.900283 -130.435764 
L 184.722144 -130.838227 
L 185.544006 -131.233097 
L 186.365867 -131.64157 
L 187.187729 -132.039511 
L 188.009591 -132.462552 
L 188.831452 -132.874378 
L 189.653314 -133.285047 
L 190.475176 -133.685629 
L 191.297037 -134.100701 
L 192.118899 -134.486796 
L 192.94076 -134.893977 
L 193.762622 -135.302578 
L 194.584484 -135.702737 
L 195.406345 -136.096478 
L 196.228207 -136.503758 
L 197.050069 -136.888228 
L 197.87193 -137.285224 
L 198.693792 -137.678207 
L 199.515654 -138.083403 
L 200.337515 -138.491013 
L 201.159377 -138.89875 
L 201.981238 -139.320227 
L 202.8031 -139.713572 
L 203.624962 -140.088342 
L 204.446823 -140.467082 
L 205.268685 -140.854555 
L 206.090547 -141.2423 
L 206.912408 -141.621611 
L 207.73427 -142.029097 
L 208.556132 -142.436207 
L 209.377993 -142.835079 
L 210.199855 -143.220601 
L 210.199855 -168.911641 
L 210.199855 -168.911641 
L 209.377993 -168.342808 
L 208.556132 -167.767052 
L 207.73427 -167.214515 
L 206.912408 -166.66365 
L 206.090547 -166.097436 
L 205.268685 -165.522861 
L 204.446823 -164.961414 
L 203.624962 -164.420266 
L 202.8031 -163.860013 
L 201.981238 -163.297021 
L 201.159377 -162.733887 
L 200.337515 -162.171809 
L 199.515654 -161.619692 
L 198.693792 -161.062495 
L 197.87193 -160.50548 
L 197.050069 -159.958412 
L 196.228207 -159.409999 
L 195.406345 -158.857181 
L 194.584484 -158.305435 
L 193.762622 -157.741137 
L 192.94076 -157.171724 
L 192.118899 -156.615945 
L 191.297037 -156.086044 
L 190.475176 -155.543888 
L 189.653314 -154.99258 
L 188.831452 -154.425215 
L 188.009591 -153.855091 
L 187.187729 -153.296272 
L 186.365867 -152.737395 
L 185.544006 -152.189055 
L 184.722144 -151.615637 
L 183.900283 -151.045033 
L 183.078421 -150.49033 
L 182.256559 -149.930212 
L 181.434698 -149.373144 
L 180.612836 -148.817711 
L 179.790974 -148.268845 
L 178.969113 -147.719672 
L 178.147251 -147.165298 
L 177.325389 -146.614542 
L 176.503528 -146.061453 
L 175.681666 -145.501472 
L 174.859805 -144.944713 
L 174.037943 -144.377845 
L 173.216081 -143.813283 
L 172.39422 -143.257043 
L 171.572358 -142.717724 
L 170.750496 -142.193551 
L 169.928635 -141.638706 
L 169.106773 -141.072055 
L 168.284911 -140.509978 
L 167.46305 -139.934129 
L 166.641188 -139.36902 
L 165.819327 -138.821972 
L 164.997465 -138.252405 
L 164.175603 -137.689147 
L 163.353742 -137.130762 
L 162.53188 -136.580054 
L 161.710018 -136.022209 
L 160.888157 -135.468204 
L 160.066295 -134.907097 
L 159.244433 -134.350752 
L 158.422572 -133.80163 
L 157.60071 -133.268137 
L 156.778849 -132.713357 
L 155.956987 -132.161633 
L 155.135125 -131.603895 
L 154.313264 -131.055563 
L 153.491402 -130.503463 
L 152.66954 -129.953152 
L 151.847679 -129.391591 
L 151.025817 -128.845539 
L 150.203955 -128.30888 
L 149.382094 -127.755814 
L 148.560232 -127.199765 
L 147.738371 -126.661061 
L 146.916509 -126.10355 
L 146.094647 -125.566465 
L 145.272786 -125.021333 
L 144.450924 -124.490935 
L 143.629062 -123.937761 
L 142.807201 -123.37995 
L 141.985339 -122.853077 
L 141.163478 -122.308871 
L 140.341616 -121.764381 
L 139.519754 -121.231968 
L 138.697893 -120.692789 
L 137.876031 -120.141118 
L 137.054169 -119.611235 
L 136.232308 -119.063419 
L 135.410446 -118.508068 
L 134.588584 -117.956689 
L 133.766723 -117.427679 
L 132.944861 -116.867094 
L 132.123 -116.325182 
L 131.301138 -115.783492 
L 130.479276 -115.244214 
L 129.657415 -114.690218 
L 128.835553 -114.151168 
L 128.013691 -113.625391 
L 127.19183 -113.075046 
L 126.369968 -112.541374 
L 125.548106 -112.031787 
L 124.726245 -111.502411 
L 123.904383 -110.973121 
L 123.082522 -110.468526 
L 122.26066 -109.947503 
L 121.438798 -109.423644 
L 120.616937 -108.894566 
L 119.795075 -108.386955 
L 118.973213 -107.876443 
L 118.151352 -107.352689 
L 117.32949 -106.804506 
L 116.507628 -106.286246 
L 115.685767 -105.77495 
L 114.863905 -105.241508 
L 114.042044 -104.705276 
L 113.220182 -104.178862 
L 112.39832 -103.660785 
L 111.576459 -103.148698 
L 110.754597 -102.640044 
L 109.932735 -102.134804 
L 109.110874 -101.643271 
L 108.289012 -101.152037 
L 107.46715 -100.660241 
L 106.645289 -100.169444 
L 105.823427 -99.666883 
L 105.001566 -99.172479 
L 104.179704 -98.695623 
L 103.357842 -98.174856 
L 102.535981 -97.69191 
L 101.714119 -97.193944 
L 100.892257 -96.702738 
L 100.070396 -96.225261 
L 99.248534 -95.747953 
L 98.426673 -95.263913 
L 97.604811 -94.787201 
L 96.782949 -94.324385 
L 95.961088 -93.861967 
L 95.139226 -93.392148 
L 94.317364 -92.944911 
L 93.495503 -92.477455 
L 92.673641 -92.020881 
L 91.851779 -91.57912 
L 91.029918 -91.124544 
L 90.208056 -90.665301 
L 89.386195 -90.22025 
L 88.564333 -89.781194 
L 87.742471 -89.328526 
L 86.92061 -88.905916 
L 86.098748 -88.465794 
L 85.276886 -88.02899 
L 84.455025 -87.605621 
L 83.633163 -87.18189 
L 82.811301 -86.748186 
L 81.98944 -86.304537 
L 81.167578 -85.888575 
L 80.345717 -85.468891 
L 79.523855 -85.024643 
L 78.701993 -84.589309 
L 77.880132 -84.158381 
L 77.05827 -83.726404 
L 76.236408 -83.309217 
L 75.414547 -82.881556 
L 74.592685 -82.454786 
L 73.770823 -82.022136 
L 72.948962 -81.605161 
L 72.1271 -81.164358 
L 71.305239 -80.753123 
L 70.483377 -80.342411 
L 69.661515 -79.924934 
L 68.839654 -79.513011 
L 68.017792 -79.091984 
L 67.19593 -78.672589 
L 66.374069 -78.260709 
L 65.552207 -77.83997 
L 64.730346 -77.420228 
L 63.908484 -77.002723 
L 63.086622 -76.586785 
L 62.264761 -76.191636 
L 61.442899 -75.774869 
L 60.621037 -75.363562 
L 59.799176 -74.96701 
L 58.977314 -74.534915 
L 58.155452 -74.105565 
L 57.333591 -73.701464 
L 56.511729 -73.298372 
L 55.689868 -72.892549 
L 54.868006 -72.475322 
L 54.046144 -72.051739 
L 53.224283 -71.640233 
L 52.402421 -71.238515 
L 51.580559 -70.824841 
L 50.758698 -70.414301 
L 49.936836 -70.000012 
L 49.114974 -69.606614 
L 48.293113 -69.19339 
L 47.471251 -68.765196 
L 46.64939 -68.352393 
z
" style="stroke: #3a9e6f; stroke-opacity: 0.15"/>
    </defs>
    <g clip-path="url(#p991c5d19a4)">
     <use xlink:href="#m5a4a6fcac5" x="0" y="223.754829" style="fill: #3a9e6f; fill-opacity: 0.15; stroke: #3a9e6f; stroke-opacity: 0.15"/>
    </g>
   </g>
   <g id="FillBetweenPolyCollection_4">
    <defs>
     <path id="m2ab101b694" d="M 46.64939 -69.793513 
L 46.64939 -60.601108 
L 47.471251 -61.074935 
L 48.293113 -61.548763 
L 49.114974 -62.02259 
L 49.936836 -62.496417 
L 50.758698 -62.970245 
L 51.580559 -63.444072 
L 52.402421 -63.9179 
L 53.224283 -64.391727 
L 54.046144 -64.865554 
L 54.868006 -65.339382 
L 55.689868 -65.813209 
L 56.511729 -66.287037 
L 57.333591 -66.760864 
L 58.155452 -67.234691 
L 58.977314 -67.708519 
L 59.799176 -68.182346 
L 60.621037 -68.656174 
L 61.442899 -69.130001 
L 62.264761 -69.603828 
L 63.086622 -70.077656 
L 63.908484 -70.551483 
L 64.730346 -71.025311 
L 65.552207 -71.499138 
L 66.374069 -71.972965 
L 67.19593 -72.446793 
L 68.017792 -72.92062 
L 68.839654 -73.394448 
L 69.661515 -73.868275 
L 70.483377 -74.342102 
L 71.305239 -74.81593 
L 72.1271 -75.289757 
L 72.948962 -75.763585 
L 73.770823 -76.237412 
L 74.592685 -76.711239 
L 75.414547 -77.185067 
L 76.236408 -77.658894 
L 77.05827 -78.132722 
L 77.880132 -78.606549 
L 78.701993 -79.080376 
L 79.523855 -79.554204 
L 80.345717 -80.028031 
L 81.167578 -80.501859 
L 81.98944 -80.975686 
L 82.811301 -81.449513 
L 83.633163 -81.923341 
L 84.455025 -82.397168 
L 85.276886 -82.870996 
L 86.098748 -83.344823 
L 86.92061 -83.81865 
L 87.742471 -84.292478 
L 88.564333 -84.766305 
L 89.386195 -85.240133 
L 90.208056 -85.71396 
L 91.029918 -86.187787 
L 91.851779 -86.661615 
L 92.673641 -87.135442 
L 93.495503 -87.60927 
L 94.317364 -88.083097 
L 95.139226 -88.556924 
L 95.961088 -89.030752 
L 96.782949 -89.504579 
L 97.604811 -89.978407 
L 98.426673 -90.452234 
L 99.248534 -90.926061 
L 100.070396 -91.399889 
L 100.892257 -91.873716 
L 101.714119 -92.347543 
L 102.535981 -92.821371 
L 103.357842 -93.295198 
L 104.179704 -93.769026 
L 105.001566 -94.242853 
L 105.823427 -94.71668 
L 106.645289 -95.190508 
L 107.46715 -95.664335 
L 108.289012 -96.138163 
L 109.110874 -96.61199 
L 109.932735 -97.085817 
L 110.754597 -97.559645 
L 111.576459 -98.033472 
L 112.39832 -98.5073 
L 113.220182 -98.981127 
L 114.042044 -99.454954 
L 114.863905 -99.928782 
L 115.685767 -100.402609 
L 116.507628 -100.876437 
L 117.32949 -101.350264 
L 118.151352 -101.824091 
L 118.973213 -102.297919 
L 119.795075 -102.771746 
L 120.616937 -103.245574 
L 121.438798 -103.719401 
L 122.26066 -104.193228 
L 123.082522 -104.667056 
L 123.904383 -105.140883 
L 124.726245 -105.614711 
L 125.548106 -106.088538 
L 126.369968 -106.562365 
L 127.19183 -107.036193 
L 128.013691 -107.51002 
L 128.835553 -107.983848 
L 129.657415 -108.457675 
L 130.479276 -108.931502 
L 131.301138 -109.40533 
L 132.123 -109.879157 
L 132.944861 -110.352985 
L 133.766723 -110.826812 
L 134.588584 -111.300639 
L 135.410446 -111.774467 
L 136.232308 -112.248294 
L 137.054169 -112.722122 
L 137.876031 -113.195949 
L 138.697893 -113.669776 
L 139.519754 -114.143604 
L 140.341616 -114.617431 
L 141.163478 -115.091259 
L 141.985339 -115.565086 
L 142.807201 -116.038913 
L 143.629062 -116.512741 
L 144.450924 -116.986568 
L 145.272786 -117.460396 
L 146.094647 -117.934223 
L 146.916509 -118.40805 
L 147.738371 -118.881878 
L 148.560232 -119.355705 
L 149.382094 -119.829533 
L 150.203955 -120.30336 
L 151.025817 -120.777187 
L 151.847679 -121.251015 
L 152.66954 -121.724842 
L 153.491402 -122.19867 
L 154.313264 -122.672497 
L 155.135125 -123.146324 
L 155.956987 -123.620152 
L 156.778849 -124.093979 
L 157.60071 -124.567807 
L 158.422572 -125.041634 
L 159.244433 -125.515461 
L 160.066295 -125.989289 
L 160.888157 -126.463116 
L 161.710018 -126.936943 
L 162.53188 -127.410771 
L 163.353742 -127.884598 
L 164.175603 -128.358426 
L 164.997465 -128.832253 
L 165.819327 -129.30608 
L 166.641188 -129.779908 
L 167.46305 -130.253735 
L 168.284911 -130.727563 
L 169.106773 -131.20139 
L 169.928635 -131.675217 
L 170.750496 -132.149045 
L 171.572358 -132.622872 
L 172.39422 -133.0967 
L 173.216081 -133.570527 
L 174.037943 -134.044354 
L 174.859805 -134.518182 
L 175.681666 -134.992009 
L 176.503528 -135.465837 
L 177.325389 -135.939664 
L 178.147251 -136.413491 
L 178.969113 -136.887319 
L 179.790974 -137.361146 
L 180.612836 -137.834974 
L 181.434698 -138.308801 
L 182.256559 -138.782628 
L 183.078421 -139.256456 
L 183.900283 -139.730283 
L 184.722144 -140.204111 
L 185.544006 -140.677938 
L 186.365867 -141.151765 
L 187.187729 -141.625593 
L 188.009591 -142.09942 
L 188.831452 -142.573248 
L 189.653314 -143.047075 
L 190.475176 -143.520902 
L 191.297037 -143.99473 
L 192.118899 -144.468557 
L 192.94076 -144.942385 
L 193.762622 -145.416212 
L 194.584484 -145.890039 
L 195.406345 -146.363867 
L 196.228207 -146.837694 
L 197.050069 -147.311522 
L 197.87193 -147.785349 
L 198.693792 -148.259176 
L 199.515654 -148.733004 
L 200.337515 -149.206831 
L 201.159377 -149.680659 
L 201.981238 -150.154486 
L 202.8031 -150.628313 
L 203.624962 -151.102141 
L 204.446823 -151.575968 
L 205.268685 -152.049796 
L 206.090547 -152.523623 
L 206.912408 -152.99745 
L 207.73427 -153.471278 
L 208.556132 -153.945105 
L 209.377993 -154.418933 
L 210.199855 -154.89276 
L 210.199855 -171.638258 
L 210.199855 -171.638258 
L 209.377993 -171.126475 
L 208.556132 -170.614692 
L 207.73427 -170.10291 
L 206.912408 -169.591127 
L 206.090547 -169.079345 
L 205.268685 -168.567562 
L 204.446823 -168.055779 
L 203.624962 -167.543997 
L 202.8031 -167.032214 
L 201.981238 -166.520431 
L 201.159377 -166.008649 
L 200.337515 -165.496866 
L 199.515654 -164.985083 
L 198.693792 -164.473301 
L 197.87193 -163.961518 
L 197.050069 -163.449736 
L 196.228207 -162.937953 
L 195.406345 -162.42617 
L 194.584484 -161.914388 
L 193.762622 -161.402605 
L 192.94076 -160.890822 
L 192.118899 -160.37904 
L 191.297037 -159.867257 
L 190.475176 -159.355474 
L 189.653314 -158.843692 
L 188.831452 -158.331909 
L 188.009591 -157.820127 
L 187.187729 -157.308344 
L 186.365867 -156.796561 
L 185.544006 -156.284779 
L 184.722144 -155.772996 
L 183.900283 -155.261213 
L 183.078421 -154.749431 
L 182.256559 -154.237648 
L 181.434698 -153.725865 
L 180.612836 -153.214083 
L 179.790974 -152.7023 
L 178.969113 -152.190518 
L 178.147251 -151.678735 
L 177.325389 -151.166952 
L 176.503528 -150.65517 
L 175.681666 -150.143387 
L 174.859805 -149.631604 
L 174.037943 -149.119822 
L 173.216081 -148.608039 
L 172.39422 -148.096256 
L 171.572358 -147.584474 
L 170.750496 -147.072691 
L 169.928635 -146.560909 
L 169.106773 -146.049126 
L 168.284911 -145.537343 
L 167.46305 -145.025561 
L 166.641188 -144.513778 
L 165.819327 -144.001995 
L 164.997465 -143.490213 
L 164.175603 -142.97843 
L 163.353742 -142.466647 
L 162.53188 -141.954865 
L 161.710018 -141.443082 
L 160.888157 -140.9313 
L 160.066295 -140.419517 
L 159.244433 -139.907734 
L 158.422572 -139.395952 
L 157.60071 -138.884169 
L 156.778849 -138.372386 
L 155.956987 -137.860604 
L 155.135125 -137.348821 
L 154.313264 -136.837039 
L 153.491402 -136.325256 
L 152.66954 -135.813473 
L 151.847679 -135.301691 
L 151.025817 -134.789908 
L 150.203955 -134.278125 
L 149.382094 -133.766343 
L 148.560232 -133.25456 
L 147.738371 -132.742777 
L 146.916509 -132.230995 
L 146.094647 -131.719212 
L 145.272786 -131.20743 
L 144.450924 -130.695647 
L 143.629062 -130.183864 
L 142.807201 -129.672082 
L 141.985339 -129.160299 
L 141.163478 -128.648516 
L 140.341616 -128.136734 
L 139.519754 -127.624951 
L 138.697893 -127.113168 
L 137.876031 -126.601386 
L 137.054169 -126.089603 
L 136.232308 -125.577821 
L 135.410446 -125.066038 
L 134.588584 -124.554255 
L 133.766723 -124.042473 
L 132.944861 -123.53069 
L 132.123 -123.018907 
L 131.301138 -122.507125 
L 130.479276 -121.995342 
L 129.657415 -121.483559 
L 128.835553 -120.971777 
L 128.013691 -120.459994 
L 127.19183 -119.948212 
L 126.369968 -119.436429 
L 125.548106 -118.924646 
L 124.726245 -118.412864 
L 123.904383 -117.901081 
L 123.082522 -117.389298 
L 122.26066 -116.877516 
L 121.438798 -116.365733 
L 120.616937 -115.85395 
L 119.795075 -115.342168 
L 118.973213 -114.830385 
L 118.151352 -114.318603 
L 117.32949 -113.80682 
L 116.507628 -113.295037 
L 115.685767 -112.783255 
L 114.863905 -112.271472 
L 114.042044 -111.759689 
L 113.220182 -111.247907 
L 112.39832 -110.736124 
L 111.576459 -110.224341 
L 110.754597 -109.712559 
L 109.932735 -109.200776 
L 109.110874 -108.688994 
L 108.289012 -108.177211 
L 107.46715 -107.665428 
L 106.645289 -107.153646 
L 105.823427 -106.641863 
L 105.001566 -106.13008 
L 104.179704 -105.618298 
L 103.357842 -105.106515 
L 102.535981 -104.594732 
L 101.714119 -104.08295 
L 100.892257 -103.571167 
L 100.070396 -103.059385 
L 99.248534 -102.547602 
L 98.426673 -102.035819 
L 97.604811 -101.524037 
L 96.782949 -101.012254 
L 95.961088 -100.500471 
L 95.139226 -99.988689 
L 94.317364 -99.476906 
L 93.495503 -98.965123 
L 92.673641 -98.453341 
L 91.851779 -97.941558 
L 91.029918 -97.429776 
L 90.208056 -96.917993 
L 89.386195 -96.40621 
L 88.564333 -95.894428 
L 87.742471 -95.382645 
L 86.92061 -94.870862 
L 86.098748 -94.35908 
L 85.276886 -93.847297 
L 84.455025 -93.335514 
L 83.633163 -92.823732 
L 82.811301 -92.311949 
L 81.98944 -91.800167 
L 81.167578 -91.288384 
L 80.345717 -90.776601 
L 79.523855 -90.264819 
L 78.701993 -89.753036 
L 77.880132 -89.241253 
L 77.05827 -88.729471 
L 76.236408 -88.217688 
L 75.414547 -87.705906 
L 74.592685 -87.194123 
L 73.770823 -86.68234 
L 72.948962 -86.170558 
L 72.1271 -85.658775 
L 71.305239 -85.146992 
L 70.483377 -84.63521 
L 69.661515 -84.123427 
L 68.839654 -83.611644 
L 68.017792 -83.099862 
L 67.19593 -82.588079 
L 66.374069 -82.076297 
L 65.552207 -81.564514 
L 64.730346 -81.052731 
L 63.908484 -80.540949 
L 63.086622 -80.029166 
L 62.264761 -79.517383 
L 61.442899 -79.005601 
L 60.621037 -78.493818 
L 59.799176 -77.982035 
L 58.977314 -77.470253 
L 58.155452 -76.95847 
L 57.333591 -76.446688 
L 56.511729 -75.934905 
L 55.689868 -75.423122 
L 54.868006 -74.91134 
L 54.046144 -74.399557 
L 53.224283 -73.887774 
L 52.402421 -73.375992 
L 51.580559 -72.864209 
L 50.758698 -72.352426 
L 49.936836 -71.840644 
L 49.114974 -71.328861 
L 48.293113 -70.817079 
L 47.471251 -70.305296 
L 46.64939 -69.793513 
z
" style="stroke: #c0392b; stroke-opacity: 0.12"/>
    </defs>
    <g clip-path="url(#p991c5d19a4)">
     <use xlink:href="#m2ab101b694" x="0" y="223.754829" style="fill: #c0392b; fill-opacity: 0.12; stroke: #c0392b; stroke-opacity: 0.12"/>
    </g>
   </g>
   <g id="matplotlib.axis_1">
    <g id="xtick_1">
     <g id="line2d_1">
      <defs>
       <path id="mbeb707792e" d="M 0 0 
L 0 3.5 
" style="stroke: #000000; stroke-width: 0.6"/>
      </defs>
      <g>
       <use xlink:href="#mbeb707792e" x="56.871294" y="190.31811" style="stroke: #000000; stroke-width: 0.6"/>
      </g>
     </g>
     <g id="text_1">
      <text style="font-size: 7px; font-family: 'Arial', 'Helvetica', 'DejaVu Sans', sans-serif; text-anchor: middle" x="56.871294" y="202.328579" transform="rotate(-0 56.871294 202.328579)">0.0</text>
     </g>
    </g>
    <g id="xtick_2">
     <g id="line2d_2">
      <g>
       <use xlink:href="#mbeb707792e" x="107.980814" y="190.31811" style="stroke: #000000; stroke-width: 0.6"/>
      </g>
     </g>
     <g id="text_2">
      <text style="font-size: 7px; font-family: 'Arial', 'Helvetica', 'DejaVu Sans', sans-serif; text-anchor: middle" x="107.980814" y="202.328579" transform="rotate(-0 107.980814 202.328579)">0.1</text>
     </g>
    </g>
    <g id="xtick_3">
     <g id="line2d_3">
      <g>
       <use xlink:href="#mbeb707792e" x="159.090334" y="190.31811" style="stroke: #000000; stroke-width: 0.6"/>
      </g>
     </g>
     <g id="text_3">
      <text style="font-size: 7px; font-family: 'Arial', 'Helvetica', 'DejaVu Sans', sans-serif; text-anchor: middle" x="159.090334" y="202.328579" transform="rotate(-0 159.090334 202.328579)">0.2</text>
     </g>
    </g>
    <g id="xtick_4">
     <g id="line2d_4">
      <g>
       <use xlink:href="#mbeb707792e" x="210.199855" y="190.31811" style="stroke: #000000; stroke-width: 0.6"/>
      </g>
     </g>
     <g id="text_4">
      <text style="font-size: 7px; font-family: 'Arial', 'Helvetica', 'DejaVu Sans', sans-serif; text-anchor: middle" x="210.199855" y="202.328579" transform="rotate(-0 210.199855 202.328579)">0.3</text>
     </g>
    </g>
    <g id="text_5">
     <!-- $(1 - a_w)$ -->
     <g transform="translate(107.534146 214.666704)">
      <text>
       <tspan x="0" y="-0.40625" style="font-size: 9.5px; font-family: 'DejaVu Sans'">(</tspan>
       <tspan x="3.706299" y="-0.40625" style="font-size: 9.5px; font-family: 'DejaVu Sans'">1</tspan>
       <tspan x="11.601318" y="-0.40625" style="font-size: 9.5px; font-family: 'DejaVu Sans'">−</tspan>
       <tspan x="32.945923" y="-0.40625" style="font-size: 9.5px; font-family: 'DejaVu Sans'">)</tspan>
       <tspan x="21.412109" y="-0.40625" style="font-style: oblique; font-size: 9.5px; font-family: 'DejaVu Sans'">a</tspan>
       <tspan x="27.233643" y="1.234375" style="font-style: oblique; font-size: 6.65px; font-family: 'DejaVu Sans'">w</tspan>
      </text>
     </g>
    </g>
   </g>
   <g id="matplotlib.axis_2">
    <g id="ytick_1">
     <g id="line2d_5">
      <defs>
       <path id="m3a74e659f9" d="M 0 0 
L -3.5 0 
" style="stroke: #000000; stroke-width: 0.6"/>
      </defs>
      <g>
       <use xlink:href="#m3a74e659f9" x="41.538438" y="175.21409" style="stroke: #000000; stroke-width: 0.6"/>
      </g>
     </g>
     <g id="text_6">
      <text style="font-size: 7px; font-family: 'Arial', 'Helvetica', 'DejaVu Sans', sans-serif; text-anchor: end" x="34.538438" y="177.719324" transform="rotate(-0 34.538438 177.719324)">−0.5</text>
     </g>
    </g>
    <g id="ytick_2">
     <g id="line2d_6">
      <g>
       <use xlink:href="#m3a74e659f9" x="41.538438" y="152.734495" style="stroke: #000000; stroke-width: 0.6"/>
      </g>
     </g>
     <g id="text_7">
      <text style="font-size: 7px; font-family: 'Arial', 'Helvetica', 'DejaVu Sans', sans-serif; text-anchor: end" x="34.538438" y="155.23973" transform="rotate(-0 34.538438 155.23973)">0.0</text>
     </g>
    </g>
    <g id="ytick_3">
     <g id="line2d_7">
      <g>
       <use xlink:href="#m3a74e659f9" x="41.538438" y="130.2549" style="stroke: #000000; stroke-width: 0.6"/>
      </g>
     </g>
     <g id="text_8">
      <text style="font-size: 7px; font-family: 'Arial', 'Helvetica', 'DejaVu Sans', sans-serif; text-anchor: end" x="34.538438" y="132.760135" transform="rotate(-0 34.538438 132.760135)">0.5</text>
     </g>
    </g>
    <g id="ytick_4">
     <g id="line2d_8">
      <g>
       <use xlink:href="#m3a74e659f9" x="41.538438" y="107.775306" style="stroke: #000000; stroke-width: 0.6"/>
      </g>
     </g>
     <g id="text_9">
      <text style="font-size: 7px; font-family: 'Arial', 'Helvetica', 'DejaVu Sans', sans-serif; text-anchor: end" x="34.538438" y="110.28054" transform="rotate(-0 34.538438 110.28054)">1.0</text>
     </g>
    </g>
    <g id="ytick_5">
     <g id="line2d_9">
      <g>
       <use xlink:href="#m3a74e659f9" x="41.538438" y="85.295711" style="stroke: #000000; stroke-width: 0.6"/>
      </g>
     </g>
     <g id="text_10">
      <text style="font-size: 7px; font-family: 'Arial', 'Helvetica', 'DejaVu Sans', sans-serif; text-anchor: end" x="34.538438" y="87.800945" transform="rotate(-0 34.538438 87.800945)">1.5</text>
     </g>
    </g>
    <g id="ytick_6">
     <g id="line2d_10">
      <g>
       <use xlink:href="#m3a74e659f9" x="41.538438" y="62.816116" style="stroke: #000000; stroke-width: 0.6"/>
      </g>
     </g>
     <g id="text_11">
      <text style="font-size: 7px; font-family: 'Arial', 'Helvetica', 'DejaVu Sans', sans-serif; text-anchor: end" x="34.538438" y="65.321351" transform="rotate(-0 34.538438 65.321351)">2.0</text>
     </g>
    </g>
    <g id="ytick_7">
     <g id="line2d_11">
      <g>
       <use xlink:href="#m3a74e659f9" x="41.538438" y="40.336522" style="stroke: #000000; stroke-width: 0.6"/>
      </g>
     </g>
     <g id="text_12">
      <text style="font-size: 7px; font-family: 'Arial', 'Helvetica', 'DejaVu Sans', sans-serif; text-anchor: end" x="34.538438" y="42.841756" transform="rotate(-0 34.538438 42.841756)">2.5</text>
     </g>
    </g>
    <g id="ytick_8">
     <g id="line2d_12">
      <g>
       <use xlink:href="#m3a74e659f9" x="41.538438" y="17.856927" style="stroke: #000000; stroke-width: 0.6"/>
      </g>
     </g>
     <g id="text_13">
      <text style="font-size: 7px; font-family: 'Arial', 'Helvetica', 'DejaVu Sans', sans-serif; text-anchor: end" x="34.538438" y="20.362161" transform="rotate(-0 34.538438 20.362161)">3.0</text>
     </g>
    </g>
    <g id="text_14">
     <!-- d$\tau_{50}$/d$r$  (min mm$^{-1}$) -->
     <g transform="translate(14.85 137.731555) rotate(-90)">
      <text>
       <tspan x="0" y="-0.960938" style="font-size: 8.5px; font-family: 'Arial'">d</tspan>
       <tspan x="17.661963" y="-0.960938" style="font-size: 8.5px; font-family: 'Arial'">/</tspan>
       <tspan x="20.023535" y="-0.960938" style="font-size: 8.5px; font-family: 'Arial'">d</tspan>
       <tspan x="28.245459" y="-0.960938" style="font-size: 8.5px; font-family: 'Arial'"> </tspan>
       <tspan x="30.607031" y="-0.960938" style="font-size: 8.5px; font-family: 'Arial'"> </tspan>
       <tspan x="32.968604" y="-0.960938" style="font-size: 8.5px; font-family: 'Arial'">(</tspan>
       <tspan x="35.79917" y="-0.960938" style="font-size: 8.5px; font-family: 'Arial'">m</tspan>
       <tspan x="42.879736" y="-0.960938" style="font-size: 8.5px; font-family: 'Arial'">i</tspan>
       <tspan x="44.768164" y="-0.960938" style="font-size: 8.5px; font-family: 'Arial'">n</tspan>
       <tspan x="49.495459" y="-0.960938" style="font-size: 8.5px; font-family: 'Arial'"> </tspan>
       <tspan x="51.857031" y="-0.960938" style="font-size: 8.5px; font-family: 'Arial'">m</tspan>
       <tspan x="58.937598" y="-0.960938" style="font-size: 8.5px; font-family: 'Arial'">m</tspan>
       <tspan x="75.121411" y="-0.960938" style="font-size: 8.5px; font-family: 'Arial'">)</tspan>
       <tspan x="4.727295" y="-0.960938" style="font-style: oblique; font-size: 8.5px; font-family: 'DejaVu Sans'">τ</tspan>
       <tspan x="24.75083" y="-0.960938" style="font-style: oblique; font-size: 8.5px; font-family: 'DejaVu Sans'">r</tspan>
       <tspan x="9.844727" y="0.515625" style="font-size: 5.95px; font-family: 'DejaVu Sans'">5</tspan>
       <tspan x="13.630298" y="0.515625" style="font-size: 5.95px; font-family: 'DejaVu Sans'">0</tspan>
       <tspan x="66.104297" y="-4.40625" style="font-size: 5.95px; font-family: 'DejaVu Sans'">−</tspan>
       <tspan x="71.089746" y="-4.40625" style="font-size: 5.95px; font-family: 'DejaVu Sans'">1</tspan>
      </text>
     </g>
    </g>
   </g>
   <g id="line2d_13">
    <path d="M 46.64939 153.961316 
L 210.199855 52.116571 
L 210.199855 52.116571 
" clip-path="url(#p991c5d19a4)" style="fill: none; stroke: #000000; stroke-opacity: 0.7; stroke-width: 1.2; stroke-linecap: square"/>
   </g>
   <g id="line2d_14">
    <path d="M 46.64939 163.153721 
L 210.199855 68.862069 
L 210.199855 68.862069 
" clip-path="url(#p991c5d19a4)" style="fill: none; stroke-dasharray: 4.44,1.92; stroke-dashoffset: 0; stroke: #000000; stroke-opacity: 0.7; stroke-width: 1.2"/>
   </g>
   <g id="line2d_15">
    <path d="M 41.538438 152.734495 
L 210.199855 152.734495 
" clip-path="url(#p991c5d19a4)" style="fill: none; stroke-dasharray: 0.5,0.825; stroke-dashoffset: 0; stroke: #808080; stroke-opacity: 0.5; stroke-width: 0.5"/>
   </g>
   <g id="patch_3">
    <path d="M 41.538438 190.31811 
L 41.538438 7.2 
" style="fill: none; stroke: #000000; stroke-width: 0.6; stroke-linejoin: miter; stroke-linecap: square"/>
   </g>
   <g id="patch_4">
    <path d="M 41.538438 190.31811 
L 210.199855 190.31811 
" style="fill: none; stroke: #000000; stroke-width: 0.6; stroke-linejoin: miter; stroke-linecap: square"/>
   </g>
   <g id="PathCollection_1">
    <defs>
     <path id="m18dee9d67c" d="M 0 -2.95804 
L -2.95804 2.95804 
L 2.95804 2.95804 
z
" style="stroke: #ffffff; stroke-opacity: 0.55; stroke-width: 0.4"/>
    </defs>
    <g clip-path="url(#p991c5d19a4)">
     <use xlink:href="#m18dee9d67c" x="56.871294" y="154.61542" style="fill: #3a9e6f; fill-opacity: 0.55; stroke: #ffffff; stroke-opacity: 0.55; stroke-width: 0.4"/>
     <use xlink:href="#m18dee9d67c" x="56.871294" y="156.921871" style="fill: #3a9e6f; fill-opacity: 0.55; stroke: #ffffff; stroke-opacity: 0.55; stroke-width: 0.4"/>
     <use xlink:href="#m18dee9d67c" x="56.871294" y="163.345493" style="fill: #3a9e6f; fill-opacity: 0.55; stroke: #ffffff; stroke-opacity: 0.55; stroke-width: 0.4"/>
     <use xlink:href="#m18dee9d67c" x="56.871294" y="162.651963" style="fill: #3a9e6f; fill-opacity: 0.55; stroke: #ffffff; stroke-opacity: 0.55; stroke-width: 0.4"/>
     <use xlink:href="#m18dee9d67c" x="56.871294" y="163.833443" style="fill: #3a9e6f; fill-opacity: 0.55; stroke: #ffffff; stroke-opacity: 0.55; stroke-width: 0.4"/>
    </g>
   </g>
   <g id="PathCollection_2">
    <defs>
     <path id="mde5eb279a8" d="M 0 -2.95804 
L -2.95804 2.95804 
L 2.95804 2.95804 
z
" style="stroke: #ffffff; stroke-opacity: 0.55; stroke-width: 0.4"/>
    </defs>
    <g clip-path="url(#p991c5d19a4)">
     <use xlink:href="#mde5eb279a8" x="92.647958" y="147.784518" style="fill: #e67e22; fill-opacity: 0.55; stroke: #ffffff; stroke-opacity: 0.55; stroke-width: 0.4"/>
     <use xlink:href="#mde5eb279a8" x="92.647958" y="122.43112" style="fill: #e67e22; fill-opacity: 0.55; stroke: #ffffff; stroke-opacity: 0.55; stroke-width: 0.4"/>
     <use xlink:href="#mde5eb279a8" x="92.647958" y="140.558048" style="fill: #e67e22; fill-opacity: 0.55; stroke: #ffffff; stroke-opacity: 0.55; stroke-width: 0.4"/>
     <use xlink:href="#mde5eb279a8" x="92.647958" y="142.512795" style="fill: #e67e22; fill-opacity: 0.55; stroke: #ffffff; stroke-opacity: 0.55; stroke-width: 0.4"/>
     <use xlink:href="#mde5eb279a8" x="92.647958" y="122.719127" style="fill: #e67e22; fill-opacity: 0.55; stroke: #ffffff; stroke-opacity: 0.55; stroke-width: 0.4"/>
    </g>
   </g>
   <g id="PathCollection_3">
    <defs>
     <path id="mbad7f83109" d="M 0 -2.95804 
L -2.95804 2.95804 
L 2.95804 2.95804 
z
" style="stroke: #ffffff; stroke-opacity: 0.55; stroke-width: 0.4"/>
    </defs>
    <g clip-path="url(#p991c5d19a4)">
     <use xlink:href="#mbad7f83109" x="123.31367" y="93.462048" style="fill: #5b8fc9; fill-opacity: 0.55; stroke: #ffffff; stroke-opacity: 0.55; stroke-width: 0.4"/>
     <use xlink:href="#mbad7f83109" x="123.31367" y="124.079188" style="fill: #5b8fc9; fill-opacity: 0.55; stroke: #ffffff; stroke-opacity: 0.55; stroke-width: 0.4"/>
     <use xlink:href="#mbad7f83109" x="123.31367" y="113.209933" style="fill: #5b8fc9; fill-opacity: 0.55; stroke: #ffffff; stroke-opacity: 0.55; stroke-width: 0.4"/>
     <use xlink:href="#mbad7f83109" x="123.31367" y="127.125873" style="fill: #5b8fc9; fill-opacity: 0.55; stroke: #ffffff; stroke-opacity: 0.55; stroke-width: 0.4"/>
     <use xlink:href="#mbad7f83109" x="123.31367" y="116.256618" style="fill: #5b8fc9; fill-opacity: 0.55; stroke: #ffffff; stroke-opacity: 0.55; stroke-width: 0.4"/>
    </g>
   </g>
   <g id="PathCollection_4">
    <defs>
     <path id="mb1f340529b" d="M 0 -2.95804 
L -2.95804 2.95804 
L 2.95804 2.95804 
z
" style="stroke: #ffffff; stroke-opacity: 0.55; stroke-width: 0.4"/>
    </defs>
    <g clip-path="url(#p991c5d19a4)">
     <use xlink:href="#mb1f340529b" x="184.645095" y="93.470109" style="fill: #c0392b; fill-opacity: 0.55; stroke: #ffffff; stroke-opacity: 0.55; stroke-width: 0.4"/>
     <use xlink:href="#mb1f340529b" x="184.645095" y="85.531511" style="fill: #c0392b; fill-opacity: 0.55; stroke: #ffffff; stroke-opacity: 0.55; stroke-width: 0.4"/>
     <use xlink:href="#mb1f340529b" x="184.645095" y="104.028707" style="fill: #c0392b; fill-opacity: 0.55; stroke: #ffffff; stroke-opacity: 0.55; stroke-width: 0.4"/>
     <use xlink:href="#mb1f340529b" x="184.645095" y="80.553512" style="fill: #c0392b; fill-opacity: 0.55; stroke: #ffffff; stroke-opacity: 0.55; stroke-width: 0.4"/>
     <use xlink:href="#mb1f340529b" x="184.645095" y="67.130382" style="fill: #c0392b; fill-opacity: 0.55; stroke: #ffffff; stroke-opacity: 0.55; stroke-width: 0.4"/>
    </g>
   </g>
   <g id="text_15">
    <!-- Total: $R^2$=0.884 [0.771, 0.957] -->
    <g transform="translate(114.146784 165.970661)">
     <text>
      <tspan x="0" y="-0.678125" style="font-size: 6.5px; font-family: 'Arial'">T</tspan>
      <tspan x="3.970459" y="-0.678125" style="font-size: 6.5px; font-family: 'Arial'">o</tspan>
      <tspan x="7.585449" y="-0.678125" style="font-size: 6.5px; font-family: 'Arial'">t</tspan>
      <tspan x="9.391357" y="-0.678125" style="font-size: 6.5px; font-family: 'Arial'">a</tspan>
      <tspan x="13.006348" y="-0.678125" style="font-size: 6.5px; font-family: 'Arial'">l</tspan>
      <tspan x="14.450439" y="-0.678125" style="font-size: 6.5px; font-family: 'Arial'">:</tspan>
      <tspan x="16.256348" y="-0.678125" style="font-size: 6.5px; font-family: 'Arial'"> </tspan>
      <tspan x="26.156873" y="-0.678125" style="font-size: 6.5px; font-family: 'Arial'">=</tspan>
      <tspan x="29.952772" y="-0.678125" style="font-size: 6.5px; font-family: 'Arial'">0</tspan>
      <tspan x="33.567762" y="-0.678125" style="font-size: 6.5px; font-family: 'Arial'">.</tspan>
      <tspan x="35.37367" y="-0.678125" style="font-size: 6.5px; font-family: 'Arial'">8</tspan>
      <tspan x="38.98866" y="-0.678125" style="font-size: 6.5px; font-family: 'Arial'">8</tspan>
      <tspan x="42.603651" y="-0.678125" style="font-size: 6.5px; font-family: 'Arial'">4</tspan>
      <tspan x="46.218641" y="-0.678125" style="font-size: 6.5px; font-family: 'Arial'"> </tspan>
      <tspan x="48.024549" y="-0.678125" style="font-size: 6.5px; font-family: 'Arial'">[</tspan>
      <tspan x="49.830457" y="-0.678125" style="font-size: 6.5px; font-family: 'Arial'">0</tspan>
      <tspan x="53.445448" y="-0.678125" style="font-size: 6.5px; font-family: 'Arial'">.</tspan>
      <tspan x="55.251356" y="-0.678125" style="font-size: 6.5px; font-family: 'Arial'">7</tspan>
      <tspan x="58.866346" y="-0.678125" style="font-size: 6.5px; font-family: 'Arial'">7</tspan>
      <tspan x="62.481336" y="-0.678125" style="font-size: 6.5px; font-family: 'Arial'">1</tspan>
      <tspan x="66.096326" y="-0.678125" style="font-size: 6.5px; font-family: 'Arial'">,</tspan>
      <tspan x="67.902235" y="-0.678125" style="font-size: 6.5px; font-family: 'Arial'"> </tspan>
      <tspan x="69.708143" y="-0.678125" style="font-size: 6.5px; font-family: 'Arial'">0</tspan>
      <tspan x="73.323133" y="-0.678125" style="font-size: 6.5px; font-family: 'Arial'">.</tspan>
      <tspan x="75.129041" y="-0.678125" style="font-size: 6.5px; font-family: 'Arial'">9</tspan>
      <tspan x="78.744032" y="-0.678125" style="font-size: 6.5px; font-family: 'Arial'">5</tspan>
      <tspan x="82.234022" y="-0.678125" style="font-size: 6.5px; font-family: 'Arial'">7</tspan>
      <tspan x="85.849012" y="-0.678125" style="font-size: 6.5px; font-family: 'Arial'">]</tspan>
      <tspan x="18.062256" y="-0.678125" style="font-style: oblique; font-size: 6.5px; font-family: 'DejaVu Sans'">R</tspan>
      <tspan x="23.070618" y="-3.357812" style="font-size: 4.55px; font-family: 'DejaVu Sans'">2</tspan>
     </text>
    </g>
    <!-- Size:  $R^2$=0.866 [0.736, 0.952] -->
    <g transform="translate(114.016784 174.368661)">
     <text>
      <tspan x="0" y="-0.678125" style="font-size: 6.5px; font-family: 'Arial'">S</tspan>
      <tspan x="4.335449" y="-0.678125" style="font-size: 6.5px; font-family: 'Arial'">i</tspan>
      <tspan x="5.779541" y="-0.678125" style="font-size: 6.5px; font-family: 'Arial'">z</tspan>
      <tspan x="9.029541" y="-0.678125" style="font-size: 6.5px; font-family: 'Arial'">e</tspan>
      <tspan x="12.644531" y="-0.678125" style="font-size: 6.5px; font-family: 'Arial'">:</tspan>
      <tspan x="14.450439" y="-0.678125" style="font-size: 6.5px; font-family: 'Arial'"> </tspan>
      <tspan x="16.256348" y="-0.678125" style="font-size: 6.5px; font-family: 'Arial'"> </tspan>
      <tspan x="26.156873" y="-0.678125" style="font-size: 6.5px; font-family: 'Arial'">=</tspan>
      <tspan x="29.952772" y="-0.678125" style="font-size: 6.5px; font-family: 'Arial'">0</tspan>
      <tspan x="33.567762" y="-0.678125" style="font-size: 6.5px; font-family: 'Arial'">.</tspan>
      <tspan x="35.37367" y="-0.678125" style="font-size: 6.5px; font-family: 'Arial'">8</tspan>
      <tspan x="38.98866" y="-0.678125" style="font-size: 6.5px; font-family: 'Arial'">6</tspan>
      <tspan x="42.603651" y="-0.678125" style="font-size: 6.5px; font-family: 'Arial'">6</tspan>
      <tspan x="46.218641" y="-0.678125" style="font-size: 6.5px; font-family: 'Arial'"> </tspan>
      <tspan x="48.024549" y="-0.678125" style="font-size: 6.5px; font-family: 'Arial'">[</tspan>
      <tspan x="49.830457" y="-0.678125" style="font-size: 6.5px; font-family: 'Arial'">0</tspan>
      <tspan x="53.445448" y="-0.678125" style="font-size: 6.5px; font-family: 'Arial'">.</tspan>
      <tspan x="55.251356" y="-0.678125" style="font-size: 6.5px; font-family: 'Arial'">7</tspan>
      <tspan x="58.866346" y="-0.678125" style="font-size: 6.5px; font-family: 'Arial'">3</tspan>
      <tspan x="62.481336" y="-0.678125" style="font-size: 6.5px; font-family: 'Arial'">6</tspan>
      <tspan x="66.096326" y="-0.678125" style="font-size: 6.5px; font-family: 'Arial'">,</tspan>
      <tspan x="67.902235" y="-0.678125" style="font-size: 6.5px; font-family: 'Arial'"> </tspan>
      <tspan x="69.708143" y="-0.678125" style="font-size: 6.5px; font-family: 'Arial'">0</tspan>
      <tspan x="73.323133" y="-0.678125" style="font-size: 6.5px; font-family: 'Arial'">.</tspan>
      <tspan x="75.129041" y="-0.678125" style="font-size: 6.5px; font-family: 'Arial'">9</tspan>
      <tspan x="78.744032" y="-0.678125" style="font-size: 6.5px; font-family: 'Arial'">5</tspan>
      <tspan x="82.359022" y="-0.678125" style="font-size: 6.5px; font-family: 'Arial'">2</tspan>
      <tspan x="85.974012" y="-0.678125" style="font-size: 6.5px; font-family: 'Arial'">]</tspan>
      <tspan x="18.062256" y="-0.678125" style="font-style: oblique; font-size: 6.5px; font-family: 'DejaVu Sans'">R</tspan>
      <tspan x="23.070618" y="-3.357812" style="font-size: 4.55px; font-family: 'DejaVu Sans'">2</tspan>
     </text>
    </g>
   </g>
   <g id="PathCollection_5">
    <defs>
     <path id="m3218befac3" d="M 0 2.95804 
C 0.784481 2.95804 1.536938 2.646362 2.09165 2.09165 
C 2.646362 1.536938 2.95804 0.784481 2.95804 0 
C 2.95804 -0.784481 2.646362 -1.536938 2.09165 -2.09165 
C 1.536938 -2.646362 0.784481 -2.95804 0 -2.95804 
C -0.784481 -2.95804 -1.536938 -2.646362 -2.09165 -2.09165 
C -2.646362 -1.536938 -2.95804 -0.784481 -2.95804 0 
C -2.95804 0.784481 -2.646362 1.536938 -2.09165 2.09165 
C -1.536938 2.646362 -0.784481 2.95804 0 2.95804 
z
" style="stroke: #ffffff; stroke-opacity: 0.55; stroke-width: 0.4"/>
    </defs>
    <g clip-path="url(#p991c5d19a4)">
     <use xlink:href="#m3218befac3" x="56.871294" y="148.185053" style="fill: #3a9e6f; fill-opacity: 0.55; stroke: #ffffff; stroke-opacity: 0.55; stroke-width: 0.4"/>
     <use xlink:href="#m3218befac3" x="56.871294" y="152.899786" style="fill: #3a9e6f; fill-opacity: 0.55; stroke: #ffffff; stroke-opacity: 0.55; stroke-width: 0.4"/>
     <use xlink:href="#m3218befac3" x="56.871294" y="156.748709" style="fill: #3a9e6f; fill-opacity: 0.55; stroke: #ffffff; stroke-opacity: 0.55; stroke-width: 0.4"/>
     <use xlink:href="#m3218befac3" x="56.871294" y="152.275353" style="fill: #3a9e6f; fill-opacity: 0.55; stroke: #ffffff; stroke-opacity: 0.55; stroke-width: 0.4"/>
     <use xlink:href="#m3218befac3" x="56.871294" y="155.945866" style="fill: #3a9e6f; fill-opacity: 0.55; stroke: #ffffff; stroke-opacity: 0.55; stroke-width: 0.4"/>
    </g>
   </g>
   <g id="PathCollection_6">
    <defs>
     <path id="m5cfb6a2400" d="M 0 2.95804 
C 0.784481 2.95804 1.536938 2.646362 2.09165 2.09165 
C 2.646362 1.536938 2.95804 0.784481 2.95804 0 
C 2.95804 -0.784481 2.646362 -1.536938 2.09165 -2.09165 
C 1.536938 -2.646362 0.784481 -2.95804 0 -2.95804 
C -0.784481 -2.95804 -1.536938 -2.646362 -2.09165 -2.09165 
C -2.646362 -1.536938 -2.95804 -0.784481 -2.95804 0 
C -2.95804 0.784481 -2.646362 1.536938 -2.09165 2.09165 
C -1.536938 2.646362 -0.784481 2.95804 0 2.95804 
z
" style="stroke: #ffffff; stroke-opacity: 0.55; stroke-width: 0.4"/>
    </defs>
    <g clip-path="url(#p991c5d19a4)">
     <use xlink:href="#m5cfb6a2400" x="92.647958" y="130.420192" style="fill: #e67e22; fill-opacity: 0.55; stroke: #ffffff; stroke-opacity: 0.55; stroke-width: 0.4"/>
     <use xlink:href="#m5cfb6a2400" x="92.647958" y="106.336983" style="fill: #e67e22; fill-opacity: 0.55; stroke: #ffffff; stroke-opacity: 0.55; stroke-width: 0.4"/>
     <use xlink:href="#m5cfb6a2400" x="92.647958" y="115.984766" style="fill: #e67e22; fill-opacity: 0.55; stroke: #ffffff; stroke-opacity: 0.55; stroke-width: 0.4"/>
     <use xlink:href="#m5cfb6a2400" x="92.647958" y="115.452161" style="fill: #e67e22; fill-opacity: 0.55; stroke: #ffffff; stroke-opacity: 0.55; stroke-width: 0.4"/>
     <use xlink:href="#m5cfb6a2400" x="92.647958" y="114.882825" style="fill: #e67e22; fill-opacity: 0.55; stroke: #ffffff; stroke-opacity: 0.55; stroke-width: 0.4"/>
    </g>
   </g>
   <g id="PathCollection_7">
    <defs>
     <path id="mf42b0fb1b7" d="M 0 2.95804 
C 0.784481 2.95804 1.536938 2.646362 2.09165 2.09165 
C 2.646362 1.536938 2.95804 0.784481 2.95804 0 
C 2.95804 -0.784481 2.646362 -1.536938 2.09165 -2.09165 
C 1.536938 -2.646362 0.784481 -2.95804 0 -2.95804 
C -0.784481 -2.95804 -1.536938 -2.646362 -2.09165 -2.09165 
C -2.646362 -1.536938 -2.95804 -0.784481 -2.95804 0 
C -2.95804 0.784481 -2.646362 1.536938 -2.09165 2.09165 
C -1.536938 2.646362 -0.784481 2.95804 0 2.95804 
z
" style="stroke: #ffffff; stroke-opacity: 0.55; stroke-width: 0.4"/>
    </defs>
    <g clip-path="url(#p991c5d19a4)">
     <use xlink:href="#mf42b0fb1b7" x="123.31367" y="103.97361" style="fill: #5b8fc9; fill-opacity: 0.55; stroke: #ffffff; stroke-opacity: 0.55; stroke-width: 0.4"/>
     <use xlink:href="#mf42b0fb1b7" x="123.31367" y="113.12759" style="fill: #5b8fc9; fill-opacity: 0.55; stroke: #ffffff; stroke-opacity: 0.55; stroke-width: 0.4"/>
     <use xlink:href="#mf42b0fb1b7" x="123.31367" y="94.662209" style="fill: #5b8fc9; fill-opacity: 0.55; stroke: #ffffff; stroke-opacity: 0.55; stroke-width: 0.4"/>
     <use xlink:href="#mf42b0fb1b7" x="123.31367" y="112.057133" style="fill: #5b8fc9; fill-opacity: 0.55; stroke: #ffffff; stroke-opacity: 0.55; stroke-width: 0.4"/>
     <use xlink:href="#mf42b0fb1b7" x="123.31367" y="114.06424" style="fill: #5b8fc9; fill-opacity: 0.55; stroke: #ffffff; stroke-opacity: 0.55; stroke-width: 0.4"/>
    </g>
   </g>
   <g id="PathCollection_8">
    <defs>
     <path id="md90207b9f6" d="M 0 2.95804 
C 0.784481 2.95804 1.536938 2.646362 2.09165 2.09165 
C 2.646362 1.536938 2.95804 0.784481 2.95804 0 
C 2.95804 -0.784481 2.646362 -1.536938 2.09165 -2.09165 
C 1.536938 -2.646362 0.784481 -2.95804 0 -2.95804 
C -0.784481 -2.95804 -1.536938 -2.646362 -2.09165 -2.09165 
C -2.646362 -1.536938 -2.95804 -0.784481 -2.95804 0 
C -2.95804 0.784481 -2.646362 1.536938 -2.09165 2.09165 
C -1.536938 2.646362 -0.784481 2.95804 0 2.95804 
z
" style="stroke: #ffffff; stroke-opacity: 0.55; stroke-width: 0.4"/>
    </defs>
    <g clip-path="url(#p991c5d19a4)">
     <use xlink:href="#md90207b9f6" x="184.645095" y="73.479514" style="fill: #c0392b; fill-opacity: 0.55; stroke: #ffffff; stroke-opacity: 0.55; stroke-width: 0.4"/>
     <use xlink:href="#md90207b9f6" x="184.645095" y="74.302942" style="fill: #c0392b; fill-opacity: 0.55; stroke: #ffffff; stroke-opacity: 0.55; stroke-width: 0.4"/>
     <use xlink:href="#md90207b9f6" x="184.645095" y="92.736509" style="fill: #c0392b; fill-opacity: 0.55; stroke: #ffffff; stroke-opacity: 0.55; stroke-width: 0.4"/>
     <use xlink:href="#md90207b9f6" x="184.645095" y="51.689852" style="fill: #c0392b; fill-opacity: 0.55; stroke: #ffffff; stroke-opacity: 0.55; stroke-width: 0.4"/>
     <use xlink:href="#md90207b9f6" x="184.645095" y="56.599232" style="fill: #c0392b; fill-opacity: 0.55; stroke: #ffffff; stroke-opacity: 0.55; stroke-width: 0.4"/>
    </g>
   </g>
   <g id="legend_1">
    <g id="patch_5">
     <path d="M 46.088438 41.484453 
L 130.848437 41.484453 
Q 132.148438 41.484453 132.148438 40.184453 
L 132.148438 11.75 
Q 132.148438 10.45 130.848437 10.45 
L 46.088438 10.45 
Q 44.788438 10.45 44.788438 11.75 
L 44.788438 40.184453 
Q 44.788438 41.484453 46.088438 41.484453 
z
" style="fill: #ffffff; opacity: 0.9; stroke: #cccccc; stroke-linejoin: miter"/>
    </g>
    <g id="patch_6">
     <path d="M 46.738438 17.052578 
L 59.738438 17.052578 
L 59.738438 12.502578 
L 46.738438 12.502578 
z
" style="fill: #c0392b; fill-opacity: 0.12; stroke: #c0392b; stroke-opacity: 0.12; stroke-linejoin: miter"/>
    </g>
    <g id="text_16">
     <text style="font-size: 6.5px; font-family: 'Arial', 'Helvetica', 'DejaVu Sans', sans-serif; text-anchor: start" x="62.338438" y="17.052578" transform="rotate(-0 62.338438 17.052578)">Rate channel</text>
    </g>
    <g id="line2d_16">
     <path d="M 46.738438 25.234453 
L 53.238438 25.234453 
L 59.738438 25.234453 
" style="fill: none; stroke: #000000; stroke-opacity: 0.7; stroke-width: 1.2; stroke-linecap: square"/>
    </g>
    <g id="text_17">
     <!-- Total ($R^2$=0.88) -->
     <g transform="translate(62.338438 27.509453)">
      <text>
       <tspan x="0" y="-0.678125" style="font-size: 6.5px; font-family: 'Arial'">T</tspan>
       <tspan x="3.970459" y="-0.678125" style="font-size: 6.5px; font-family: 'Arial'">o</tspan>
       <tspan x="7.585449" y="-0.678125" style="font-size: 6.5px; font-family: 'Arial'">t</tspan>
       <tspan x="9.391357" y="-0.678125" style="font-size: 6.5px; font-family: 'Arial'">a</tspan>
       <tspan x="13.006348" y="-0.678125" style="font-size: 6.5px; font-family: 'Arial'">l</tspan>
       <tspan x="14.450439" y="-0.678125" style="font-size: 6.5px; font-family: 'Arial'"> </tspan>
       <tspan x="16.256348" y="-0.678125" style="font-size: 6.5px; font-family: 'Arial'">(</tspan>
       <tspan x="26.515516" y="-0.678125" style="font-size: 6.5px; font-family: 'Arial'">=</tspan>
       <tspan x="30.311414" y="-0.678125" style="font-size: 6.5px; font-family: 'Arial'">0</tspan>
       <tspan x="33.926405" y="-0.678125" style="font-size: 6.5px; font-family: 'Arial'">.</tspan>
       <tspan x="35.732313" y="-0.678125" style="font-size: 6.5px; font-family: 'Arial'">8</tspan>
       <tspan x="39.347303" y="-0.678125" style="font-size: 6.5px; font-family: 'Arial'">8</tspan>
       <tspan x="42.962293" y="-0.678125" style="font-size: 6.5px; font-family: 'Arial'">)</tspan>
       <tspan x="18.420898" y="-0.678125" style="font-style: oblique; font-size: 6.5px; font-family: 'DejaVu Sans'">R</tspan>
       <tspan x="23.429261" y="-3.357812" style="font-size: 4.55px; font-family: 'DejaVu Sans'">2</tspan>
      </text>
     </g>
    </g>
    <g id="line2d_17">
     <path d="M 46.738438 35.829453 
L 53.238438 35.829453 
L 59.738438 35.829453 
" style="fill: none; stroke-dasharray: 4.44,1.92; stroke-dashoffset: 0; stroke: #000000; stroke-opacity: 0.7; stroke-width: 1.2"/>
    </g>
    <g id="text_18">
     <!-- Size channel ($R^2$=0.87) -->
     <g transform="translate(62.338438 38.104453)">
      <text>
       <tspan x="0" y="-0.678125" style="font-size: 6.5px; font-family: 'Arial'">S</tspan>
       <tspan x="4.335449" y="-0.678125" style="font-size: 6.5px; font-family: 'Arial'">i</tspan>
       <tspan x="5.779541" y="-0.678125" style="font-size: 6.5px; font-family: 'Arial'">z</tspan>
       <tspan x="9.029541" y="-0.678125" style="font-size: 6.5px; font-family: 'Arial'">e</tspan>
       <tspan x="12.644531" y="-0.678125" style="font-size: 6.5px; font-family: 'Arial'"> </tspan>
       <tspan x="14.450439" y="-0.678125" style="font-size: 6.5px; font-family: 'Arial'">c</tspan>
       <tspan x="17.700439" y="-0.678125" style="font-size: 6.5px; font-family: 'Arial'">h</tspan>
       <tspan x="21.31543" y="-0.678125" style="font-size: 6.5px; font-family: 'Arial'">a</tspan>
       <tspan x="24.93042" y="-0.678125" style="font-size: 6.5px; font-family: 'Arial'">n</tspan>
       <tspan x="28.54541" y="-0.678125" style="font-size: 6.5px; font-family: 'Arial'">n</tspan>
       <tspan x="32.1604" y="-0.678125" style="font-size: 6.5px; font-family: 'Arial'">e</tspan>
       <tspan x="35.775391" y="-0.678125" style="font-size: 6.5px; font-family: 'Arial'">l</tspan>
       <tspan x="37.219482" y="-0.678125" style="font-size: 6.5px; font-family: 'Arial'"> </tspan>
       <tspan x="39.025391" y="-0.678125" style="font-size: 6.5px; font-family: 'Arial'">(</tspan>
       <tspan x="49.284559" y="-0.678125" style="font-size: 6.5px; font-family: 'Arial'">=</tspan>
       <tspan x="53.080457" y="-0.678125" style="font-size: 6.5px; font-family: 'Arial'">0</tspan>
       <tspan x="56.695448" y="-0.678125" style="font-size: 6.5px; font-family: 'Arial'">.</tspan>
       <tspan x="58.501356" y="-0.678125" style="font-size: 6.5px; font-family: 'Arial'">8</tspan>
       <tspan x="62.116346" y="-0.678125" style="font-size: 6.5px; font-family: 'Arial'">7</tspan>
       <tspan x="65.731336" y="-0.678125" style="font-size: 6.5px; font-family: 'Arial'">)</tspan>
       <tspan x="41.189941" y="-0.678125" style="font-style: oblique; font-size: 6.5px; font-family: 'DejaVu Sans'">R</tspan>
       <tspan x="46.198304" y="-3.357812" style="font-size: 4.55px; font-family: 'DejaVu Sans'">2</tspan>
      </text>
     </g>
    </g>
   </g>
  </g>
 </g>
 <defs>
  <clipPath id="p991c5d19a4">
   <rect x="41.538438" y="7.2" width="168.661417" height="183.11811"/>
  </clipPath>
 </defs>
</svg>
