<?xml version="1.0" encoding="utf-8" standalone="no"?>
<!DOCTYPE svg PUBLIC "-//W3C//DTD SVG 1.1//EN"
  "http://www.w3.org/Graphics/SVG/1.1/DTD/svg11.dtd">
<svg xmlns:xlink="http://www.w3.org/1999/xlink" width="233.985068pt" height="230.980734pt" viewBox="0 0 233.985068 230.980734" xmlns="http://www.w3.org/2000/svg" version="1.1">
 <metadata>
  <rdf:RDF xmlns:dc="http://purl.org/dc/elements/1.1/" xmlns:cc="http://creativecommons.org/ns#" xmlns:rdf="http://www.w3.org/1999/02/22-rdf-syntax-ns#">
   <cc:Work>
    <dc:type rdf:resource="http://purl.org/dc/dcmitype/StillImage"/>
    <dc:date>2026-03-29T23:01:56.403280</dc:date>
    <dc:format>image/svg+xml</dc:format>
    <dc:creator>
     <cc:Agent>
      <dc:title>Matplotlib v3.10.8, https://matplotlib.org/</dc:title>
     </cc:Agent>
    </dc:creator>
   </cc:Work>
  </rdf:RDF>
 </metadata>
 <defs>
  <style type="text/css">*{stroke-linejoin: round; stroke-linecap: butt}</style>
 </defs>
 <g id="figure_1">
  <g id="patch_1">
   <path d="M 0 230.980734 
L 233.985068 230.980734 
L 233.985068 0 
L 0 0 
z
" style="fill: #ffffff"/>
  </g>
  <g id="axes_1">
   <g id="patch_2">
    <path d="M 41.211406 199.474016 
L 221.920068 199.474016 
L 221.920068 16.355906 
L 41.211406 16.355906 
z
" style="fill: #ffffff"/>
   </g>
   <g id="FillBetweenPolyCollection_1">
    <defs>
     <path id="m538f80fb8e" d="M 46.687426 -90.35146 
L 46.687426 -39.830269 
L 47.567992 -40.428485 
L 48.448558 -41.043304 
L 49.329124 -41.675036 
L 50.20969 -42.282988 
L 51.090256 -42.895841 
L 51.970823 -43.50621 
L 52.851389 -44.102479 
L 53.731955 -44.72444 
L 54.612521 -45.33905 
L 55.493087 -45.959939 
L 56.373653 -46.581842 
L 57.254219 -47.191659 
L 58.134785 -47.803733 
L 59.015351 -48.406585 
L 59.895917 -49.028865 
L 60.776483 -49.640742 
L 61.657049 -50.262396 
L 62.537615 -50.87138 
L 63.418181 -51.501915 
L 64.298747 -52.112163 
L 65.179313 -52.710994 
L 66.059879 -53.328506 
L 66.940445 -53.928093 
L 67.821011 -54.539873 
L 68.701577 -55.14439 
L 69.582143 -55.748618 
L 70.462709 -56.344595 
L 71.343275 -56.95568 
L 72.223841 -57.567724 
L 73.104407 -58.17556 
L 73.984973 -58.789478 
L 74.865539 -59.387368 
L 75.746106 -59.994632 
L 76.626672 -60.608382 
L 77.507238 -61.208041 
L 78.387804 -61.815032 
L 79.26837 -62.423711 
L 80.148936 -62.998738 
L 81.029502 -63.599787 
L 81.910068 -64.194574 
L 82.790634 -64.797221 
L 83.6712 -65.379128 
L 84.551766 -65.956441 
L 85.432332 -66.557774 
L 86.312898 -67.15742 
L 87.193464 -67.739227 
L 88.07403 -68.350825 
L 88.954596 -68.946443 
L 89.835162 -69.529242 
L 90.715728 -70.107873 
L 91.596294 -70.68944 
L 92.47686 -71.251914 
L 93.357426 -71.819973 
L 94.237992 -72.401963 
L 95.118558 -72.961784 
L 95.999124 -73.534985 
L 96.87969 -74.108796 
L 97.760256 -74.656908 
L 98.640822 -75.226972 
L 99.521389 -75.787885 
L 100.401955 -76.345903 
L 101.282521 -76.91277 
L 102.163087 -77.460115 
L 103.043653 -78.000972 
L 103.924219 -78.541421 
L 104.804785 -79.087267 
L 105.685351 -79.607559 
L 106.565917 -80.13024 
L 107.446483 -80.645563 
L 108.327049 -81.153128 
L 109.207615 -81.661308 
L 110.088181 -82.17507 
L 110.968747 -82.65568 
L 111.849313 -83.148076 
L 112.729879 -83.667126 
L 113.610445 -84.155006 
L 114.491011 -84.659004 
L 115.371577 -85.152043 
L 116.252143 -85.644118 
L 117.132709 -86.124333 
L 118.013275 -86.633181 
L 118.893841 -87.116924 
L 119.774407 -87.61597 
L 120.654973 -88.088623 
L 121.535539 -88.559711 
L 122.416105 -89.037499 
L 123.296672 -89.517673 
L 124.177238 -89.970651 
L 125.057804 -90.459868 
L 125.93837 -90.911251 
L 126.818936 -91.408036 
L 127.699502 -91.857076 
L 128.580068 -92.311113 
L 129.460634 -92.766128 
L 130.3412 -93.248733 
L 131.221766 -93.70622 
L 132.102332 -94.157751 
L 132.982898 -94.620081 
L 133.863464 -95.067316 
L 134.74403 -95.520745 
L 135.624596 -95.975593 
L 136.505162 -96.431846 
L 137.385728 -96.889439 
L 138.266294 -97.352834 
L 139.14686 -97.802775 
L 140.027426 -98.260004 
L 140.907992 -98.733291 
L 141.788558 -99.189475 
L 142.669124 -99.647868 
L 143.54969 -100.104859 
L 144.430256 -100.550137 
L 145.310822 -101.003451 
L 146.191388 -101.457139 
L 147.071955 -101.90361 
L 147.952521 -102.350963 
L 148.833087 -102.803537 
L 149.713653 -103.260651 
L 150.594219 -103.715477 
L 151.474785 -104.17022 
L 152.355351 -104.632032 
L 153.235917 -105.088149 
L 154.116483 -105.534724 
L 154.997049 -105.971526 
L 155.877615 -106.430794 
L 156.758181 -106.887753 
L 157.638747 -107.344628 
L 158.519313 -107.789239 
L 159.399879 -108.232617 
L 160.280445 -108.671843 
L 161.161011 -109.128395 
L 162.041577 -109.59568 
L 162.922143 -110.05077 
L 163.802709 -110.499833 
L 164.683275 -110.942468 
L 165.563841 -111.387946 
L 166.444407 -111.833794 
L 167.324973 -112.282987 
L 168.205539 -112.73581 
L 169.086105 -113.193822 
L 169.966671 -113.646613 
L 170.847238 -114.115681 
L 171.727804 -114.561786 
L 172.60837 -114.997548 
L 173.488936 -115.453751 
L 174.369502 -115.924107 
L 175.250068 -116.394519 
L 176.130634 -116.864932 
L 177.0112 -117.314567 
L 177.891766 -117.761323 
L 178.772332 -118.208896 
L 179.652898 -118.662298 
L 180.533464 -119.136515 
L 181.41403 -119.597558 
L 182.294596 -120.051498 
L 183.175162 -120.502252 
L 184.055728 -120.944566 
L 184.936294 -121.402342 
L 185.81686 -121.849471 
L 186.697426 -122.301977 
L 187.577992 -122.751803 
L 188.458558 -123.201295 
L 189.339124 -123.64607 
L 190.21969 -124.084095 
L 191.100256 -124.52452 
L 191.980822 -124.975591 
L 192.861388 -125.418997 
L 193.741954 -125.860275 
L 194.622521 -126.306754 
L 195.503087 -126.759116 
L 196.383653 -127.218327 
L 197.264219 -127.666481 
L 198.144785 -128.11622 
L 199.025351 -128.568381 
L 199.905917 -129.02064 
L 200.786483 -129.473296 
L 201.667049 -129.930374 
L 202.547615 -130.39398 
L 203.428181 -130.845847 
L 204.308747 -131.295889 
L 205.189313 -131.746557 
L 206.069879 -132.195262 
L 206.950445 -132.644879 
L 207.831011 -133.092272 
L 208.711577 -133.533483 
L 209.592143 -133.986651 
L 210.472709 -134.443346 
L 211.353275 -134.892962 
L 212.233841 -135.334678 
L 213.114407 -135.789783 
L 213.994973 -136.241884 
L 214.875539 -136.689942 
L 215.756105 -137.130061 
L 216.636671 -137.577184 
L 217.517237 -138.016048 
L 218.397804 -138.454912 
L 219.27837 -138.894196 
L 220.158936 -139.340902 
L 221.039502 -139.795658 
L 221.920068 -140.251811 
L 221.920068 -206.301279 
L 221.920068 -206.301279 
L 221.039502 -205.658254 
L 220.158936 -205.028281 
L 219.27837 -204.398063 
L 218.397804 -203.776728 
L 217.517237 -203.155527 
L 216.636671 -202.513048 
L 215.756105 -201.88142 
L 214.875539 -201.249598 
L 213.994973 -200.619613 
L 213.114407 -199.989967 
L 212.233841 -199.361265 
L 211.353275 -198.732536 
L 210.472709 -198.119027 
L 209.592143 -197.482151 
L 208.711577 -196.857343 
L 207.831011 -196.226147 
L 206.950445 -195.594935 
L 206.069879 -194.966751 
L 205.189313 -194.331526 
L 204.308747 -193.717332 
L 203.428181 -193.099641 
L 202.547615 -192.470799 
L 201.667049 -191.847477 
L 200.786483 -191.201229 
L 199.905917 -190.575553 
L 199.025351 -189.952625 
L 198.144785 -189.336454 
L 197.264219 -188.720488 
L 196.383653 -188.082938 
L 195.503087 -187.420594 
L 194.622521 -186.808385 
L 193.741954 -186.204911 
L 192.861388 -185.579086 
L 191.980822 -184.955208 
L 191.100256 -184.338685 
L 190.21969 -183.714044 
L 189.339124 -183.10287 
L 188.458558 -182.48416 
L 187.577992 -181.860392 
L 186.697426 -181.21696 
L 185.81686 -180.586408 
L 184.936294 -179.955133 
L 184.055728 -179.325204 
L 183.175162 -178.714306 
L 182.294596 -178.105591 
L 181.41403 -177.468626 
L 180.533464 -176.837544 
L 179.652898 -176.223754 
L 178.772332 -175.598266 
L 177.891766 -174.979084 
L 177.0112 -174.351423 
L 176.130634 -173.752264 
L 175.250068 -173.128021 
L 174.369502 -172.498439 
L 173.488936 -171.891822 
L 172.60837 -171.25496 
L 171.727804 -170.632708 
L 170.847238 -170.023145 
L 169.966671 -169.403931 
L 169.086105 -168.78175 
L 168.205539 -168.160138 
L 167.324973 -167.54485 
L 166.444407 -166.931905 
L 165.563841 -166.311196 
L 164.683275 -165.7037 
L 163.802709 -165.088208 
L 162.922143 -164.473637 
L 162.041577 -163.863721 
L 161.161011 -163.244604 
L 160.280445 -162.617094 
L 159.399879 -162.003636 
L 158.519313 -161.390128 
L 157.638747 -160.767532 
L 156.758181 -160.154541 
L 155.877615 -159.540809 
L 154.997049 -158.917034 
L 154.116483 -158.309497 
L 153.235917 -157.697393 
L 152.355351 -157.096852 
L 151.474785 -156.477623 
L 150.594219 -155.870277 
L 149.713653 -155.26008 
L 148.833087 -154.646341 
L 147.952521 -154.034393 
L 147.071955 -153.429009 
L 146.191388 -152.821633 
L 145.310822 -152.208025 
L 144.430256 -151.600779 
L 143.54969 -150.984938 
L 142.669124 -150.375018 
L 141.788558 -149.760361 
L 140.907992 -149.176511 
L 140.027426 -148.543163 
L 139.14686 -147.936579 
L 138.266294 -147.333019 
L 137.385728 -146.724509 
L 136.505162 -146.133026 
L 135.624596 -145.525672 
L 134.74403 -144.941427 
L 133.863464 -144.331243 
L 132.982898 -143.72925 
L 132.102332 -143.136103 
L 131.221766 -142.53501 
L 130.3412 -141.937394 
L 129.460634 -141.346705 
L 128.580068 -140.738273 
L 127.699502 -140.139325 
L 126.818936 -139.54884 
L 125.93837 -138.945596 
L 125.057804 -138.347002 
L 124.177238 -137.747816 
L 123.296672 -137.154034 
L 122.416105 -136.545605 
L 121.535539 -135.949642 
L 120.654973 -135.353344 
L 119.774407 -134.74203 
L 118.893841 -134.148016 
L 118.013275 -133.565738 
L 117.132709 -132.983135 
L 116.252143 -132.393217 
L 115.371577 -131.806262 
L 114.491011 -131.204006 
L 113.610445 -130.611038 
L 112.729879 -130.024735 
L 111.849313 -129.422903 
L 110.968747 -128.821551 
L 110.088181 -128.244501 
L 109.207615 -127.664051 
L 108.327049 -127.087628 
L 107.446483 -126.500845 
L 106.565917 -125.914414 
L 105.685351 -125.325464 
L 104.804785 -124.750381 
L 103.924219 -124.167046 
L 103.043653 -123.580669 
L 102.163087 -123.006623 
L 101.282521 -122.445092 
L 100.401955 -121.867338 
L 99.521389 -121.271704 
L 98.640822 -120.706518 
L 97.760256 -120.135011 
L 96.87969 -119.563167 
L 95.999124 -118.98511 
L 95.118558 -118.404109 
L 94.237992 -117.852608 
L 93.357426 -117.277797 
L 92.47686 -116.715004 
L 91.596294 -116.159286 
L 90.715728 -115.593197 
L 89.835162 -115.033053 
L 88.954596 -114.476347 
L 88.07403 -113.925574 
L 87.193464 -113.382783 
L 86.312898 -112.837376 
L 85.432332 -112.294253 
L 84.551766 -111.74771 
L 83.6712 -111.204841 
L 82.790634 -110.652733 
L 81.910068 -110.106349 
L 81.029502 -109.579036 
L 80.148936 -109.054263 
L 79.26837 -108.522933 
L 78.387804 -107.981471 
L 77.507238 -107.455215 
L 76.626672 -106.923434 
L 75.746106 -106.408372 
L 74.865539 -105.868911 
L 73.984973 -105.352613 
L 73.104407 -104.832961 
L 72.223841 -104.316445 
L 71.343275 -103.799812 
L 70.462709 -103.305348 
L 69.582143 -102.791072 
L 68.701577 -102.279617 
L 67.821011 -101.791334 
L 66.940445 -101.301404 
L 66.059879 -100.819427 
L 65.179313 -100.334334 
L 64.298747 -99.853093 
L 63.418181 -99.369369 
L 62.537615 -98.862548 
L 61.657049 -98.384078 
L 60.776483 -97.884149 
L 59.895917 -97.408295 
L 59.015351 -96.934503 
L 58.134785 -96.457194 
L 57.254219 -95.981236 
L 56.373653 -95.504162 
L 55.493087 -95.03244 
L 54.612521 -94.570194 
L 53.731955 -94.086653 
L 52.851389 -93.620036 
L 51.970823 -93.151064 
L 51.090256 -92.6925 
L 50.20969 -92.213542 
L 49.329124 -91.75139 
L 48.448558 -91.270279 
L 47.567992 -90.80844 
L 46.687426 -90.35146 
z
" style="stroke: #888888; stroke-opacity: 0.08"/>
    </defs>
    <g clip-path="url(#p6532b09f1a)">
     <use xlink:href="#m538f80fb8e" x="0" y="230.980734" style="fill: #888888; fill-opacity: 0.08; stroke: #888888; stroke-opacity: 0.08"/>
    </g>
   </g>
   <g id="FillBetweenPolyCollection_2">
    <defs>
     <path id="m4d567f47eb" d="M 46.687426 -71.142951 
L 46.687426 -59.038779 
L 47.567992 -59.636994 
L 48.448558 -60.251814 
L 49.329124 -60.883546 
L 50.20969 -61.491497 
L 51.090256 -62.10435 
L 51.970823 -62.71472 
L 52.851389 -63.310989 
L 53.731955 -63.93295 
L 54.612521 -64.54756 
L 55.493087 -65.168449 
L 56.373653 -65.790352 
L 57.254219 -66.400168 
L 58.134785 -67.012243 
L 59.015351 -67.615094 
L 59.895917 -68.237375 
L 60.776483 -68.849251 
L 61.657049 -69.470905 
L 62.537615 -70.07989 
L 63.418181 -70.710424 
L 64.298747 -71.320673 
L 65.179313 -71.919504 
L 66.059879 -72.537015 
L 66.940445 -73.136602 
L 67.821011 -73.748382 
L 68.701577 -74.352899 
L 69.582143 -74.957128 
L 70.462709 -75.553105 
L 71.343275 -76.164189 
L 72.223841 -76.776234 
L 73.104407 -77.384069 
L 73.984973 -77.997988 
L 74.865539 -78.595878 
L 75.746106 -79.203142 
L 76.626672 -79.816891 
L 77.507238 -80.416551 
L 78.387804 -81.023542 
L 79.26837 -81.63222 
L 80.148936 -82.207247 
L 81.029502 -82.808297 
L 81.910068 -83.403084 
L 82.790634 -84.00573 
L 83.6712 -84.587638 
L 84.551766 -85.164951 
L 85.432332 -85.766283 
L 86.312898 -86.365929 
L 87.193464 -86.947737 
L 88.07403 -87.559335 
L 88.954596 -88.154953 
L 89.835162 -88.737751 
L 90.715728 -89.316382 
L 91.596294 -89.89795 
L 92.47686 -90.460423 
L 93.357426 -91.028483 
L 94.237992 -91.610473 
L 95.118558 -92.170293 
L 95.999124 -92.743494 
L 96.87969 -93.317306 
L 97.760256 -93.865417 
L 98.640822 -94.435481 
L 99.521389 -94.996395 
L 100.401955 -95.554413 
L 101.282521 -96.12128 
L 102.163087 -96.668625 
L 103.043653 -97.209482 
L 103.924219 -97.74993 
L 104.804785 -98.295777 
L 105.685351 -98.816068 
L 106.565917 -99.338749 
L 107.446483 -99.854072 
L 108.327049 -100.361638 
L 109.207615 -100.869818 
L 110.088181 -101.383579 
L 110.968747 -101.86419 
L 111.849313 -102.356586 
L 112.729879 -102.875635 
L 113.610445 -103.363515 
L 114.491011 -103.867514 
L 115.371577 -104.360553 
L 116.252143 -104.852628 
L 117.132709 -105.332842 
L 118.013275 -105.84169 
L 118.893841 -106.325434 
L 119.774407 -106.82448 
L 120.654973 -107.297133 
L 121.535539 -107.768221 
L 122.416105 -108.246008 
L 123.296672 -108.726182 
L 124.177238 -109.179161 
L 125.057804 -109.668377 
L 125.93837 -110.119761 
L 126.818936 -110.616546 
L 127.699502 -111.065586 
L 128.580068 -111.519622 
L 129.460634 -111.974638 
L 130.3412 -112.457243 
L 131.221766 -112.914729 
L 132.102332 -113.366261 
L 132.982898 -113.82859 
L 133.863464 -114.275825 
L 134.74403 -114.729254 
L 135.624596 -115.184102 
L 136.505162 -115.640355 
L 137.385728 -116.097948 
L 138.266294 -116.561343 
L 139.14686 -117.011285 
L 140.027426 -117.468513 
L 140.907992 -117.941801 
L 141.788558 -118.397984 
L 142.669124 -118.856378 
L 143.54969 -119.313369 
L 144.430256 -119.758647 
L 145.310822 -120.211961 
L 146.191388 -120.665649 
L 147.071955 -121.112119 
L 147.952521 -121.559472 
L 148.833087 -122.012047 
L 149.713653 -122.46916 
L 150.594219 -122.923987 
L 151.474785 -123.37873 
L 152.355351 -123.840542 
L 153.235917 -124.296658 
L 154.116483 -124.743233 
L 154.997049 -125.180035 
L 155.877615 -125.639304 
L 156.758181 -126.096263 
L 157.638747 -126.553138 
L 158.519313 -126.997748 
L 159.399879 -127.441127 
L 160.280445 -127.880352 
L 161.161011 -128.336905 
L 162.041577 -128.804189 
L 162.922143 -129.259279 
L 163.802709 -129.708343 
L 164.683275 -130.150978 
L 165.563841 -130.596455 
L 166.444407 -131.042303 
L 167.324973 -131.491496 
L 168.205539 -131.94432 
L 169.086105 -132.402331 
L 169.966671 -132.855123 
L 170.847238 -133.324191 
L 171.727804 -133.770296 
L 172.60837 -134.206058 
L 173.488936 -134.662261 
L 174.369502 -135.132616 
L 175.250068 -135.603029 
L 176.130634 -136.073441 
L 177.0112 -136.523077 
L 177.891766 -136.969833 
L 178.772332 -137.417406 
L 179.652898 -137.870808 
L 180.533464 -138.345025 
L 181.41403 -138.806068 
L 182.294596 -139.260008 
L 183.175162 -139.710762 
L 184.055728 -140.153076 
L 184.936294 -140.610851 
L 185.81686 -141.05798 
L 186.697426 -141.510486 
L 187.577992 -141.960313 
L 188.458558 -142.409804 
L 189.339124 -142.854579 
L 190.21969 -143.292605 
L 191.100256 -143.733029 
L 191.980822 -144.1841 
L 192.861388 -144.627507 
L 193.741954 -145.068785 
L 194.622521 -145.515264 
L 195.503087 -145.967626 
L 196.383653 -146.426836 
L 197.264219 -146.874991 
L 198.144785 -147.32473 
L 199.025351 -147.776891 
L 199.905917 -148.229149 
L 200.786483 -148.681806 
L 201.667049 -149.138884 
L 202.547615 -149.60249 
L 203.428181 -150.054357 
L 204.308747 -150.504399 
L 205.189313 -150.955066 
L 206.069879 -151.403771 
L 206.950445 -151.853388 
L 207.831011 -152.300781 
L 208.711577 -152.741992 
L 209.592143 -153.195161 
L 210.472709 -153.651855 
L 211.353275 -154.101472 
L 212.233841 -154.543188 
L 213.114407 -154.998292 
L 213.994973 -155.450393 
L 214.875539 -155.898451 
L 215.756105 -156.33857 
L 216.636671 -156.785694 
L 217.517237 -157.224558 
L 218.397804 -157.663421 
L 219.27837 -158.102706 
L 220.158936 -158.549411 
L 221.039502 -159.004168 
L 221.920068 -159.46032 
L 221.920068 -187.092769 
L 221.920068 -187.092769 
L 221.039502 -186.449744 
L 220.158936 -185.819771 
L 219.27837 -185.189553 
L 218.397804 -184.568218 
L 217.517237 -183.947017 
L 216.636671 -183.304538 
L 215.756105 -182.67291 
L 214.875539 -182.041089 
L 213.994973 -181.411103 
L 213.114407 -180.781457 
L 212.233841 -180.152755 
L 211.353275 -179.524026 
L 210.472709 -178.910518 
L 209.592143 -178.273641 
L 208.711577 -177.648833 
L 207.831011 -177.017638 
L 206.950445 -176.386425 
L 206.069879 -175.758242 
L 205.189313 -175.123016 
L 204.308747 -174.508822 
L 203.428181 -173.891131 
L 202.547615 -173.26229 
L 201.667049 -172.638968 
L 200.786483 -171.992719 
L 199.905917 -171.367044 
L 199.025351 -170.744116 
L 198.144785 -170.127944 
L 197.264219 -169.511978 
L 196.383653 -168.874428 
L 195.503087 -168.212084 
L 194.622521 -167.599876 
L 193.741954 -166.996401 
L 192.861388 -166.370576 
L 191.980822 -165.746699 
L 191.100256 -165.130176 
L 190.21969 -164.505534 
L 189.339124 -163.894361 
L 188.458558 -163.27565 
L 187.577992 -162.651882 
L 186.697426 -162.00845 
L 185.81686 -161.377899 
L 184.936294 -160.746623 
L 184.055728 -160.116695 
L 183.175162 -159.505796 
L 182.294596 -158.897081 
L 181.41403 -158.260116 
L 180.533464 -157.629035 
L 179.652898 -157.015244 
L 178.772332 -156.389757 
L 177.891766 -155.770575 
L 177.0112 -155.142913 
L 176.130634 -154.543755 
L 175.250068 -153.919512 
L 174.369502 -153.289929 
L 173.488936 -152.683313 
L 172.60837 -152.046451 
L 171.727804 -151.424199 
L 170.847238 -150.814636 
L 169.966671 -150.195422 
L 169.086105 -149.57324 
L 168.205539 -148.951629 
L 167.324973 -148.336341 
L 166.444407 -147.723395 
L 165.563841 -147.102686 
L 164.683275 -146.49519 
L 163.802709 -145.879698 
L 162.922143 -145.265127 
L 162.041577 -144.655211 
L 161.161011 -144.036094 
L 160.280445 -143.408584 
L 159.399879 -142.795126 
L 158.519313 -142.181618 
L 157.638747 -141.559022 
L 156.758181 -140.946031 
L 155.877615 -140.3323 
L 154.997049 -139.708525 
L 154.116483 -139.100987 
L 153.235917 -138.488883 
L 152.355351 -137.888342 
L 151.474785 -137.269113 
L 150.594219 -136.661767 
L 149.713653 -136.051571 
L 148.833087 -135.437831 
L 147.952521 -134.825883 
L 147.071955 -134.220499 
L 146.191388 -133.613123 
L 145.310822 -132.999515 
L 144.430256 -132.39227 
L 143.54969 -131.776428 
L 142.669124 -131.166508 
L 141.788558 -130.551852 
L 140.907992 -129.968001 
L 140.027426 -129.334653 
L 139.14686 -128.728069 
L 138.266294 -128.124509 
L 137.385728 -127.515999 
L 136.505162 -126.924517 
L 135.624596 -126.317162 
L 134.74403 -125.732918 
L 133.863464 -125.122734 
L 132.982898 -124.52074 
L 132.102332 -123.927593 
L 131.221766 -123.3265 
L 130.3412 -122.728884 
L 129.460634 -122.138195 
L 128.580068 -121.529764 
L 127.699502 -120.930816 
L 126.818936 -120.340331 
L 125.93837 -119.737086 
L 125.057804 -119.138492 
L 124.177238 -118.539306 
L 123.296672 -117.945524 
L 122.416105 -117.337095 
L 121.535539 -116.741132 
L 120.654973 -116.144834 
L 119.774407 -115.53352 
L 118.893841 -114.939507 
L 118.013275 -114.357229 
L 117.132709 -113.774625 
L 116.252143 -113.184708 
L 115.371577 -112.597752 
L 114.491011 -111.995497 
L 113.610445 -111.402528 
L 112.729879 -110.816225 
L 111.849313 -110.214393 
L 110.968747 -109.613041 
L 110.088181 -109.035992 
L 109.207615 -108.455541 
L 108.327049 -107.879118 
L 107.446483 -107.292336 
L 106.565917 -106.705904 
L 105.685351 -106.116955 
L 104.804785 -105.541872 
L 103.924219 -104.958537 
L 103.043653 -104.372159 
L 102.163087 -103.798113 
L 101.282521 -103.236582 
L 100.401955 -102.658828 
L 99.521389 -102.063194 
L 98.640822 -101.498008 
L 97.760256 -100.926502 
L 96.87969 -100.354658 
L 95.999124 -99.776601 
L 95.118558 -99.195599 
L 94.237992 -98.644099 
L 93.357426 -98.069287 
L 92.47686 -97.506495 
L 91.596294 -96.950777 
L 90.715728 -96.384687 
L 89.835162 -95.824544 
L 88.954596 -95.267838 
L 88.07403 -94.717064 
L 87.193464 -94.174274 
L 86.312898 -93.628866 
L 85.432332 -93.085743 
L 84.551766 -92.539201 
L 83.6712 -91.996331 
L 82.790634 -91.444223 
L 81.910068 -90.897839 
L 81.029502 -90.370526 
L 80.148936 -89.845753 
L 79.26837 -89.314424 
L 78.387804 -88.772961 
L 77.507238 -88.246706 
L 76.626672 -87.714924 
L 75.746106 -87.199862 
L 74.865539 -86.660401 
L 73.984973 -86.144103 
L 73.104407 -85.624451 
L 72.223841 -85.107935 
L 71.343275 -84.591302 
L 70.462709 -84.096838 
L 69.582143 -83.582563 
L 68.701577 -83.071107 
L 67.821011 -82.582824 
L 66.940445 -82.092895 
L 66.059879 -81.610917 
L 65.179313 -81.125825 
L 64.298747 -80.644584 
L 63.418181 -80.16086 
L 62.537615 -79.654038 
L 61.657049 -79.175569 
L 60.776483 -78.67564 
L 59.895917 -78.199786 
L 59.015351 -77.725993 
L 58.134785 -77.248684 
L 57.254219 -76.772727 
L 56.373653 -76.295653 
L 55.493087 -75.82393 
L 54.612521 -75.361684 
L 53.731955 -74.878144 
L 52.851389 -74.411527 
L 51.970823 -73.942555 
L 51.090256 -73.48399 
L 50.20969 -73.005032 
L 49.329124 -72.542881 
L 48.448558 -72.061769 
L 47.567992 -71.599931 
L 46.687426 -71.142951 
z
" style="stroke: #444444; stroke-opacity: 0.18"/>
    </defs>
    <g clip-path="url(#p6532b09f1a)">
     <use xlink:href="#m4d567f47eb" x="0" y="230.980734" style="fill: #444444; fill-opacity: 0.18; stroke: #444444; stroke-opacity: 0.18"/>
    </g>
   </g>
   <g id="matplotlib.axis_1">
    <g id="xtick_1">
     <g id="line2d_1">
      <defs>
       <path id="m0108d13e7b" d="M 0 0 
L 0 3.5 
" style="stroke: #000000; stroke-width: 0.6"/>
      </defs>
      <g>
       <use xlink:href="#m0108d13e7b" x="57.639466" y="199.474016" style="stroke: #000000; stroke-width: 0.6"/>
      </g>
     </g>
     <g id="text_1">
      <text style="font-size: 7px; font-family: 'Arial', 'Helvetica', 'DejaVu Sans', sans-serif; text-anchor: middle" x="57.639466" y="211.484484" transform="rotate(-0 57.639466 211.484484)">0.0</text>
     </g>
    </g>
    <g id="xtick_2">
     <g id="line2d_2">
      <g>
       <use xlink:href="#m0108d13e7b" x="112.399667" y="199.474016" style="stroke: #000000; stroke-width: 0.6"/>
      </g>
     </g>
     <g id="text_2">
      <text style="font-size: 7px; font-family: 'Arial', 'Helvetica', 'DejaVu Sans', sans-serif; text-anchor: middle" x="112.399667" y="211.484484" transform="rotate(-0 112.399667 211.484484)">0.1</text>
     </g>
    </g>
    <g id="xtick_3">
     <g id="line2d_3">
      <g>
       <use xlink:href="#m0108d13e7b" x="167.159867" y="199.474016" style="stroke: #000000; stroke-width: 0.6"/>
      </g>
     </g>
     <g id="text_3">
      <text style="font-size: 7px; font-family: 'Arial', 'Helvetica', 'DejaVu Sans', sans-serif; text-anchor: middle" x="167.159867" y="211.484484" transform="rotate(-0 167.159867 211.484484)">0.2</text>
     </g>
    </g>
    <g id="xtick_4">
     <g id="line2d_4">
      <g>
       <use xlink:href="#m0108d13e7b" x="221.920068" y="199.474016" style="stroke: #000000; stroke-width: 0.6"/>
      </g>
     </g>
     <g id="text_4">
      <text style="font-size: 7px; font-family: 'Arial', 'Helvetica', 'DejaVu Sans', sans-serif; text-anchor: middle" x="221.920068" y="211.484484" transform="rotate(-0 221.920068 211.484484)">0.3</text>
     </g>
    </g>
    <g id="text_5">
     <!-- $(1 - a_w)$ -->
     <g transform="translate(115.160737 222.091359)">
      <text>
       <tspan x="0" y="-0.171875" style="font-size: 8.5px; font-family: 'DejaVu Sans'">(</tspan>
       <tspan x="3.316162" y="-0.171875" style="font-size: 8.5px; font-family: 'DejaVu Sans'">1</tspan>
       <tspan x="10.380127" y="-0.171875" style="font-size: 8.5px; font-family: 'DejaVu Sans'">−</tspan>
       <tspan x="29.47937" y="-0.171875" style="font-size: 8.5px; font-family: 'DejaVu Sans'">)</tspan>
       <tspan x="19.158203" y="-0.171875" style="font-style: oblique; font-size: 8.5px; font-family: 'DejaVu Sans'">a</tspan>
       <tspan x="24.366943" y="1.304688" style="font-style: oblique; font-size: 5.95px; font-family: 'DejaVu Sans'">w</tspan>
      </text>
     </g>
    </g>
   </g>
   <g id="matplotlib.axis_2">
    <g id="ytick_1">
     <g id="line2d_5">
      <defs>
       <path id="m436130686f" d="M 0 0 
L -3.5 0 
" style="stroke: #000000; stroke-width: 0.6"/>
      </defs>
      <g>
       <use xlink:href="#m436130686f" x="41.211406" y="189.013274" style="stroke: #000000; stroke-width: 0.6"/>
      </g>
     </g>
     <g id="text_6">
      <text style="font-size: 7px; font-family: 'Arial', 'Helvetica', 'DejaVu Sans', sans-serif; text-anchor: end" x="34.211406" y="191.518508" transform="rotate(-0 34.211406 191.518508)">−200</text>
     </g>
    </g>
    <g id="ytick_2">
     <g id="line2d_6">
      <g>
       <use xlink:href="#m436130686f" x="41.211406" y="166.230476" style="stroke: #000000; stroke-width: 0.6"/>
      </g>
     </g>
     <g id="text_7">
      <text style="font-size: 7px; font-family: 'Arial', 'Helvetica', 'DejaVu Sans', sans-serif; text-anchor: end" x="34.211406" y="168.735711" transform="rotate(-0 34.211406 168.735711)">0</text>
     </g>
    </g>
    <g id="ytick_3">
     <g id="line2d_7">
      <g>
       <use xlink:href="#m436130686f" x="41.211406" y="143.447679" style="stroke: #000000; stroke-width: 0.6"/>
      </g>
     </g>
     <g id="text_8">
      <text style="font-size: 7px; font-family: 'Arial', 'Helvetica', 'DejaVu Sans', sans-serif; text-anchor: end" x="34.211406" y="145.952913" transform="rotate(-0 34.211406 145.952913)">200</text>
     </g>
    </g>
    <g id="ytick_4">
     <g id="line2d_8">
      <g>
       <use xlink:href="#m436130686f" x="41.211406" y="120.664881" style="stroke: #000000; stroke-width: 0.6"/>
      </g>
     </g>
     <g id="text_9">
      <text style="font-size: 7px; font-family: 'Arial', 'Helvetica', 'DejaVu Sans', sans-serif; text-anchor: end" x="34.211406" y="123.170116" transform="rotate(-0 34.211406 123.170116)">400</text>
     </g>
    </g>
    <g id="ytick_5">
     <g id="line2d_9">
      <g>
       <use xlink:href="#m436130686f" x="41.211406" y="97.882084" style="stroke: #000000; stroke-width: 0.6"/>
      </g>
     </g>
     <g id="text_10">
      <text style="font-size: 7px; font-family: 'Arial', 'Helvetica', 'DejaVu Sans', sans-serif; text-anchor: end" x="34.211406" y="100.387318" transform="rotate(-0 34.211406 100.387318)">600</text>
     </g>
    </g>
    <g id="ytick_6">
     <g id="line2d_10">
      <g>
       <use xlink:href="#m436130686f" x="41.211406" y="75.099287" style="stroke: #000000; stroke-width: 0.6"/>
      </g>
     </g>
     <g id="text_11">
      <text style="font-size: 7px; font-family: 'Arial', 'Helvetica', 'DejaVu Sans', sans-serif; text-anchor: end" x="34.211406" y="77.604521" transform="rotate(-0 34.211406 77.604521)">800</text>
     </g>
    </g>
    <g id="ytick_7">
     <g id="line2d_11">
      <g>
       <use xlink:href="#m436130686f" x="41.211406" y="52.316489" style="stroke: #000000; stroke-width: 0.6"/>
      </g>
     </g>
     <g id="text_12">
      <text style="font-size: 7px; font-family: 'Arial', 'Helvetica', 'DejaVu Sans', sans-serif; text-anchor: end" x="34.211406" y="54.821724" transform="rotate(-0 34.211406 54.821724)">1000</text>
     </g>
    </g>
    <g id="ytick_8">
     <g id="line2d_12">
      <g>
       <use xlink:href="#m436130686f" x="41.211406" y="29.533692" style="stroke: #000000; stroke-width: 0.6"/>
      </g>
     </g>
     <g id="text_13">
      <text style="font-size: 7px; font-family: 'Arial', 'Helvetica', 'DejaVu Sans', sans-serif; text-anchor: end" x="34.211406" y="32.038926" transform="rotate(-0 34.211406 32.038926)">1200</text>
     </g>
    </g>
    <g id="text_14">
     <!-- $\delta$ ($\mu$m) -->
     <g transform="translate(13.575 120.792461) rotate(-90)">
      <text>
       <tspan x="0" y="-0.3125" style="font-style: oblique; font-size: 8.5px; font-family: 'DejaVu Sans'">δ</tspan>
       <tspan x="10.392578" y="-0.3125" style="font-style: oblique; font-size: 8.5px; font-family: 'DejaVu Sans'">μ</tspan>
       <tspan x="5.200439" y="-0.3125" style="font-size: 8.5px; font-family: 'Arial'"> </tspan>
       <tspan x="7.562012" y="-0.3125" style="font-size: 8.5px; font-family: 'Arial'">(</tspan>
       <tspan x="15.800537" y="-0.3125" style="font-size: 8.5px; font-family: 'Arial'">m</tspan>
       <tspan x="22.881104" y="-0.3125" style="font-size: 8.5px; font-family: 'Arial'">)</tspan>
      </text>
     </g>
    </g>
   </g>
   <g id="line2d_13">
    <path d="M 46.687426 165.163727 
L 221.920068 55.539306 
L 221.920068 55.539306 
" clip-path="url(#p6532b09f1a)" style="fill: none; stroke-dasharray: 4.44,1.92; stroke-dashoffset: 0; stroke: #000000; stroke-opacity: 0.7; stroke-width: 1.2"/>
   </g>
   <g id="patch_3">
    <path d="M 41.211406 199.474016 
L 41.211406 16.355906 
" style="fill: none; stroke: #000000; stroke-width: 0.6; stroke-linejoin: miter; stroke-linecap: square"/>
   </g>
   <g id="patch_4">
    <path d="M 41.211406 199.474016 
L 221.920068 199.474016 
" style="fill: none; stroke: #000000; stroke-width: 0.6; stroke-linejoin: miter; stroke-linecap: square"/>
   </g>
   <g id="PathCollection_1">
    <defs>
     <path id="mc2fd41556f" d="M 0 2.95804 
C 0.784481 2.95804 1.536938 2.646362 2.09165 2.09165 
C 2.646362 1.536938 2.95804 0.784481 2.95804 0 
C 2.95804 -0.784481 2.646362 -1.536938 2.09165 -2.09165 
C 1.536938 -2.646362 0.784481 -2.95804 0 -2.95804 
C -0.784481 -2.95804 -1.536938 -2.646362 -2.09165 -2.09165 
C -2.646362 -1.536938 -2.95804 -0.784481 -2.95804 0 
C -2.95804 0.784481 -2.646362 1.536938 -2.09165 2.09165 
C -1.536938 2.646362 -0.784481 2.95804 0 2.95804 
z
" style="stroke: #ffffff; stroke-opacity: 0.65; stroke-width: 0.4"/>
    </defs>
    <g clip-path="url(#p6532b09f1a)">
     <use xlink:href="#mc2fd41556f" x="57.639466" y="157.367968" style="fill: #3a9e6f; fill-opacity: 0.65; stroke: #ffffff; stroke-opacity: 0.65; stroke-width: 0.4"/>
     <use xlink:href="#mc2fd41556f" x="57.639466" y="155.704824" style="fill: #3a9e6f; fill-opacity: 0.65; stroke: #ffffff; stroke-opacity: 0.65; stroke-width: 0.4"/>
     <use xlink:href="#mc2fd41556f" x="57.639466" y="147.605539" style="fill: #3a9e6f; fill-opacity: 0.65; stroke: #ffffff; stroke-opacity: 0.65; stroke-width: 0.4"/>
     <use xlink:href="#mc2fd41556f" x="57.639466" y="154.827686" style="fill: #3a9e6f; fill-opacity: 0.65; stroke: #ffffff; stroke-opacity: 0.65; stroke-width: 0.4"/>
     <use xlink:href="#mc2fd41556f" x="57.639466" y="154.656815" style="fill: #3a9e6f; fill-opacity: 0.65; stroke: #ffffff; stroke-opacity: 0.65; stroke-width: 0.4"/>
    </g>
   </g>
   <g id="PathCollection_2">
    <defs>
     <path id="m7f1d5bef99" d="M 0 2.95804 
C 0.784481 2.95804 1.536938 2.646362 2.09165 2.09165 
C 2.646362 1.536938 2.95804 0.784481 2.95804 0 
C 2.95804 -0.784481 2.646362 -1.536938 2.09165 -2.09165 
C 1.536938 -2.646362 0.784481 -2.95804 0 -2.95804 
C -0.784481 -2.95804 -1.536938 -2.646362 -2.09165 -2.09165 
C -2.646362 -1.536938 -2.95804 -0.784481 -2.95804 0 
C -2.95804 0.784481 -2.646362 1.536938 -2.09165 2.09165 
C -1.536938 2.646362 -0.784481 2.95804 0 2.95804 
z
" style="stroke: #ffffff; stroke-opacity: 0.65; stroke-width: 0.4"/>
    </defs>
    <g clip-path="url(#p6532b09f1a)">
     <use xlink:href="#m7f1d5bef99" x="95.971607" y="127.807288" style="fill: #e67e22; fill-opacity: 0.65; stroke: #ffffff; stroke-opacity: 0.65; stroke-width: 0.4"/>
     <use xlink:href="#m7f1d5bef99" x="95.971607" y="139.768257" style="fill: #e67e22; fill-opacity: 0.65; stroke: #ffffff; stroke-opacity: 0.65; stroke-width: 0.4"/>
     <use xlink:href="#m7f1d5bef99" x="95.971607" y="139.244253" style="fill: #e67e22; fill-opacity: 0.65; stroke: #ffffff; stroke-opacity: 0.65; stroke-width: 0.4"/>
     <use xlink:href="#m7f1d5bef99" x="95.971607" y="138.059547" style="fill: #e67e22; fill-opacity: 0.65; stroke: #ffffff; stroke-opacity: 0.65; stroke-width: 0.4"/>
     <use xlink:href="#m7f1d5bef99" x="95.971607" y="130.01722" style="fill: #e67e22; fill-opacity: 0.65; stroke: #ffffff; stroke-opacity: 0.65; stroke-width: 0.4"/>
    </g>
   </g>
   <g id="PathCollection_3">
    <defs>
     <path id="me21f8c8730" d="M 0 2.95804 
C 0.784481 2.95804 1.536938 2.646362 2.09165 2.09165 
C 2.646362 1.536938 2.95804 0.784481 2.95804 0 
C 2.95804 -0.784481 2.646362 -1.536938 2.09165 -2.09165 
C 1.536938 -2.646362 0.784481 -2.95804 0 -2.95804 
C -0.784481 -2.95804 -1.536938 -2.646362 -2.09165 -2.09165 
C -2.646362 -1.536938 -2.95804 -0.784481 -2.95804 0 
C -2.95804 0.784481 -2.646362 1.536938 -2.09165 2.09165 
C -1.536938 2.646362 -0.784481 2.95804 0 2.95804 
z
" style="stroke: #ffffff; stroke-opacity: 0.65; stroke-width: 0.4"/>
    </defs>
    <g clip-path="url(#p6532b09f1a)">
     <use xlink:href="#me21f8c8730" x="128.827727" y="118.329645" style="fill: #5b8fc9; fill-opacity: 0.65; stroke: #ffffff; stroke-opacity: 0.65; stroke-width: 0.4"/>
     <use xlink:href="#me21f8c8730" x="128.827727" y="133.582728" style="fill: #5b8fc9; fill-opacity: 0.65; stroke: #ffffff; stroke-opacity: 0.65; stroke-width: 0.4"/>
     <use xlink:href="#me21f8c8730" x="128.827727" y="118.37521" style="fill: #5b8fc9; fill-opacity: 0.65; stroke: #ffffff; stroke-opacity: 0.65; stroke-width: 0.4"/>
     <use xlink:href="#me21f8c8730" x="128.827727" y="124.799959" style="fill: #5b8fc9; fill-opacity: 0.65; stroke: #ffffff; stroke-opacity: 0.65; stroke-width: 0.4"/>
     <use xlink:href="#me21f8c8730" x="128.827727" y="113.522474" style="fill: #5b8fc9; fill-opacity: 0.65; stroke: #ffffff; stroke-opacity: 0.65; stroke-width: 0.4"/>
    </g>
   </g>
   <g id="PathCollection_4">
    <defs>
     <path id="m75a056facc" d="M 0 2.95804 
C 0.784481 2.95804 1.536938 2.646362 2.09165 2.09165 
C 2.646362 1.536938 2.95804 0.784481 2.95804 0 
C 2.95804 -0.784481 2.646362 -1.536938 2.09165 -2.09165 
C 1.536938 -2.646362 0.784481 -2.95804 0 -2.95804 
C -0.784481 -2.95804 -1.536938 -2.646362 -2.09165 -2.09165 
C -2.646362 -1.536938 -2.95804 -0.784481 -2.95804 0 
C -2.95804 0.784481 -2.646362 1.536938 -2.09165 2.09165 
C -1.536938 2.646362 -0.784481 2.95804 0 2.95804 
z
" style="stroke: #ffffff; stroke-opacity: 0.65; stroke-width: 0.4"/>
    </defs>
    <g clip-path="url(#p6532b09f1a)">
     <use xlink:href="#m75a056facc" x="194.539967" y="88.64366" style="fill: #c0392b; fill-opacity: 0.65; stroke: #ffffff; stroke-opacity: 0.65; stroke-width: 0.4"/>
     <use xlink:href="#m75a056facc" x="194.539967" y="74.734762" style="fill: #c0392b; fill-opacity: 0.65; stroke: #ffffff; stroke-opacity: 0.65; stroke-width: 0.4"/>
     <use xlink:href="#m75a056facc" x="194.539967" y="59.903161" style="fill: #c0392b; fill-opacity: 0.65; stroke: #ffffff; stroke-opacity: 0.65; stroke-width: 0.4"/>
     <use xlink:href="#m75a056facc" x="194.539967" y="66.794957" style="fill: #c0392b; fill-opacity: 0.65; stroke: #ffffff; stroke-opacity: 0.65; stroke-width: 0.4"/>
     <use xlink:href="#m75a056facc" x="194.539967" y="51.701354" style="fill: #c0392b; fill-opacity: 0.65; stroke: #ffffff; stroke-opacity: 0.65; stroke-width: 0.4"/>
    </g>
   </g>
   <g id="text_15">
    <!-- $R^2$ = 0.920 -->
    <g transform="translate(178.724635 176.004567)">
     <text>
      <tspan x="0" y="-0.678125" style="font-style: oblique; font-size: 7px; font-family: 'DejaVu Sans'">R</tspan>
      <tspan x="5.355775" y="-3.357812" style="font-size: 4.9px; font-family: 'DejaVu Sans'">2</tspan>
      <tspan x="8.66471" y="-0.678125" style="font-size: 7px; font-family: 'Arial'"> </tspan>
      <tspan x="10.609535" y="-0.678125" style="font-size: 7px; font-family: 'Arial'">=</tspan>
      <tspan x="14.697425" y="-0.678125" style="font-size: 7px; font-family: 'Arial'"> </tspan>
      <tspan x="16.642249" y="-0.678125" style="font-size: 7px; font-family: 'Arial'">0</tspan>
      <tspan x="20.535316" y="-0.678125" style="font-size: 7px; font-family: 'Arial'">.</tspan>
      <tspan x="22.48014" y="-0.678125" style="font-size: 7px; font-family: 'Arial'">9</tspan>
      <tspan x="26.373206" y="-0.678125" style="font-size: 7px; font-family: 'Arial'">2</tspan>
      <tspan x="30.266273" y="-0.678125" style="font-size: 7px; font-family: 'Arial'">0</tspan>
     </text>
    </g>
    <text style="font-size: 7px; font-family: 'Arial', 'Helvetica', 'DejaVu Sans', sans-serif" transform="translate(170.07526 183.433317)">[0.860, 0.968]</text>
   </g>
   <g id="text_16">
    <text style="font-weight: 700; font-size: 12px; font-family: 'Arial', 'Helvetica', 'DejaVu Sans', sans-serif; text-anchor: start" x="8.683847" y="15.789375" transform="rotate(-0 8.683847 15.789375)">F</text>
   </g>
   <g id="legend_1">
    <g id="patch_5">
     <path d="M 45.411406 65.022468 
L 100.100469 65.022468 
Q 101.300469 65.022468 101.300469 63.822468 
L 101.300469 20.555906 
Q 101.300469 19.355906 100.100469 19.355906 
L 45.411406 19.355906 
Q 44.211406 19.355906 44.211406 20.555906 
L 44.211406 63.822468 
Q 44.211406 65.022468 45.411406 65.022468 
z
" style="fill: #ffffff; opacity: 0.9; stroke: #cccccc; stroke-linejoin: miter"/>
    </g>
    <g id="patch_6">
     <path d="M 46.011406 25.523718 
L 58.011406 25.523718 
L 58.011406 21.323718 
L 46.011406 21.323718 
z
" style="fill: #888888; fill-opacity: 0.08; stroke: #888888; stroke-opacity: 0.08; stroke-linejoin: miter"/>
    </g>
    <g id="text_17">
     <text style="font-size: 6px; font-family: 'Arial', 'Helvetica', 'DejaVu Sans', sans-serif; text-anchor: start" x="59.811406" y="25.523718" transform="rotate(-0 59.811406 25.523718)">95% prediction</text>
    </g>
    <g id="patch_7">
     <path d="M 46.011406 32.810906 
L 58.011406 32.810906 
L 58.011406 28.610906 
L 46.011406 28.610906 
z
" style="fill: #444444; fill-opacity: 0.18; stroke: #444444; stroke-opacity: 0.18; stroke-linejoin: miter"/>
    </g>
    <g id="text_18">
     <text style="font-size: 6px; font-family: 'Arial', 'Helvetica', 'DejaVu Sans', sans-serif; text-anchor: start" x="59.811406" y="32.810906" transform="rotate(-0 59.811406 32.810906)">95% CI</text>
    </g>
    <g id="PathCollection_5">
     <g>
      <use xlink:href="#mc2fd41556f" x="52.011406" y="38.523093" style="fill: #3a9e6f; fill-opacity: 0.65; stroke: #ffffff; stroke-opacity: 0.65; stroke-width: 0.4"/>
     </g>
    </g>
    <g id="text_19">
     <text style="font-size: 6px; font-family: 'Arial', 'Helvetica', 'DejaVu Sans', sans-serif; text-anchor: start" x="59.811406" y="40.098093" transform="rotate(-0 59.811406 40.098093)">Agar</text>
    </g>
    <g id="PathCollection_6">
     <g>
      <use xlink:href="#m7f1d5bef99" x="52.011406" y="45.880593" style="fill: #e67e22; fill-opacity: 0.65; stroke: #ffffff; stroke-opacity: 0.65; stroke-width: 0.4"/>
     </g>
    </g>
    <g id="text_20">
     <text style="font-size: 6px; font-family: 'Arial', 'Helvetica', 'DejaVu Sans', sans-serif; text-anchor: start" x="59.811406" y="47.455593" transform="rotate(-0 59.811406 47.455593)">0.5:1</text>
    </g>
    <g id="PathCollection_7">
     <g>
      <use xlink:href="#me21f8c8730" x="52.011406" y="53.167781" style="fill: #5b8fc9; fill-opacity: 0.65; stroke: #ffffff; stroke-opacity: 0.65; stroke-width: 0.4"/>
     </g>
    </g>
    <g id="text_21">
     <text style="font-size: 6px; font-family: 'Arial', 'Helvetica', 'DejaVu Sans', sans-serif; text-anchor: start" x="59.811406" y="54.742781" transform="rotate(-0 59.811406 54.742781)">1:1</text>
    </g>
    <g id="PathCollection_8">
     <g>
      <use xlink:href="#m75a056facc" x="52.011406" y="60.454968" style="fill: #c0392b; fill-opacity: 0.65; stroke: #ffffff; stroke-opacity: 0.65; stroke-width: 0.4"/>
     </g>
    </g>
    <g id="text_22">
     <text style="font-size: 6px; font-family: 'Arial', 'Helvetica', 'DejaVu Sans', sans-serif; text-anchor: start" x="59.811406" y="62.029968" transform="rotate(-0 59.811406 62.029968)">2:1</text>
    </g>
   </g>
  </g>
 </g>
 <defs>
  <clipPath id="p6532b09f1a">
   <rect x="41.211406" y="16.355906" width="180.708661" height="183.11811"/>
  </clipPath>
 </defs>
</svg>
