<?xml version="1.0" encoding="utf-8" standalone="no"?>
<!DOCTYPE svg PUBLIC "-//W3C//DTD SVG 1.1//EN"
  "http://www.w3.org/Graphics/SVG/1.1/DTD/svg11.dtd">
<svg xmlns:xlink="http://www.w3.org/1999/xlink" width="230.087008pt" height="203.37349pt" viewBox="0 0 230.087008 203.37349" xmlns="http://www.w3.org/2000/svg" version="1.1">
 <metadata>
  <rdf:RDF xmlns:dc="http://purl.org/dc/elements/1.1/" xmlns:cc="http://creativecommons.org/ns#" xmlns:rdf="http://www.w3.org/1999/02/22-rdf-syntax-ns#">
   <cc:Work>
    <dc:type rdf:resource="http://purl.org/dc/dcmitype/StillImage"/>
    <dc:date>2026-03-22T15:17:43.424362</dc:date>
    <dc:format>image/svg+xml</dc:format>
    <dc:creator>
     <cc:Agent>
      <dc:title>Matplotlib v3.10.8, https://matplotlib.org/</dc:title>
     </cc:Agent>
    </dc:creator>
   </cc:Work>
  </rdf:RDF>
 </metadata>
 <defs>
  <style type="text/css">*{stroke-linejoin: round; stroke-linecap: butt}</style>
 </defs>
 <g id="figure_1">
  <g id="patch_1">
   <path d="M 0 203.37349 
L 230.087008 203.37349 
L 230.087008 0 
L 0 0 
z
" style="fill: #ffffff"/>
  </g>
  <g id="axes_1">
   <g id="patch_2">
    <path d="M 34.95 173.026772 
L 222.887008 173.026772 
L 222.887008 13.577953 
L 34.95 13.577953 
z
" style="fill: #ffffff"/>
   </g>
   <g id="FillBetweenPolyCollection_1">
    <defs>
     <path id="m194c230c5d" d="M 34.95 -65.799878 
L 34.95 -47.254715 
L 35.894407 -47.87928 
L 36.838814 -48.500088 
L 37.783221 -49.154387 
L 38.727628 -49.808903 
L 39.672035 -50.430602 
L 40.616442 -51.106103 
L 41.56085 -51.743364 
L 42.505257 -52.409985 
L 43.449664 -53.040479 
L 44.394071 -53.654509 
L 45.338478 -54.315158 
L 46.282885 -54.95252 
L 47.227292 -55.619944 
L 48.171699 -56.29904 
L 49.116106 -56.922202 
L 50.060513 -57.574709 
L 51.00492 -58.200068 
L 51.949327 -58.823454 
L 52.893734 -59.460209 
L 53.838141 -60.090003 
L 54.782549 -60.717525 
L 55.726956 -61.332352 
L 56.671363 -61.965417 
L 57.61577 -62.620012 
L 58.560177 -63.238418 
L 59.504584 -63.844622 
L 60.448991 -64.456244 
L 61.393398 -65.014197 
L 62.337805 -65.63235 
L 63.282212 -66.223001 
L 64.226619 -66.838239 
L 65.171026 -67.45041 
L 66.115433 -68.03385 
L 67.059841 -68.646808 
L 68.004248 -69.257614 
L 68.948655 -69.844066 
L 69.893062 -70.431295 
L 70.837469 -71.024653 
L 71.781876 -71.605371 
L 72.726283 -72.175035 
L 73.67069 -72.771034 
L 74.615097 -73.335708 
L 75.559504 -73.912792 
L 76.503911 -74.472904 
L 77.448318 -75.019818 
L 78.392725 -75.580977 
L 79.337133 -76.149414 
L 80.28154 -76.731418 
L 81.225947 -77.295529 
L 82.170354 -77.841854 
L 83.114761 -78.384359 
L 84.059168 -78.936475 
L 85.003575 -79.456852 
L 85.947982 -80.012042 
L 86.892389 -80.530523 
L 87.836796 -81.058708 
L 88.781203 -81.589821 
L 89.72561 -82.113606 
L 90.670017 -82.615857 
L 91.614424 -83.107515 
L 92.558832 -83.624697 
L 93.503239 -84.111314 
L 94.447646 -84.60612 
L 95.392053 -85.097247 
L 96.33646 -85.580514 
L 97.280867 -86.064487 
L 98.225274 -86.566657 
L 99.169681 -87.034501 
L 100.114088 -87.513286 
L 101.058495 -88.00706 
L 102.002902 -88.488547 
L 102.947309 -88.959605 
L 103.891716 -89.419204 
L 104.836124 -89.888156 
L 105.780531 -90.366192 
L 106.724938 -90.828489 
L 107.669345 -91.300031 
L 108.613752 -91.724635 
L 109.558159 -92.192529 
L 110.502566 -92.639716 
L 111.446973 -93.113361 
L 112.39138 -93.563705 
L 113.335787 -94.036709 
L 114.280194 -94.468837 
L 115.224601 -94.930199 
L 116.169008 -95.373291 
L 117.113416 -95.817236 
L 118.057823 -96.227699 
L 119.00223 -96.652992 
L 119.946637 -97.076736 
L 120.891044 -97.530995 
L 121.835451 -97.978924 
L 122.779858 -98.434894 
L 123.724265 -98.885334 
L 124.668672 -99.289781 
L 125.613079 -99.718815 
L 126.557486 -100.166475 
L 127.501893 -100.6013 
L 128.4463 -101.014872 
L 129.390707 -101.433538 
L 130.335115 -101.851518 
L 131.279522 -102.302514 
L 132.223929 -102.741162 
L 133.168336 -103.186394 
L 134.112743 -103.616676 
L 135.05715 -104.052475 
L 136.001557 -104.485629 
L 136.945964 -104.883448 
L 137.890371 -105.306789 
L 138.834778 -105.71361 
L 139.779185 -106.10876 
L 140.723592 -106.533953 
L 141.667999 -106.965862 
L 142.612407 -107.404379 
L 143.556814 -107.829398 
L 144.501221 -108.265731 
L 145.445628 -108.675069 
L 146.390035 -109.071084 
L 147.334442 -109.49508 
L 148.278849 -109.919208 
L 149.223256 -110.363833 
L 150.167663 -110.774175 
L 151.11207 -111.165206 
L 152.056477 -111.568179 
L 153.000884 -111.98711 
L 153.945291 -112.357309 
L 154.889698 -112.770718 
L 155.834106 -113.18693 
L 156.778513 -113.609453 
L 157.72292 -114.040965 
L 158.667327 -114.435938 
L 159.611734 -114.846447 
L 160.556141 -115.272205 
L 161.500548 -115.690567 
L 162.444955 -116.087412 
L 163.389362 -116.495231 
L 164.333769 -116.896739 
L 165.278176 -117.307859 
L 166.222583 -117.70942 
L 167.16699 -118.102254 
L 168.111398 -118.50684 
L 169.055805 -118.912992 
L 170.000212 -119.318763 
L 170.944619 -119.725556 
L 171.889026 -120.162533 
L 172.833433 -120.547622 
L 173.77784 -120.981925 
L 174.722247 -121.388263 
L 175.666654 -121.764648 
L 176.611061 -122.190204 
L 177.555468 -122.595551 
L 178.499875 -123.011061 
L 179.444282 -123.416486 
L 180.38869 -123.81654 
L 181.333097 -124.249505 
L 182.277504 -124.674901 
L 183.221911 -125.077336 
L 184.166318 -125.521809 
L 185.110725 -125.966062 
L 186.055132 -126.382448 
L 186.999539 -126.787929 
L 187.943946 -127.191067 
L 188.888353 -127.586717 
L 189.83276 -127.967793 
L 190.777167 -128.32261 
L 191.721574 -128.71606 
L 192.665981 -129.130719 
L 193.610389 -129.54326 
L 194.554796 -129.959364 
L 195.499203 -130.366229 
L 196.44361 -130.754898 
L 197.388017 -131.160379 
L 198.332424 -131.569893 
L 199.276831 -131.983957 
L 200.221238 -132.390218 
L 201.165645 -132.790785 
L 202.110052 -133.207722 
L 203.054459 -133.598217 
L 203.998866 -134.013601 
L 204.943273 -134.44206 
L 205.887681 -134.867612 
L 206.832088 -135.257009 
L 207.776495 -135.649999 
L 208.720902 -136.075731 
L 209.665309 -136.500206 
L 210.609716 -136.891553 
L 211.554123 -137.284471 
L 212.49853 -137.661632 
L 213.442937 -138.03783 
L 214.387344 -138.462127 
L 215.331751 -138.822895 
L 216.276158 -139.205299 
L 217.220565 -139.59339 
L 218.164973 -140.004754 
L 219.10938 -140.416582 
L 220.053787 -140.803299 
L 220.998194 -141.223901 
L 221.942601 -141.645993 
L 222.887008 -142.045501 
L 222.887008 -182.547864 
L 222.887008 -182.547864 
L 221.942601 -181.864715 
L 220.998194 -181.212482 
L 220.053787 -180.560663 
L 219.10938 -179.903086 
L 218.164973 -179.227858 
L 217.220565 -178.542364 
L 216.276158 -177.864243 
L 215.331751 -177.202378 
L 214.387344 -176.527669 
L 213.442937 -175.853792 
L 212.49853 -175.186924 
L 211.554123 -174.520494 
L 210.609716 -173.85338 
L 209.665309 -173.185803 
L 208.720902 -172.518227 
L 207.776495 -171.853649 
L 206.832088 -171.207944 
L 205.887681 -170.553557 
L 204.943273 -169.898955 
L 203.998866 -169.241138 
L 203.054459 -168.570722 
L 202.110052 -167.872171 
L 201.165645 -167.226604 
L 200.221238 -166.582611 
L 199.276831 -165.922679 
L 198.332424 -165.246073 
L 197.388017 -164.547659 
L 196.44361 -163.869495 
L 195.499203 -163.182201 
L 194.554796 -162.517099 
L 193.610389 -161.850901 
L 192.665981 -161.172915 
L 191.721574 -160.500293 
L 190.777167 -159.846282 
L 189.83276 -159.185874 
L 188.888353 -158.522523 
L 187.943946 -157.869672 
L 186.999539 -157.209736 
L 186.055132 -156.560994 
L 185.110725 -155.89089 
L 184.166318 -155.238099 
L 183.221911 -154.584382 
L 182.277504 -153.911813 
L 181.333097 -153.230834 
L 180.38869 -152.580551 
L 179.444282 -151.9359 
L 178.499875 -151.264402 
L 177.555468 -150.605912 
L 176.611061 -149.936086 
L 175.666654 -149.271924 
L 174.722247 -148.605821 
L 173.77784 -147.940572 
L 172.833433 -147.273754 
L 171.889026 -146.598696 
L 170.944619 -145.941891 
L 170.000212 -145.275786 
L 169.055805 -144.613102 
L 168.111398 -143.954294 
L 167.16699 -143.273426 
L 166.222583 -142.595147 
L 165.278176 -141.942683 
L 164.333769 -141.279598 
L 163.389362 -140.613544 
L 162.444955 -139.948223 
L 161.500548 -139.29332 
L 160.556141 -138.656769 
L 159.611734 -137.986256 
L 158.667327 -137.347709 
L 157.72292 -136.725213 
L 156.778513 -136.070924 
L 155.834106 -135.437445 
L 154.889698 -134.785351 
L 153.945291 -134.123705 
L 153.000884 -133.476646 
L 152.056477 -132.819361 
L 151.11207 -132.196605 
L 150.167663 -131.553903 
L 149.223256 -130.904302 
L 148.278849 -130.246993 
L 147.334442 -129.598095 
L 146.390035 -128.962585 
L 145.445628 -128.351629 
L 144.501221 -127.7023 
L 143.556814 -127.072318 
L 142.612407 -126.420806 
L 141.667999 -125.799551 
L 140.723592 -125.14985 
L 139.779185 -124.517606 
L 138.834778 -123.894511 
L 137.890371 -123.256142 
L 136.945964 -122.616047 
L 136.001557 -121.971163 
L 135.05715 -121.328664 
L 134.112743 -120.695934 
L 133.168336 -120.072327 
L 132.223929 -119.425623 
L 131.279522 -118.802535 
L 130.335115 -118.161325 
L 129.390707 -117.545255 
L 128.4463 -116.938848 
L 127.501893 -116.309627 
L 126.557486 -115.652616 
L 125.613079 -115.016649 
L 124.668672 -114.39654 
L 123.724265 -113.786984 
L 122.779858 -113.173749 
L 121.835451 -112.546346 
L 120.891044 -111.944897 
L 119.946637 -111.357697 
L 119.00223 -110.758059 
L 118.057823 -110.167834 
L 117.113416 -109.563819 
L 116.169008 -108.973626 
L 115.224601 -108.35315 
L 114.280194 -107.73918 
L 113.335787 -107.100747 
L 112.39138 -106.493372 
L 111.446973 -105.888387 
L 110.502566 -105.28899 
L 109.558159 -104.664882 
L 108.613752 -104.08586 
L 107.669345 -103.513673 
L 106.724938 -102.933043 
L 105.780531 -102.360708 
L 104.836124 -101.798401 
L 103.891716 -101.19596 
L 102.947309 -100.607243 
L 102.002902 -100.030362 
L 101.058495 -99.452716 
L 100.114088 -98.889205 
L 99.169681 -98.303718 
L 98.225274 -97.724314 
L 97.280867 -97.151921 
L 96.33646 -96.584298 
L 95.392053 -96.032849 
L 94.447646 -95.471202 
L 93.503239 -94.938367 
L 92.558832 -94.360387 
L 91.614424 -93.81734 
L 90.670017 -93.294698 
L 89.72561 -92.754714 
L 88.781203 -92.23028 
L 87.836796 -91.698341 
L 86.892389 -91.180329 
L 85.947982 -90.669326 
L 85.003575 -90.126802 
L 84.059168 -89.616877 
L 83.114761 -89.113882 
L 82.170354 -88.574332 
L 81.225947 -88.082573 
L 80.28154 -87.60483 
L 79.337133 -87.118618 
L 78.392725 -86.636432 
L 77.448318 -86.154305 
L 76.503911 -85.663294 
L 75.559504 -85.172594 
L 74.615097 -84.67729 
L 73.67069 -84.154712 
L 72.726283 -83.655056 
L 71.781876 -83.162173 
L 70.837469 -82.700866 
L 69.893062 -82.233899 
L 68.948655 -81.755232 
L 68.004248 -81.287836 
L 67.059841 -80.826972 
L 66.115433 -80.379211 
L 65.171026 -79.905915 
L 64.226619 -79.428464 
L 63.282212 -78.970381 
L 62.337805 -78.502466 
L 61.393398 -78.035633 
L 60.448991 -77.590056 
L 59.504584 -77.157148 
L 58.560177 -76.703675 
L 57.61577 -76.245981 
L 56.671363 -75.796409 
L 55.726956 -75.360578 
L 54.782549 -74.942228 
L 53.838141 -74.511416 
L 52.893734 -74.067341 
L 51.949327 -73.625305 
L 51.00492 -73.160363 
L 50.060513 -72.721087 
L 49.116106 -72.281915 
L 48.171699 -71.843015 
L 47.227292 -71.389239 
L 46.282885 -70.94055 
L 45.338478 -70.483155 
L 44.394071 -70.077095 
L 43.449664 -69.675927 
L 42.505257 -69.24704 
L 41.56085 -68.826513 
L 40.616442 -68.403645 
L 39.672035 -67.951028 
L 38.727628 -67.510912 
L 37.783221 -67.096971 
L 36.838814 -66.652996 
L 35.894407 -66.211136 
L 34.95 -65.799878 
z
" style="stroke: #333333; stroke-opacity: 0.1"/>
    </defs>
    <g clip-path="url(#p662698049a)">
     <use xlink:href="#m194c230c5d" x="0" y="203.37349" style="fill: #333333; fill-opacity: 0.1; stroke: #333333; stroke-opacity: 0.1"/>
    </g>
   </g>
   <g id="FillBetweenPolyCollection_2">
    <defs>
     <path id="m62e3995d65" d="M 34.95 -49.776742 
L 34.95 -37.594392 
L 35.894407 -38.204626 
L 36.838814 -38.823942 
L 37.783221 -39.428881 
L 38.727628 -40.046497 
L 39.672035 -40.649966 
L 40.616442 -41.253494 
L 41.56085 -41.875234 
L 42.505257 -42.489351 
L 43.449664 -43.073497 
L 44.394071 -43.708467 
L 45.338478 -44.319372 
L 46.282885 -44.918398 
L 47.227292 -45.520825 
L 48.171699 -46.109342 
L 49.116106 -46.713501 
L 50.060513 -47.311799 
L 51.00492 -47.905698 
L 51.949327 -48.499094 
L 52.893734 -49.092618 
L 53.838141 -49.677314 
L 54.782549 -50.274082 
L 55.726956 -50.870824 
L 56.671363 -51.470526 
L 57.61577 -52.047713 
L 58.560177 -52.629902 
L 59.504584 -53.213978 
L 60.448991 -53.788515 
L 61.393398 -54.371487 
L 62.337805 -54.959145 
L 63.282212 -55.543705 
L 64.226619 -56.10557 
L 65.171026 -56.669276 
L 66.115433 -57.212747 
L 67.059841 -57.784614 
L 68.004248 -58.348572 
L 68.948655 -58.905409 
L 69.893062 -59.470422 
L 70.837469 -60.027846 
L 71.781876 -60.580482 
L 72.726283 -61.106287 
L 73.67069 -61.644083 
L 74.615097 -62.177193 
L 75.559504 -62.697692 
L 76.503911 -63.227197 
L 77.448318 -63.751166 
L 78.392725 -64.273919 
L 79.337133 -64.795236 
L 80.28154 -65.298465 
L 81.225947 -65.812599 
L 82.170354 -66.325217 
L 83.114761 -66.848699 
L 84.059168 -67.364265 
L 85.003575 -67.879235 
L 85.947982 -68.364856 
L 86.892389 -68.87141 
L 87.836796 -69.370936 
L 88.781203 -69.870561 
L 89.72561 -70.354293 
L 90.670017 -70.841495 
L 91.614424 -71.32586 
L 92.558832 -71.819041 
L 93.503239 -72.30219 
L 94.447646 -72.775681 
L 95.392053 -73.240921 
L 96.33646 -73.72381 
L 97.280867 -74.220381 
L 98.225274 -74.689518 
L 99.169681 -75.170031 
L 100.114088 -75.635492 
L 101.058495 -76.09321 
L 102.002902 -76.555725 
L 102.947309 -77.032402 
L 103.891716 -77.477072 
L 104.836124 -77.949711 
L 105.780531 -78.414839 
L 106.724938 -78.8805 
L 107.669345 -79.33857 
L 108.613752 -79.802558 
L 109.558159 -80.274836 
L 110.502566 -80.729443 
L 111.446973 -81.174238 
L 112.39138 -81.630051 
L 113.335787 -82.096224 
L 114.280194 -82.53531 
L 115.224601 -83.000273 
L 116.169008 -83.450074 
L 117.113416 -83.895893 
L 118.057823 -84.36216 
L 119.00223 -84.812477 
L 119.946637 -85.264357 
L 120.891044 -85.717066 
L 121.835451 -86.141785 
L 122.779858 -86.571488 
L 123.724265 -87.012008 
L 124.668672 -87.440607 
L 125.613079 -87.890104 
L 126.557486 -88.333998 
L 127.501893 -88.774385 
L 128.4463 -89.206869 
L 129.390707 -89.654095 
L 130.335115 -90.102818 
L 131.279522 -90.550496 
L 132.223929 -90.997737 
L 133.168336 -91.425188 
L 134.112743 -91.85859 
L 135.05715 -92.276679 
L 136.001557 -92.718079 
L 136.945964 -93.157448 
L 137.890371 -93.589087 
L 138.834778 -94.024857 
L 139.779185 -94.446097 
L 140.723592 -94.876842 
L 141.667999 -95.29588 
L 142.612407 -95.736757 
L 143.556814 -96.174782 
L 144.501221 -96.624393 
L 145.445628 -97.07828 
L 146.390035 -97.540892 
L 147.334442 -97.986577 
L 148.278849 -98.419606 
L 149.223256 -98.858388 
L 150.167663 -99.298375 
L 151.11207 -99.729712 
L 152.056477 -100.144607 
L 153.000884 -100.564696 
L 153.945291 -100.980043 
L 154.889698 -101.424058 
L 155.834106 -101.870219 
L 156.778513 -102.305071 
L 157.72292 -102.736359 
L 158.667327 -103.17377 
L 159.611734 -103.59894 
L 160.556141 -104.015571 
L 161.500548 -104.454109 
L 162.444955 -104.873712 
L 163.389362 -105.294644 
L 164.333769 -105.731173 
L 165.278176 -106.182026 
L 166.222583 -106.60415 
L 167.16699 -107.040703 
L 168.111398 -107.461351 
L 169.055805 -107.871833 
L 170.000212 -108.313055 
L 170.944619 -108.739755 
L 171.889026 -109.16477 
L 172.833433 -109.611616 
L 173.77784 -110.049425 
L 174.722247 -110.475754 
L 175.666654 -110.908556 
L 176.611061 -111.33867 
L 177.555468 -111.757712 
L 178.499875 -112.180705 
L 179.444282 -112.602124 
L 180.38869 -113.026889 
L 181.333097 -113.478349 
L 182.277504 -113.904376 
L 183.221911 -114.342935 
L 184.166318 -114.738325 
L 185.110725 -115.155334 
L 186.055132 -115.581337 
L 186.999539 -115.989747 
L 187.943946 -116.415806 
L 188.888353 -116.833259 
L 189.83276 -117.257857 
L 190.777167 -117.698206 
L 191.721574 -118.137134 
L 192.665981 -118.569067 
L 193.610389 -118.974224 
L 194.554796 -119.387641 
L 195.499203 -119.807209 
L 196.44361 -120.21963 
L 197.388017 -120.646404 
L 198.332424 -121.073178 
L 199.276831 -121.50172 
L 200.221238 -121.947469 
L 201.165645 -122.393227 
L 202.110052 -122.839482 
L 203.054459 -123.281384 
L 203.998866 -123.712944 
L 204.943273 -124.144064 
L 205.887681 -124.574688 
L 206.832088 -125.00542 
L 207.776495 -125.425054 
L 208.720902 -125.840881 
L 209.665309 -126.256708 
L 210.609716 -126.682115 
L 211.554123 -127.100484 
L 212.49853 -127.518852 
L 213.442937 -127.937695 
L 214.387344 -128.382402 
L 215.331751 -128.799594 
L 216.276158 -129.234389 
L 217.220565 -129.669159 
L 218.164973 -130.093102 
L 219.10938 -130.517045 
L 220.053787 -130.9468 
L 220.998194 -131.382506 
L 221.942601 -131.812852 
L 222.887008 -132.250446 
L 222.887008 -166.15463 
L 222.887008 -166.15463 
L 221.942601 -165.525855 
L 220.998194 -164.889755 
L 220.053787 -164.245047 
L 219.10938 -163.60034 
L 218.164973 -162.955872 
L 217.220565 -162.311598 
L 216.276158 -161.671481 
L 215.331751 -161.035623 
L 214.387344 -160.399766 
L 213.442937 -159.78322 
L 212.49853 -159.16764 
L 211.554123 -158.52823 
L 210.609716 -157.908678 
L 209.665309 -157.270263 
L 208.720902 -156.645279 
L 207.776495 -156.020294 
L 206.832088 -155.395159 
L 205.887681 -154.769535 
L 204.943273 -154.131385 
L 203.998866 -153.480864 
L 203.054459 -152.852487 
L 202.110052 -152.22358 
L 201.165645 -151.592995 
L 200.221238 -150.95086 
L 199.276831 -150.329998 
L 198.332424 -149.70708 
L 197.388017 -149.071621 
L 196.44361 -148.445208 
L 195.499203 -147.818795 
L 194.554796 -147.192382 
L 193.610389 -146.565968 
L 192.665981 -145.939761 
L 191.721574 -145.313354 
L 190.777167 -144.686872 
L 189.83276 -144.060721 
L 188.888353 -143.425859 
L 187.943946 -142.807931 
L 186.999539 -142.181479 
L 186.055132 -141.550642 
L 185.110725 -140.912461 
L 184.166318 -140.289831 
L 183.221911 -139.674898 
L 182.277504 -139.045189 
L 181.333097 -138.398833 
L 180.38869 -137.770291 
L 179.444282 -137.141854 
L 178.499875 -136.514081 
L 177.555468 -135.887208 
L 176.611061 -135.261934 
L 175.666654 -134.628298 
L 174.722247 -133.97566 
L 173.77784 -133.344384 
L 172.833433 -132.705155 
L 171.889026 -132.062523 
L 170.944619 -131.428428 
L 170.000212 -130.787467 
L 169.055805 -130.151684 
L 168.111398 -129.503373 
L 167.16699 -128.860945 
L 166.222583 -128.240963 
L 165.278176 -127.594056 
L 164.333769 -126.964724 
L 163.389362 -126.335064 
L 162.444955 -125.709517 
L 161.500548 -125.0822 
L 160.556141 -124.441887 
L 159.611734 -123.812655 
L 158.667327 -123.187695 
L 157.72292 -122.558252 
L 156.778513 -121.929067 
L 155.834106 -121.319314 
L 154.889698 -120.686368 
L 153.945291 -120.041507 
L 153.000884 -119.412164 
L 152.056477 -118.782499 
L 151.11207 -118.170627 
L 150.167663 -117.541644 
L 149.223256 -116.904617 
L 148.278849 -116.300708 
L 147.334442 -115.667943 
L 146.390035 -115.028812 
L 145.445628 -114.418812 
L 144.501221 -113.81399 
L 143.556814 -113.192677 
L 142.612407 -112.557402 
L 141.667999 -111.92231 
L 140.723592 -111.287361 
L 139.779185 -110.674681 
L 138.834778 -110.069712 
L 137.890371 -109.449325 
L 136.945964 -108.832235 
L 136.001557 -108.22626 
L 135.05715 -107.617495 
L 134.112743 -107.00657 
L 133.168336 -106.379682 
L 132.223929 -105.756903 
L 131.279522 -105.117442 
L 130.335115 -104.484679 
L 129.390707 -103.856858 
L 128.4463 -103.232333 
L 127.501893 -102.608745 
L 126.557486 -101.983434 
L 125.613079 -101.365512 
L 124.668672 -100.756919 
L 123.724265 -100.129582 
L 122.779858 -99.479681 
L 121.835451 -98.836199 
L 120.891044 -98.231584 
L 119.946637 -97.602193 
L 119.00223 -96.997179 
L 118.057823 -96.377395 
L 117.113416 -95.773879 
L 116.169008 -95.148727 
L 115.224601 -94.528508 
L 114.280194 -93.926452 
L 113.335787 -93.304694 
L 112.39138 -92.703608 
L 111.446973 -92.091789 
L 110.502566 -91.474267 
L 109.558159 -90.862058 
L 108.613752 -90.265836 
L 107.669345 -89.654578 
L 106.724938 -89.030224 
L 105.780531 -88.441166 
L 104.836124 -87.845668 
L 103.891716 -87.233233 
L 102.947309 -86.628955 
L 102.002902 -86.009274 
L 101.058495 -85.431571 
L 100.114088 -84.859576 
L 99.169681 -84.267812 
L 98.225274 -83.688246 
L 97.280867 -83.098719 
L 96.33646 -82.520593 
L 95.392053 -81.960096 
L 94.447646 -81.379279 
L 93.503239 -80.807441 
L 92.558832 -80.231988 
L 91.614424 -79.639207 
L 90.670017 -79.087673 
L 89.72561 -78.51271 
L 88.781203 -77.953579 
L 87.836796 -77.376518 
L 86.892389 -76.805481 
L 85.947982 -76.23212 
L 85.003575 -75.680205 
L 84.059168 -75.099747 
L 83.114761 -74.542247 
L 82.170354 -74.013458 
L 81.225947 -73.454358 
L 80.28154 -72.90545 
L 79.337133 -72.371119 
L 78.392725 -71.81876 
L 77.448318 -71.287423 
L 76.503911 -70.758388 
L 75.559504 -70.269567 
L 74.615097 -69.707323 
L 73.67069 -69.195621 
L 72.726283 -68.666377 
L 71.781876 -68.177072 
L 70.837469 -67.660567 
L 69.893062 -67.160106 
L 68.948655 -66.64379 
L 68.004248 -66.139633 
L 67.059841 -65.638793 
L 66.115433 -65.133792 
L 65.171026 -64.651686 
L 64.226619 -64.165167 
L 63.282212 -63.681846 
L 62.337805 -63.196842 
L 61.393398 -62.699921 
L 60.448991 -62.213373 
L 59.504584 -61.728685 
L 58.560177 -61.249921 
L 57.61577 -60.769615 
L 56.671363 -60.290381 
L 55.726956 -59.821147 
L 54.782549 -59.346799 
L 53.838141 -58.887462 
L 52.893734 -58.433245 
L 51.949327 -57.949102 
L 51.00492 -57.501801 
L 50.060513 -57.035978 
L 49.116106 -56.567504 
L 48.171699 -56.09537 
L 47.227292 -55.631278 
L 46.282885 -55.178379 
L 45.338478 -54.727633 
L 44.394071 -54.259968 
L 43.449664 -53.796109 
L 42.505257 -53.327044 
L 41.56085 -52.867899 
L 40.616442 -52.41178 
L 39.672035 -51.965972 
L 38.727628 -51.520299 
L 37.783221 -51.067801 
L 36.838814 -50.633193 
L 35.894407 -50.202959 
L 34.95 -49.776742 
z
" style="stroke: #c0392b; stroke-opacity: 0.08"/>
    </defs>
    <g clip-path="url(#p662698049a)">
     <use xlink:href="#m62e3995d65" x="0" y="203.37349" style="fill: #c0392b; fill-opacity: 0.08; stroke: #c0392b; stroke-opacity: 0.08"/>
    </g>
   </g>
   <g id="matplotlib.axis_1">
    <g id="xtick_1">
     <g id="line2d_1">
      <defs>
       <path id="m48f6fa42d4" d="M 0 0 
L 0 3.5 
" style="stroke: #000000; stroke-width: 0.6"/>
      </defs>
      <g>
       <use xlink:href="#m48f6fa42d4" x="34.95" y="173.026772" style="stroke: #000000; stroke-width: 0.6"/>
      </g>
     </g>
     <g id="text_1">
      <text style="font-size: 7px; font-family: 'Arial', 'Helvetica', 'DejaVu Sans', sans-serif; text-anchor: middle" x="34.95" y="183.53724" transform="rotate(-0 34.95 183.53724)">0</text>
     </g>
    </g>
    <g id="xtick_2">
     <g id="line2d_2">
      <g>
       <use xlink:href="#m48f6fa42d4" x="69.120365" y="173.026772" style="stroke: #000000; stroke-width: 0.6"/>
      </g>
     </g>
     <g id="text_2">
      <text style="font-size: 7px; font-family: 'Arial', 'Helvetica', 'DejaVu Sans', sans-serif; text-anchor: middle" x="69.120365" y="183.53724" transform="rotate(-0 69.120365 183.53724)">200</text>
     </g>
    </g>
    <g id="xtick_3">
     <g id="line2d_3">
      <g>
       <use xlink:href="#m48f6fa42d4" x="103.29073" y="173.026772" style="stroke: #000000; stroke-width: 0.6"/>
      </g>
     </g>
     <g id="text_3">
      <text style="font-size: 7px; font-family: 'Arial', 'Helvetica', 'DejaVu Sans', sans-serif; text-anchor: middle" x="103.29073" y="183.53724" transform="rotate(-0 103.29073 183.53724)">400</text>
     </g>
    </g>
    <g id="xtick_4">
     <g id="line2d_4">
      <g>
       <use xlink:href="#m48f6fa42d4" x="137.461095" y="173.026772" style="stroke: #000000; stroke-width: 0.6"/>
      </g>
     </g>
     <g id="text_4">
      <text style="font-size: 7px; font-family: 'Arial', 'Helvetica', 'DejaVu Sans', sans-serif; text-anchor: middle" x="137.461095" y="183.53724" transform="rotate(-0 137.461095 183.53724)">600</text>
     </g>
    </g>
    <g id="xtick_5">
     <g id="line2d_5">
      <g>
       <use xlink:href="#m48f6fa42d4" x="171.63146" y="173.026772" style="stroke: #000000; stroke-width: 0.6"/>
      </g>
     </g>
     <g id="text_5">
      <text style="font-size: 7px; font-family: 'Arial', 'Helvetica', 'DejaVu Sans', sans-serif; text-anchor: middle" x="171.63146" y="183.53724" transform="rotate(-0 171.63146 183.53724)">800</text>
     </g>
    </g>
    <g id="xtick_6">
     <g id="line2d_6">
      <g>
       <use xlink:href="#m48f6fa42d4" x="205.801825" y="173.026772" style="stroke: #000000; stroke-width: 0.6"/>
      </g>
     </g>
     <g id="text_6">
      <text style="font-size: 7px; font-family: 'Arial', 'Helvetica', 'DejaVu Sans', sans-serif; text-anchor: middle" x="205.801825" y="183.53724" transform="rotate(-0 205.801825 183.53724)">1000</text>
     </g>
    </g>
    <g id="text_7">
     <!-- $\delta$ ($\mu$m) -->
     <g transform="translate(116.041004 194.30349)">
      <text>
       <tspan x="0" y="-0.3125" style="font-style: oblique; font-size: 8.5px; font-family: 'DejaVu Sans'">δ</tspan>
       <tspan x="10.392578" y="-0.3125" style="font-style: oblique; font-size: 8.5px; font-family: 'DejaVu Sans'">μ</tspan>
       <tspan x="5.200439" y="-0.3125" style="font-size: 8.5px; font-family: 'Arial'"> </tspan>
       <tspan x="7.562012" y="-0.3125" style="font-size: 8.5px; font-family: 'Arial'">(</tspan>
       <tspan x="15.800537" y="-0.3125" style="font-size: 8.5px; font-family: 'Arial'">m</tspan>
       <tspan x="22.881104" y="-0.3125" style="font-size: 8.5px; font-family: 'Arial'">)</tspan>
      </text>
     </g>
    </g>
   </g>
   <g id="matplotlib.axis_2">
    <g id="ytick_1">
     <g id="line2d_7">
      <defs>
       <path id="m20ee3b68f4" d="M 0 0 
L -3.5 0 
" style="stroke: #000000; stroke-width: 0.6"/>
      </defs>
      <g>
       <use xlink:href="#m20ee3b68f4" x="34.95" y="150.553936" style="stroke: #000000; stroke-width: 0.6"/>
      </g>
     </g>
     <g id="text_8">
      <text style="font-size: 7px; font-family: 'Arial', 'Helvetica', 'DejaVu Sans', sans-serif; text-anchor: end" x="29.45" y="153.059171" transform="rotate(-0 29.45 153.059171)">0.0</text>
     </g>
    </g>
    <g id="ytick_2">
     <g id="line2d_8">
      <g>
       <use xlink:href="#m20ee3b68f4" x="34.95" y="126.699328" style="stroke: #000000; stroke-width: 0.6"/>
      </g>
     </g>
     <g id="text_9">
      <text style="font-size: 7px; font-family: 'Arial', 'Helvetica', 'DejaVu Sans', sans-serif; text-anchor: end" x="29.45" y="129.204562" transform="rotate(-0 29.45 129.204562)">0.5</text>
     </g>
    </g>
    <g id="ytick_3">
     <g id="line2d_9">
      <g>
       <use xlink:href="#m20ee3b68f4" x="34.95" y="102.844719" style="stroke: #000000; stroke-width: 0.6"/>
      </g>
     </g>
     <g id="text_10">
      <text style="font-size: 7px; font-family: 'Arial', 'Helvetica', 'DejaVu Sans', sans-serif; text-anchor: end" x="29.45" y="105.349954" transform="rotate(-0 29.45 105.349954)">1.0</text>
     </g>
    </g>
    <g id="ytick_4">
     <g id="line2d_10">
      <g>
       <use xlink:href="#m20ee3b68f4" x="34.95" y="78.990111" style="stroke: #000000; stroke-width: 0.6"/>
      </g>
     </g>
     <g id="text_11">
      <text style="font-size: 7px; font-family: 'Arial', 'Helvetica', 'DejaVu Sans', sans-serif; text-anchor: end" x="29.45" y="81.495345" transform="rotate(-0 29.45 81.495345)">1.5</text>
     </g>
    </g>
    <g id="ytick_5">
     <g id="line2d_11">
      <g>
       <use xlink:href="#m20ee3b68f4" x="34.95" y="55.135502" style="stroke: #000000; stroke-width: 0.6"/>
      </g>
     </g>
     <g id="text_12">
      <text style="font-size: 7px; font-family: 'Arial', 'Helvetica', 'DejaVu Sans', sans-serif; text-anchor: end" x="29.45" y="57.640737" transform="rotate(-0 29.45 57.640737)">2.0</text>
     </g>
    </g>
    <g id="ytick_6">
     <g id="line2d_12">
      <g>
       <use xlink:href="#m20ee3b68f4" x="34.95" y="31.280894" style="stroke: #000000; stroke-width: 0.6"/>
      </g>
     </g>
     <g id="text_13">
      <text style="font-size: 7px; font-family: 'Arial', 'Helvetica', 'DejaVu Sans', sans-serif; text-anchor: end" x="29.45" y="33.786128" transform="rotate(-0 29.45 33.786128)">2.5</text>
     </g>
    </g>
    <g id="text_14">
     <!-- d$\tau_{50}$/d$r$ (min mm$^{-1}$) -->
     <g transform="translate(14.85 131.084862) rotate(-90)">
      <text>
       <tspan x="0" y="-0.960938" style="font-size: 8.5px; font-family: 'Arial'">d</tspan>
       <tspan x="17.661963" y="-0.960938" style="font-size: 8.5px; font-family: 'Arial'">/</tspan>
       <tspan x="20.023535" y="-0.960938" style="font-size: 8.5px; font-family: 'Arial'">d</tspan>
       <tspan x="28.245459" y="-0.960938" style="font-size: 8.5px; font-family: 'Arial'"> </tspan>
       <tspan x="30.607031" y="-0.960938" style="font-size: 8.5px; font-family: 'Arial'">(</tspan>
       <tspan x="33.437598" y="-0.960938" style="font-size: 8.5px; font-family: 'Arial'">m</tspan>
       <tspan x="40.518164" y="-0.960938" style="font-size: 8.5px; font-family: 'Arial'">i</tspan>
       <tspan x="42.406592" y="-0.960938" style="font-size: 8.5px; font-family: 'Arial'">n</tspan>
       <tspan x="47.133887" y="-0.960938" style="font-size: 8.5px; font-family: 'Arial'"> </tspan>
       <tspan x="49.495459" y="-0.960938" style="font-size: 8.5px; font-family: 'Arial'">m</tspan>
       <tspan x="56.576025" y="-0.960938" style="font-size: 8.5px; font-family: 'Arial'">m</tspan>
       <tspan x="72.759839" y="-0.960938" style="font-size: 8.5px; font-family: 'Arial'">)</tspan>
       <tspan x="4.727295" y="-0.960938" style="font-style: oblique; font-size: 8.5px; font-family: 'DejaVu Sans'">τ</tspan>
       <tspan x="24.75083" y="-0.960938" style="font-style: oblique; font-size: 8.5px; font-family: 'DejaVu Sans'">r</tspan>
       <tspan x="9.844727" y="0.515625" style="font-size: 5.95px; font-family: 'DejaVu Sans'">5</tspan>
       <tspan x="13.630298" y="0.515625" style="font-size: 5.95px; font-family: 'DejaVu Sans'">0</tspan>
       <tspan x="63.742725" y="-4.40625" style="font-size: 5.95px; font-family: 'DejaVu Sans'">−</tspan>
       <tspan x="68.728174" y="-4.40625" style="font-size: 5.95px; font-family: 'DejaVu Sans'">1</tspan>
      </text>
     </g>
    </g>
   </g>
   <g id="patch_3">
    <path d="M 34.95 173.026772 
L 34.95 13.577953 
" style="fill: none; stroke: #000000; stroke-width: 0.6; stroke-linejoin: miter; stroke-linecap: square"/>
   </g>
   <g id="patch_4">
    <path d="M 34.95 173.026772 
L 222.887008 173.026772 
" style="fill: none; stroke: #000000; stroke-width: 0.6; stroke-linejoin: miter; stroke-linecap: square"/>
   </g>
   <g id="line2d_13">
    <path d="M 34.95 147.145984 
L 222.887008 40.555751 
L 222.887008 40.555751 
" clip-path="url(#p662698049a)" style="fill: none; stroke: #333333; stroke-opacity: 0.8; stroke-width: 0.8; stroke-linecap: square"/>
   </g>
   <g id="line2d_14">
    <path d="M 34.95 159.68463 
L 222.887008 54.953261 
L 222.887008 54.953261 
" clip-path="url(#p662698049a)" style="fill: none; stroke: #c0392b; stroke-opacity: 0.8; stroke-width: 0.8; stroke-linecap: square"/>
   </g>
   <g id="text_15">
    <!-- Overall $R^2$ = 0.70 [0.42, 0.86] -->
    <g style="fill: #333333" transform="translate(135.130157 136.748031)">
     <text>
      <tspan x="0" y="-0.585938" style="font-size: 6px; font-family: 'Arial'; fill: #333333">O</tspan>
      <tspan x="4.666992" y="-0.585938" style="font-size: 6px; font-family: 'Arial'; fill: #333333">v</tspan>
      <tspan x="7.666992" y="-0.585938" style="font-size: 6px; font-family: 'Arial'; fill: #333333">e</tspan>
      <tspan x="11.003906" y="-0.585938" style="font-size: 6px; font-family: 'Arial'; fill: #333333">r</tspan>
      <tspan x="13.001953" y="-0.585938" style="font-size: 6px; font-family: 'Arial'; fill: #333333">a</tspan>
      <tspan x="16.338867" y="-0.585938" style="font-size: 6px; font-family: 'Arial'; fill: #333333">l</tspan>
      <tspan x="17.671875" y="-0.585938" style="font-size: 6px; font-family: 'Arial'; fill: #333333">l</tspan>
      <tspan x="19.004883" y="-0.585938" style="font-size: 6px; font-family: 'Arial'; fill: #333333"> </tspan>
      <tspan x="28.098145" y="-0.585938" style="font-size: 6px; font-family: 'Arial'; fill: #333333"> </tspan>
      <tspan x="29.765137" y="-0.585938" style="font-size: 6px; font-family: 'Arial'; fill: #333333">=</tspan>
      <tspan x="33.269043" y="-0.585938" style="font-size: 6px; font-family: 'Arial'; fill: #333333"> </tspan>
      <tspan x="34.936035" y="-0.585938" style="font-size: 6px; font-family: 'Arial'; fill: #333333">0</tspan>
      <tspan x="38.272949" y="-0.585938" style="font-size: 6px; font-family: 'Arial'; fill: #333333">.</tspan>
      <tspan x="39.939941" y="-0.585938" style="font-size: 6px; font-family: 'Arial'; fill: #333333">7</tspan>
      <tspan x="43.276855" y="-0.585938" style="font-size: 6px; font-family: 'Arial'; fill: #333333">0</tspan>
      <tspan x="46.61377" y="-0.585938" style="font-size: 6px; font-family: 'Arial'; fill: #333333"> </tspan>
      <tspan x="48.280762" y="-0.585938" style="font-size: 6px; font-family: 'Arial'; fill: #333333">[</tspan>
      <tspan x="49.947754" y="-0.585938" style="font-size: 6px; font-family: 'Arial'; fill: #333333">0</tspan>
      <tspan x="53.284668" y="-0.585938" style="font-size: 6px; font-family: 'Arial'; fill: #333333">.</tspan>
      <tspan x="54.95166" y="-0.585938" style="font-size: 6px; font-family: 'Arial'; fill: #333333">4</tspan>
      <tspan x="58.288574" y="-0.585938" style="font-size: 6px; font-family: 'Arial'; fill: #333333">2</tspan>
      <tspan x="61.625488" y="-0.585938" style="font-size: 6px; font-family: 'Arial'; fill: #333333">,</tspan>
      <tspan x="63.29248" y="-0.585938" style="font-size: 6px; font-family: 'Arial'; fill: #333333"> </tspan>
      <tspan x="64.959473" y="-0.585938" style="font-size: 6px; font-family: 'Arial'; fill: #333333">0</tspan>
      <tspan x="68.296387" y="-0.585938" style="font-size: 6px; font-family: 'Arial'; fill: #333333">.</tspan>
      <tspan x="69.963379" y="-0.585938" style="font-size: 6px; font-family: 'Arial'; fill: #333333">8</tspan>
      <tspan x="73.300293" y="-0.585938" style="font-size: 6px; font-family: 'Arial'; fill: #333333">6</tspan>
      <tspan x="76.637207" y="-0.585938" style="font-size: 6px; font-family: 'Arial'; fill: #333333">]</tspan>
      <tspan x="20.671875" y="-0.585938" style="font-style: oblique; font-size: 6px; font-family: 'DejaVu Sans'; fill: #333333">R</tspan>
      <tspan x="25.261914" y="-2.882812" style="font-size: 4.2px; font-family: 'DejaVu Sans'; fill: #333333">2</tspan>
     </text>
    </g>
   </g>
   <g id="text_16">
    <!-- Size-matched $R^2$ = 0.81 [0.64, 0.92] -->
    <g style="fill: #c0392b" transform="translate(117.490157 155.88189)">
     <text>
      <tspan x="0" y="-0.585938" style="font-size: 6px; font-family: 'Arial'; fill: #c0392b">S</tspan>
      <tspan x="4.001953" y="-0.585938" style="font-size: 6px; font-family: 'Arial'; fill: #c0392b">i</tspan>
      <tspan x="5.334961" y="-0.585938" style="font-size: 6px; font-family: 'Arial'; fill: #c0392b">z</tspan>
      <tspan x="8.334961" y="-0.585938" style="font-size: 6px; font-family: 'Arial'; fill: #c0392b">e</tspan>
      <tspan x="11.671875" y="-0.585938" style="font-size: 6px; font-family: 'Arial'; fill: #c0392b">-</tspan>
      <tspan x="13.669922" y="-0.585938" style="font-size: 6px; font-family: 'Arial'; fill: #c0392b">m</tspan>
      <tspan x="18.667969" y="-0.585938" style="font-size: 6px; font-family: 'Arial'; fill: #c0392b">a</tspan>
      <tspan x="22.004883" y="-0.585938" style="font-size: 6px; font-family: 'Arial'; fill: #c0392b">t</tspan>
      <tspan x="23.671875" y="-0.585938" style="font-size: 6px; font-family: 'Arial'; fill: #c0392b">c</tspan>
      <tspan x="26.671875" y="-0.585938" style="font-size: 6px; font-family: 'Arial'; fill: #c0392b">h</tspan>
      <tspan x="30.008789" y="-0.585938" style="font-size: 6px; font-family: 'Arial'; fill: #c0392b">e</tspan>
      <tspan x="33.345703" y="-0.585938" style="font-size: 6px; font-family: 'Arial'; fill: #c0392b">d</tspan>
      <tspan x="36.682617" y="-0.585938" style="font-size: 6px; font-family: 'Arial'; fill: #c0392b"> </tspan>
      <tspan x="45.775879" y="-0.585938" style="font-size: 6px; font-family: 'Arial'; fill: #c0392b"> </tspan>
      <tspan x="47.442871" y="-0.585938" style="font-size: 6px; font-family: 'Arial'; fill: #c0392b">=</tspan>
      <tspan x="50.946777" y="-0.585938" style="font-size: 6px; font-family: 'Arial'; fill: #c0392b"> </tspan>
      <tspan x="52.61377" y="-0.585938" style="font-size: 6px; font-family: 'Arial'; fill: #c0392b">0</tspan>
      <tspan x="55.950684" y="-0.585938" style="font-size: 6px; font-family: 'Arial'; fill: #c0392b">.</tspan>
      <tspan x="57.617676" y="-0.585938" style="font-size: 6px; font-family: 'Arial'; fill: #c0392b">8</tspan>
      <tspan x="60.95459" y="-0.585938" style="font-size: 6px; font-family: 'Arial'; fill: #c0392b">1</tspan>
      <tspan x="64.291504" y="-0.585938" style="font-size: 6px; font-family: 'Arial'; fill: #c0392b"> </tspan>
      <tspan x="65.958496" y="-0.585938" style="font-size: 6px; font-family: 'Arial'; fill: #c0392b">[</tspan>
      <tspan x="67.625488" y="-0.585938" style="font-size: 6px; font-family: 'Arial'; fill: #c0392b">0</tspan>
      <tspan x="70.962402" y="-0.585938" style="font-size: 6px; font-family: 'Arial'; fill: #c0392b">.</tspan>
      <tspan x="72.629395" y="-0.585938" style="font-size: 6px; font-family: 'Arial'; fill: #c0392b">6</tspan>
      <tspan x="75.966309" y="-0.585938" style="font-size: 6px; font-family: 'Arial'; fill: #c0392b">4</tspan>
      <tspan x="79.303223" y="-0.585938" style="font-size: 6px; font-family: 'Arial'; fill: #c0392b">,</tspan>
      <tspan x="80.970215" y="-0.585938" style="font-size: 6px; font-family: 'Arial'; fill: #c0392b"> </tspan>
      <tspan x="82.637207" y="-0.585938" style="font-size: 6px; font-family: 'Arial'; fill: #c0392b">0</tspan>
      <tspan x="85.974121" y="-0.585938" style="font-size: 6px; font-family: 'Arial'; fill: #c0392b">.</tspan>
      <tspan x="87.641113" y="-0.585938" style="font-size: 6px; font-family: 'Arial'; fill: #c0392b">9</tspan>
      <tspan x="90.978027" y="-0.585938" style="font-size: 6px; font-family: 'Arial'; fill: #c0392b">2</tspan>
      <tspan x="94.314941" y="-0.585938" style="font-size: 6px; font-family: 'Arial'; fill: #c0392b">]</tspan>
      <tspan x="38.349609" y="-0.585938" style="font-style: oblique; font-size: 6px; font-family: 'DejaVu Sans'; fill: #c0392b">R</tspan>
      <tspan x="42.939648" y="-2.882812" style="font-size: 4.2px; font-family: 'DejaVu Sans'; fill: #c0392b">2</tspan>
     </text>
    </g>
   </g>
   <g id="text_17">
    <text style="font-weight: 700; font-size: 12px; font-family: 'Arial', 'Helvetica', 'DejaVu Sans', sans-serif; text-anchor: start" x="8.638819" y="15.789375" transform="rotate(-0 8.638819 15.789375)">D</text>
   </g>
   <g id="PathCollection_1">
    <defs>
     <path id="m16ad082958" d="M 0 3 
C 0.795609 3 1.55874 2.683901 2.12132 2.12132 
C 2.683901 1.55874 3 0.795609 3 0 
C 3 -0.795609 2.683901 -1.55874 2.12132 -2.12132 
C 1.55874 -2.683901 0.795609 -3 0 -3 
C -0.795609 -3 -1.55874 -2.683901 -2.12132 -2.12132 
C -2.683901 -1.55874 -3 -0.795609 -3 0 
C -3 0.795609 -2.683901 1.55874 -2.12132 2.12132 
C -1.55874 2.683901 -0.795609 3 0 3 
z
" style="stroke: #ffffff; stroke-width: 0.4"/>
    </defs>
    <g clip-path="url(#p662698049a)">
     <use xlink:href="#m16ad082958" x="48.242272" y="145.726218" style="fill: #3a9e6f; stroke: #ffffff; stroke-width: 0.4"/>
     <use xlink:href="#m16ad082958" x="50.736709" y="150.729338" style="fill: #3a9e6f; stroke: #ffffff; stroke-width: 0.4"/>
     <use xlink:href="#m16ad082958" x="62.884273" y="154.813688" style="fill: #3a9e6f; stroke: #ffffff; stroke-width: 0.4"/>
     <use xlink:href="#m16ad082958" x="52.052268" y="150.06671" style="fill: #3a9e6f; stroke: #ffffff; stroke-width: 0.4"/>
     <use xlink:href="#m16ad082958" x="52.308545" y="153.961738" style="fill: #3a9e6f; stroke: #ffffff; stroke-width: 0.4"/>
    </g>
   </g>
   <g id="PathCollection_2">
    <defs>
     <path id="mcab3d83268" d="M 0 3 
C 0.795609 3 1.55874 2.683901 2.12132 2.12132 
C 2.683901 1.55874 3 0.795609 3 0 
C 3 -0.795609 2.683901 -1.55874 2.12132 -2.12132 
C 1.55874 -2.683901 0.795609 -3 0 -3 
C -0.795609 -3 -1.55874 -2.683901 -2.12132 -2.12132 
C -2.683901 -1.55874 -3 -0.795609 -3 0 
C -3 0.795609 -2.683901 1.55874 -2.12132 2.12132 
C -1.55874 2.683901 -0.795609 3 0 3 
z
" style="stroke: #ffffff; stroke-width: 0.4"/>
    </defs>
    <g clip-path="url(#p662698049a)">
     <use xlink:href="#mcab3d83268" x="92.578321" y="126.874729" style="fill: #e67e22; stroke: #ffffff; stroke-width: 0.4"/>
     <use xlink:href="#mcab3d83268" x="74.638879" y="101.318418" style="fill: #e67e22; stroke: #ffffff; stroke-width: 0.4"/>
     <use xlink:href="#mcab3d83268" x="75.424797" y="111.556329" style="fill: #e67e22; stroke: #ffffff; stroke-width: 0.4"/>
     <use xlink:href="#mcab3d83268" x="77.201656" y="110.991146" style="fill: #e67e22; stroke: #ffffff; stroke-width: 0.4"/>
     <use xlink:href="#mcab3d83268" x="89.263795" y="110.386985" style="fill: #e67e22; stroke: #ffffff; stroke-width: 0.4"/>
    </g>
   </g>
   <g id="PathCollection_3">
    <defs>
     <path id="m574edf2645" d="M 0 3 
C 0.795609 3 1.55874 2.683901 2.12132 2.12132 
C 2.683901 1.55874 3 0.795609 3 0 
C 3 -0.795609 2.683901 -1.55874 2.12132 -2.12132 
C 1.55874 -2.683901 0.795609 -3 0 -3 
C -0.795609 -3 -1.55874 -2.683901 -2.12132 -2.12132 
C -2.683901 -1.55874 -3 -0.795609 -3 0 
C -3 0.795609 -2.683901 1.55874 -2.12132 2.12132 
C -1.55874 2.683901 -0.795609 3 0 3 
z
" style="stroke: #ffffff; stroke-width: 0.4"/>
    </defs>
    <g clip-path="url(#p662698049a)">
     <use xlink:href="#m574edf2645" x="106.793193" y="98.810484" style="fill: #3a6fbf; stroke: #ffffff; stroke-width: 0.4"/>
     <use xlink:href="#m574edf2645" x="83.916133" y="108.524388" style="fill: #3a6fbf; stroke: #ffffff; stroke-width: 0.4"/>
     <use xlink:href="#m574edf2645" x="106.724852" y="88.929531" style="fill: #3a6fbf; stroke: #ffffff; stroke-width: 0.4"/>
     <use xlink:href="#m574edf2645" x="97.088809" y="107.388454" style="fill: #3a6fbf; stroke: #ffffff; stroke-width: 0.4"/>
     <use xlink:href="#m574edf2645" x="114.00314" y="109.51833" style="fill: #3a6fbf; stroke: #ffffff; stroke-width: 0.4"/>
    </g>
   </g>
   <g id="PathCollection_4">
    <defs>
     <path id="med88f24f14" d="M 0 3 
C 0.795609 3 1.55874 2.683901 2.12132 2.12132 
C 2.683901 1.55874 3 0.795609 3 0 
C 3 -0.795609 2.683901 -1.55874 2.12132 -2.12132 
C 1.55874 -2.683901 0.795609 -3 0 -3 
C -0.795609 -3 -1.55874 -2.683901 -2.12132 -2.12132 
C -2.683901 -1.55874 -3 -0.795609 -3 0 
C -3 0.795609 -2.683901 1.55874 -2.12132 2.12132 
C -1.55874 2.683901 -0.795609 3 0 3 
z
" style="stroke: #ffffff; stroke-width: 0.4"/>
    </defs>
    <g clip-path="url(#p662698049a)">
     <use xlink:href="#med88f24f14" x="151.317178" y="66.45115" style="fill: #c0392b; stroke: #ffffff; stroke-width: 0.4"/>
     <use xlink:href="#med88f24f14" x="172.178186" y="67.324945" style="fill: #c0392b; stroke: #ffffff; stroke-width: 0.4"/>
     <use xlink:href="#med88f24f14" x="194.423094" y="86.886042" style="fill: #c0392b; stroke: #ffffff; stroke-width: 0.4"/>
     <use xlink:href="#med88f24f14" x="184.086558" y="43.328676" style="fill: #c0392b; stroke: #ffffff; stroke-width: 0.4"/>
     <use xlink:href="#med88f24f14" x="206.724425" y="48.538349" style="fill: #c0392b; stroke: #ffffff; stroke-width: 0.4"/>
    </g>
   </g>
   <g id="PathCollection_5">
    <defs>
     <path id="mcbdfd4812a" d="M -0 3.535534 
L 3.535534 0 
L 0 -3.535534 
L -3.535534 -0 
z
" style="stroke: #2e7d32; stroke-width: 0.5"/>
    </defs>
    <g clip-path="url(#p662698049a)">
     <use xlink:href="#mcbdfd4812a" x="82.703085" y="130.203256" style="fill: #4caf50; stroke: #2e7d32; stroke-width: 0.5"/>
     <use xlink:href="#mcbdfd4812a" x="88.939177" y="135.003719" style="fill: #4caf50; stroke: #2e7d32; stroke-width: 0.5"/>
     <use xlink:href="#mcbdfd4812a" x="85.829674" y="137.164953" style="fill: #4caf50; stroke: #2e7d32; stroke-width: 0.5"/>
     <use xlink:href="#mcbdfd4812a" x="83.745281" y="131.727505" style="fill: #4caf50; stroke: #2e7d32; stroke-width: 0.5"/>
     <use xlink:href="#mcbdfd4812a" x="88.204514" y="132.136775" style="fill: #4caf50; stroke: #2e7d32; stroke-width: 0.5"/>
    </g>
   </g>
   <g id="PathCollection_6">
    <defs>
     <path id="m98996b37e4" d="M -0 3.535534 
L 3.535534 0 
L 0 -3.535534 
L -3.535534 -0 
z
" style="stroke: #616161; stroke-width: 0.5"/>
    </defs>
    <g clip-path="url(#p662698049a)">
     <use xlink:href="#m98996b37e4" x="68.864087" y="118.538541" style="fill: #9e9e9e; stroke: #616161; stroke-width: 0.5"/>
     <use xlink:href="#m98996b37e4" x="56.5115" y="127.946628" style="fill: #9e9e9e; stroke: #616161; stroke-width: 0.5"/>
     <use xlink:href="#m98996b37e4" x="55.452219" y="108.457568" style="fill: #9e9e9e; stroke: #616161; stroke-width: 0.5"/>
     <use xlink:href="#m98996b37e4" x="57.4341" y="119.470659" style="fill: #9e9e9e; stroke: #616161; stroke-width: 0.5"/>
     <use xlink:href="#m98996b37e4" x="55.964775" y="144.522585" style="fill: #9e9e9e; stroke: #616161; stroke-width: 0.5"/>
    </g>
   </g>
   <g id="PathCollection_7">
    <defs>
     <path id="m5711f33a68" d="M -0 3.535534 
L 3.535534 0 
L 0 -3.535534 
L -3.535534 -0 
z
" style="stroke: #000000; stroke-width: 0.5"/>
    </defs>
    <g clip-path="url(#p662698049a)">
     <use xlink:href="#m5711f33a68" x="56.374819" y="150.553936" style="fill: #212121; stroke: #000000; stroke-width: 0.5"/>
     <use xlink:href="#m5711f33a68" x="51.693479" y="147.146135" style="fill: #212121; stroke: #000000; stroke-width: 0.5"/>
     <use xlink:href="#m5711f33a68" x="54.034149" y="90.917415" style="fill: #212121; stroke: #000000; stroke-width: 0.5"/>
     <use xlink:href="#m5711f33a68" x="58.134593" y="136.747972" style="fill: #212121; stroke: #000000; stroke-width: 0.5"/>
     <use xlink:href="#m5711f33a68" x="48.327698" y="141.650514" style="fill: #212121; stroke: #000000; stroke-width: 0.5"/>
    </g>
   </g>
   <g id="legend_1">
    <g id="PathCollection_8">
     <g>
      <use xlink:href="#m16ad082958" x="43.95" y="21.69764" style="fill: #3a9e6f; stroke: #ffffff; stroke-width: 0.4"/>
     </g>
    </g>
    <g id="text_18">
     <text style="font-size: 6px; font-family: 'Arial', 'Helvetica', 'DejaVu Sans', sans-serif; text-anchor: start" x="49.95" y="23.27264" transform="rotate(-0 49.95 23.27264)">Agar</text>
    </g>
    <g id="PathCollection_9">
     <g>
      <use xlink:href="#mcab3d83268" x="43.95" y="29.05514" style="fill: #e67e22; stroke: #ffffff; stroke-width: 0.4"/>
     </g>
    </g>
    <g id="text_19">
     <text style="font-size: 6px; font-family: 'Arial', 'Helvetica', 'DejaVu Sans', sans-serif; text-anchor: start" x="49.95" y="30.63014" transform="rotate(-0 49.95 30.63014)">0.5:1</text>
    </g>
    <g id="PathCollection_10">
     <g>
      <use xlink:href="#m574edf2645" x="43.95" y="36.342328" style="fill: #3a6fbf; stroke: #ffffff; stroke-width: 0.4"/>
     </g>
    </g>
    <g id="text_20">
     <text style="font-size: 6px; font-family: 'Arial', 'Helvetica', 'DejaVu Sans', sans-serif; text-anchor: start" x="49.95" y="37.917328" transform="rotate(-0 49.95 37.917328)">1:1</text>
    </g>
    <g id="PathCollection_11">
     <g>
      <use xlink:href="#med88f24f14" x="43.95" y="43.629515" style="fill: #c0392b; stroke: #ffffff; stroke-width: 0.4"/>
     </g>
    </g>
    <g id="text_21">
     <text style="font-size: 6px; font-family: 'Arial', 'Helvetica', 'DejaVu Sans', sans-serif; text-anchor: start" x="49.95" y="45.204515" transform="rotate(-0 49.95 45.204515)">2:1</text>
    </g>
    <g id="PathCollection_12">
     <g>
      <use xlink:href="#mcbdfd4812a" x="43.95" y="50.916703" style="fill: #4caf50; stroke: #2e7d32; stroke-width: 0.5"/>
     </g>
    </g>
    <g id="text_22">
     <text style="font-size: 6px; font-family: 'Arial', 'Helvetica', 'DejaVu Sans', sans-serif; text-anchor: start" x="49.95" y="52.491703" transform="rotate(-0 49.95 52.491703)">Green</text>
    </g>
    <g id="PathCollection_13">
     <g>
      <use xlink:href="#m98996b37e4" x="75.024375" y="21.69764" style="fill: #9e9e9e; stroke: #616161; stroke-width: 0.5"/>
     </g>
    </g>
    <g id="text_23">
     <text style="font-size: 6px; font-family: 'Arial', 'Helvetica', 'DejaVu Sans', sans-serif; text-anchor: start" x="81.024375" y="23.27264" transform="rotate(-0 81.024375 23.27264)">White</text>
    </g>
    <g id="PathCollection_14">
     <g>
      <use xlink:href="#m5711f33a68" x="75.024375" y="28.984828" style="fill: #212121; stroke: #000000; stroke-width: 0.5"/>
     </g>
    </g>
    <g id="text_24">
     <text style="font-size: 6px; font-family: 'Arial', 'Helvetica', 'DejaVu Sans', sans-serif; text-anchor: start" x="81.024375" y="30.559828" transform="rotate(-0 81.024375 30.559828)">Black</text>
    </g>
    <g id="line2d_15">
     <path d="M 71.424375 35.747015 
L 75.024375 35.747015 
L 78.624375 35.747015 
" style="fill: none; stroke: #333333; stroke-width: 0.8; stroke-linecap: square"/>
    </g>
    <g id="text_25">
     <text style="font-size: 6px; font-family: 'Arial', 'Helvetica', 'DejaVu Sans', sans-serif; text-anchor: start" x="81.024375" y="37.847015" transform="rotate(-0 81.024375 37.847015)">Overall OLS</text>
    </g>
    <g id="line2d_16">
     <path d="M 71.424375 43.034203 
L 75.024375 43.034203 
L 78.624375 43.034203 
" style="fill: none; stroke: #c0392b; stroke-width: 0.8; stroke-linecap: square"/>
    </g>
    <g id="text_26">
     <text style="font-size: 6px; font-family: 'Arial', 'Helvetica', 'DejaVu Sans', sans-serif; text-anchor: start" x="81.024375" y="45.134203" transform="rotate(-0 81.024375 45.134203)">Size-matched OLS</text>
    </g>
   </g>
  </g>
 </g>
 <defs>
  <clipPath id="p662698049a">
   <rect x="34.95" y="13.577953" width="187.937008" height="159.448819"/>
  </clipPath>
 </defs>
</svg>
