<?xml version="1.0" encoding="utf-8" standalone="no"?>
<!DOCTYPE svg PUBLIC "-//W3C//DTD SVG 1.1//EN"
  "http://www.w3.org/Graphics/SVG/1.1/DTD/svg11.dtd">
<svg xmlns:xlink="http://www.w3.org/1999/xlink" width="232.50122pt" height="230.980734pt" viewBox="0 0 232.50122 230.980734" xmlns="http://www.w3.org/2000/svg" version="1.1">
 <metadata>
  <rdf:RDF xmlns:dc="http://purl.org/dc/elements/1.1/" xmlns:cc="http://creativecommons.org/ns#" xmlns:rdf="http://www.w3.org/1999/02/22-rdf-syntax-ns#">
   <cc:Work>
    <dc:type rdf:resource="http://purl.org/dc/dcmitype/StillImage"/>
    <dc:date>2026-03-29T23:02:01.250951</dc:date>
    <dc:format>image/svg+xml</dc:format>
    <dc:creator>
     <cc:Agent>
      <dc:title>Matplotlib v3.10.8, https://matplotlib.org/</dc:title>
     </cc:Agent>
    </dc:creator>
   </cc:Work>
  </rdf:RDF>
 </metadata>
 <defs>
  <style type="text/css">*{stroke-linejoin: round; stroke-linecap: butt}</style>
 </defs>
 <g id="figure_1">
  <g id="patch_1">
   <path d="M 0 230.980734 
L 232.50122 230.980734 
L 232.50122 0 
L 0 0 
z
" style="fill: #ffffff"/>
  </g>
  <g id="axes_1">
   <g id="patch_2">
    <path d="M 39.727559 199.474016 
L 220.43622 199.474016 
L 220.43622 16.355906 
L 39.727559 16.355906 
z
" style="fill: #ffffff"/>
   </g>
   <g id="FillBetweenPolyCollection_1">
    <defs>
     <path id="m52210ef6e0" d="M 45.203579 -91.804168 
L 45.203579 -39.830269 
L 46.084145 -40.442066 
L 46.964711 -41.047985 
L 47.845277 -41.654904 
L 48.725843 -42.28082 
L 49.606409 -42.88778 
L 50.486975 -43.489558 
L 51.367541 -44.093509 
L 52.248107 -44.693366 
L 53.128673 -45.29187 
L 54.009239 -45.88852 
L 54.889806 -46.508167 
L 55.770372 -47.105905 
L 56.650938 -47.69857 
L 57.531504 -48.294146 
L 58.41207 -48.904553 
L 59.292636 -49.516558 
L 60.173202 -50.122086 
L 61.053768 -50.731911 
L 61.934334 -51.327367 
L 62.8149 -51.926518 
L 63.695466 -52.498773 
L 64.576032 -53.098717 
L 65.456598 -53.698805 
L 66.337164 -54.290949 
L 67.21773 -54.887522 
L 68.098296 -55.48137 
L 68.978862 -56.076985 
L 69.859428 -56.663425 
L 70.739994 -57.257237 
L 71.62056 -57.846887 
L 72.501126 -58.422876 
L 73.381692 -58.997217 
L 74.262258 -59.592715 
L 75.142824 -60.170272 
L 76.02339 -60.763999 
L 76.903956 -61.352564 
L 77.784522 -61.916603 
L 78.665089 -62.498135 
L 79.545655 -63.069539 
L 80.426221 -63.636079 
L 81.306787 -64.199977 
L 82.187353 -64.766283 
L 83.067919 -65.331605 
L 83.948485 -65.904081 
L 84.829051 -66.479707 
L 85.709617 -67.03694 
L 86.590183 -67.615672 
L 87.470749 -68.176616 
L 88.351315 -68.734767 
L 89.231881 -69.286587 
L 90.112447 -69.851683 
L 90.993013 -70.399217 
L 91.873579 -70.955312 
L 92.754145 -71.504256 
L 93.634711 -72.05775 
L 94.515277 -72.613651 
L 95.395843 -73.147802 
L 96.276409 -73.673851 
L 97.156975 -74.21257 
L 98.037541 -74.74225 
L 98.918107 -75.288679 
L 99.798673 -75.829544 
L 100.679239 -76.369158 
L 101.559805 -76.914091 
L 102.440372 -77.452059 
L 103.320938 -77.970495 
L 104.201504 -78.506981 
L 105.08207 -79.038215 
L 105.962636 -79.555107 
L 106.843202 -80.074714 
L 107.723768 -80.610029 
L 108.604334 -81.13009 
L 109.4849 -81.657369 
L 110.365466 -82.178331 
L 111.246032 -82.707744 
L 112.126598 -83.247795 
L 113.007164 -83.795425 
L 113.88773 -84.300864 
L 114.768296 -84.833743 
L 115.648862 -85.347362 
L 116.529428 -85.878089 
L 117.409994 -86.393173 
L 118.29056 -86.902219 
L 119.171126 -87.430581 
L 120.051692 -87.945265 
L 120.932258 -88.458539 
L 121.812824 -88.946279 
L 122.69339 -89.436982 
L 123.573956 -89.940082 
L 124.454522 -90.449427 
L 125.335088 -90.950074 
L 126.215655 -91.459691 
L 127.096221 -91.948564 
L 127.976787 -92.436414 
L 128.857353 -92.95981 
L 129.737919 -93.476379 
L 130.618485 -93.986935 
L 131.499051 -94.474459 
L 132.379617 -94.960452 
L 133.260183 -95.444789 
L 134.140749 -95.930624 
L 135.021315 -96.435251 
L 135.901881 -96.939301 
L 136.782447 -97.412866 
L 137.663013 -97.891854 
L 138.543579 -98.371131 
L 139.424145 -98.874815 
L 140.304711 -99.381855 
L 141.185277 -99.882058 
L 142.065843 -100.380355 
L 142.946409 -100.873447 
L 143.826975 -101.374331 
L 144.707541 -101.860447 
L 145.588107 -102.344058 
L 146.468673 -102.834963 
L 147.349239 -103.319542 
L 148.229805 -103.808745 
L 149.110371 -104.308689 
L 149.990938 -104.79116 
L 150.871504 -105.280761 
L 151.75207 -105.762143 
L 152.632636 -106.245139 
L 153.513202 -106.713098 
L 154.393768 -107.208853 
L 155.274334 -107.711836 
L 156.1549 -108.214498 
L 157.035466 -108.698259 
L 157.916032 -109.180014 
L 158.796598 -109.668282 
L 159.677164 -110.14709 
L 160.55773 -110.617559 
L 161.438296 -111.105948 
L 162.318862 -111.590245 
L 163.199428 -112.074502 
L 164.079994 -112.554007 
L 164.96056 -113.037736 
L 165.841126 -113.512566 
L 166.721692 -113.992137 
L 167.602258 -114.471537 
L 168.482824 -114.950725 
L 169.36339 -115.428709 
L 170.243956 -115.909417 
L 171.124522 -116.380187 
L 172.005088 -116.862702 
L 172.885654 -117.332309 
L 173.766221 -117.788689 
L 174.646787 -118.265543 
L 175.527353 -118.747376 
L 176.407919 -119.21302 
L 177.288485 -119.700108 
L 178.169051 -120.182526 
L 179.049617 -120.64921 
L 179.930183 -121.112957 
L 180.810749 -121.571795 
L 181.691315 -122.050466 
L 182.571881 -122.524546 
L 183.452447 -122.999334 
L 184.333013 -123.474685 
L 185.213579 -123.941787 
L 186.094145 -124.404457 
L 186.974711 -124.863374 
L 187.855277 -125.324999 
L 188.735843 -125.803994 
L 189.616409 -126.267773 
L 190.496975 -126.74499 
L 191.377541 -127.218762 
L 192.258107 -127.693306 
L 193.138673 -128.163409 
L 194.019239 -128.614014 
L 194.899805 -129.097379 
L 195.780371 -129.573122 
L 196.660937 -130.033067 
L 197.541504 -130.502729 
L 198.42207 -130.96378 
L 199.302636 -131.441164 
L 200.183202 -131.920341 
L 201.063768 -132.392191 
L 201.944334 -132.871474 
L 202.8249 -133.341016 
L 203.705466 -133.810572 
L 204.586032 -134.282646 
L 205.466598 -134.757684 
L 206.347164 -135.218776 
L 207.22773 -135.688306 
L 208.108296 -136.168992 
L 208.988862 -136.643541 
L 209.869428 -137.09661 
L 210.749994 -137.562176 
L 211.63056 -138.032138 
L 212.511126 -138.501691 
L 213.391692 -138.970837 
L 214.272258 -139.421071 
L 215.152824 -139.871777 
L 216.03339 -140.350941 
L 216.913956 -140.826749 
L 217.794522 -141.309376 
L 218.675088 -141.775176 
L 219.555654 -142.249596 
L 220.43622 -142.709687 
L 220.43622 -206.301279 
L 220.43622 -206.301279 
L 219.555654 -205.69907 
L 218.675088 -205.072743 
L 217.794522 -204.442313 
L 216.913956 -203.825289 
L 216.03339 -203.210311 
L 215.152824 -202.584238 
L 214.272258 -201.967771 
L 213.391692 -201.35524 
L 212.511126 -200.740675 
L 211.63056 -200.126107 
L 210.749994 -199.507399 
L 209.869428 -198.894931 
L 208.988862 -198.275867 
L 208.108296 -197.653456 
L 207.22773 -197.031105 
L 206.347164 -196.406485 
L 205.466598 -195.773804 
L 204.586032 -195.159338 
L 203.705466 -194.552885 
L 202.8249 -193.93364 
L 201.944334 -193.306567 
L 201.063768 -192.674334 
L 200.183202 -192.052494 
L 199.302636 -191.433348 
L 198.42207 -190.81875 
L 197.541504 -190.204178 
L 196.660937 -189.579431 
L 195.780371 -188.951831 
L 194.899805 -188.314946 
L 194.019239 -187.697546 
L 193.138673 -187.070074 
L 192.258107 -186.460002 
L 191.377541 -185.857026 
L 190.496975 -185.226554 
L 189.616409 -184.611404 
L 188.735843 -183.991909 
L 187.855277 -183.343825 
L 186.974711 -182.730465 
L 186.094145 -182.109895 
L 185.213579 -181.495522 
L 184.333013 -180.885423 
L 183.452447 -180.273267 
L 182.571881 -179.654119 
L 181.691315 -179.044866 
L 180.810749 -178.417249 
L 179.930183 -177.824511 
L 179.049617 -177.197764 
L 178.169051 -176.57569 
L 177.288485 -175.967545 
L 176.407919 -175.33857 
L 175.527353 -174.726043 
L 174.646787 -174.116872 
L 173.766221 -173.481223 
L 172.885654 -172.86692 
L 172.005088 -172.250632 
L 171.124522 -171.634287 
L 170.243956 -171.005485 
L 169.36339 -170.38959 
L 168.482824 -169.802181 
L 167.602258 -169.18672 
L 166.721692 -168.548568 
L 165.841126 -167.937848 
L 164.96056 -167.331998 
L 164.079994 -166.731533 
L 163.199428 -166.115113 
L 162.318862 -165.51376 
L 161.438296 -164.921312 
L 160.55773 -164.307101 
L 159.677164 -163.707694 
L 158.796598 -163.087735 
L 157.916032 -162.49355 
L 157.035466 -161.88041 
L 156.1549 -161.269845 
L 155.274334 -160.665658 
L 154.393768 -160.05927 
L 153.513202 -159.434812 
L 152.632636 -158.808882 
L 151.75207 -158.180576 
L 150.871504 -157.567454 
L 149.990938 -156.959793 
L 149.110371 -156.342244 
L 148.229805 -155.736129 
L 147.349239 -155.124412 
L 146.468673 -154.522438 
L 145.588107 -153.911506 
L 144.707541 -153.316668 
L 143.826975 -152.698375 
L 142.946409 -152.085876 
L 142.065843 -151.479484 
L 141.185277 -150.874329 
L 140.304711 -150.249668 
L 139.424145 -149.638775 
L 138.543579 -149.022167 
L 137.663013 -148.420015 
L 136.782447 -147.835241 
L 135.901881 -147.231996 
L 135.021315 -146.62871 
L 134.140749 -146.019592 
L 133.260183 -145.417303 
L 132.379617 -144.810594 
L 131.499051 -144.21254 
L 130.618485 -143.591307 
L 129.737919 -142.98635 
L 128.857353 -142.382459 
L 127.976787 -141.775414 
L 127.096221 -141.187945 
L 126.215655 -140.610905 
L 125.335088 -140.019128 
L 124.454522 -139.434359 
L 123.573956 -138.828715 
L 122.69339 -138.223279 
L 121.812824 -137.63501 
L 120.932258 -137.044471 
L 120.051692 -136.458715 
L 119.171126 -135.861126 
L 118.29056 -135.26944 
L 117.409994 -134.685908 
L 116.529428 -134.118193 
L 115.648862 -133.554716 
L 114.768296 -132.987744 
L 113.88773 -132.414974 
L 113.007164 -131.848976 
L 112.126598 -131.28339 
L 111.246032 -130.699091 
L 110.365466 -130.122444 
L 109.4849 -129.554416 
L 108.604334 -128.983069 
L 107.723768 -128.421907 
L 106.843202 -127.86332 
L 105.962636 -127.289371 
L 105.08207 -126.723073 
L 104.201504 -126.153452 
L 103.320938 -125.569993 
L 102.440372 -125.015702 
L 101.559805 -124.454824 
L 100.679239 -123.88564 
L 99.798673 -123.317333 
L 98.918107 -122.769733 
L 98.037541 -122.221086 
L 97.156975 -121.66949 
L 96.276409 -121.134962 
L 95.395843 -120.585707 
L 94.515277 -120.049444 
L 93.634711 -119.529406 
L 92.754145 -118.992472 
L 91.873579 -118.458239 
L 90.993013 -117.93926 
L 90.112447 -117.420469 
L 89.231881 -116.899619 
L 88.351315 -116.362528 
L 87.470749 -115.824954 
L 86.590183 -115.291323 
L 85.709617 -114.778803 
L 84.829051 -114.25445 
L 83.948485 -113.728831 
L 83.067919 -113.252017 
L 82.187353 -112.733967 
L 81.306787 -112.222473 
L 80.426221 -111.690636 
L 79.545655 -111.156878 
L 78.665089 -110.639262 
L 77.784522 -110.121079 
L 76.903956 -109.601587 
L 76.02339 -109.106477 
L 75.142824 -108.601861 
L 74.262258 -108.086724 
L 73.381692 -107.577293 
L 72.501126 -107.062378 
L 71.62056 -106.568123 
L 70.739994 -106.070371 
L 69.859428 -105.543812 
L 68.978862 -105.031525 
L 68.098296 -104.530429 
L 67.21773 -104.036091 
L 66.337164 -103.537572 
L 65.456598 -103.027475 
L 64.576032 -102.51754 
L 63.695466 -102.004641 
L 62.8149 -101.511861 
L 61.934334 -101.028502 
L 61.053768 -100.545515 
L 60.173202 -100.050456 
L 59.292636 -99.564215 
L 58.41207 -99.081529 
L 57.531504 -98.612941 
L 56.650938 -98.115188 
L 55.770372 -97.597463 
L 54.889806 -97.111452 
L 54.009239 -96.610954 
L 53.128673 -96.132166 
L 52.248107 -95.64641 
L 51.367541 -95.172567 
L 50.486975 -94.684693 
L 49.606409 -94.207198 
L 48.725843 -93.737313 
L 47.845277 -93.25608 
L 46.964711 -92.772623 
L 46.084145 -92.280255 
L 45.203579 -91.804168 
z
" style="stroke: #888888; stroke-opacity: 0.08"/>
    </defs>
    <g clip-path="url(#p92de361599)">
     <use xlink:href="#m52210ef6e0" x="0" y="230.980734" style="fill: #888888; fill-opacity: 0.08; stroke: #888888; stroke-opacity: 0.08"/>
    </g>
   </g>
   <g id="FillBetweenPolyCollection_2">
    <defs>
     <path id="m2c12c58515" d="M 45.203579 -71.953231 
L 45.203579 -59.681206 
L 46.084145 -60.293002 
L 46.964711 -60.898921 
L 47.845277 -61.50584 
L 48.725843 -62.131756 
L 49.606409 -62.738717 
L 50.486975 -63.340494 
L 51.367541 -63.944446 
L 52.248107 -64.544302 
L 53.128673 -65.142806 
L 54.009239 -65.739457 
L 54.889806 -66.359104 
L 55.770372 -66.956841 
L 56.650938 -67.549506 
L 57.531504 -68.145082 
L 58.41207 -68.75549 
L 59.292636 -69.367494 
L 60.173202 -69.973022 
L 61.053768 -70.582847 
L 61.934334 -71.178303 
L 62.8149 -71.777454 
L 63.695466 -72.349709 
L 64.576032 -72.949653 
L 65.456598 -73.549742 
L 66.337164 -74.141886 
L 67.21773 -74.738458 
L 68.098296 -75.332306 
L 68.978862 -75.927921 
L 69.859428 -76.514362 
L 70.739994 -77.108173 
L 71.62056 -77.697823 
L 72.501126 -78.273813 
L 73.381692 -78.848154 
L 74.262258 -79.443651 
L 75.142824 -80.021208 
L 76.02339 -80.614935 
L 76.903956 -81.2035 
L 77.784522 -81.76754 
L 78.665089 -82.349072 
L 79.545655 -82.920476 
L 80.426221 -83.487016 
L 81.306787 -84.050913 
L 82.187353 -84.617219 
L 83.067919 -85.182541 
L 83.948485 -85.755017 
L 84.829051 -86.330644 
L 85.709617 -86.887877 
L 86.590183 -87.466608 
L 87.470749 -88.027552 
L 88.351315 -88.585703 
L 89.231881 -89.137524 
L 90.112447 -89.702619 
L 90.993013 -90.250153 
L 91.873579 -90.806249 
L 92.754145 -91.355193 
L 93.634711 -91.908687 
L 94.515277 -92.464587 
L 95.395843 -92.998739 
L 96.276409 -93.524787 
L 97.156975 -94.063507 
L 98.037541 -94.593187 
L 98.918107 -95.139615 
L 99.798673 -95.680481 
L 100.679239 -96.220094 
L 101.559805 -96.765027 
L 102.440372 -97.302996 
L 103.320938 -97.821432 
L 104.201504 -98.357918 
L 105.08207 -98.889151 
L 105.962636 -99.406043 
L 106.843202 -99.92565 
L 107.723768 -100.460965 
L 108.604334 -100.981026 
L 109.4849 -101.508306 
L 110.365466 -102.029267 
L 111.246032 -102.55868 
L 112.126598 -103.098731 
L 113.007164 -103.646361 
L 113.88773 -104.1518 
L 114.768296 -104.684679 
L 115.648862 -105.198298 
L 116.529428 -105.729026 
L 117.409994 -106.244109 
L 118.29056 -106.753156 
L 119.171126 -107.281517 
L 120.051692 -107.796201 
L 120.932258 -108.309475 
L 121.812824 -108.797215 
L 122.69339 -109.287918 
L 123.573956 -109.791018 
L 124.454522 -110.300364 
L 125.335088 -110.801011 
L 126.215655 -111.310627 
L 127.096221 -111.799501 
L 127.976787 -112.28735 
L 128.857353 -112.810746 
L 129.737919 -113.327316 
L 130.618485 -113.837871 
L 131.499051 -114.325395 
L 132.379617 -114.811388 
L 133.260183 -115.295725 
L 134.140749 -115.781561 
L 135.021315 -116.286187 
L 135.901881 -116.790237 
L 136.782447 -117.263803 
L 137.663013 -117.742791 
L 138.543579 -118.222067 
L 139.424145 -118.725751 
L 140.304711 -119.232792 
L 141.185277 -119.732994 
L 142.065843 -120.231291 
L 142.946409 -120.724384 
L 143.826975 -121.225267 
L 144.707541 -121.711383 
L 145.588107 -122.194994 
L 146.468673 -122.685899 
L 147.349239 -123.170478 
L 148.229805 -123.659681 
L 149.110371 -124.159625 
L 149.990938 -124.642096 
L 150.871504 -125.131698 
L 151.75207 -125.61308 
L 152.632636 -126.096076 
L 153.513202 -126.564035 
L 154.393768 -127.059789 
L 155.274334 -127.562772 
L 156.1549 -128.065435 
L 157.035466 -128.549195 
L 157.916032 -129.03095 
L 158.796598 -129.519219 
L 159.677164 -129.998026 
L 160.55773 -130.468495 
L 161.438296 -130.956884 
L 162.318862 -131.441182 
L 163.199428 -131.925439 
L 164.079994 -132.404944 
L 164.96056 -132.888673 
L 165.841126 -133.363503 
L 166.721692 -133.843074 
L 167.602258 -134.322473 
L 168.482824 -134.801662 
L 169.36339 -135.279646 
L 170.243956 -135.760354 
L 171.124522 -136.231123 
L 172.005088 -136.713638 
L 172.885654 -137.183245 
L 173.766221 -137.639626 
L 174.646787 -138.11648 
L 175.527353 -138.598312 
L 176.407919 -139.063956 
L 177.288485 -139.551044 
L 178.169051 -140.033463 
L 179.049617 -140.500147 
L 179.930183 -140.963893 
L 180.810749 -141.422731 
L 181.691315 -141.901402 
L 182.571881 -142.375482 
L 183.452447 -142.850271 
L 184.333013 -143.325622 
L 185.213579 -143.792723 
L 186.094145 -144.255394 
L 186.974711 -144.71431 
L 187.855277 -145.175936 
L 188.735843 -145.654931 
L 189.616409 -146.118709 
L 190.496975 -146.595926 
L 191.377541 -147.069698 
L 192.258107 -147.544242 
L 193.138673 -148.014346 
L 194.019239 -148.464951 
L 194.899805 -148.948315 
L 195.780371 -149.424059 
L 196.660937 -149.884003 
L 197.541504 -150.353666 
L 198.42207 -150.814716 
L 199.302636 -151.2921 
L 200.183202 -151.771277 
L 201.063768 -152.243127 
L 201.944334 -152.722411 
L 202.8249 -153.191952 
L 203.705466 -153.661508 
L 204.586032 -154.133583 
L 205.466598 -154.60862 
L 206.347164 -155.069712 
L 207.22773 -155.539242 
L 208.108296 -156.019928 
L 208.988862 -156.494477 
L 209.869428 -156.947546 
L 210.749994 -157.413113 
L 211.63056 -157.883074 
L 212.511126 -158.352627 
L 213.391692 -158.821773 
L 214.272258 -159.272008 
L 215.152824 -159.722714 
L 216.03339 -160.201878 
L 216.913956 -160.677686 
L 217.794522 -161.160313 
L 218.675088 -161.626112 
L 219.555654 -162.100532 
L 220.43622 -162.560623 
L 220.43622 -186.450342 
L 220.43622 -186.450342 
L 219.555654 -185.848133 
L 218.675088 -185.221807 
L 217.794522 -184.591376 
L 216.913956 -183.974353 
L 216.03339 -183.359375 
L 215.152824 -182.733301 
L 214.272258 -182.116835 
L 213.391692 -181.504304 
L 212.511126 -180.889738 
L 211.63056 -180.275171 
L 210.749994 -179.656463 
L 209.869428 -179.043995 
L 208.988862 -178.424931 
L 208.108296 -177.80252 
L 207.22773 -177.180168 
L 206.347164 -176.555548 
L 205.466598 -175.922867 
L 204.586032 -175.308401 
L 203.705466 -174.701948 
L 202.8249 -174.082704 
L 201.944334 -173.455631 
L 201.063768 -172.823397 
L 200.183202 -172.201557 
L 199.302636 -171.582411 
L 198.42207 -170.967813 
L 197.541504 -170.353242 
L 196.660937 -169.728495 
L 195.780371 -169.100894 
L 194.899805 -168.46401 
L 194.019239 -167.84661 
L 193.138673 -167.219137 
L 192.258107 -166.609065 
L 191.377541 -166.00609 
L 190.496975 -165.375618 
L 189.616409 -164.760468 
L 188.735843 -164.140973 
L 187.855277 -163.492888 
L 186.974711 -162.879529 
L 186.094145 -162.258958 
L 185.213579 -161.644586 
L 184.333013 -161.034487 
L 183.452447 -160.422331 
L 182.571881 -159.803182 
L 181.691315 -159.19393 
L 180.810749 -158.566313 
L 179.930183 -157.973575 
L 179.049617 -157.346828 
L 178.169051 -156.724753 
L 177.288485 -156.116608 
L 176.407919 -155.487634 
L 175.527353 -154.875106 
L 174.646787 -154.265936 
L 173.766221 -153.630287 
L 172.885654 -153.015984 
L 172.005088 -152.399696 
L 171.124522 -151.783351 
L 170.243956 -151.154549 
L 169.36339 -150.538654 
L 168.482824 -149.951244 
L 167.602258 -149.335784 
L 166.721692 -148.697632 
L 165.841126 -148.086911 
L 164.96056 -147.481062 
L 164.079994 -146.880597 
L 163.199428 -146.264177 
L 162.318862 -145.662824 
L 161.438296 -145.070376 
L 160.55773 -144.456165 
L 159.677164 -143.856758 
L 158.796598 -143.236798 
L 157.916032 -142.642613 
L 157.035466 -142.029473 
L 156.1549 -141.418909 
L 155.274334 -140.814721 
L 154.393768 -140.208333 
L 153.513202 -139.583875 
L 152.632636 -138.957946 
L 151.75207 -138.32964 
L 150.871504 -137.716518 
L 149.990938 -137.108856 
L 149.110371 -136.491307 
L 148.229805 -135.885193 
L 147.349239 -135.273475 
L 146.468673 -134.671502 
L 145.588107 -134.060569 
L 144.707541 -133.465732 
L 143.826975 -132.847439 
L 142.946409 -132.23494 
L 142.065843 -131.628548 
L 141.185277 -131.023392 
L 140.304711 -130.398731 
L 139.424145 -129.787838 
L 138.543579 -129.171231 
L 137.663013 -128.569079 
L 136.782447 -127.984304 
L 135.901881 -127.38106 
L 135.021315 -126.777774 
L 134.140749 -126.168656 
L 133.260183 -125.566367 
L 132.379617 -124.959658 
L 131.499051 -124.361604 
L 130.618485 -123.74037 
L 129.737919 -123.135413 
L 128.857353 -122.531522 
L 127.976787 -121.924477 
L 127.096221 -121.337009 
L 126.215655 -120.759968 
L 125.335088 -120.168192 
L 124.454522 -119.583422 
L 123.573956 -118.977779 
L 122.69339 -118.372343 
L 121.812824 -117.784074 
L 120.932258 -117.193534 
L 120.051692 -116.607778 
L 119.171126 -116.01019 
L 118.29056 -115.418504 
L 117.409994 -114.834972 
L 116.529428 -114.267256 
L 115.648862 -113.703779 
L 114.768296 -113.136808 
L 113.88773 -112.564037 
L 113.007164 -111.998039 
L 112.126598 -111.432454 
L 111.246032 -110.848155 
L 110.365466 -110.271508 
L 109.4849 -109.70348 
L 108.604334 -109.132133 
L 107.723768 -108.570971 
L 106.843202 -108.012384 
L 105.962636 -107.438435 
L 105.08207 -106.872136 
L 104.201504 -106.302516 
L 103.320938 -105.719056 
L 102.440372 -105.164765 
L 101.559805 -104.603887 
L 100.679239 -104.034704 
L 99.798673 -103.466397 
L 98.918107 -102.918797 
L 98.037541 -102.37015 
L 97.156975 -101.818554 
L 96.276409 -101.284025 
L 95.395843 -100.734771 
L 94.515277 -100.198508 
L 93.634711 -99.678469 
L 92.754145 -99.141536 
L 91.873579 -98.607302 
L 90.993013 -98.088324 
L 90.112447 -97.569532 
L 89.231881 -97.048682 
L 88.351315 -96.511592 
L 87.470749 -95.974018 
L 86.590183 -95.440386 
L 85.709617 -94.927867 
L 84.829051 -94.403514 
L 83.948485 -93.877895 
L 83.067919 -93.401081 
L 82.187353 -92.883031 
L 81.306787 -92.371537 
L 80.426221 -91.8397 
L 79.545655 -91.305942 
L 78.665089 -90.788325 
L 77.784522 -90.270143 
L 76.903956 -89.75065 
L 76.02339 -89.25554 
L 75.142824 -88.750925 
L 74.262258 -88.235787 
L 73.381692 -87.726357 
L 72.501126 -87.211442 
L 71.62056 -86.717186 
L 70.739994 -86.219434 
L 69.859428 -85.692875 
L 68.978862 -85.180589 
L 68.098296 -84.679493 
L 67.21773 -84.185155 
L 66.337164 -83.686636 
L 65.456598 -83.176539 
L 64.576032 -82.666604 
L 63.695466 -82.153704 
L 62.8149 -81.660924 
L 61.934334 -81.177566 
L 61.053768 -80.694578 
L 60.173202 -80.19952 
L 59.292636 -79.713279 
L 58.41207 -79.230592 
L 57.531504 -78.762005 
L 56.650938 -78.264252 
L 55.770372 -77.746526 
L 54.889806 -77.260516 
L 54.009239 -76.760017 
L 53.128673 -76.281229 
L 52.248107 -75.795474 
L 51.367541 -75.321631 
L 50.486975 -74.833756 
L 49.606409 -74.356262 
L 48.725843 -73.886377 
L 47.845277 -73.405143 
L 46.964711 -72.921686 
L 46.084145 -72.429318 
L 45.203579 -71.953231 
z
" style="stroke: #444444; stroke-opacity: 0.18"/>
    </defs>
    <g clip-path="url(#p92de361599)">
     <use xlink:href="#m2c12c58515" x="0" y="230.980734" style="fill: #444444; fill-opacity: 0.18; stroke: #444444; stroke-opacity: 0.18"/>
    </g>
   </g>
   <g id="matplotlib.axis_1">
    <g id="xtick_1">
     <g id="line2d_1">
      <defs>
       <path id="m848e825940" d="M 0 0 
L 0 3.5 
" style="stroke: #000000; stroke-width: 0.6"/>
      </defs>
      <g>
       <use xlink:href="#m848e825940" x="56.155619" y="199.474016" style="stroke: #000000; stroke-width: 0.6"/>
      </g>
     </g>
     <g id="text_1">
      <text style="font-size: 7px; font-family: 'Arial', 'Helvetica', 'DejaVu Sans', sans-serif; text-anchor: middle" x="56.155619" y="211.484484" transform="rotate(-0 56.155619 211.484484)">0.0</text>
     </g>
    </g>
    <g id="xtick_2">
     <g id="line2d_2">
      <g>
       <use xlink:href="#m848e825940" x="110.91582" y="199.474016" style="stroke: #000000; stroke-width: 0.6"/>
      </g>
     </g>
     <g id="text_2">
      <text style="font-size: 7px; font-family: 'Arial', 'Helvetica', 'DejaVu Sans', sans-serif; text-anchor: middle" x="110.91582" y="211.484484" transform="rotate(-0 110.91582 211.484484)">0.1</text>
     </g>
    </g>
    <g id="xtick_3">
     <g id="line2d_3">
      <g>
       <use xlink:href="#m848e825940" x="165.67602" y="199.474016" style="stroke: #000000; stroke-width: 0.6"/>
      </g>
     </g>
     <g id="text_3">
      <text style="font-size: 7px; font-family: 'Arial', 'Helvetica', 'DejaVu Sans', sans-serif; text-anchor: middle" x="165.67602" y="211.484484" transform="rotate(-0 165.67602 211.484484)">0.2</text>
     </g>
    </g>
    <g id="xtick_4">
     <g id="line2d_4">
      <g>
       <use xlink:href="#m848e825940" x="220.43622" y="199.474016" style="stroke: #000000; stroke-width: 0.6"/>
      </g>
     </g>
     <g id="text_4">
      <text style="font-size: 7px; font-family: 'Arial', 'Helvetica', 'DejaVu Sans', sans-serif; text-anchor: middle" x="220.43622" y="211.484484" transform="rotate(-0 220.43622 211.484484)">0.3</text>
     </g>
    </g>
    <g id="text_5">
     <!-- $(1 - a_w)$ -->
     <g transform="translate(113.67689 222.091359)">
      <text>
       <tspan x="0" y="-0.171875" style="font-size: 8.5px; font-family: 'DejaVu Sans'">(</tspan>
       <tspan x="3.316162" y="-0.171875" style="font-size: 8.5px; font-family: 'DejaVu Sans'">1</tspan>
       <tspan x="10.380127" y="-0.171875" style="font-size: 8.5px; font-family: 'DejaVu Sans'">−</tspan>
       <tspan x="29.47937" y="-0.171875" style="font-size: 8.5px; font-family: 'DejaVu Sans'">)</tspan>
       <tspan x="19.158203" y="-0.171875" style="font-style: oblique; font-size: 8.5px; font-family: 'DejaVu Sans'">a</tspan>
       <tspan x="24.366943" y="1.304688" style="font-style: oblique; font-size: 5.95px; font-family: 'DejaVu Sans'">w</tspan>
      </text>
     </g>
    </g>
   </g>
   <g id="matplotlib.axis_2">
    <g id="ytick_1">
     <g id="line2d_5">
      <defs>
       <path id="m5f4972a0ba" d="M 0 0 
L -3.5 0 
" style="stroke: #000000; stroke-width: 0.6"/>
      </defs>
      <g>
       <use xlink:href="#m5f4972a0ba" x="39.727559" y="173.777286" style="stroke: #000000; stroke-width: 0.6"/>
      </g>
     </g>
     <g id="text_6">
      <text style="font-size: 7px; font-family: 'Arial', 'Helvetica', 'DejaVu Sans', sans-serif; text-anchor: end" x="32.727559" y="176.282521" transform="rotate(-0 32.727559 176.282521)">0.0</text>
     </g>
    </g>
    <g id="ytick_2">
     <g id="line2d_6">
      <g>
       <use xlink:href="#m5f4972a0ba" x="39.727559" y="144.236764" style="stroke: #000000; stroke-width: 0.6"/>
      </g>
     </g>
     <g id="text_7">
      <text style="font-size: 7px; font-family: 'Arial', 'Helvetica', 'DejaVu Sans', sans-serif; text-anchor: end" x="32.727559" y="146.741998" transform="rotate(-0 32.727559 146.741998)">0.5</text>
     </g>
    </g>
    <g id="ytick_3">
     <g id="line2d_7">
      <g>
       <use xlink:href="#m5f4972a0ba" x="39.727559" y="114.696241" style="stroke: #000000; stroke-width: 0.6"/>
      </g>
     </g>
     <g id="text_8">
      <text style="font-size: 7px; font-family: 'Arial', 'Helvetica', 'DejaVu Sans', sans-serif; text-anchor: end" x="32.727559" y="117.201476" transform="rotate(-0 32.727559 117.201476)">1.0</text>
     </g>
    </g>
    <g id="ytick_4">
     <g id="line2d_8">
      <g>
       <use xlink:href="#m5f4972a0ba" x="39.727559" y="85.155719" style="stroke: #000000; stroke-width: 0.6"/>
      </g>
     </g>
     <g id="text_9">
      <text style="font-size: 7px; font-family: 'Arial', 'Helvetica', 'DejaVu Sans', sans-serif; text-anchor: end" x="32.727559" y="87.660953" transform="rotate(-0 32.727559 87.660953)">1.5</text>
     </g>
    </g>
    <g id="ytick_5">
     <g id="line2d_9">
      <g>
       <use xlink:href="#m5f4972a0ba" x="39.727559" y="55.615196" style="stroke: #000000; stroke-width: 0.6"/>
      </g>
     </g>
     <g id="text_10">
      <text style="font-size: 7px; font-family: 'Arial', 'Helvetica', 'DejaVu Sans', sans-serif; text-anchor: end" x="32.727559" y="58.120431" transform="rotate(-0 32.727559 58.120431)">2.0</text>
     </g>
    </g>
    <g id="ytick_6">
     <g id="line2d_10">
      <g>
       <use xlink:href="#m5f4972a0ba" x="39.727559" y="26.074674" style="stroke: #000000; stroke-width: 0.6"/>
      </g>
     </g>
     <g id="text_11">
      <text style="font-size: 7px; font-family: 'Arial', 'Helvetica', 'DejaVu Sans', sans-serif; text-anchor: end" x="32.727559" y="28.579908" transform="rotate(-0 32.727559 28.579908)">2.5</text>
     </g>
    </g>
    <g id="text_12">
     <!-- $(R_{\mathrm{far}} - R_{\mathrm{near}})\,/\,R_{\mathrm{mid}}$ -->
     <g transform="translate(18.308184 144.974961) rotate(-90)">
      <text>
       <tspan x="0" y="-0.171875" style="font-size: 8.5px; font-family: 'DejaVu Sans'">(</tspan>
       <tspan x="19.311328" y="-0.171875" style="font-size: 8.5px; font-family: 'DejaVu Sans'">−</tspan>
       <tspan x="47.765552" y="-0.171875" style="font-size: 8.5px; font-family: 'DejaVu Sans'">)</tspan>
       <tspan x="52.461746" y="-0.171875" style="font-size: 8.5px; font-family: 'DejaVu Sans'">/</tspan>
       <tspan x="3.316162" y="-0.171875" style="font-style: oblique; font-size: 8.5px; font-family: 'DejaVu Sans'">R</tspan>
       <tspan x="28.089404" y="-0.171875" style="font-style: oblique; font-size: 8.5px; font-family: 'DejaVu Sans'">R</tspan>
       <tspan x="56.705548" y="-0.171875" style="font-style: oblique; font-size: 8.5px; font-family: 'DejaVu Sans'">R</tspan>
       <tspan x="9.222168" y="1.304688" style="font-size: 5.95px; font-family: 'DejaVu Sans'">f</tspan>
       <tspan x="11.31687" y="1.304688" style="font-size: 5.95px; font-family: 'DejaVu Sans'">a</tspan>
       <tspan x="14.962988" y="1.304688" style="font-size: 5.95px; font-family: 'DejaVu Sans'">r</tspan>
       <tspan x="33.99541" y="1.304688" style="font-size: 5.95px; font-family: 'DejaVu Sans'">n</tspan>
       <tspan x="37.766455" y="1.304688" style="font-size: 5.95px; font-family: 'DejaVu Sans'">e</tspan>
       <tspan x="41.4271" y="1.304688" style="font-size: 5.95px; font-family: 'DejaVu Sans'">a</tspan>
       <tspan x="45.073218" y="1.304688" style="font-size: 5.95px; font-family: 'DejaVu Sans'">r</tspan>
       <tspan x="62.611554" y="1.304688" style="font-size: 5.95px; font-family: 'DejaVu Sans'">m</tspan>
       <tspan x="68.407575" y="1.304688" style="font-size: 5.95px; font-family: 'DejaVu Sans'">i</tspan>
       <tspan x="70.060675" y="1.304688" style="font-size: 5.95px; font-family: 'DejaVu Sans'">d</tspan>
      </text>
     </g>
    </g>
   </g>
   <g id="line2d_11">
    <path d="M 45.203579 165.39135 
L 220.43622 56.09494 
L 220.43622 56.09494 
" clip-path="url(#p92de361599)" style="fill: none; stroke-dasharray: 4.44,1.92; stroke-dashoffset: 0; stroke: #000000; stroke-opacity: 0.7; stroke-width: 1.2"/>
   </g>
   <g id="patch_3">
    <path d="M 39.727559 199.474016 
L 39.727559 16.355906 
" style="fill: none; stroke: #000000; stroke-width: 0.6; stroke-linejoin: miter; stroke-linecap: square"/>
   </g>
   <g id="patch_4">
    <path d="M 39.727559 199.474016 
L 220.43622 199.474016 
" style="fill: none; stroke: #000000; stroke-width: 0.6; stroke-linejoin: miter; stroke-linecap: square"/>
   </g>
   <g id="PathCollection_1">
    <defs>
     <path id="m45da609354" d="M 0 2.95804 
C 0.784481 2.95804 1.536938 2.646362 2.09165 2.09165 
C 2.646362 1.536938 2.95804 0.784481 2.95804 0 
C 2.95804 -0.784481 2.646362 -1.536938 2.09165 -2.09165 
C 1.536938 -2.646362 0.784481 -2.95804 0 -2.95804 
C -0.784481 -2.95804 -1.536938 -2.646362 -2.09165 -2.09165 
C -2.646362 -1.536938 -2.95804 -0.784481 -2.95804 0 
C -2.95804 0.784481 -2.646362 1.536938 -2.09165 2.09165 
C -1.536938 2.646362 -0.784481 2.95804 0 2.95804 
z
" style="stroke: #ffffff; stroke-opacity: 0.65; stroke-width: 0.4"/>
    </defs>
    <g clip-path="url(#p92de361599)">
     <use xlink:href="#m45da609354" x="56.155619" y="153.445148" style="fill: #3a9e6f; fill-opacity: 0.65; stroke: #ffffff; stroke-opacity: 0.65; stroke-width: 0.4"/>
     <use xlink:href="#m45da609354" x="56.155619" y="156.471985" style="fill: #3a9e6f; fill-opacity: 0.65; stroke: #ffffff; stroke-opacity: 0.65; stroke-width: 0.4"/>
     <use xlink:href="#m45da609354" x="56.155619" y="163.394921" style="fill: #3a9e6f; fill-opacity: 0.65; stroke: #ffffff; stroke-opacity: 0.65; stroke-width: 0.4"/>
     <use xlink:href="#m45da609354" x="56.155619" y="167.975645" style="fill: #3a9e6f; fill-opacity: 0.65; stroke: #ffffff; stroke-opacity: 0.65; stroke-width: 0.4"/>
     <use xlink:href="#m45da609354" x="56.155619" y="157.059153" style="fill: #3a9e6f; fill-opacity: 0.65; stroke: #ffffff; stroke-opacity: 0.65; stroke-width: 0.4"/>
    </g>
   </g>
   <g id="PathCollection_2">
    <defs>
     <path id="maaf7badde3" d="M 0 2.95804 
C 0.784481 2.95804 1.536938 2.646362 2.09165 2.09165 
C 2.646362 1.536938 2.95804 0.784481 2.95804 0 
C 2.95804 -0.784481 2.646362 -1.536938 2.09165 -2.09165 
C 1.536938 -2.646362 0.784481 -2.95804 0 -2.95804 
C -0.784481 -2.95804 -1.536938 -2.646362 -2.09165 -2.09165 
C -2.646362 -1.536938 -2.95804 -0.784481 -2.95804 0 
C -2.95804 0.784481 -2.646362 1.536938 -2.09165 2.09165 
C -1.536938 2.646362 -0.784481 2.95804 0 2.95804 
z
" style="stroke: #ffffff; stroke-opacity: 0.65; stroke-width: 0.4"/>
    </defs>
    <g clip-path="url(#p92de361599)">
     <use xlink:href="#maaf7badde3" x="94.487759" y="132.293434" style="fill: #e67e22; fill-opacity: 0.65; stroke: #ffffff; stroke-opacity: 0.65; stroke-width: 0.4"/>
     <use xlink:href="#maaf7badde3" x="94.487759" y="137.458376" style="fill: #e67e22; fill-opacity: 0.65; stroke: #ffffff; stroke-opacity: 0.65; stroke-width: 0.4"/>
     <use xlink:href="#maaf7badde3" x="94.487759" y="136.84647" style="fill: #e67e22; fill-opacity: 0.65; stroke: #ffffff; stroke-opacity: 0.65; stroke-width: 0.4"/>
     <use xlink:href="#maaf7badde3" x="94.487759" y="130.402072" style="fill: #e67e22; fill-opacity: 0.65; stroke: #ffffff; stroke-opacity: 0.65; stroke-width: 0.4"/>
     <use xlink:href="#maaf7badde3" x="94.487759" y="116.959773" style="fill: #e67e22; fill-opacity: 0.65; stroke: #ffffff; stroke-opacity: 0.65; stroke-width: 0.4"/>
    </g>
   </g>
   <g id="PathCollection_3">
    <defs>
     <path id="m9f40286df2" d="M 0 2.95804 
C 0.784481 2.95804 1.536938 2.646362 2.09165 2.09165 
C 2.646362 1.536938 2.95804 0.784481 2.95804 0 
C 2.95804 -0.784481 2.646362 -1.536938 2.09165 -2.09165 
C 1.536938 -2.646362 0.784481 -2.95804 0 -2.95804 
C -0.784481 -2.95804 -1.536938 -2.646362 -2.09165 -2.09165 
C -2.646362 -1.536938 -2.95804 -0.784481 -2.95804 0 
C -2.95804 0.784481 -2.646362 1.536938 -2.09165 2.09165 
C -1.536938 2.646362 -0.784481 2.95804 0 2.95804 
z
" style="stroke: #ffffff; stroke-opacity: 0.65; stroke-width: 0.4"/>
    </defs>
    <g clip-path="url(#p92de361599)">
     <use xlink:href="#m9f40286df2" x="127.34388" y="113.187049" style="fill: #5b8fc9; fill-opacity: 0.65; stroke: #ffffff; stroke-opacity: 0.65; stroke-width: 0.4"/>
     <use xlink:href="#m9f40286df2" x="127.34388" y="127.0454" style="fill: #5b8fc9; fill-opacity: 0.65; stroke: #ffffff; stroke-opacity: 0.65; stroke-width: 0.4"/>
     <use xlink:href="#m9f40286df2" x="127.34388" y="113.194379" style="fill: #5b8fc9; fill-opacity: 0.65; stroke: #ffffff; stroke-opacity: 0.65; stroke-width: 0.4"/>
     <use xlink:href="#m9f40286df2" x="127.34388" y="131.970558" style="fill: #5b8fc9; fill-opacity: 0.65; stroke: #ffffff; stroke-opacity: 0.65; stroke-width: 0.4"/>
     <use xlink:href="#m9f40286df2" x="127.34388" y="102.791161" style="fill: #5b8fc9; fill-opacity: 0.65; stroke: #ffffff; stroke-opacity: 0.65; stroke-width: 0.4"/>
    </g>
   </g>
   <g id="PathCollection_4">
    <defs>
     <path id="m161da7bae7" d="M 0 2.95804 
C 0.784481 2.95804 1.536938 2.646362 2.09165 2.09165 
C 2.646362 1.536938 2.95804 0.784481 2.95804 0 
C 2.95804 -0.784481 2.646362 -1.536938 2.09165 -2.09165 
C 1.536938 -2.646362 0.784481 -2.95804 0 -2.95804 
C -0.784481 -2.95804 -1.536938 -2.646362 -2.09165 -2.09165 
C -2.646362 -1.536938 -2.95804 -0.784481 -2.95804 0 
C -2.95804 0.784481 -2.646362 1.536938 -2.09165 2.09165 
C -1.536938 2.646362 -0.784481 2.95804 0 2.95804 
z
" style="stroke: #ffffff; stroke-opacity: 0.65; stroke-width: 0.4"/>
    </defs>
    <g clip-path="url(#p92de361599)">
     <use xlink:href="#m161da7bae7" x="193.05612" y="90.864761" style="fill: #c0392b; fill-opacity: 0.65; stroke: #ffffff; stroke-opacity: 0.65; stroke-width: 0.4"/>
     <use xlink:href="#m161da7bae7" x="193.05612" y="76.053104" style="fill: #c0392b; fill-opacity: 0.65; stroke: #ffffff; stroke-opacity: 0.65; stroke-width: 0.4"/>
     <use xlink:href="#m161da7bae7" x="193.05612" y="75.37626" style="fill: #c0392b; fill-opacity: 0.65; stroke: #ffffff; stroke-opacity: 0.65; stroke-width: 0.4"/>
     <use xlink:href="#m161da7bae7" x="193.05612" y="65.562204" style="fill: #c0392b; fill-opacity: 0.65; stroke: #ffffff; stroke-opacity: 0.65; stroke-width: 0.4"/>
     <use xlink:href="#m161da7bae7" x="193.05612" y="54.364248" style="fill: #c0392b; fill-opacity: 0.65; stroke: #ffffff; stroke-opacity: 0.65; stroke-width: 0.4"/>
    </g>
   </g>
   <g id="text_13">
    <!-- $R^2$ = 0.914 -->
    <g transform="translate(177.240787 176.004567)">
     <text>
      <tspan x="0" y="-0.678125" style="font-style: oblique; font-size: 7px; font-family: 'DejaVu Sans'">R</tspan>
      <tspan x="5.355775" y="-3.357812" style="font-size: 4.9px; font-family: 'DejaVu Sans'">2</tspan>
      <tspan x="8.66471" y="-0.678125" style="font-size: 7px; font-family: 'Arial'"> </tspan>
      <tspan x="10.609535" y="-0.678125" style="font-size: 7px; font-family: 'Arial'">=</tspan>
      <tspan x="14.697425" y="-0.678125" style="font-size: 7px; font-family: 'Arial'"> </tspan>
      <tspan x="16.642249" y="-0.678125" style="font-size: 7px; font-family: 'Arial'">0</tspan>
      <tspan x="20.535316" y="-0.678125" style="font-size: 7px; font-family: 'Arial'">.</tspan>
      <tspan x="22.48014" y="-0.678125" style="font-size: 7px; font-family: 'Arial'">9</tspan>
      <tspan x="26.373206" y="-0.678125" style="font-size: 7px; font-family: 'Arial'">1</tspan>
      <tspan x="30.266273" y="-0.678125" style="font-size: 7px; font-family: 'Arial'">4</tspan>
     </text>
    </g>
    <text style="font-size: 7px; font-family: 'Arial', 'Helvetica', 'DejaVu Sans', sans-serif" transform="translate(168.591412 183.433317)">[0.830, 0.967]</text>
   </g>
   <g id="text_14">
    <text style="font-weight: 700; font-size: 12px; font-family: 'Arial', 'Helvetica', 'DejaVu Sans', sans-serif; text-anchor: start" x="7.2" y="15.789375" transform="rotate(-0 7.2 15.789375)">H</text>
   </g>
   <g id="legend_1">
    <g id="patch_5">
     <path d="M 43.927559 65.022468 
L 98.616622 65.022468 
Q 99.816622 65.022468 99.816622 63.822468 
L 99.816622 20.555906 
Q 99.816622 19.355906 98.616622 19.355906 
L 43.927559 19.355906 
Q 42.727559 19.355906 42.727559 20.555906 
L 42.727559 63.822468 
Q 42.727559 65.022468 43.927559 65.022468 
z
" style="fill: #ffffff; opacity: 0.9; stroke: #cccccc; stroke-linejoin: miter"/>
    </g>
    <g id="patch_6">
     <path d="M 44.527559 25.523718 
L 56.527559 25.523718 
L 56.527559 21.323718 
L 44.527559 21.323718 
z
" style="fill: #888888; fill-opacity: 0.08; stroke: #888888; stroke-opacity: 0.08; stroke-linejoin: miter"/>
    </g>
    <g id="text_15">
     <text style="font-size: 6px; font-family: 'Arial', 'Helvetica', 'DejaVu Sans', sans-serif; text-anchor: start" x="58.327559" y="25.523718" transform="rotate(-0 58.327559 25.523718)">95% prediction</text>
    </g>
    <g id="patch_7">
     <path d="M 44.527559 32.810906 
L 56.527559 32.810906 
L 56.527559 28.610906 
L 44.527559 28.610906 
z
" style="fill: #444444; fill-opacity: 0.18; stroke: #444444; stroke-opacity: 0.18; stroke-linejoin: miter"/>
    </g>
    <g id="text_16">
     <text style="font-size: 6px; font-family: 'Arial', 'Helvetica', 'DejaVu Sans', sans-serif; text-anchor: start" x="58.327559" y="32.810906" transform="rotate(-0 58.327559 32.810906)">95% CI</text>
    </g>
    <g id="PathCollection_5">
     <g>
      <use xlink:href="#m45da609354" x="50.527559" y="38.523093" style="fill: #3a9e6f; fill-opacity: 0.65; stroke: #ffffff; stroke-opacity: 0.65; stroke-width: 0.4"/>
     </g>
    </g>
    <g id="text_17">
     <text style="font-size: 6px; font-family: 'Arial', 'Helvetica', 'DejaVu Sans', sans-serif; text-anchor: start" x="58.327559" y="40.098093" transform="rotate(-0 58.327559 40.098093)">Agar</text>
    </g>
    <g id="PathCollection_6">
     <g>
      <use xlink:href="#maaf7badde3" x="50.527559" y="45.880593" style="fill: #e67e22; fill-opacity: 0.65; stroke: #ffffff; stroke-opacity: 0.65; stroke-width: 0.4"/>
     </g>
    </g>
    <g id="text_18">
     <text style="font-size: 6px; font-family: 'Arial', 'Helvetica', 'DejaVu Sans', sans-serif; text-anchor: start" x="58.327559" y="47.455593" transform="rotate(-0 58.327559 47.455593)">0.5:1</text>
    </g>
    <g id="PathCollection_7">
     <g>
      <use xlink:href="#m9f40286df2" x="50.527559" y="53.167781" style="fill: #5b8fc9; fill-opacity: 0.65; stroke: #ffffff; stroke-opacity: 0.65; stroke-width: 0.4"/>
     </g>
    </g>
    <g id="text_19">
     <text style="font-size: 6px; font-family: 'Arial', 'Helvetica', 'DejaVu Sans', sans-serif; text-anchor: start" x="58.327559" y="54.742781" transform="rotate(-0 58.327559 54.742781)">1:1</text>
    </g>
    <g id="PathCollection_8">
     <g>
      <use xlink:href="#m161da7bae7" x="50.527559" y="60.454968" style="fill: #c0392b; fill-opacity: 0.65; stroke: #ffffff; stroke-opacity: 0.65; stroke-width: 0.4"/>
     </g>
    </g>
    <g id="text_20">
     <text style="font-size: 6px; font-family: 'Arial', 'Helvetica', 'DejaVu Sans', sans-serif; text-anchor: start" x="58.327559" y="62.029968" transform="rotate(-0 58.327559 62.029968)">2:1</text>
    </g>
   </g>
  </g>
 </g>
 <defs>
  <clipPath id="p92de361599">
   <rect x="39.727559" y="16.355906" width="180.708661" height="183.11811"/>
  </clipPath>
 </defs>
</svg>
