<?xml version="1.0" encoding="utf-8" standalone="no"?>
<!DOCTYPE svg PUBLIC "-//W3C//DTD SVG 1.1//EN"
  "http://www.w3.org/Graphics/SVG/1.1/DTD/svg11.dtd">
<svg xmlns:xlink="http://www.w3.org/1999/xlink" width="233.689323pt" height="190.272998pt" viewBox="0 0 233.689323 190.272998" xmlns="http://www.w3.org/2000/svg" version="1.1">
 <metadata>
  <rdf:RDF xmlns:dc="http://purl.org/dc/elements/1.1/" xmlns:cc="http://creativecommons.org/ns#" xmlns:rdf="http://www.w3.org/1999/02/22-rdf-syntax-ns#">
   <cc:Work>
    <dc:type rdf:resource="http://purl.org/dc/dcmitype/StillImage"/>
    <dc:date>2026-03-30T01:56:15.425116</dc:date>
    <dc:format>image/svg+xml</dc:format>
    <dc:creator>
     <cc:Agent>
      <dc:title>Matplotlib v3.10.8, https://matplotlib.org/</dc:title>
     </cc:Agent>
    </dc:creator>
   </cc:Work>
  </rdf:RDF>
 </metadata>
 <defs>
  <style type="text/css">*{stroke-linejoin: round; stroke-linecap: butt}</style>
 </defs>
 <g id="figure_1">
  <g id="patch_1">
   <path d="M 0 190.272998 
L 233.689323 190.272998 
L 233.689323 0 
L 0 0 
z
" style="fill: #ffffff"/>
  </g>
  <g id="axes_1">
   <g id="patch_2">
    <path d="M 34.130268 161.16378 
L 226.489323 161.16378 
L 226.489323 10.218898 
L 34.130268 10.218898 
z
" style="fill: #ffffff"/>
   </g>
   <g id="matplotlib.axis_1">
    <g id="xtick_1">
     <g id="line2d_1">
      <defs>
       <path id="m1a07a310ec" d="M 0 0 
L 0 3 
" style="stroke: #000000; stroke-width: 0.6"/>
      </defs>
      <g>
       <use xlink:href="#m1a07a310ec" x="34.130268" y="161.16378" style="stroke: #000000; stroke-width: 0.6"/>
      </g>
     </g>
     <g id="text_1">
      <!-- 4 -->
      <g transform="translate(32.18394 171.174248) scale(0.07 -0.07)">
       <defs>
        <path id="ArialMT-34" d="M 2069 0 
L 2069 1097 
L 81 1097 
L 81 1613 
L 2172 4581 
L 2631 4581 
L 2631 1613 
L 3250 1613 
L 3250 1097 
L 2631 1097 
L 2631 0 
L 2069 0 
z
M 2069 1613 
L 2069 3678 
L 634 1613 
L 2069 1613 
z
" transform="scale(0.015625)"/>
       </defs>
       <use xlink:href="#ArialMT-34"/>
      </g>
     </g>
    </g>
    <g id="xtick_2">
     <g id="line2d_2">
      <g>
       <use xlink:href="#m1a07a310ec" x="57.446517" y="161.16378" style="stroke: #000000; stroke-width: 0.6"/>
      </g>
     </g>
     <g id="text_2">
      <!-- 6 -->
      <g transform="translate(55.500189 171.174248) scale(0.07 -0.07)">
       <defs>
        <path id="ArialMT-36" d="M 3184 3459 
L 2625 3416 
Q 2550 3747 2413 3897 
Q 2184 4138 1850 4138 
Q 1581 4138 1378 3988 
Q 1113 3794 959 3422 
Q 806 3050 800 2363 
Q 1003 2672 1297 2822 
Q 1591 2972 1913 2972 
Q 2475 2972 2870 2558 
Q 3266 2144 3266 1488 
Q 3266 1056 3080 686 
Q 2894 316 2569 119 
Q 2244 -78 1831 -78 
Q 1128 -78 684 439 
Q 241 956 241 2144 
Q 241 3472 731 4075 
Q 1159 4600 1884 4600 
Q 2425 4600 2770 4297 
Q 3116 3994 3184 3459 
z
M 888 1484 
Q 888 1194 1011 928 
Q 1134 663 1356 523 
Q 1578 384 1822 384 
Q 2178 384 2434 671 
Q 2691 959 2691 1453 
Q 2691 1928 2437 2201 
Q 2184 2475 1800 2475 
Q 1419 2475 1153 2201 
Q 888 1928 888 1484 
z
" transform="scale(0.015625)"/>
       </defs>
       <use xlink:href="#ArialMT-36"/>
      </g>
     </g>
    </g>
    <g id="xtick_3">
     <g id="line2d_3">
      <g>
       <use xlink:href="#m1a07a310ec" x="80.762766" y="161.16378" style="stroke: #000000; stroke-width: 0.6"/>
      </g>
     </g>
     <g id="text_3">
      <!-- 8 -->
      <g transform="translate(78.816438 171.174248) scale(0.07 -0.07)">
       <defs>
        <path id="ArialMT-38" d="M 1131 2484 
Q 781 2613 612 2850 
Q 444 3088 444 3419 
Q 444 3919 803 4259 
Q 1163 4600 1759 4600 
Q 2359 4600 2725 4251 
Q 3091 3903 3091 3403 
Q 3091 3084 2923 2848 
Q 2756 2613 2416 2484 
Q 2838 2347 3058 2040 
Q 3278 1734 3278 1309 
Q 3278 722 2862 322 
Q 2447 -78 1769 -78 
Q 1091 -78 675 323 
Q 259 725 259 1325 
Q 259 1772 486 2073 
Q 713 2375 1131 2484 
z
M 1019 3438 
Q 1019 3113 1228 2906 
Q 1438 2700 1772 2700 
Q 2097 2700 2305 2904 
Q 2513 3109 2513 3406 
Q 2513 3716 2298 3927 
Q 2084 4138 1766 4138 
Q 1444 4138 1231 3931 
Q 1019 3725 1019 3438 
z
M 838 1322 
Q 838 1081 952 856 
Q 1066 631 1291 507 
Q 1516 384 1775 384 
Q 2178 384 2440 643 
Q 2703 903 2703 1303 
Q 2703 1709 2433 1975 
Q 2163 2241 1756 2241 
Q 1359 2241 1098 1978 
Q 838 1716 838 1322 
z
" transform="scale(0.015625)"/>
       </defs>
       <use xlink:href="#ArialMT-38"/>
      </g>
     </g>
    </g>
    <g id="xtick_4">
     <g id="line2d_4">
      <g>
       <use xlink:href="#m1a07a310ec" x="104.079015" y="161.16378" style="stroke: #000000; stroke-width: 0.6"/>
      </g>
     </g>
     <g id="text_4">
      <!-- 10 -->
      <g transform="translate(100.186359 171.174248) scale(0.07 -0.07)">
       <defs>
        <path id="ArialMT-31" d="M 2384 0 
L 1822 0 
L 1822 3584 
Q 1619 3391 1289 3197 
Q 959 3003 697 2906 
L 697 3450 
Q 1169 3672 1522 3987 
Q 1875 4303 2022 4600 
L 2384 4600 
L 2384 0 
z
" transform="scale(0.015625)"/>
        <path id="ArialMT-30" d="M 266 2259 
Q 266 3072 433 3567 
Q 600 4063 929 4331 
Q 1259 4600 1759 4600 
Q 2128 4600 2406 4451 
Q 2684 4303 2865 4023 
Q 3047 3744 3150 3342 
Q 3253 2941 3253 2259 
Q 3253 1453 3087 958 
Q 2922 463 2592 192 
Q 2263 -78 1759 -78 
Q 1097 -78 719 397 
Q 266 969 266 2259 
z
M 844 2259 
Q 844 1131 1108 757 
Q 1372 384 1759 384 
Q 2147 384 2411 759 
Q 2675 1134 2675 2259 
Q 2675 3391 2411 3762 
Q 2147 4134 1753 4134 
Q 1366 4134 1134 3806 
Q 844 3388 844 2259 
z
" transform="scale(0.015625)"/>
       </defs>
       <use xlink:href="#ArialMT-31"/>
       <use xlink:href="#ArialMT-30" transform="translate(55.615234 0)"/>
      </g>
     </g>
    </g>
    <g id="xtick_5">
     <g id="line2d_5">
      <g>
       <use xlink:href="#m1a07a310ec" x="127.395264" y="161.16378" style="stroke: #000000; stroke-width: 0.6"/>
      </g>
     </g>
     <g id="text_5">
      <!-- 12 -->
      <g transform="translate(123.502608 171.174248) scale(0.07 -0.07)">
       <defs>
        <path id="ArialMT-32" d="M 3222 541 
L 3222 0 
L 194 0 
Q 188 203 259 391 
Q 375 700 629 1000 
Q 884 1300 1366 1694 
Q 2113 2306 2375 2664 
Q 2638 3022 2638 3341 
Q 2638 3675 2398 3904 
Q 2159 4134 1775 4134 
Q 1369 4134 1125 3890 
Q 881 3647 878 3216 
L 300 3275 
Q 359 3922 746 4261 
Q 1134 4600 1788 4600 
Q 2447 4600 2831 4234 
Q 3216 3869 3216 3328 
Q 3216 3053 3103 2787 
Q 2991 2522 2730 2228 
Q 2469 1934 1863 1422 
Q 1356 997 1212 845 
Q 1069 694 975 541 
L 3222 541 
z
" transform="scale(0.015625)"/>
       </defs>
       <use xlink:href="#ArialMT-31"/>
       <use xlink:href="#ArialMT-32" transform="translate(55.615234 0)"/>
      </g>
     </g>
    </g>
    <g id="xtick_6">
     <g id="line2d_6">
      <g>
       <use xlink:href="#m1a07a310ec" x="150.711513" y="161.16378" style="stroke: #000000; stroke-width: 0.6"/>
      </g>
     </g>
     <g id="text_6">
      <!-- 14 -->
      <g transform="translate(146.818857 171.174248) scale(0.07 -0.07)">
       <use xlink:href="#ArialMT-31"/>
       <use xlink:href="#ArialMT-34" transform="translate(55.615234 0)"/>
      </g>
     </g>
    </g>
    <g id="xtick_7">
     <g id="line2d_7">
      <g>
       <use xlink:href="#m1a07a310ec" x="174.027762" y="161.16378" style="stroke: #000000; stroke-width: 0.6"/>
      </g>
     </g>
     <g id="text_7">
      <!-- 16 -->
      <g transform="translate(170.135106 171.174248) scale(0.07 -0.07)">
       <use xlink:href="#ArialMT-31"/>
       <use xlink:href="#ArialMT-36" transform="translate(55.615234 0)"/>
      </g>
     </g>
    </g>
    <g id="xtick_8">
     <g id="line2d_8">
      <g>
       <use xlink:href="#m1a07a310ec" x="197.344011" y="161.16378" style="stroke: #000000; stroke-width: 0.6"/>
      </g>
     </g>
     <g id="text_8">
      <!-- 18 -->
      <g transform="translate(193.451355 171.174248) scale(0.07 -0.07)">
       <use xlink:href="#ArialMT-31"/>
       <use xlink:href="#ArialMT-38" transform="translate(55.615234 0)"/>
      </g>
     </g>
    </g>
    <g id="xtick_9">
     <g id="line2d_9">
      <g>
       <use xlink:href="#m1a07a310ec" x="220.660261" y="161.16378" style="stroke: #000000; stroke-width: 0.6"/>
      </g>
     </g>
     <g id="text_9">
      <!-- 20 -->
      <g transform="translate(216.767604 171.174248) scale(0.07 -0.07)">
       <use xlink:href="#ArialMT-32"/>
       <use xlink:href="#ArialMT-30" transform="translate(55.615234 0)"/>
      </g>
     </g>
    </g>
    <g id="xtick_10">
     <g id="line2d_10">
      <defs>
       <path id="maca72ac64f" d="M 0 0 
L 0 2 
" style="stroke: #000000; stroke-width: 0.6"/>
      </defs>
      <g>
       <use xlink:href="#maca72ac64f" x="45.788392" y="161.16378" style="stroke: #000000; stroke-width: 0.6"/>
      </g>
     </g>
    </g>
    <g id="xtick_11">
     <g id="line2d_11">
      <g>
       <use xlink:href="#maca72ac64f" x="69.104641" y="161.16378" style="stroke: #000000; stroke-width: 0.6"/>
      </g>
     </g>
    </g>
    <g id="xtick_12">
     <g id="line2d_12">
      <g>
       <use xlink:href="#maca72ac64f" x="92.42089" y="161.16378" style="stroke: #000000; stroke-width: 0.6"/>
      </g>
     </g>
    </g>
    <g id="xtick_13">
     <g id="line2d_13">
      <g>
       <use xlink:href="#maca72ac64f" x="115.73714" y="161.16378" style="stroke: #000000; stroke-width: 0.6"/>
      </g>
     </g>
    </g>
    <g id="xtick_14">
     <g id="line2d_14">
      <g>
       <use xlink:href="#maca72ac64f" x="139.053389" y="161.16378" style="stroke: #000000; stroke-width: 0.6"/>
      </g>
     </g>
    </g>
    <g id="xtick_15">
     <g id="line2d_15">
      <g>
       <use xlink:href="#maca72ac64f" x="162.369638" y="161.16378" style="stroke: #000000; stroke-width: 0.6"/>
      </g>
     </g>
    </g>
    <g id="xtick_16">
     <g id="line2d_16">
      <g>
       <use xlink:href="#maca72ac64f" x="185.685887" y="161.16378" style="stroke: #000000; stroke-width: 0.6"/>
      </g>
     </g>
    </g>
    <g id="xtick_17">
     <g id="line2d_17">
      <g>
       <use xlink:href="#maca72ac64f" x="209.002136" y="161.16378" style="stroke: #000000; stroke-width: 0.6"/>
      </g>
     </g>
    </g>
    <g id="text_10">
     <!-- Time (min) -->
     <g transform="translate(111.35167 181.389248) scale(0.08 -0.08)">
      <defs>
       <path id="ArialMT-54" d="M 1659 0 
L 1659 4041 
L 150 4041 
L 150 4581 
L 3781 4581 
L 3781 4041 
L 2266 4041 
L 2266 0 
L 1659 0 
z
" transform="scale(0.015625)"/>
       <path id="ArialMT-69" d="M 425 3934 
L 425 4581 
L 988 4581 
L 988 3934 
L 425 3934 
z
M 425 0 
L 425 3319 
L 988 3319 
L 988 0 
L 425 0 
z
" transform="scale(0.015625)"/>
       <path id="ArialMT-6d" d="M 422 0 
L 422 3319 
L 925 3319 
L 925 2853 
Q 1081 3097 1340 3245 
Q 1600 3394 1931 3394 
Q 2300 3394 2536 3241 
Q 2772 3088 2869 2813 
Q 3263 3394 3894 3394 
Q 4388 3394 4653 3120 
Q 4919 2847 4919 2278 
L 4919 0 
L 4359 0 
L 4359 2091 
Q 4359 2428 4304 2576 
Q 4250 2725 4106 2815 
Q 3963 2906 3769 2906 
Q 3419 2906 3187 2673 
Q 2956 2441 2956 1928 
L 2956 0 
L 2394 0 
L 2394 2156 
Q 2394 2531 2256 2718 
Q 2119 2906 1806 2906 
Q 1569 2906 1367 2781 
Q 1166 2656 1075 2415 
Q 984 2175 984 1722 
L 984 0 
L 422 0 
z
" transform="scale(0.015625)"/>
       <path id="ArialMT-65" d="M 2694 1069 
L 3275 997 
Q 3138 488 2766 206 
Q 2394 -75 1816 -75 
Q 1088 -75 661 373 
Q 234 822 234 1631 
Q 234 2469 665 2931 
Q 1097 3394 1784 3394 
Q 2450 3394 2872 2941 
Q 3294 2488 3294 1666 
Q 3294 1616 3291 1516 
L 816 1516 
Q 847 969 1125 678 
Q 1403 388 1819 388 
Q 2128 388 2347 550 
Q 2566 713 2694 1069 
z
M 847 1978 
L 2700 1978 
Q 2663 2397 2488 2606 
Q 2219 2931 1791 2931 
Q 1403 2931 1139 2672 
Q 875 2413 847 1978 
z
" transform="scale(0.015625)"/>
       <path id="ArialMT-20" transform="scale(0.015625)"/>
       <path id="ArialMT-28" d="M 1497 -1347 
Q 1031 -759 709 28 
Q 388 816 388 1659 
Q 388 2403 628 3084 
Q 909 3875 1497 4659 
L 1900 4659 
Q 1522 4009 1400 3731 
Q 1209 3300 1100 2831 
Q 966 2247 966 1656 
Q 966 153 1900 -1347 
L 1497 -1347 
z
" transform="scale(0.015625)"/>
       <path id="ArialMT-6e" d="M 422 0 
L 422 3319 
L 928 3319 
L 928 2847 
Q 1294 3394 1984 3394 
Q 2284 3394 2536 3286 
Q 2788 3178 2913 3003 
Q 3038 2828 3088 2588 
Q 3119 2431 3119 2041 
L 3119 0 
L 2556 0 
L 2556 2019 
Q 2556 2363 2490 2533 
Q 2425 2703 2258 2804 
Q 2091 2906 1866 2906 
Q 1506 2906 1245 2678 
Q 984 2450 984 1813 
L 984 0 
L 422 0 
z
" transform="scale(0.015625)"/>
       <path id="ArialMT-29" d="M 791 -1347 
L 388 -1347 
Q 1322 153 1322 1656 
Q 1322 2244 1188 2822 
Q 1081 3291 891 3722 
Q 769 4003 388 4659 
L 791 4659 
Q 1378 3875 1659 3084 
Q 1900 2403 1900 1659 
Q 1900 816 1576 28 
Q 1253 -759 791 -1347 
z
" transform="scale(0.015625)"/>
      </defs>
      <use xlink:href="#ArialMT-54"/>
      <use xlink:href="#ArialMT-69" transform="translate(57.333984 0)"/>
      <use xlink:href="#ArialMT-6d" transform="translate(79.550781 0)"/>
      <use xlink:href="#ArialMT-65" transform="translate(162.851562 0)"/>
      <use xlink:href="#ArialMT-20" transform="translate(218.466797 0)"/>
      <use xlink:href="#ArialMT-28" transform="translate(246.25 0)"/>
      <use xlink:href="#ArialMT-6d" transform="translate(279.550781 0)"/>
      <use xlink:href="#ArialMT-69" transform="translate(362.851562 0)"/>
      <use xlink:href="#ArialMT-6e" transform="translate(385.068359 0)"/>
      <use xlink:href="#ArialMT-29" transform="translate(440.683594 0)"/>
     </g>
    </g>
   </g>
   <g id="matplotlib.axis_2">
    <g id="ytick_1">
     <g id="line2d_18">
      <defs>
       <path id="m43f39e6c20" d="M 0 0 
L -3 0 
" style="stroke: #000000; stroke-width: 0.6"/>
      </defs>
      <g>
       <use xlink:href="#m43f39e6c20" x="34.130268" y="158.34238" style="stroke: #000000; stroke-width: 0.6"/>
      </g>
     </g>
     <g id="text_11">
      <!-- 0.0 -->
      <g transform="translate(19.400268 160.847614) scale(0.07 -0.07)">
       <defs>
        <path id="ArialMT-2e" d="M 581 0 
L 581 641 
L 1222 641 
L 1222 0 
L 581 0 
z
" transform="scale(0.015625)"/>
       </defs>
       <use xlink:href="#ArialMT-30"/>
       <use xlink:href="#ArialMT-2e" transform="translate(55.615234 0)"/>
       <use xlink:href="#ArialMT-30" transform="translate(83.398438 0)"/>
      </g>
     </g>
    </g>
    <g id="ytick_2">
     <g id="line2d_19">
      <g>
       <use xlink:href="#m43f39e6c20" x="34.130268" y="130.128383" style="stroke: #000000; stroke-width: 0.6"/>
      </g>
     </g>
     <g id="text_12">
      <!-- 0.2 -->
      <g transform="translate(19.400268 132.633618) scale(0.07 -0.07)">
       <use xlink:href="#ArialMT-30"/>
       <use xlink:href="#ArialMT-2e" transform="translate(55.615234 0)"/>
       <use xlink:href="#ArialMT-32" transform="translate(83.398438 0)"/>
      </g>
     </g>
    </g>
    <g id="ytick_3">
     <g id="line2d_20">
      <g>
       <use xlink:href="#m43f39e6c20" x="34.130268" y="101.914387" style="stroke: #000000; stroke-width: 0.6"/>
      </g>
     </g>
     <g id="text_13">
      <!-- 0.4 -->
      <g transform="translate(19.400268 104.419621) scale(0.07 -0.07)">
       <use xlink:href="#ArialMT-30"/>
       <use xlink:href="#ArialMT-2e" transform="translate(55.615234 0)"/>
       <use xlink:href="#ArialMT-34" transform="translate(83.398438 0)"/>
      </g>
     </g>
    </g>
    <g id="ytick_4">
     <g id="line2d_21">
      <g>
       <use xlink:href="#m43f39e6c20" x="34.130268" y="73.70039" style="stroke: #000000; stroke-width: 0.6"/>
      </g>
     </g>
     <g id="text_14">
      <!-- 0.6 -->
      <g transform="translate(19.400268 76.205624) scale(0.07 -0.07)">
       <use xlink:href="#ArialMT-30"/>
       <use xlink:href="#ArialMT-2e" transform="translate(55.615234 0)"/>
       <use xlink:href="#ArialMT-36" transform="translate(83.398438 0)"/>
      </g>
     </g>
    </g>
    <g id="ytick_5">
     <g id="line2d_22">
      <g>
       <use xlink:href="#m43f39e6c20" x="34.130268" y="45.486393" style="stroke: #000000; stroke-width: 0.6"/>
      </g>
     </g>
     <g id="text_15">
      <!-- 0.8 -->
      <g transform="translate(19.400268 47.991628) scale(0.07 -0.07)">
       <use xlink:href="#ArialMT-30"/>
       <use xlink:href="#ArialMT-2e" transform="translate(55.615234 0)"/>
       <use xlink:href="#ArialMT-38" transform="translate(83.398438 0)"/>
      </g>
     </g>
    </g>
    <g id="ytick_6">
     <g id="line2d_23">
      <g>
       <use xlink:href="#m43f39e6c20" x="34.130268" y="17.272397" style="stroke: #000000; stroke-width: 0.6"/>
      </g>
     </g>
     <g id="text_16">
      <!-- 1.0 -->
      <g transform="translate(19.400268 19.777631) scale(0.07 -0.07)">
       <use xlink:href="#ArialMT-31"/>
       <use xlink:href="#ArialMT-2e" transform="translate(55.615234 0)"/>
       <use xlink:href="#ArialMT-30" transform="translate(83.398438 0)"/>
      </g>
     </g>
    </g>
    <g id="text_17">
     <!-- Normalized Count -->
     <g transform="translate(14.810268 117.703214) rotate(-90) scale(0.08 -0.08)">
      <defs>
       <path id="ArialMT-4e" d="M 488 0 
L 488 4581 
L 1109 4581 
L 3516 984 
L 3516 4581 
L 4097 4581 
L 4097 0 
L 3475 0 
L 1069 3600 
L 1069 0 
L 488 0 
z
" transform="scale(0.015625)"/>
       <path id="ArialMT-6f" d="M 213 1659 
Q 213 2581 725 3025 
Q 1153 3394 1769 3394 
Q 2453 3394 2887 2945 
Q 3322 2497 3322 1706 
Q 3322 1066 3130 698 
Q 2938 331 2570 128 
Q 2203 -75 1769 -75 
Q 1072 -75 642 372 
Q 213 819 213 1659 
z
M 791 1659 
Q 791 1022 1069 705 
Q 1347 388 1769 388 
Q 2188 388 2466 706 
Q 2744 1025 2744 1678 
Q 2744 2294 2464 2611 
Q 2184 2928 1769 2928 
Q 1347 2928 1069 2612 
Q 791 2297 791 1659 
z
" transform="scale(0.015625)"/>
       <path id="ArialMT-72" d="M 416 0 
L 416 3319 
L 922 3319 
L 922 2816 
Q 1116 3169 1280 3281 
Q 1444 3394 1641 3394 
Q 1925 3394 2219 3213 
L 2025 2691 
Q 1819 2813 1613 2813 
Q 1428 2813 1281 2702 
Q 1134 2591 1072 2394 
Q 978 2094 978 1738 
L 978 0 
L 416 0 
z
" transform="scale(0.015625)"/>
       <path id="ArialMT-61" d="M 2588 409 
Q 2275 144 1986 34 
Q 1697 -75 1366 -75 
Q 819 -75 525 192 
Q 231 459 231 875 
Q 231 1119 342 1320 
Q 453 1522 633 1644 
Q 813 1766 1038 1828 
Q 1203 1872 1538 1913 
Q 2219 1994 2541 2106 
Q 2544 2222 2544 2253 
Q 2544 2597 2384 2738 
Q 2169 2928 1744 2928 
Q 1347 2928 1158 2789 
Q 969 2650 878 2297 
L 328 2372 
Q 403 2725 575 2942 
Q 747 3159 1072 3276 
Q 1397 3394 1825 3394 
Q 2250 3394 2515 3294 
Q 2781 3194 2906 3042 
Q 3031 2891 3081 2659 
Q 3109 2516 3109 2141 
L 3109 1391 
Q 3109 606 3145 398 
Q 3181 191 3288 0 
L 2700 0 
Q 2613 175 2588 409 
z
M 2541 1666 
Q 2234 1541 1622 1453 
Q 1275 1403 1131 1340 
Q 988 1278 909 1158 
Q 831 1038 831 891 
Q 831 666 1001 516 
Q 1172 366 1500 366 
Q 1825 366 2078 508 
Q 2331 650 2450 897 
Q 2541 1088 2541 1459 
L 2541 1666 
z
" transform="scale(0.015625)"/>
       <path id="ArialMT-6c" d="M 409 0 
L 409 4581 
L 972 4581 
L 972 0 
L 409 0 
z
" transform="scale(0.015625)"/>
       <path id="ArialMT-7a" d="M 125 0 
L 125 456 
L 2238 2881 
Q 1878 2863 1603 2863 
L 250 2863 
L 250 3319 
L 2963 3319 
L 2963 2947 
L 1166 841 
L 819 456 
Q 1197 484 1528 484 
L 3063 484 
L 3063 0 
L 125 0 
z
" transform="scale(0.015625)"/>
       <path id="ArialMT-64" d="M 2575 0 
L 2575 419 
Q 2259 -75 1647 -75 
Q 1250 -75 917 144 
Q 584 363 401 755 
Q 219 1147 219 1656 
Q 219 2153 384 2558 
Q 550 2963 881 3178 
Q 1213 3394 1622 3394 
Q 1922 3394 2156 3267 
Q 2391 3141 2538 2938 
L 2538 4581 
L 3097 4581 
L 3097 0 
L 2575 0 
z
M 797 1656 
Q 797 1019 1065 703 
Q 1334 388 1700 388 
Q 2069 388 2326 689 
Q 2584 991 2584 1609 
Q 2584 2291 2321 2609 
Q 2059 2928 1675 2928 
Q 1300 2928 1048 2622 
Q 797 2316 797 1656 
z
" transform="scale(0.015625)"/>
       <path id="ArialMT-43" d="M 3763 1606 
L 4369 1453 
Q 4178 706 3683 314 
Q 3188 -78 2472 -78 
Q 1731 -78 1267 223 
Q 803 525 561 1097 
Q 319 1669 319 2325 
Q 319 3041 592 3573 
Q 866 4106 1370 4382 
Q 1875 4659 2481 4659 
Q 3169 4659 3637 4309 
Q 4106 3959 4291 3325 
L 3694 3184 
Q 3534 3684 3231 3912 
Q 2928 4141 2469 4141 
Q 1941 4141 1586 3887 
Q 1231 3634 1087 3207 
Q 944 2781 944 2328 
Q 944 1744 1114 1308 
Q 1284 872 1643 656 
Q 2003 441 2422 441 
Q 2931 441 3284 734 
Q 3638 1028 3763 1606 
z
" transform="scale(0.015625)"/>
       <path id="ArialMT-75" d="M 2597 0 
L 2597 488 
Q 2209 -75 1544 -75 
Q 1250 -75 995 37 
Q 741 150 617 320 
Q 494 491 444 738 
Q 409 903 409 1263 
L 409 3319 
L 972 3319 
L 972 1478 
Q 972 1038 1006 884 
Q 1059 663 1231 536 
Q 1403 409 1656 409 
Q 1909 409 2131 539 
Q 2353 669 2445 892 
Q 2538 1116 2538 1541 
L 2538 3319 
L 3100 3319 
L 3100 0 
L 2597 0 
z
" transform="scale(0.015625)"/>
       <path id="ArialMT-74" d="M 1650 503 
L 1731 6 
Q 1494 -44 1306 -44 
Q 1000 -44 831 53 
Q 663 150 594 308 
Q 525 466 525 972 
L 525 2881 
L 113 2881 
L 113 3319 
L 525 3319 
L 525 4141 
L 1084 4478 
L 1084 3319 
L 1650 3319 
L 1650 2881 
L 1084 2881 
L 1084 941 
Q 1084 700 1114 631 
Q 1144 563 1211 522 
Q 1278 481 1403 481 
Q 1497 481 1650 503 
z
" transform="scale(0.015625)"/>
      </defs>
      <use xlink:href="#ArialMT-4e"/>
      <use xlink:href="#ArialMT-6f" transform="translate(72.216797 0)"/>
      <use xlink:href="#ArialMT-72" transform="translate(127.832031 0)"/>
      <use xlink:href="#ArialMT-6d" transform="translate(161.132812 0)"/>
      <use xlink:href="#ArialMT-61" transform="translate(244.433594 0)"/>
      <use xlink:href="#ArialMT-6c" transform="translate(300.048828 0)"/>
      <use xlink:href="#ArialMT-69" transform="translate(322.265625 0)"/>
      <use xlink:href="#ArialMT-7a" transform="translate(344.482422 0)"/>
      <use xlink:href="#ArialMT-65" transform="translate(394.482422 0)"/>
      <use xlink:href="#ArialMT-64" transform="translate(450.097656 0)"/>
      <use xlink:href="#ArialMT-20" transform="translate(505.712891 0)"/>
      <use xlink:href="#ArialMT-43" transform="translate(533.496094 0)"/>
      <use xlink:href="#ArialMT-6f" transform="translate(605.712891 0)"/>
      <use xlink:href="#ArialMT-75" transform="translate(661.328125 0)"/>
      <use xlink:href="#ArialMT-6e" transform="translate(716.943359 0)"/>
      <use xlink:href="#ArialMT-74" transform="translate(772.558594 0)"/>
     </g>
    </g>
   </g>
   <g id="patch_3">
    <path d="M 34.130268 161.16378 
L 34.130268 10.218898 
" style="fill: none; stroke: #000000; stroke-width: 0.6; stroke-linejoin: miter; stroke-linecap: square"/>
   </g>
   <g id="patch_4">
    <path d="M 34.130268 161.16378 
L 226.489323 161.16378 
" style="fill: none; stroke: #000000; stroke-width: 0.6; stroke-linejoin: miter; stroke-linecap: square"/>
   </g>
   <g id="line2d_24">
    <path d="M 34.130268 156.151852 
L 39.95933 139.065736 
L 45.788392 123.732042 
L 51.617455 97.44571 
L 57.446517 70.283167 
L 63.275579 58.454317 
L 69.104641 30.415563 
L 74.933704 29.539352 
L 80.762766 20.777241 
L 86.591828 17.272397 
L 92.42089 29.539352 
L 98.249953 31.291774 
L 104.079015 27.78693 
L 109.908077 33.482302 
L 115.73714 41.368201 
L 121.566202 50.568418 
L 127.395264 47.939784 
L 133.224326 55.825684 
L 139.053389 61.082951 
L 144.882451 61.521056 
L 150.711513 59.330528 
L 156.540576 66.340217 
L 162.369638 65.464006 
L 164.312659 72.035589 
L 166.255679 75.978539 
L 168.1987 89.997916 
L 170.141721 101.826766 
L 172.084742 113.21751 
L 174.027762 118.912881 
L 175.970783 126.798781 
L 177.913804 134.246575 
L 179.856825 140.818158 
L 181.799845 145.637319 
L 183.742866 152.647008 
L 185.685887 156.151852 
L 187.628908 157.904274 
L 189.571928 157.904274 
" clip-path="url(#p8c70dc8a12)" style="fill: none; stroke: #c0392b; stroke-width: 1.2; stroke-linecap: square"/>
    <defs>
     <path id="m7adabe8c51" d="M 0 2.25 
C 0.596707 2.25 1.169055 2.012926 1.59099 1.59099 
C 2.012926 1.169055 2.25 0.596707 2.25 0 
C 2.25 -0.596707 2.012926 -1.169055 1.59099 -1.59099 
C 1.169055 -2.012926 0.596707 -2.25 0 -2.25 
C -0.596707 -2.25 -1.169055 -2.012926 -1.59099 -1.59099 
C -2.012926 -1.169055 -2.25 -0.596707 -2.25 0 
C -2.25 0.596707 -2.012926 1.169055 -1.59099 1.59099 
C -1.169055 2.012926 -0.596707 2.25 0 2.25 
z
" style="stroke: #c0392b; stroke-width: 0.3"/>
    </defs>
    <g clip-path="url(#p8c70dc8a12)">
     <use xlink:href="#m7adabe8c51" x="34.130268" y="156.151852" style="fill: #c0392b; stroke: #c0392b; stroke-width: 0.3"/>
     <use xlink:href="#m7adabe8c51" x="39.95933" y="139.065736" style="fill: #c0392b; stroke: #c0392b; stroke-width: 0.3"/>
     <use xlink:href="#m7adabe8c51" x="45.788392" y="123.732042" style="fill: #c0392b; stroke: #c0392b; stroke-width: 0.3"/>
     <use xlink:href="#m7adabe8c51" x="51.617455" y="97.44571" style="fill: #c0392b; stroke: #c0392b; stroke-width: 0.3"/>
     <use xlink:href="#m7adabe8c51" x="57.446517" y="70.283167" style="fill: #c0392b; stroke: #c0392b; stroke-width: 0.3"/>
     <use xlink:href="#m7adabe8c51" x="63.275579" y="58.454317" style="fill: #c0392b; stroke: #c0392b; stroke-width: 0.3"/>
     <use xlink:href="#m7adabe8c51" x="69.104641" y="30.415563" style="fill: #c0392b; stroke: #c0392b; stroke-width: 0.3"/>
     <use xlink:href="#m7adabe8c51" x="74.933704" y="29.539352" style="fill: #c0392b; stroke: #c0392b; stroke-width: 0.3"/>
     <use xlink:href="#m7adabe8c51" x="80.762766" y="20.777241" style="fill: #c0392b; stroke: #c0392b; stroke-width: 0.3"/>
     <use xlink:href="#m7adabe8c51" x="86.591828" y="17.272397" style="fill: #c0392b; stroke: #c0392b; stroke-width: 0.3"/>
     <use xlink:href="#m7adabe8c51" x="92.42089" y="29.539352" style="fill: #c0392b; stroke: #c0392b; stroke-width: 0.3"/>
     <use xlink:href="#m7adabe8c51" x="98.249953" y="31.291774" style="fill: #c0392b; stroke: #c0392b; stroke-width: 0.3"/>
     <use xlink:href="#m7adabe8c51" x="104.079015" y="27.78693" style="fill: #c0392b; stroke: #c0392b; stroke-width: 0.3"/>
     <use xlink:href="#m7adabe8c51" x="109.908077" y="33.482302" style="fill: #c0392b; stroke: #c0392b; stroke-width: 0.3"/>
     <use xlink:href="#m7adabe8c51" x="115.73714" y="41.368201" style="fill: #c0392b; stroke: #c0392b; stroke-width: 0.3"/>
     <use xlink:href="#m7adabe8c51" x="121.566202" y="50.568418" style="fill: #c0392b; stroke: #c0392b; stroke-width: 0.3"/>
     <use xlink:href="#m7adabe8c51" x="127.395264" y="47.939784" style="fill: #c0392b; stroke: #c0392b; stroke-width: 0.3"/>
     <use xlink:href="#m7adabe8c51" x="133.224326" y="55.825684" style="fill: #c0392b; stroke: #c0392b; stroke-width: 0.3"/>
     <use xlink:href="#m7adabe8c51" x="139.053389" y="61.082951" style="fill: #c0392b; stroke: #c0392b; stroke-width: 0.3"/>
     <use xlink:href="#m7adabe8c51" x="144.882451" y="61.521056" style="fill: #c0392b; stroke: #c0392b; stroke-width: 0.3"/>
     <use xlink:href="#m7adabe8c51" x="150.711513" y="59.330528" style="fill: #c0392b; stroke: #c0392b; stroke-width: 0.3"/>
     <use xlink:href="#m7adabe8c51" x="156.540576" y="66.340217" style="fill: #c0392b; stroke: #c0392b; stroke-width: 0.3"/>
     <use xlink:href="#m7adabe8c51" x="162.369638" y="65.464006" style="fill: #c0392b; stroke: #c0392b; stroke-width: 0.3"/>
     <use xlink:href="#m7adabe8c51" x="164.312659" y="72.035589" style="fill: #c0392b; stroke: #c0392b; stroke-width: 0.3"/>
     <use xlink:href="#m7adabe8c51" x="166.255679" y="75.978539" style="fill: #c0392b; stroke: #c0392b; stroke-width: 0.3"/>
     <use xlink:href="#m7adabe8c51" x="168.1987" y="89.997916" style="fill: #c0392b; stroke: #c0392b; stroke-width: 0.3"/>
     <use xlink:href="#m7adabe8c51" x="170.141721" y="101.826766" style="fill: #c0392b; stroke: #c0392b; stroke-width: 0.3"/>
     <use xlink:href="#m7adabe8c51" x="172.084742" y="113.21751" style="fill: #c0392b; stroke: #c0392b; stroke-width: 0.3"/>
     <use xlink:href="#m7adabe8c51" x="174.027762" y="118.912881" style="fill: #c0392b; stroke: #c0392b; stroke-width: 0.3"/>
     <use xlink:href="#m7adabe8c51" x="175.970783" y="126.798781" style="fill: #c0392b; stroke: #c0392b; stroke-width: 0.3"/>
     <use xlink:href="#m7adabe8c51" x="177.913804" y="134.246575" style="fill: #c0392b; stroke: #c0392b; stroke-width: 0.3"/>
     <use xlink:href="#m7adabe8c51" x="179.856825" y="140.818158" style="fill: #c0392b; stroke: #c0392b; stroke-width: 0.3"/>
     <use xlink:href="#m7adabe8c51" x="181.799845" y="145.637319" style="fill: #c0392b; stroke: #c0392b; stroke-width: 0.3"/>
     <use xlink:href="#m7adabe8c51" x="183.742866" y="152.647008" style="fill: #c0392b; stroke: #c0392b; stroke-width: 0.3"/>
     <use xlink:href="#m7adabe8c51" x="185.685887" y="156.151852" style="fill: #c0392b; stroke: #c0392b; stroke-width: 0.3"/>
     <use xlink:href="#m7adabe8c51" x="187.628908" y="157.904274" style="fill: #c0392b; stroke: #c0392b; stroke-width: 0.3"/>
     <use xlink:href="#m7adabe8c51" x="189.571928" y="157.904274" style="fill: #c0392b; stroke: #c0392b; stroke-width: 0.3"/>
    </g>
   </g>
   <g id="line2d_25">
    <path d="M 34.130268 144.302239 
L 39.95933 74.770115 
L 45.788392 61.398553 
L 51.617455 41.675498 
L 57.446517 17.272397 
L 63.275579 19.61242 
L 69.104641 24.292467 
L 74.933704 32.315404 
L 80.762766 45.686967 
L 86.591828 51.035592 
L 92.42089 61.398553 
L 98.249953 70.758646 
L 104.079015 75.438693 
L 109.908077 84.798787 
L 115.73714 92.487435 
L 121.566202 97.501771 
L 127.395264 100.510373 
L 133.224326 103.518974 
L 139.053389 105.858998 
L 144.882451 110.873333 
L 150.711513 117.559115 
L 156.540576 121.570583 
L 162.369638 122.239161 
L 164.312659 122.239161 
L 166.255679 122.239161 
L 168.1987 122.239161 
L 170.141721 122.239161 
L 172.084742 121.904872 
L 174.027762 121.904872 
L 175.970783 121.904872 
L 177.913804 121.570583 
L 179.856825 121.570583 
L 181.799845 122.239161 
L 183.742866 122.90774 
L 185.685887 125.247763 
L 187.628908 129.593521 
L 189.571928 132.936411 
L 191.514949 137.282169 
L 193.45797 142.296505 
L 195.400991 146.642263 
L 197.344011 150.653731 
L 199.287032 153.996622 
L 201.230053 156.670935 
L 203.173074 158.008091 
" clip-path="url(#p8c70dc8a12)" style="fill: none; stroke: #e67e22; stroke-width: 1.2; stroke-linecap: square"/>
    <defs>
     <path id="m4b0229bdc2" d="M 0 2.25 
C 0.596707 2.25 1.169055 2.012926 1.59099 1.59099 
C 2.012926 1.169055 2.25 0.596707 2.25 0 
C 2.25 -0.596707 2.012926 -1.169055 1.59099 -1.59099 
C 1.169055 -2.012926 0.596707 -2.25 0 -2.25 
C -0.596707 -2.25 -1.169055 -2.012926 -1.59099 -1.59099 
C -2.012926 -1.169055 -2.25 -0.596707 -2.25 0 
C -2.25 0.596707 -2.012926 1.169055 -1.59099 1.59099 
C -1.169055 2.012926 -0.596707 2.25 0 2.25 
z
" style="stroke: #e67e22; stroke-width: 0.3"/>
    </defs>
    <g clip-path="url(#p8c70dc8a12)">
     <use xlink:href="#m4b0229bdc2" x="34.130268" y="144.302239" style="fill: #e67e22; stroke: #e67e22; stroke-width: 0.3"/>
     <use xlink:href="#m4b0229bdc2" x="39.95933" y="74.770115" style="fill: #e67e22; stroke: #e67e22; stroke-width: 0.3"/>
     <use xlink:href="#m4b0229bdc2" x="45.788392" y="61.398553" style="fill: #e67e22; stroke: #e67e22; stroke-width: 0.3"/>
     <use xlink:href="#m4b0229bdc2" x="51.617455" y="41.675498" style="fill: #e67e22; stroke: #e67e22; stroke-width: 0.3"/>
     <use xlink:href="#m4b0229bdc2" x="57.446517" y="17.272397" style="fill: #e67e22; stroke: #e67e22; stroke-width: 0.3"/>
     <use xlink:href="#m4b0229bdc2" x="63.275579" y="19.61242" style="fill: #e67e22; stroke: #e67e22; stroke-width: 0.3"/>
     <use xlink:href="#m4b0229bdc2" x="69.104641" y="24.292467" style="fill: #e67e22; stroke: #e67e22; stroke-width: 0.3"/>
     <use xlink:href="#m4b0229bdc2" x="74.933704" y="32.315404" style="fill: #e67e22; stroke: #e67e22; stroke-width: 0.3"/>
     <use xlink:href="#m4b0229bdc2" x="80.762766" y="45.686967" style="fill: #e67e22; stroke: #e67e22; stroke-width: 0.3"/>
     <use xlink:href="#m4b0229bdc2" x="86.591828" y="51.035592" style="fill: #e67e22; stroke: #e67e22; stroke-width: 0.3"/>
     <use xlink:href="#m4b0229bdc2" x="92.42089" y="61.398553" style="fill: #e67e22; stroke: #e67e22; stroke-width: 0.3"/>
     <use xlink:href="#m4b0229bdc2" x="98.249953" y="70.758646" style="fill: #e67e22; stroke: #e67e22; stroke-width: 0.3"/>
     <use xlink:href="#m4b0229bdc2" x="104.079015" y="75.438693" style="fill: #e67e22; stroke: #e67e22; stroke-width: 0.3"/>
     <use xlink:href="#m4b0229bdc2" x="109.908077" y="84.798787" style="fill: #e67e22; stroke: #e67e22; stroke-width: 0.3"/>
     <use xlink:href="#m4b0229bdc2" x="115.73714" y="92.487435" style="fill: #e67e22; stroke: #e67e22; stroke-width: 0.3"/>
     <use xlink:href="#m4b0229bdc2" x="121.566202" y="97.501771" style="fill: #e67e22; stroke: #e67e22; stroke-width: 0.3"/>
     <use xlink:href="#m4b0229bdc2" x="127.395264" y="100.510373" style="fill: #e67e22; stroke: #e67e22; stroke-width: 0.3"/>
     <use xlink:href="#m4b0229bdc2" x="133.224326" y="103.518974" style="fill: #e67e22; stroke: #e67e22; stroke-width: 0.3"/>
     <use xlink:href="#m4b0229bdc2" x="139.053389" y="105.858998" style="fill: #e67e22; stroke: #e67e22; stroke-width: 0.3"/>
     <use xlink:href="#m4b0229bdc2" x="144.882451" y="110.873333" style="fill: #e67e22; stroke: #e67e22; stroke-width: 0.3"/>
     <use xlink:href="#m4b0229bdc2" x="150.711513" y="117.559115" style="fill: #e67e22; stroke: #e67e22; stroke-width: 0.3"/>
     <use xlink:href="#m4b0229bdc2" x="156.540576" y="121.570583" style="fill: #e67e22; stroke: #e67e22; stroke-width: 0.3"/>
     <use xlink:href="#m4b0229bdc2" x="162.369638" y="122.239161" style="fill: #e67e22; stroke: #e67e22; stroke-width: 0.3"/>
     <use xlink:href="#m4b0229bdc2" x="164.312659" y="122.239161" style="fill: #e67e22; stroke: #e67e22; stroke-width: 0.3"/>
     <use xlink:href="#m4b0229bdc2" x="166.255679" y="122.239161" style="fill: #e67e22; stroke: #e67e22; stroke-width: 0.3"/>
     <use xlink:href="#m4b0229bdc2" x="168.1987" y="122.239161" style="fill: #e67e22; stroke: #e67e22; stroke-width: 0.3"/>
     <use xlink:href="#m4b0229bdc2" x="170.141721" y="122.239161" style="fill: #e67e22; stroke: #e67e22; stroke-width: 0.3"/>
     <use xlink:href="#m4b0229bdc2" x="172.084742" y="121.904872" style="fill: #e67e22; stroke: #e67e22; stroke-width: 0.3"/>
     <use xlink:href="#m4b0229bdc2" x="174.027762" y="121.904872" style="fill: #e67e22; stroke: #e67e22; stroke-width: 0.3"/>
     <use xlink:href="#m4b0229bdc2" x="175.970783" y="121.904872" style="fill: #e67e22; stroke: #e67e22; stroke-width: 0.3"/>
     <use xlink:href="#m4b0229bdc2" x="177.913804" y="121.570583" style="fill: #e67e22; stroke: #e67e22; stroke-width: 0.3"/>
     <use xlink:href="#m4b0229bdc2" x="179.856825" y="121.570583" style="fill: #e67e22; stroke: #e67e22; stroke-width: 0.3"/>
     <use xlink:href="#m4b0229bdc2" x="181.799845" y="122.239161" style="fill: #e67e22; stroke: #e67e22; stroke-width: 0.3"/>
     <use xlink:href="#m4b0229bdc2" x="183.742866" y="122.90774" style="fill: #e67e22; stroke: #e67e22; stroke-width: 0.3"/>
     <use xlink:href="#m4b0229bdc2" x="185.685887" y="125.247763" style="fill: #e67e22; stroke: #e67e22; stroke-width: 0.3"/>
     <use xlink:href="#m4b0229bdc2" x="187.628908" y="129.593521" style="fill: #e67e22; stroke: #e67e22; stroke-width: 0.3"/>
     <use xlink:href="#m4b0229bdc2" x="189.571928" y="132.936411" style="fill: #e67e22; stroke: #e67e22; stroke-width: 0.3"/>
     <use xlink:href="#m4b0229bdc2" x="191.514949" y="137.282169" style="fill: #e67e22; stroke: #e67e22; stroke-width: 0.3"/>
     <use xlink:href="#m4b0229bdc2" x="193.45797" y="142.296505" style="fill: #e67e22; stroke: #e67e22; stroke-width: 0.3"/>
     <use xlink:href="#m4b0229bdc2" x="195.400991" y="146.642263" style="fill: #e67e22; stroke: #e67e22; stroke-width: 0.3"/>
     <use xlink:href="#m4b0229bdc2" x="197.344011" y="150.653731" style="fill: #e67e22; stroke: #e67e22; stroke-width: 0.3"/>
     <use xlink:href="#m4b0229bdc2" x="199.287032" y="153.996622" style="fill: #e67e22; stroke: #e67e22; stroke-width: 0.3"/>
     <use xlink:href="#m4b0229bdc2" x="201.230053" y="156.670935" style="fill: #e67e22; stroke: #e67e22; stroke-width: 0.3"/>
     <use xlink:href="#m4b0229bdc2" x="203.173074" y="158.008091" style="fill: #e67e22; stroke: #e67e22; stroke-width: 0.3"/>
    </g>
   </g>
   <g id="line2d_26">
    <path d="M 39.95933 69.662953 
L 45.788392 46.832206 
L 51.617455 24.962754 
L 57.446517 17.272397 
L 63.275579 26.885343 
L 69.104641 46.832206 
L 74.933704 55.00321 
L 80.762766 65.096803 
L 86.591828 70.624247 
L 92.42089 82.400106 
L 98.249953 89.850139 
L 104.079015 94.175965 
L 109.908077 95.617907 
L 115.73714 100.42438 
L 121.566202 104.269558 
L 127.395264 109.797002 
L 133.224326 114.363152 
L 139.053389 118.20833 
L 144.882451 121.332538 
L 150.711513 123.014803 
L 156.540576 125.177716 
L 162.369638 125.898687 
L 164.312659 125.898687 
L 166.255679 126.139011 
L 168.1987 125.898687 
L 170.141721 126.379334 
L 172.084742 125.898687 
L 174.027762 126.139011 
L 175.970783 125.898687 
L 177.913804 126.379334 
L 179.856825 126.379334 
L 181.799845 126.379334 
L 183.742866 126.379334 
L 185.685887 126.619658 
L 187.628908 126.619658 
L 189.571928 126.379334 
L 191.514949 126.379334 
L 193.45797 125.898687 
L 195.400991 126.139011 
L 197.344011 126.379334 
L 199.287032 128.301924 
L 201.230053 130.464836 
L 203.173074 135.511633 
L 205.116094 138.155193 
L 207.059115 142.240695 
L 209.002136 146.326197 
L 210.945157 151.372994 
L 212.888178 154.256878 
" clip-path="url(#p8c70dc8a12)" style="fill: none; stroke: #27ae60; stroke-width: 1.2; stroke-linecap: square"/>
    <defs>
     <path id="m20fd859d39" d="M 0 2.25 
C 0.596707 2.25 1.169055 2.012926 1.59099 1.59099 
C 2.012926 1.169055 2.25 0.596707 2.25 0 
C 2.25 -0.596707 2.012926 -1.169055 1.59099 -1.59099 
C 1.169055 -2.012926 0.596707 -2.25 0 -2.25 
C -0.596707 -2.25 -1.169055 -2.012926 -1.59099 -1.59099 
C -2.012926 -1.169055 -2.25 -0.596707 -2.25 0 
C -2.25 0.596707 -2.012926 1.169055 -1.59099 1.59099 
C -1.169055 2.012926 -0.596707 2.25 0 2.25 
z
" style="stroke: #27ae60; stroke-width: 0.3"/>
    </defs>
    <g clip-path="url(#p8c70dc8a12)">
     <use xlink:href="#m20fd859d39" x="39.95933" y="69.662953" style="fill: #27ae60; stroke: #27ae60; stroke-width: 0.3"/>
     <use xlink:href="#m20fd859d39" x="45.788392" y="46.832206" style="fill: #27ae60; stroke: #27ae60; stroke-width: 0.3"/>
     <use xlink:href="#m20fd859d39" x="51.617455" y="24.962754" style="fill: #27ae60; stroke: #27ae60; stroke-width: 0.3"/>
     <use xlink:href="#m20fd859d39" x="57.446517" y="17.272397" style="fill: #27ae60; stroke: #27ae60; stroke-width: 0.3"/>
     <use xlink:href="#m20fd859d39" x="63.275579" y="26.885343" style="fill: #27ae60; stroke: #27ae60; stroke-width: 0.3"/>
     <use xlink:href="#m20fd859d39" x="69.104641" y="46.832206" style="fill: #27ae60; stroke: #27ae60; stroke-width: 0.3"/>
     <use xlink:href="#m20fd859d39" x="74.933704" y="55.00321" style="fill: #27ae60; stroke: #27ae60; stroke-width: 0.3"/>
     <use xlink:href="#m20fd859d39" x="80.762766" y="65.096803" style="fill: #27ae60; stroke: #27ae60; stroke-width: 0.3"/>
     <use xlink:href="#m20fd859d39" x="86.591828" y="70.624247" style="fill: #27ae60; stroke: #27ae60; stroke-width: 0.3"/>
     <use xlink:href="#m20fd859d39" x="92.42089" y="82.400106" style="fill: #27ae60; stroke: #27ae60; stroke-width: 0.3"/>
     <use xlink:href="#m20fd859d39" x="98.249953" y="89.850139" style="fill: #27ae60; stroke: #27ae60; stroke-width: 0.3"/>
     <use xlink:href="#m20fd859d39" x="104.079015" y="94.175965" style="fill: #27ae60; stroke: #27ae60; stroke-width: 0.3"/>
     <use xlink:href="#m20fd859d39" x="109.908077" y="95.617907" style="fill: #27ae60; stroke: #27ae60; stroke-width: 0.3"/>
     <use xlink:href="#m20fd859d39" x="115.73714" y="100.42438" style="fill: #27ae60; stroke: #27ae60; stroke-width: 0.3"/>
     <use xlink:href="#m20fd859d39" x="121.566202" y="104.269558" style="fill: #27ae60; stroke: #27ae60; stroke-width: 0.3"/>
     <use xlink:href="#m20fd859d39" x="127.395264" y="109.797002" style="fill: #27ae60; stroke: #27ae60; stroke-width: 0.3"/>
     <use xlink:href="#m20fd859d39" x="133.224326" y="114.363152" style="fill: #27ae60; stroke: #27ae60; stroke-width: 0.3"/>
     <use xlink:href="#m20fd859d39" x="139.053389" y="118.20833" style="fill: #27ae60; stroke: #27ae60; stroke-width: 0.3"/>
     <use xlink:href="#m20fd859d39" x="144.882451" y="121.332538" style="fill: #27ae60; stroke: #27ae60; stroke-width: 0.3"/>
     <use xlink:href="#m20fd859d39" x="150.711513" y="123.014803" style="fill: #27ae60; stroke: #27ae60; stroke-width: 0.3"/>
     <use xlink:href="#m20fd859d39" x="156.540576" y="125.177716" style="fill: #27ae60; stroke: #27ae60; stroke-width: 0.3"/>
     <use xlink:href="#m20fd859d39" x="162.369638" y="125.898687" style="fill: #27ae60; stroke: #27ae60; stroke-width: 0.3"/>
     <use xlink:href="#m20fd859d39" x="164.312659" y="125.898687" style="fill: #27ae60; stroke: #27ae60; stroke-width: 0.3"/>
     <use xlink:href="#m20fd859d39" x="166.255679" y="126.139011" style="fill: #27ae60; stroke: #27ae60; stroke-width: 0.3"/>
     <use xlink:href="#m20fd859d39" x="168.1987" y="125.898687" style="fill: #27ae60; stroke: #27ae60; stroke-width: 0.3"/>
     <use xlink:href="#m20fd859d39" x="170.141721" y="126.379334" style="fill: #27ae60; stroke: #27ae60; stroke-width: 0.3"/>
     <use xlink:href="#m20fd859d39" x="172.084742" y="125.898687" style="fill: #27ae60; stroke: #27ae60; stroke-width: 0.3"/>
     <use xlink:href="#m20fd859d39" x="174.027762" y="126.139011" style="fill: #27ae60; stroke: #27ae60; stroke-width: 0.3"/>
     <use xlink:href="#m20fd859d39" x="175.970783" y="125.898687" style="fill: #27ae60; stroke: #27ae60; stroke-width: 0.3"/>
     <use xlink:href="#m20fd859d39" x="177.913804" y="126.379334" style="fill: #27ae60; stroke: #27ae60; stroke-width: 0.3"/>
     <use xlink:href="#m20fd859d39" x="179.856825" y="126.379334" style="fill: #27ae60; stroke: #27ae60; stroke-width: 0.3"/>
     <use xlink:href="#m20fd859d39" x="181.799845" y="126.379334" style="fill: #27ae60; stroke: #27ae60; stroke-width: 0.3"/>
     <use xlink:href="#m20fd859d39" x="183.742866" y="126.379334" style="fill: #27ae60; stroke: #27ae60; stroke-width: 0.3"/>
     <use xlink:href="#m20fd859d39" x="185.685887" y="126.619658" style="fill: #27ae60; stroke: #27ae60; stroke-width: 0.3"/>
     <use xlink:href="#m20fd859d39" x="187.628908" y="126.619658" style="fill: #27ae60; stroke: #27ae60; stroke-width: 0.3"/>
     <use xlink:href="#m20fd859d39" x="189.571928" y="126.379334" style="fill: #27ae60; stroke: #27ae60; stroke-width: 0.3"/>
     <use xlink:href="#m20fd859d39" x="191.514949" y="126.379334" style="fill: #27ae60; stroke: #27ae60; stroke-width: 0.3"/>
     <use xlink:href="#m20fd859d39" x="193.45797" y="125.898687" style="fill: #27ae60; stroke: #27ae60; stroke-width: 0.3"/>
     <use xlink:href="#m20fd859d39" x="195.400991" y="126.139011" style="fill: #27ae60; stroke: #27ae60; stroke-width: 0.3"/>
     <use xlink:href="#m20fd859d39" x="197.344011" y="126.379334" style="fill: #27ae60; stroke: #27ae60; stroke-width: 0.3"/>
     <use xlink:href="#m20fd859d39" x="199.287032" y="128.301924" style="fill: #27ae60; stroke: #27ae60; stroke-width: 0.3"/>
     <use xlink:href="#m20fd859d39" x="201.230053" y="130.464836" style="fill: #27ae60; stroke: #27ae60; stroke-width: 0.3"/>
     <use xlink:href="#m20fd859d39" x="203.173074" y="135.511633" style="fill: #27ae60; stroke: #27ae60; stroke-width: 0.3"/>
     <use xlink:href="#m20fd859d39" x="205.116094" y="138.155193" style="fill: #27ae60; stroke: #27ae60; stroke-width: 0.3"/>
     <use xlink:href="#m20fd859d39" x="207.059115" y="142.240695" style="fill: #27ae60; stroke: #27ae60; stroke-width: 0.3"/>
     <use xlink:href="#m20fd859d39" x="209.002136" y="146.326197" style="fill: #27ae60; stroke: #27ae60; stroke-width: 0.3"/>
     <use xlink:href="#m20fd859d39" x="210.945157" y="151.372994" style="fill: #27ae60; stroke: #27ae60; stroke-width: 0.3"/>
     <use xlink:href="#m20fd859d39" x="212.888178" y="154.256878" style="fill: #27ae60; stroke: #27ae60; stroke-width: 0.3"/>
    </g>
   </g>
   <g id="line2d_27">
    <path d="M 28.301205 124.363412 
L 34.130268 72.249603 
L 39.95933 45.524572 
L 45.788392 30.253126 
L 51.617455 17.272397 
L 57.446517 25.099013 
L 63.275579 40.943138 
L 69.104641 53.542081 
L 74.933704 64.995666 
L 80.762766 70.722458 
L 86.591828 78.549074 
L 92.42089 86.37569 
L 98.249953 91.911589 
L 104.079015 96.683916 
L 109.908077 102.219816 
L 115.73714 106.037677 
L 121.566202 110.237325 
L 127.395264 113.6734 
L 133.224326 116.918582 
L 139.053389 119.209299 
L 144.882451 121.500016 
L 150.711513 124.936092 
L 156.540576 127.799488 
L 162.369638 129.899312 
L 164.312659 129.899312 
L 166.255679 129.899312 
L 168.1987 130.090205 
L 170.141721 129.899312 
L 172.084742 129.517525 
L 174.027762 129.899312 
L 175.970783 129.899312 
L 177.913804 129.899312 
L 179.856825 129.517525 
L 181.799845 129.708418 
L 183.742866 129.708418 
L 185.685887 129.708418 
L 187.628908 130.090205 
L 189.571928 129.899312 
L 191.514949 129.899312 
L 193.45797 129.899312 
L 195.400991 129.899312 
L 197.344011 129.708418 
L 199.287032 130.090205 
L 201.230053 130.281098 
L 203.173074 130.090205 
L 205.116094 130.853777 
L 207.059115 131.999135 
L 209.002136 132.380922 
L 210.945157 133.52628 
L 212.888178 136.389676 
L 214.831198 138.871286 
L 216.774219 143.45272 
L 218.71724 149.752191 
L 220.660261 156.624342 
" clip-path="url(#p8c70dc8a12)" style="fill: none; stroke: #2980b9; stroke-width: 1.2; stroke-linecap: square"/>
    <defs>
     <path id="m62f1679829" d="M 0 2.25 
C 0.596707 2.25 1.169055 2.012926 1.59099 1.59099 
C 2.012926 1.169055 2.25 0.596707 2.25 0 
C 2.25 -0.596707 2.012926 -1.169055 1.59099 -1.59099 
C 1.169055 -2.012926 0.596707 -2.25 0 -2.25 
C -0.596707 -2.25 -1.169055 -2.012926 -1.59099 -1.59099 
C -2.012926 -1.169055 -2.25 -0.596707 -2.25 0 
C -2.25 0.596707 -2.012926 1.169055 -1.59099 1.59099 
C -1.169055 2.012926 -0.596707 2.25 0 2.25 
z
" style="stroke: #2980b9; stroke-width: 0.3"/>
    </defs>
    <g clip-path="url(#p8c70dc8a12)">
     <use xlink:href="#m62f1679829" x="28.301205" y="124.363412" style="fill: #2980b9; stroke: #2980b9; stroke-width: 0.3"/>
     <use xlink:href="#m62f1679829" x="34.130268" y="72.249603" style="fill: #2980b9; stroke: #2980b9; stroke-width: 0.3"/>
     <use xlink:href="#m62f1679829" x="39.95933" y="45.524572" style="fill: #2980b9; stroke: #2980b9; stroke-width: 0.3"/>
     <use xlink:href="#m62f1679829" x="45.788392" y="30.253126" style="fill: #2980b9; stroke: #2980b9; stroke-width: 0.3"/>
     <use xlink:href="#m62f1679829" x="51.617455" y="17.272397" style="fill: #2980b9; stroke: #2980b9; stroke-width: 0.3"/>
     <use xlink:href="#m62f1679829" x="57.446517" y="25.099013" style="fill: #2980b9; stroke: #2980b9; stroke-width: 0.3"/>
     <use xlink:href="#m62f1679829" x="63.275579" y="40.943138" style="fill: #2980b9; stroke: #2980b9; stroke-width: 0.3"/>
     <use xlink:href="#m62f1679829" x="69.104641" y="53.542081" style="fill: #2980b9; stroke: #2980b9; stroke-width: 0.3"/>
     <use xlink:href="#m62f1679829" x="74.933704" y="64.995666" style="fill: #2980b9; stroke: #2980b9; stroke-width: 0.3"/>
     <use xlink:href="#m62f1679829" x="80.762766" y="70.722458" style="fill: #2980b9; stroke: #2980b9; stroke-width: 0.3"/>
     <use xlink:href="#m62f1679829" x="86.591828" y="78.549074" style="fill: #2980b9; stroke: #2980b9; stroke-width: 0.3"/>
     <use xlink:href="#m62f1679829" x="92.42089" y="86.37569" style="fill: #2980b9; stroke: #2980b9; stroke-width: 0.3"/>
     <use xlink:href="#m62f1679829" x="98.249953" y="91.911589" style="fill: #2980b9; stroke: #2980b9; stroke-width: 0.3"/>
     <use xlink:href="#m62f1679829" x="104.079015" y="96.683916" style="fill: #2980b9; stroke: #2980b9; stroke-width: 0.3"/>
     <use xlink:href="#m62f1679829" x="109.908077" y="102.219816" style="fill: #2980b9; stroke: #2980b9; stroke-width: 0.3"/>
     <use xlink:href="#m62f1679829" x="115.73714" y="106.037677" style="fill: #2980b9; stroke: #2980b9; stroke-width: 0.3"/>
     <use xlink:href="#m62f1679829" x="121.566202" y="110.237325" style="fill: #2980b9; stroke: #2980b9; stroke-width: 0.3"/>
     <use xlink:href="#m62f1679829" x="127.395264" y="113.6734" style="fill: #2980b9; stroke: #2980b9; stroke-width: 0.3"/>
     <use xlink:href="#m62f1679829" x="133.224326" y="116.918582" style="fill: #2980b9; stroke: #2980b9; stroke-width: 0.3"/>
     <use xlink:href="#m62f1679829" x="139.053389" y="119.209299" style="fill: #2980b9; stroke: #2980b9; stroke-width: 0.3"/>
     <use xlink:href="#m62f1679829" x="144.882451" y="121.500016" style="fill: #2980b9; stroke: #2980b9; stroke-width: 0.3"/>
     <use xlink:href="#m62f1679829" x="150.711513" y="124.936092" style="fill: #2980b9; stroke: #2980b9; stroke-width: 0.3"/>
     <use xlink:href="#m62f1679829" x="156.540576" y="127.799488" style="fill: #2980b9; stroke: #2980b9; stroke-width: 0.3"/>
     <use xlink:href="#m62f1679829" x="162.369638" y="129.899312" style="fill: #2980b9; stroke: #2980b9; stroke-width: 0.3"/>
     <use xlink:href="#m62f1679829" x="164.312659" y="129.899312" style="fill: #2980b9; stroke: #2980b9; stroke-width: 0.3"/>
     <use xlink:href="#m62f1679829" x="166.255679" y="129.899312" style="fill: #2980b9; stroke: #2980b9; stroke-width: 0.3"/>
     <use xlink:href="#m62f1679829" x="168.1987" y="130.090205" style="fill: #2980b9; stroke: #2980b9; stroke-width: 0.3"/>
     <use xlink:href="#m62f1679829" x="170.141721" y="129.899312" style="fill: #2980b9; stroke: #2980b9; stroke-width: 0.3"/>
     <use xlink:href="#m62f1679829" x="172.084742" y="129.517525" style="fill: #2980b9; stroke: #2980b9; stroke-width: 0.3"/>
     <use xlink:href="#m62f1679829" x="174.027762" y="129.899312" style="fill: #2980b9; stroke: #2980b9; stroke-width: 0.3"/>
     <use xlink:href="#m62f1679829" x="175.970783" y="129.899312" style="fill: #2980b9; stroke: #2980b9; stroke-width: 0.3"/>
     <use xlink:href="#m62f1679829" x="177.913804" y="129.899312" style="fill: #2980b9; stroke: #2980b9; stroke-width: 0.3"/>
     <use xlink:href="#m62f1679829" x="179.856825" y="129.517525" style="fill: #2980b9; stroke: #2980b9; stroke-width: 0.3"/>
     <use xlink:href="#m62f1679829" x="181.799845" y="129.708418" style="fill: #2980b9; stroke: #2980b9; stroke-width: 0.3"/>
     <use xlink:href="#m62f1679829" x="183.742866" y="129.708418" style="fill: #2980b9; stroke: #2980b9; stroke-width: 0.3"/>
     <use xlink:href="#m62f1679829" x="185.685887" y="129.708418" style="fill: #2980b9; stroke: #2980b9; stroke-width: 0.3"/>
     <use xlink:href="#m62f1679829" x="187.628908" y="130.090205" style="fill: #2980b9; stroke: #2980b9; stroke-width: 0.3"/>
     <use xlink:href="#m62f1679829" x="189.571928" y="129.899312" style="fill: #2980b9; stroke: #2980b9; stroke-width: 0.3"/>
     <use xlink:href="#m62f1679829" x="191.514949" y="129.899312" style="fill: #2980b9; stroke: #2980b9; stroke-width: 0.3"/>
     <use xlink:href="#m62f1679829" x="193.45797" y="129.899312" style="fill: #2980b9; stroke: #2980b9; stroke-width: 0.3"/>
     <use xlink:href="#m62f1679829" x="195.400991" y="129.899312" style="fill: #2980b9; stroke: #2980b9; stroke-width: 0.3"/>
     <use xlink:href="#m62f1679829" x="197.344011" y="129.708418" style="fill: #2980b9; stroke: #2980b9; stroke-width: 0.3"/>
     <use xlink:href="#m62f1679829" x="199.287032" y="130.090205" style="fill: #2980b9; stroke: #2980b9; stroke-width: 0.3"/>
     <use xlink:href="#m62f1679829" x="201.230053" y="130.281098" style="fill: #2980b9; stroke: #2980b9; stroke-width: 0.3"/>
     <use xlink:href="#m62f1679829" x="203.173074" y="130.090205" style="fill: #2980b9; stroke: #2980b9; stroke-width: 0.3"/>
     <use xlink:href="#m62f1679829" x="205.116094" y="130.853777" style="fill: #2980b9; stroke: #2980b9; stroke-width: 0.3"/>
     <use xlink:href="#m62f1679829" x="207.059115" y="131.999135" style="fill: #2980b9; stroke: #2980b9; stroke-width: 0.3"/>
     <use xlink:href="#m62f1679829" x="209.002136" y="132.380922" style="fill: #2980b9; stroke: #2980b9; stroke-width: 0.3"/>
     <use xlink:href="#m62f1679829" x="210.945157" y="133.52628" style="fill: #2980b9; stroke: #2980b9; stroke-width: 0.3"/>
     <use xlink:href="#m62f1679829" x="212.888178" y="136.389676" style="fill: #2980b9; stroke: #2980b9; stroke-width: 0.3"/>
     <use xlink:href="#m62f1679829" x="214.831198" y="138.871286" style="fill: #2980b9; stroke: #2980b9; stroke-width: 0.3"/>
     <use xlink:href="#m62f1679829" x="216.774219" y="143.45272" style="fill: #2980b9; stroke: #2980b9; stroke-width: 0.3"/>
     <use xlink:href="#m62f1679829" x="218.71724" y="149.752191" style="fill: #2980b9; stroke: #2980b9; stroke-width: 0.3"/>
     <use xlink:href="#m62f1679829" x="220.660261" y="156.624342" style="fill: #2980b9; stroke: #2980b9; stroke-width: 0.3"/>
    </g>
   </g>
   <g id="text_18">
    <g id="patch_5">
     <path d="M 47.522455 180.691089 
L 55.712455 180.691089 
L 55.712455 172.18937 
L 47.522455 172.18937 
z
" style="fill: #ffffff; stroke: #000000; stroke-width: 0.5; stroke-linejoin: miter"/>
    </g>
    <!-- $t_1$ -->
    <g transform="translate(48.572455 178.249839) scale(0.07 -0.07)">
     <defs>
      <path id="DejaVuSans-Oblique-74" d="M 2706 3500 
L 2619 3053 
L 1472 3053 
L 1100 1153 
Q 1081 1047 1072 975 
Q 1063 903 1063 863 
Q 1063 663 1183 572 
Q 1303 481 1569 481 
L 2150 481 
L 2053 0 
L 1503 0 
Q 991 0 739 200 
Q 488 400 488 806 
Q 488 878 497 964 
Q 506 1050 525 1153 
L 897 3053 
L 409 3053 
L 500 3500 
L 978 3500 
L 1172 4494 
L 1747 4494 
L 1556 3500 
L 2706 3500 
z
" transform="scale(0.015625)"/>
      <path id="DejaVuSans-31" d="M 794 531 
L 1825 531 
L 1825 4091 
L 703 3866 
L 703 4441 
L 1819 4666 
L 2450 4666 
L 2450 531 
L 3481 531 
L 3481 0 
L 794 0 
L 794 531 
z
" transform="scale(0.015625)"/>
     </defs>
     <use xlink:href="#DejaVuSans-Oblique-74" transform="translate(0 0.78125)"/>
     <use xlink:href="#DejaVuSans-31" transform="translate(39.208984 -15.625) scale(0.7)"/>
    </g>
   </g>
   <g id="text_19">
    <g id="patch_6">
     <path d="M 134.958389 180.691089 
L 143.148389 180.691089 
L 143.148389 172.18937 
L 134.958389 172.18937 
z
" style="fill: #ffffff; stroke: #000000; stroke-width: 0.5; stroke-linejoin: miter"/>
    </g>
    <!-- $t_2$ -->
    <g transform="translate(136.008389 178.249839) scale(0.07 -0.07)">
     <defs>
      <path id="DejaVuSans-32" d="M 1228 531 
L 3431 531 
L 3431 0 
L 469 0 
L 469 531 
Q 828 903 1448 1529 
Q 2069 2156 2228 2338 
Q 2531 2678 2651 2914 
Q 2772 3150 2772 3378 
Q 2772 3750 2511 3984 
Q 2250 4219 1831 4219 
Q 1534 4219 1204 4116 
Q 875 4013 500 3803 
L 500 4441 
Q 881 4594 1212 4672 
Q 1544 4750 1819 4750 
Q 2544 4750 2975 4387 
Q 3406 4025 3406 3419 
Q 3406 3131 3298 2873 
Q 3191 2616 2906 2266 
Q 2828 2175 2409 1742 
Q 1991 1309 1228 531 
z
" transform="scale(0.015625)"/>
     </defs>
     <use xlink:href="#DejaVuSans-Oblique-74" transform="translate(0 0.78125)"/>
     <use xlink:href="#DejaVuSans-32" transform="translate(39.208984 -15.625) scale(0.7)"/>
    </g>
   </g>
   <g id="text_20">
    <g id="patch_7">
     <path d="M 187.419949 180.691089 
L 195.609949 180.691089 
L 195.609949 172.18937 
L 187.419949 172.18937 
z
" style="fill: #ffffff; stroke: #000000; stroke-width: 0.5; stroke-linejoin: miter"/>
    </g>
    <!-- $t_3$ -->
    <g transform="translate(188.469949 178.249839) scale(0.07 -0.07)">
     <defs>
      <path id="DejaVuSans-33" d="M 2597 2516 
Q 3050 2419 3304 2112 
Q 3559 1806 3559 1356 
Q 3559 666 3084 287 
Q 2609 -91 1734 -91 
Q 1441 -91 1130 -33 
Q 819 25 488 141 
L 488 750 
Q 750 597 1062 519 
Q 1375 441 1716 441 
Q 2309 441 2620 675 
Q 2931 909 2931 1356 
Q 2931 1769 2642 2001 
Q 2353 2234 1838 2234 
L 1294 2234 
L 1294 2753 
L 1863 2753 
Q 2328 2753 2575 2939 
Q 2822 3125 2822 3475 
Q 2822 3834 2567 4026 
Q 2313 4219 1838 4219 
Q 1578 4219 1281 4162 
Q 984 4106 628 3988 
L 628 4550 
Q 988 4650 1302 4700 
Q 1616 4750 1894 4750 
Q 2613 4750 3031 4423 
Q 3450 4097 3450 3541 
Q 3450 3153 3228 2886 
Q 3006 2619 2597 2516 
z
" transform="scale(0.015625)"/>
     </defs>
     <use xlink:href="#DejaVuSans-Oblique-74" transform="translate(0 0.78125)"/>
     <use xlink:href="#DejaVuSans-33" transform="translate(39.208984 -15.625) scale(0.7)"/>
    </g>
   </g>
   <g id="text_21">
    <g id="patch_8">
     <path d="M 216.565261 180.691089 
L 224.755261 180.691089 
L 224.755261 172.18937 
L 216.565261 172.18937 
z
" style="fill: #ffffff; stroke: #000000; stroke-width: 0.5; stroke-linejoin: miter"/>
    </g>
    <!-- $t_4$ -->
    <g transform="translate(217.615261 178.249839) scale(0.07 -0.07)">
     <defs>
      <path id="DejaVuSans-34" d="M 2419 4116 
L 825 1625 
L 2419 1625 
L 2419 4116 
z
M 2253 4666 
L 3047 4666 
L 3047 1625 
L 3713 1625 
L 3713 1100 
L 3047 1100 
L 3047 0 
L 2419 0 
L 2419 1100 
L 313 1100 
L 313 1709 
L 2253 4666 
z
" transform="scale(0.015625)"/>
     </defs>
     <use xlink:href="#DejaVuSans-Oblique-74" transform="translate(0 0.78125)"/>
     <use xlink:href="#DejaVuSans-34" transform="translate(39.208984 -15.625) scale(0.7)"/>
    </g>
   </g>
   <g id="text_22">
    <!-- B -->
    <g transform="translate(7.2 15.789375) scale(0.12 -0.12)">
     <defs>
      <path id="Arial-BoldMT-42" d="M 469 4581 
L 2300 4581 
Q 2844 4581 3111 4536 
Q 3378 4491 3589 4347 
Q 3800 4203 3940 3964 
Q 4081 3725 4081 3428 
Q 4081 3106 3907 2837 
Q 3734 2569 3438 2434 
Q 3856 2313 4081 2019 
Q 4306 1725 4306 1328 
Q 4306 1016 4161 720 
Q 4016 425 3764 248 
Q 3513 72 3144 31 
Q 2913 6 2028 0 
L 469 0 
L 469 4581 
z
M 1394 3819 
L 1394 2759 
L 2000 2759 
Q 2541 2759 2672 2775 
Q 2909 2803 3045 2939 
Q 3181 3075 3181 3297 
Q 3181 3509 3064 3642 
Q 2947 3775 2716 3803 
Q 2578 3819 1925 3819 
L 1394 3819 
z
M 1394 1997 
L 1394 772 
L 2250 772 
Q 2750 772 2884 800 
Q 3091 838 3220 983 
Q 3350 1128 3350 1372 
Q 3350 1578 3250 1722 
Q 3150 1866 2961 1931 
Q 2772 1997 2141 1997 
L 1394 1997 
z
" transform="scale(0.015625)"/>
     </defs>
     <use xlink:href="#Arial-BoldMT-42"/>
    </g>
   </g>
   <g id="legend_1">
    <g id="patch_9">
     <path d="M 169.676823 45.438898 
L 222.289323 45.438898 
Q 223.489323 45.438898 223.489323 44.238898 
L 223.489323 14.418898 
Q 223.489323 13.218898 222.289323 13.218898 
L 169.676823 13.218898 
Q 168.476823 13.218898 168.476823 14.418898 
L 168.476823 44.238898 
Q 168.476823 45.438898 169.676823 45.438898 
z
" style="fill: #ffffff; opacity: 0.9"/>
    </g>
    <g id="line2d_28">
     <path d="M 170.876823 17.831398 
L 175.376823 17.831398 
L 179.876823 17.831398 
" style="fill: none; stroke: #c0392b; stroke-width: 1.2; stroke-linecap: square"/>
     <g>
      <use xlink:href="#m7adabe8c51" x="175.376823" y="17.831398" style="fill: #c0392b; stroke: #c0392b; stroke-width: 0.3"/>
     </g>
    </g>
    <g id="text_23">
     <!-- 800-1200 µm -->
     <g transform="translate(182.276823 19.931398) scale(0.06 -0.06)">
      <defs>
       <path id="ArialMT-2d" d="M 203 1375 
L 203 1941 
L 1931 1941 
L 1931 1375 
L 203 1375 
z
" transform="scale(0.015625)"/>
       <path id="ArialMT-b5" d="M 3181 3319 
L 3181 0 
L 2678 0 
L 2678 394 
Q 2516 144 2356 50 
Q 2138 -78 1847 -78 
Q 1588 -78 1388 25 
Q 1238 103 1056 334 
L 1056 -1272 
L 500 -1272 
L 500 3319 
L 1056 3319 
L 1056 1913 
Q 1056 1147 1137 920 
Q 1219 694 1401 562 
Q 1584 431 1822 431 
Q 2072 431 2269 568 
Q 2466 706 2547 923 
Q 2628 1141 2628 1903 
L 2628 3319 
L 3181 3319 
z
" transform="scale(0.015625)"/>
      </defs>
      <use xlink:href="#ArialMT-38"/>
      <use xlink:href="#ArialMT-30" transform="translate(55.615234 0)"/>
      <use xlink:href="#ArialMT-30" transform="translate(111.230469 0)"/>
      <use xlink:href="#ArialMT-2d" transform="translate(166.845703 0)"/>
      <use xlink:href="#ArialMT-31" transform="translate(200.146484 0)"/>
      <use xlink:href="#ArialMT-32" transform="translate(255.761719 0)"/>
      <use xlink:href="#ArialMT-30" transform="translate(311.376953 0)"/>
      <use xlink:href="#ArialMT-30" transform="translate(366.992188 0)"/>
      <use xlink:href="#ArialMT-20" transform="translate(422.607422 0)"/>
      <use xlink:href="#ArialMT-b5" transform="translate(450.390625 0)"/>
      <use xlink:href="#ArialMT-6d" transform="translate(508.007812 0)"/>
     </g>
    </g>
    <g id="line2d_29">
     <path d="M 170.876823 25.136398 
L 175.376823 25.136398 
L 179.876823 25.136398 
" style="fill: none; stroke: #e67e22; stroke-width: 1.2; stroke-linecap: square"/>
     <g>
      <use xlink:href="#m4b0229bdc2" x="175.376823" y="25.136398" style="fill: #e67e22; stroke: #e67e22; stroke-width: 0.3"/>
     </g>
    </g>
    <g id="text_24">
     <!-- 1200-1600 µm -->
     <g transform="translate(182.276823 27.236398) scale(0.06 -0.06)">
      <use xlink:href="#ArialMT-31"/>
      <use xlink:href="#ArialMT-32" transform="translate(55.615234 0)"/>
      <use xlink:href="#ArialMT-30" transform="translate(111.230469 0)"/>
      <use xlink:href="#ArialMT-30" transform="translate(166.845703 0)"/>
      <use xlink:href="#ArialMT-2d" transform="translate(222.460938 0)"/>
      <use xlink:href="#ArialMT-31" transform="translate(255.761719 0)"/>
      <use xlink:href="#ArialMT-36" transform="translate(311.376953 0)"/>
      <use xlink:href="#ArialMT-30" transform="translate(366.992188 0)"/>
      <use xlink:href="#ArialMT-30" transform="translate(422.607422 0)"/>
      <use xlink:href="#ArialMT-20" transform="translate(478.222656 0)"/>
      <use xlink:href="#ArialMT-b5" transform="translate(506.005859 0)"/>
      <use xlink:href="#ArialMT-6d" transform="translate(563.623047 0)"/>
     </g>
    </g>
    <g id="line2d_30">
     <path d="M 170.876823 32.441398 
L 175.376823 32.441398 
L 179.876823 32.441398 
" style="fill: none; stroke: #27ae60; stroke-width: 1.2; stroke-linecap: square"/>
     <g>
      <use xlink:href="#m20fd859d39" x="175.376823" y="32.441398" style="fill: #27ae60; stroke: #27ae60; stroke-width: 0.3"/>
     </g>
    </g>
    <g id="text_25">
     <!-- 1600-2200 µm -->
     <g transform="translate(182.276823 34.541398) scale(0.06 -0.06)">
      <use xlink:href="#ArialMT-31"/>
      <use xlink:href="#ArialMT-36" transform="translate(55.615234 0)"/>
      <use xlink:href="#ArialMT-30" transform="translate(111.230469 0)"/>
      <use xlink:href="#ArialMT-30" transform="translate(166.845703 0)"/>
      <use xlink:href="#ArialMT-2d" transform="translate(222.460938 0)"/>
      <use xlink:href="#ArialMT-32" transform="translate(255.761719 0)"/>
      <use xlink:href="#ArialMT-32" transform="translate(311.376953 0)"/>
      <use xlink:href="#ArialMT-30" transform="translate(366.992188 0)"/>
      <use xlink:href="#ArialMT-30" transform="translate(422.607422 0)"/>
      <use xlink:href="#ArialMT-20" transform="translate(478.222656 0)"/>
      <use xlink:href="#ArialMT-b5" transform="translate(506.005859 0)"/>
      <use xlink:href="#ArialMT-6d" transform="translate(563.623047 0)"/>
     </g>
    </g>
    <g id="line2d_31">
     <path d="M 170.876823 39.746398 
L 175.376823 39.746398 
L 179.876823 39.746398 
" style="fill: none; stroke: #2980b9; stroke-width: 1.2; stroke-linecap: square"/>
     <g>
      <use xlink:href="#m62f1679829" x="175.376823" y="39.746398" style="fill: #2980b9; stroke: #2980b9; stroke-width: 0.3"/>
     </g>
    </g>
    <g id="text_26">
     <!-- 2200-3000 µm -->
     <g transform="translate(182.276823 41.846398) scale(0.06 -0.06)">
      <defs>
       <path id="ArialMT-33" d="M 269 1209 
L 831 1284 
Q 928 806 1161 595 
Q 1394 384 1728 384 
Q 2125 384 2398 659 
Q 2672 934 2672 1341 
Q 2672 1728 2419 1979 
Q 2166 2231 1775 2231 
Q 1616 2231 1378 2169 
L 1441 2663 
Q 1497 2656 1531 2656 
Q 1891 2656 2178 2843 
Q 2466 3031 2466 3422 
Q 2466 3731 2256 3934 
Q 2047 4138 1716 4138 
Q 1388 4138 1169 3931 
Q 950 3725 888 3313 
L 325 3413 
Q 428 3978 793 4289 
Q 1159 4600 1703 4600 
Q 2078 4600 2393 4439 
Q 2709 4278 2876 4000 
Q 3044 3722 3044 3409 
Q 3044 3113 2884 2869 
Q 2725 2625 2413 2481 
Q 2819 2388 3044 2092 
Q 3269 1797 3269 1353 
Q 3269 753 2831 336 
Q 2394 -81 1725 -81 
Q 1122 -81 723 278 
Q 325 638 269 1209 
z
" transform="scale(0.015625)"/>
      </defs>
      <use xlink:href="#ArialMT-32"/>
      <use xlink:href="#ArialMT-32" transform="translate(55.615234 0)"/>
      <use xlink:href="#ArialMT-30" transform="translate(111.230469 0)"/>
      <use xlink:href="#ArialMT-30" transform="translate(166.845703 0)"/>
      <use xlink:href="#ArialMT-2d" transform="translate(222.460938 0)"/>
      <use xlink:href="#ArialMT-33" transform="translate(255.761719 0)"/>
      <use xlink:href="#ArialMT-30" transform="translate(311.376953 0)"/>
      <use xlink:href="#ArialMT-30" transform="translate(366.992188 0)"/>
      <use xlink:href="#ArialMT-30" transform="translate(422.607422 0)"/>
      <use xlink:href="#ArialMT-20" transform="translate(478.222656 0)"/>
      <use xlink:href="#ArialMT-b5" transform="translate(506.005859 0)"/>
      <use xlink:href="#ArialMT-6d" transform="translate(563.623047 0)"/>
     </g>
    </g>
   </g>
  </g>
 </g>
 <defs>
  <clipPath id="p8c70dc8a12">
   <rect x="34.130268" y="10.218898" width="192.359055" height="150.944882"/>
  </clipPath>
 </defs>
</svg>
