<?xml version="1.0" encoding="utf-8" standalone="no"?>
<!DOCTYPE svg PUBLIC "-//W3C//DTD SVG 1.1//EN"
  "http://www.w3.org/Graphics/SVG/1.1/DTD/svg11.dtd">
<svg xmlns:xlink="http://www.w3.org/1999/xlink" width="238.635263pt" height="231.150734pt" viewBox="0 0 238.635263 231.150734" xmlns="http://www.w3.org/2000/svg" version="1.1">
 <metadata>
  <rdf:RDF xmlns:dc="http://purl.org/dc/elements/1.1/" xmlns:cc="http://creativecommons.org/ns#" xmlns:rdf="http://www.w3.org/1999/02/22-rdf-syntax-ns#">
   <cc:Work>
    <dc:type rdf:resource="http://purl.org/dc/dcmitype/StillImage"/>
    <dc:date>2026-03-30T02:06:58.392043</dc:date>
    <dc:format>image/svg+xml</dc:format>
    <dc:creator>
     <cc:Agent>
      <dc:title>Matplotlib v3.10.8, https://matplotlib.org/</dc:title>
     </cc:Agent>
    </dc:creator>
   </cc:Work>
  </rdf:RDF>
 </metadata>
 <defs>
  <style type="text/css">*{stroke-linejoin: round; stroke-linecap: butt}</style>
 </defs>
 <g id="figure_1">
  <g id="patch_1">
   <path d="M 0 231.150734 
L 238.635263 231.150734 
L 238.635263 0 
L 0 0 
z
" style="fill: #ffffff"/>
  </g>
  <g id="axes_1">
   <g id="patch_2">
    <path d="M 44.305512 199.474016 
L 229.833071 199.474016 
L 229.833071 16.355906 
L 44.305512 16.355906 
z
" style="fill: #ffffff"/>
   </g>
   <g id="line2d_1">
    <path d="M 44.305512 112.274916 
L 229.833071 112.274916 
" clip-path="url(#p51c2e40aae)" style="fill: none; stroke-dasharray: 2.59,1.12; stroke-dashoffset: 0; stroke: #808080; stroke-opacity: 0.7; stroke-width: 0.7"/>
   </g>
   <g id="matplotlib.axis_1">
    <g id="xtick_1">
     <g id="line2d_2">
      <defs>
       <path id="m349c966450" d="M 0 0 
L 0 3.5 
" style="stroke: #000000; stroke-width: 0.6"/>
      </defs>
      <g>
       <use xlink:href="#m349c966450" x="44.305512" y="199.474016" style="stroke: #000000; stroke-width: 0.6"/>
      </g>
     </g>
     <g id="text_1">
      <text style="font-size: 7px; font-family: 'Arial', 'Helvetica', 'DejaVu Sans', sans-serif; text-anchor: middle" x="44.305512" y="211.484484" transform="rotate(-0 44.305512 211.484484)">0</text>
     </g>
    </g>
    <g id="xtick_2">
     <g id="line2d_3">
      <g>
       <use xlink:href="#m349c966450" x="70.48224" y="199.474016" style="stroke: #000000; stroke-width: 0.6"/>
      </g>
     </g>
     <g id="text_2">
      <text style="font-size: 7px; font-family: 'Arial', 'Helvetica', 'DejaVu Sans', sans-serif; text-anchor: middle" x="70.48224" y="211.484484" transform="rotate(-0 70.48224 211.484484)">2</text>
     </g>
    </g>
    <g id="xtick_3">
     <g id="line2d_4">
      <g>
       <use xlink:href="#m349c966450" x="96.658968" y="199.474016" style="stroke: #000000; stroke-width: 0.6"/>
      </g>
     </g>
     <g id="text_3">
      <text style="font-size: 7px; font-family: 'Arial', 'Helvetica', 'DejaVu Sans', sans-serif; text-anchor: middle" x="96.658968" y="211.484484" transform="rotate(-0 96.658968 211.484484)">4</text>
     </g>
    </g>
    <g id="xtick_4">
     <g id="line2d_5">
      <g>
       <use xlink:href="#m349c966450" x="122.835696" y="199.474016" style="stroke: #000000; stroke-width: 0.6"/>
      </g>
     </g>
     <g id="text_4">
      <text style="font-size: 7px; font-family: 'Arial', 'Helvetica', 'DejaVu Sans', sans-serif; text-anchor: middle" x="122.835696" y="211.484484" transform="rotate(-0 122.835696 211.484484)">6</text>
     </g>
    </g>
    <g id="xtick_5">
     <g id="line2d_6">
      <g>
       <use xlink:href="#m349c966450" x="149.012423" y="199.474016" style="stroke: #000000; stroke-width: 0.6"/>
      </g>
     </g>
     <g id="text_5">
      <text style="font-size: 7px; font-family: 'Arial', 'Helvetica', 'DejaVu Sans', sans-serif; text-anchor: middle" x="149.012423" y="211.484484" transform="rotate(-0 149.012423 211.484484)">8</text>
     </g>
    </g>
    <g id="xtick_6">
     <g id="line2d_7">
      <g>
       <use xlink:href="#m349c966450" x="175.189151" y="199.474016" style="stroke: #000000; stroke-width: 0.6"/>
      </g>
     </g>
     <g id="text_6">
      <text style="font-size: 7px; font-family: 'Arial', 'Helvetica', 'DejaVu Sans', sans-serif; text-anchor: middle" x="175.189151" y="211.484484" transform="rotate(-0 175.189151 211.484484)">10</text>
     </g>
    </g>
    <g id="xtick_7">
     <g id="line2d_8">
      <g>
       <use xlink:href="#m349c966450" x="201.365879" y="199.474016" style="stroke: #000000; stroke-width: 0.6"/>
      </g>
     </g>
     <g id="text_7">
      <text style="font-size: 7px; font-family: 'Arial', 'Helvetica', 'DejaVu Sans', sans-serif; text-anchor: middle" x="201.365879" y="211.484484" transform="rotate(-0 201.365879 211.484484)">12</text>
     </g>
    </g>
    <g id="xtick_8">
     <g id="line2d_9">
      <g>
       <use xlink:href="#m349c966450" x="227.542607" y="199.474016" style="stroke: #000000; stroke-width: 0.6"/>
      </g>
     </g>
     <g id="text_8">
      <text style="font-size: 7px; font-family: 'Arial', 'Helvetica', 'DejaVu Sans', sans-serif; text-anchor: middle" x="227.542607" y="211.484484" transform="rotate(-0 227.542607 211.484484)">14</text>
     </g>
    </g>
    <g id="text_9">
     <!-- $\tau$ (min) -->
     <g transform="translate(123.639291 222.080734)">
      <text>
       <tspan x="0" y="-0.453125" style="font-style: oblique; font-size: 8.5px; font-family: 'DejaVu Sans'">τ</tspan>
       <tspan x="5.117432" y="-0.453125" style="font-size: 8.5px; font-family: 'Arial'"> </tspan>
       <tspan x="7.479004" y="-0.453125" style="font-size: 8.5px; font-family: 'Arial'">(</tspan>
       <tspan x="10.30957" y="-0.453125" style="font-size: 8.5px; font-family: 'Arial'">m</tspan>
       <tspan x="17.390137" y="-0.453125" style="font-size: 8.5px; font-family: 'Arial'">i</tspan>
       <tspan x="19.278564" y="-0.453125" style="font-size: 8.5px; font-family: 'Arial'">n</tspan>
       <tspan x="24.005859" y="-0.453125" style="font-size: 8.5px; font-family: 'Arial'">)</tspan>
      </text>
     </g>
    </g>
   </g>
   <g id="matplotlib.axis_2">
    <g id="ytick_1">
     <g id="line2d_10">
      <defs>
       <path id="m07401e3901" d="M 0 0 
L -3.5 0 
" style="stroke: #000000; stroke-width: 0.6"/>
      </defs>
      <g>
       <use xlink:href="#m07401e3901" x="44.305512" y="199.474016" style="stroke: #000000; stroke-width: 0.6"/>
      </g>
     </g>
     <g id="text_10">
      <text style="font-size: 7px; font-family: 'Arial', 'Helvetica', 'DejaVu Sans', sans-serif; text-anchor: end" x="37.305512" y="201.97925" transform="rotate(-0 37.305512 201.97925)">0.0</text>
     </g>
    </g>
    <g id="ytick_2">
     <g id="line2d_11">
      <g>
       <use xlink:href="#m07401e3901" x="44.305512" y="164.594376" style="stroke: #000000; stroke-width: 0.6"/>
      </g>
     </g>
     <g id="text_11">
      <text style="font-size: 7px; font-family: 'Arial', 'Helvetica', 'DejaVu Sans', sans-serif; text-anchor: end" x="37.305512" y="167.09961" transform="rotate(-0 37.305512 167.09961)">0.2</text>
     </g>
    </g>
    <g id="ytick_3">
     <g id="line2d_12">
      <g>
       <use xlink:href="#m07401e3901" x="44.305512" y="129.714736" style="stroke: #000000; stroke-width: 0.6"/>
      </g>
     </g>
     <g id="text_12">
      <text style="font-size: 7px; font-family: 'Arial', 'Helvetica', 'DejaVu Sans', sans-serif; text-anchor: end" x="37.305512" y="132.21997" transform="rotate(-0 37.305512 132.21997)">0.4</text>
     </g>
    </g>
    <g id="ytick_4">
     <g id="line2d_13">
      <g>
       <use xlink:href="#m07401e3901" x="44.305512" y="94.835096" style="stroke: #000000; stroke-width: 0.6"/>
      </g>
     </g>
     <g id="text_13">
      <text style="font-size: 7px; font-family: 'Arial', 'Helvetica', 'DejaVu Sans', sans-serif; text-anchor: end" x="37.305512" y="97.34033" transform="rotate(-0 37.305512 97.34033)">0.6</text>
     </g>
    </g>
    <g id="ytick_5">
     <g id="line2d_14">
      <g>
       <use xlink:href="#m07401e3901" x="44.305512" y="59.955456" style="stroke: #000000; stroke-width: 0.6"/>
      </g>
     </g>
     <g id="text_14">
      <text style="font-size: 7px; font-family: 'Arial', 'Helvetica', 'DejaVu Sans', sans-serif; text-anchor: end" x="37.305512" y="62.46069" transform="rotate(-0 37.305512 62.46069)">0.8</text>
     </g>
    </g>
    <g id="ytick_6">
     <g id="line2d_15">
      <g>
       <use xlink:href="#m07401e3901" x="44.305512" y="25.075816" style="stroke: #000000; stroke-width: 0.6"/>
      </g>
     </g>
     <g id="text_15">
      <text style="font-size: 7px; font-family: 'Arial', 'Helvetica', 'DejaVu Sans', sans-serif; text-anchor: end" x="37.305512" y="27.58105" transform="rotate(-0 37.305512 27.58105)">1.0</text>
     </g>
    </g>
    <g id="text_16">
     <text style="font-size: 8.5px; font-family: 'Arial', 'Helvetica', 'DejaVu Sans', sans-serif; text-anchor: middle" x="22.786527" y="107.914961" transform="rotate(-90 22.786527 107.914961)">Fraction surviving</text>
    </g>
   </g>
   <g id="FillBetweenPolyCollection_1">
    <defs>
     <path id="m60ad454b5d" d="M 44.305512 -206.074919 
L 44.305512 -206.074919 
L 57.393876 -206.074919 
L 57.393876 -110.859945 
L 63.938058 -110.859945 
L 63.938058 -88.018284 
L 70.48224 -88.018284 
L 70.48224 -64.683014 
L 77.026422 -64.683014 
L 77.026422 -52.940119 
L 83.570604 -52.940119 
L 83.570604 -43.928002 
L 90.114786 -43.928002 
L 90.114786 -37.521129 
L 96.658968 -37.521129 
L 96.658968 -36.094592 
L 103.20315 -36.094592 
L 103.20315 -34.77098 
L 109.747332 -34.77098 
L 109.747332 -33.582187 
L 116.291514 -33.582187 
L 116.291514 -32.582758 
L 129.379878 -32.582758 
L 129.379878 -31.880188 
L 142.468241 -31.880188 
L 142.468241 -31.676719 
L 142.468241 -31.676719 
L 142.468241 -31.676719 
L 142.468241 -43.100199 
L 129.379878 -43.100199 
L 129.379878 -46.573529 
L 116.291514 -46.573529 
L 116.291514 -49.954633 
L 109.747332 -49.954633 
L 109.747332 -53.206218 
L 103.20315 -53.206218 
L 103.20315 -56.352439 
L 96.658968 -56.352439 
L 96.658968 -59.413963 
L 90.114786 -59.413963 
L 90.114786 -71.060774 
L 83.570604 -71.060774 
L 83.570604 -84.736447 
L 77.026422 -84.736447 
L 77.026422 -100.311088 
L 70.48224 -100.311088 
L 70.48224 -127.2003 
L 63.938058 -127.2003 
L 63.938058 -150.107423 
L 57.393876 -150.107423 
L 57.393876 -206.074919 
L 44.305512 -206.074919 
z
"/>
    </defs>
    <g clip-path="url(#p51c2e40aae)">
     <use xlink:href="#m60ad454b5d" x="0" y="231.150734" style="fill: #0d0887; fill-opacity: 0.12"/>
    </g>
   </g>
   <g id="FillBetweenPolyCollection_2">
    <defs>
     <path id="m0bd5ccee99" d="M 44.305512 -206.074919 
L 44.305512 -206.074919 
L 57.393876 -206.074919 
L 57.393876 -150.016807 
L 63.938058 -150.016807 
L 63.938058 -119.356267 
L 70.48224 -119.356267 
L 70.48224 -103.420503 
L 77.026422 -103.420503 
L 77.026422 -96.9307 
L 83.570604 -96.9307 
L 83.570604 -78.009129 
L 90.114786 -78.009129 
L 90.114786 -65.905366 
L 96.658968 -65.905366 
L 96.658968 -56.58844 
L 103.20315 -56.58844 
L 103.20315 -53.198511 
L 109.747332 -53.198511 
L 109.747332 -46.636048 
L 116.291514 -46.636048 
L 116.291514 -43.491565 
L 122.835696 -43.491565 
L 122.835696 -41.460654 
L 129.379878 -41.460654 
L 129.379878 -37.607329 
L 135.924059 -37.607329 
L 135.924059 -34.185283 
L 149.012423 -34.185283 
L 149.012423 -32.771224 
L 155.556605 -32.771224 
L 155.556605 -31.798172 
L 168.644969 -31.798172 
L 168.644969 -31.676719 
L 168.644969 -31.676719 
L 168.644969 -31.676719 
L 168.644969 -38.377011 
L 155.556605 -38.377011 
L 155.556605 -42.269626 
L 149.012423 -42.269626 
L 149.012423 -45.954727 
L 135.924059 -45.954727 
L 135.924059 -52.844221 
L 129.379878 -52.844221 
L 129.379878 -59.358857 
L 122.835696 -59.358857 
L 122.835696 -62.523224 
L 116.291514 -62.523224 
L 116.291514 -67.18133 
L 109.747332 -67.18133 
L 109.747332 -76.248952 
L 103.20315 -76.248952 
L 103.20315 -80.683212 
L 96.658968 -80.683212 
L 96.658968 -92.251878 
L 90.114786 -92.251878 
L 90.114786 -106.286047 
L 83.570604 -106.286047 
L 83.570604 -126.613702 
L 77.026422 -126.613702 
L 77.026422 -133.21508 
L 70.48224 -133.21508 
L 70.48224 -148.710118 
L 63.938058 -148.710118 
L 63.938058 -175.699263 
L 57.393876 -175.699263 
L 57.393876 -206.074919 
L 44.305512 -206.074919 
z
"/>
    </defs>
    <g clip-path="url(#p51c2e40aae)">
     <use xlink:href="#m0bd5ccee99" x="0" y="231.150734" style="fill: #7e03a8; fill-opacity: 0.12"/>
    </g>
   </g>
   <g id="FillBetweenPolyCollection_3">
    <defs>
     <path id="m27f4f03b28" d="M 44.305512 -206.074919 
L 44.305512 -206.074919 
L 57.393876 -206.074919 
L 57.393876 -156.559056 
L 63.938058 -156.559056 
L 63.938058 -121.90003 
L 70.48224 -121.90003 
L 70.48224 -107.418431 
L 77.026422 -107.418431 
L 77.026422 -98.417776 
L 83.570604 -98.417776 
L 83.570604 -83.382117 
L 90.114786 -83.382117 
L 90.114786 -77.27313 
L 96.658968 -77.27313 
L 96.658968 -66.537502 
L 109.747332 -66.537502 
L 109.747332 -60.738838 
L 116.291514 -60.738838 
L 116.291514 -57.325953 
L 122.835696 -57.325953 
L 122.835696 -53.969623 
L 129.379878 -53.969623 
L 129.379878 -48.523216 
L 135.924059 -48.523216 
L 135.924059 -43.31071 
L 142.468241 -43.31071 
L 142.468241 -40.33471 
L 149.012423 -40.33471 
L 149.012423 -36.625162 
L 155.556605 -36.625162 
L 155.556605 -33.416045 
L 162.100787 -33.416045 
L 162.100787 -32.195487 
L 175.189151 -32.195487 
L 175.189151 -31.676719 
L 175.189151 -31.676719 
L 175.189151 -31.676719 
L 175.189151 -40.211099 
L 162.100787 -40.211099 
L 162.100787 -43.958703 
L 155.556605 -43.958703 
L 155.556605 -50.882481 
L 149.012423 -50.882481 
L 149.012423 -57.377766 
L 142.468241 -57.377766 
L 142.468241 -62.077009 
L 135.924059 -62.077009 
L 135.924059 -69.68137 
L 129.379878 -69.68137 
L 129.379878 -77.072709 
L 122.835696 -77.072709 
L 122.835696 -81.426284 
L 116.291514 -81.426284 
L 116.291514 -85.727649 
L 109.747332 -85.727649 
L 109.747332 -92.794049 
L 96.658968 -92.794049 
L 96.658968 -105.235108 
L 90.114786 -105.235108 
L 90.114786 -112.010538 
L 83.570604 -112.010538 
L 83.570604 -127.915968 
L 77.026422 -127.915968 
L 77.026422 -136.973758 
L 70.48224 -136.973758 
L 70.48224 -150.8802 
L 63.938058 -150.8802 
L 63.938058 -180.764448 
L 57.393876 -180.764448 
L 57.393876 -206.074919 
L 44.305512 -206.074919 
z
"/>
    </defs>
    <g clip-path="url(#p51c2e40aae)">
     <use xlink:href="#m27f4f03b28" x="0" y="231.150734" style="fill: #cc4778; fill-opacity: 0.12"/>
    </g>
   </g>
   <g id="FillBetweenPolyCollection_4">
    <defs>
     <path id="ma5ec791d4a" d="M 44.305512 -206.074919 
L 44.305512 -206.074919 
L 57.393876 -206.074919 
L 57.393876 -156.772352 
L 63.938058 -156.772352 
L 63.938058 -122.338397 
L 70.48224 -122.338397 
L 70.48224 -112.550462 
L 77.026422 -112.550462 
L 77.026422 -103.451883 
L 83.570604 -103.451883 
L 83.570604 -92.791528 
L 90.114786 -92.791528 
L 90.114786 -85.591677 
L 96.658968 -85.591677 
L 96.658968 -78.47397 
L 103.20315 -78.47397 
L 103.20315 -75.218669 
L 109.747332 -75.218669 
L 109.747332 -69.838685 
L 116.291514 -69.838685 
L 116.291514 -66.109454 
L 122.835696 -66.109454 
L 122.835696 -59.796377 
L 129.379878 -59.796377 
L 129.379878 -56.16721 
L 135.924059 -56.16721 
L 135.924059 -51.065144 
L 142.468241 -51.065144 
L 142.468241 -47.563778 
L 149.012423 -47.563778 
L 149.012423 -45.106546 
L 155.556605 -45.106546 
L 155.556605 -43.653038 
L 162.100787 -43.653038 
L 162.100787 -42.217661 
L 168.644969 -42.217661 
L 168.644969 -40.803125 
L 175.189151 -40.803125 
L 175.189151 -39.873388 
L 181.733333 -39.873388 
L 181.733333 -37.164264 
L 188.277515 -37.164264 
L 188.277515 -35.03536 
L 194.821697 -35.03536 
L 194.821697 -33.47233 
L 201.365879 -33.47233 
L 201.365879 -32.769664 
L 207.910061 -32.769664 
L 207.910061 -31.732522 
L 214.454243 -31.732522 
L 214.454243 -31.676719 
L 214.454243 -31.676719 
L 214.454243 -31.676719 
L 214.454243 -34.694342 
L 207.910061 -34.694342 
L 207.910061 -37.975926 
L 201.365879 -37.975926 
L 201.365879 -39.514525 
L 194.821697 -39.514525 
L 194.821697 -42.456965 
L 188.277515 -42.456965 
L 188.277515 -45.979048 
L 181.733333 -45.979048 
L 181.733333 -50.064919 
L 175.189151 -50.064919 
L 175.189151 -51.402328 
L 168.644969 -51.402328 
L 168.644969 -53.390018 
L 162.100787 -53.390018 
L 162.100787 -55.358388 
L 155.556605 -55.358388 
L 155.556605 -57.309905 
L 149.012423 -57.309905 
L 149.012423 -60.530073 
L 142.468241 -60.530073 
L 142.468241 -64.98104 
L 135.924059 -64.98104 
L 135.924059 -71.245563 
L 129.379878 -71.245563 
L 129.379878 -75.576317 
L 122.835696 -75.576317 
L 122.835696 -82.913705 
L 116.291514 -82.913705 
L 116.291514 -87.149575 
L 109.747332 -87.149575 
L 109.747332 -93.150749 
L 103.20315 -93.150749 
L 103.20315 -96.72534 
L 96.658968 -96.72534 
L 96.658968 -104.408361 
L 90.114786 -104.408361 
L 90.114786 -112.012309 
L 83.570604 -112.012309 
L 83.570604 -122.992789 
L 77.026422 -122.992789 
L 77.026422 -132.121495 
L 70.48224 -132.121495 
L 70.48224 -141.702867 
L 63.938058 -141.702867 
L 63.938058 -173.367789 
L 57.393876 -173.367789 
L 57.393876 -206.074919 
L 44.305512 -206.074919 
z
"/>
    </defs>
    <g clip-path="url(#p51c2e40aae)">
     <use xlink:href="#ma5ec791d4a" x="0" y="231.150734" style="fill: #f89540; fill-opacity: 0.12"/>
    </g>
   </g>
   <g id="FillBetweenPolyCollection_5">
    <defs>
     <path id="madfb7a5b83" d="M 44.305512 -206.074919 
L 44.305512 -206.074919 
L 57.393876 -206.074919 
L 57.393876 -154.944217 
L 63.938058 -154.944217 
L 63.938058 -131.072743 
L 70.48224 -131.072743 
L 70.48224 -115.119217 
L 77.026422 -115.119217 
L 77.026422 -100.638468 
L 83.570604 -100.638468 
L 83.570604 -87.574896 
L 90.114786 -87.574896 
L 90.114786 -80.929755 
L 96.658968 -80.929755 
L 96.658968 -73.963237 
L 103.20315 -73.963237 
L 103.20315 -68.98115 
L 109.747332 -68.98115 
L 109.747332 -66.317414 
L 116.291514 -66.317414 
L 116.291514 -64.045647 
L 122.835696 -64.045647 
L 122.835696 -60.284855 
L 129.379878 -60.284855 
L 129.379878 -57.673109 
L 135.924059 -57.673109 
L 135.924059 -55.080483 
L 142.468241 -55.080483 
L 142.468241 -52.509192 
L 149.012423 -52.509192 
L 149.012423 -51.414414 
L 155.556605 -51.414414 
L 155.556605 -49.600357 
L 162.100787 -49.600357 
L 162.100787 -47.8008 
L 175.189151 -47.8008 
L 175.189151 -44.95634 
L 181.733333 -44.95634 
L 181.733333 -43.204191 
L 188.277515 -43.204191 
L 188.277515 -41.133413 
L 194.821697 -41.133413 
L 194.821697 -38.77279 
L 201.365879 -38.77279 
L 201.365879 -36.494151 
L 207.910061 -36.494151 
L 207.910061 -32.695262 
L 214.454243 -32.695262 
L 214.454243 -32.020582 
L 220.998425 -32.020582 
L 220.998425 -31.676719 
L 220.998425 -31.676719 
L 220.998425 -31.676719 
L 220.998425 -35.02079 
L 214.454243 -35.02079 
L 214.454243 -36.712828 
L 207.910061 -36.712828 
L 207.910061 -43.315135 
L 201.365879 -43.315135 
L 201.365879 -46.658541 
L 194.821697 -46.658541 
L 194.821697 -49.925727 
L 188.277515 -49.925727 
L 188.277515 -52.681863 
L 181.733333 -52.681863 
L 181.733333 -54.953769 
L 175.189151 -54.953769 
L 175.189151 -58.550204 
L 162.100787 -58.550204 
L 162.100787 -60.777432 
L 155.556605 -60.777432 
L 155.556605 -62.990947 
L 149.012423 -62.990947 
L 149.012423 -64.313047 
L 142.468241 -64.313047 
L 142.468241 -67.382 
L 135.924059 -67.382 
L 135.924059 -70.430682 
L 129.379878 -70.430682 
L 129.379878 -73.46116 
L 122.835696 -73.46116 
L 122.835696 -77.762056 
L 116.291514 -77.762056 
L 116.291514 -80.327978 
L 109.747332 -80.327978 
L 109.747332 -83.308778 
L 103.20315 -83.308778 
L 103.20315 -88.810827 
L 96.658968 -88.810827 
L 96.658968 -96.363398 
L 90.114786 -96.363398 
L 90.114786 -103.433016 
L 83.570604 -103.433016 
L 83.570604 -116.997234 
L 77.026422 -116.997234 
L 77.026422 -131.570851 
L 70.48224 -131.570851 
L 70.48224 -147.098089 
L 63.938058 -147.098089 
L 63.938058 -169.243901 
L 57.393876 -169.243901 
L 57.393876 -206.074919 
L 44.305512 -206.074919 
z
"/>
    </defs>
    <g clip-path="url(#p51c2e40aae)">
     <use xlink:href="#madfb7a5b83" x="0" y="231.150734" style="fill: #f0f921; fill-opacity: 0.12"/>
    </g>
   </g>
   <g id="patch_3">
    <path d="M 44.305512 199.474016 
L 44.305512 16.355906 
" style="fill: none; stroke: #000000; stroke-width: 0.6; stroke-linejoin: miter; stroke-linecap: square"/>
   </g>
   <g id="patch_4">
    <path d="M 44.305512 199.474016 
L 229.833071 199.474016 
" style="fill: none; stroke: #000000; stroke-width: 0.6; stroke-linejoin: miter; stroke-linecap: square"/>
   </g>
   <g id="line2d_16">
    <path d="M 44.305512 25.075816 
L 57.393876 25.075816 
L 57.393876 99.135325 
L 63.938058 99.135325 
L 63.938058 123.02549 
L 70.48224 123.02549 
L 70.48224 149.30467 
L 77.026422 149.30467 
L 77.026422 163.638769 
L 83.570604 163.638769 
L 83.570604 175.583851 
L 90.114786 175.583851 
L 90.114786 185.139917 
L 96.658968 185.139917 
L 96.658968 187.528934 
L 103.20315 187.528934 
L 103.20315 189.91795 
L 109.747332 189.91795 
L 109.747332 192.306966 
L 116.291514 192.306966 
L 116.291514 194.695983 
L 129.379878 194.695983 
L 129.379878 197.084999 
L 142.468241 197.084999 
L 142.468241 199.474016 
" clip-path="url(#p51c2e40aae)" style="fill: none; stroke: #0d0887; stroke-width: 1.4; stroke-linecap: square"/>
   </g>
   <g id="line2d_17">
    <path d="M 44.305512 25.075816 
L 57.393876 25.075816 
L 57.393876 66.663079 
L 63.938058 66.663079 
L 63.938058 96.17662 
L 70.48224 96.17662 
L 70.48224 112.274916 
L 77.026422 112.274916 
L 77.026422 118.982539 
L 83.570604 118.982539 
L 83.570604 139.105408 
L 90.114786 139.105408 
L 90.114786 152.520654 
L 96.658968 152.520654 
L 96.658968 163.252851 
L 103.20315 163.252851 
L 103.20315 167.277425 
L 109.747332 167.277425 
L 109.747332 175.326573 
L 116.291514 175.326573 
L 116.291514 179.351146 
L 122.835696 179.351146 
L 122.835696 182.034196 
L 129.379878 182.034196 
L 129.379878 187.400294 
L 135.924059 187.400294 
L 135.924059 192.766393 
L 149.012423 192.766393 
L 149.012423 195.449442 
L 155.556605 195.449442 
L 155.556605 198.132491 
L 168.644969 198.132491 
L 168.644969 199.474016 
" clip-path="url(#p51c2e40aae)" style="fill: none; stroke: #7e03a8; stroke-width: 1.4; stroke-linecap: square"/>
   </g>
   <g id="line2d_18">
    <path d="M 44.305512 25.075816 
L 57.393876 25.075816 
L 57.393876 60.748175 
L 63.938058 60.748175 
L 63.938058 93.778137 
L 70.48224 93.778137 
L 70.48224 108.31132 
L 77.026422 108.31132 
L 77.026422 117.55971 
L 83.570604 117.55971 
L 83.570604 133.414091 
L 90.114786 133.414091 
L 90.114786 140.020084 
L 96.658968 140.020084 
L 96.658968 151.91087 
L 109.747332 151.91087 
L 109.747332 158.516863 
L 116.291514 158.516863 
L 116.291514 162.480458 
L 122.835696 162.480458 
L 122.835696 166.444054 
L 129.379878 166.444054 
L 129.379878 173.050046 
L 135.924059 173.050046 
L 135.924059 179.656038 
L 142.468241 179.656038 
L 142.468241 183.619634 
L 149.012423 183.619634 
L 149.012423 188.904428 
L 155.556605 188.904428 
L 155.556605 194.189222 
L 162.100787 194.189222 
L 162.100787 196.831619 
L 175.189151 196.831619 
L 175.189151 199.474016 
" clip-path="url(#p51c2e40aae)" style="fill: none; stroke: #cc4778; stroke-width: 1.4; stroke-linecap: square"/>
   </g>
   <g id="line2d_19">
    <path d="M 44.305512 25.075816 
L 57.393876 25.075816 
L 57.393876 65.365829 
L 63.938058 65.365829 
L 63.938058 98.748983 
L 70.48224 98.748983 
L 70.48224 108.5337 
L 77.026422 108.5337 
L 77.026422 117.742846 
L 83.570604 117.742846 
L 83.570604 128.678707 
L 90.114786 128.678707 
L 90.114786 136.161138 
L 96.658968 136.161138 
L 96.658968 143.643569 
L 103.20315 143.643569 
L 103.20315 147.096999 
L 109.747332 147.096999 
L 109.747332 152.852715 
L 116.291514 152.852715 
L 116.291514 156.881716 
L 122.835696 156.881716 
L 122.835696 163.788575 
L 129.379878 163.788575 
L 129.379878 167.817577 
L 135.924059 167.817577 
L 135.924059 173.573293 
L 142.468241 173.573293 
L 142.468241 177.602294 
L 149.012423 177.602294 
L 149.012423 180.480152 
L 155.556605 180.480152 
L 155.556605 182.206867 
L 162.100787 182.206867 
L 162.100787 183.933582 
L 168.644969 183.933582 
L 168.644969 185.660297 
L 175.189151 185.660297 
L 175.189151 186.81144 
L 181.733333 186.81144 
L 181.733333 190.26487 
L 188.277515 190.26487 
L 188.277515 193.142728 
L 194.821697 193.142728 
L 194.821697 195.445014 
L 201.365879 195.445014 
L 201.365879 196.596158 
L 207.910061 196.596158 
L 207.910061 198.898444 
L 214.454243 198.898444 
L 214.454243 199.474016 
" clip-path="url(#p51c2e40aae)" style="fill: none; stroke: #f89540; stroke-width: 1.4; stroke-linecap: square"/>
   </g>
   <g id="line2d_20">
    <path d="M 44.305512 25.075816 
L 57.393876 25.075816 
L 57.393876 68.573735 
L 63.938058 68.573735 
L 63.938058 91.745524 
L 70.48224 91.745524 
L 70.48224 107.599906 
L 77.026422 107.599906 
L 77.026422 122.23472 
L 83.570604 122.23472 
L 83.570604 135.649966 
L 90.114786 135.649966 
L 90.114786 142.56085 
L 96.658968 142.56085 
L 96.658968 149.878257 
L 103.20315 149.878257 
L 103.20315 155.163051 
L 109.747332 155.163051 
L 109.747332 158.008709 
L 116.291514 158.008709 
L 116.291514 160.447845 
L 122.835696 160.447845 
L 122.835696 164.513071 
L 129.379878 164.513071 
L 129.379878 167.358729 
L 135.924059 167.358729 
L 135.924059 170.204388 
L 142.468241 170.204388 
L 142.468241 173.050046 
L 149.012423 173.050046 
L 149.012423 174.269614 
L 155.556605 174.269614 
L 155.556605 176.302227 
L 162.100787 176.302227 
L 162.100787 178.33484 
L 175.189151 178.33484 
L 175.189151 181.587021 
L 181.733333 181.587021 
L 181.733333 183.619634 
L 188.277515 183.619634 
L 188.277515 186.05877 
L 194.821697 186.05877 
L 194.821697 188.904428 
L 201.365879 188.904428 
L 201.365879 191.750086 
L 207.910061 191.750086 
L 207.910061 197.03488 
L 214.454243 197.03488 
L 214.454243 198.254448 
L 220.998425 198.254448 
L 220.998425 199.474016 
" clip-path="url(#p51c2e40aae)" style="fill: none; stroke: #f0f921; stroke-width: 1.4; stroke-linecap: square"/>
   </g>
   <g id="text_17">
    <!-- $\tau_{50}$ -->
    <g style="fill: #808080" transform="translate(51.726614 102.563223)">
     <text>
      <tspan x="0" y="-0.078125" style="font-style: oblique; font-size: 8.5px; font-family: 'DejaVu Sans'; fill: #808080">τ</tspan>
      <tspan x="5.117432" y="1.398438" style="font-size: 5.95px; font-family: 'DejaVu Sans'; fill: #808080">5</tspan>
      <tspan x="8.903003" y="1.398438" style="font-size: 5.95px; font-family: 'DejaVu Sans'; fill: #808080">0</tspan>
     </text>
    </g>
   </g>
   <g id="text_18">
    <text style="font-weight: 700; font-size: 12px; font-family: 'Arial', 'Helvetica', 'DejaVu Sans', sans-serif; text-anchor: start" x="7.2" y="15.789375" transform="rotate(-0 7.2 15.789375)">E</text>
   </g>
   <g id="line2d_21">
    <defs>
     <path id="m64906aed58" d="M 0 2.25 
C 0.596707 2.25 1.169055 2.012926 1.59099 1.59099 
C 2.012926 1.169055 2.25 0.596707 2.25 0 
C 2.25 -0.596707 2.012926 -1.169055 1.59099 -1.59099 
C 1.169055 -2.012926 0.596707 -2.25 0 -2.25 
C -0.596707 -2.25 -1.169055 -2.012926 -1.59099 -1.59099 
C -2.012926 -1.169055 -2.25 -0.596707 -2.25 0 
C -2.25 0.596707 -2.012926 1.169055 -1.59099 1.59099 
C -1.169055 2.012926 -0.596707 2.25 0 2.25 
z
" style="stroke: #ffffff; stroke-width: 0.4"/>
    </defs>
    <g clip-path="url(#p51c2e40aae)">
     <use xlink:href="#m64906aed58" x="63.938058" y="112.274916" style="fill: #0d0887; stroke: #ffffff; stroke-width: 0.4"/>
    </g>
   </g>
   <g id="line2d_22">
    <defs>
     <path id="mf1e39af0b7" d="M 0 2.25 
C 0.596707 2.25 1.169055 2.012926 1.59099 1.59099 
C 2.012926 1.169055 2.25 0.596707 2.25 0 
C 2.25 -0.596707 2.012926 -1.169055 1.59099 -1.59099 
C 1.169055 -2.012926 0.596707 -2.25 0 -2.25 
C -0.596707 -2.25 -1.169055 -2.012926 -1.59099 -1.59099 
C -2.012926 -1.169055 -2.25 -0.596707 -2.25 0 
C -2.25 0.596707 -2.012926 1.169055 -1.59099 1.59099 
C -1.169055 2.012926 -0.596707 2.25 0 2.25 
z
" style="stroke: #ffffff; stroke-width: 0.4"/>
    </defs>
    <g clip-path="url(#p51c2e40aae)">
     <use xlink:href="#mf1e39af0b7" x="70.48224" y="112.274916" style="fill: #7e03a8; stroke: #ffffff; stroke-width: 0.4"/>
    </g>
   </g>
   <g id="line2d_23">
    <defs>
     <path id="m2a714fa8a6" d="M 0 2.25 
C 0.596707 2.25 1.169055 2.012926 1.59099 1.59099 
C 2.012926 1.169055 2.25 0.596707 2.25 0 
C 2.25 -0.596707 2.012926 -1.169055 1.59099 -1.59099 
C 1.169055 -2.012926 0.596707 -2.25 0 -2.25 
C -0.596707 -2.25 -1.169055 -2.012926 -1.59099 -1.59099 
C -2.012926 -1.169055 -2.25 -0.596707 -2.25 0 
C -2.25 0.596707 -2.012926 1.169055 -1.59099 1.59099 
C -1.169055 2.012926 -0.596707 2.25 0 2.25 
z
" style="stroke: #ffffff; stroke-width: 0.4"/>
    </defs>
    <g clip-path="url(#p51c2e40aae)">
     <use xlink:href="#m2a714fa8a6" x="77.026422" y="112.274916" style="fill: #cc4778; stroke: #ffffff; stroke-width: 0.4"/>
    </g>
   </g>
   <g id="line2d_24">
    <defs>
     <path id="ma2cea07491" d="M 0 2.25 
C 0.596707 2.25 1.169055 2.012926 1.59099 1.59099 
C 2.012926 1.169055 2.25 0.596707 2.25 0 
C 2.25 -0.596707 2.012926 -1.169055 1.59099 -1.59099 
C 1.169055 -2.012926 0.596707 -2.25 0 -2.25 
C -0.596707 -2.25 -1.169055 -2.012926 -1.59099 -1.59099 
C -2.012926 -1.169055 -2.25 -0.596707 -2.25 0 
C -2.25 0.596707 -2.012926 1.169055 -1.59099 1.59099 
C -1.169055 2.012926 -0.596707 2.25 0 2.25 
z
" style="stroke: #ffffff; stroke-width: 0.4"/>
    </defs>
    <g clip-path="url(#p51c2e40aae)">
     <use xlink:href="#ma2cea07491" x="77.026422" y="112.274916" style="fill: #f89540; stroke: #ffffff; stroke-width: 0.4"/>
    </g>
   </g>
   <g id="line2d_25">
    <defs>
     <path id="mfdda89c6f8" d="M 0 2.25 
C 0.596707 2.25 1.169055 2.012926 1.59099 1.59099 
C 2.012926 1.169055 2.25 0.596707 2.25 0 
C 2.25 -0.596707 2.012926 -1.169055 1.59099 -1.59099 
C 1.169055 -2.012926 0.596707 -2.25 0 -2.25 
C -0.596707 -2.25 -1.169055 -2.012926 -1.59099 -1.59099 
C -2.012926 -1.169055 -2.25 -0.596707 -2.25 0 
C -2.25 0.596707 -2.012926 1.169055 -1.59099 1.59099 
C -1.169055 2.012926 -0.596707 2.25 0 2.25 
z
" style="stroke: #ffffff; stroke-width: 0.4"/>
    </defs>
    <g clip-path="url(#p51c2e40aae)">
     <use xlink:href="#mfdda89c6f8" x="77.026422" y="112.274916" style="fill: #f0f921; stroke: #ffffff; stroke-width: 0.4"/>
    </g>
   </g>
   <g id="legend_1">
    <g id="patch_5">
     <path d="M 154.982524 69.078015 
L 225.283071 69.078015 
Q 226.583071 69.078015 226.583071 67.778015 
L 226.583071 20.905906 
Q 226.583071 19.605906 225.283071 19.605906 
L 154.982524 19.605906 
Q 153.682524 19.605906 153.682524 20.905906 
L 153.682524 67.778015 
Q 153.682524 69.078015 154.982524 69.078015 
L 154.982524 69.078015 
z
" style="fill: none; opacity: 0"/>
    </g>
    <g id="text_19">
     <text style="font-size: 6.5px; font-family: 'Arial', 'Helvetica', 'DejaVu Sans', sans-serif; text-anchor: start" x="155.632524" y="26.287702" transform="rotate(-0 155.632524 26.287702)">Distance from boundary</text>
    </g>
    <g id="line2d_26">
     <path d="M 171.82311 31.983327 
L 178.32311 31.983327 
L 178.32311 31.983327 
L 184.82311 31.983327 
L 184.82311 31.983327 
" style="fill: none; stroke: #0d0887; stroke-width: 1.4; stroke-linecap: square"/>
    </g>
    <g id="text_20">
     <text style="font-size: 6.5px; font-family: 'Arial', 'Helvetica', 'DejaVu Sans', sans-serif; text-anchor: start" x="186.77311" y="34.258327" transform="rotate(-0 186.77311 34.258327)">0.2 mm</text>
    </g>
    <g id="line2d_27">
     <path d="M 171.82311 39.877781 
L 178.32311 39.877781 
L 178.32311 39.877781 
L 184.82311 39.877781 
L 184.82311 39.877781 
" style="fill: none; stroke: #7e03a8; stroke-width: 1.4; stroke-linecap: square"/>
    </g>
    <g id="text_21">
     <text style="font-size: 6.5px; font-family: 'Arial', 'Helvetica', 'DejaVu Sans', sans-serif; text-anchor: start" x="186.77311" y="42.152781" transform="rotate(-0 186.77311 42.152781)">0.6 mm</text>
    </g>
    <g id="line2d_28">
     <path d="M 171.82311 47.772234 
L 178.32311 47.772234 
L 178.32311 47.772234 
L 184.82311 47.772234 
L 184.82311 47.772234 
" style="fill: none; stroke: #cc4778; stroke-width: 1.4; stroke-linecap: square"/>
    </g>
    <g id="text_22">
     <text style="font-size: 6.5px; font-family: 'Arial', 'Helvetica', 'DejaVu Sans', sans-serif; text-anchor: start" x="186.77311" y="50.047234" transform="rotate(-0 186.77311 50.047234)">1.0 mm</text>
    </g>
    <g id="line2d_29">
     <path d="M 171.82311 55.666687 
L 178.32311 55.666687 
L 178.32311 55.666687 
L 184.82311 55.666687 
L 184.82311 55.666687 
" style="fill: none; stroke: #f89540; stroke-width: 1.4; stroke-linecap: square"/>
    </g>
    <g id="text_23">
     <text style="font-size: 6.5px; font-family: 'Arial', 'Helvetica', 'DejaVu Sans', sans-serif; text-anchor: start" x="186.77311" y="57.941687" transform="rotate(-0 186.77311 57.941687)">1.8 mm</text>
    </g>
    <g id="line2d_30">
     <path d="M 171.82311 63.56114 
L 178.32311 63.56114 
L 178.32311 63.56114 
L 184.82311 63.56114 
L 184.82311 63.56114 
" style="fill: none; stroke: #f0f921; stroke-width: 1.4; stroke-linecap: square"/>
    </g>
    <g id="text_24">
     <text style="font-size: 6.5px; font-family: 'Arial', 'Helvetica', 'DejaVu Sans', sans-serif; text-anchor: start" x="186.77311" y="65.83614" transform="rotate(-0 186.77311 65.83614)">2.6 mm</text>
    </g>
   </g>
  </g>
 </g>
 <defs>
  <clipPath id="p51c2e40aae">
   <rect x="44.305512" y="16.355906" width="185.527559" height="183.11811"/>
  </clipPath>
 </defs>
</svg>
