<?xml version="1.0" encoding="utf-8" standalone="no"?>
<!DOCTYPE svg PUBLIC "-//W3C//DTD SVG 1.1//EN"
  "http://www.w3.org/Graphics/SVG/1.1/DTD/svg11.dtd">
<svg xmlns:xlink="http://www.w3.org/1999/xlink" width="371.638245pt" height="159.874545pt" viewBox="0 0 371.638245 159.874545" xmlns="http://www.w3.org/2000/svg" version="1.1">
 <metadata>
  <rdf:RDF xmlns:dc="http://purl.org/dc/elements/1.1/" xmlns:cc="http://creativecommons.org/ns#" xmlns:rdf="http://www.w3.org/1999/02/22-rdf-syntax-ns#">
   <cc:Work>
    <dc:type rdf:resource="http://purl.org/dc/dcmitype/StillImage"/>
    <dc:date>2026-03-25T22:12:37.972485</dc:date>
    <dc:format>image/svg+xml</dc:format>
    <dc:creator>
     <cc:Agent>
      <dc:title>Matplotlib v3.10.8, https://matplotlib.org/</dc:title>
     </cc:Agent>
    </dc:creator>
   </cc:Work>
  </rdf:RDF>
 </metadata>
 <defs>
  <style type="text/css">*{stroke-linejoin: round; stroke-linecap: butt}</style>
 </defs>
 <g id="figure_1">
  <g id="patch_1">
   <path d="M 0 159.874545 
L 371.638245 159.874545 
L 371.638245 0 
L 0 0 
z
" style="fill: #ffffff"/>
  </g>
  <g id="axes_1">
   <g id="patch_2">
    <path d="M 43.83982 129.191811 
L 174.69632 129.191811 
L 174.69632 14.105197 
L 43.83982 14.105197 
z
" style="fill: #ffffff"/>
   </g>
   <g id="line2d_1">
    <path d="M 43.83982 79.154153 
L 174.69632 79.154153 
" clip-path="url(#pef6705ab38)" style="fill: none; stroke-dasharray: 2.59,1.12; stroke-dashoffset: 0; stroke: #808080; stroke-opacity: 0.5; stroke-width: 0.7"/>
   </g>
   <g id="matplotlib.axis_1">
    <g id="xtick_1">
     <g id="line2d_2">
      <defs>
       <path id="m747e36c166" d="M 0 0 
L 0 3 
" style="stroke: #000000; stroke-width: 0.6"/>
      </defs>
      <g>
       <use xlink:href="#m747e36c166" x="43.83982" y="129.191811" style="stroke: #000000; stroke-width: 0.6"/>
      </g>
     </g>
     <g id="text_1">
      <text style="font-size: 6.5px; font-family: 'Arial', 'Helvetica', 'DejaVu Sans', sans-serif; text-anchor: middle" x="43.83982" y="140.344389" transform="rotate(-0 43.83982 140.344389)">0.0</text>
     </g>
    </g>
    <g id="xtick_2">
     <g id="line2d_3">
      <g>
       <use xlink:href="#m747e36c166" x="66.094327" y="129.191811" style="stroke: #000000; stroke-width: 0.6"/>
      </g>
     </g>
     <g id="text_2">
      <text style="font-size: 6.5px; font-family: 'Arial', 'Helvetica', 'DejaVu Sans', sans-serif; text-anchor: middle" x="66.094327" y="140.344389" transform="rotate(-0 66.094327 140.344389)">2.5</text>
     </g>
    </g>
    <g id="xtick_3">
     <g id="line2d_4">
      <g>
       <use xlink:href="#m747e36c166" x="88.348834" y="129.191811" style="stroke: #000000; stroke-width: 0.6"/>
      </g>
     </g>
     <g id="text_3">
      <text style="font-size: 6.5px; font-family: 'Arial', 'Helvetica', 'DejaVu Sans', sans-serif; text-anchor: middle" x="88.348834" y="140.344389" transform="rotate(-0 88.348834 140.344389)">5.0</text>
     </g>
    </g>
    <g id="xtick_4">
     <g id="line2d_5">
      <g>
       <use xlink:href="#m747e36c166" x="110.60334" y="129.191811" style="stroke: #000000; stroke-width: 0.6"/>
      </g>
     </g>
     <g id="text_4">
      <text style="font-size: 6.5px; font-family: 'Arial', 'Helvetica', 'DejaVu Sans', sans-serif; text-anchor: middle" x="110.60334" y="140.344389" transform="rotate(-0 110.60334 140.344389)">7.5</text>
     </g>
    </g>
    <g id="xtick_5">
     <g id="line2d_6">
      <g>
       <use xlink:href="#m747e36c166" x="132.857847" y="129.191811" style="stroke: #000000; stroke-width: 0.6"/>
      </g>
     </g>
     <g id="text_5">
      <text style="font-size: 6.5px; font-family: 'Arial', 'Helvetica', 'DejaVu Sans', sans-serif; text-anchor: middle" x="132.857847" y="140.344389" transform="rotate(-0 132.857847 140.344389)">10.0</text>
     </g>
    </g>
    <g id="xtick_6">
     <g id="line2d_7">
      <g>
       <use xlink:href="#m747e36c166" x="155.112354" y="129.191811" style="stroke: #000000; stroke-width: 0.6"/>
      </g>
     </g>
     <g id="text_6">
      <text style="font-size: 6.5px; font-family: 'Arial', 'Helvetica', 'DejaVu Sans', sans-serif; text-anchor: middle" x="155.112354" y="140.344389" transform="rotate(-0 155.112354 140.344389)">12.5</text>
     </g>
    </g>
    <g id="text_7">
     <text style="font-size: 7.5px; font-family: 'Arial', 'Helvetica', 'DejaVu Sans', sans-serif; text-anchor: middle" x="109.26807" y="151.09603" transform="rotate(-0 109.26807 151.09603)">Time since birth (min)</text>
    </g>
   </g>
   <g id="matplotlib.axis_2">
    <g id="ytick_1">
     <g id="line2d_8">
      <defs>
       <path id="meea859e738" d="M 0 0 
L -3 0 
" style="stroke: #000000; stroke-width: 0.6"/>
      </defs>
      <g>
       <use xlink:href="#meea859e738" x="43.83982" y="129.191811" style="stroke: #000000; stroke-width: 0.6"/>
      </g>
     </g>
     <g id="text_8">
      <text style="font-size: 6.5px; font-family: 'Arial', 'Helvetica', 'DejaVu Sans', sans-serif; text-anchor: end" x="37.33982" y="131.5181" transform="rotate(-0 37.33982 131.5181)">0.0</text>
     </g>
    </g>
    <g id="ytick_2">
     <g id="line2d_9">
      <g>
       <use xlink:href="#meea859e738" x="43.83982" y="109.176748" style="stroke: #000000; stroke-width: 0.6"/>
      </g>
     </g>
     <g id="text_9">
      <text style="font-size: 6.5px; font-family: 'Arial', 'Helvetica', 'DejaVu Sans', sans-serif; text-anchor: end" x="37.33982" y="111.503037" transform="rotate(-0 37.33982 111.503037)">0.2</text>
     </g>
    </g>
    <g id="ytick_3">
     <g id="line2d_10">
      <g>
       <use xlink:href="#meea859e738" x="43.83982" y="89.161684" style="stroke: #000000; stroke-width: 0.6"/>
      </g>
     </g>
     <g id="text_10">
      <text style="font-size: 6.5px; font-family: 'Arial', 'Helvetica', 'DejaVu Sans', sans-serif; text-anchor: end" x="37.33982" y="91.487973" transform="rotate(-0 37.33982 91.487973)">0.4</text>
     </g>
    </g>
    <g id="ytick_4">
     <g id="line2d_11">
      <g>
       <use xlink:href="#meea859e738" x="43.83982" y="69.146621" style="stroke: #000000; stroke-width: 0.6"/>
      </g>
     </g>
     <g id="text_11">
      <text style="font-size: 6.5px; font-family: 'Arial', 'Helvetica', 'DejaVu Sans', sans-serif; text-anchor: end" x="37.33982" y="71.47291" transform="rotate(-0 37.33982 71.47291)">0.6</text>
     </g>
    </g>
    <g id="ytick_5">
     <g id="line2d_12">
      <g>
       <use xlink:href="#meea859e738" x="43.83982" y="49.131558" style="stroke: #000000; stroke-width: 0.6"/>
      </g>
     </g>
     <g id="text_12">
      <text style="font-size: 6.5px; font-family: 'Arial', 'Helvetica', 'DejaVu Sans', sans-serif; text-anchor: end" x="37.33982" y="51.457847" transform="rotate(-0 37.33982 51.457847)">0.8</text>
     </g>
    </g>
    <g id="ytick_6">
     <g id="line2d_13">
      <g>
       <use xlink:href="#meea859e738" x="43.83982" y="29.116494" style="stroke: #000000; stroke-width: 0.6"/>
      </g>
     </g>
     <g id="text_13">
      <text style="font-size: 6.5px; font-family: 'Arial', 'Helvetica', 'DejaVu Sans', sans-serif; text-anchor: end" x="37.33982" y="31.442783" transform="rotate(-0 37.33982 31.442783)">1.0</text>
     </g>
    </g>
    <g id="text_14">
     <text style="font-size: 7.5px; font-family: 'Arial', 'Helvetica', 'DejaVu Sans', sans-serif; text-anchor: middle" x="22.726304" y="71.648504" transform="rotate(-90 22.726304 71.648504)">Fraction surviving</text>
    </g>
   </g>
   <g id="FillBetweenPolyCollection_1">
    <defs>
     <path id="md572927ef8" d="M 43.83982 -130.758051 
L 43.83982 -130.758051 
L 48.290721 -130.758051 
L 48.290721 -86.921765 
L 52.741623 -86.921765 
L 52.741623 -74.367699 
L 57.192524 -74.367699 
L 57.192524 -62.499727 
L 61.643425 -62.499727 
L 61.643425 -53.807759 
L 66.094327 -53.807759 
L 66.094327 -46.867577 
L 70.545228 -46.867577 
L 70.545228 -43.40096 
L 74.99613 -43.40096 
L 74.99613 -40.532734 
L 79.447031 -40.532734 
L 79.447031 -37.619838 
L 83.897932 -37.619838 
L 83.897932 -36.188865 
L 88.348834 -36.188865 
L 88.348834 -34.869217 
L 92.799735 -34.869217 
L 92.799735 -33.919816 
L 97.250636 -33.919816 
L 97.250636 -33.410697 
L 101.701538 -33.410697 
L 101.701538 -32.90955 
L 106.152439 -32.90955 
L 106.152439 -32.177999 
L 110.60334 -32.177999 
L 110.60334 -31.558839 
L 115.054242 -31.558839 
L 115.054242 -31.197476 
L 123.956045 -31.197476 
L 123.956045 -31.062091 
L 128.406946 -31.062091 
L 128.406946 -30.934737 
L 132.857847 -30.934737 
L 132.857847 -30.768566 
L 137.308749 -30.768566 
L 137.308749 -30.724974 
L 141.75965 -30.724974 
L 141.75965 -30.682734 
L 141.75965 -30.682734 
L 141.75965 -30.682734 
L 141.75965 -31.371796 
L 137.308749 -31.371796 
L 137.308749 -31.516901 
L 132.857847 -31.516901 
L 132.857847 -31.933387 
L 128.406946 -31.933387 
L 128.406946 -32.19831 
L 123.956045 -32.19831 
L 123.956045 -32.456314 
L 115.054242 -32.456314 
L 115.054242 -33.080796 
L 110.60334 -33.080796 
L 110.60334 -34.042257 
L 106.152439 -34.042257 
L 106.152439 -35.091149 
L 101.701538 -35.091149 
L 101.701538 -35.777718 
L 97.250636 -35.777718 
L 97.250636 -36.45673 
L 92.799735 -36.45673 
L 92.799735 -37.686355 
L 88.348834 -37.686355 
L 88.348834 -39.339265 
L 83.897932 -39.339265 
L 83.897932 -41.080039 
L 79.447031 -41.080039 
L 79.447031 -44.512704 
L 74.99613 -44.512704 
L 74.99613 -47.793486 
L 70.545228 -47.793486 
L 70.545228 -51.667507 
L 66.094327 -51.667507 
L 66.094327 -59.213345 
L 61.643425 -59.213345 
L 61.643425 -68.384512 
L 57.192524 -68.384512 
L 57.192524 -80.53647 
L 52.741623 -80.53647 
L 52.741623 -92.998012 
L 48.290721 -92.998012 
L 48.290721 -130.758051 
L 43.83982 -130.758051 
z
"/>
    </defs>
    <g clip-path="url(#pef6705ab38)">
     <use xlink:href="#md572927ef8" x="0" y="159.874545" style="fill: #1b3a8a; fill-opacity: 0.15"/>
    </g>
   </g>
   <g id="FillBetweenPolyCollection_2">
    <defs>
     <path id="m0351c2cac2" d="M 43.83982 -130.758051 
L 43.83982 -130.758051 
L 48.290721 -130.758051 
L 48.290721 -95.166008 
L 52.741623 -95.166008 
L 52.741623 -80.837012 
L 57.192524 -80.837012 
L 57.192524 -70.784679 
L 61.643425 -70.784679 
L 61.643425 -64.035685 
L 66.094327 -64.035685 
L 66.094327 -57.623716 
L 70.545228 -57.623716 
L 70.545228 -52.064442 
L 74.99613 -52.064442 
L 74.99613 -48.357975 
L 79.447031 -48.357975 
L 79.447031 -45.700042 
L 83.897932 -45.700042 
L 83.897932 -42.819559 
L 88.348834 -42.819559 
L 88.348834 -40.715773 
L 92.799735 -40.715773 
L 92.799735 -39.003425 
L 97.250636 -39.003425 
L 97.250636 -37.914406 
L 101.701538 -37.914406 
L 101.701538 -36.955702 
L 106.152439 -36.955702 
L 106.152439 -36.007447 
L 110.60334 -36.007447 
L 110.60334 -35.071917 
L 115.054242 -35.071917 
L 115.054242 -34.03888 
L 119.505143 -34.03888 
L 119.505143 -33.476455 
L 123.956045 -33.476455 
L 123.956045 -32.600088 
L 128.406946 -32.600088 
L 128.406946 -32.493137 
L 132.857847 -32.493137 
L 132.857847 -32.281393 
L 137.308749 -32.281393 
L 137.308749 -31.767479 
L 141.75965 -31.767479 
L 141.75965 -31.473387 
L 146.210551 -31.473387 
L 146.210551 -31.195271 
L 150.661453 -31.195271 
L 150.661453 -31.107469 
L 155.112354 -31.107469 
L 155.112354 -30.866906 
L 159.563255 -30.866906 
L 159.563255 -30.682734 
L 159.563255 -30.682734 
L 159.563255 -30.682734 
L 159.563255 -31.998228 
L 155.112354 -31.998228 
L 155.112354 -32.54995 
L 150.661453 -32.54995 
L 150.661453 -32.727642 
L 146.210551 -32.727642 
L 146.210551 -33.247865 
L 141.75965 -33.247865 
L 141.75965 -33.75377 
L 137.308749 -33.75377 
L 137.308749 -34.575193 
L 132.857847 -34.575193 
L 132.857847 -34.898044 
L 128.406946 -34.898044 
L 128.406946 -35.058466 
L 123.956045 -35.058466 
L 123.956045 -36.322432 
L 119.505143 -36.322432 
L 119.505143 -37.098609 
L 115.054242 -37.098609 
L 115.054242 -38.476223 
L 110.60334 -38.476223 
L 110.60334 -39.684413 
L 106.152439 -39.684413 
L 106.152439 -40.880521 
L 101.701538 -40.880521 
L 101.701538 -42.066687 
L 97.250636 -42.066687 
L 97.250636 -43.391136 
L 92.799735 -43.391136 
L 92.799735 -45.433892 
L 88.348834 -45.433892 
L 88.348834 -47.890922 
L 83.897932 -47.890922 
L 83.897932 -51.182331 
L 79.447031 -51.182331 
L 79.447031 -54.160658 
L 74.99613 -54.160658 
L 74.99613 -58.238858 
L 70.545228 -58.238858 
L 70.545228 -64.224394 
L 66.094327 -64.224394 
L 66.094327 -70.970313 
L 61.643425 -70.970313 
L 61.643425 -77.918085 
L 57.192524 -77.918085 
L 57.192524 -88.01055 
L 52.741623 -88.01055 
L 52.741623 -101.887856 
L 48.290721 -101.887856 
L 48.290721 -130.758051 
L 43.83982 -130.758051 
z
"/>
    </defs>
    <g clip-path="url(#pef6705ab38)">
     <use xlink:href="#m0351c2cac2" x="0" y="159.874545" style="fill: #6b3fa0; fill-opacity: 0.15"/>
    </g>
   </g>
   <g id="FillBetweenPolyCollection_3">
    <defs>
     <path id="mb977f9e492" d="M 43.83982 -130.758051 
L 43.83982 -130.758051 
L 48.290721 -130.758051 
L 48.290721 -91.52059 
L 52.741623 -91.52059 
L 52.741623 -72.547599 
L 57.192524 -72.547599 
L 57.192524 -62.1934 
L 61.643425 -62.1934 
L 61.643425 -54.124113 
L 66.094327 -54.124113 
L 66.094327 -49.300184 
L 70.545228 -49.300184 
L 70.545228 -46.206731 
L 74.99613 -46.206731 
L 74.99613 -43.401415 
L 79.447031 -43.401415 
L 79.447031 -42.011802 
L 83.897932 -42.011802 
L 83.897932 -40.882425 
L 88.348834 -40.882425 
L 88.348834 -39.14143 
L 92.799735 -39.14143 
L 92.799735 -37.545663 
L 97.250636 -37.545663 
L 97.250636 -37.302281 
L 101.701538 -37.302281 
L 101.701538 -36.215339 
L 106.152439 -36.215339 
L 106.152439 -35.618143 
L 110.60334 -35.618143 
L 110.60334 -35.262474 
L 115.054242 -35.262474 
L 115.054242 -34.44157 
L 119.505143 -34.44157 
L 119.505143 -33.749995 
L 123.956045 -33.749995 
L 123.956045 -33.522465 
L 128.406946 -33.522465 
L 128.406946 -33.184469 
L 132.857847 -33.184469 
L 132.857847 -32.740984 
L 137.308749 -32.740984 
L 137.308749 -32.414874 
L 141.75965 -32.414874 
L 141.75965 -32.095694 
L 146.210551 -32.095694 
L 146.210551 -31.684141 
L 150.661453 -31.684141 
L 150.661453 -31.486311 
L 155.112354 -31.486311 
L 155.112354 -31.295618 
L 159.563255 -31.295618 
L 159.563255 -30.800132 
L 164.014157 -30.800132 
L 164.014157 -30.682734 
L 164.014157 -30.682734 
L 164.014157 -30.682734 
L 164.014157 -31.82414 
L 159.563255 -31.82414 
L 159.563255 -32.938998 
L 155.112354 -32.938998 
L 155.112354 -33.28949 
L 150.661453 -33.28949 
L 150.661453 -33.633574 
L 146.210551 -33.633574 
L 146.210551 -34.307248 
L 141.75965 -34.307248 
L 141.75965 -34.802807 
L 137.308749 -34.802807 
L 137.308749 -35.291929 
L 132.857847 -35.291929 
L 132.857847 -35.935991 
L 128.406946 -35.935991 
L 128.406946 -36.413994 
L 123.956045 -36.413994 
L 123.956045 -36.730595 
L 119.505143 -36.730595 
L 119.505143 -37.671935 
L 115.054242 -37.671935 
L 115.054242 -38.75688 
L 110.60334 -38.75688 
L 110.60334 -39.218209 
L 106.152439 -39.218209 
L 106.152439 -39.982903 
L 101.701538 -39.982903 
L 101.701538 -41.347964 
L 97.250636 -41.347964 
L 97.250636 -41.64956 
L 92.799735 -41.64956 
L 92.799735 -43.596806 
L 88.348834 -43.596806 
L 88.348834 -45.672378 
L 83.897932 -45.672378 
L 83.897932 -46.996948 
L 79.447031 -46.996948 
L 79.447031 -48.606988 
L 74.99613 -48.606988 
L 74.99613 -51.802012 
L 70.545228 -51.802012 
L 70.545228 -55.255623 
L 66.094327 -55.255623 
L 66.094327 -60.52697 
L 61.643425 -60.52697 
L 61.643425 -69.104784 
L 57.192524 -69.104784 
L 57.192524 -79.768388 
L 52.741623 -79.768388 
L 52.741623 -98.471104 
L 48.290721 -98.471104 
L 48.290721 -130.758051 
L 43.83982 -130.758051 
z
"/>
    </defs>
    <g clip-path="url(#pef6705ab38)">
     <use xlink:href="#mb977f9e492" x="0" y="159.874545" style="fill: #d4572a; fill-opacity: 0.15"/>
    </g>
   </g>
   <g id="FillBetweenPolyCollection_4">
    <defs>
     <path id="m1b8c761cea" d="M 43.83982 -130.758051 
L 43.83982 -130.758051 
L 48.290721 -130.758051 
L 48.290721 -92.023053 
L 52.741623 -92.023053 
L 52.741623 -74.076835 
L 57.192524 -74.076835 
L 57.192524 -65.221068 
L 61.643425 -65.221068 
L 61.643425 -59.853479 
L 66.094327 -59.853479 
L 66.094327 -54.775267 
L 70.545228 -54.775267 
L 70.545228 -49.987509 
L 74.99613 -49.987509 
L 74.99613 -46.343879 
L 79.447031 -46.343879 
L 79.447031 -44.860444 
L 83.897932 -44.860444 
L 83.897932 -42.761317 
L 88.348834 -42.761317 
L 88.348834 -40.895543 
L 92.799735 -40.895543 
L 92.799735 -38.652227 
L 97.250636 -38.652227 
L 97.250636 -37.848759 
L 101.701538 -37.848759 
L 101.701538 -36.071359 
L 106.152439 -36.071359 
L 106.152439 -35.876928 
L 110.60334 -35.876928 
L 110.60334 -35.297984 
L 115.054242 -35.297984 
L 115.054242 -33.97742 
L 119.505143 -33.97742 
L 119.505143 -33.792972 
L 123.956045 -33.792972 
L 123.956045 -33.427921 
L 128.406946 -33.427921 
L 128.406946 -33.247504 
L 132.857847 -33.247504 
L 132.857847 -32.716085 
L 137.308749 -32.716085 
L 137.308749 -32.03678 
L 146.210551 -32.03678 
L 146.210551 -31.873819 
L 150.661453 -31.873819 
L 150.661453 -31.714351 
L 155.112354 -31.714351 
L 155.112354 -31.558917 
L 159.563255 -31.558917 
L 159.563255 -31.2632 
L 164.014157 -31.2632 
L 164.014157 -30.996005 
L 168.465058 -30.996005 
L 168.465058 -30.682734 
L 168.465058 -30.682734 
L 168.465058 -30.682734 
L 168.465058 -32.917917 
L 164.014157 -32.917917 
L 164.014157 -33.552947 
L 159.563255 -33.552947 
L 159.563255 -34.164776 
L 155.112354 -34.164776 
L 155.112354 -34.464176 
L 150.661453 -34.464176 
L 150.661453 -34.76003 
L 146.210551 -34.76003 
L 146.210551 -35.05278 
L 137.308749 -35.05278 
L 137.308749 -36.199057 
L 132.857847 -36.199057 
L 132.857847 -37.038782 
L 128.406946 -37.038782 
L 128.406946 -37.31568 
L 123.956045 -37.31568 
L 123.956045 -37.865587 
L 119.505143 -37.865587 
L 119.505143 -38.138763 
L 115.054242 -38.138763 
L 115.054242 -40.023684 
L 110.60334 -40.023684 
L 110.60334 -40.819407 
L 106.152439 -40.819407 
L 106.152439 -41.083293 
L 101.701538 -41.083293 
L 101.701538 -43.432483 
L 97.250636 -43.432483 
L 97.250636 -44.463874 
L 92.799735 -44.463874 
L 92.799735 -47.268354 
L 88.348834 -47.268354 
L 88.348834 -49.534249 
L 83.897932 -49.534249 
L 83.897932 -52.027203 
L 79.447031 -52.027203 
L 79.447031 -53.758913 
L 74.99613 -53.758913 
L 74.99613 -57.925389 
L 70.545228 -57.925389 
L 70.545228 -63.247924 
L 66.094327 -63.247924 
L 66.094327 -68.74236 
L 61.643425 -68.74236 
L 61.643425 -74.409421 
L 57.192524 -74.409421 
L 57.192524 -83.488785 
L 52.741623 -83.488785 
L 52.741623 -100.962546 
L 48.290721 -100.962546 
L 48.290721 -130.758051 
L 43.83982 -130.758051 
z
"/>
    </defs>
    <g clip-path="url(#pef6705ab38)">
     <use xlink:href="#m1b8c761cea" x="0" y="159.874545" style="fill: #c8a020; fill-opacity: 0.15"/>
    </g>
   </g>
   <g id="patch_3">
    <path d="M 43.83982 129.191811 
L 43.83982 14.105197 
" style="fill: none; stroke: #000000; stroke-width: 0.6; stroke-linejoin: miter; stroke-linecap: square"/>
   </g>
   <g id="patch_4">
    <path d="M 43.83982 129.191811 
L 174.69632 129.191811 
" style="fill: none; stroke: #000000; stroke-width: 0.6; stroke-linejoin: miter; stroke-linecap: square"/>
   </g>
   <g id="line2d_14">
    <path d="M 43.83982 29.116494 
L 48.290721 29.116494 
L 48.290721 69.843663 
L 52.741623 69.843663 
L 52.741623 82.390419 
L 57.192524 82.390419 
L 57.192524 94.439288 
L 61.643425 94.439288 
L 61.643425 103.401257 
L 66.094327 103.401257 
L 66.094327 110.670409 
L 70.545228 110.670409 
L 70.545228 114.354774 
L 74.99613 114.354774 
L 74.99613 117.441674 
L 79.447031 117.441674 
L 79.447031 120.628152 
L 83.897932 120.628152 
L 83.897932 122.221391 
L 88.348834 122.221391 
L 88.348834 123.715052 
L 92.799735 123.715052 
L 92.799735 124.810404 
L 97.250636 124.810404 
L 97.250636 125.407869 
L 101.701538 125.407869 
L 101.701538 126.005333 
L 106.152439 126.005333 
L 106.152439 126.90153 
L 110.60334 126.90153 
L 110.60334 127.69815 
L 115.054242 127.69815 
L 115.054242 128.196037 
L 123.956045 128.196037 
L 123.956045 128.395192 
L 128.406946 128.395192 
L 128.406946 128.594346 
L 132.857847 128.594346 
L 132.857847 128.893079 
L 137.308749 128.893079 
L 137.308749 128.992656 
L 141.75965 128.992656 
L 141.75965 129.191811 
" clip-path="url(#pef6705ab38)" style="fill: none; stroke: #1b3a8a; stroke-width: 1.4; stroke-linecap: square"/>
   </g>
   <g id="line2d_15">
    <path d="M 43.83982 29.116494 
L 48.290721 29.116494 
L 48.290721 61.216124 
L 52.741623 61.216124 
L 52.741623 75.377726 
L 57.192524 75.377726 
L 57.192524 85.493155 
L 61.643425 85.493155 
L 61.643425 92.371647 
L 66.094327 92.371647 
L 66.094327 98.980395 
L 70.545228 98.980395 
L 70.545228 104.779908 
L 74.99613 104.779908 
L 74.99613 108.691207 
L 79.447031 108.691207 
L 79.447031 111.523527 
L 83.897932 111.523527 
L 83.897932 114.625592 
L 88.348834 114.625592 
L 88.348834 116.918423 
L 92.799735 116.918423 
L 92.799735 118.806637 
L 97.250636 118.806637 
L 97.250636 120.020488 
L 101.701538 120.020488 
L 101.701538 121.099467 
L 106.152439 121.099467 
L 106.152439 122.178447 
L 110.60334 122.178447 
L 110.60334 123.257426 
L 115.054242 123.257426 
L 115.054242 124.471277 
L 119.505143 124.471277 
L 119.505143 125.145639 
L 123.956045 125.145639 
L 123.956045 126.224618 
L 128.406946 126.224618 
L 128.406946 126.359491 
L 132.857847 126.359491 
L 132.857847 126.629236 
L 137.308749 126.629236 
L 137.308749 127.303598 
L 141.75965 127.303598 
L 141.75965 127.708215 
L 146.210551 127.708215 
L 146.210551 128.112832 
L 150.661453 128.112832 
L 150.661453 128.247704 
L 155.112354 128.247704 
L 155.112354 128.652321 
L 159.563255 128.652321 
L 159.563255 129.191811 
" clip-path="url(#pef6705ab38)" style="fill: none; stroke: #6b3fa0; stroke-width: 1.4; stroke-linecap: square"/>
   </g>
   <g id="line2d_16">
    <path d="M 43.83982 29.116494 
L 48.290721 29.116494 
L 48.290721 64.759758 
L 52.741623 64.759758 
L 52.741623 83.678105 
L 57.192524 83.678105 
L 57.192524 94.233995 
L 61.643425 94.233995 
L 61.643425 102.596453 
L 66.094327 102.596453 
L 66.094327 107.668763 
L 70.545228 107.668763 
L 70.545228 110.958911 
L 74.99613 110.958911 
L 74.99613 113.974879 
L 79.447031 113.974879 
L 79.447031 115.482864 
L 83.897932 115.482864 
L 83.897932 116.716669 
L 88.348834 116.716669 
L 88.348834 118.635921 
L 92.799735 118.635921 
L 92.799735 120.418085 
L 97.250636 120.418085 
L 97.250636 120.692264 
L 101.701538 120.692264 
L 101.701538 121.926069 
L 106.152439 121.926069 
L 106.152439 122.611516 
L 110.60334 122.611516 
L 110.60334 123.022785 
L 115.054242 123.022785 
L 115.054242 123.982411 
L 119.505143 123.982411 
L 119.505143 124.804948 
L 123.956045 124.804948 
L 123.956045 125.079127 
L 128.406946 125.079127 
L 128.406946 125.490395 
L 132.857847 125.490395 
L 132.857847 126.038753 
L 137.308749 126.038753 
L 137.308749 126.450022 
L 141.75965 126.450022 
L 141.75965 126.86129 
L 146.210551 126.86129 
L 146.210551 127.409648 
L 150.661453 127.409648 
L 150.661453 127.683827 
L 155.112354 127.683827 
L 155.112354 127.958006 
L 159.563255 127.958006 
L 159.563255 128.780543 
L 164.014157 128.780543 
L 164.014157 129.191811 
" clip-path="url(#pef6705ab38)" style="fill: none; stroke: #d4572a; stroke-width: 1.4; stroke-linecap: square"/>
   </g>
   <g id="line2d_17">
    <path d="M 43.83982 29.116494 
L 48.290721 29.116494 
L 48.290721 63.169901 
L 52.741623 63.169901 
L 52.741623 81.007399 
L 57.192524 81.007399 
L 57.192524 90.041976 
L 61.643425 90.041976 
L 61.643425 95.601716 
L 66.094327 95.601716 
L 66.094327 100.9298 
L 70.545228 100.9298 
L 70.545228 106.026228 
L 74.99613 106.026228 
L 74.99613 109.964377 
L 79.447031 109.964377 
L 79.447031 111.585968 
L 83.897932 111.585968 
L 83.897932 113.902527 
L 88.348834 113.902527 
L 88.348834 115.987429 
L 92.799735 115.987429 
L 92.799735 118.535643 
L 97.250636 118.535643 
L 97.250636 119.462266 
L 101.701538 119.462266 
L 101.701538 121.547169 
L 106.152439 121.547169 
L 106.152439 121.778825 
L 110.60334 121.778825 
L 110.60334 122.473792 
L 115.054242 122.473792 
L 115.054242 124.095383 
L 119.505143 124.095383 
L 119.505143 124.327039 
L 123.956045 124.327039 
L 123.956045 124.79035 
L 128.406946 124.79035 
L 128.406946 125.022006 
L 132.857847 125.022006 
L 132.857847 125.716974 
L 137.308749 125.716974 
L 137.308749 126.643597 
L 146.210551 126.643597 
L 146.210551 126.875253 
L 150.661453 126.875253 
L 150.661453 127.106909 
L 155.112354 127.106909 
L 155.112354 127.338564 
L 159.563255 127.338564 
L 159.563255 127.801876 
L 164.014157 127.801876 
L 164.014157 128.265188 
L 168.465058 128.265188 
L 168.465058 129.191811 
" clip-path="url(#pef6705ab38)" style="fill: none; stroke: #c8a020; stroke-width: 1.4; stroke-linecap: square"/>
   </g>
   <g id="text_15">
    <text style="font-weight: 700; font-size: 10px; font-family: 'Arial', 'Helvetica', 'DejaVu Sans', sans-serif; text-anchor: start" x="7.2" y="14.357813" transform="rotate(-0 7.2 14.357813)">A</text>
   </g>
   <g id="legend_1">
    <g id="text_16">
     <text style="font-size: 5px; font-family: 'Arial', 'Helvetica', 'DejaVu Sans', sans-serif; text-anchor: start" x="122.960383" y="22.184103" transform="rotate(-0 122.960383 22.184103)">Distance from source</text>
    </g>
    <g id="line2d_18">
     <path d="M 131.853742 27.506759 
L 134.853742 27.506759 
L 134.853742 27.506759 
L 137.853742 27.506759 
L 137.853742 27.506759 
" style="fill: none; stroke: #1b3a8a; stroke-width: 1.4; stroke-linecap: square"/>
    </g>
    <g id="text_17">
     <text style="font-size: 5px; font-family: 'Arial', 'Helvetica', 'DejaVu Sans', sans-serif; text-anchor: start" x="141.853742" y="29.256759" transform="rotate(-0 141.853742 29.256759)">0.5 mm</text>
    </g>
    <g id="line2d_19">
     <path d="M 131.853742 34.579416 
L 134.853742 34.579416 
L 134.853742 34.579416 
L 137.853742 34.579416 
L 137.853742 34.579416 
" style="fill: none; stroke: #6b3fa0; stroke-width: 1.4; stroke-linecap: square"/>
    </g>
    <g id="text_18">
     <text style="font-size: 5px; font-family: 'Arial', 'Helvetica', 'DejaVu Sans', sans-serif; text-anchor: start" x="141.853742" y="36.329416" transform="rotate(-0 141.853742 36.329416)">1.1 mm</text>
    </g>
    <g id="line2d_20">
     <path d="M 131.853742 41.652072 
L 134.853742 41.652072 
L 134.853742 41.652072 
L 137.853742 41.652072 
L 137.853742 41.652072 
" style="fill: none; stroke: #d4572a; stroke-width: 1.4; stroke-linecap: square"/>
    </g>
    <g id="text_19">
     <text style="font-size: 5px; font-family: 'Arial', 'Helvetica', 'DejaVu Sans', sans-serif; text-anchor: start" x="141.853742" y="43.402072" transform="rotate(-0 141.853742 43.402072)">1.9 mm</text>
    </g>
    <g id="line2d_21">
     <path d="M 131.853742 48.724728 
L 134.853742 48.724728 
L 134.853742 48.724728 
L 137.853742 48.724728 
L 137.853742 48.724728 
" style="fill: none; stroke: #c8a020; stroke-width: 1.4; stroke-linecap: square"/>
    </g>
    <g id="text_20">
     <text style="font-size: 5px; font-family: 'Arial', 'Helvetica', 'DejaVu Sans', sans-serif; text-anchor: start" x="141.853742" y="50.474728" transform="rotate(-0 141.853742 50.474728)">2.75 mm</text>
    </g>
   </g>
  </g>
  <g id="axes_2">
   <g id="patch_5">
    <path d="M 233.581745 129.191811 
L 364.438245 129.191811 
L 364.438245 14.105197 
L 233.581745 14.105197 
z
" style="fill: #ffffff"/>
   </g>
   <g id="patch_6">
    <path d="M 239.529768 129.191811 
L 255.182459 129.191811 
L 255.182459 14.105197 
L 239.529768 14.105197 
z
" clip-path="url(#p927aa8373a)" style="fill: #e74c3c; opacity: 0.1"/>
   </g>
   <g id="patch_7">
    <path d="M 267.704612 129.191811 
L 273.965689 129.191811 
L 273.965689 14.105197 
L 267.704612 14.105197 
z
" clip-path="url(#p927aa8373a)" style="fill: #3498db; opacity: 0.1"/>
   </g>
   <g id="patch_8">
    <path d="M 299.009995 129.191811 
L 305.271072 129.191811 
L 305.271072 14.105197 
L 299.009995 14.105197 
z
" clip-path="url(#p927aa8373a)" style="fill: #27ae60; opacity: 0.1"/>
   </g>
   <g id="matplotlib.axis_3">
    <g id="xtick_7">
     <g id="line2d_22">
      <g>
       <use xlink:href="#m747e36c166" x="239.529768" y="129.191811" style="stroke: #000000; stroke-width: 0.6"/>
      </g>
     </g>
     <g id="text_21">
      <text style="font-size: 6.5px; font-family: 'Arial', 'Helvetica', 'DejaVu Sans', sans-serif; text-anchor: middle" x="239.529768" y="140.344389" transform="rotate(-0 239.529768 140.344389)">0</text>
     </g>
    </g>
    <g id="xtick_8">
     <g id="line2d_23">
      <g>
       <use xlink:href="#m747e36c166" x="270.835151" y="129.191811" style="stroke: #000000; stroke-width: 0.6"/>
      </g>
     </g>
     <g id="text_22">
      <text style="font-size: 6.5px; font-family: 'Arial', 'Helvetica', 'DejaVu Sans', sans-serif; text-anchor: middle" x="270.835151" y="140.344389" transform="rotate(-0 270.835151 140.344389)">1</text>
     </g>
    </g>
    <g id="xtick_9">
     <g id="line2d_24">
      <g>
       <use xlink:href="#m747e36c166" x="302.140533" y="129.191811" style="stroke: #000000; stroke-width: 0.6"/>
      </g>
     </g>
     <g id="text_23">
      <text style="font-size: 6.5px; font-family: 'Arial', 'Helvetica', 'DejaVu Sans', sans-serif; text-anchor: middle" x="302.140533" y="140.344389" transform="rotate(-0 302.140533 140.344389)">2</text>
     </g>
    </g>
    <g id="xtick_10">
     <g id="line2d_25">
      <g>
       <use xlink:href="#m747e36c166" x="333.445916" y="129.191811" style="stroke: #000000; stroke-width: 0.6"/>
      </g>
     </g>
     <g id="text_24">
      <text style="font-size: 6.5px; font-family: 'Arial', 'Helvetica', 'DejaVu Sans', sans-serif; text-anchor: middle" x="333.445916" y="140.344389" transform="rotate(-0 333.445916 140.344389)">3</text>
     </g>
    </g>
    <g id="text_25">
     <text style="font-size: 7.5px; font-family: 'Arial', 'Helvetica', 'DejaVu Sans', sans-serif; text-anchor: middle" x="299.009995" y="151.09603" transform="rotate(-0 299.009995 151.09603)">Distance from boundary (mm)</text>
    </g>
   </g>
   <g id="matplotlib.axis_4">
    <g id="ytick_7">
     <g id="line2d_26">
      <g>
       <use xlink:href="#meea859e738" x="233.581745" y="129.191811" style="stroke: #000000; stroke-width: 0.6"/>
      </g>
     </g>
     <g id="text_26">
      <text style="font-size: 6.5px; font-family: 'Arial', 'Helvetica', 'DejaVu Sans', sans-serif; text-anchor: end" x="227.081745" y="131.5181" transform="rotate(-0 227.081745 131.5181)">0</text>
     </g>
    </g>
    <g id="ytick_8">
     <g id="line2d_27">
      <g>
       <use xlink:href="#meea859e738" x="233.581745" y="108.404814" style="stroke: #000000; stroke-width: 0.6"/>
      </g>
     </g>
     <g id="text_27">
      <text style="font-size: 6.5px; font-family: 'Arial', 'Helvetica', 'DejaVu Sans', sans-serif; text-anchor: end" x="227.081745" y="110.731103" transform="rotate(-0 227.081745 110.731103)">2</text>
     </g>
    </g>
    <g id="ytick_9">
     <g id="line2d_28">
      <g>
       <use xlink:href="#meea859e738" x="233.581745" y="87.617816" style="stroke: #000000; stroke-width: 0.6"/>
      </g>
     </g>
     <g id="text_28">
      <text style="font-size: 6.5px; font-family: 'Arial', 'Helvetica', 'DejaVu Sans', sans-serif; text-anchor: end" x="227.081745" y="89.944105" transform="rotate(-0 227.081745 89.944105)">4</text>
     </g>
    </g>
    <g id="ytick_10">
     <g id="line2d_29">
      <g>
       <use xlink:href="#meea859e738" x="233.581745" y="66.830818" style="stroke: #000000; stroke-width: 0.6"/>
      </g>
     </g>
     <g id="text_29">
      <text style="font-size: 6.5px; font-family: 'Arial', 'Helvetica', 'DejaVu Sans', sans-serif; text-anchor: end" x="227.081745" y="69.157108" transform="rotate(-0 227.081745 69.157108)">6</text>
     </g>
    </g>
    <g id="ytick_11">
     <g id="line2d_30">
      <g>
       <use xlink:href="#meea859e738" x="233.581745" y="46.043821" style="stroke: #000000; stroke-width: 0.6"/>
      </g>
     </g>
     <g id="text_30">
      <text style="font-size: 6.5px; font-family: 'Arial', 'Helvetica', 'DejaVu Sans', sans-serif; text-anchor: end" x="227.081745" y="48.37011" transform="rotate(-0 227.081745 48.37011)">8</text>
     </g>
    </g>
    <g id="ytick_12">
     <g id="line2d_31">
      <g>
       <use xlink:href="#meea859e738" x="233.581745" y="25.256823" style="stroke: #000000; stroke-width: 0.6"/>
      </g>
     </g>
     <g id="text_31">
      <text style="font-size: 6.5px; font-family: 'Arial', 'Helvetica', 'DejaVu Sans', sans-serif; text-anchor: end" x="227.081745" y="27.583113" transform="rotate(-0 227.081745 27.583113)">10</text>
     </g>
    </g>
    <g id="text_32">
     <!-- $\tau_{50}$ (min) -->
     <g transform="translate(214.202526 86.948504) rotate(-90)">
      <text>
       <tspan x="0" y="-0.171875" style="font-style: oblique; font-size: 7.5px; font-family: 'DejaVu Sans'">τ</tspan>
       <tspan x="4.515381" y="1.140625" style="font-size: 5.25px; font-family: 'DejaVu Sans'">5</tspan>
       <tspan x="7.855591" y="1.140625" style="font-size: 5.25px; font-family: 'DejaVu Sans'">0</tspan>
       <tspan x="11.414551" y="-0.171875" style="font-size: 7.5px; font-family: 'Arial'"> </tspan>
       <tspan x="13.498291" y="-0.171875" style="font-size: 7.5px; font-family: 'Arial'">(</tspan>
       <tspan x="15.99585" y="-0.171875" style="font-size: 7.5px; font-family: 'Arial'">m</tspan>
       <tspan x="22.243408" y="-0.171875" style="font-size: 7.5px; font-family: 'Arial'">i</tspan>
       <tspan x="23.909668" y="-0.171875" style="font-size: 7.5px; font-family: 'Arial'">n</tspan>
       <tspan x="28.080811" y="-0.171875" style="font-size: 7.5px; font-family: 'Arial'">)</tspan>
      </text>
     </g>
    </g>
   </g>
   <g id="line2d_32">
    <path d="M 245.790844 56.899895 
L 258.312998 76.411292 
L 270.835151 41.477046 
L 283.357304 35.941191 
L 295.879457 17.072154 
L 308.40161 25.311153 
L 320.923763 53.135491 
L 333.445916 29.357921 
L 345.968069 36.992726 
L 358.490222 36.020214 
" clip-path="url(#p927aa8373a)" style="fill: none; stroke: #555555; stroke-width: 0.8; stroke-linecap: square"/>
   </g>
   <g id="patch_9">
    <path d="M 233.581745 129.191811 
L 233.581745 14.105197 
" style="fill: none; stroke: #000000; stroke-width: 0.6; stroke-linejoin: miter; stroke-linecap: square"/>
   </g>
   <g id="patch_10">
    <path d="M 233.581745 129.191811 
L 364.438245 129.191811 
" style="fill: none; stroke: #000000; stroke-width: 0.6; stroke-linejoin: miter; stroke-linecap: square"/>
   </g>
   <g id="PathCollection_1">
    <defs>
     <path id="C0_0_c3e8a8b735" d="M 0 1.870829 
C 0.49615 1.870829 0.972045 1.673706 1.322876 1.322876 
C 1.673706 0.972045 1.870829 0.49615 1.870829 -0 
C 1.870829 -0.49615 1.673706 -0.972045 1.322876 -1.322876 
C 0.972045 -1.673706 0.49615 -1.870829 0 -1.870829 
C -0.49615 -1.870829 -0.972045 -1.673706 -1.322876 -1.322876 
C -1.673706 -0.972045 -1.870829 -0.49615 -1.870829 0 
C -1.870829 0.49615 -1.673706 0.972045 -1.322876 1.322876 
C -0.972045 1.673706 -0.49615 1.870829 0 1.870829 
z
"/>
    </defs>
    <g clip-path="url(#p927aa8373a)">
     <use xlink:href="#C0_0_c3e8a8b735" x="245.790844" y="56.899895" style="fill: #555555"/>
    </g>
    <g clip-path="url(#p927aa8373a)">
     <use xlink:href="#C0_0_c3e8a8b735" x="258.312998" y="76.411292" style="fill: #555555"/>
    </g>
    <g clip-path="url(#p927aa8373a)">
     <use xlink:href="#C0_0_c3e8a8b735" x="270.835151" y="41.477046" style="fill: #555555"/>
    </g>
    <g clip-path="url(#p927aa8373a)">
     <use xlink:href="#C0_0_c3e8a8b735" x="283.357304" y="35.941191" style="fill: #555555"/>
    </g>
    <g clip-path="url(#p927aa8373a)">
     <use xlink:href="#C0_0_c3e8a8b735" x="295.879457" y="17.072154" style="fill: #555555"/>
    </g>
    <g clip-path="url(#p927aa8373a)">
     <use xlink:href="#C0_0_c3e8a8b735" x="308.40161" y="25.311153" style="fill: #555555"/>
    </g>
    <g clip-path="url(#p927aa8373a)">
     <use xlink:href="#C0_0_c3e8a8b735" x="320.923763" y="53.135491" style="fill: #555555"/>
    </g>
    <g clip-path="url(#p927aa8373a)">
     <use xlink:href="#C0_0_c3e8a8b735" x="333.445916" y="29.357921" style="fill: #555555"/>
    </g>
    <g clip-path="url(#p927aa8373a)">
     <use xlink:href="#C0_0_c3e8a8b735" x="345.968069" y="36.992726" style="fill: #555555"/>
    </g>
    <g clip-path="url(#p927aa8373a)">
     <use xlink:href="#C0_0_c3e8a8b735" x="358.490222" y="36.020214" style="fill: #555555"/>
    </g>
   </g>
   <g id="text_33">
    <text style="font-size: 5px; font-family: 'Arial', 'Helvetica', 'DejaVu Sans', sans-serif; text-anchor: middle; fill: #e74c3c" x="247.356114" y="13.111447" transform="rotate(-0 247.356114 13.111447)">near</text>
   </g>
   <g id="text_34">
    <text style="font-size: 5px; font-family: 'Arial', 'Helvetica', 'DejaVu Sans', sans-serif; text-anchor: middle; fill: #3498db" x="270.835151" y="13.111447" transform="rotate(-0 270.835151 13.111447)">mid</text>
   </g>
   <g id="text_35">
    <text style="font-size: 5px; font-family: 'Arial', 'Helvetica', 'DejaVu Sans', sans-serif; text-anchor: middle; fill: #27ae60" x="302.140533" y="13.111447" transform="rotate(-0 302.140533 13.111447)">far</text>
   </g>
   <g id="text_36">
    <text style="font-weight: 700; font-size: 10px; font-family: 'Arial', 'Helvetica', 'DejaVu Sans', sans-serif; text-anchor: start" x="196.941925" y="14.357813" transform="rotate(-0 196.941925 14.357813)">B</text>
   </g>
  </g>
 </g>
 <defs>
  <clipPath id="pef6705ab38">
   <rect x="43.83982" y="14.105197" width="130.8565" height="115.086614"/>
  </clipPath>
  <clipPath id="p927aa8373a">
   <rect x="233.581745" y="14.105197" width="130.8565" height="115.086614"/>
  </clipPath>
 </defs>
</svg>
