<?xml version="1.0" encoding="utf-8" standalone="no"?>
<!DOCTYPE svg PUBLIC "-//W3C//DTD SVG 1.1//EN"
  "http://www.w3.org/Graphics/SVG/1.1/DTD/svg11.dtd">
<svg xmlns:xlink="http://www.w3.org/1999/xlink" width="371.638245pt" height="159.874545pt" viewBox="0 0 371.638245 159.874545" xmlns="http://www.w3.org/2000/svg" version="1.1">
 <metadata>
  <rdf:RDF xmlns:dc="http://purl.org/dc/elements/1.1/" xmlns:cc="http://creativecommons.org/ns#" xmlns:rdf="http://www.w3.org/1999/02/22-rdf-syntax-ns#">
   <cc:Work>
    <dc:type rdf:resource="http://purl.org/dc/dcmitype/StillImage"/>
    <dc:date>2026-03-25T22:23:17.167433</dc:date>
    <dc:format>image/svg+xml</dc:format>
    <dc:creator>
     <cc:Agent>
      <dc:title>Matplotlib v3.10.8, https://matplotlib.org/</dc:title>
     </cc:Agent>
    </dc:creator>
   </cc:Work>
  </rdf:RDF>
 </metadata>
 <defs>
  <style type="text/css">*{stroke-linejoin: round; stroke-linecap: butt}</style>
 </defs>
 <g id="figure_1">
  <g id="patch_1">
   <path d="M 0 159.874545 
L 371.638245 159.874545 
L 371.638245 0 
L 0 0 
z
" style="fill: #ffffff"/>
  </g>
  <g id="axes_1">
   <g id="patch_2">
    <path d="M 43.83982 129.191811 
L 174.69632 129.191811 
L 174.69632 14.105197 
L 43.83982 14.105197 
z
" style="fill: #ffffff"/>
   </g>
   <g id="line2d_1">
    <path d="M 43.83982 79.154153 
L 174.69632 79.154153 
" clip-path="url(#p74d719c5a9)" style="fill: none; stroke-dasharray: 2.59,1.12; stroke-dashoffset: 0; stroke: #808080; stroke-opacity: 0.5; stroke-width: 0.7"/>
   </g>
   <g id="matplotlib.axis_1">
    <g id="xtick_1">
     <g id="line2d_2">
      <defs>
       <path id="m59015b65ab" d="M 0 0 
L 0 3 
" style="stroke: #000000; stroke-width: 0.6"/>
      </defs>
      <g>
       <use xlink:href="#m59015b65ab" x="43.83982" y="129.191811" style="stroke: #000000; stroke-width: 0.6"/>
      </g>
     </g>
     <g id="text_1">
      <text style="font-size: 6.5px; font-family: 'Arial', 'Helvetica', 'DejaVu Sans', sans-serif; text-anchor: middle" x="43.83982" y="140.344389" transform="rotate(-0 43.83982 140.344389)">0.0</text>
     </g>
    </g>
    <g id="xtick_2">
     <g id="line2d_3">
      <g>
       <use xlink:href="#m59015b65ab" x="69.803411" y="129.191811" style="stroke: #000000; stroke-width: 0.6"/>
      </g>
     </g>
     <g id="text_2">
      <text style="font-size: 6.5px; font-family: 'Arial', 'Helvetica', 'DejaVu Sans', sans-serif; text-anchor: middle" x="69.803411" y="140.344389" transform="rotate(-0 69.803411 140.344389)">2.5</text>
     </g>
    </g>
    <g id="xtick_3">
     <g id="line2d_4">
      <g>
       <use xlink:href="#m59015b65ab" x="95.767003" y="129.191811" style="stroke: #000000; stroke-width: 0.6"/>
      </g>
     </g>
     <g id="text_3">
      <text style="font-size: 6.5px; font-family: 'Arial', 'Helvetica', 'DejaVu Sans', sans-serif; text-anchor: middle" x="95.767003" y="140.344389" transform="rotate(-0 95.767003 140.344389)">5.0</text>
     </g>
    </g>
    <g id="xtick_4">
     <g id="line2d_5">
      <g>
       <use xlink:href="#m59015b65ab" x="121.730594" y="129.191811" style="stroke: #000000; stroke-width: 0.6"/>
      </g>
     </g>
     <g id="text_4">
      <text style="font-size: 6.5px; font-family: 'Arial', 'Helvetica', 'DejaVu Sans', sans-serif; text-anchor: middle" x="121.730594" y="140.344389" transform="rotate(-0 121.730594 140.344389)">7.5</text>
     </g>
    </g>
    <g id="xtick_5">
     <g id="line2d_6">
      <g>
       <use xlink:href="#m59015b65ab" x="147.694185" y="129.191811" style="stroke: #000000; stroke-width: 0.6"/>
      </g>
     </g>
     <g id="text_5">
      <text style="font-size: 6.5px; font-family: 'Arial', 'Helvetica', 'DejaVu Sans', sans-serif; text-anchor: middle" x="147.694185" y="140.344389" transform="rotate(-0 147.694185 140.344389)">10.0</text>
     </g>
    </g>
    <g id="xtick_6">
     <g id="line2d_7">
      <g>
       <use xlink:href="#m59015b65ab" x="173.657776" y="129.191811" style="stroke: #000000; stroke-width: 0.6"/>
      </g>
     </g>
     <g id="text_6">
      <text style="font-size: 6.5px; font-family: 'Arial', 'Helvetica', 'DejaVu Sans', sans-serif; text-anchor: middle" x="173.657776" y="140.344389" transform="rotate(-0 173.657776 140.344389)">12.5</text>
     </g>
    </g>
    <g id="text_7">
     <text style="font-size: 7.5px; font-family: 'Arial', 'Helvetica', 'DejaVu Sans', sans-serif; text-anchor: middle" x="109.26807" y="151.09603" transform="rotate(-0 109.26807 151.09603)">Time since birth (min)</text>
    </g>
   </g>
   <g id="matplotlib.axis_2">
    <g id="ytick_1">
     <g id="line2d_8">
      <defs>
       <path id="m59a39d351a" d="M 0 0 
L -3 0 
" style="stroke: #000000; stroke-width: 0.6"/>
      </defs>
      <g>
       <use xlink:href="#m59a39d351a" x="43.83982" y="129.191811" style="stroke: #000000; stroke-width: 0.6"/>
      </g>
     </g>
     <g id="text_8">
      <text style="font-size: 6.5px; font-family: 'Arial', 'Helvetica', 'DejaVu Sans', sans-serif; text-anchor: end" x="37.33982" y="131.5181" transform="rotate(-0 37.33982 131.5181)">0.0</text>
     </g>
    </g>
    <g id="ytick_2">
     <g id="line2d_9">
      <g>
       <use xlink:href="#m59a39d351a" x="43.83982" y="109.176748" style="stroke: #000000; stroke-width: 0.6"/>
      </g>
     </g>
     <g id="text_9">
      <text style="font-size: 6.5px; font-family: 'Arial', 'Helvetica', 'DejaVu Sans', sans-serif; text-anchor: end" x="37.33982" y="111.503037" transform="rotate(-0 37.33982 111.503037)">0.2</text>
     </g>
    </g>
    <g id="ytick_3">
     <g id="line2d_10">
      <g>
       <use xlink:href="#m59a39d351a" x="43.83982" y="89.161684" style="stroke: #000000; stroke-width: 0.6"/>
      </g>
     </g>
     <g id="text_10">
      <text style="font-size: 6.5px; font-family: 'Arial', 'Helvetica', 'DejaVu Sans', sans-serif; text-anchor: end" x="37.33982" y="91.487973" transform="rotate(-0 37.33982 91.487973)">0.4</text>
     </g>
    </g>
    <g id="ytick_4">
     <g id="line2d_11">
      <g>
       <use xlink:href="#m59a39d351a" x="43.83982" y="69.146621" style="stroke: #000000; stroke-width: 0.6"/>
      </g>
     </g>
     <g id="text_11">
      <text style="font-size: 6.5px; font-family: 'Arial', 'Helvetica', 'DejaVu Sans', sans-serif; text-anchor: end" x="37.33982" y="71.47291" transform="rotate(-0 37.33982 71.47291)">0.6</text>
     </g>
    </g>
    <g id="ytick_5">
     <g id="line2d_12">
      <g>
       <use xlink:href="#m59a39d351a" x="43.83982" y="49.131558" style="stroke: #000000; stroke-width: 0.6"/>
      </g>
     </g>
     <g id="text_12">
      <text style="font-size: 6.5px; font-family: 'Arial', 'Helvetica', 'DejaVu Sans', sans-serif; text-anchor: end" x="37.33982" y="51.457847" transform="rotate(-0 37.33982 51.457847)">0.8</text>
     </g>
    </g>
    <g id="ytick_6">
     <g id="line2d_13">
      <g>
       <use xlink:href="#m59a39d351a" x="43.83982" y="29.116494" style="stroke: #000000; stroke-width: 0.6"/>
      </g>
     </g>
     <g id="text_13">
      <text style="font-size: 6.5px; font-family: 'Arial', 'Helvetica', 'DejaVu Sans', sans-serif; text-anchor: end" x="37.33982" y="31.442783" transform="rotate(-0 37.33982 31.442783)">1.0</text>
     </g>
    </g>
    <g id="text_14">
     <text style="font-size: 7.5px; font-family: 'Arial', 'Helvetica', 'DejaVu Sans', sans-serif; text-anchor: middle" x="22.726304" y="71.648504" transform="rotate(-90 22.726304 71.648504)">Fraction surviving</text>
    </g>
   </g>
   <g id="FillBetweenPolyCollection_1">
    <defs>
     <path id="m03b9d7578d" d="M 43.83982 -130.758051 
L 43.83982 -130.758051 
L 49.032538 -130.758051 
L 49.032538 -43.266422 
L 54.225257 -43.266422 
L 54.225257 -35.871567 
L 59.417975 -35.871567 
L 59.417975 -31.465419 
L 69.803411 -31.465419 
L 69.803411 -30.853938 
L 80.188848 -30.853938 
L 80.188848 -30.682734 
L 80.188848 -30.682734 
L 80.188848 -30.682734 
L 80.188848 -40.450841 
L 69.803411 -40.450841 
L 69.803411 -43.507081 
L 59.417975 -43.507081 
L 59.417975 -54.591229 
L 54.225257 -54.591229 
L 54.225257 -66.873181 
L 49.032538 -66.873181 
L 49.032538 -130.758051 
L 43.83982 -130.758051 
z
"/>
    </defs>
    <g clip-path="url(#p74d719c5a9)">
     <use xlink:href="#m03b9d7578d" x="0" y="159.874545" style="fill: #1b3a8a; fill-opacity: 0.15"/>
    </g>
   </g>
   <g id="FillBetweenPolyCollection_2">
    <defs>
     <path id="m7d22ae8692" d="M 43.83982 -130.758051 
L 43.83982 -130.758051 
L 49.032538 -130.758051 
L 49.032538 -85.999726 
L 54.225257 -85.999726 
L 54.225257 -70.031752 
L 59.417975 -70.031752 
L 59.417975 -57.759334 
L 64.610693 -57.759334 
L 64.610693 -47.490981 
L 69.803411 -47.490981 
L 69.803411 -42.936094 
L 74.99613 -42.936094 
L 74.99613 -39.200341 
L 80.188848 -39.200341 
L 80.188848 -37.410182 
L 85.381566 -37.410182 
L 85.381566 -34.59077 
L 90.574284 -34.59077 
L 90.574284 -34.060009 
L 95.767003 -34.060009 
L 95.767003 -32.111451 
L 100.959721 -32.111451 
L 100.959721 -31.306174 
L 111.345157 -31.306174 
L 111.345157 -30.682734 
L 111.345157 -30.682734 
L 111.345157 -30.682734 
L 111.345157 -36.717009 
L 100.959721 -36.717009 
L 100.959721 -38.816011 
L 95.767003 -38.816011 
L 95.767003 -42.740509 
L 90.574284 -42.740509 
L 90.574284 -43.684001 
L 85.381566 -43.684001 
L 85.381566 -48.254494 
L 80.188848 -48.254494 
L 80.188848 -50.908332 
L 74.99613 -50.908332 
L 74.99613 -56.074725 
L 69.803411 -56.074725 
L 69.803411 -61.921872 
L 64.610693 -61.921872 
L 64.610693 -73.979382 
L 59.417975 -73.979382 
L 59.417975 -87.04505 
L 54.225257 -87.04505 
L 54.225257 -102.4068 
L 49.032538 -102.4068 
L 49.032538 -130.758051 
L 43.83982 -130.758051 
z
"/>
    </defs>
    <g clip-path="url(#p74d719c5a9)">
     <use xlink:href="#m7d22ae8692" x="0" y="159.874545" style="fill: #6b3fa0; fill-opacity: 0.15"/>
    </g>
   </g>
   <g id="FillBetweenPolyCollection_3">
    <defs>
     <path id="md2d6dfd068" d="M 43.83982 -130.758051 
L 43.83982 -130.758051 
L 49.032538 -130.758051 
L 49.032538 -90.473422 
L 54.225257 -90.473422 
L 54.225257 -75.722393 
L 59.417975 -75.722393 
L 59.417975 -64.993582 
L 64.610693 -64.993582 
L 64.610693 -55.730158 
L 69.803411 -55.730158 
L 69.803411 -50.563051 
L 74.99613 -50.563051 
L 74.99613 -46.142728 
L 80.188848 -46.142728 
L 80.188848 -42.36176 
L 85.381566 -42.36176 
L 85.381566 -39.117502 
L 90.574284 -39.117502 
L 90.574284 -37.520398 
L 95.767003 -37.520398 
L 95.767003 -34.583403 
L 100.959721 -34.583403 
L 100.959721 -33.781823 
L 106.152439 -33.781823 
L 106.152439 -33.169758 
L 111.345157 -33.169758 
L 111.345157 -32.403021 
L 116.537876 -32.403021 
L 116.537876 -31.829706 
L 121.730594 -31.829706 
L 121.730594 -31.290316 
L 126.923312 -31.290316 
L 126.923312 -31.009466 
L 142.501467 -31.009466 
L 142.501467 -30.824655 
L 147.694185 -30.824655 
L 147.694185 -30.771872 
L 158.079622 -30.771872 
L 158.079622 -30.693463 
L 168.465058 -30.693463 
L 168.465058 -30.682734 
L 168.465058 -30.682734 
L 168.465058 -30.682734 
L 168.465058 -31.251823 
L 158.079622 -31.251823 
L 158.079622 -31.549075 
L 147.694185 -31.549075 
L 147.694185 -31.696619 
L 142.501467 -31.696619 
L 142.501467 -32.120559 
L 126.923312 -32.120559 
L 126.923312 -32.657144 
L 121.730594 -32.657144 
L 121.730594 -33.553091 
L 116.537876 -33.553091 
L 116.537876 -34.417636 
L 111.345157 -34.417636 
L 111.345157 -35.501392 
L 106.152439 -35.501392 
L 106.152439 -36.329464 
L 100.959721 -36.329464 
L 100.959721 -37.380236 
L 95.767003 -37.380236 
L 95.767003 -41.033448 
L 90.574284 -41.033448 
L 90.574284 -42.93898 
L 85.381566 -42.93898 
L 85.381566 -46.701958 
L 80.188848 -46.701958 
L 80.188848 -50.960869 
L 74.99613 -50.960869 
L 74.99613 -55.819229 
L 69.803411 -55.819229 
L 69.803411 -61.375912 
L 64.610693 -61.375912 
L 64.610693 -71.088467 
L 59.417975 -71.088467 
L 59.417975 -82.020293 
L 54.225257 -82.020293 
L 54.225257 -96.566325 
L 49.032538 -96.566325 
L 49.032538 -130.758051 
L 43.83982 -130.758051 
z
"/>
    </defs>
    <g clip-path="url(#p74d719c5a9)">
     <use xlink:href="#md2d6dfd068" x="0" y="159.874545" style="fill: #d4572a; fill-opacity: 0.15"/>
    </g>
   </g>
   <g id="FillBetweenPolyCollection_4">
    <defs>
     <path id="m295d0d8794" d="M 43.83982 -130.758051 
L 43.83982 -130.758051 
L 49.032538 -130.758051 
L 49.032538 -85.982171 
L 54.225257 -85.982171 
L 54.225257 -71.106094 
L 59.417975 -71.106094 
L 59.417975 -61.483809 
L 64.610693 -61.483809 
L 64.610693 -53.794449 
L 69.803411 -53.794449 
L 69.803411 -49.42221 
L 74.99613 -49.42221 
L 74.99613 -45.680286 
L 80.188848 -45.680286 
L 80.188848 -43.121558 
L 85.381566 -43.121558 
L 85.381566 -39.209815 
L 90.574284 -39.209815 
L 90.574284 -37.703451 
L 95.767003 -37.703451 
L 95.767003 -35.821294 
L 100.959721 -35.821294 
L 100.959721 -34.639265 
L 106.152439 -34.639265 
L 106.152439 -33.867869 
L 111.345157 -33.867869 
L 111.345157 -32.990822 
L 116.537876 -32.990822 
L 116.537876 -32.149488 
L 121.730594 -32.149488 
L 121.730594 -31.583253 
L 126.923312 -31.583253 
L 126.923312 -31.166214 
L 132.11603 -31.166214 
L 132.11603 -30.892185 
L 137.308749 -30.892185 
L 137.308749 -30.814051 
L 142.501467 -30.814051 
L 142.501467 -30.698353 
L 147.694185 -30.698353 
L 147.694185 -30.682734 
L 147.694185 -30.682734 
L 147.694185 -30.682734 
L 147.694185 -31.515964 
L 142.501467 -31.515964 
L 142.501467 -31.959605 
L 137.308749 -31.959605 
L 137.308749 -32.178552 
L 132.11603 -32.178552 
L 132.11603 -32.806855 
L 126.923312 -32.806855 
L 126.923312 -33.601386 
L 121.730594 -33.601386 
L 121.730594 -34.554339 
L 116.537876 -34.554339 
L 116.537876 -35.843797 
L 111.345157 -35.843797 
L 111.345157 -37.099994 
L 106.152439 -37.099994 
L 106.152439 -38.158312 
L 100.959721 -38.158312 
L 100.959721 -39.722288 
L 95.767003 -39.722288 
L 95.767003 -42.114033 
L 90.574284 -42.114033 
L 90.574284 -43.967122 
L 85.381566 -43.967122 
L 85.381566 -48.610323 
L 80.188848 -48.610323 
L 80.188848 -51.553107 
L 74.99613 -51.553107 
L 74.99613 -55.759633 
L 69.803411 -55.759633 
L 69.803411 -60.56067 
L 64.610693 -60.56067 
L 64.610693 -68.775224 
L 59.417975 -68.775224 
L 59.417975 -78.731277 
L 54.225257 -78.731277 
L 54.225257 -93.534533 
L 49.032538 -93.534533 
L 49.032538 -130.758051 
L 43.83982 -130.758051 
z
"/>
    </defs>
    <g clip-path="url(#p74d719c5a9)">
     <use xlink:href="#m295d0d8794" x="0" y="159.874545" style="fill: #c8a020; fill-opacity: 0.15"/>
    </g>
   </g>
   <g id="patch_3">
    <path d="M 43.83982 129.191811 
L 43.83982 14.105197 
" style="fill: none; stroke: #000000; stroke-width: 0.6; stroke-linejoin: miter; stroke-linecap: square"/>
   </g>
   <g id="patch_4">
    <path d="M 43.83982 129.191811 
L 174.69632 129.191811 
" style="fill: none; stroke: #000000; stroke-width: 0.6; stroke-linejoin: miter; stroke-linecap: square"/>
   </g>
   <g id="line2d_14">
    <path d="M 43.83982 29.116494 
L 49.032538 29.116494 
L 49.032538 105.769928 
L 54.225257 105.769928 
L 54.225257 116.416239 
L 59.417975 116.416239 
L 59.417975 124.933287 
L 69.803411 124.933287 
L 69.803411 127.062549 
L 80.188848 127.062549 
L 80.188848 129.191811 
" clip-path="url(#p74d719c5a9)" style="fill: none; stroke: #1b3a8a; stroke-width: 1.4; stroke-linecap: square"/>
   </g>
   <g id="line2d_15">
    <path d="M 43.83982 29.116494 
L 49.032538 29.116494 
L 49.032538 65.021379 
L 54.225257 65.021379 
L 54.225257 81.063987 
L 59.417975 81.063987 
L 59.417975 94.05086 
L 64.610693 94.05086 
L 64.610693 105.509866 
L 69.803411 105.509866 
L 69.803411 110.857402 
L 74.99613 110.857402 
L 74.99613 115.441004 
L 80.188848 115.441004 
L 80.188848 117.732805 
L 85.381566 117.732805 
L 85.381566 121.552474 
L 90.574284 121.552474 
L 90.574284 122.316408 
L 95.767003 122.316408 
L 95.767003 125.372142 
L 100.959721 125.372142 
L 100.959721 126.90001 
L 111.345157 126.90001 
L 111.345157 129.191811 
" clip-path="url(#p74d719c5a9)" style="fill: none; stroke: #6b3fa0; stroke-width: 1.4; stroke-linecap: square"/>
   </g>
   <g id="line2d_16">
    <path d="M 43.83982 29.116494 
L 49.032538 29.116494 
L 49.032538 66.269585 
L 54.225257 66.269585 
L 54.225257 80.965236 
L 59.417975 80.965236 
L 59.417975 91.831739 
L 64.610693 91.831739 
L 64.610693 101.352866 
L 69.803411 101.352866 
L 69.803411 106.734372 
L 74.99613 106.734372 
L 74.99613 111.391444 
L 80.188848 111.391444 
L 80.188848 115.427574 
L 85.381566 115.427574 
L 85.381566 118.946251 
L 90.574284 118.946251 
L 90.574284 120.70559 
L 95.767003 120.70559 
L 95.767003 124.017286 
L 100.959721 124.017286 
L 100.959721 124.9487 
L 106.152439 124.9487 
L 106.152439 125.673134 
L 111.345157 125.673134 
L 111.345157 126.604548 
L 116.537876 126.604548 
L 116.537876 127.328982 
L 121.730594 127.328982 
L 121.730594 128.053415 
L 126.923312 128.053415 
L 126.923312 128.467378 
L 142.501467 128.467378 
L 142.501467 128.777849 
L 147.694185 128.777849 
L 147.694185 128.88134 
L 158.079622 128.88134 
L 158.079622 129.088321 
L 168.465058 129.088321 
L 168.465058 129.191811 
" clip-path="url(#p74d719c5a9)" style="fill: none; stroke: #d4572a; stroke-width: 1.4; stroke-linecap: square"/>
   </g>
   <g id="line2d_17">
    <path d="M 43.83982 29.116494 
L 49.032538 29.116494 
L 49.032538 70.007484 
L 54.225257 70.007484 
L 54.225257 84.91886 
L 59.417975 84.91886 
L 59.417975 94.757293 
L 64.610693 94.757293 
L 64.610693 102.751021 
L 69.803411 102.751021 
L 69.803411 107.362786 
L 74.99613 107.362786 
L 74.99613 111.35965 
L 80.188848 111.35965 
L 80.188848 114.12671 
L 85.381566 114.12671 
L 85.381566 118.431024 
L 90.574284 118.431024 
L 90.574284 120.122005 
L 95.767003 120.122005 
L 95.767003 122.274162 
L 100.959721 122.274162 
L 100.959721 123.657692 
L 106.152439 123.657692 
L 106.152439 124.580045 
L 111.345157 124.580045 
L 111.345157 125.656124 
L 116.537876 125.656124 
L 116.537876 126.732203 
L 121.730594 126.732203 
L 121.730594 127.50083 
L 126.923312 127.50083 
L 126.923312 128.115732 
L 132.11603 128.115732 
L 132.11603 128.576909 
L 137.308749 128.576909 
L 137.308749 128.730634 
L 142.501467 128.730634 
L 142.501467 129.038085 
L 147.694185 129.038085 
L 147.694185 129.191811 
" clip-path="url(#p74d719c5a9)" style="fill: none; stroke: #c8a020; stroke-width: 1.4; stroke-linecap: square"/>
   </g>
   <g id="text_15">
    <text style="font-weight: 700; font-size: 10px; font-family: 'Arial', 'Helvetica', 'DejaVu Sans', sans-serif; text-anchor: start" x="7.2" y="14.357813" transform="rotate(-0 7.2 14.357813)">A</text>
   </g>
   <g id="legend_1">
    <g id="text_16">
     <text style="font-size: 5px; font-family: 'Arial', 'Helvetica', 'DejaVu Sans', sans-serif; text-anchor: start" x="122.960383" y="22.184103" transform="rotate(-0 122.960383 22.184103)">Distance from source</text>
    </g>
    <g id="line2d_18">
     <path d="M 131.853742 27.506759 
L 134.853742 27.506759 
L 134.853742 27.506759 
L 137.853742 27.506759 
L 137.853742 27.506759 
" style="fill: none; stroke: #1b3a8a; stroke-width: 1.4; stroke-linecap: square"/>
    </g>
    <g id="text_17">
     <text style="font-size: 5px; font-family: 'Arial', 'Helvetica', 'DejaVu Sans', sans-serif; text-anchor: start" x="141.853742" y="29.256759" transform="rotate(-0 141.853742 29.256759)">0.5 mm</text>
    </g>
    <g id="line2d_19">
     <path d="M 131.853742 34.579416 
L 134.853742 34.579416 
L 134.853742 34.579416 
L 137.853742 34.579416 
L 137.853742 34.579416 
" style="fill: none; stroke: #6b3fa0; stroke-width: 1.4; stroke-linecap: square"/>
    </g>
    <g id="text_18">
     <text style="font-size: 5px; font-family: 'Arial', 'Helvetica', 'DejaVu Sans', sans-serif; text-anchor: start" x="141.853742" y="36.329416" transform="rotate(-0 141.853742 36.329416)">1.1 mm</text>
    </g>
    <g id="line2d_20">
     <path d="M 131.853742 41.652072 
L 134.853742 41.652072 
L 134.853742 41.652072 
L 137.853742 41.652072 
L 137.853742 41.652072 
" style="fill: none; stroke: #d4572a; stroke-width: 1.4; stroke-linecap: square"/>
    </g>
    <g id="text_19">
     <text style="font-size: 5px; font-family: 'Arial', 'Helvetica', 'DejaVu Sans', sans-serif; text-anchor: start" x="141.853742" y="43.402072" transform="rotate(-0 141.853742 43.402072)">1.9 mm</text>
    </g>
    <g id="line2d_21">
     <path d="M 131.853742 48.724728 
L 134.853742 48.724728 
L 134.853742 48.724728 
L 137.853742 48.724728 
L 137.853742 48.724728 
" style="fill: none; stroke: #c8a020; stroke-width: 1.4; stroke-linecap: square"/>
    </g>
    <g id="text_20">
     <text style="font-size: 5px; font-family: 'Arial', 'Helvetica', 'DejaVu Sans', sans-serif; text-anchor: start" x="141.853742" y="50.474728" transform="rotate(-0 141.853742 50.474728)">2.75 mm</text>
    </g>
   </g>
  </g>
  <g id="axes_2">
   <g id="patch_5">
    <path d="M 233.581745 129.191811 
L 364.438245 129.191811 
L 364.438245 14.105197 
L 233.581745 14.105197 
z
" style="fill: #ffffff"/>
   </g>
   <g id="patch_6">
    <path d="M 239.529768 129.191811 
L 255.182459 129.191811 
L 255.182459 14.105197 
L 239.529768 14.105197 
z
" clip-path="url(#p0350cb713a)" style="fill: #e74c3c; opacity: 0.1"/>
   </g>
   <g id="patch_7">
    <path d="M 267.704612 129.191811 
L 273.965689 129.191811 
L 273.965689 14.105197 
L 267.704612 14.105197 
z
" clip-path="url(#p0350cb713a)" style="fill: #3498db; opacity: 0.1"/>
   </g>
   <g id="patch_8">
    <path d="M 299.009995 129.191811 
L 305.271072 129.191811 
L 305.271072 14.105197 
L 299.009995 14.105197 
z
" clip-path="url(#p0350cb713a)" style="fill: #27ae60; opacity: 0.1"/>
   </g>
   <g id="matplotlib.axis_3">
    <g id="xtick_7">
     <g id="line2d_22">
      <g>
       <use xlink:href="#m59015b65ab" x="239.529768" y="129.191811" style="stroke: #000000; stroke-width: 0.6"/>
      </g>
     </g>
     <g id="text_21">
      <text style="font-size: 6.5px; font-family: 'Arial', 'Helvetica', 'DejaVu Sans', sans-serif; text-anchor: middle" x="239.529768" y="140.344389" transform="rotate(-0 239.529768 140.344389)">0</text>
     </g>
    </g>
    <g id="xtick_8">
     <g id="line2d_23">
      <g>
       <use xlink:href="#m59015b65ab" x="270.835151" y="129.191811" style="stroke: #000000; stroke-width: 0.6"/>
      </g>
     </g>
     <g id="text_22">
      <text style="font-size: 6.5px; font-family: 'Arial', 'Helvetica', 'DejaVu Sans', sans-serif; text-anchor: middle" x="270.835151" y="140.344389" transform="rotate(-0 270.835151 140.344389)">1</text>
     </g>
    </g>
    <g id="xtick_9">
     <g id="line2d_24">
      <g>
       <use xlink:href="#m59015b65ab" x="302.140533" y="129.191811" style="stroke: #000000; stroke-width: 0.6"/>
      </g>
     </g>
     <g id="text_23">
      <text style="font-size: 6.5px; font-family: 'Arial', 'Helvetica', 'DejaVu Sans', sans-serif; text-anchor: middle" x="302.140533" y="140.344389" transform="rotate(-0 302.140533 140.344389)">2</text>
     </g>
    </g>
    <g id="xtick_10">
     <g id="line2d_25">
      <g>
       <use xlink:href="#m59015b65ab" x="333.445916" y="129.191811" style="stroke: #000000; stroke-width: 0.6"/>
      </g>
     </g>
     <g id="text_24">
      <text style="font-size: 6.5px; font-family: 'Arial', 'Helvetica', 'DejaVu Sans', sans-serif; text-anchor: middle" x="333.445916" y="140.344389" transform="rotate(-0 333.445916 140.344389)">3</text>
     </g>
    </g>
    <g id="text_25">
     <text style="font-size: 7.5px; font-family: 'Arial', 'Helvetica', 'DejaVu Sans', sans-serif; text-anchor: middle" x="299.009995" y="151.09603" transform="rotate(-0 299.009995 151.09603)">Distance from boundary (mm)</text>
    </g>
   </g>
   <g id="matplotlib.axis_4">
    <g id="ytick_7">
     <g id="line2d_26">
      <g>
       <use xlink:href="#m59a39d351a" x="233.581745" y="129.191811" style="stroke: #000000; stroke-width: 0.6"/>
      </g>
     </g>
     <g id="text_26">
      <text style="font-size: 6.5px; font-family: 'Arial', 'Helvetica', 'DejaVu Sans', sans-serif; text-anchor: end" x="227.081745" y="131.5181" transform="rotate(-0 227.081745 131.5181)">0</text>
     </g>
    </g>
    <g id="ytick_8">
     <g id="line2d_27">
      <g>
       <use xlink:href="#m59a39d351a" x="233.581745" y="109.096863" style="stroke: #000000; stroke-width: 0.6"/>
      </g>
     </g>
     <g id="text_27">
      <text style="font-size: 6.5px; font-family: 'Arial', 'Helvetica', 'DejaVu Sans', sans-serif; text-anchor: end" x="227.081745" y="111.423152" transform="rotate(-0 227.081745 111.423152)">1</text>
     </g>
    </g>
    <g id="ytick_9">
     <g id="line2d_28">
      <g>
       <use xlink:href="#m59a39d351a" x="233.581745" y="89.001914" style="stroke: #000000; stroke-width: 0.6"/>
      </g>
     </g>
     <g id="text_28">
      <text style="font-size: 6.5px; font-family: 'Arial', 'Helvetica', 'DejaVu Sans', sans-serif; text-anchor: end" x="227.081745" y="91.328203" transform="rotate(-0 227.081745 91.328203)">2</text>
     </g>
    </g>
    <g id="ytick_10">
     <g id="line2d_29">
      <g>
       <use xlink:href="#m59a39d351a" x="233.581745" y="68.906966" style="stroke: #000000; stroke-width: 0.6"/>
      </g>
     </g>
     <g id="text_29">
      <text style="font-size: 6.5px; font-family: 'Arial', 'Helvetica', 'DejaVu Sans', sans-serif; text-anchor: end" x="227.081745" y="71.233255" transform="rotate(-0 227.081745 71.233255)">3</text>
     </g>
    </g>
    <g id="ytick_11">
     <g id="line2d_30">
      <g>
       <use xlink:href="#m59a39d351a" x="233.581745" y="48.812017" style="stroke: #000000; stroke-width: 0.6"/>
      </g>
     </g>
     <g id="text_30">
      <text style="font-size: 6.5px; font-family: 'Arial', 'Helvetica', 'DejaVu Sans', sans-serif; text-anchor: end" x="227.081745" y="51.138306" transform="rotate(-0 227.081745 51.138306)">4</text>
     </g>
    </g>
    <g id="ytick_12">
     <g id="line2d_31">
      <g>
       <use xlink:href="#m59a39d351a" x="233.581745" y="28.717069" style="stroke: #000000; stroke-width: 0.6"/>
      </g>
     </g>
     <g id="text_31">
      <text style="font-size: 6.5px; font-family: 'Arial', 'Helvetica', 'DejaVu Sans', sans-serif; text-anchor: end" x="227.081745" y="31.043358" transform="rotate(-0 227.081745 31.043358)">5</text>
     </g>
    </g>
    <g id="text_32">
     <!-- $\tau_{50}$ (min) -->
     <g transform="translate(217.817136 86.948504) rotate(-90)">
      <text>
       <tspan x="0" y="-0.171875" style="font-style: oblique; font-size: 7.5px; font-family: 'DejaVu Sans'">τ</tspan>
       <tspan x="4.515381" y="1.140625" style="font-size: 5.25px; font-family: 'DejaVu Sans'">5</tspan>
       <tspan x="7.855591" y="1.140625" style="font-size: 5.25px; font-family: 'DejaVu Sans'">0</tspan>
       <tspan x="11.414551" y="-0.171875" style="font-size: 7.5px; font-family: 'Arial'"> </tspan>
       <tspan x="13.498291" y="-0.171875" style="font-size: 7.5px; font-family: 'Arial'">(</tspan>
       <tspan x="15.99585" y="-0.171875" style="font-size: 7.5px; font-family: 'Arial'">m</tspan>
       <tspan x="22.243408" y="-0.171875" style="font-size: 7.5px; font-family: 'Arial'">i</tspan>
       <tspan x="23.909668" y="-0.171875" style="font-size: 7.5px; font-family: 'Arial'">n</tspan>
       <tspan x="28.080811" y="-0.171875" style="font-size: 7.5px; font-family: 'Arial'">)</tspan>
      </text>
     </g>
    </g>
   </g>
   <g id="line2d_32">
    <path d="M 270.835151 100.475268 
L 283.357304 77.112821 
L 295.879457 68.08212 
L 308.40161 48.916609 
L 320.923763 42.750567 
L 333.445916 47.567804 
L 345.968069 20.618887 
L 358.490222 18.218057 
" clip-path="url(#p0350cb713a)" style="fill: none; stroke: #555555; stroke-width: 0.8; stroke-linecap: square"/>
   </g>
   <g id="patch_9">
    <path d="M 233.581745 129.191811 
L 233.581745 14.105197 
" style="fill: none; stroke: #000000; stroke-width: 0.6; stroke-linejoin: miter; stroke-linecap: square"/>
   </g>
   <g id="patch_10">
    <path d="M 233.581745 129.191811 
L 364.438245 129.191811 
" style="fill: none; stroke: #000000; stroke-width: 0.6; stroke-linejoin: miter; stroke-linecap: square"/>
   </g>
   <g id="PathCollection_1">
    <defs>
     <path id="C0_0_9d7be358f8" d="M 0 1.870829 
C 0.49615 1.870829 0.972045 1.673706 1.322876 1.322876 
C 1.673706 0.972045 1.870829 0.49615 1.870829 -0 
C 1.870829 -0.49615 1.673706 -0.972045 1.322876 -1.322876 
C 0.972045 -1.673706 0.49615 -1.870829 0 -1.870829 
C -0.49615 -1.870829 -0.972045 -1.673706 -1.322876 -1.322876 
C -1.673706 -0.972045 -1.870829 -0.49615 -1.870829 0 
C -1.870829 0.49615 -1.673706 0.972045 -1.322876 1.322876 
C -0.972045 1.673706 -0.49615 1.870829 0 1.870829 
z
"/>
    </defs>
    <g clip-path="url(#p0350cb713a)">
     <use xlink:href="#C0_0_9d7be358f8" x="270.835151" y="100.475268" style="fill: #555555"/>
    </g>
    <g clip-path="url(#p0350cb713a)">
     <use xlink:href="#C0_0_9d7be358f8" x="283.357304" y="77.112821" style="fill: #555555"/>
    </g>
    <g clip-path="url(#p0350cb713a)">
     <use xlink:href="#C0_0_9d7be358f8" x="295.879457" y="68.08212" style="fill: #555555"/>
    </g>
    <g clip-path="url(#p0350cb713a)">
     <use xlink:href="#C0_0_9d7be358f8" x="308.40161" y="48.916609" style="fill: #555555"/>
    </g>
    <g clip-path="url(#p0350cb713a)">
     <use xlink:href="#C0_0_9d7be358f8" x="320.923763" y="42.750567" style="fill: #555555"/>
    </g>
    <g clip-path="url(#p0350cb713a)">
     <use xlink:href="#C0_0_9d7be358f8" x="333.445916" y="47.567804" style="fill: #555555"/>
    </g>
    <g clip-path="url(#p0350cb713a)">
     <use xlink:href="#C0_0_9d7be358f8" x="345.968069" y="20.618887" style="fill: #555555"/>
    </g>
    <g clip-path="url(#p0350cb713a)">
     <use xlink:href="#C0_0_9d7be358f8" x="358.490222" y="18.218057" style="fill: #555555"/>
    </g>
   </g>
   <g id="text_33">
    <text style="font-size: 5.5px; font-family: 'Arial', 'Helvetica', 'DejaVu Sans', sans-serif; fill: #e74c3c" transform="translate(321.243123 31.032755)">d*=2.53 mm</text>
    <!-- $R^2$=0.95 -->
    <g style="fill: #e74c3c" transform="translate(321.243123 36.95213)">
     <text>
      <tspan x="0" y="-0.585938" style="font-style: oblique; font-size: 5.5px; font-family: 'DejaVu Sans'; fill: #e74c3c">R</tspan>
      <tspan x="4.242627" y="-2.882812" style="font-size: 3.85px; font-family: 'DejaVu Sans'; fill: #e74c3c">2</tspan>
      <tspan x="6.856177" y="-0.585938" style="font-size: 5.5px; font-family: 'Arial'; fill: #e74c3c">=</tspan>
      <tspan x="10.068091" y="-0.585938" style="font-size: 5.5px; font-family: 'Arial'; fill: #e74c3c">0</tspan>
      <tspan x="13.126929" y="-0.585938" style="font-size: 5.5px; font-family: 'Arial'; fill: #e74c3c">.</tspan>
      <tspan x="14.655005" y="-0.585938" style="font-size: 5.5px; font-family: 'Arial'; fill: #e74c3c">9</tspan>
      <tspan x="17.713843" y="-0.585938" style="font-size: 5.5px; font-family: 'Arial'; fill: #e74c3c">5</tspan>
     </text>
    </g>
   </g>
   <g id="text_34">
    <text style="font-size: 5px; font-family: 'Arial', 'Helvetica', 'DejaVu Sans', sans-serif; text-anchor: middle; fill: #e74c3c" x="247.356114" y="13.111447" transform="rotate(-0 247.356114 13.111447)">near</text>
   </g>
   <g id="text_35">
    <text style="font-size: 5px; font-family: 'Arial', 'Helvetica', 'DejaVu Sans', sans-serif; text-anchor: middle; fill: #3498db" x="270.835151" y="13.111447" transform="rotate(-0 270.835151 13.111447)">mid</text>
   </g>
   <g id="text_36">
    <text style="font-size: 5px; font-family: 'Arial', 'Helvetica', 'DejaVu Sans', sans-serif; text-anchor: middle; fill: #27ae60" x="302.140533" y="13.111447" transform="rotate(-0 302.140533 13.111447)">far</text>
   </g>
   <g id="text_37">
    <text style="font-weight: 700; font-size: 10px; font-family: 'Arial', 'Helvetica', 'DejaVu Sans', sans-serif; text-anchor: start" x="196.941925" y="14.357813" transform="rotate(-0 196.941925 14.357813)">B</text>
   </g>
   <g id="line2d_33">
    <path d="M 270.835151 96.754752 
L 279.644706 85.60076 
L 285.811394 78.136583 
L 291.537605 71.547144 
L 296.823338 65.787586 
L 302.109071 60.349657 
L 307.394804 55.233801 
L 312.680537 50.433293 
L 317.96627 45.936695 
L 323.252003 41.729656 
L 328.537736 37.796198 
L 334.263946 33.824313 
L 339.990157 30.132601 
L 345.716368 26.700258 
L 351.883056 23.27114 
L 358.049745 20.096353 
L 358.490222 19.87873 
L 358.490222 19.87873 
" clip-path="url(#p0350cb713a)" style="fill: none; stroke: #000000; stroke-opacity: 0.7; stroke-width: 1.2; stroke-linecap: square"/>
   </g>
   <g id="line2d_34">
    <path d="M 318.738692 129.191811 
L 318.738692 14.105197 
" clip-path="url(#p0350cb713a)" style="fill: none; stroke-dasharray: 3.7,1.6; stroke-dashoffset: 0; stroke: #e74c3c; stroke-opacity: 0.8"/>
   </g>
  </g>
 </g>
 <defs>
  <clipPath id="p74d719c5a9">
   <rect x="43.83982" y="14.105197" width="130.8565" height="115.086614"/>
  </clipPath>
  <clipPath id="p0350cb713a">
   <rect x="233.581745" y="14.105197" width="130.8565" height="115.086614"/>
  </clipPath>
 </defs>
</svg>
